<svg xmlns="http://www.w3.org/2000/svg" width="505" height="335" viewBox="0 0 505 335">
  <g id="Grupo_137939" data-name="Grupo 137939" transform="translate(-915 -463)">
    <g id="Rectángulo_293574" data-name="Rectángulo 293574" transform="translate(915 463)" fill="none" stroke="#ffb30b" stroke-miterlimit="10" stroke-width="1">
      <rect width="505" height="335" stroke="none"/>
      <rect x="0.5" y="0.5" width="504" height="334" fill="none"/>
    </g>
    <g id="Grupo_131755" data-name="Grupo 131755" transform="translate(0 -1)">
      <path id="Trazado_202426" data-name="Trazado 202426" d="M-70.084-3.4a1.268,1.268,0,0,0-.479-1.055,5.954,5.954,0,0,0-1.683-.782,16.147,16.147,0,0,1-1.969-.782Q-76.7-7.242-76.7-9.378a3.011,3.011,0,0,1,.62-1.876,4.008,4.008,0,0,1,1.753-1.266,6.823,6.823,0,0,1,2.549-.453,5.969,5.969,0,0,1,2.474.492,3.917,3.917,0,0,1,1.7,1.4A3.661,3.661,0,0,1-67-9h-3.076a1.547,1.547,0,0,0-.479-1.213,1.867,1.867,0,0,0-1.3-.431,2.106,2.106,0,0,0-1.305.365,1.119,1.119,0,0,0-.479.927,1.127,1.127,0,0,0,.527.892,6.65,6.65,0,0,0,1.854.826,11.36,11.36,0,0,1,2.18.918A3.663,3.663,0,0,1-67-3.419,3.125,3.125,0,0,1-68.265-.782a5.629,5.629,0,0,1-3.472.958,6.888,6.888,0,0,1-2.817-.558,4.247,4.247,0,0,1-1.9-1.529,3.985,3.985,0,0,1-.637-2.237H-74a1.963,1.963,0,0,0,.532,1.516,2.513,2.513,0,0,0,1.727.488,1.985,1.985,0,0,0,1.208-.33A1.088,1.088,0,0,0-70.084-3.4Zm12.6-2.03h-4.852v3.059h5.73V0h-8.815V-12.8h8.833v2.382h-5.748v2.7h4.852Zm6.891.905h-1.67V0h-3.085V-12.8h5.036a5.621,5.621,0,0,1,3.56,1.01,3.421,3.421,0,0,1,1.283,2.853,4.155,4.155,0,0,1-.541,2.213A3.837,3.837,0,0,1-47.7-5.3l2.672,5.167V0h-3.3ZM-52.26-6.9h1.951a1.751,1.751,0,0,0,1.323-.463,1.788,1.788,0,0,0,.444-1.291,1.809,1.809,0,0,0-.448-1.3,1.735,1.735,0,0,0-1.318-.471H-52.26ZM-38.8-3.48l2.549-9.316h3.445L-37.116,0h-3.375l-4.271-12.8h3.419ZM-28.591,0h-3.076V-12.8h3.076Zm12.5-4.333a4.673,4.673,0,0,1-.721,2.36,4.35,4.35,0,0,1-1.85,1.586,6.3,6.3,0,0,1-2.72.563,5.025,5.025,0,0,1-3.973-1.644,6.786,6.786,0,0,1-1.45-4.641v-.633a7.746,7.746,0,0,1,.655-3.292,4.961,4.961,0,0,1,1.885-2.18,5.26,5.26,0,0,1,2.848-.769,5.516,5.516,0,0,1,3.744,1.226,4.844,4.844,0,0,1,1.608,3.379h-3.076a2.292,2.292,0,0,0-.589-1.679,2.422,2.422,0,0,0-1.687-.51,1.843,1.843,0,0,0-1.687.861,5.536,5.536,0,0,0-.562,2.751v.905a6.126,6.126,0,0,0,.514,2.927,1.882,1.882,0,0,0,1.771.879,2.369,2.369,0,0,0,1.626-.5,2.126,2.126,0,0,0,.6-1.591ZM-11.347,0h-3.076V-12.8h3.076ZM1.635-6.135A7.546,7.546,0,0,1,.94-2.821,5.132,5.132,0,0,1-1.033-.6,5.494,5.494,0,0,1-3.946.176a5.572,5.572,0,0,1-2.9-.751A5.123,5.123,0,0,1-8.82-2.725a7.329,7.329,0,0,1-.743-3.208v-.721a7.58,7.58,0,0,1,.69-3.318A5.119,5.119,0,0,1-6.9-12.19a5.533,5.533,0,0,1,2.931-.782,5.479,5.479,0,0,1,2.9.773A5.211,5.211,0,0,1,.918-10a7.362,7.362,0,0,1,.716,3.274ZM-1.5-6.671a5.381,5.381,0,0,0-.637-2.9,2.044,2.044,0,0,0-1.824-.989q-2.32,0-2.452,3.48l-.009.94A5.534,5.534,0,0,0-5.8-3.243,2.041,2.041,0,0,0-3.946-2.232a2.016,2.016,0,0,0,1.8-.993A5.383,5.383,0,0,0-1.5-6.082ZM9.826-3.4a1.268,1.268,0,0,0-.479-1.055,5.954,5.954,0,0,0-1.683-.782A16.147,16.147,0,0,1,5.7-6.021Q3.208-7.242,3.208-9.378a3.011,3.011,0,0,1,.62-1.876A4.008,4.008,0,0,1,5.581-12.52a6.823,6.823,0,0,1,2.549-.453,5.969,5.969,0,0,1,2.474.492,3.917,3.917,0,0,1,1.7,1.4A3.661,3.661,0,0,1,12.911-9H9.835a1.547,1.547,0,0,0-.479-1.213,1.867,1.867,0,0,0-1.3-.431,2.106,2.106,0,0,0-1.305.365,1.119,1.119,0,0,0-.479.927,1.127,1.127,0,0,0,.527.892,6.65,6.65,0,0,0,1.854.826,11.36,11.36,0,0,1,2.18.918,3.663,3.663,0,0,1,2.074,3.3A3.125,3.125,0,0,1,11.646-.782,5.629,5.629,0,0,1,8.174.176,6.888,6.888,0,0,1,5.357-.382a4.247,4.247,0,0,1-1.9-1.529,3.985,3.985,0,0,1-.637-2.237H5.915a1.963,1.963,0,0,0,.532,1.516,2.513,2.513,0,0,0,1.727.488,1.985,1.985,0,0,0,1.208-.33A1.088,1.088,0,0,0,9.826-3.4ZM18.976,0V-12.8H23.1a6.064,6.064,0,0,1,3.05.769,5.406,5.406,0,0,1,2.114,2.171,6.554,6.554,0,0,1,.769,3.142v.589a6.592,6.592,0,0,1-.743,3.151A5.429,5.429,0,0,1,26.2-.8a5.93,5.93,0,0,1-3.01.8Zm3.085-10.415v8.042h1.072a2.4,2.4,0,0,0,2.039-.945,4.63,4.63,0,0,0,.712-2.808V-6.68a4.592,4.592,0,0,0-.712-2.795,2.442,2.442,0,0,0-2.074-.94ZM38.549-5.432H33.7v3.059h5.73V0H30.612V-12.8h8.833v2.382H33.7v2.7h4.852Zm11.373.905h-1.67V0H45.167V-12.8H50.2a5.621,5.621,0,0,1,3.56,1.01,3.421,3.421,0,0,1,1.283,2.853,4.155,4.155,0,0,1-.541,2.213A3.837,3.837,0,0,1,52.813-5.3L55.485-.132V0h-3.3ZM48.252-6.9H50.2a1.751,1.751,0,0,0,1.323-.463,1.788,1.788,0,0,0,.444-1.291,1.809,1.809,0,0,0-.448-1.3,1.735,1.735,0,0,0-1.318-.471H48.252ZM64.846-5.432H59.994v3.059h5.73V0H56.909V-12.8h8.833v2.382H59.994v2.7h4.852ZM66.981,0V-12.8H71.1a6.064,6.064,0,0,1,3.05.769,5.406,5.406,0,0,1,2.114,2.171,6.554,6.554,0,0,1,.769,3.142v.589a6.592,6.592,0,0,1-.743,3.151A5.429,5.429,0,0,1,74.2-.8a5.93,5.93,0,0,1-3.01.8Zm3.085-10.415v8.042h1.072a2.4,2.4,0,0,0,2.039-.945,4.63,4.63,0,0,0,.712-2.808V-6.68a4.592,4.592,0,0,0-.712-2.795,2.442,2.442,0,0,0-2.074-.94Z" transform="translate(1168 495)"/>
      <g id="Grupo_131754" data-name="Grupo 131754" transform="translate(7.661 24.168)">
        <path id="Trazado_202420" data-name="Trazado 202420" d="M-39.716-4.753a6.612,6.612,0,0,1-2.633-1.278A2.442,2.442,0,0,1-43.173-7.9a2.58,2.58,0,0,1,1.007-2.084,4,4,0,0,1,2.618-.824,4.369,4.369,0,0,1,1.959.425,3.222,3.222,0,0,1,1.333,1.172,3,3,0,0,1,.472,1.633H-37.2a1.95,1.95,0,0,0-.615-1.525,2.5,2.5,0,0,0-1.736-.555,2.561,2.561,0,0,0-1.622.459,1.53,1.53,0,0,0-.582,1.273,1.376,1.376,0,0,0,.553,1.1A5.424,5.424,0,0,0-39.316-6a8.734,8.734,0,0,1,2.08.825,3.157,3.157,0,0,1,1.113,1.051A2.683,2.683,0,0,1-35.76-2.71,2.492,2.492,0,0,1-36.771-.634a4.31,4.31,0,0,1-2.7.78,5.013,5.013,0,0,1-2.051-.421,3.451,3.451,0,0,1-1.469-1.154,2.815,2.815,0,0,1-.516-1.663H-42.1a1.837,1.837,0,0,0,.714,1.527A3.007,3.007,0,0,0-39.474-1a2.764,2.764,0,0,0,1.707-.454A1.475,1.475,0,0,0-37.174-2.7a1.448,1.448,0,0,0-.549-1.212A6.333,6.333,0,0,0-39.716-4.753Zm8.833,4.9A3.463,3.463,0,0,1-33.5-.912a3.928,3.928,0,0,1-1.011-2.831v-.249a4.756,4.756,0,0,1,.45-2.106,3.514,3.514,0,0,1,1.26-1.45,3.167,3.167,0,0,1,1.754-.524,2.968,2.968,0,0,1,2.4,1.018,4.408,4.408,0,0,1,.857,2.915v.564H-33.16a2.817,2.817,0,0,0,.685,1.893,2.153,2.153,0,0,0,1.666.721,2.36,2.36,0,0,0,1.216-.293,3.055,3.055,0,0,0,.872-.776l.828.645A3.328,3.328,0,0,1-30.883.146Zm-.168-7.1a1.807,1.807,0,0,0-1.377.6,2.9,2.9,0,0,0-.688,1.674h3.97v-.1a2.581,2.581,0,0,0-.557-1.6A1.7,1.7,0,0,0-31.051-6.958Zm8.657.249a4.061,4.061,0,0,0-.667-.051,1.786,1.786,0,0,0-1.809,1.135V0h-1.355V-7.925h1.318l.022.916a2.11,2.11,0,0,1,1.89-1.062,1.384,1.384,0,0,1,.6.1ZM-18.4-1.838l1.963-6.086h1.384L-17.9,0h-1.033L-21.8-7.925h1.384ZM-12.279,0h-1.355V-7.925h1.355Zm-1.465-10.027a.809.809,0,0,1,.2-.557.756.756,0,0,1,.6-.227.768.768,0,0,1,.6.227.8.8,0,0,1,.205.557.774.774,0,0,1-.205.549.782.782,0,0,1-.6.22.77.77,0,0,1-.6-.22A.782.782,0,0,1-13.744-10.027Zm3.3,6a4.642,4.642,0,0,1,.864-2.933,2.733,2.733,0,0,1,2.263-1.11,2.748,2.748,0,0,1,2.2.952V-11.25h1.355V0H-5l-.066-.85a2.759,2.759,0,0,1-2.263,1A2.707,2.707,0,0,1-9.573-.981a4.7,4.7,0,0,1-.868-2.944Zm1.355.154a3.515,3.515,0,0,0,.557,2.109A1.8,1.8,0,0,0-6.991-1,1.977,1.977,0,0,0-5.109-2.161V-5.8A1.992,1.992,0,0,0-6.976-6.921a1.808,1.808,0,0,0-1.553.769A3.87,3.87,0,0,0-9.086-3.875Zm7.075-.161A4.681,4.681,0,0,1-1.553-6.13,3.415,3.415,0,0,1-.278-7.566a3.469,3.469,0,0,1,1.864-.505A3.342,3.342,0,0,1,4.2-6.951a4.311,4.311,0,0,1,1,2.981v.1A4.722,4.722,0,0,1,4.761-1.8,3.365,3.365,0,0,1,3.494-.366,3.509,3.509,0,0,1,1.6.146,3.334,3.334,0,0,1-1.011-.974a4.29,4.29,0,0,1-1-2.966Zm1.362.161A3.39,3.39,0,0,0-.037-1.758a1.957,1.957,0,0,0,1.637.8,1.945,1.945,0,0,0,1.641-.809,3.707,3.707,0,0,0,.608-2.267A3.384,3.384,0,0,0,3.23-6.149a1.968,1.968,0,0,0-1.644-.809,1.946,1.946,0,0,0-1.619.8A3.68,3.68,0,0,0-.648-3.875ZM10.734-6.709a4.061,4.061,0,0,0-.667-.051A1.786,1.786,0,0,0,8.258-5.625V0H6.9V-7.925H8.221l.022.916a2.11,2.11,0,0,1,1.89-1.062,1.384,1.384,0,0,1,.6.1ZM15.9,0V-10.664h3.01a4.846,4.846,0,0,1,2.461.615A4.161,4.161,0,0,1,23.027-8.3a5.7,5.7,0,0,1,.59,2.607v.681a5.718,5.718,0,0,1-.582,2.644A4.1,4.1,0,0,1,21.372-.623,5.155,5.155,0,0,1,18.856,0Zm1.406-9.514V-1.15H18.79a3.219,3.219,0,0,0,2.531-1.012,4.18,4.18,0,0,0,.9-2.881v-.623a4.246,4.246,0,0,0-.853-2.826,3.036,3.036,0,0,0-2.421-1.023ZM33.937,0H32.523L27.155-8.218V0H25.741V-10.664h1.414L32.538-2.41v-8.254h1.4Zm5.64-4.753a6.612,6.612,0,0,1-2.633-1.278A2.442,2.442,0,0,1,36.119-7.9a2.58,2.58,0,0,1,1.007-2.084,4,4,0,0,1,2.618-.824,4.369,4.369,0,0,1,1.959.425,3.222,3.222,0,0,1,1.333,1.172,3,3,0,0,1,.472,1.633H42.1a1.95,1.95,0,0,0-.615-1.525,2.5,2.5,0,0,0-1.736-.555,2.561,2.561,0,0,0-1.622.459,1.53,1.53,0,0,0-.582,1.273,1.376,1.376,0,0,0,.553,1.1A5.424,5.424,0,0,0,39.976-6a8.734,8.734,0,0,1,2.08.825,3.157,3.157,0,0,1,1.113,1.051,2.683,2.683,0,0,1,.363,1.414A2.492,2.492,0,0,1,42.521-.634a4.31,4.31,0,0,1-2.7.78,5.013,5.013,0,0,1-2.051-.421A3.451,3.451,0,0,1,36.3-1.428a2.815,2.815,0,0,1-.516-1.663H37.2a1.837,1.837,0,0,0,.714,1.527A3.007,3.007,0,0,0,39.818-1a2.764,2.764,0,0,0,1.707-.454A1.475,1.475,0,0,0,42.118-2.7a1.448,1.448,0,0,0-.549-1.212A6.333,6.333,0,0,0,39.576-4.753Z" transform="translate(968.339 530.555)"/>
        <path id="Trazado_202421" data-name="Trazado 202421" d="M-12.224-9.514h-3.428V0h-1.4V-9.514h-3.42v-1.15h8.247ZM-7.566.146A3.463,3.463,0,0,1-10.188-.912,3.928,3.928,0,0,1-11.2-3.743v-.249a4.756,4.756,0,0,1,.45-2.106,3.514,3.514,0,0,1,1.26-1.45,3.167,3.167,0,0,1,1.754-.524,2.968,2.968,0,0,1,2.4,1.018,4.408,4.408,0,0,1,.857,2.915v.564H-9.844a2.817,2.817,0,0,0,.685,1.893,2.153,2.153,0,0,0,1.666.721,2.36,2.36,0,0,0,1.216-.293,3.055,3.055,0,0,0,.872-.776l.828.645A3.328,3.328,0,0,1-7.566.146Zm-.168-7.1a1.807,1.807,0,0,0-1.377.6A2.9,2.9,0,0,0-9.8-4.687h3.97v-.1a2.581,2.581,0,0,0-.557-1.6A1.7,1.7,0,0,0-7.734-6.958ZM-1.436,0H-2.791V-11.25h1.355Zm3.45-7.925.044,1A2.888,2.888,0,0,1,4.431-8.071q2.512,0,2.534,2.834V0H5.61V-5.244a1.824,1.824,0,0,0-.392-1.267,1.57,1.57,0,0,0-1.2-.41,1.956,1.956,0,0,0-1.157.352,2.387,2.387,0,0,0-.776.923V0H.732V-7.925ZM12.3.146A3.463,3.463,0,0,1,9.675-.912,3.928,3.928,0,0,1,8.665-3.743v-.249A4.756,4.756,0,0,1,9.115-6.1a3.514,3.514,0,0,1,1.26-1.45,3.167,3.167,0,0,1,1.754-.524,2.968,2.968,0,0,1,2.4,1.018,4.408,4.408,0,0,1,.857,2.915v.564H10.02A2.817,2.817,0,0,0,10.7-1.681a2.153,2.153,0,0,0,1.666.721,2.36,2.36,0,0,0,1.216-.293,3.055,3.055,0,0,0,.872-.776l.828.645A3.328,3.328,0,0,1,12.3.146Zm-.168-7.1a1.807,1.807,0,0,0-1.377.6,2.9,2.9,0,0,0-.688,1.674h3.97v-.1a2.581,2.581,0,0,0-.557-1.6A1.7,1.7,0,0,0,12.129-6.958Zm6.665-2.886v1.919h1.479v1.047H18.794v4.921a1.1,1.1,0,0,0,.2.715A.832.832,0,0,0,19.666-1a3.281,3.281,0,0,0,.645-.088V0a3.951,3.951,0,0,1-1.04.146A1.687,1.687,0,0,1,17.9-.4a2.36,2.36,0,0,1-.461-1.56V-6.877H16V-7.925h1.443V-9.844Z" transform="translate(958.623 634.822)"/>
        <path id="Trazado_202422" data-name="Trazado 202422" d="M-33.2-4.753a6.612,6.612,0,0,1-2.633-1.278A2.442,2.442,0,0,1-36.661-7.9a2.58,2.58,0,0,1,1.007-2.084,4,4,0,0,1,2.618-.824,4.369,4.369,0,0,1,1.959.425,3.222,3.222,0,0,1,1.333,1.172,3,3,0,0,1,.472,1.633h-1.414A1.95,1.95,0,0,0-31.3-9.106a2.5,2.5,0,0,0-1.736-.555,2.561,2.561,0,0,0-1.622.459,1.53,1.53,0,0,0-.582,1.273,1.376,1.376,0,0,0,.553,1.1A5.424,5.424,0,0,0-32.805-6a8.734,8.734,0,0,1,2.08.825,3.157,3.157,0,0,1,1.113,1.051,2.683,2.683,0,0,1,.363,1.414A2.492,2.492,0,0,1-30.26-.634a4.31,4.31,0,0,1-2.7.78,5.013,5.013,0,0,1-2.051-.421,3.451,3.451,0,0,1-1.469-1.154A2.815,2.815,0,0,1-37-3.091h1.414a1.837,1.837,0,0,0,.714,1.527A3.007,3.007,0,0,0-32.963-1a2.764,2.764,0,0,0,1.707-.454A1.475,1.475,0,0,0-30.663-2.7a1.448,1.448,0,0,0-.549-1.212A6.333,6.333,0,0,0-33.2-4.753Zm8.833,4.9A3.463,3.463,0,0,1-26.993-.912,3.928,3.928,0,0,1-28-3.743v-.249a4.756,4.756,0,0,1,.45-2.106,3.514,3.514,0,0,1,1.26-1.45,3.167,3.167,0,0,1,1.754-.524,2.968,2.968,0,0,1,2.4,1.018,4.408,4.408,0,0,1,.857,2.915v.564h-5.369a2.817,2.817,0,0,0,.685,1.893A2.153,2.153,0,0,0-24.3-.959a2.36,2.36,0,0,0,1.216-.293,3.055,3.055,0,0,0,.872-.776l.828.645A3.328,3.328,0,0,1-24.371.146Zm-.168-7.1a1.807,1.807,0,0,0-1.377.6,2.9,2.9,0,0,0-.688,1.674h3.97v-.1a2.581,2.581,0,0,0-.557-1.6A1.7,1.7,0,0,0-24.54-6.958Zm8.657.249a4.061,4.061,0,0,0-.667-.051,1.786,1.786,0,0,0-1.809,1.135V0h-1.355V-7.925h1.318l.022.916a2.11,2.11,0,0,1,1.89-1.062,1.384,1.384,0,0,1,.6.1Zm3.992,4.871,1.963-6.086h1.384L-11.385,0h-1.033l-2.871-7.925h1.384ZM-5.768,0H-7.123V-7.925h1.355ZM-7.233-10.027a.809.809,0,0,1,.2-.557.756.756,0,0,1,.6-.227.768.768,0,0,1,.6.227.8.8,0,0,1,.205.557.774.774,0,0,1-.205.549.782.782,0,0,1-.6.22.77.77,0,0,1-.6-.22A.782.782,0,0,1-7.233-10.027Zm3.3,6a4.642,4.642,0,0,1,.864-2.933A2.733,2.733,0,0,1-.8-8.071a2.748,2.748,0,0,1,2.2.952V-11.25H2.758V0H1.512L1.447-.85a2.759,2.759,0,0,1-2.263,1A2.707,2.707,0,0,1-3.062-.981a4.7,4.7,0,0,1-.868-2.944Zm1.355.154a3.515,3.515,0,0,0,.557,2.109A1.8,1.8,0,0,0-.48-1,1.977,1.977,0,0,0,1.4-2.161V-5.8A1.992,1.992,0,0,0-.465-6.921a1.808,1.808,0,0,0-1.553.769A3.87,3.87,0,0,0-2.574-3.875ZM4.5-4.036A4.681,4.681,0,0,1,4.958-6.13,3.415,3.415,0,0,1,6.233-7.566,3.469,3.469,0,0,1,8.1-8.071a3.342,3.342,0,0,1,2.618,1.121,4.311,4.311,0,0,1,1,2.981v.1A4.722,4.722,0,0,1,11.272-1.8,3.365,3.365,0,0,1,10-.366,3.509,3.509,0,0,1,8.112.146,3.334,3.334,0,0,1,5.5-.974a4.29,4.29,0,0,1-1-2.966Zm1.362.161a3.39,3.39,0,0,0,.612,2.117,1.957,1.957,0,0,0,1.637.8,1.945,1.945,0,0,0,1.641-.809,3.707,3.707,0,0,0,.608-2.267,3.384,3.384,0,0,0-.619-2.113A1.968,1.968,0,0,0,8.1-6.958a1.946,1.946,0,0,0-1.619.8A3.68,3.68,0,0,0,5.863-3.875ZM17.245-6.709a4.061,4.061,0,0,0-.667-.051,1.786,1.786,0,0,0-1.809,1.135V0H13.414V-7.925h1.318l.022.916a2.11,2.11,0,0,1,1.89-1.062,1.384,1.384,0,0,1,.6.1Zm4.629,2.681a4.642,4.642,0,0,1,.864-2.933A2.733,2.733,0,0,1,25-8.071a2.748,2.748,0,0,1,2.2.952V-11.25h1.355V0H27.316L27.25-.85a2.759,2.759,0,0,1-2.263,1A2.707,2.707,0,0,1,22.742-.981a4.7,4.7,0,0,1-.868-2.944Zm1.355.154a3.515,3.515,0,0,0,.557,2.109A1.8,1.8,0,0,0,25.323-1a1.977,1.977,0,0,0,1.882-1.157V-5.8a1.992,1.992,0,0,0-1.868-1.121,1.808,1.808,0,0,0-1.553.769A3.87,3.87,0,0,0,23.229-3.875ZM33.951.146A3.463,3.463,0,0,1,31.329-.912a3.928,3.928,0,0,1-1.011-2.831v-.249a4.756,4.756,0,0,1,.45-2.106,3.514,3.514,0,0,1,1.26-1.45,3.167,3.167,0,0,1,1.754-.524,2.968,2.968,0,0,1,2.4,1.018,4.408,4.408,0,0,1,.857,2.915v.564H31.674a2.817,2.817,0,0,0,.685,1.893,2.153,2.153,0,0,0,1.666.721,2.36,2.36,0,0,0,1.216-.293,3.055,3.055,0,0,0,.872-.776l.828.645A3.328,3.328,0,0,1,33.951.146Zm-.168-7.1a1.807,1.807,0,0,0-1.377.6,2.9,2.9,0,0,0-.688,1.674h3.97v-.1a2.581,2.581,0,0,0-.557-1.6A1.7,1.7,0,0,0,33.783-6.958Zm-90.084,23a1.952,1.952,0,0,0,1.267-.439,1.546,1.546,0,0,0,.6-1.1h1.282a2.457,2.457,0,0,1-.469,1.3,3.087,3.087,0,0,1-1.154.981,3.329,3.329,0,0,1-1.527.366,3.265,3.265,0,0,1-2.574-1.08,4.3,4.3,0,0,1-.956-2.955v-.227a4.771,4.771,0,0,1,.425-2.058,3.236,3.236,0,0,1,1.219-1.4,3.464,3.464,0,0,1,1.879-.5,3.178,3.178,0,0,1,2.216.8,2.853,2.853,0,0,1,.941,2.073h-1.282a1.867,1.867,0,0,0-.582-1.263,1.811,1.811,0,0,0-1.293-.494,1.9,1.9,0,0,0-1.6.743,3.491,3.491,0,0,0-.568,2.15v.256a3.422,3.422,0,0,0,.564,2.109A1.906,1.906,0,0,0-56.3,16.041Zm4.314-3.076a4.681,4.681,0,0,1,.458-2.095,3.415,3.415,0,0,1,1.274-1.436,3.469,3.469,0,0,1,1.864-.505,3.342,3.342,0,0,1,2.618,1.121,4.311,4.311,0,0,1,1,2.981v.1a4.722,4.722,0,0,1-.443,2.076,3.365,3.365,0,0,1-1.267,1.432,3.509,3.509,0,0,1-1.893.513,3.334,3.334,0,0,1-2.611-1.121,4.29,4.29,0,0,1-1-2.966Zm1.362.161a3.39,3.39,0,0,0,.612,2.117,1.957,1.957,0,0,0,1.637.8,1.945,1.945,0,0,0,1.641-.809,3.707,3.707,0,0,0,.608-2.267,3.384,3.384,0,0,0-.619-2.113,1.968,1.968,0,0,0-1.644-.809,1.946,1.946,0,0,0-1.619.8A3.68,3.68,0,0,0-50.625,13.125Zm11.382-2.834a4.06,4.06,0,0,0-.667-.051,1.786,1.786,0,0,0-1.809,1.135V17h-1.355V9.075h1.318l.022.916a2.11,2.11,0,0,1,1.89-1.062,1.384,1.384,0,0,1,.6.1Zm5.076,0a4.06,4.06,0,0,0-.667-.051,1.786,1.786,0,0,0-1.809,1.135V17H-38V9.075h1.318l.022.916a2.11,2.11,0,0,1,1.89-1.062,1.384,1.384,0,0,1,.6.1Zm4.534,6.855a3.463,3.463,0,0,1-2.622-1.058,3.928,3.928,0,0,1-1.011-2.831v-.249a4.756,4.756,0,0,1,.45-2.106,3.514,3.514,0,0,1,1.26-1.45A3.167,3.167,0,0,1-29.8,8.929a2.968,2.968,0,0,1,2.4,1.018,4.408,4.408,0,0,1,.857,2.915v.564h-5.369a2.817,2.817,0,0,0,.685,1.893,2.153,2.153,0,0,0,1.666.721,2.36,2.36,0,0,0,1.216-.293,3.055,3.055,0,0,0,.872-.776l.828.645A3.328,3.328,0,0,1-29.634,17.146Zm-.168-7.1a1.807,1.807,0,0,0-1.377.6,2.9,2.9,0,0,0-.688,1.674h3.97v-.1a2.581,2.581,0,0,0-.557-1.6A1.7,1.7,0,0,0-29.8,10.042Zm4.468,2.922a4.681,4.681,0,0,1,.458-2.095A3.415,3.415,0,0,1-23.6,9.434a3.469,3.469,0,0,1,1.864-.505,3.342,3.342,0,0,1,2.618,1.121,4.311,4.311,0,0,1,1,2.981v.1a4.722,4.722,0,0,1-.443,2.076,3.365,3.365,0,0,1-1.267,1.432,3.509,3.509,0,0,1-1.893.513,3.334,3.334,0,0,1-2.611-1.121,4.29,4.29,0,0,1-1-2.966Zm1.362.161a3.39,3.39,0,0,0,.612,2.117,1.957,1.957,0,0,0,1.637.8,1.945,1.945,0,0,0,1.641-.809,3.707,3.707,0,0,0,.608-2.267,3.384,3.384,0,0,0-.619-2.113,1.968,1.968,0,0,0-1.644-.809,1.946,1.946,0,0,0-1.619.8A3.68,3.68,0,0,0-23.972,13.125Zm14.553,4.021a3.463,3.463,0,0,1-2.622-1.058,3.928,3.928,0,0,1-1.011-2.831v-.249A4.756,4.756,0,0,1-12.6,10.9a3.514,3.514,0,0,1,1.26-1.45,3.167,3.167,0,0,1,1.754-.524,2.968,2.968,0,0,1,2.4,1.018,4.408,4.408,0,0,1,.857,2.915v.564H-11.7a2.817,2.817,0,0,0,.685,1.893,2.153,2.153,0,0,0,1.666.721,2.36,2.36,0,0,0,1.216-.293,3.055,3.055,0,0,0,.872-.776l.828.645A3.328,3.328,0,0,1-9.419,17.146Zm-.168-7.1a1.807,1.807,0,0,0-1.377.6,2.9,2.9,0,0,0-.688,1.674h3.97v-.1a2.581,2.581,0,0,0-.557-1.6A1.7,1.7,0,0,0-9.587,10.042ZM-3.289,17H-4.644V5.75h1.355Zm5.457.146A3.463,3.463,0,0,1-.454,16.088a3.928,3.928,0,0,1-1.011-2.831v-.249a4.756,4.756,0,0,1,.45-2.106,3.514,3.514,0,0,1,1.26-1.45A3.167,3.167,0,0,1,2,8.929,2.968,2.968,0,0,1,4.4,9.947a4.408,4.408,0,0,1,.857,2.915v.564H-.11a2.817,2.817,0,0,0,.685,1.893,2.153,2.153,0,0,0,1.666.721,2.36,2.36,0,0,0,1.216-.293,3.055,3.055,0,0,0,.872-.776l.828.645A3.328,3.328,0,0,1,2.168,17.146ZM2,10.042a1.807,1.807,0,0,0-1.377.6,2.9,2.9,0,0,0-.688,1.674H3.9v-.1a2.581,2.581,0,0,0-.557-1.6A1.7,1.7,0,0,0,2,10.042Zm8.005,6a1.952,1.952,0,0,0,1.267-.439,1.546,1.546,0,0,0,.6-1.1h1.282a2.457,2.457,0,0,1-.469,1.3,3.087,3.087,0,0,1-1.154.981A3.329,3.329,0,0,1,10,17.146a3.265,3.265,0,0,1-2.574-1.08,4.3,4.3,0,0,1-.956-2.955v-.227A4.771,4.771,0,0,1,6.9,10.826a3.236,3.236,0,0,1,1.219-1.4A3.464,3.464,0,0,1,10,8.929a3.178,3.178,0,0,1,2.216.8,2.853,2.853,0,0,1,.941,2.073H11.873a1.867,1.867,0,0,0-.582-1.263A1.811,1.811,0,0,0,10,10.042a1.9,1.9,0,0,0-1.6.743,3.491,3.491,0,0,0-.568,2.15v.256A3.422,3.422,0,0,0,8.394,15.3,1.906,1.906,0,0,0,10,16.041Zm6.511-8.884V9.075H18v1.047H16.516v4.921a1.1,1.1,0,0,0,.2.715.832.832,0,0,0,.674.238,3.281,3.281,0,0,0,.645-.088V17a3.951,3.951,0,0,1-1.04.146,1.687,1.687,0,0,1-1.37-.549,2.36,2.36,0,0,1-.461-1.56V10.123H13.718V9.075h1.443V7.156Zm6.892,3.135a4.06,4.06,0,0,0-.667-.051,1.786,1.786,0,0,0-1.809,1.135V17H19.578V9.075H20.9l.022.916a2.11,2.11,0,0,1,1.89-1.062,1.384,1.384,0,0,1,.6.1Zm.886,2.673a4.681,4.681,0,0,1,.458-2.095,3.415,3.415,0,0,1,1.274-1.436,3.469,3.469,0,0,1,1.864-.505,3.342,3.342,0,0,1,2.618,1.121,4.311,4.311,0,0,1,1,2.981v.1a4.722,4.722,0,0,1-.443,2.076A3.365,3.365,0,0,1,29.8,16.634a3.509,3.509,0,0,1-1.893.513,3.334,3.334,0,0,1-2.611-1.121,4.29,4.29,0,0,1-1-2.966Zm1.362.161a3.39,3.39,0,0,0,.612,2.117,2.072,2.072,0,0,0,3.278-.011,3.707,3.707,0,0,0,.608-2.267,3.384,3.384,0,0,0-.619-2.113,1.968,1.968,0,0,0-1.644-.809,1.946,1.946,0,0,0-1.619.8A3.68,3.68,0,0,0,25.657,13.125ZM28.506,5.75h1.641L28.184,7.9l-1.091,0ZM34.49,9.075l.044,1a2.888,2.888,0,0,1,2.373-1.143q2.512,0,2.534,2.834V17H38.086V11.756a1.824,1.824,0,0,0-.392-1.267,1.57,1.57,0,0,0-1.2-.41,1.956,1.956,0,0,0-1.157.352,2.387,2.387,0,0,0-.776.923V17H33.208V9.075ZM42.957,17H41.6V9.075h1.355ZM41.492,6.973a.809.809,0,0,1,.2-.557.756.756,0,0,1,.6-.227.768.768,0,0,1,.6.227.8.8,0,0,1,.205.557.774.774,0,0,1-.205.549.782.782,0,0,1-.6.22.77.77,0,0,1-.6-.22A.782.782,0,0,1,41.492,6.973ZM48.3,16.041A1.952,1.952,0,0,0,49.57,15.6a1.546,1.546,0,0,0,.6-1.1h1.282a2.457,2.457,0,0,1-.469,1.3,3.087,3.087,0,0,1-1.154.981,3.329,3.329,0,0,1-1.527.366,3.265,3.265,0,0,1-2.574-1.08,4.3,4.3,0,0,1-.956-2.955v-.227a4.771,4.771,0,0,1,.425-2.058,3.236,3.236,0,0,1,1.219-1.4,3.464,3.464,0,0,1,1.879-.5,3.178,3.178,0,0,1,2.216.8,2.853,2.853,0,0,1,.941,2.073H50.171a1.867,1.867,0,0,0-.582-1.263,1.811,1.811,0,0,0-1.293-.494,1.9,1.9,0,0,0-1.6.743,3.491,3.491,0,0,0-.568,2.15v.256a3.422,3.422,0,0,0,.564,2.109A1.906,1.906,0,0,0,48.3,16.041Zm4.314-3.076a4.681,4.681,0,0,1,.458-2.095,3.415,3.415,0,0,1,1.274-1.436,3.469,3.469,0,0,1,1.864-.505,3.342,3.342,0,0,1,2.618,1.121,4.311,4.311,0,0,1,1,2.981v.1a4.722,4.722,0,0,1-.443,2.076,3.365,3.365,0,0,1-1.267,1.432,3.509,3.509,0,0,1-1.893.513,3.334,3.334,0,0,1-2.611-1.121,4.29,4.29,0,0,1-1-2.966Zm1.362.161a3.39,3.39,0,0,0,.612,2.117,2.072,2.072,0,0,0,3.278-.011,3.707,3.707,0,0,0,.608-2.267,3.384,3.384,0,0,0-.619-2.113,1.968,1.968,0,0,0-1.644-.809,1.946,1.946,0,0,0-1.619.8A3.68,3.68,0,0,0,53.979,13.125Z" transform="translate(988.405 727.059)"/>
        <path id="Trazado_202423" data-name="Trazado 202423" d="M-44.879-4.753a6.612,6.612,0,0,1-2.633-1.278A2.442,2.442,0,0,1-48.336-7.9a2.58,2.58,0,0,1,1.007-2.084,4,4,0,0,1,2.618-.824,4.369,4.369,0,0,1,1.959.425,3.222,3.222,0,0,1,1.333,1.172,3,3,0,0,1,.472,1.633H-42.36a1.95,1.95,0,0,0-.615-1.525,2.5,2.5,0,0,0-1.736-.555,2.561,2.561,0,0,0-1.622.459,1.53,1.53,0,0,0-.582,1.273,1.376,1.376,0,0,0,.553,1.1A5.424,5.424,0,0,0-44.48-6a8.734,8.734,0,0,1,2.08.825,3.157,3.157,0,0,1,1.113,1.051,2.683,2.683,0,0,1,.363,1.414A2.492,2.492,0,0,1-41.935-.634a4.31,4.31,0,0,1-2.7.78,5.013,5.013,0,0,1-2.051-.421,3.451,3.451,0,0,1-1.469-1.154,2.815,2.815,0,0,1-.516-1.663h1.414a1.837,1.837,0,0,0,.714,1.527A3.007,3.007,0,0,0-44.637-1a2.764,2.764,0,0,0,1.707-.454A1.475,1.475,0,0,0-42.338-2.7a1.448,1.448,0,0,0-.549-1.212A6.333,6.333,0,0,0-44.879-4.753Zm8.833,4.9A3.463,3.463,0,0,1-38.668-.912a3.928,3.928,0,0,1-1.011-2.831v-.249a4.756,4.756,0,0,1,.45-2.106,3.514,3.514,0,0,1,1.26-1.45,3.167,3.167,0,0,1,1.754-.524,2.968,2.968,0,0,1,2.4,1.018,4.408,4.408,0,0,1,.857,2.915v.564h-5.369a2.817,2.817,0,0,0,.685,1.893,2.153,2.153,0,0,0,1.666.721,2.36,2.36,0,0,0,1.216-.293,3.055,3.055,0,0,0,.872-.776l.828.645A3.328,3.328,0,0,1-36.046.146Zm-.168-7.1a1.807,1.807,0,0,0-1.377.6,2.9,2.9,0,0,0-.688,1.674h3.97v-.1a2.581,2.581,0,0,0-.557-1.6A1.7,1.7,0,0,0-36.215-6.958Zm8.657.249a4.061,4.061,0,0,0-.667-.051,1.786,1.786,0,0,0-1.809,1.135V0h-1.355V-7.925h1.318l.022.916a2.11,2.11,0,0,1,1.89-1.062,1.384,1.384,0,0,1,.6.1Zm3.992,4.871L-21.6-7.925h1.384L-23.06,0h-1.033l-2.871-7.925h1.384ZM-17.443,0H-18.8V-7.925h1.355Zm-1.465-10.027a.809.809,0,0,1,.2-.557.756.756,0,0,1,.6-.227.768.768,0,0,1,.6.227.8.8,0,0,1,.205.557.774.774,0,0,1-.205.549.782.782,0,0,1-.6.22.77.77,0,0,1-.6-.22A.782.782,0,0,1-18.907-10.027Zm3.3,6a4.642,4.642,0,0,1,.864-2.933,2.733,2.733,0,0,1,2.263-1.11,2.748,2.748,0,0,1,2.2.952V-11.25h1.355V0h-1.245l-.066-.85a2.759,2.759,0,0,1-2.263,1A2.707,2.707,0,0,1-14.736-.981,4.7,4.7,0,0,1-15.6-3.926Zm1.355.154a3.515,3.515,0,0,0,.557,2.109A1.8,1.8,0,0,0-12.155-1a1.977,1.977,0,0,0,1.882-1.157V-5.8A1.992,1.992,0,0,0-12.14-6.921a1.808,1.808,0,0,0-1.553.769A3.87,3.87,0,0,0-14.249-3.875Zm7.075-.161A4.681,4.681,0,0,1-6.716-6.13,3.415,3.415,0,0,1-5.442-7.566a3.469,3.469,0,0,1,1.864-.505A3.342,3.342,0,0,1-.959-6.951a4.311,4.311,0,0,1,1,2.981v.1A4.722,4.722,0,0,1-.4-1.8,3.365,3.365,0,0,1-1.67-.366,3.509,3.509,0,0,1-3.563.146,3.334,3.334,0,0,1-6.174-.974a4.29,4.29,0,0,1-1-2.966Zm1.362.161A3.39,3.39,0,0,0-5.2-1.758a1.957,1.957,0,0,0,1.637.8,1.945,1.945,0,0,0,1.641-.809,3.707,3.707,0,0,0,.608-2.267,3.384,3.384,0,0,0-.619-2.113,1.968,1.968,0,0,0-1.644-.809,1.946,1.946,0,0,0-1.619.8A3.68,3.68,0,0,0-5.812-3.875ZM5.57-6.709A4.061,4.061,0,0,0,4.9-6.76,1.786,1.786,0,0,0,3.094-5.625V0H1.74V-7.925H3.058l.022.916a2.11,2.11,0,0,1,1.89-1.062,1.384,1.384,0,0,1,.6.1ZM10.741,0V-10.664h3.01a4.846,4.846,0,0,1,2.461.615A4.161,4.161,0,0,1,17.864-8.3a5.7,5.7,0,0,1,.59,2.607v.681a5.718,5.718,0,0,1-.582,2.644A4.1,4.1,0,0,1,16.208-.623,5.155,5.155,0,0,1,13.693,0Zm1.406-9.514V-1.15h1.479a3.219,3.219,0,0,0,2.531-1.012,4.18,4.18,0,0,0,.9-2.881v-.623a4.246,4.246,0,0,0-.853-2.826,3.036,3.036,0,0,0-2.421-1.023ZM28.773,0H27.36V-4.929H21.984V0H20.577V-10.664h1.406v4.585H27.36v-4.585h1.414ZM39.115-3.384A3.923,3.923,0,0,1,37.866-.773a4.093,4.093,0,0,1-2.794.919,3.758,3.758,0,0,1-3.029-1.355A5.451,5.451,0,0,1,30.9-4.834V-5.859a6.076,6.076,0,0,1,.531-2.615,3.966,3.966,0,0,1,1.505-1.732,4.191,4.191,0,0,1,2.256-.6,3.853,3.853,0,0,1,2.725.948,3.971,3.971,0,0,1,1.194,2.626H37.7a3.064,3.064,0,0,0-.795-1.851,2.4,2.4,0,0,0-1.71-.573,2.516,2.516,0,0,0-2.113,1,4.577,4.577,0,0,0-.765,2.837v1.034a4.7,4.7,0,0,0,.725,2.764A2.343,2.343,0,0,0,35.072-1a2.706,2.706,0,0,0,1.8-.531A2.947,2.947,0,0,0,37.7-3.384Zm3.325-.791V0H41.034V-10.664h3.933a3.952,3.952,0,0,1,2.743.894A3.029,3.029,0,0,1,48.7-7.4a2.989,2.989,0,0,1-.97,2.391,4.128,4.128,0,0,1-2.78.839Zm0-1.15h2.527A2.526,2.526,0,0,0,46.7-5.857a1.945,1.945,0,0,0,.6-1.537,2.009,2.009,0,0,0-.6-1.526,2.367,2.367,0,0,0-1.648-.594H42.44Z" transform="translate(1302.912 727.059)"/>
        <path id="Trazado_202424" data-name="Trazado 202424" d="M-23.145-4.753a6.612,6.612,0,0,1-2.633-1.278A2.442,2.442,0,0,1-26.6-7.9a2.58,2.58,0,0,1,1.007-2.084,4,4,0,0,1,2.618-.824,4.369,4.369,0,0,1,1.959.425,3.222,3.222,0,0,1,1.333,1.172,3,3,0,0,1,.472,1.633h-1.414a1.95,1.95,0,0,0-.615-1.525,2.5,2.5,0,0,0-1.736-.555A2.561,2.561,0,0,0-24.6-9.2a1.53,1.53,0,0,0-.582,1.273,1.376,1.376,0,0,0,.553,1.1A5.424,5.424,0,0,0-22.745-6a8.734,8.734,0,0,1,2.08.825,3.157,3.157,0,0,1,1.113,1.051,2.683,2.683,0,0,1,.363,1.414A2.492,2.492,0,0,1-20.2-.634a4.31,4.31,0,0,1-2.7.78,5.013,5.013,0,0,1-2.051-.421,3.451,3.451,0,0,1-1.469-1.154,2.815,2.815,0,0,1-.516-1.663h1.414a1.837,1.837,0,0,0,.714,1.527A3.007,3.007,0,0,0-22.9-1,2.764,2.764,0,0,0-21.2-1.458,1.475,1.475,0,0,0-20.6-2.7a1.448,1.448,0,0,0-.549-1.212A6.333,6.333,0,0,0-23.145-4.753Zm8.833,4.9A3.463,3.463,0,0,1-16.934-.912a3.928,3.928,0,0,1-1.011-2.831v-.249a4.756,4.756,0,0,1,.45-2.106,3.514,3.514,0,0,1,1.26-1.45,3.167,3.167,0,0,1,1.754-.524,2.968,2.968,0,0,1,2.4,1.018,4.408,4.408,0,0,1,.857,2.915v.564h-5.369A2.817,2.817,0,0,0-15.9-1.681a2.153,2.153,0,0,0,1.666.721,2.36,2.36,0,0,0,1.216-.293,3.055,3.055,0,0,0,.872-.776l.828.645A3.328,3.328,0,0,1-14.312.146Zm-.168-7.1a1.807,1.807,0,0,0-1.377.6,2.9,2.9,0,0,0-.688,1.674h3.97v-.1a2.581,2.581,0,0,0-.557-1.6A1.7,1.7,0,0,0-14.48-6.958Zm8.657.249a4.061,4.061,0,0,0-.667-.051A1.786,1.786,0,0,0-8.3-5.625V0H-9.653V-7.925h1.318l.022.916a2.11,2.11,0,0,1,1.89-1.062,1.384,1.384,0,0,1,.6.1Zm3.992,4.871L.132-7.925H1.516L-1.326,0H-2.358L-5.229-7.925h1.384ZM4.292,0H2.937V-7.925H4.292ZM2.827-10.027a.809.809,0,0,1,.2-.557.756.756,0,0,1,.6-.227.768.768,0,0,1,.6.227.8.8,0,0,1,.205.557.774.774,0,0,1-.205.549.782.782,0,0,1-.6.22.77.77,0,0,1-.6-.22A.782.782,0,0,1,2.827-10.027Zm3.3,6a4.642,4.642,0,0,1,.864-2.933,2.733,2.733,0,0,1,2.263-1.11,2.748,2.748,0,0,1,2.2.952V-11.25h1.355V0H11.572l-.066-.85a2.759,2.759,0,0,1-2.263,1A2.707,2.707,0,0,1,7-.981,4.7,4.7,0,0,1,6.13-3.926Zm1.355.154a3.515,3.515,0,0,0,.557,2.109A1.8,1.8,0,0,0,9.58-1a1.977,1.977,0,0,0,1.882-1.157V-5.8A1.992,1.992,0,0,0,9.595-6.921a1.808,1.808,0,0,0-1.553.769A3.87,3.87,0,0,0,7.485-3.875Zm7.075-.161a4.681,4.681,0,0,1,.458-2.095,3.415,3.415,0,0,1,1.274-1.436,3.469,3.469,0,0,1,1.864-.505,3.342,3.342,0,0,1,2.618,1.121,4.311,4.311,0,0,1,1,2.981v.1A4.722,4.722,0,0,1,21.332-1.8,3.365,3.365,0,0,1,20.065-.366a3.509,3.509,0,0,1-1.893.513A3.334,3.334,0,0,1,15.56-.974a4.29,4.29,0,0,1-1-2.966Zm1.362.161a3.39,3.39,0,0,0,.612,2.117,1.957,1.957,0,0,0,1.637.8,1.945,1.945,0,0,0,1.641-.809,3.707,3.707,0,0,0,.608-2.267A3.384,3.384,0,0,0,19.8-6.149a1.968,1.968,0,0,0-1.644-.809,1.946,1.946,0,0,0-1.619.8A3.68,3.68,0,0,0,15.923-3.875ZM27.3-6.709a4.061,4.061,0,0,0-.667-.051,1.786,1.786,0,0,0-1.809,1.135V0H23.474V-7.925h1.318l.022.916A2.11,2.11,0,0,1,26.7-8.071a1.384,1.384,0,0,1,.6.1ZM-11.3,13.638l.205,1.406.3-1.267,2.109-7.441H-7.5l2.058,7.441.293,1.289.227-1.436,1.655-7.295h1.414L-4.435,17H-5.717l-2.2-7.771-.168-.813-.168.813L-10.529,17H-11.81L-14.388,6.336h1.406ZM2.787,17.146A3.463,3.463,0,0,1,.165,16.088,3.928,3.928,0,0,1-.846,13.257v-.249A4.756,4.756,0,0,1-.4,10.9a3.514,3.514,0,0,1,1.26-1.45,3.167,3.167,0,0,1,1.754-.524,2.968,2.968,0,0,1,2.4,1.018,4.408,4.408,0,0,1,.857,2.915v.564H.509a2.817,2.817,0,0,0,.685,1.893,2.153,2.153,0,0,0,1.666.721,2.36,2.36,0,0,0,1.216-.293,3.055,3.055,0,0,0,.872-.776l.828.645A3.328,3.328,0,0,1,2.787,17.146Zm-.168-7.1a1.807,1.807,0,0,0-1.377.6,2.9,2.9,0,0,0-.688,1.674h3.97v-.1a2.581,2.581,0,0,0-.557-1.6A1.7,1.7,0,0,0,2.618,10.042Zm11.536,3.083a4.712,4.712,0,0,1-.835,2.919,2.668,2.668,0,0,1-2.241,1.1,2.763,2.763,0,0,1-2.322-1.062L8.69,17H7.445V5.75H8.8v4.2a2.747,2.747,0,0,1,2.263-1.018A2.684,2.684,0,0,1,13.33,10.02a4.853,4.853,0,0,1,.824,2.988ZM12.8,12.972a3.662,3.662,0,0,0-.535-2.139,1.77,1.77,0,0,0-1.538-.754A1.989,1.989,0,0,0,8.8,11.324v3.428A2.045,2.045,0,0,0,10.741,16a1.76,1.76,0,0,0,1.516-.754A3.894,3.894,0,0,0,12.8,12.972Z" transform="translate(1368.339 634.02)"/>
        <path id="Trazado_202425" data-name="Trazado 202425" d="M-38.427-4.753A6.612,6.612,0,0,1-41.06-6.031,2.442,2.442,0,0,1-41.884-7.9a2.58,2.58,0,0,1,1.007-2.084,4,4,0,0,1,2.618-.824,4.369,4.369,0,0,1,1.959.425,3.222,3.222,0,0,1,1.333,1.172,3,3,0,0,1,.472,1.633h-1.414a1.95,1.95,0,0,0-.615-1.525,2.5,2.5,0,0,0-1.736-.555A2.561,2.561,0,0,0-39.88-9.2a1.53,1.53,0,0,0-.582,1.273,1.376,1.376,0,0,0,.553,1.1A5.424,5.424,0,0,0-38.027-6a8.734,8.734,0,0,1,2.08.825,3.157,3.157,0,0,1,1.113,1.051,2.683,2.683,0,0,1,.363,1.414A2.492,2.492,0,0,1-35.482-.634a4.31,4.31,0,0,1-2.7.78,5.013,5.013,0,0,1-2.051-.421A3.451,3.451,0,0,1-41.7-1.428a2.815,2.815,0,0,1-.516-1.663h1.414a1.837,1.837,0,0,0,.714,1.527A3.007,3.007,0,0,0-38.185-1a2.764,2.764,0,0,0,1.707-.454A1.475,1.475,0,0,0-35.885-2.7a1.448,1.448,0,0,0-.549-1.212A6.333,6.333,0,0,0-38.427-4.753Zm8.833,4.9A3.463,3.463,0,0,1-32.216-.912a3.928,3.928,0,0,1-1.011-2.831v-.249a4.756,4.756,0,0,1,.45-2.106,3.514,3.514,0,0,1,1.26-1.45,3.167,3.167,0,0,1,1.754-.524,2.968,2.968,0,0,1,2.4,1.018A4.408,4.408,0,0,1-26.5-4.138v.564h-5.369a2.817,2.817,0,0,0,.685,1.893,2.153,2.153,0,0,0,1.666.721A2.36,2.36,0,0,0-28.3-1.252a3.055,3.055,0,0,0,.872-.776l.828.645A3.328,3.328,0,0,1-29.594.146Zm-.168-7.1a1.807,1.807,0,0,0-1.377.6,2.9,2.9,0,0,0-.688,1.674h3.97v-.1a2.581,2.581,0,0,0-.557-1.6A1.7,1.7,0,0,0-29.762-6.958Zm8.657.249a4.061,4.061,0,0,0-.667-.051A1.786,1.786,0,0,0-23.58-5.625V0h-1.355V-7.925h1.318l.022.916a2.11,2.11,0,0,1,1.89-1.062,1.384,1.384,0,0,1,.6.1Zm3.992,4.871,1.963-6.086h1.384L-16.608,0H-17.64l-2.871-7.925h1.384ZM-10.99,0h-1.355V-7.925h1.355Zm-1.465-10.027a.809.809,0,0,1,.2-.557.756.756,0,0,1,.6-.227.768.768,0,0,1,.6.227.8.8,0,0,1,.205.557.774.774,0,0,1-.205.549.782.782,0,0,1-.6.22.77.77,0,0,1-.6-.22A.782.782,0,0,1-12.455-10.027Zm3.3,6a4.642,4.642,0,0,1,.864-2.933,2.733,2.733,0,0,1,2.263-1.11,2.748,2.748,0,0,1,2.2.952V-11.25h1.355V0H-3.71l-.066-.85a2.759,2.759,0,0,1-2.263,1A2.707,2.707,0,0,1-8.284-.981a4.7,4.7,0,0,1-.868-2.944Zm1.355.154A3.515,3.515,0,0,0-7.24-1.765,1.8,1.8,0,0,0-5.7-1,1.977,1.977,0,0,0-3.82-2.161V-5.8A1.992,1.992,0,0,0-5.687-6.921a1.808,1.808,0,0,0-1.553.769A3.87,3.87,0,0,0-7.8-3.875Zm7.075-.161A4.681,4.681,0,0,1-.264-6.13,3.415,3.415,0,0,1,1.011-7.566a3.469,3.469,0,0,1,1.864-.505A3.342,3.342,0,0,1,5.493-6.951a4.311,4.311,0,0,1,1,2.981v.1A4.722,4.722,0,0,1,6.05-1.8,3.365,3.365,0,0,1,4.783-.366,3.509,3.509,0,0,1,2.889.146,3.334,3.334,0,0,1,.278-.974a4.29,4.29,0,0,1-1-2.966Zm1.362.161a3.39,3.39,0,0,0,.612,2.117,1.957,1.957,0,0,0,1.637.8A1.945,1.945,0,0,0,4.53-1.769a3.707,3.707,0,0,0,.608-2.267,3.384,3.384,0,0,0-.619-2.113,1.968,1.968,0,0,0-1.644-.809,1.946,1.946,0,0,0-1.619.8A3.68,3.68,0,0,0,.641-3.875ZM12.023-6.709a4.061,4.061,0,0,0-.667-.051A1.786,1.786,0,0,0,9.547-5.625V0H8.192V-7.925H9.51l.022.916a2.11,2.11,0,0,1,1.89-1.062,1.384,1.384,0,0,1,.6.1Zm11.052,2H18.6V0H17.194V-10.664H23.8v1.15H18.6v3.655h4.475ZM33-9.514H29.572V0h-1.4V-9.514h-3.42v-1.15H33Zm2.988,5.339V0H34.581V-10.664h3.933a3.952,3.952,0,0,1,2.743.894A3.029,3.029,0,0,1,42.25-7.4a2.989,2.989,0,0,1-.97,2.391,4.128,4.128,0,0,1-2.78.839Zm0-1.15h2.527a2.526,2.526,0,0,0,1.729-.532,1.945,1.945,0,0,0,.6-1.537,2.009,2.009,0,0,0-.6-1.526,2.367,2.367,0,0,0-1.648-.594H35.988Z" transform="translate(1323.201 530.555)"/>
        <circle id="Elipse_4831" data-name="Elipse 4831" cx="1.838" cy="1.838" r="1.838" transform="translate(1193.302 610.195)"/>
        <circle id="Elipse_4832" data-name="Elipse 4832" cx="1.838" cy="1.838" r="1.838" transform="translate(1172.169 573.761)"/>
        <circle id="Elipse_4833" data-name="Elipse 4833" cx="1.838" cy="1.838" r="1.838" transform="translate(1130.049 573.847)"/>
        <circle id="Elipse_4834" data-name="Elipse 4834" cx="1.838" cy="1.838" r="1.838" transform="translate(1109.063 610.366)"/>
        <circle id="Elipse_4835" data-name="Elipse 4835" cx="1.838" cy="1.838" r="1.838" transform="translate(1130.197 646.8)"/>
        <circle id="Elipse_4836" data-name="Elipse 4836" cx="1.838" cy="1.838" r="1.838" transform="translate(1172.317 646.714)"/>
        <circle id="Elipse_4837" data-name="Elipse 4837" cx="1.838" cy="1.838" r="1.838" transform="translate(1253.912 628.451)"/>
        <circle id="Elipse_4838" data-name="Elipse 4838" cx="1.838" cy="1.838" r="1.838" transform="translate(1200.828 538.328)"/>
        <circle id="Elipse_4839" data-name="Elipse 4839" cx="1.838" cy="1.838" r="1.838" transform="translate(1096.237 539.239)"/>
        <circle id="Elipse_4840" data-name="Elipse 4840" cx="1.838" cy="1.838" r="1.838" transform="translate(1044.73 630.273)"/>
        <circle id="Elipse_4841" data-name="Elipse 4841" cx="1.838" cy="1.838" r="1.838" transform="translate(1113.454 684.647)"/>
        <circle id="Elipse_4842" data-name="Elipse 4842" cx="1.838" cy="1.838" r="1.838" transform="translate(1188.254 685.226)"/>
        <g id="Grupo_128987" data-name="Grupo 128987" transform="translate(1132.748 497.896)">
          <path id="Trazado_189593" data-name="Trazado 189593" d="M2831.805,66.189c0,5.832-.018,11.665.02,17.5a2.617,2.617,0,0,1-.961,2.126,13.652,13.652,0,0,1-4.605,2.467,39.686,39.686,0,0,1-9.456,2.048,51.3,51.3,0,0,1-15.337-.684,24.939,24.939,0,0,1-7.653-2.668,10.6,10.6,0,0,1-.985-.658,3.447,3.447,0,0,1-1.547-3.054q.086-17.015,0-34.032a5.94,5.94,0,0,1,3.036-5.447,22.95,22.95,0,0,1,8.538-2.993,48.436,48.436,0,0,1,19.78.511,17.47,17.47,0,0,1,7.109,3.17,5.2,5.2,0,0,1,2.076,4.294C2831.783,54.572,2831.805,60.381,2831.805,66.189Zm-37.966,8.832c0,2.916-.01,5.706.019,8.495a1,1,0,0,0,.417.708,16.519,16.519,0,0,0,2.445,1.364,35.039,35.039,0,0,0,10.661,2.3,43.977,43.977,0,0,0,17.551-1.828,24.658,24.658,0,0,0,3.844-1.849,1.268,1.268,0,0,0,.481-.951c.04-2.544.022-5.089.02-7.633,0-.181-.028-.361-.046-.582-5.618,2.835-11.605,3.533-17.687,3.532S2799.48,77.874,2793.839,75.021Zm0-11.865v.814c0,2.248.069,4.5-.03,6.742a1.83,1.83,0,0,0,1.23,2.01,48.423,48.423,0,0,0,5.524,2.053,44.383,44.383,0,0,0,13.3,1.22,39,39,0,0,0,11.123-1.907,24.237,24.237,0,0,0,3.772-1.837,1.371,1.371,0,0,0,.5-1.026c.042-2.47.023-4.94.021-7.41,0-.188-.018-.377-.027-.535-1.27.591-2.478,1.268-3.762,1.73a42.018,42.018,0,0,1-16.633,2.105,34.488,34.488,0,0,1-13.068-2.877C2795.15,63.938,2794.552,63.555,2793.839,63.156Zm17.652-9.239a40.194,40.194,0,0,0,12.593-1.811,11.451,11.451,0,0,0,4.281-2.273c1.207-1.106,1.207-2.087,0-3.2a11,11,0,0,0-4.137-2.23,41.21,41.21,0,0,0-14.832-1.8,37,37,0,0,0-10.537,1.811,10.95,10.95,0,0,0-4.185,2.293,1.837,1.837,0,0,0-.012,3.052,2.709,2.709,0,0,0,.624.518,32.571,32.571,0,0,0,3.781,1.819A38.1,38.1,0,0,0,2811.491,53.918Zm-17.652-1.477c0,1.911.076,3.762-.025,5.6a3.313,3.313,0,0,0,1.677,3.141,17.366,17.366,0,0,0,5.877,2.35,45.26,45.26,0,0,0,15.237.875,29.611,29.611,0,0,0,8.759-2.05,15.448,15.448,0,0,0,3.019-1.828,2.157,2.157,0,0,0,.84-1.408c.088-2.208.039-4.422.039-6.6-1.328.612-2.583,1.3-3.914,1.784a38.867,38.867,0,0,1-13.468,2.118C2805.629,56.406,2799.508,55.724,2793.839,52.441Z" transform="translate(-2791.28 -40.012)"/>
          <path id="Trazado_189594" data-name="Trazado 189594" d="M2794.716,87.019c5.641,2.852,11.626,3.556,17.706,3.558s12.069-.7,17.687-3.532c.019.22.046.4.046.582,0,2.544.02,5.089-.02,7.633a1.267,1.267,0,0,1-.481.951,24.647,24.647,0,0,1-3.844,1.849,43.977,43.977,0,0,1-17.551,1.828,35.036,35.036,0,0,1-10.661-2.3,16.519,16.519,0,0,1-2.445-1.364,1,1,0,0,1-.417-.708C2794.705,92.725,2794.716,89.935,2794.716,87.019Z" transform="translate(-2792.156 -52.01)" fill="#084a93"/>
          <path id="Trazado_189595" data-name="Trazado 189595" d="M2794.7,71.088c.713.4,1.311.782,1.948,1.082a34.491,34.491,0,0,0,13.068,2.877,42.017,42.017,0,0,0,16.633-2.105c1.285-.462,2.492-1.139,3.763-1.73.009.159.027.347.027.535,0,2.47.021,4.94-.021,7.41a1.369,1.369,0,0,1-.5,1.026,24.242,24.242,0,0,1-3.772,1.837,39,39,0,0,1-11.123,1.907,44.385,44.385,0,0,1-13.3-1.22,48.4,48.4,0,0,1-5.524-2.053,1.831,1.831,0,0,1-1.23-2.01c.1-2.243.031-4.494.031-6.742Z" transform="translate(-2792.145 -47.944)" fill="#084a93"/>
          <path id="Trazado_189596" data-name="Trazado 189596" d="M2812.374,54.787a38.1,38.1,0,0,1-12.418-1.827,32.565,32.565,0,0,1-3.781-1.819,2.709,2.709,0,0,1-.624-.518,1.837,1.837,0,0,1,.012-3.052,10.945,10.945,0,0,1,4.185-2.293,36.993,36.993,0,0,1,10.537-1.811,41.206,41.206,0,0,1,14.831,1.8,11,11,0,0,1,4.137,2.23c1.2,1.114,1.2,2.1,0,3.2a11.451,11.451,0,0,1-4.281,2.273A40.2,40.2,0,0,1,2812.374,54.787Z" transform="translate(-2792.164 -40.882)" fill="#084a93"/>
          <path id="Trazado_189597" data-name="Trazado 189597" d="M2794.706,56.7c5.669,3.283,11.79,3.965,18.041,3.985a38.866,38.866,0,0,0,13.468-2.118c1.331-.481,2.586-1.172,3.914-1.784,0,2.178.05,4.392-.038,6.6a2.156,2.156,0,0,1-.84,1.408,15.444,15.444,0,0,1-3.02,1.828,29.6,29.6,0,0,1-8.758,2.05,45.261,45.261,0,0,1-15.237-.875,17.36,17.36,0,0,1-5.877-2.35,3.312,3.312,0,0,1-1.677-3.141C2794.781,60.462,2794.706,58.611,2794.706,56.7Z" transform="translate(-2792.146 -44.272)" fill="#084a93"/>
        </g>
        <g id="Grupo_128990" data-name="Grupo 128990" transform="translate(1069.748 690.173)">
          <g id="Grupo_128988" data-name="Grupo 128988">
            <path id="Trazado_189598" data-name="Trazado 189598" d="M2745.788,298.184a6.339,6.339,0,0,1,3.853,2.124,5.877,5.877,0,0,1,1.336,3.5c.015.273.014.546.014.819q0,27.388.012,54.775a3.755,3.755,0,0,1-2.072,3.754.712.712,0,0,0-.257.538c-.025,1-.005,2-.014,3.005s-.427,1.432-1.407,1.432q-18.411.007-36.82,0c-.981,0-1.4-.438-1.408-1.432s.022-1.959-.02-2.937a.921.921,0,0,0-.375-.664,3.535,3.535,0,0,1-1.935-3.287q0-27.8-.007-55.6a5.871,5.871,0,0,1,5.022-5.955.737.737,0,0,0,.187-.082Zm-36.764,33.61q0,13.833,0,27.666c0,1.334.363,1.7,1.707,1.7h36.21c1.373,0,1.721-.355,1.721-1.75q0-27.426,0-54.853c0-2.672-1.365-4.04-4.03-4.041h-31.564c-2.673,0-4.043,1.365-4.043,4.028Q2709.023,318.167,2709.024,331.794ZM2746.3,363.53h-34.9v2.248h34.9Z" transform="translate(-2706.689 -298.184)"/>
            <path id="Trazado_189599" data-name="Trazado 189599" d="M2709.824,332.592q0-13.627,0-27.255c0-2.663,1.37-4.027,4.043-4.028h31.564c2.665,0,4.03,1.37,4.03,4.041q0,27.426,0,54.853c0,1.395-.348,1.75-1.721,1.75h-36.21c-1.344,0-1.707-.361-1.707-1.7Q2709.823,346.425,2709.824,332.592Zm19.817.2h-9.9q-2.937,0-5.873,0c-1.363,0-1.715.349-1.715,1.682,0,2.071-.006,4.142,0,6.213,0,.979.433,1.41,1.412,1.443.409.013.819,0,1.229,0h30.66c1.3,0,1.679-.377,1.681-1.655q0-2.936,0-5.872c0-1.5-.311-1.813-1.789-1.814Zm.009-23.3q-7.99,0-15.978,0c-1.123,0-1.516.4-1.518,1.522q-.005,3.14,0,6.281c0,1.085.409,1.5,1.473,1.505q16.013,0,32.024,0c1.073,0,1.481-.416,1.484-1.494q.008-3.072,0-6.145c0-1.316-.346-1.67-1.645-1.67Q2737.57,309.485,2729.649,309.486Zm-.08,20.967q7.99,0,15.979,0c1.217,0,1.585-.378,1.587-1.594q0-3.106,0-6.213c0-1.074-.42-1.516-1.472-1.516q-16.012-.008-32.025,0c-1.062,0-1.481.436-1.484,1.505-.006,1.98,0,3.96,0,5.94,0,1.6.277,1.88,1.849,1.881Zm7.056,20.978a6.981,6.981,0,1,0-6.965,7A7,7,0,0,0,2736.625,351.432Zm-12.871-44.307c.021-.178.046-.289.047-.4,0-.614.018-1.228-.007-1.841a1.15,1.15,0,0,0-1.246-1.237c-2.272-.024-4.545-.019-6.818,0a1.061,1.061,0,0,0-1.178.924c-.08.842-.02,1.7-.02,2.541h2.24l.078-1.094h4.587l.081,1.108Zm19.87,0c0-.789.022-1.513-.006-2.235a1.147,1.147,0,0,0-1.239-1.243c-2.271-.025-4.543-.019-6.815,0a1.056,1.056,0,0,0-1.182.913c-.079.842-.019,1.7-.019,2.554h2.225l.085-1.1h4.586l.083,1.113Z" transform="translate(-2707.489 -298.981)" fill="#b9ddfc"/>
            <path id="Trazado_189600" data-name="Trazado 189600" d="M2747.917,385.925v2.248h-34.9v-2.248Z" transform="translate(-2708.305 -320.579)" fill="#084a93"/>
            <path id="Trazado_189601" data-name="Trazado 189601" d="M2730.438,343.578h15.706c1.478,0,1.789.317,1.789,1.814q0,2.936,0,5.872c0,1.278-.38,1.654-1.681,1.655h-30.66c-.41,0-.82.01-1.229,0-.979-.033-1.407-.463-1.411-1.443-.008-2.071,0-4.142,0-6.213,0-1.334.352-1.68,1.715-1.682q2.936,0,5.872,0Zm-15.14,6.951h30.267v-4.55H2715.3Z" transform="translate(-2708.286 -309.77)"/>
            <path id="Trazado_189602" data-name="Trazado 189602" d="M2730.446,312.289q7.92,0,15.842,0c1.3,0,1.643.354,1.644,1.67q0,3.072,0,6.145c0,1.078-.411,1.494-1.484,1.494q-16.011,0-32.024,0c-1.064,0-1.47-.42-1.473-1.505q-.006-3.14,0-6.281c0-1.125.395-1.522,1.518-1.522Q2722.456,312.285,2730.446,312.289Zm-15.127,2.343v4.592h30.231v-4.592Z" transform="translate(-2708.286 -301.784)"/>
            <path id="Trazado_189603" data-name="Trazado 189603" d="M2730.367,337.245H2714.8c-1.572,0-1.849-.283-1.849-1.881,0-1.98,0-3.96,0-5.94,0-1.069.422-1.5,1.483-1.505q16.012-.006,32.025,0c1.052,0,1.469.442,1.471,1.516q.008,3.107,0,6.213c0,1.216-.37,1.593-1.587,1.595Q2738.356,337.249,2730.367,337.245Zm-15.056-2.388h30.237v-4.572H2715.31Z" transform="translate(-2708.287 -305.773)"/>
            <path id="Trazado_189604" data-name="Trazado 189604" d="M2741.025,366.223a6.981,6.981,0,1,1-7-6.965A6.988,6.988,0,0,1,2741.025,366.223Zm-2.331,0a4.65,4.65,0,1,0-4.633,4.667A4.662,4.662,0,0,0,2738.694,366.221Z" transform="translate(-2711.889 -313.772)"/>
            <path id="Trazado_189605" data-name="Trazado 189605" d="M2725.36,307.922h-2.236l-.082-1.108h-4.587l-.078,1.094h-2.24c0-.845-.059-1.7.021-2.541a1.061,1.061,0,0,1,1.178-.923c2.272-.018,4.545-.023,6.818,0a1.15,1.15,0,0,1,1.246,1.237c.025.613.01,1.227.007,1.841C2725.406,307.633,2725.381,307.744,2725.36,307.922Z" transform="translate(-2709.095 -299.778)"/>
            <path id="Trazado_189606" data-name="Trazado 189606" d="M2752.026,307.922h-2.283l-.083-1.113h-4.586l-.084,1.1h-2.226c0-.857-.059-1.712.019-2.554a1.057,1.057,0,0,1,1.183-.913c2.272-.018,4.544-.023,6.814,0a1.147,1.147,0,0,1,1.24,1.243C2752.047,306.41,2752.026,307.134,2752.026,307.922Z" transform="translate(-2715.891 -299.778)"/>
            <path id="Trazado_189607" data-name="Trazado 189607" d="M2716.1,351.352V346.8h30.267v4.55Z" transform="translate(-2709.092 -310.593)" fill="#084a93"/>
            <path id="Trazado_189608" data-name="Trazado 189608" d="M2716.132,315.435h30.231v4.592h-30.231Z" transform="translate(-2709.099 -302.587)" fill="#084a93"/>
            <path id="Trazado_189609" data-name="Trazado 189609" d="M2716.12,335.669V331.1h30.237v4.572Z" transform="translate(-2709.096 -306.585)" fill="#084a93"/>
            <path id="Trazado_189610" data-name="Trazado 189610" d="M2739.493,367.02a4.65,4.65,0,1,1-4.668-4.632A4.663,4.663,0,0,1,2739.493,367.02Z" transform="translate(-2712.688 -314.571)" fill="#ffb30b"/>
          </g>
          <g id="Grupo_128989" data-name="Grupo 128989" transform="translate(127.354)">
            <path id="Trazado_189611" data-name="Trazado 189611" d="M2916.789,298.184a6.338,6.338,0,0,1,3.852,2.124,5.877,5.877,0,0,1,1.337,3.5c.015.273.013.546.013.819q0,27.388.012,54.775a3.756,3.756,0,0,1-2.072,3.754.712.712,0,0,0-.256.538c-.025,1-.005,2-.014,3.005s-.427,1.432-1.408,1.432q-18.41.007-36.82,0c-.98,0-1.4-.438-1.408-1.432s.021-1.959-.02-2.937a.92.92,0,0,0-.376-.664,3.536,3.536,0,0,1-1.935-3.287q0-27.8-.007-55.6a5.871,5.871,0,0,1,5.023-5.955.732.732,0,0,0,.186-.082Zm-36.765,33.61q0,13.833,0,27.666c0,1.334.363,1.7,1.707,1.7h36.21c1.373,0,1.72-.355,1.72-1.75q0-27.426,0-54.853c0-2.672-1.365-4.04-4.03-4.041h-31.564c-2.673,0-4.043,1.365-4.043,4.028Q2880.024,318.167,2880.024,331.794ZM2917.3,363.53h-34.9v2.248h34.9Z" transform="translate(-2877.689 -298.184)"/>
            <path id="Trazado_189612" data-name="Trazado 189612" d="M2880.824,332.592q0-13.627,0-27.255c0-2.663,1.37-4.027,4.043-4.028h31.564c2.665,0,4.03,1.37,4.03,4.041q0,27.426,0,54.853c0,1.395-.348,1.75-1.72,1.75h-36.21c-1.344,0-1.707-.361-1.707-1.7Q2880.824,346.425,2880.824,332.592Zm19.816.2h-9.9q-2.937,0-5.873,0c-1.363,0-1.715.349-1.715,1.682,0,2.071-.006,4.142,0,6.213,0,.979.433,1.41,1.412,1.443.409.013.819,0,1.229,0h30.66c1.3,0,1.679-.377,1.681-1.655q0-2.936,0-5.872c0-1.5-.311-1.813-1.789-1.814Zm.009-23.3q-7.989,0-15.978,0c-1.123,0-1.516.4-1.518,1.522q-.005,3.14,0,6.281c0,1.085.409,1.5,1.473,1.505q16.013,0,32.024,0c1.072,0,1.48-.416,1.483-1.494.005-2.048,0-4.1,0-6.145,0-1.316-.346-1.67-1.645-1.67Q2908.57,309.485,2900.649,309.486Zm-.08,20.967q7.99,0,15.978,0c1.217,0,1.585-.378,1.587-1.594q0-3.106,0-6.213c0-1.074-.42-1.516-1.471-1.516q-16.012-.008-32.025,0c-1.062,0-1.481.436-1.484,1.505-.006,1.98,0,3.96,0,5.94,0,1.6.277,1.88,1.849,1.881Zm7.056,20.978a6.981,6.981,0,1,0-6.965,7A7,7,0,0,0,2907.625,351.432Zm-12.872-44.307c.021-.178.046-.289.047-.4,0-.614.019-1.228-.007-1.841a1.15,1.15,0,0,0-1.246-1.237c-2.272-.024-4.545-.019-6.818,0a1.061,1.061,0,0,0-1.178.924c-.08.842-.02,1.7-.02,2.541h2.24l.078-1.094h4.587l.081,1.108Zm19.87,0c0-.789.021-1.513-.006-2.235a1.147,1.147,0,0,0-1.239-1.243c-2.271-.025-4.543-.019-6.814,0a1.057,1.057,0,0,0-1.183.913c-.079.842-.02,1.7-.02,2.554h2.225l.085-1.1h4.586l.083,1.113Z" transform="translate(-2878.489 -298.981)" fill="#b9ddfc"/>
            <path id="Trazado_189613" data-name="Trazado 189613" d="M2918.917,385.925v2.248h-34.9v-2.248Z" transform="translate(-2879.305 -320.579)" fill="#084a93"/>
            <path id="Trazado_189614" data-name="Trazado 189614" d="M2901.438,343.578h15.705c1.478,0,1.79.317,1.79,1.814q0,2.936,0,5.872c0,1.278-.381,1.654-1.681,1.655h-30.659c-.409,0-.82.01-1.229,0-.979-.033-1.408-.463-1.412-1.443-.008-2.071,0-4.142,0-6.213,0-1.334.352-1.68,1.715-1.682q2.935,0,5.873,0Zm-15.14,6.951h30.267v-4.55H2886.3Z" transform="translate(-2879.286 -309.77)"/>
            <path id="Trazado_189615" data-name="Trazado 189615" d="M2901.446,312.289q7.921,0,15.842,0c1.3,0,1.644.354,1.645,1.67,0,2.048,0,4.1,0,6.145,0,1.078-.411,1.494-1.483,1.494q-16.012,0-32.024,0c-1.065,0-1.47-.42-1.473-1.505q-.007-3.14,0-6.281c0-1.125.395-1.522,1.518-1.522Q2893.457,312.285,2901.446,312.289Zm-15.127,2.343v4.592h30.231v-4.592Z" transform="translate(-2879.286 -301.784)"/>
            <path id="Trazado_189616" data-name="Trazado 189616" d="M2901.366,337.245H2885.8c-1.572,0-1.848-.283-1.849-1.881,0-1.98,0-3.96,0-5.94,0-1.069.422-1.5,1.484-1.505q16.012-.006,32.025,0c1.051,0,1.469.442,1.471,1.516q.008,3.107,0,6.213c0,1.216-.37,1.593-1.587,1.595Q2909.356,337.249,2901.366,337.245Zm-15.056-2.388h30.237v-4.572H2886.31Z" transform="translate(-2879.287 -305.773)"/>
            <path id="Trazado_189617" data-name="Trazado 189617" d="M2912.025,366.223a6.981,6.981,0,1,1-7-6.965A6.989,6.989,0,0,1,2912.025,366.223Zm-2.331,0a4.651,4.651,0,1,0-4.633,4.667A4.662,4.662,0,0,0,2909.694,366.221Z" transform="translate(-2882.889 -313.772)"/>
            <path id="Trazado_189618" data-name="Trazado 189618" d="M2896.36,307.922h-2.236l-.081-1.108h-4.588l-.078,1.094h-2.239c0-.845-.06-1.7.02-2.541a1.062,1.062,0,0,1,1.178-.923c2.272-.018,4.545-.023,6.818,0a1.15,1.15,0,0,1,1.246,1.237c.025.613.009,1.227.007,1.841C2896.405,307.633,2896.381,307.744,2896.36,307.922Z" transform="translate(-2880.095 -299.778)"/>
            <path id="Trazado_189619" data-name="Trazado 189619" d="M2923.025,307.922h-2.283l-.083-1.113h-4.586l-.085,1.1h-2.225c0-.857-.06-1.712.02-2.554a1.056,1.056,0,0,1,1.183-.913c2.271-.018,4.543-.023,6.814,0a1.147,1.147,0,0,1,1.239,1.243C2923.047,306.41,2923.025,307.134,2923.025,307.922Z" transform="translate(-2886.891 -299.778)"/>
            <path id="Trazado_189620" data-name="Trazado 189620" d="M2887.1,351.352V346.8h30.267v4.55Z" transform="translate(-2880.092 -310.593)" fill="#084a93"/>
            <path id="Trazado_189621" data-name="Trazado 189621" d="M2887.132,315.435h30.231v4.592h-30.231Z" transform="translate(-2880.099 -302.587)" fill="#084a93"/>
            <path id="Trazado_189622" data-name="Trazado 189622" d="M2887.121,335.669V331.1h30.236v4.572Z" transform="translate(-2880.097 -306.585)" fill="#084a93"/>
            <path id="Trazado_189623" data-name="Trazado 189623" d="M2910.493,367.02a4.65,4.65,0,1,1-4.668-4.632A4.663,4.663,0,0,1,2910.493,367.02Z" transform="translate(-2883.688 -314.571)" fill="#ffb30b"/>
          </g>
        </g>
        <g id="Grupo_128993" data-name="Grupo 128993" transform="translate(996.761 595.588)">
          <g id="Grupo_128991" data-name="Grupo 128991">
            <path id="Trazado_189624" data-name="Trazado 189624" d="M2647.789,171.184a6.338,6.338,0,0,1,3.852,2.124,5.876,5.876,0,0,1,1.337,3.5c.015.273.014.546.014.819q0,27.388.012,54.775a3.755,3.755,0,0,1-2.072,3.754.711.711,0,0,0-.256.538c-.025,1-.005,2-.014,3.005s-.427,1.432-1.407,1.432q-18.411.007-36.82,0c-.981,0-1.4-.438-1.408-1.432s.021-1.959-.02-2.937a.921.921,0,0,0-.376-.664,3.535,3.535,0,0,1-1.935-3.287q0-27.8-.007-55.6a5.871,5.871,0,0,1,5.023-5.955.731.731,0,0,0,.187-.082Zm-36.764,33.61q0,13.832,0,27.666c0,1.334.363,1.7,1.707,1.7h36.21c1.373,0,1.72-.355,1.72-1.75q0-27.426,0-54.853c0-2.671-1.365-4.04-4.03-4.041h-31.564c-2.673,0-4.043,1.365-4.043,4.028Q2611.024,191.167,2611.024,204.794ZM2648.3,236.53h-34.9v2.248h34.9Z" transform="translate(-2608.689 -171.184)"/>
            <path id="Trazado_189625" data-name="Trazado 189625" d="M2611.824,205.592q0-13.627,0-27.255c0-2.663,1.371-4.027,4.043-4.028h31.565c2.665,0,4.03,1.37,4.03,4.041q0,27.426,0,54.853c0,1.395-.348,1.75-1.72,1.75h-36.21c-1.344,0-1.707-.361-1.707-1.7Q2611.824,219.425,2611.824,205.592Zm19.816.2h-9.9q-2.937,0-5.873,0c-1.363,0-1.714.349-1.715,1.682,0,2.071-.006,4.142,0,6.213,0,.979.433,1.41,1.411,1.443.409.013.819,0,1.229,0h30.659c1.3,0,1.679-.377,1.681-1.655q0-2.936,0-5.872c0-1.5-.311-1.814-1.789-1.814Zm.009-23.3q-7.989,0-15.978,0c-1.123,0-1.516.4-1.518,1.522q-.005,3.14,0,6.281c0,1.085.409,1.5,1.473,1.505q16.012,0,32.024,0c1.072,0,1.48-.416,1.483-1.494q.008-3.072,0-6.145c0-1.316-.347-1.67-1.645-1.67Q2639.57,182.485,2631.649,182.486Zm-.08,20.967q7.99,0,15.979,0c1.217,0,1.585-.378,1.587-1.595q.005-3.106,0-6.213c0-1.074-.42-1.516-1.471-1.516q-16.012-.008-32.025,0c-1.062,0-1.481.436-1.484,1.505-.006,1.98,0,3.96,0,5.94,0,1.6.277,1.88,1.849,1.881Zm7.056,20.978a6.981,6.981,0,1,0-6.965,7A7,7,0,0,0,2638.625,224.432Zm-12.872-44.307c.021-.178.046-.289.047-.4,0-.614.019-1.228-.007-1.841a1.15,1.15,0,0,0-1.246-1.237c-2.272-.024-4.545-.019-6.817,0a1.061,1.061,0,0,0-1.178.923c-.08.842-.02,1.7-.02,2.541h2.24l.078-1.094h4.587l.081,1.108Zm19.87,0c0-.789.022-1.513-.006-2.235a1.147,1.147,0,0,0-1.24-1.243c-2.271-.025-4.543-.019-6.814,0a1.056,1.056,0,0,0-1.183.913c-.079.842-.02,1.7-.02,2.554h2.226l.084-1.1h4.586l.083,1.113Z" transform="translate(-2609.489 -171.981)" fill="#b9ddfc"/>
            <path id="Trazado_189626" data-name="Trazado 189626" d="M2649.917,258.925v2.248h-34.895v-2.248Z" transform="translate(-2610.306 -193.579)" fill="#084a93"/>
            <path id="Trazado_189627" data-name="Trazado 189627" d="M2632.438,216.578h15.706c1.478,0,1.789.317,1.789,1.814q0,2.936,0,5.872c0,1.278-.381,1.654-1.681,1.655h-30.659c-.41,0-.82.01-1.229,0-.979-.033-1.408-.463-1.412-1.443-.008-2.071,0-4.142,0-6.213,0-1.334.353-1.68,1.715-1.682q2.936,0,5.873,0Zm-15.14,6.951h30.267v-4.55H2617.3Z" transform="translate(-2610.286 -182.77)"/>
            <path id="Trazado_189628" data-name="Trazado 189628" d="M2632.446,185.289q7.92,0,15.842,0c1.3,0,1.644.354,1.644,1.67,0,2.048,0,4.1,0,6.145,0,1.078-.411,1.494-1.484,1.494q-16.012,0-32.024,0c-1.064,0-1.47-.42-1.473-1.505q-.007-3.14,0-6.281c0-1.125.395-1.522,1.518-1.522Q2624.457,185.285,2632.446,185.289Zm-15.127,2.343v4.592h30.231v-4.592Z" transform="translate(-2610.286 -174.784)"/>
            <path id="Trazado_189629" data-name="Trazado 189629" d="M2632.366,210.245H2616.8c-1.573,0-1.849-.283-1.85-1.88,0-1.98,0-3.96,0-5.94,0-1.069.423-1.5,1.484-1.505q16.012-.006,32.025,0c1.052,0,1.469.442,1.471,1.516q.008,3.107,0,6.213c0,1.216-.37,1.593-1.587,1.595Q2640.355,210.249,2632.366,210.245Zm-15.056-2.388h30.237v-4.572H2617.31Z" transform="translate(-2610.287 -178.773)"/>
            <path id="Trazado_189630" data-name="Trazado 189630" d="M2643.025,239.223a6.981,6.981,0,1,1-7-6.965A6.988,6.988,0,0,1,2643.025,239.223Zm-2.331,0a4.65,4.65,0,1,0-4.633,4.667A4.662,4.662,0,0,0,2640.694,239.221Z" transform="translate(-2613.889 -186.772)"/>
            <path id="Trazado_189631" data-name="Trazado 189631" d="M2627.36,180.922h-2.236l-.081-1.108h-4.587l-.078,1.094h-2.24c0-.845-.06-1.7.02-2.541a1.061,1.061,0,0,1,1.178-.924c2.272-.018,4.546-.023,6.818,0a1.15,1.15,0,0,1,1.246,1.237c.025.613.009,1.227.007,1.841C2627.406,180.633,2627.381,180.744,2627.36,180.922Z" transform="translate(-2611.095 -172.778)"/>
            <path id="Trazado_189632" data-name="Trazado 189632" d="M2654.026,180.922h-2.283l-.083-1.113h-4.586l-.085,1.1h-2.225c0-.857-.06-1.712.019-2.554a1.057,1.057,0,0,1,1.183-.913c2.271-.018,4.544-.023,6.815,0a1.147,1.147,0,0,1,1.239,1.243C2654.047,179.41,2654.026,180.134,2654.026,180.922Z" transform="translate(-2617.891 -172.778)"/>
            <path id="Trazado_189633" data-name="Trazado 189633" d="M2618.1,224.352V219.8h30.267v4.55Z" transform="translate(-2611.092 -183.593)" fill="#084a93"/>
            <path id="Trazado_189634" data-name="Trazado 189634" d="M2618.132,188.435h30.231v4.592h-30.231Z" transform="translate(-2611.099 -175.587)" fill="#084a93"/>
            <path id="Trazado_189635" data-name="Trazado 189635" d="M2618.12,208.669V204.1h30.236v4.572Z" transform="translate(-2611.096 -179.585)" fill="#084a93"/>
            <path id="Trazado_189636" data-name="Trazado 189636" d="M2641.493,240.02a4.65,4.65,0,1,1-4.668-4.632A4.663,4.663,0,0,1,2641.493,240.02Z" transform="translate(-2614.688 -187.571)" fill="#ffb30b"/>
          </g>
          <g id="Grupo_128992" data-name="Grupo 128992" transform="translate(273.328)">
            <path id="Trazado_189637" data-name="Trazado 189637" d="M3014.788,171.184a6.338,6.338,0,0,1,3.852,2.124,5.875,5.875,0,0,1,1.337,3.5c.015.273.014.546.014.819q0,27.388.012,54.775a3.755,3.755,0,0,1-2.072,3.754.711.711,0,0,0-.256.538c-.025,1-.006,2-.014,3.005s-.427,1.432-1.407,1.432q-18.411.007-36.82,0c-.981,0-1.4-.438-1.408-1.432s.022-1.959-.02-2.937a.922.922,0,0,0-.376-.664,3.536,3.536,0,0,1-1.935-3.287q0-27.8-.007-55.6a5.871,5.871,0,0,1,5.022-5.955.733.733,0,0,0,.186-.082Zm-36.764,33.61q0,13.832,0,27.666c0,1.334.363,1.7,1.707,1.7h36.21c1.373,0,1.721-.355,1.721-1.75q0-27.426,0-54.853c0-2.671-1.365-4.04-4.03-4.041h-31.565c-2.673,0-4.043,1.365-4.043,4.028Q2978.024,191.167,2978.024,204.794ZM3015.3,236.53h-34.9v2.248h34.9Z" transform="translate(-2975.689 -171.184)"/>
            <path id="Trazado_189638" data-name="Trazado 189638" d="M2978.824,205.592q0-13.627,0-27.255c0-2.663,1.37-4.027,4.043-4.028h31.564c2.665,0,4.03,1.37,4.03,4.041q0,27.426,0,54.853c0,1.395-.348,1.75-1.721,1.75h-36.21c-1.344,0-1.707-.361-1.707-1.7Q2978.824,219.425,2978.824,205.592Zm19.817.2h-9.9q-2.937,0-5.872,0c-1.363,0-1.715.349-1.715,1.682,0,2.071-.006,4.142,0,6.213,0,.979.433,1.41,1.411,1.443.409.013.819,0,1.229,0h30.66c1.3,0,1.679-.377,1.681-1.655q0-2.936,0-5.872c0-1.5-.311-1.814-1.789-1.814Zm.008-23.3q-7.989,0-15.978,0c-1.123,0-1.515.4-1.518,1.522q-.006,3.14,0,6.281c0,1.085.409,1.5,1.473,1.505q16.013,0,32.024,0c1.073,0,1.48-.416,1.484-1.494q.008-3.072,0-6.145c0-1.316-.346-1.67-1.644-1.67Q3006.57,182.485,2998.649,182.486Zm-.08,20.967q7.99,0,15.979,0c1.217,0,1.585-.378,1.587-1.595q0-3.106,0-6.213c0-1.074-.42-1.516-1.471-1.516q-16.012-.008-32.025,0c-1.062,0-1.48.436-1.484,1.505-.006,1.98,0,3.96,0,5.94,0,1.6.277,1.88,1.849,1.881Zm7.056,20.978a6.981,6.981,0,1,0-6.965,7A7,7,0,0,0,3005.625,224.432Zm-12.871-44.307c.021-.178.046-.289.047-.4,0-.614.019-1.228-.006-1.841a1.15,1.15,0,0,0-1.246-1.237c-2.272-.024-4.545-.019-6.818,0a1.061,1.061,0,0,0-1.178.923c-.08.842-.02,1.7-.02,2.541h2.24l.078-1.094h4.587l.081,1.108Zm19.87,0c0-.789.022-1.513-.006-2.235a1.147,1.147,0,0,0-1.239-1.243c-2.271-.025-4.543-.019-6.815,0a1.057,1.057,0,0,0-1.183.913c-.079.842-.019,1.7-.019,2.554h2.225l.085-1.1h4.586l.083,1.113Z" transform="translate(-2976.489 -171.981)" fill="#b9ddfc"/>
            <path id="Trazado_189639" data-name="Trazado 189639" d="M3016.917,258.925v2.248h-34.9v-2.248Z" transform="translate(-2977.305 -193.579)" fill="#084a93"/>
            <path id="Trazado_189640" data-name="Trazado 189640" d="M2999.438,216.578h15.706c1.478,0,1.789.317,1.789,1.814q0,2.936,0,5.872c0,1.278-.381,1.654-1.681,1.655h-30.66c-.409,0-.82.01-1.229,0-.979-.033-1.407-.463-1.411-1.443-.009-2.071,0-4.142,0-6.213,0-1.334.352-1.68,1.716-1.682q2.936,0,5.872,0Zm-15.14,6.951h30.267v-4.55H2984.3Z" transform="translate(-2977.286 -182.77)"/>
            <path id="Trazado_189641" data-name="Trazado 189641" d="M2999.446,185.289q7.92,0,15.842,0c1.3,0,1.644.354,1.645,1.67q0,3.072,0,6.145c0,1.078-.411,1.494-1.484,1.494q-16.012,0-32.024,0c-1.064,0-1.47-.42-1.473-1.505q-.007-3.14,0-6.281c0-1.125.394-1.522,1.518-1.522Q2991.456,185.285,2999.446,185.289Zm-15.127,2.343v4.592h30.231v-4.592Z" transform="translate(-2977.286 -174.784)"/>
            <path id="Trazado_189642" data-name="Trazado 189642" d="M2999.366,210.245H2983.8c-1.572,0-1.849-.283-1.849-1.88,0-1.98,0-3.96,0-5.94,0-1.069.422-1.5,1.483-1.505q16.012-.006,32.025,0c1.051,0,1.469.442,1.471,1.516q.008,3.107,0,6.213c0,1.216-.37,1.593-1.587,1.595Q3007.356,210.249,2999.366,210.245Zm-15.056-2.388h30.237v-4.572H2984.31Z" transform="translate(-2977.287 -178.773)"/>
            <path id="Trazado_189643" data-name="Trazado 189643" d="M3010.025,239.223a6.982,6.982,0,1,1-7-6.965A6.989,6.989,0,0,1,3010.025,239.223Zm-2.331,0a4.65,4.65,0,1,0-4.633,4.667A4.662,4.662,0,0,0,3007.694,239.221Z" transform="translate(-2980.889 -186.772)"/>
            <path id="Trazado_189644" data-name="Trazado 189644" d="M2994.36,180.922h-2.236l-.081-1.108h-4.587l-.078,1.094h-2.24c0-.845-.059-1.7.02-2.541a1.061,1.061,0,0,1,1.178-.924c2.272-.018,4.545-.023,6.818,0a1.15,1.15,0,0,1,1.246,1.237c.025.613.009,1.227.007,1.841C2994.406,180.633,2994.381,180.744,2994.36,180.922Z" transform="translate(-2978.096 -172.778)"/>
            <path id="Trazado_189645" data-name="Trazado 189645" d="M3021.025,180.922h-2.283l-.083-1.113h-4.586l-.084,1.1h-2.226c0-.857-.06-1.712.02-2.554a1.056,1.056,0,0,1,1.183-.913c2.272-.018,4.543-.023,6.814,0a1.148,1.148,0,0,1,1.24,1.243C3021.047,179.41,3021.025,180.134,3021.025,180.922Z" transform="translate(-2984.891 -172.778)"/>
            <path id="Trazado_189646" data-name="Trazado 189646" d="M2985.1,224.352V219.8h30.267v4.55Z" transform="translate(-2978.092 -183.593)" fill="#084a93"/>
            <path id="Trazado_189647" data-name="Trazado 189647" d="M2985.132,188.435h30.231v4.592h-30.231Z" transform="translate(-2978.099 -175.587)" fill="#084a93"/>
            <path id="Trazado_189648" data-name="Trazado 189648" d="M2985.12,208.669V204.1h30.237v4.572Z" transform="translate(-2978.096 -179.585)" fill="#084a93"/>
            <path id="Trazado_189649" data-name="Trazado 189649" d="M3008.493,240.02a4.65,4.65,0,1,1-4.668-4.632A4.663,4.663,0,0,1,3008.493,240.02Z" transform="translate(-2981.688 -187.571)" fill="#ffb30b"/>
          </g>
        </g>
        <g id="Grupo_128996" data-name="Grupo 128996" transform="translate(1039.585 489.832)">
          <g id="Grupo_128994" data-name="Grupo 128994">
            <path id="Trazado_189650" data-name="Trazado 189650" d="M2705.288,29.184a6.338,6.338,0,0,1,3.852,2.124,5.873,5.873,0,0,1,1.337,3.5c.015.273.013.546.013.819q0,27.388.012,54.775a3.755,3.755,0,0,1-2.072,3.754.713.713,0,0,0-.256.538c-.025,1-.005,2-.014,3.005s-.427,1.432-1.407,1.432q-18.411.007-36.82,0c-.981,0-1.4-.438-1.408-1.432s.021-1.959-.02-2.937a.922.922,0,0,0-.375-.664,3.535,3.535,0,0,1-1.935-3.287q0-27.8-.007-55.6a5.871,5.871,0,0,1,5.022-5.955.726.726,0,0,0,.186-.082Zm-36.764,33.61q0,13.832,0,27.666c0,1.334.362,1.7,1.707,1.7h36.21c1.372,0,1.72-.355,1.72-1.75q0-27.426,0-54.853c0-2.671-1.365-4.04-4.03-4.041h-31.565c-2.673,0-4.043,1.365-4.043,4.028Q2668.523,49.167,2668.524,62.794ZM2705.8,94.53h-34.9v2.248h34.9Z" transform="translate(-2666.189 -29.184)"/>
            <path id="Trazado_189651" data-name="Trazado 189651" d="M2669.324,63.592q0-13.627,0-27.255c0-2.663,1.37-4.027,4.043-4.028h31.564c2.665,0,4.03,1.37,4.03,4.041q0,27.426,0,54.853c0,1.395-.348,1.75-1.72,1.75h-36.21c-1.345,0-1.707-.361-1.707-1.7Q2669.324,77.425,2669.324,63.592Zm19.816.2h-9.9q-2.937,0-5.873,0c-1.362,0-1.714.349-1.715,1.682,0,2.071-.005,4.142,0,6.213,0,.979.433,1.41,1.412,1.443.409.013.819,0,1.229,0h30.66c1.3,0,1.679-.377,1.681-1.655q0-2.936,0-5.872c0-1.5-.311-1.813-1.789-1.814Zm.008-23.3q-7.989,0-15.978,0c-1.124,0-1.516.4-1.518,1.522q-.005,3.14,0,6.281c0,1.085.409,1.5,1.474,1.505q16.011,0,32.023,0c1.073,0,1.481-.416,1.483-1.494.006-2.048,0-4.1,0-6.145,0-1.316-.346-1.67-1.644-1.67Q2697.07,40.485,2689.149,40.486Zm-.08,20.967q7.99,0,15.978,0c1.217,0,1.586-.378,1.587-1.595q.005-3.106,0-6.213c0-1.074-.419-1.516-1.471-1.516q-16.012-.008-32.025,0c-1.062,0-1.48.436-1.483,1.505-.006,1.98,0,3.96,0,5.94,0,1.6.277,1.88,1.85,1.881Zm7.056,20.978a6.981,6.981,0,1,0-6.965,7A7,7,0,0,0,2696.125,82.432Zm-12.872-44.307c.021-.178.046-.289.047-.4,0-.614.019-1.228-.006-1.841a1.15,1.15,0,0,0-1.247-1.237c-2.272-.024-4.545-.019-6.817,0a1.062,1.062,0,0,0-1.179.924c-.08.842-.02,1.7-.02,2.541h2.24l.078-1.094h4.587l.081,1.108Zm19.87,0c0-.789.021-1.513-.006-2.235a1.147,1.147,0,0,0-1.239-1.243c-2.271-.025-4.543-.019-6.814,0a1.056,1.056,0,0,0-1.183.913c-.079.842-.02,1.7-.02,2.554h2.225l.085-1.1h4.587l.082,1.113Z" transform="translate(-2666.989 -29.981)" fill="#b9ddfc"/>
            <path id="Trazado_189652" data-name="Trazado 189652" d="M2707.417,116.925v2.248h-34.9v-2.248Z" transform="translate(-2667.805 -51.579)" fill="#084a93"/>
            <path id="Trazado_189653" data-name="Trazado 189653" d="M2689.938,74.578h15.706c1.478,0,1.789.317,1.789,1.814q0,2.936,0,5.872c0,1.278-.381,1.654-1.681,1.655h-30.66c-.41,0-.82.01-1.229,0-.979-.033-1.407-.463-1.411-1.443-.008-2.071,0-4.142,0-6.213,0-1.334.353-1.68,1.715-1.682q2.936,0,5.873,0Zm-15.14,6.951h30.268v-4.55H2674.8Z" transform="translate(-2667.786 -40.77)"/>
            <path id="Trazado_189654" data-name="Trazado 189654" d="M2689.946,43.289q7.92,0,15.842,0c1.3,0,1.643.354,1.644,1.67,0,2.048,0,4.1,0,6.145,0,1.078-.411,1.494-1.483,1.494q-16.013,0-32.024,0c-1.064,0-1.47-.42-1.473-1.505q-.006-3.14,0-6.281c0-1.125.395-1.522,1.518-1.522Q2681.956,43.285,2689.946,43.289Zm-15.127,2.343v4.592h30.232V45.632Z" transform="translate(-2667.786 -32.784)"/>
            <path id="Trazado_189655" data-name="Trazado 189655" d="M2689.866,68.245H2674.3c-1.572,0-1.849-.283-1.85-1.881,0-1.98,0-3.96,0-5.94,0-1.069.422-1.5,1.484-1.505q16.012-.006,32.025,0c1.052,0,1.469.442,1.471,1.516q.008,3.107,0,6.213c0,1.216-.37,1.593-1.587,1.595Q2697.856,68.249,2689.866,68.245Zm-15.056-2.388h30.237V61.285h-30.237Z" transform="translate(-2667.787 -36.773)"/>
            <path id="Trazado_189656" data-name="Trazado 189656" d="M2700.525,97.223a6.981,6.981,0,1,1-7-6.965A6.988,6.988,0,0,1,2700.525,97.223Zm-2.331,0a4.651,4.651,0,1,0-4.633,4.667A4.662,4.662,0,0,0,2698.194,97.221Z" transform="translate(-2671.389 -44.772)"/>
            <path id="Trazado_189657" data-name="Trazado 189657" d="M2684.86,38.922h-2.236l-.082-1.108h-4.587l-.078,1.094h-2.24c0-.845-.059-1.7.02-2.541a1.061,1.061,0,0,1,1.178-.924c2.272-.018,4.545-.023,6.817,0a1.15,1.15,0,0,1,1.246,1.237c.025.613.009,1.227.006,1.841C2684.906,38.633,2684.881,38.744,2684.86,38.922Z" transform="translate(-2668.595 -30.778)"/>
            <path id="Trazado_189658" data-name="Trazado 189658" d="M2711.525,38.922h-2.283l-.083-1.113h-4.586l-.085,1.1h-2.226c0-.857-.06-1.712.02-2.554a1.056,1.056,0,0,1,1.182-.913c2.272-.018,4.544-.023,6.815,0a1.147,1.147,0,0,1,1.239,1.243C2711.547,37.41,2711.525,38.134,2711.525,38.922Z" transform="translate(-2675.391 -30.778)"/>
            <path id="Trazado_189659" data-name="Trazado 189659" d="M2675.6,82.352V77.8h30.267v4.55Z" transform="translate(-2668.592 -41.593)" fill="#084a93"/>
            <path id="Trazado_189660" data-name="Trazado 189660" d="M2675.632,46.435h30.232v4.592h-30.232Z" transform="translate(-2668.599 -33.587)" fill="#084a93"/>
            <path id="Trazado_189661" data-name="Trazado 189661" d="M2675.62,66.669V62.1h30.237v4.572Z" transform="translate(-2668.596 -37.585)" fill="#084a93"/>
            <path id="Trazado_189662" data-name="Trazado 189662" d="M2698.993,98.02a4.65,4.65,0,1,1-4.668-4.632A4.663,4.663,0,0,1,2698.993,98.02Z" transform="translate(-2672.188 -45.571)" fill="#ffb30b"/>
          </g>
          <g id="Grupo_128995" data-name="Grupo 128995" transform="translate(187.68)">
            <path id="Trazado_189663" data-name="Trazado 189663" d="M2957.288,29.184a6.338,6.338,0,0,1,3.852,2.124,5.872,5.872,0,0,1,1.337,3.5c.015.273.014.546.014.819q0,27.388.012,54.775a3.755,3.755,0,0,1-2.072,3.754.713.713,0,0,0-.256.538c-.025,1-.005,2-.014,3.005s-.427,1.432-1.408,1.432q-18.41.007-36.819,0c-.981,0-1.4-.438-1.407-1.432s.022-1.959-.02-2.937a.919.919,0,0,0-.375-.664,3.536,3.536,0,0,1-1.935-3.287q0-27.8-.007-55.6a5.871,5.871,0,0,1,5.023-5.955.743.743,0,0,0,.186-.082Zm-36.764,33.61q0,13.832,0,27.666c0,1.334.363,1.7,1.707,1.7h36.21c1.373,0,1.72-.355,1.72-1.75q0-27.426,0-54.853c0-2.671-1.365-4.04-4.03-4.041h-31.564c-2.673,0-4.043,1.365-4.043,4.028Q2920.524,49.167,2920.524,62.794ZM2957.8,94.53h-34.9v2.248h34.9Z" transform="translate(-2918.189 -29.184)"/>
            <path id="Trazado_189664" data-name="Trazado 189664" d="M2921.324,63.592q0-13.627,0-27.255c0-2.663,1.371-4.027,4.043-4.028h31.565c2.665,0,4.03,1.37,4.03,4.041q0,27.426,0,54.853c0,1.395-.348,1.75-1.72,1.75h-36.21c-1.344,0-1.707-.361-1.707-1.7Q2921.324,77.425,2921.324,63.592Zm19.816.2h-9.9q-2.937,0-5.872,0c-1.363,0-1.715.349-1.715,1.682,0,2.071-.006,4.142,0,6.213,0,.979.433,1.41,1.411,1.443.409.013.82,0,1.229,0h30.659c1.3,0,1.679-.377,1.681-1.655q0-2.936,0-5.872c0-1.5-.311-1.813-1.789-1.814Zm.009-23.3q-7.989,0-15.978,0c-1.123,0-1.516.4-1.518,1.522q-.005,3.14,0,6.281c0,1.085.409,1.5,1.473,1.505q16.011,0,32.024,0c1.072,0,1.481-.416,1.483-1.494q.008-3.072,0-6.145c0-1.316-.347-1.67-1.645-1.67Q2949.07,40.485,2941.149,40.486Zm-.08,20.967q7.989,0,15.978,0c1.217,0,1.585-.378,1.587-1.595q0-3.106,0-6.213c0-1.074-.42-1.516-1.471-1.516q-16.013-.008-32.025,0c-1.062,0-1.481.436-1.484,1.505-.006,1.98,0,3.96,0,5.94,0,1.6.277,1.88,1.849,1.881Zm7.056,20.978a6.982,6.982,0,1,0-6.965,7A7,7,0,0,0,2948.125,82.432Zm-12.872-44.307c.021-.178.046-.289.047-.4,0-.614.019-1.228-.007-1.841a1.15,1.15,0,0,0-1.246-1.237c-2.272-.024-4.545-.019-6.818,0a1.061,1.061,0,0,0-1.178.924c-.08.842-.02,1.7-.02,2.541h2.239l.078-1.094h4.587l.081,1.108Zm19.87,0c0-.789.022-1.513-.006-2.235a1.148,1.148,0,0,0-1.24-1.243c-2.271-.025-4.543-.019-6.814,0a1.056,1.056,0,0,0-1.183.913c-.079.842-.019,1.7-.019,2.554h2.225l.085-1.1h4.586l.083,1.113Z" transform="translate(-2918.989 -29.981)" fill="#b9ddfc"/>
            <path id="Trazado_189665" data-name="Trazado 189665" d="M2959.417,116.925v2.248h-34.9v-2.248Z" transform="translate(-2919.805 -51.579)" fill="#084a93"/>
            <path id="Trazado_189666" data-name="Trazado 189666" d="M2941.938,74.578h15.705c1.478,0,1.789.317,1.789,1.814q0,2.936,0,5.872c0,1.278-.381,1.654-1.681,1.655h-30.66c-.409,0-.82.01-1.229,0-.978-.033-1.408-.463-1.411-1.443-.008-2.071,0-4.142,0-6.213,0-1.334.352-1.68,1.715-1.682q2.936,0,5.873,0Zm-15.14,6.951h30.267v-4.55H2926.8Z" transform="translate(-2919.786 -40.77)"/>
            <path id="Trazado_189667" data-name="Trazado 189667" d="M2941.946,43.289q7.92,0,15.842,0c1.3,0,1.644.354,1.645,1.67,0,2.048,0,4.1,0,6.145,0,1.078-.411,1.494-1.484,1.494q-16.012,0-32.024,0c-1.064,0-1.47-.42-1.473-1.505q-.006-3.14,0-6.281c0-1.125.4-1.522,1.518-1.522Q2933.957,43.285,2941.946,43.289Zm-15.127,2.343v4.592h30.231V45.632Z" transform="translate(-2919.786 -32.784)"/>
            <path id="Trazado_189668" data-name="Trazado 189668" d="M2941.866,68.245H2926.3c-1.572,0-1.849-.283-1.849-1.881,0-1.98,0-3.96,0-5.94,0-1.069.422-1.5,1.484-1.505q16.012-.006,32.025,0c1.052,0,1.469.442,1.472,1.516q.008,3.107,0,6.213c0,1.216-.37,1.593-1.587,1.595Q2949.856,68.249,2941.866,68.245Zm-15.056-2.388h30.237V61.285H2926.81Z" transform="translate(-2919.786 -36.773)"/>
            <path id="Trazado_189669" data-name="Trazado 189669" d="M2952.525,97.223a6.981,6.981,0,1,1-7-6.965A6.988,6.988,0,0,1,2952.525,97.223Zm-2.331,0a4.65,4.65,0,1,0-4.633,4.667A4.662,4.662,0,0,0,2950.194,97.221Z" transform="translate(-2923.389 -44.772)"/>
            <path id="Trazado_189670" data-name="Trazado 189670" d="M2936.859,38.922h-2.236l-.081-1.108h-4.587l-.078,1.094h-2.24c0-.845-.06-1.7.02-2.541a1.061,1.061,0,0,1,1.178-.924c2.272-.018,4.545-.023,6.818,0a1.15,1.15,0,0,1,1.246,1.237c.026.613.009,1.227.007,1.841C2936.906,38.633,2936.881,38.744,2936.859,38.922Z" transform="translate(-2920.595 -30.778)"/>
            <path id="Trazado_189671" data-name="Trazado 189671" d="M2963.526,38.922h-2.282l-.083-1.113h-4.586l-.085,1.1h-2.225c0-.857-.06-1.712.019-2.554a1.057,1.057,0,0,1,1.183-.913c2.271-.018,4.544-.023,6.814,0a1.147,1.147,0,0,1,1.239,1.243C2963.548,37.41,2963.526,38.134,2963.526,38.922Z" transform="translate(-2927.391 -30.778)"/>
            <path id="Trazado_189672" data-name="Trazado 189672" d="M2927.6,82.352V77.8h30.267v4.55Z" transform="translate(-2920.592 -41.593)" fill="#084a93"/>
            <path id="Trazado_189673" data-name="Trazado 189673" d="M2927.632,46.435h30.231v4.592h-30.231Z" transform="translate(-2920.599 -33.587)" fill="#084a93"/>
            <path id="Trazado_189674" data-name="Trazado 189674" d="M2927.62,66.669V62.1h30.237v4.572Z" transform="translate(-2920.596 -37.585)" fill="#084a93"/>
            <path id="Trazado_189675" data-name="Trazado 189675" d="M2950.993,98.02a4.651,4.651,0,1,1-4.668-4.632A4.663,4.663,0,0,1,2950.993,98.02Z" transform="translate(-2924.188 -45.571)" fill="#ffb30b"/>
          </g>
        </g>
        <g id="Grupo_128997" data-name="Grupo 128997" transform="translate(1125.33 584.34)">
          <path id="Trazado_189676" data-name="Trazado 189676" d="M2781.32,182.976V172.268a20.233,20.233,0,0,1,.695-2.254c1.618-3.705,3.309-7.379,4.905-11.093a4.1,4.1,0,0,1,2.728-2.66c8.564-.241,29.417-.241,38.72,0a4.1,4.1,0,0,1,2.73,2.664c1.581,3.687,3.237,7.34,4.875,11a8.084,8.084,0,0,1,.725,3.348q-.008,4.486,0,8.973a3.636,3.636,0,0,1-.612,2.09.554.554,0,0,0-.015.5,3.718,3.718,0,0,1,.629,2.193q-.018,4.054,0,8.108a3.737,3.737,0,0,1-.624,2.195.55.55,0,0,0,.006.5,3.681,3.681,0,0,1,.617,2.142c-.01,2.738,0,5.477-.006,8.216a4.115,4.115,0,0,1-.052.752,3.216,3.216,0,0,1-3.242,2.694q-24.405.008-48.81,0h-.108a3.121,3.121,0,0,1-2.589-1.433,8.6,8.6,0,0,1-.573-1.269V199.2c.225-.478.458-.953.668-1.438a.514.514,0,0,0,0-.368c-.21-.485-.443-.96-.668-1.438v-9.734c.225-.479.458-.954.668-1.439a.512.512,0,0,0,0-.367C2781.778,183.929,2781.545,183.455,2781.32,182.976Zm2.843-12.47h49.674c-.062-.157-.1-.273-.151-.385q-2.409-5.426-4.813-10.854a1.339,1.339,0,0,0-1.4-.85q-18.461.017-36.921,0a1.4,1.4,0,0,0-1.449.949c-1.34,3.065-2.712,6.117-4.072,9.175C2784.745,169.177,2784.465,169.817,2784.163,170.506Zm-.65,2.21c-.011.226-.028.4-.028.579q0,4.46,0,8.92c0,.917.395,1.3,1.331,1.3q24.191,0,48.383,0c.953,0,1.333-.387,1.334-1.354q0-4.433,0-8.866c0-.19-.018-.381-.029-.581Zm25.5,23.78h24.109c1.042,0,1.406-.36,1.406-1.39q0-4,0-8c0-1.068-.356-1.424-1.427-1.424h-48.217c-1.041,0-1.4.36-1.406,1.39q0,3.973,0,7.946c0,1.144.335,1.48,1.479,1.48Zm-.067,12.978h24.163c1.066,0,1.419-.357,1.42-1.431q0-4,0-8c0-1.009-.367-1.384-1.357-1.384h-48.326c-.992,0-1.365.376-1.365,1.376q0,3.973,0,7.946c0,1.173.327,1.493,1.519,1.493Z" transform="translate(-2781.32 -156.081)"/>
          <path id="Trazado_189677" data-name="Trazado 189677" d="M2785.137,171.305c.3-.689.582-1.329.865-1.966,1.359-3.058,2.731-6.11,4.071-9.175a1.4,1.4,0,0,1,1.449-.949q18.461.02,36.921,0a1.338,1.338,0,0,1,1.4.85q2.392,5.434,4.813,10.854c.048.112.089.228.151.385Z" transform="translate(-2782.294 -156.881)" fill="#b9ddfc"/>
          <path id="Trazado_189678" data-name="Trazado 189678" d="M2784.253,178.416h50.991c.01.2.028.391.028.581q0,4.433,0,8.866c0,.967-.381,1.354-1.334,1.354q-24.192,0-48.383,0c-.936,0-1.33-.385-1.331-1.3q0-4.461,0-8.92C2784.226,178.818,2784.243,178.642,2784.253,178.416Zm46.692,5.413a3.243,3.243,0,1,0-3.25,3.223A3.251,3.251,0,0,0,2830.946,183.829Zm-39.152-1.1c-.682,0-1.365-.007-2.048,0a1.084,1.084,0,1,0,0,2.158q2.049.013,4.1,0a1.084,1.084,0,1,0,0-2.158C2793.159,182.721,2792.476,182.728,2791.793,182.728Zm8.653,0c-.683,0-1.366-.007-2.048,0a1.084,1.084,0,1,0,0,2.158q2.049.015,4.1,0a1.084,1.084,0,1,0,0-2.158C2801.813,182.721,2801.129,182.728,2800.446,182.728Zm7.568,1.083a1.077,1.077,0,1,0-1.107,1.076A1.09,1.09,0,0,0,2808.014,183.811Z" transform="translate(-2782.062 -161.782)" fill="#084a93"/>
          <path id="Trazado_189679" data-name="Trazado 189679" d="M2809.758,206.639H2785.7c-1.144,0-1.479-.336-1.479-1.48q0-3.973,0-7.946c0-1.03.365-1.39,1.405-1.39h48.218c1.07,0,1.426.356,1.426,1.424q0,4,0,8c0,1.031-.364,1.39-1.406,1.39Zm21.188-5.42a3.243,3.243,0,1,0-3.219,3.255A3.252,3.252,0,0,0,2830.946,201.22Zm-39.115-1.069c-.7,0-1.4-.008-2.1,0a1.081,1.081,0,1,0-.018,2.156q2.075.018,4.15,0a1.081,1.081,0,1,0,.018-2.156C2793.2,200.14,2792.513,200.15,2791.83,200.15Zm8.579,2.162c.7,0,1.4.009,2.1,0a1.081,1.081,0,1,0,.023-2.156q-2.075-.017-4.15,0a1.087,1.087,0,0,0-1.177,1.067,1.1,1.1,0,0,0,1.208,1.091C2799.079,202.32,2799.744,202.313,2800.409,202.312Zm5.45-1.124a1.078,1.078,0,1,0,1.093-1.034A1.09,1.09,0,0,0,2805.86,201.188Z" transform="translate(-2782.062 -166.225)" fill="#084a93"/>
          <path id="Trazado_189680" data-name="Trazado 189680" d="M2809.691,224.066h-23.947c-1.193,0-1.519-.32-1.519-1.493q0-3.973,0-7.946c0-1,.373-1.376,1.365-1.376h48.326c.99,0,1.357.375,1.357,1.384q0,4,0,8c0,1.074-.354,1.431-1.42,1.431Zm21.255-5.413a3.243,3.243,0,1,0-3.225,3.249A3.251,3.251,0,0,0,2830.946,218.653Zm-39.149,1.087c.683,0,1.366.007,2.048,0a1.084,1.084,0,1,0,0-2.158q-2.048-.013-4.1,0a1.084,1.084,0,1,0,0,2.158C2790.43,219.747,2791.113,219.739,2791.8,219.739Zm8.7-2.162c-.7,0-1.4-.007-2.1,0a1.085,1.085,0,1,0,0,2.158q2.049.013,4.1,0a1.085,1.085,0,1,0,0-2.158C2801.83,217.57,2801.165,217.577,2800.5,217.577Zm7.514,1.077a1.077,1.077,0,1,0-1.1,1.081A1.09,1.09,0,0,0,2808.014,218.654Z" transform="translate(-2782.062 -170.673)" fill="#084a93"/>
          <path id="Trazado_189681" data-name="Trazado 189681" d="M2844.735,184.566a3.243,3.243,0,1,1-3.21-3.262A3.255,3.255,0,0,1,2844.735,184.566Zm-3.223-1.1a1.078,1.078,0,1,0,1.057,1.07A1.091,1.091,0,0,0,2841.512,183.469Z" transform="translate(-2795.851 -162.519)"/>
          <path id="Trazado_189682" data-name="Trazado 189682" d="M2793.277,184.205c.683,0,1.366-.007,2.049,0a1.084,1.084,0,1,1,0,2.158q-2.047.013-4.1,0a1.084,1.084,0,1,1,0-2.158C2791.912,184.2,2792.6,184.205,2793.277,184.205Z" transform="translate(-2783.545 -163.258)"/>
          <path id="Trazado_189683" data-name="Trazado 189683" d="M2804.9,184.205c.683,0,1.366-.007,2.049,0a1.084,1.084,0,1,1,0,2.158q-2.049.013-4.1,0a1.084,1.084,0,1,1,0-2.158C2803.53,184.2,2804.213,184.205,2804.9,184.205Z" transform="translate(-2786.51 -163.258)"/>
          <path id="Trazado_189684" data-name="Trazado 189684" d="M2815.429,185.29a1.077,1.077,0,1,1-1.048-1.079A1.091,1.091,0,0,1,2815.429,185.29Z" transform="translate(-2789.476 -163.26)"/>
          <path id="Trazado_189685" data-name="Trazado 189685" d="M2844.735,201.962a3.243,3.243,0,1,1-3.241-3.232A3.256,3.256,0,0,1,2844.735,201.962Zm-3.223-1.066a1.077,1.077,0,1,0,1.057,1.07A1.091,1.091,0,0,0,2841.512,200.9Z" transform="translate(-2795.851 -166.966)"/>
          <path id="Trazado_189686" data-name="Trazado 189686" d="M2793.314,201.632c.683,0,1.366-.01,2.049,0a1.081,1.081,0,1,1-.018,2.156q-2.074.016-4.15,0a1.081,1.081,0,1,1,.018-2.156C2791.913,201.624,2792.615,201.632,2793.314,201.632Z" transform="translate(-2783.545 -167.706)"/>
          <path id="Trazado_189687" data-name="Trazado 189687" d="M2804.858,203.794c-.665,0-1.33.007-1.995,0a1.1,1.1,0,0,1-1.208-1.091,1.087,1.087,0,0,1,1.177-1.066q2.076-.015,4.15,0a1.081,1.081,0,1,1-.023,2.156C2806.26,203.8,2805.559,203.794,2804.858,203.794Z" transform="translate(-2786.51 -167.706)"/>
          <path id="Trazado_189688" data-name="Trazado 189688" d="M2813.274,202.672a1.078,1.078,0,1,1,1.062,1.12A1.088,1.088,0,0,1,2813.274,202.672Z" transform="translate(-2789.476 -167.709)"/>
          <path id="Trazado_189689" data-name="Trazado 189689" d="M2844.735,219.395a3.243,3.243,0,1,1-3.235-3.237A3.256,3.256,0,0,1,2844.735,219.395Zm-3.286,1.083a1.079,1.079,0,1,0-1.033-1.147A1.094,1.094,0,0,0,2841.449,220.477Z" transform="translate(-2795.851 -171.415)"/>
          <path id="Trazado_189690" data-name="Trazado 189690" d="M2793.281,221.221c-.683,0-1.366.007-2.048,0a1.084,1.084,0,1,1,0-2.158q2.048-.013,4.1,0a1.084,1.084,0,1,1,0,2.158C2794.646,221.228,2793.963,221.221,2793.281,221.221Z" transform="translate(-2783.545 -172.154)"/>
          <path id="Trazado_189691" data-name="Trazado 189691" d="M2804.949,219.059c.665,0,1.33-.007,1.995,0a1.085,1.085,0,1,1,0,2.158q-2.049.013-4.1,0a1.085,1.085,0,1,1,0-2.158C2803.548,219.052,2804.249,219.059,2804.949,219.059Z" transform="translate(-2786.51 -172.154)"/>
          <path id="Trazado_189692" data-name="Trazado 189692" d="M2815.429,220.138a1.077,1.077,0,1,1-1.054-1.074A1.089,1.089,0,0,1,2815.429,220.138Z" transform="translate(-2789.476 -172.156)"/>
          <path id="Trazado_189693" data-name="Trazado 189693" d="M2842.254,184.211a1.078,1.078,0,1,1-1.1,1.031A1.09,1.09,0,0,1,2842.254,184.211Z" transform="translate(-2796.593 -163.261)" fill="#ffb30b"/>
          <path id="Trazado_189694" data-name="Trazado 189694" d="M2842.254,201.638a1.078,1.078,0,1,1-1.1,1.03A1.089,1.089,0,0,1,2842.254,201.638Z" transform="translate(-2796.593 -167.709)" fill="#ffb30b"/>
          <path id="Trazado_189695" data-name="Trazado 189695" d="M2842.192,221.219a1.079,1.079,0,1,1,1.119-1.008A1.092,1.092,0,0,1,2842.192,221.219Z" transform="translate(-2796.593 -172.156)" fill="#ffb30b"/>
        </g>
        <line id="Línea_180" data-name="Línea 180" y1="19.907" x2="64.242" transform="translate(1046.659 612.204)" stroke="#000" stroke-linecap="round" stroke-linejoin="round" stroke-width="2"/>
        <line id="Línea_181" data-name="Línea 181" x1="33.812" y1="34.88" transform="translate(1098.075 541.077)" stroke="#000" stroke-linecap="round" stroke-linejoin="round" stroke-width="2"/>
        <path id="Trazado_189702" data-name="Trazado 189702" d="M2846.678,132.2c.24-.256,28.659-35.433,28.659-35.433" transform="translate(-1672.671 443.398)" stroke="#000" stroke-linecap="round" stroke-linejoin="round" stroke-width="2"/>
        <line id="Línea_182" data-name="Línea 182" x2="60.285" y2="18.448" transform="translate(1195.472 612.118)" stroke="#000" stroke-linecap="round" stroke-linejoin="round" stroke-width="2"/>
        <line id="Línea_183" data-name="Línea 183" x2="15.832" y2="38.291" transform="translate(1174.154 648.552)" stroke="#000" stroke-linecap="round" stroke-linejoin="round" stroke-width="2"/>
        <line id="Línea_184" data-name="Línea 184" x1="16.758" y2="38.025" transform="translate(1115.277 648.637)" stroke="#000" stroke-linecap="round" stroke-linejoin="round" stroke-width="2"/>
      </g>
    </g>
  </g>
</svg>
