<svg xmlns="http://www.w3.org/2000/svg" width="505" height="317" viewBox="0 0 505 317">
  <g id="_4" data-name="4" transform="translate(-915 -2456)">
    <path id="Rectángulo_41248" data-name="Rectángulo 41248" d="M20,20H485a20,20,0,0,1,20,20V317a20,20,0,0,1-20,20H20A20,20,0,0,1,0,317V40A20,20,0,0,1,20,20Z" transform="translate(915 2436)" fill="#b9ddfc" opacity="0.35"/>
    <g id="Grupo_131786" data-name="Grupo 131786">
      <path id="Trazado_189584" data-name="Trazado 189584" d="M-430.106-211.9H-531.87V37.419h101.764c9.144,0,16.557-55.811,16.557-124.658S-420.962-211.9-430.106-211.9Z" transform="translate(1807.837 2701.896)" fill="#002859" stroke="#000" stroke-linecap="round" stroke-linejoin="round" stroke-width="3"/>
      <path id="Trazado_192343" data-name="Trazado 192343" d="M16.558,0C25.7,0,33.115,55.811,33.115,124.658S25.7,249.315,16.558,249.315,0,193.5,0,124.658,7.413,0,16.558,0Z" transform="translate(1259.41 2490)" fill="#004997" stroke="#000" stroke-linecap="round" stroke-width="3"/>
      <path id="Trazado_189585" data-name="Trazado 189585" d="M-523.929-136.1H-692.473v49.625h168.544c1.82,0,3.3-11.109,3.3-24.812S-522.109-136.1-523.929-136.1Z" transform="translate(1807.837 2702.257)" fill="#aadefd" stroke="#000" stroke-linecap="round" stroke-linejoin="round" stroke-width="3"/>
      <path id="Trazado_192344" data-name="Trazado 192344" d="M3.3,0c1.82,0,3.3,11.109,3.3,24.812S5.116,49.625,3.3,49.625,0,38.516,0,24.812,1.476,0,3.3,0Z" transform="translate(1112.068 2566.158)" fill="#658699" stroke="#000" stroke-linecap="round" stroke-width="3"/>
      <path id="Trazado_189586" data-name="Trazado 189586" d="M-527.448-69.508H-692.541V28.826h165.093c1.783,0,3.228-22.013,3.228-49.167S-525.665-69.508-527.448-69.508Z" transform="translate(1807.837 2701.666)" fill="#aadefd" stroke="#000" stroke-linecap="round" stroke-linejoin="round" stroke-width="3"/>
      <path id="Trazado_192345" data-name="Trazado 192345" d="M3.228,0C5.011,0,6.456,22.013,6.456,49.167S5.011,98.334,3.228,98.334,0,76.321,0,49.167,1.445,0,3.228,0Z" transform="translate(1112.068 2632.158)" fill="#658699" stroke="#000" stroke-linecap="round" stroke-width="3"/>
      <path id="Trazado_189587" data-name="Trazado 189587" d="M-530.206-200.411H-692.594V-152.6h162.388c1.754,0,3.175-10.7,3.175-23.907S-528.452-200.411-530.206-200.411Z" transform="translate(1807.837 2701.569)" fill="#aadefd" stroke="#000" stroke-linecap="round" stroke-linejoin="round" stroke-width="3"/>
      <path id="Trazado_192346" data-name="Trazado 192346" d="M3.175,0C4.929,0,6.351,10.7,6.351,23.906S4.929,47.812,3.175,47.812,0,37.109,0,23.906,1.422,0,3.175,0Z" transform="translate(1112.068 2501.158)" fill="#658699" stroke="#000" stroke-linecap="round" stroke-width="3"/>
      <path id="Trazado_189588" data-name="Trazado 189588" d="M-717.393-200.938h-83.322v47.812h83.322l18.076-23.906Z" transform="translate(1807.837 2702.096)" fill="#77f3fe" stroke="#000" stroke-linecap="round" stroke-linejoin="round" stroke-width="3"/>
      <path id="Trazado_189589" data-name="Trazado 189589" d="M-717.393-135.193h-83.322V-87.38h83.322l18.076-23.906Z" transform="translate(1807.837 2701.896)" fill="#00dffd" stroke="#000" stroke-linecap="round" stroke-linejoin="round" stroke-width="3"/>
      <path id="Trazado_189590" data-name="Trazado 189590" d="M-708.693-63.46h-92.971v24.8h92.971l9.376-12.4Z" transform="translate(1807.837 2701.896)" fill="#ffb30b" stroke="#000" stroke-linecap="round" stroke-linejoin="round" stroke-width="3"/>
      <path id="Trazado_189591" data-name="Trazado 189591" d="M-707.744-32.741h-92.971v24.8h92.971l9.376-12.4Z" transform="translate(1807.837 2701.898)" fill="#ffb30b" stroke="#000" stroke-linecap="round" stroke-linejoin="round" stroke-width="3"/>
      <path id="Trazado_189592" data-name="Trazado 189592" d="M-708.693-2.021h-92.971v24.8h92.971l9.376-12.4Z" transform="translate(1807.837 2701.896)" fill="#ffb30b" stroke="#000" stroke-linecap="round" stroke-linejoin="round" stroke-width="3"/>
      <path id="Trazado_192347" data-name="Trazado 192347" d="M-7.591-8.88h-3.2V0H-12.1V-8.88h-3.192V-9.953h7.7Zm.267,5.113A4.369,4.369,0,0,1-6.9-5.722a3.187,3.187,0,0,1,1.189-1.34,3.238,3.238,0,0,1,1.74-.472A3.119,3.119,0,0,1-1.524-6.487,4.024,4.024,0,0,1-.591-3.705v.089A4.407,4.407,0,0,1-1-1.678,3.14,3.14,0,0,1-2.187-.342,3.275,3.275,0,0,1-3.955.137,3.111,3.111,0,0,1-6.392-.909a4,4,0,0,1-.933-2.769Zm1.271.15a3.164,3.164,0,0,0,.571,1.976A1.827,1.827,0,0,0-3.955-.9a1.816,1.816,0,0,0,1.531-.755,3.46,3.46,0,0,0,.567-2.116,3.159,3.159,0,0,0-.578-1.972,1.836,1.836,0,0,0-1.535-.755,1.816,1.816,0,0,0-1.511.745A3.434,3.434,0,0,0-6.053-3.616ZM2.71-9.187V-7.4H4.091v.978H2.71v4.593a1.027,1.027,0,0,0,.185.667.777.777,0,0,0,.629.222,3.062,3.062,0,0,0,.6-.082V0a3.688,3.688,0,0,1-.971.136A1.575,1.575,0,0,1,1.876-.376a2.2,2.2,0,0,1-.431-1.456V-6.419H.1V-7.4H1.446V-9.187ZM10.134,0a2.657,2.657,0,0,1-.178-.779A2.822,2.822,0,0,1,7.851.137,2.611,2.611,0,0,1,6.057-.482a2,2,0,0,1-.7-1.569,2.091,2.091,0,0,1,.878-1.794,4.142,4.142,0,0,1,2.471-.639h1.23v-.581a1.42,1.42,0,0,0-.4-1.056,1.593,1.593,0,0,0-1.169-.393,1.844,1.844,0,0,0-1.135.342,1.007,1.007,0,0,0-.458.827H5.506A1.745,1.745,0,0,1,5.9-6.416a2.683,2.683,0,0,1,1.066-.817,3.588,3.588,0,0,1,1.48-.3,2.924,2.924,0,0,1,2,.639,2.306,2.306,0,0,1,.752,1.76v3.4a4.162,4.162,0,0,0,.26,1.62V0Zm-2.1-.964a2.223,2.223,0,0,0,1.128-.308,1.861,1.861,0,0,0,.772-.8V-3.589H8.945q-2.324,0-2.324,1.36a1.151,1.151,0,0,0,.4.93A1.524,1.524,0,0,0,8.036-.964ZM14.557,0H13.292V-10.5h1.265ZM-21.431,14.2H-25.6l-.937,2.6h-1.354l3.8-9.953h1.148l3.808,9.953H-20.48ZM-25.2,13.122h3.384l-1.7-4.655Zm9.311,1.962L-14.062,9.4h1.292l-2.652,7.4h-.964l-2.68-7.4h1.292Zm8.8,1.716a2.657,2.657,0,0,1-.178-.779,2.822,2.822,0,0,1-2.105.916,2.611,2.611,0,0,1-1.794-.619,2,2,0,0,1-.7-1.569,2.091,2.091,0,0,1,.878-1.794,4.142,4.142,0,0,1,2.471-.639h1.23v-.581a1.42,1.42,0,0,0-.4-1.056,1.593,1.593,0,0,0-1.169-.393,1.844,1.844,0,0,0-1.135.342,1.007,1.007,0,0,0-.458.827h-1.271a1.745,1.745,0,0,1,.393-1.07,2.683,2.683,0,0,1,1.066-.817,3.588,3.588,0,0,1,1.48-.3,2.924,2.924,0,0,1,2,.639,2.306,2.306,0,0,1,.752,1.76v3.4a4.162,4.162,0,0,0,.26,1.62V16.8Zm-2.1-.964a2.223,2.223,0,0,0,1.128-.308,1.861,1.861,0,0,0,.772-.8V13.211h-.991q-2.324,0-2.324,1.36a1.151,1.151,0,0,0,.4.93A1.524,1.524,0,0,0-9.187,15.836Zm6.521.964H-3.931V9.4h1.265ZM-4.033,7.442a.755.755,0,0,1,.188-.52.706.706,0,0,1,.557-.212.717.717,0,0,1,.561.212.747.747,0,0,1,.191.52.722.722,0,0,1-.191.513.73.73,0,0,1-.561.205.718.718,0,0,1-.557-.205A.73.73,0,0,1-4.033,7.442ZM.731,16.8H-.533V6.3H.731Zm6.59,0a2.657,2.657,0,0,1-.178-.779,2.822,2.822,0,0,1-2.105.916,2.611,2.611,0,0,1-1.794-.619,2,2,0,0,1-.7-1.569,2.091,2.091,0,0,1,.878-1.794,4.142,4.142,0,0,1,2.471-.639h1.23v-.581a1.42,1.42,0,0,0-.4-1.056,1.593,1.593,0,0,0-1.169-.393,1.844,1.844,0,0,0-1.135.342,1.007,1.007,0,0,0-.458.827H2.693a1.745,1.745,0,0,1,.393-1.07,2.683,2.683,0,0,1,1.066-.817,3.588,3.588,0,0,1,1.48-.3,2.924,2.924,0,0,1,2,.639,2.306,2.306,0,0,1,.752,1.76v3.4a4.162,4.162,0,0,0,.26,1.62V16.8Zm-2.1-.964a2.223,2.223,0,0,0,1.128-.308,1.861,1.861,0,0,0,.772-.8V13.211H6.132q-2.324,0-2.324,1.36a1.151,1.151,0,0,0,.4.93A1.524,1.524,0,0,0,5.223,15.836Zm11.409-2.652a4.4,4.4,0,0,1-.779,2.724,2.49,2.49,0,0,1-2.092,1.029,2.578,2.578,0,0,1-2.167-.991l-.062.854H10.37V6.3h1.265v3.917a2.564,2.564,0,0,1,2.112-.95,2.505,2.505,0,0,1,2.116,1.019,4.53,4.53,0,0,1,.769,2.789Zm-1.265-.144a3.417,3.417,0,0,0-.5-2,1.652,1.652,0,0,0-1.436-.7,1.857,1.857,0,0,0-1.8,1.162v3.2a1.909,1.909,0,0,0,1.812,1.162,1.643,1.643,0,0,0,1.415-.7A3.634,3.634,0,0,0,15.367,13.04ZM19.6,16.8H18.334V6.3H19.6Zm5.093.137a3.232,3.232,0,0,1-2.447-.988,3.666,3.666,0,0,1-.943-2.642v-.232a4.438,4.438,0,0,1,.42-1.965A3.28,3.28,0,0,1,22.9,9.756a2.956,2.956,0,0,1,1.637-.489,2.77,2.77,0,0,1,2.242.95,4.114,4.114,0,0,1,.8,2.721v.526H22.565a2.629,2.629,0,0,0,.639,1.767,2.009,2.009,0,0,0,1.555.673,2.2,2.2,0,0,0,1.135-.273,2.851,2.851,0,0,0,.813-.725l.772.6A3.106,3.106,0,0,1,24.691,16.937Zm-.157-6.631a1.687,1.687,0,0,0-1.285.557,2.708,2.708,0,0,0-.643,1.562h3.705v-.1a2.409,2.409,0,0,0-.52-1.494A1.588,1.588,0,0,0,24.534,10.306ZM-31.869,33.6V23.647h3.254a3.777,3.777,0,0,1,2.437.67,2.414,2.414,0,0,1,.817,1.982,2.022,2.022,0,0,1-.4,1.234,2.57,2.57,0,0,1-1.08.831,2.308,2.308,0,0,1,1.275.858,2.462,2.462,0,0,1,.468,1.507,2.662,2.662,0,0,1-.868,2.105,3.59,3.59,0,0,1-2.454.766Zm1.313-4.655v3.582h2.167a2.087,2.087,0,0,0,1.446-.475,1.669,1.669,0,0,0,.53-1.309q0-1.8-1.955-1.8Zm0-1.053h1.982A2.078,2.078,0,0,0-27.2,27.46a1.447,1.447,0,0,0,.516-1.171,1.423,1.423,0,0,0-.479-1.2,2.35,2.35,0,0,0-1.456-.373h-1.941ZM-18.785,33.6a2.657,2.657,0,0,1-.178-.779,2.822,2.822,0,0,1-2.105.916,2.611,2.611,0,0,1-1.794-.619,2,2,0,0,1-.7-1.569,2.091,2.091,0,0,1,.878-1.794,4.141,4.141,0,0,1,2.471-.639h1.23v-.581a1.42,1.42,0,0,0-.4-1.056,1.593,1.593,0,0,0-1.169-.393,1.844,1.844,0,0,0-1.135.342,1.007,1.007,0,0,0-.458.827h-1.271a1.745,1.745,0,0,1,.393-1.07,2.683,2.683,0,0,1,1.066-.817,3.588,3.588,0,0,1,1.48-.3,2.924,2.924,0,0,1,2,.639,2.306,2.306,0,0,1,.752,1.76v3.4a4.162,4.162,0,0,0,.26,1.62V33.6Zm-2.1-.964a2.223,2.223,0,0,0,1.128-.308,1.861,1.861,0,0,0,.772-.8V30.011h-.991q-2.324,0-2.324,1.36a1.151,1.151,0,0,0,.4.93A1.524,1.524,0,0,0-20.884,32.636ZM-14.54,26.2l.041.93a2.7,2.7,0,0,1,2.215-1.066q2.345,0,2.365,2.646V33.6h-1.265V28.705a1.7,1.7,0,0,0-.366-1.183,1.466,1.466,0,0,0-1.118-.383,1.825,1.825,0,0,0-1.08.328,2.228,2.228,0,0,0-.725.861V33.6h-1.265V26.2Zm6.221,3.637A4.333,4.333,0,0,1-7.513,27.1,2.551,2.551,0,0,1-5.4,26.067a2.565,2.565,0,0,1,2.058.889V23.1h1.265V33.6H-3.24l-.062-.793a2.575,2.575,0,0,1-2.112.93,2.526,2.526,0,0,1-2.1-1.053,4.382,4.382,0,0,1-.81-2.748Zm1.265.144a3.281,3.281,0,0,0,.52,1.969,1.68,1.68,0,0,0,1.436.711,1.845,1.845,0,0,0,1.757-1.08v-3.4A1.859,1.859,0,0,0-5.086,27.14a1.687,1.687,0,0,0-1.449.718A3.612,3.612,0,0,0-7.055,29.984ZM6.433,31.857,7.854,26.2H9.119L6.966,33.6H5.94l-1.8-5.605L2.393,33.6H1.367L-.779,26.2H.479l1.456,5.537L3.657,26.2H4.676ZM11.778,33.6H10.514V26.2h1.265Zm-1.367-9.358a.755.755,0,0,1,.188-.52.706.706,0,0,1,.557-.212.717.717,0,0,1,.561.212.747.747,0,0,1,.191.52.722.722,0,0,1-.191.513.73.73,0,0,1-.561.205.718.718,0,0,1-.557-.205A.73.73,0,0,1,10.411,24.242Zm3.083,5.6A4.333,4.333,0,0,1,14.3,27.1a2.551,2.551,0,0,1,2.112-1.036,2.565,2.565,0,0,1,2.058.889V23.1h1.265V33.6H18.573l-.062-.793a2.575,2.575,0,0,1-2.112.93,2.526,2.526,0,0,1-2.1-1.053,4.382,4.382,0,0,1-.81-2.748Zm1.265.144a3.281,3.281,0,0,0,.52,1.969,1.68,1.68,0,0,0,1.436.711,1.845,1.845,0,0,0,1.757-1.08v-3.4a1.859,1.859,0,0,0-1.743-1.046,1.687,1.687,0,0,0-1.449.718A3.612,3.612,0,0,0,14.759,29.984Zm8.654-5.571V26.2h1.381v.978H23.413v4.593a1.027,1.027,0,0,0,.185.667.777.777,0,0,0,.629.222,3.062,3.062,0,0,0,.6-.082V33.6a3.688,3.688,0,0,1-.971.136,1.575,1.575,0,0,1-1.278-.513,2.2,2.2,0,0,1-.431-1.456V27.181H20.8V26.2h1.347V24.413ZM27.535,27.1a2.689,2.689,0,0,1,2.188-1.032q2.345,0,2.365,2.646V33.6H30.823V28.705a1.7,1.7,0,0,0-.366-1.183,1.466,1.466,0,0,0-1.118-.383,1.825,1.825,0,0,0-1.08.328,2.228,2.228,0,0,0-.725.861V33.6H26.271V23.1h1.265Z" transform="translate(1344.128 2601.949)" fill="#fff"/>
      <path id="Trazado_192348" data-name="Trazado 192348" d="M-60.16-1.743l2.844-8.21h1.436L-59.572,0h-1.162l-3.685-9.953h1.429ZM-55.4-3.767a4.369,4.369,0,0,1,.427-1.955,3.187,3.187,0,0,1,1.189-1.34,3.238,3.238,0,0,1,1.74-.472,3.119,3.119,0,0,1,2.444,1.046,4.024,4.024,0,0,1,.933,2.782v.089a4.407,4.407,0,0,1-.414,1.938A3.14,3.14,0,0,1-50.258-.342a3.275,3.275,0,0,1-1.767.479A3.111,3.111,0,0,1-54.462-.909,4,4,0,0,1-55.4-3.678Zm1.271.15a3.164,3.164,0,0,0,.571,1.976A1.827,1.827,0,0,0-52.025-.9a1.816,1.816,0,0,0,1.531-.755,3.46,3.46,0,0,0,.567-2.116A3.159,3.159,0,0,0-50.5-5.739a1.836,1.836,0,0,0-1.535-.755,1.816,1.816,0,0,0-1.511.745A3.434,3.434,0,0,0-54.124-3.616ZM-45.7,0h-1.265V-7.4H-45.7Zm-1.367-9.358a.755.755,0,0,1,.188-.52.706.706,0,0,1,.557-.212.717.717,0,0,1,.561.212.747.747,0,0,1,.191.52.722.722,0,0,1-.191.513.73.73,0,0,1-.561.205.718.718,0,0,1-.557-.205A.73.73,0,0,1-47.069-9.358ZM-40.711-.9a1.822,1.822,0,0,0,1.183-.41,1.443,1.443,0,0,0,.561-1.025h1.2a2.293,2.293,0,0,1-.437,1.21,2.881,2.881,0,0,1-1.077.916,3.107,3.107,0,0,1-1.425.342,3.047,3.047,0,0,1-2.4-1.008,4.016,4.016,0,0,1-.892-2.758v-.212a4.453,4.453,0,0,1,.4-1.921,3.02,3.02,0,0,1,1.138-1.306,3.233,3.233,0,0,1,1.753-.465,2.966,2.966,0,0,1,2.068.745,2.663,2.663,0,0,1,.878,1.935h-1.2a1.743,1.743,0,0,0-.543-1.179,1.691,1.691,0,0,0-1.207-.461,1.77,1.77,0,0,0-1.494.694,3.259,3.259,0,0,0-.53,2.006v.239a3.194,3.194,0,0,0,.526,1.969A1.779,1.779,0,0,0-40.711-.9ZM-33.281.137a3.232,3.232,0,0,1-2.447-.988,3.666,3.666,0,0,1-.943-2.642v-.232a4.438,4.438,0,0,1,.42-1.965,3.28,3.28,0,0,1,1.176-1.354,2.956,2.956,0,0,1,1.637-.489,2.77,2.77,0,0,1,2.242.95,4.114,4.114,0,0,1,.8,2.721v.526h-5.011a2.629,2.629,0,0,0,.639,1.767A2.009,2.009,0,0,0-33.212-.9a2.2,2.2,0,0,0,1.135-.273,2.851,2.851,0,0,0,.813-.725l.772.6A3.106,3.106,0,0,1-33.281.137Zm-.157-6.631a1.687,1.687,0,0,0-1.285.557,2.708,2.708,0,0,0-.643,1.562h3.705v-.1a2.409,2.409,0,0,0-.52-1.494A1.588,1.588,0,0,0-33.438-6.494Zm4.464,5.831a.792.792,0,0,1,.195-.547.742.742,0,0,1,.584-.219.765.765,0,0,1,.591.219.776.776,0,0,1,.2.547.734.734,0,0,1-.2.526.778.778,0,0,1-.591.212.755.755,0,0,1-.584-.212A.748.748,0,0,1-28.974-.663Zm.007-6.036a.792.792,0,0,1,.195-.547.742.742,0,0,1,.584-.219.765.765,0,0,1,.591.219.776.776,0,0,1,.2.547.734.734,0,0,1-.2.526.778.778,0,0,1-.591.212.755.755,0,0,1-.584-.212A.748.748,0,0,1-28.967-6.7Zm8.4,2.8V0h-1.312V-9.953h3.671a3.688,3.688,0,0,1,2.56.834,2.827,2.827,0,0,1,.926,2.208,2.79,2.79,0,0,1-.906,2.232,3.853,3.853,0,0,1-2.594.783Zm0-1.073h2.358a2.358,2.358,0,0,0,1.613-.5A1.815,1.815,0,0,0-16.034-6.9a1.876,1.876,0,0,0-.561-1.424,2.209,2.209,0,0,0-1.538-.555h-2.434Zm10.9-1.292a3.79,3.79,0,0,0-.622-.048A1.667,1.667,0,0,0-11.98-5.25V0h-1.265V-7.4h1.23l.021.854a1.969,1.969,0,0,1,1.764-.991,1.292,1.292,0,0,1,.561.1ZM-7.133,0H-8.4V-7.4h1.265ZM-8.5-9.358a.755.755,0,0,1,.188-.52.706.706,0,0,1,.557-.212.717.717,0,0,1,.561.212A.747.747,0,0,1-7-9.358a.722.722,0,0,1-.191.513.73.73,0,0,1-.561.205.718.718,0,0,1-.557-.205A.73.73,0,0,1-8.5-9.358Zm3.056,5.592a4.369,4.369,0,0,1,.427-1.955,3.187,3.187,0,0,1,1.189-1.34,3.238,3.238,0,0,1,1.74-.472A3.119,3.119,0,0,1,.355-6.487a4.024,4.024,0,0,1,.933,2.782v.089A4.407,4.407,0,0,1,.875-1.678,3.14,3.14,0,0,1-.308-.342,3.275,3.275,0,0,1-2.075.137,3.111,3.111,0,0,1-4.512-.909a4,4,0,0,1-.933-2.769Zm1.271.15A3.164,3.164,0,0,0-3.6-1.641,1.827,1.827,0,0,0-2.075-.9,1.816,1.816,0,0,0-.543-1.651,3.46,3.46,0,0,0,.024-3.767,3.159,3.159,0,0,0-.554-5.739a1.836,1.836,0,0,0-1.535-.755A1.816,1.816,0,0,0-3.6-5.749,3.434,3.434,0,0,0-4.173-3.616ZM6.45-6.262a3.79,3.79,0,0,0-.622-.048A1.667,1.667,0,0,0,4.139-5.25V0H2.875V-7.4H4.1l.021.854a1.969,1.969,0,0,1,1.764-.991,1.292,1.292,0,0,1,.561.1ZM8.986,0H7.721V-7.4H8.986ZM7.619-9.358a.755.755,0,0,1,.188-.52.706.706,0,0,1,.557-.212.717.717,0,0,1,.561.212.747.747,0,0,1,.191.52.722.722,0,0,1-.191.513.73.73,0,0,1-.561.205.718.718,0,0,1-.557-.205A.73.73,0,0,1,7.619-9.358Zm5.106.171V-7.4h1.381v.978H12.725v4.593a1.027,1.027,0,0,0,.185.667.777.777,0,0,0,.629.222,3.062,3.062,0,0,0,.6-.082V0a3.688,3.688,0,0,1-.971.136,1.575,1.575,0,0,1-1.278-.513,2.2,2.2,0,0,1-.431-1.456V-6.419H10.114V-7.4H11.46V-9.187ZM18-1.853,19.725-7.4h1.354L18.1,1.142q-.69,1.846-2.194,1.846l-.239-.021L15.2,2.878V1.853l.342.027a1.683,1.683,0,0,0,1-.26,1.88,1.88,0,0,0,.591-.95l.28-.752L14.776-7.4h1.381Zm15.47-2.8a6.147,6.147,0,0,1-.458,2.485A3.84,3.84,0,0,1,31.729-.54L33.506.854l-.9.827L30.512.014a4.27,4.27,0,0,1-1.039.123,3.8,3.8,0,0,1-2.085-.578,3.817,3.817,0,0,1-1.412-1.647,5.908,5.908,0,0,1-.516-2.478v-.718a6.084,6.084,0,0,1,.5-2.536,3.8,3.8,0,0,1,1.412-1.685,3.788,3.788,0,0,1,2.088-.584,3.854,3.854,0,0,1,2.116.581,3.748,3.748,0,0,1,1.4,1.671,6.139,6.139,0,0,1,.492,2.546ZM32.16-5.3a4.517,4.517,0,0,0-.7-2.71,2.332,2.332,0,0,0-2-.954,2.313,2.313,0,0,0-1.952.947,4.371,4.371,0,0,0-.735,2.628v.731a4.5,4.5,0,0,0,.714,2.693,2.316,2.316,0,0,0,1.986.984A2.32,2.32,0,0,0,31.442-1.9,4.444,4.444,0,0,0,32.16-4.56Zm7.7,4.566A2.686,2.686,0,0,1,37.7.137,2.3,2.3,0,0,1,35.9-.55a2.974,2.974,0,0,1-.625-2.034V-7.4h1.265v4.778q0,1.682,1.367,1.682a1.893,1.893,0,0,0,1.928-1.08V-7.4h1.265V0h-1.2Zm6.221.868a3.232,3.232,0,0,1-2.447-.988,3.666,3.666,0,0,1-.943-2.642v-.232a4.438,4.438,0,0,1,.42-1.965A3.28,3.28,0,0,1,44.29-7.044a2.956,2.956,0,0,1,1.637-.489,2.77,2.77,0,0,1,2.242.95,4.114,4.114,0,0,1,.8,2.721v.526H43.958A2.629,2.629,0,0,0,44.6-1.569,2.009,2.009,0,0,0,46.153-.9a2.2,2.2,0,0,0,1.135-.273,2.851,2.851,0,0,0,.813-.725l.772.6A3.106,3.106,0,0,1,46.084.137Zm-.157-6.631a1.687,1.687,0,0,0-1.285.557A2.708,2.708,0,0,0,44-4.375H47.7v-.1a2.409,2.409,0,0,0-.52-1.494A1.588,1.588,0,0,0,45.927-6.494ZM55-.731a2.686,2.686,0,0,1-2.167.868,2.3,2.3,0,0,1-1.8-.687A2.974,2.974,0,0,1,50.4-2.584V-7.4h1.265v4.778q0,1.682,1.367,1.682a1.893,1.893,0,0,0,1.928-1.08V-7.4h1.265V0h-1.2Zm6.221.868a3.232,3.232,0,0,1-2.447-.988,3.666,3.666,0,0,1-.943-2.642v-.232a4.438,4.438,0,0,1,.42-1.965,3.28,3.28,0,0,1,1.176-1.354,2.956,2.956,0,0,1,1.637-.489,2.77,2.77,0,0,1,2.242.95,4.114,4.114,0,0,1,.8,2.721v.526H59.093a2.629,2.629,0,0,0,.639,1.767A2.009,2.009,0,0,0,61.288-.9a2.2,2.2,0,0,0,1.135-.273,2.851,2.851,0,0,0,.813-.725l.772.6A3.106,3.106,0,0,1,61.219.137Zm-.157-6.631a1.687,1.687,0,0,0-1.285.557,2.708,2.708,0,0,0-.643,1.562h3.705v-.1a2.409,2.409,0,0,0-.52-1.494A1.588,1.588,0,0,0,61.062-6.494Z" transform="translate(1189 2529.658)" fill="#002859"/>
      <path id="Trazado_192349" data-name="Trazado 192349" d="M4.45-1.743l2.844-8.21H8.729L5.038,0H3.876L.191-9.953H1.62ZM9.215-3.767a4.369,4.369,0,0,1,.427-1.955,3.187,3.187,0,0,1,1.189-1.34,3.238,3.238,0,0,1,1.74-.472,3.119,3.119,0,0,1,2.444,1.046,4.024,4.024,0,0,1,.933,2.782v.089a4.407,4.407,0,0,1-.414,1.938A3.14,3.14,0,0,1,14.352-.342a3.275,3.275,0,0,1-1.767.479A3.111,3.111,0,0,1,10.148-.909a4,4,0,0,1-.933-2.769Zm1.271.15a3.164,3.164,0,0,0,.571,1.976A1.827,1.827,0,0,0,12.585-.9a1.816,1.816,0,0,0,1.531-.755,3.46,3.46,0,0,0,.567-2.116,3.159,3.159,0,0,0-.578-1.972,1.836,1.836,0,0,0-1.535-.755,1.816,1.816,0,0,0-1.511.745A3.434,3.434,0,0,0,10.486-3.616ZM18.908,0H17.644V-7.4h1.265ZM17.541-9.358a.755.755,0,0,1,.188-.52.706.706,0,0,1,.557-.212.717.717,0,0,1,.561.212.747.747,0,0,1,.191.52.722.722,0,0,1-.191.513.73.73,0,0,1-.561.205.718.718,0,0,1-.557-.205A.73.73,0,0,1,17.541-9.358ZM23.9-.9a1.822,1.822,0,0,0,1.183-.41,1.443,1.443,0,0,0,.561-1.025h1.2a2.293,2.293,0,0,1-.437,1.21,2.881,2.881,0,0,1-1.077.916A3.107,3.107,0,0,1,23.9.137,3.047,3.047,0,0,1,21.5-.872,4.016,4.016,0,0,1,20.6-3.63v-.212A4.453,4.453,0,0,1,21-5.763a3.02,3.02,0,0,1,1.138-1.306,3.233,3.233,0,0,1,1.753-.465,2.966,2.966,0,0,1,2.068.745,2.663,2.663,0,0,1,.878,1.935h-1.2A1.743,1.743,0,0,0,25.1-6.033a1.691,1.691,0,0,0-1.207-.461A1.77,1.77,0,0,0,22.4-5.8a3.259,3.259,0,0,0-.53,2.006v.239a3.194,3.194,0,0,0,.526,1.969A1.779,1.779,0,0,0,23.9-.9ZM31.329.137a3.232,3.232,0,0,1-2.447-.988,3.666,3.666,0,0,1-.943-2.642v-.232a4.438,4.438,0,0,1,.42-1.965,3.28,3.28,0,0,1,1.176-1.354,2.956,2.956,0,0,1,1.637-.489,2.77,2.77,0,0,1,2.242.95,4.114,4.114,0,0,1,.8,2.721v.526H29.2a2.629,2.629,0,0,0,.639,1.767A2.009,2.009,0,0,0,31.4-.9a2.2,2.2,0,0,0,1.135-.273,2.851,2.851,0,0,0,.813-.725l.772.6A3.106,3.106,0,0,1,31.329.137Zm-.157-6.631a1.687,1.687,0,0,0-1.285.557,2.708,2.708,0,0,0-.643,1.562h3.705v-.1a2.409,2.409,0,0,0-.52-1.494A1.588,1.588,0,0,0,31.172-6.494ZM35.636-.663a.792.792,0,0,1,.195-.547.742.742,0,0,1,.584-.219.765.765,0,0,1,.591.219.776.776,0,0,1,.2.547.734.734,0,0,1-.2.526.778.778,0,0,1-.591.212.755.755,0,0,1-.584-.212A.748.748,0,0,1,35.636-.663ZM35.643-6.7a.792.792,0,0,1,.195-.547.742.742,0,0,1,.584-.219.765.765,0,0,1,.591.219.776.776,0,0,1,.2.547.734.734,0,0,1-.2.526.778.778,0,0,1-.591.212.755.755,0,0,1-.584-.212A.748.748,0,0,1,35.643-6.7ZM1.155,16.8V6.847H4.409a3.777,3.777,0,0,1,2.437.67A2.414,2.414,0,0,1,7.663,9.5a2.022,2.022,0,0,1-.4,1.234,2.57,2.57,0,0,1-1.08.831,2.308,2.308,0,0,1,1.275.858,2.462,2.462,0,0,1,.468,1.507,2.662,2.662,0,0,1-.868,2.105,3.59,3.59,0,0,1-2.454.766Zm1.313-4.655v3.582H4.635a2.087,2.087,0,0,0,1.446-.475,1.669,1.669,0,0,0,.53-1.309q0-1.8-1.955-1.8Zm0-1.053H4.45a2.078,2.078,0,0,0,1.377-.432,1.447,1.447,0,0,0,.516-1.171,1.423,1.423,0,0,0-.479-1.2A2.35,2.35,0,0,0,4.409,7.92H2.468Zm9.55,2.57.191,1.313.28-1.183,1.969-6.945h1.107l1.921,6.945L17.76,15l.212-1.34,1.545-6.809h1.319L18.423,16.8h-1.2L15.176,9.547l-.157-.759-.157.759L12.735,16.8h-1.2L9.133,6.847h1.313Zm21.342-1.518A6.147,6.147,0,0,1,32.9,14.63a3.84,3.84,0,0,1-1.285,1.63l1.777,1.395-.9.827-2.1-1.668a4.27,4.27,0,0,1-1.039.123,3.713,3.713,0,0,1-3.5-2.225,5.908,5.908,0,0,1-.516-2.478v-.718a6.084,6.084,0,0,1,.5-2.536,3.691,3.691,0,0,1,3.5-2.27,3.854,3.854,0,0,1,2.116.581,3.748,3.748,0,0,1,1.4,1.671,6.139,6.139,0,0,1,.492,2.546ZM32.047,11.5a4.517,4.517,0,0,0-.7-2.71A2.529,2.529,0,0,0,27.4,8.785a4.371,4.371,0,0,0-.735,2.628v.731a4.5,4.5,0,0,0,.714,2.693,2.525,2.525,0,0,0,3.955.058,4.444,4.444,0,0,0,.718-2.656Zm7.7,4.566a2.686,2.686,0,0,1-2.167.868,2.3,2.3,0,0,1-1.8-.687,2.974,2.974,0,0,1-.625-2.034V9.4h1.265v4.778q0,1.682,1.367,1.682a1.893,1.893,0,0,0,1.928-1.08V9.4h1.265v7.4h-1.2Zm6.221.868a3.232,3.232,0,0,1-2.447-.988,3.666,3.666,0,0,1-.943-2.642v-.232A4.438,4.438,0,0,1,43,11.109a3.28,3.28,0,0,1,1.176-1.354,2.956,2.956,0,0,1,1.637-.489,2.77,2.77,0,0,1,2.242.95,4.114,4.114,0,0,1,.8,2.721v.526H43.846a2.629,2.629,0,0,0,.639,1.767,2.009,2.009,0,0,0,1.555.673,2.2,2.2,0,0,0,1.135-.273,2.851,2.851,0,0,0,.813-.725l.772.6A3.106,3.106,0,0,1,45.972,16.937Zm-.157-6.631a1.687,1.687,0,0,0-1.285.557,2.708,2.708,0,0,0-.643,1.562h3.705v-.1a2.409,2.409,0,0,0-.52-1.494A1.588,1.588,0,0,0,45.814,10.306Zm9.071,5.763a2.686,2.686,0,0,1-2.167.868,2.3,2.3,0,0,1-1.8-.687,2.974,2.974,0,0,1-.625-2.034V9.4h1.265v4.778q0,1.682,1.367,1.682a1.893,1.893,0,0,0,1.928-1.08V9.4h1.265v7.4h-1.2Zm6.221.868a3.232,3.232,0,0,1-2.447-.988,3.666,3.666,0,0,1-.943-2.642v-.232a4.438,4.438,0,0,1,.42-1.965,3.28,3.28,0,0,1,1.176-1.354,2.956,2.956,0,0,1,1.637-.489,2.77,2.77,0,0,1,2.242.95,4.114,4.114,0,0,1,.8,2.721v.526H58.98a2.629,2.629,0,0,0,.639,1.767,2.009,2.009,0,0,0,1.555.673,2.2,2.2,0,0,0,1.135-.273,2.851,2.851,0,0,0,.813-.725l.772.6A3.106,3.106,0,0,1,61.106,16.937Zm-.157-6.631a1.687,1.687,0,0,0-1.285.557,2.708,2.708,0,0,0-.643,1.562h3.705v-.1a2.409,2.409,0,0,0-.52-1.494A1.588,1.588,0,0,0,60.949,10.306Zm11.594,1.155h2.775v1.2H72.543V15.8H71.271V12.657H68.5v-1.2h2.775V8.556h1.271ZM80.521,16.8V6.847h2.81a4.523,4.523,0,0,1,2.3.574,3.884,3.884,0,0,1,1.542,1.634,5.318,5.318,0,0,1,.55,2.434v.636a5.336,5.336,0,0,1-.543,2.468,3.823,3.823,0,0,1-1.552,1.627,4.811,4.811,0,0,1-2.348.581Zm1.313-8.88v7.807h1.381a3,3,0,0,0,2.362-.944,3.9,3.9,0,0,0,.844-2.689v-.582a3.963,3.963,0,0,0-.8-2.637,2.834,2.834,0,0,0-2.259-.954Zm10.8,4.443a6.172,6.172,0,0,1-2.458-1.193,2.279,2.279,0,0,1-.769-1.747,2.408,2.408,0,0,1,.94-1.945,3.736,3.736,0,0,1,2.444-.769,4.078,4.078,0,0,1,1.829.4A3.007,3.007,0,0,1,95.864,8.2,2.8,2.8,0,0,1,96.3,9.725H94.985A1.82,1.82,0,0,0,94.411,8.3a2.335,2.335,0,0,0-1.62-.518,2.391,2.391,0,0,0-1.514.428A1.428,1.428,0,0,0,90.733,9.4a1.285,1.285,0,0,0,.516,1.031,5.062,5.062,0,0,0,1.757.77,8.152,8.152,0,0,1,1.941.77,2.946,2.946,0,0,1,1.039.981,2.5,2.5,0,0,1,.338,1.319,2.326,2.326,0,0,1-.943,1.938,4.022,4.022,0,0,1-2.522.728,4.678,4.678,0,0,1-1.914-.393,3.221,3.221,0,0,1-1.371-1.077,2.627,2.627,0,0,1-.482-1.552h1.319a1.714,1.714,0,0,0,.667,1.425,2.806,2.806,0,0,0,1.781.523,2.58,2.58,0,0,0,1.593-.424,1.377,1.377,0,0,0,.554-1.155,1.351,1.351,0,0,0-.513-1.131A5.911,5.911,0,0,0,92.634,12.363Zm12.694,1.278a3.662,3.662,0,0,1-1.166,2.437,3.82,3.82,0,0,1-2.608.858,3.507,3.507,0,0,1-2.827-1.265,5.088,5.088,0,0,1-1.063-3.384v-.957a5.671,5.671,0,0,1,.5-2.44,3.7,3.7,0,0,1,1.4-1.617,3.911,3.911,0,0,1,2.105-.564,3.6,3.6,0,0,1,2.543.885,3.706,3.706,0,0,1,1.114,2.451h-1.319a2.86,2.86,0,0,0-.742-1.728,2.244,2.244,0,0,0-1.6-.535,2.348,2.348,0,0,0-1.972.93,4.272,4.272,0,0,0-.714,2.648v.965a4.391,4.391,0,0,0,.677,2.579,2.187,2.187,0,0,0,1.894.958,2.526,2.526,0,0,0,1.678-.5,2.75,2.75,0,0,0,.776-1.726Zm3.1-.738v3.9h-1.312V6.847h3.671a3.688,3.688,0,0,1,2.56.834,2.827,2.827,0,0,1,.926,2.208,2.79,2.79,0,0,1-.906,2.232,3.853,3.853,0,0,1-2.594.783Zm0-1.073h2.358a2.358,2.358,0,0,0,1.613-.5,1.815,1.815,0,0,0,.561-1.435,1.876,1.876,0,0,0-.561-1.424,2.209,2.209,0,0,0-1.538-.555h-2.434Zm13.132,1.832.191,1.313.28-1.183L124,6.847h1.107l1.921,6.945.273,1.2.212-1.34,1.545-6.809h1.319L127.969,16.8h-1.2l-2.051-7.253-.157-.759-.157.759L122.281,16.8h-1.2l-2.406-9.953h1.313Zm13.925-.889H133.15V16.8h-1.319V6.847h3.295a3.9,3.9,0,0,1,2.587.766,2.755,2.755,0,0,1,.906,2.229,2.68,2.68,0,0,1-.5,1.62,3,3,0,0,1-1.4,1.032l2.338,4.225V16.8h-1.408ZM133.15,11.7h2.017a2.275,2.275,0,0,0,1.555-.507,1.714,1.714,0,0,0,.578-1.356,1.8,1.8,0,0,0-.55-1.418,2.33,2.33,0,0,0-1.589-.5h-2.01Zm12.934.5h-4.313v3.527h5.011V16.8h-6.323V6.847h6.255V7.92h-4.942v3.206h4.313Zm2.331,4.6V6.847h2.81a4.523,4.523,0,0,1,2.3.574,3.884,3.884,0,0,1,1.542,1.634,5.318,5.318,0,0,1,.55,2.434v.636a5.336,5.336,0,0,1-.543,2.468,3.823,3.823,0,0,1-1.552,1.627,4.811,4.811,0,0,1-2.348.581Zm1.313-8.88v7.807h1.381a3,3,0,0,0,2.362-.944,3.9,3.9,0,0,0,.844-2.689v-.582a3.963,3.963,0,0,0-.8-2.637,2.834,2.834,0,0,0-2.259-.954Z" transform="translate(1124 2586.658)" fill="#002859"/>
      <path id="Trazado_192350" data-name="Trazado 192350" d="M-11.84-2.051h-3.6L-16.119,0H-18.3l3.705-9.953h1.9L-8.969,0h-2.181Zm-3.042-1.661h2.488l-1.251-3.726ZM-3.814-.752A2.477,2.477,0,0,1-5.838.137,2.337,2.337,0,0,1-7.653-.547a2.918,2.918,0,0,1-.639-2V-7.4h1.976v4.784q0,1.157,1.053,1.157a1.426,1.426,0,0,0,1.381-.7V-7.4H-1.9V0H-3.76Zm3.1-3A4.457,4.457,0,0,1,.058-6.508,2.517,2.517,0,0,1,2.181-7.533a2.265,2.265,0,0,1,1.784.807V-10.5H5.947V0H4.163l-.1-.786a2.325,2.325,0,0,1-1.9.923A2.511,2.511,0,0,1,.072-.892,4.6,4.6,0,0,1-.718-3.753Zm1.976.147a2.92,2.92,0,0,0,.362,1.6,1.18,1.18,0,0,0,1.053.555A1.322,1.322,0,0,0,3.965-2.23V-5.153a1.3,1.3,0,0,0-1.278-.774Q1.258-5.927,1.258-3.606ZM9.563,0H7.581V-7.4H9.563Zm-2.1-9.311a.973.973,0,0,1,.3-.731,1.117,1.117,0,0,1,.81-.287,1.12,1.12,0,0,1,.807.287.967.967,0,0,1,.3.731.97.97,0,0,1-.3.738,1.122,1.122,0,0,1-.8.287,1.122,1.122,0,0,1-.8-.287A.97.97,0,0,1,7.465-9.311Zm3.418,5.544a4.387,4.387,0,0,1,.424-1.962,3.1,3.1,0,0,1,1.22-1.333,3.56,3.56,0,0,1,1.849-.472,3.368,3.368,0,0,1,2.444.916,3.676,3.676,0,0,1,1.056,2.488l.014.506a3.866,3.866,0,0,1-.95,2.731A3.3,3.3,0,0,1,14.39.137,3.319,3.319,0,0,1,11.836-.889a3.934,3.934,0,0,1-.954-2.789Zm1.976.14a2.765,2.765,0,0,0,.4,1.612,1.308,1.308,0,0,0,1.135.558,1.311,1.311,0,0,0,1.121-.551,3.025,3.025,0,0,0,.4-1.763,2.737,2.737,0,0,0-.4-1.6,1.311,1.311,0,0,0-1.135-.568,1.29,1.29,0,0,0-1.121.565A3.076,3.076,0,0,0,12.858-3.626ZM-12.079,5.708h-3.049V14h-2.051V5.708h-3.008V4.047h8.107Zm4.751,2.748A5.367,5.367,0,0,0-8.039,8.4a1.447,1.447,0,0,0-1.47.759V14h-1.976V6.6h1.866l.055.882A1.831,1.831,0,0,1-7.916,6.467a2.07,2.07,0,0,1,.615.089ZM-2.3,14a2.194,2.194,0,0,1-.2-.663,2.39,2.39,0,0,1-1.866.8,2.626,2.626,0,0,1-1.8-.629,2.023,2.023,0,0,1-.714-1.586,2.09,2.09,0,0,1,.872-1.8,4.3,4.3,0,0,1,2.519-.636h.909V9.058a1.219,1.219,0,0,0-.263-.82,1.035,1.035,0,0,0-.831-.308,1.177,1.177,0,0,0-.783.239.813.813,0,0,0-.284.656H-6.713a1.984,1.984,0,0,1,.4-1.189A2.621,2.621,0,0,1-5.2,6.778a4.086,4.086,0,0,1,1.627-.311,3.228,3.228,0,0,1,2.17.687,2.4,2.4,0,0,1,.8,1.931v3.206A3.536,3.536,0,0,0-.3,13.884V14Zm-1.634-1.374a1.7,1.7,0,0,0,.807-.195,1.28,1.28,0,0,0,.547-.523V10.637h-.738q-1.483,0-1.579,1.025l-.007.116a.791.791,0,0,0,.26.608A1.009,1.009,0,0,0-3.931,12.626ZM1.463,14V8.053H.362V6.6h1.1V5.975a2.553,2.553,0,0,1,.714-1.931,2.767,2.767,0,0,1,2-.687,4.618,4.618,0,0,1,1,.137L5.161,5.024a2.519,2.519,0,0,0-.6-.062q-1.114,0-1.114,1.046V6.6H5.879V6.262a2.774,2.774,0,0,1,.858-2.15,3.452,3.452,0,0,1,2.382-.755,8.024,8.024,0,0,1,2.249.4l-.287,1.634a8.664,8.664,0,0,0-1.042-.256,5.172,5.172,0,0,0-.8-.058q-1.381,0-1.381,1.224v.3H9.317V8.053H7.861V14H5.879V8.053H3.445V14Zm10.821,0H10.3V6.6h1.982Zm4.71-1.456a1.3,1.3,0,0,0,.889-.3,1.054,1.054,0,0,0,.355-.8h1.853a2.534,2.534,0,0,1-.41,1.377,2.706,2.706,0,0,1-1.1.971,3.455,3.455,0,0,1-1.548.345,3.211,3.211,0,0,1-2.5-1.008,3.99,3.99,0,0,1-.916-2.786v-.13a3.944,3.944,0,0,1,.909-2.728,3.174,3.174,0,0,1,2.5-1.019,3.111,3.111,0,0,1,2.225.79,2.8,2.8,0,0,1,.851,2.1H18.238a1.358,1.358,0,0,0-.355-.938,1.321,1.321,0,0,0-1.945.142,2.916,2.916,0,0,0-.352,1.633V10.4a2.953,2.953,0,0,0,.349,1.643A1.2,1.2,0,0,0,16.994,12.544Z" transform="translate(960.894 2522.658)" fill="#002859"/>
      <path id="Trazado_192351" data-name="Trazado 192351" d="M-13.552-2.468-11.3-9.953h2.283L-12.479,0h-2.14l-3.452-9.953h2.276ZM-6.122,0H-8.1V-7.4h1.982Zm-2.1-9.311a.973.973,0,0,1,.3-.731,1.117,1.117,0,0,1,.81-.287,1.12,1.12,0,0,1,.807.287.967.967,0,0,1,.3.731.97.97,0,0,1-.3.738,1.122,1.122,0,0,1-.8.287,1.122,1.122,0,0,1-.8-.287A.97.97,0,0,1-8.22-9.311ZM-4.8-3.753a4.457,4.457,0,0,1,.776-2.755A2.517,2.517,0,0,1-1.9-7.533,2.265,2.265,0,0,1-.12-6.727V-10.5H1.863V0H.079l-.1-.786a2.325,2.325,0,0,1-1.9.923,2.511,2.511,0,0,1-2.1-1.029A4.6,4.6,0,0,1-4.8-3.753Zm1.976.147a2.92,2.92,0,0,0,.362,1.6,1.18,1.18,0,0,0,1.053.555A1.322,1.322,0,0,0-.12-2.23V-5.153A1.3,1.3,0,0,0-1.4-5.927Q-2.827-5.927-2.827-3.606ZM6.8.137a3.631,3.631,0,0,1-2.649-1A3.548,3.548,0,0,1,3.127-3.521v-.191A4.468,4.468,0,0,1,3.558-5.7a3.161,3.161,0,0,1,1.22-1.354,3.425,3.425,0,0,1,1.8-.475,3.07,3.07,0,0,1,2.389.957A3.889,3.889,0,0,1,9.84-3.862v.807H5.13a1.835,1.835,0,0,0,.578,1.162,1.746,1.746,0,0,0,1.22.438,2.132,2.132,0,0,0,1.784-.827L9.683-1.2a2.966,2.966,0,0,1-1.2.981A3.947,3.947,0,0,1,6.8.137ZM6.573-5.94a1.234,1.234,0,0,0-.954.4A2.062,2.062,0,0,0,5.151-4.4H7.9V-4.56a1.471,1.471,0,0,0-.355-1.02A1.274,1.274,0,0,0,6.573-5.94Zm4.081,2.174a4.387,4.387,0,0,1,.424-1.962A3.1,3.1,0,0,1,12.3-7.062a3.56,3.56,0,0,1,1.849-.472,3.368,3.368,0,0,1,2.444.916,3.676,3.676,0,0,1,1.056,2.488l.014.506a3.866,3.866,0,0,1-.95,2.731A3.3,3.3,0,0,1,14.161.137,3.319,3.319,0,0,1,11.607-.889a3.934,3.934,0,0,1-.954-2.789Zm1.976.14a2.765,2.765,0,0,0,.4,1.612,1.308,1.308,0,0,0,1.135.558,1.311,1.311,0,0,0,1.121-.551,3.025,3.025,0,0,0,.4-1.763,2.737,2.737,0,0,0-.4-1.6,1.311,1.311,0,0,0-1.135-.568,1.29,1.29,0,0,0-1.121.565A3.076,3.076,0,0,0,12.629-3.626ZM-12.079,5.708h-3.049V14h-2.051V5.708h-3.008V4.047h8.107Zm4.751,2.748A5.367,5.367,0,0,0-8.039,8.4a1.447,1.447,0,0,0-1.47.759V14h-1.976V6.6h1.866l.055.882A1.831,1.831,0,0,1-7.916,6.467a2.07,2.07,0,0,1,.615.089ZM-2.3,14a2.194,2.194,0,0,1-.2-.663,2.39,2.39,0,0,1-1.866.8,2.626,2.626,0,0,1-1.8-.629,2.023,2.023,0,0,1-.714-1.586,2.09,2.09,0,0,1,.872-1.8,4.3,4.3,0,0,1,2.519-.636h.909V9.058a1.219,1.219,0,0,0-.263-.82,1.035,1.035,0,0,0-.831-.308,1.177,1.177,0,0,0-.783.239.813.813,0,0,0-.284.656H-6.713a1.984,1.984,0,0,1,.4-1.189A2.621,2.621,0,0,1-5.2,6.778a4.086,4.086,0,0,1,1.627-.311,3.228,3.228,0,0,1,2.17.687,2.4,2.4,0,0,1,.8,1.931v3.206A3.536,3.536,0,0,0-.3,13.884V14Zm-1.634-1.374a1.7,1.7,0,0,0,.807-.195,1.28,1.28,0,0,0,.547-.523V10.637h-.738q-1.483,0-1.579,1.025l-.007.116a.791.791,0,0,0,.26.608A1.009,1.009,0,0,0-3.931,12.626ZM1.463,14V8.053H.362V6.6h1.1V5.975a2.553,2.553,0,0,1,.714-1.931,2.767,2.767,0,0,1,2-.687,4.618,4.618,0,0,1,1,.137L5.161,5.024a2.519,2.519,0,0,0-.6-.062q-1.114,0-1.114,1.046V6.6H5.879V6.262a2.774,2.774,0,0,1,.858-2.15,3.452,3.452,0,0,1,2.382-.755,8.024,8.024,0,0,1,2.249.4l-.287,1.634a8.664,8.664,0,0,0-1.042-.256,5.172,5.172,0,0,0-.8-.058q-1.381,0-1.381,1.224v.3H9.317V8.053H7.861V14H5.879V8.053H3.445V14Zm10.821,0H10.3V6.6h1.982Zm4.71-1.456a1.3,1.3,0,0,0,.889-.3,1.054,1.054,0,0,0,.355-.8h1.853a2.534,2.534,0,0,1-.41,1.377,2.706,2.706,0,0,1-1.1.971,3.455,3.455,0,0,1-1.548.345,3.211,3.211,0,0,1-2.5-1.008,3.99,3.99,0,0,1-.916-2.786v-.13a3.944,3.944,0,0,1,.909-2.728,3.174,3.174,0,0,1,2.5-1.019,3.111,3.111,0,0,1,2.225.79,2.8,2.8,0,0,1,.851,2.1H18.238a1.358,1.358,0,0,0-.355-.938,1.321,1.321,0,0,0-1.945.142,2.916,2.916,0,0,0-.352,1.633V10.4a2.953,2.953,0,0,0,.349,1.643A1.2,1.2,0,0,0,16.994,12.544Z" transform="translate(960.894 2587.658)" fill="#002859"/>
      <path id="Trazado_192352" data-name="Trazado 192352" d="M-10.438-3.138l.191,1.313.28-1.183L-8-9.953h1.107L-4.97-3.008-4.7-1.8l.212-1.34,1.545-6.809H-1.62L-4.033,0h-1.2L-7.28-7.253l-.157-.759-.157.759L-9.721,0h-1.2l-2.406-9.953h1.313ZM2.5.137A3.232,3.232,0,0,1,.048-.851,3.666,3.666,0,0,1-.9-3.493v-.232a4.438,4.438,0,0,1,.42-1.965A3.28,3.28,0,0,1,.7-7.044a2.956,2.956,0,0,1,1.637-.489,2.77,2.77,0,0,1,2.242.95,4.114,4.114,0,0,1,.8,2.721v.526H.369a2.629,2.629,0,0,0,.639,1.767A2.009,2.009,0,0,0,2.563-.9,2.2,2.2,0,0,0,3.7-1.169a2.851,2.851,0,0,0,.813-.725l.772.6A3.106,3.106,0,0,1,2.5.137ZM2.338-6.494a1.687,1.687,0,0,0-1.285.557A2.708,2.708,0,0,0,.41-4.375H4.115v-.1A2.409,2.409,0,0,0,3.6-5.964,1.588,1.588,0,0,0,2.338-6.494ZM13.1-3.616a4.4,4.4,0,0,1-.779,2.724A2.49,2.49,0,0,1,10.233.137,2.578,2.578,0,0,1,8.066-.854L8,0H6.843V-10.5H8.107v3.917a2.564,2.564,0,0,1,2.112-.95,2.505,2.505,0,0,1,2.116,1.019A4.53,4.53,0,0,1,13.1-3.726ZM11.84-3.76a3.417,3.417,0,0,0-.5-2,1.652,1.652,0,0,0-1.436-.7A1.857,1.857,0,0,0,8.107-5.3v3.2A1.909,1.909,0,0,0,9.919-.937a1.643,1.643,0,0,0,1.415-.7A3.634,3.634,0,0,0,11.84-3.76Z" transform="translate(1058.296 2654.927)" fill="#002859"/>
      <path id="Trazado_192353" data-name="Trazado 192353" d="M-11.375-2.6h-4.17L-16.481,0h-1.354l3.8-9.953h1.148L-9.078,0h-1.347Zm-3.773-1.073h3.384l-1.7-4.655Zm11.7,2.946A2.686,2.686,0,0,1-5.612.137a2.3,2.3,0,0,1-1.8-.687,2.974,2.974,0,0,1-.625-2.034V-7.4h1.265v4.778q0,1.682,1.367,1.682a1.893,1.893,0,0,0,1.928-1.08V-7.4h1.265V0h-1.2ZM-.6-3.76A4.333,4.333,0,0,1,.205-6.5,2.551,2.551,0,0,1,2.317-7.533a2.565,2.565,0,0,1,2.058.889V-10.5H5.64V0H4.478L4.416-.793A2.575,2.575,0,0,1,2.3.137,2.526,2.526,0,0,1,.208-.916,4.382,4.382,0,0,1-.6-3.664Zm1.265.144a3.281,3.281,0,0,0,.52,1.969,1.68,1.68,0,0,0,1.436.711,1.845,1.845,0,0,0,1.757-1.08v-3.4A1.859,1.859,0,0,0,2.632-6.46a1.687,1.687,0,0,0-1.449.718A3.612,3.612,0,0,0,.663-3.616ZM8.976,0H7.711V-7.4H8.976ZM7.608-9.358a.755.755,0,0,1,.188-.52.706.706,0,0,1,.557-.212.717.717,0,0,1,.561.212.747.747,0,0,1,.191.52.722.722,0,0,1-.191.513.73.73,0,0,1-.561.205A.718.718,0,0,1,7.8-8.846.73.73,0,0,1,7.608-9.358Zm3.056,5.592a4.369,4.369,0,0,1,.427-1.955,3.187,3.187,0,0,1,1.189-1.34,3.238,3.238,0,0,1,1.74-.472,3.119,3.119,0,0,1,2.444,1.046A4.024,4.024,0,0,1,17.4-3.705v.089a4.407,4.407,0,0,1-.414,1.938A3.14,3.14,0,0,1,15.8-.342a3.275,3.275,0,0,1-1.767.479A3.111,3.111,0,0,1,11.6-.909a4,4,0,0,1-.933-2.769Zm1.271.15a3.164,3.164,0,0,0,.571,1.976A1.827,1.827,0,0,0,14.034-.9a1.816,1.816,0,0,0,1.531-.755,3.46,3.46,0,0,0,.567-2.116,3.159,3.159,0,0,0-.578-1.972,1.836,1.836,0,0,0-1.535-.755,1.816,1.816,0,0,0-1.511.745A3.434,3.434,0,0,0,11.936-3.616Z" transform="translate(1058.296 2529.658)" fill="#002859"/>
      <path id="Trazado_192354" data-name="Trazado 192354" d="M-13.351-1.743l2.844-8.21h1.436L-12.763,0h-1.162l-3.685-9.953h1.429ZM-6.562,0H-7.827V-7.4h1.265ZM-7.93-9.358a.755.755,0,0,1,.188-.52.706.706,0,0,1,.557-.212.717.717,0,0,1,.561.212.747.747,0,0,1,.191.52.722.722,0,0,1-.191.513.73.73,0,0,1-.561.205.718.718,0,0,1-.557-.205A.73.73,0,0,1-7.93-9.358Zm3.083,5.6A4.333,4.333,0,0,1-4.04-6.5,2.551,2.551,0,0,1-1.928-7.533,2.565,2.565,0,0,1,.13-6.645V-10.5H1.395V0H.232L.171-.793a2.575,2.575,0,0,1-2.112.93,2.526,2.526,0,0,1-2.1-1.053,4.382,4.382,0,0,1-.81-2.748Zm1.265.144a3.281,3.281,0,0,0,.52,1.969,1.68,1.68,0,0,0,1.436.711A1.845,1.845,0,0,0,.13-2.017v-3.4A1.859,1.859,0,0,0-1.613-6.46a1.687,1.687,0,0,0-1.449.718A3.612,3.612,0,0,0-3.582-3.616ZM6.426.137A3.232,3.232,0,0,1,3.979-.851a3.666,3.666,0,0,1-.943-2.642v-.232a4.438,4.438,0,0,1,.42-1.965A3.28,3.28,0,0,1,4.631-7.044a2.956,2.956,0,0,1,1.637-.489,2.77,2.77,0,0,1,2.242.95,4.114,4.114,0,0,1,.8,2.721v.526H4.3a2.629,2.629,0,0,0,.639,1.767A2.009,2.009,0,0,0,6.494-.9a2.2,2.2,0,0,0,1.135-.273,2.851,2.851,0,0,0,.813-.725l.772.6A3.106,3.106,0,0,1,6.426.137ZM6.269-6.494a1.687,1.687,0,0,0-1.285.557,2.708,2.708,0,0,0-.643,1.562H8.046v-.1a2.409,2.409,0,0,0-.52-1.494A1.588,1.588,0,0,0,6.269-6.494Zm4.17,2.728a4.369,4.369,0,0,1,.427-1.955,3.187,3.187,0,0,1,1.189-1.34,3.238,3.238,0,0,1,1.74-.472,3.119,3.119,0,0,1,2.444,1.046,4.024,4.024,0,0,1,.933,2.782v.089a4.407,4.407,0,0,1-.414,1.938A3.14,3.14,0,0,1,15.576-.342a3.275,3.275,0,0,1-1.767.479A3.111,3.111,0,0,1,11.372-.909a4,4,0,0,1-.933-2.769Zm1.271.15a3.164,3.164,0,0,0,.571,1.976A1.827,1.827,0,0,0,13.809-.9a1.816,1.816,0,0,0,1.531-.755,3.46,3.46,0,0,0,.567-2.116,3.159,3.159,0,0,0-.578-1.972,1.836,1.836,0,0,0-1.535-.755,1.816,1.816,0,0,0-1.511.745A3.434,3.434,0,0,0,11.71-3.616Z" transform="translate(1058.296 2594.658)" fill="#002859"/>
      <path id="Trazado_192355" data-name="Trazado 192355" d="M-10.538-4.6h-4.313v3.527H-9.84V0h-6.323V-9.953h6.255V-8.88h-4.942v3.206h4.313Zm3.322-2.8.034.82a2.732,2.732,0,0,1,2.194-.957A2.115,2.115,0,0,1-2.875-6.344a2.8,2.8,0,0,1,.96-.861,2.837,2.837,0,0,1,1.4-.328q2.434,0,2.475,2.577V0H.694V-4.881A1.7,1.7,0,0,0,.332-6.067,1.6,1.6,0,0,0-.885-6.46a1.677,1.677,0,0,0-1.169.42,1.706,1.706,0,0,0-.54,1.131V0H-3.866V-4.847A1.411,1.411,0,0,0-5.445-6.46a1.692,1.692,0,0,0-1.7,1.06V0H-8.412V-7.4ZM8.432,0a2.657,2.657,0,0,1-.178-.779A2.822,2.822,0,0,1,6.149.137,2.611,2.611,0,0,1,4.354-.482a2,2,0,0,1-.7-1.569,2.091,2.091,0,0,1,.878-1.794A4.142,4.142,0,0,1,7-4.484h1.23v-.581a1.42,1.42,0,0,0-.4-1.056,1.593,1.593,0,0,0-1.169-.393,1.844,1.844,0,0,0-1.135.342,1.007,1.007,0,0,0-.458.827H3.8A1.745,1.745,0,0,1,4.2-6.416a2.683,2.683,0,0,1,1.066-.817,3.588,3.588,0,0,1,1.48-.3,2.924,2.924,0,0,1,2,.639A2.306,2.306,0,0,1,9.5-5.134v3.4a4.162,4.162,0,0,0,.26,1.62V0Zm-2.1-.964a2.223,2.223,0,0,0,1.128-.308,1.861,1.861,0,0,0,.772-.8V-3.589H7.243q-2.324,0-2.324,1.36a1.151,1.151,0,0,0,.4.93A1.524,1.524,0,0,0,6.333-.964ZM12.855,0H11.59V-7.4h1.265ZM11.488-9.358a.755.755,0,0,1,.188-.52.706.706,0,0,1,.557-.212.717.717,0,0,1,.561.212.747.747,0,0,1,.191.52.722.722,0,0,1-.191.513.73.73,0,0,1-.561.205.718.718,0,0,1-.557-.205A.73.73,0,0,1,11.488-9.358ZM16.252,0H14.988V-10.5h1.265Z" transform="translate(1058.296 2685.658)" fill="#002859"/>
      <path id="Trazado_192356" data-name="Trazado 192356" d="M-31.784-4.4H-35.96V0h-1.312V-9.953h6.166V-8.88H-35.96v3.411h4.177ZM-28.359,0h-1.265V-7.4h1.265Zm-1.367-9.358a.755.755,0,0,1,.188-.52.706.706,0,0,1,.557-.212.717.717,0,0,1,.561.212.747.747,0,0,1,.191.52.722.722,0,0,1-.191.513.73.73,0,0,1-.561.205.718.718,0,0,1-.557-.205A.73.73,0,0,1-29.726-9.358ZM-24.961,0h-1.265V-10.5h1.265Zm5.093.137a3.232,3.232,0,0,1-2.447-.988,3.666,3.666,0,0,1-.943-2.642v-.232a4.438,4.438,0,0,1,.42-1.965,3.28,3.28,0,0,1,1.176-1.354,2.956,2.956,0,0,1,1.637-.489,2.77,2.77,0,0,1,2.242.95,4.114,4.114,0,0,1,.8,2.721v.526h-5.011a2.629,2.629,0,0,0,.639,1.767A2.009,2.009,0,0,0-19.8-.9a2.2,2.2,0,0,0,1.135-.273,2.851,2.851,0,0,0,.813-.725l.772.6A3.106,3.106,0,0,1-19.869.137Zm-.157-6.631a1.687,1.687,0,0,0-1.285.557,2.708,2.708,0,0,0-.643,1.562h3.705v-.1a2.409,2.409,0,0,0-.52-1.494A1.588,1.588,0,0,0-20.026-6.494ZM-5.253-8.88h-3.2V0H-9.758V-8.88h-3.192V-9.953h7.7ZM-.913-6.262a3.79,3.79,0,0,0-.622-.048A1.667,1.667,0,0,0-3.223-5.25V0H-4.488V-7.4h1.23l.021.854a1.969,1.969,0,0,1,1.764-.991,1.292,1.292,0,0,1,.561.1ZM4.542,0a2.657,2.657,0,0,1-.178-.779A2.822,2.822,0,0,1,2.259.137,2.611,2.611,0,0,1,.465-.482a2,2,0,0,1-.7-1.569A2.091,2.091,0,0,1,.643-3.845a4.142,4.142,0,0,1,2.471-.639h1.23v-.581a1.42,1.42,0,0,0-.4-1.056,1.593,1.593,0,0,0-1.169-.393,1.844,1.844,0,0,0-1.135.342,1.007,1.007,0,0,0-.458.827H-.085a1.745,1.745,0,0,1,.393-1.07,2.683,2.683,0,0,1,1.066-.817,3.588,3.588,0,0,1,1.48-.3,2.924,2.924,0,0,1,2,.639,2.306,2.306,0,0,1,.752,1.76v3.4a4.162,4.162,0,0,0,.26,1.62V0Zm-2.1-.964a2.223,2.223,0,0,0,1.128-.308,1.861,1.861,0,0,0,.772-.8V-3.589H3.353q-2.324,0-2.324,1.36a1.151,1.151,0,0,0,.4.93A1.524,1.524,0,0,0,2.444-.964ZM8.788-7.4l.041.93a2.7,2.7,0,0,1,2.215-1.066q2.345,0,2.365,2.646V0H12.144V-4.895a1.7,1.7,0,0,0-.366-1.183,1.466,1.466,0,0,0-1.118-.383,1.825,1.825,0,0,0-1.08.328,2.228,2.228,0,0,0-.725.861V0H7.591V-7.4ZM19.623-1.962a.931.931,0,0,0-.386-.8,3.718,3.718,0,0,0-1.347-.489,6.367,6.367,0,0,1-1.524-.492,2.169,2.169,0,0,1-.834-.684,1.635,1.635,0,0,1-.27-.943A1.919,1.919,0,0,1,16.03-6.9,3,3,0,0,1,18-7.533a3.091,3.091,0,0,1,2.041.649,2.063,2.063,0,0,1,.783,1.661H19.547a1.142,1.142,0,0,0-.441-.9A1.652,1.652,0,0,0,18-6.494a1.729,1.729,0,0,0-1.08.3.947.947,0,0,0-.39.786.767.767,0,0,0,.362.69,4.458,4.458,0,0,0,1.309.444,6.821,6.821,0,0,1,1.535.506,2.239,2.239,0,0,1,.872.708,1.74,1.74,0,0,1,.284,1.008,1.893,1.893,0,0,1-.793,1.589,3.326,3.326,0,0,1-2.058.6,3.725,3.725,0,0,1-1.572-.314,2.557,2.557,0,0,1-1.07-.878,2.117,2.117,0,0,1-.386-1.22h1.265a1.309,1.309,0,0,0,.509,1.008A1.976,1.976,0,0,0,18.037-.9a2.039,2.039,0,0,0,1.152-.291A.893.893,0,0,0,19.623-1.962ZM23.157,0V-6.419H21.988V-7.4h1.169v-.759a2.519,2.519,0,0,1,.636-1.839,2.4,2.4,0,0,1,1.8-.649,3.339,3.339,0,0,1,.868.115L26.39-9.509a3.632,3.632,0,0,0-.684-.062,1.234,1.234,0,0,0-.95.36,1.46,1.46,0,0,0-.335,1.032V-7.4H26v.978H24.421V0ZM30.3.137a3.232,3.232,0,0,1-2.447-.988,3.666,3.666,0,0,1-.943-2.642v-.232a4.438,4.438,0,0,1,.42-1.965,3.28,3.28,0,0,1,1.176-1.354,2.956,2.956,0,0,1,1.637-.489,2.77,2.77,0,0,1,2.242.95,4.114,4.114,0,0,1,.8,2.721v.526H28.174a2.629,2.629,0,0,0,.639,1.767A2.009,2.009,0,0,0,30.369-.9,2.2,2.2,0,0,0,31.5-1.169a2.851,2.851,0,0,0,.813-.725l.772.6A3.106,3.106,0,0,1,30.3.137Zm-.157-6.631a1.687,1.687,0,0,0-1.285.557,2.708,2.708,0,0,0-.643,1.562H31.92v-.1a2.409,2.409,0,0,0-.52-1.494A1.588,1.588,0,0,0,30.143-6.494Zm8.08.232A3.79,3.79,0,0,0,37.6-6.31a1.667,1.667,0,0,0-1.688,1.06V0H34.648V-7.4h1.23l.021.854a1.969,1.969,0,0,1,1.764-.991,1.292,1.292,0,0,1,.561.1Z" transform="translate(1058.296 2716.366)" fill="#002859"/>
      <path id="Trazado_192357" data-name="Trazado 192357" d="M-8.388-4.751a6.008,6.008,0,0,1-.52,2.577A3.913,3.913,0,0,1-10.394-.465a4.113,4.113,0,0,1-2.218.6A4.141,4.141,0,0,1-14.82-.458a3.951,3.951,0,0,1-1.5-1.7,5.837,5.837,0,0,1-.54-2.54v-.492a5.977,5.977,0,0,1,.53-2.587,3.945,3.945,0,0,1,1.5-1.716,4.118,4.118,0,0,1,2.211-.6,4.118,4.118,0,0,1,2.211.6,3.945,3.945,0,0,1,1.5,1.716A5.96,5.96,0,0,1-8.388-5.2ZM-10.466-5.2a4.188,4.188,0,0,0-.561-2.379,1.827,1.827,0,0,0-1.6-.813,1.827,1.827,0,0,0-1.593.8,4.141,4.141,0,0,0-.567,2.355v.485a4.241,4.241,0,0,0,.561,2.365,1.822,1.822,0,0,0,1.613.841,1.806,1.806,0,0,0,1.586-.81,4.216,4.216,0,0,0,.561-2.362Zm5.8-4.013V-7.4H-3.4v1.449H-4.662v3.691a.881.881,0,0,0,.157.588.79.79,0,0,0,.6.178,3.151,3.151,0,0,0,.581-.048v1.5a4.067,4.067,0,0,1-1.2.178,1.886,1.886,0,0,1-2.119-2.1V-5.947h-1.08V-7.4h1.08V-9.215ZM-.369-6.59a2.466,2.466,0,0,1,1.976-.943q2.406,0,2.44,2.8V0H2.071V-4.683a1.374,1.374,0,0,0-.273-.94,1.172,1.172,0,0,0-.909-.3,1.345,1.345,0,0,0-1.258.67V0H-2.345V-10.5H-.369ZM8.941.137a3.631,3.631,0,0,1-2.649-1A3.548,3.548,0,0,1,5.271-3.521v-.191A4.468,4.468,0,0,1,5.7-5.7a3.161,3.161,0,0,1,1.22-1.354,3.425,3.425,0,0,1,1.8-.475,3.07,3.07,0,0,1,2.389.957,3.889,3.889,0,0,1,.872,2.714v.807H7.273a1.835,1.835,0,0,0,.578,1.162,1.746,1.746,0,0,0,1.22.438,2.132,2.132,0,0,0,1.784-.827L11.826-1.2a2.966,2.966,0,0,1-1.2.981A3.947,3.947,0,0,1,8.941.137ZM8.716-5.94a1.234,1.234,0,0,0-.954.4A2.062,2.062,0,0,0,7.294-4.4h2.748V-4.56a1.471,1.471,0,0,0-.355-1.02A1.274,1.274,0,0,0,8.716-5.94Zm8.545.4A5.367,5.367,0,0,0,16.55-5.6a1.447,1.447,0,0,0-1.47.759V0H13.1V-7.4h1.866l.055.882a1.831,1.831,0,0,1,1.647-1.019,2.07,2.07,0,0,1,.615.089ZM-12.079,5.708h-3.049V14h-2.051V5.708h-3.008V4.047h8.107Zm4.751,2.748A5.367,5.367,0,0,0-8.039,8.4a1.447,1.447,0,0,0-1.47.759V14h-1.976V6.6h1.866l.055.882A1.831,1.831,0,0,1-7.916,6.467a2.07,2.07,0,0,1,.615.089ZM-2.3,14a2.194,2.194,0,0,1-.2-.663,2.39,2.39,0,0,1-1.866.8,2.626,2.626,0,0,1-1.8-.629,2.023,2.023,0,0,1-.714-1.586,2.09,2.09,0,0,1,.872-1.8,4.3,4.3,0,0,1,2.519-.636h.909V9.058a1.219,1.219,0,0,0-.263-.82,1.035,1.035,0,0,0-.831-.308,1.177,1.177,0,0,0-.783.239.813.813,0,0,0-.284.656H-6.713a1.984,1.984,0,0,1,.4-1.189A2.621,2.621,0,0,1-5.2,6.778a4.086,4.086,0,0,1,1.627-.311,3.228,3.228,0,0,1,2.17.687,2.4,2.4,0,0,1,.8,1.931v3.206A3.536,3.536,0,0,0-.3,13.884V14Zm-1.634-1.374a1.7,1.7,0,0,0,.807-.195,1.28,1.28,0,0,0,.547-.523V10.637h-.738q-1.483,0-1.579,1.025l-.007.116a.791.791,0,0,0,.26.608A1.009,1.009,0,0,0-3.931,12.626ZM1.463,14V8.053H.362V6.6h1.1V5.975a2.553,2.553,0,0,1,.714-1.931,2.767,2.767,0,0,1,2-.687,4.618,4.618,0,0,1,1,.137L5.161,5.024a2.519,2.519,0,0,0-.6-.062q-1.114,0-1.114,1.046V6.6H5.879V6.262a2.774,2.774,0,0,1,.858-2.15,3.452,3.452,0,0,1,2.382-.755,8.024,8.024,0,0,1,2.249.4l-.287,1.634a8.664,8.664,0,0,0-1.042-.256,5.172,5.172,0,0,0-.8-.058q-1.381,0-1.381,1.224v.3H9.317V8.053H7.861V14H5.879V8.053H3.445V14Zm10.821,0H10.3V6.6h1.982Zm4.71-1.456a1.3,1.3,0,0,0,.889-.3,1.054,1.054,0,0,0,.355-.8h1.853a2.534,2.534,0,0,1-.41,1.377,2.706,2.706,0,0,1-1.1.971,3.455,3.455,0,0,1-1.548.345,3.211,3.211,0,0,1-2.5-1.008,3.99,3.99,0,0,1-.916-2.786v-.13a3.944,3.944,0,0,1,.909-2.728,3.174,3.174,0,0,1,2.5-1.019,3.111,3.111,0,0,1,2.225.79,2.8,2.8,0,0,1,.851,2.1H18.238a1.358,1.358,0,0,0-.355-.938,1.321,1.321,0,0,0-1.945.142,2.916,2.916,0,0,0-.352,1.633V10.4a2.953,2.953,0,0,0,.349,1.643A1.2,1.2,0,0,0,16.994,12.544Z" transform="translate(960.894 2678.658)" fill="#002859"/>
      <path id="Trazado_192358" data-name="Trazado 192358" d="M-57.48,0V-9.953h3.254a3.777,3.777,0,0,1,2.437.67A2.414,2.414,0,0,1-50.972-7.3a2.022,2.022,0,0,1-.4,1.234,2.57,2.57,0,0,1-1.08.831,2.308,2.308,0,0,1,1.275.858,2.462,2.462,0,0,1,.468,1.507,2.662,2.662,0,0,1-.868,2.105A3.59,3.59,0,0,1-54.028,0Zm1.313-4.655v3.582H-54a2.087,2.087,0,0,0,1.446-.475,1.669,1.669,0,0,0,.53-1.309q0-1.8-1.955-1.8Zm0-1.053h1.982a2.078,2.078,0,0,0,1.377-.432,1.447,1.447,0,0,0,.516-1.171,1.423,1.423,0,0,0-.479-1.2,2.35,2.35,0,0,0-1.456-.373h-1.941ZM-45.893.137A3.232,3.232,0,0,1-48.34-.851a3.666,3.666,0,0,1-.943-2.642v-.232a4.438,4.438,0,0,1,.42-1.965,3.28,3.28,0,0,1,1.176-1.354,2.956,2.956,0,0,1,1.637-.489,2.77,2.77,0,0,1,2.242.95,4.114,4.114,0,0,1,.8,2.721v.526h-5.011a2.629,2.629,0,0,0,.639,1.767A2.009,2.009,0,0,0-45.825-.9a2.2,2.2,0,0,0,1.135-.273,2.851,2.851,0,0,0,.813-.725l.772.6A3.106,3.106,0,0,1-45.893.137Zm-.157-6.631a1.687,1.687,0,0,0-1.285.557,2.708,2.708,0,0,0-.643,1.562h3.705v-.1a2.409,2.409,0,0,0-.52-1.494A1.588,1.588,0,0,0-46.05-6.494Zm8.812,4.532a.931.931,0,0,0-.386-.8,3.718,3.718,0,0,0-1.347-.489A6.367,6.367,0,0,1-40.5-3.739a2.169,2.169,0,0,1-.834-.684,1.635,1.635,0,0,1-.27-.943A1.919,1.919,0,0,1-40.831-6.9a3,3,0,0,1,1.965-.629,3.091,3.091,0,0,1,2.041.649,2.063,2.063,0,0,1,.783,1.661h-1.271a1.142,1.142,0,0,0-.441-.9,1.652,1.652,0,0,0-1.111-.376,1.729,1.729,0,0,0-1.08.3.947.947,0,0,0-.39.786.767.767,0,0,0,.362.69,4.458,4.458,0,0,0,1.309.444,6.821,6.821,0,0,1,1.535.506,2.239,2.239,0,0,1,.872.708,1.74,1.74,0,0,1,.284,1.008,1.893,1.893,0,0,1-.793,1.589,3.326,3.326,0,0,1-2.058.6A3.725,3.725,0,0,1-40.4-.178a2.557,2.557,0,0,1-1.07-.878,2.117,2.117,0,0,1-.386-1.22h1.265a1.309,1.309,0,0,0,.509,1.008A1.976,1.976,0,0,0-38.825-.9a2.039,2.039,0,0,0,1.152-.291A.893.893,0,0,0-37.239-1.962Zm4.628-7.226V-7.4h1.381v.978h-1.381v4.593a1.027,1.027,0,0,0,.185.667.777.777,0,0,0,.629.222,3.062,3.062,0,0,0,.6-.082V0a3.688,3.688,0,0,1-.971.136,1.575,1.575,0,0,1-1.278-.513,2.2,2.2,0,0,1-.431-1.456V-6.419h-1.347V-7.4h1.347V-9.187ZM-20.463-4.6h-4.313v3.527h5.011V0h-6.323V-9.953h6.255V-8.88h-4.942v3.206h4.313ZM-17.832,0V-6.419H-19V-7.4h1.169v-.759A2.519,2.519,0,0,1-17.2-9.994a2.4,2.4,0,0,1,1.8-.649,3.339,3.339,0,0,1,.868.115L-14.6-9.509a3.632,3.632,0,0,0-.684-.062,1.234,1.234,0,0,0-.95.36,1.46,1.46,0,0,0-.335,1.032V-7.4h1.579v.978h-1.579V0Zm4.86,0V-6.419H-14.14V-7.4h1.169v-.759a2.519,2.519,0,0,1,.636-1.839,2.4,2.4,0,0,1,1.8-.649,3.339,3.339,0,0,1,.868.115l-.068,1.019a3.632,3.632,0,0,0-.684-.062,1.234,1.234,0,0,0-.95.36,1.46,1.46,0,0,0-.335,1.032V-7.4h1.579v.978h-1.579V0Zm3.9-3.767a4.369,4.369,0,0,1,.427-1.955,3.187,3.187,0,0,1,1.189-1.34,3.238,3.238,0,0,1,1.74-.472A3.119,3.119,0,0,1-3.268-6.487a4.024,4.024,0,0,1,.933,2.782v.089a4.407,4.407,0,0,1-.414,1.938A3.14,3.14,0,0,1-3.931-.342,3.275,3.275,0,0,1-5.7.137,3.111,3.111,0,0,1-8.135-.909a4,4,0,0,1-.933-2.769Zm1.271.15a3.164,3.164,0,0,0,.571,1.976A1.827,1.827,0,0,0-5.7-.9a1.816,1.816,0,0,0,1.531-.755A3.46,3.46,0,0,0-3.6-3.767a3.159,3.159,0,0,0-.578-1.972,1.836,1.836,0,0,0-1.535-.755,1.816,1.816,0,0,0-1.511.745A3.434,3.434,0,0,0-7.8-3.616ZM2.827-6.262A3.79,3.79,0,0,0,2.2-6.31,1.667,1.667,0,0,0,.516-5.25V0H-.749V-7.4H.482L.5-6.542a1.969,1.969,0,0,1,1.764-.991,1.292,1.292,0,0,1,.561.1Zm3.22-2.926V-7.4H7.427v.978H6.046v4.593a1.027,1.027,0,0,0,.185.667.777.777,0,0,0,.629.222,3.062,3.062,0,0,0,.6-.082V0a3.688,3.688,0,0,1-.971.136A1.575,1.575,0,0,1,5.212-.376a2.2,2.2,0,0,1-.431-1.456V-6.419H3.435V-7.4H4.782V-9.187ZM15-3.712H11.666V-4.744H15Zm12.5-.943A6.147,6.147,0,0,1,27.04-2.17,3.84,3.84,0,0,1,25.754-.54L27.532.854l-.9.827L24.538.014A4.27,4.27,0,0,1,23.5.137a3.8,3.8,0,0,1-2.085-.578A3.817,3.817,0,0,1,20-2.088a5.908,5.908,0,0,1-.516-2.478v-.718a6.084,6.084,0,0,1,.5-2.536A3.8,3.8,0,0,1,21.4-9.505a3.788,3.788,0,0,1,2.088-.584,3.854,3.854,0,0,1,2.116.581,3.748,3.748,0,0,1,1.4,1.671A6.139,6.139,0,0,1,27.5-5.291ZM26.185-5.3a4.517,4.517,0,0,0-.7-2.71,2.332,2.332,0,0,0-2-.954,2.313,2.313,0,0,0-1.952.947A4.371,4.371,0,0,0,20.8-5.387v.731a4.5,4.5,0,0,0,.714,2.693A2.316,2.316,0,0,0,23.5-.978,2.32,2.32,0,0,0,25.467-1.9a4.444,4.444,0,0,0,.718-2.656Zm7.7,4.566a2.686,2.686,0,0,1-2.167.868,2.3,2.3,0,0,1-1.8-.687A2.974,2.974,0,0,1,29.3-2.584V-7.4H30.56v4.778q0,1.682,1.367,1.682a1.893,1.893,0,0,0,1.928-1.08V-7.4H35.12V0h-1.2ZM40.11.137a3.232,3.232,0,0,1-2.447-.988,3.666,3.666,0,0,1-.943-2.642v-.232a4.438,4.438,0,0,1,.42-1.965,3.28,3.28,0,0,1,1.176-1.354,2.956,2.956,0,0,1,1.637-.489,2.77,2.77,0,0,1,2.242.95,4.114,4.114,0,0,1,.8,2.721v.526H37.984a2.629,2.629,0,0,0,.639,1.767A2.009,2.009,0,0,0,40.178-.9a2.2,2.2,0,0,0,1.135-.273,2.851,2.851,0,0,0,.813-.725l.772.6A3.106,3.106,0,0,1,40.11.137Zm-.157-6.631a1.687,1.687,0,0,0-1.285.557,2.708,2.708,0,0,0-.643,1.562H41.73v-.1a2.409,2.409,0,0,0-.52-1.494A1.588,1.588,0,0,0,39.953-6.494ZM49.024-.731a2.686,2.686,0,0,1-2.167.868,2.3,2.3,0,0,1-1.8-.687,2.974,2.974,0,0,1-.625-2.034V-7.4h1.265v4.778q0,1.682,1.367,1.682a1.893,1.893,0,0,0,1.928-1.08V-7.4h1.265V0h-1.2Zm6.221.868A3.232,3.232,0,0,1,52.8-.851a3.666,3.666,0,0,1-.943-2.642v-.232a4.438,4.438,0,0,1,.42-1.965A3.28,3.28,0,0,1,53.45-7.044a2.956,2.956,0,0,1,1.637-.489,2.77,2.77,0,0,1,2.242.95,4.114,4.114,0,0,1,.8,2.721v.526H53.119a2.629,2.629,0,0,0,.639,1.767A2.009,2.009,0,0,0,55.313-.9a2.2,2.2,0,0,0,1.135-.273,2.851,2.851,0,0,0,.813-.725l.772.6A3.106,3.106,0,0,1,55.245.137Zm-.157-6.631a1.687,1.687,0,0,0-1.285.557,2.708,2.708,0,0,0-.643,1.562h3.705v-.1a2.409,2.409,0,0,0-.52-1.494A1.588,1.588,0,0,0,55.087-6.494Z" transform="translate(1183 2685.658)" fill="#002859"/>
    </g>
  </g>
</svg>
