<svg xmlns="http://www.w3.org/2000/svg" width="120" height="120" viewBox="0 0 120 120">
  <g id="_5" data-name="5" transform="translate(-236 -3090)">
    <circle id="Elipse_498" data-name="Elipse 498" cx="60" cy="60" r="60" transform="translate(236 3090)" fill="#fff"/>
    <g id="Grupo_129005" data-name="Grupo 129005" transform="translate(259 3095)">
      <path id="Trazado_189703" data-name="Trazado 189703" d="M3660.916-471h-6.728c-2.389,0-4.777-.007-7.166,0a1.845,1.845,0,0,0-1.954,1.8c-.027.289-.017.583-.017.874,0,2.133-.007,4.266,0,6.4a1.874,1.874,0,0,0,1.587,2.093c.507.141.285.556.257.81-.042.378.334.929-.276,1.124a1.908,1.908,0,0,0-1.567,2.063c-.011,2.333-.025,4.667.016,7a2.089,2.089,0,0,0,.43,1.353,1.8,1.8,0,0,1,.5,1.561c-.01.2,0,.4,0,.6,0,1.667.656,2.329,2.3,2.33h7.658q8.916,0,17.833,0a1.89,1.89,0,0,0,2.08-2.063c0-.529-.012-1.058.009-1.586a.687.687,0,0,1,.175-.469,2.033,2.033,0,0,0,.753-1.735q0-3.473,0-6.946a2.049,2.049,0,0,0-.742-1.738,4.167,4.167,0,0,1-.025-2.642,2.134,2.134,0,0,0,.769-1.838c0-2.26,0-4.521,0-6.782a1.934,1.934,0,0,0-2.214-2.207ZM3636.374-432.6h23.313v22.457h2.548v-22.463h23.285v3.8h2.567c0-1.07,0-2.1,0-3.126,0-2.382-.923-3.315-3.28-3.315H3662.19v-6.395h-2.568v6.395h-16.968c-2.019,0-4.038-.011-6.056,0a2.465,2.465,0,0,0-2.714,2.113c-.131,1.417-.03,2.855-.03,4.314h2.519Z" transform="translate(-3623.434 471)" fill="#fff"/>
      <path id="Trazado_189704" data-name="Trazado 189704" d="M3911.237-160.994v-2.566h2.616v-2.594c-1.217,0-2.417.012-3.615,0a3.777,3.777,0,0,1-3.7-2.268,5.124,5.124,0,0,1-.389-1.978c-.039-3.2-.031-6.408-.013-9.613a3.927,3.927,0,0,1,4.256-4.245q7.381-.027,14.762,0c2.69.01,4.254,1.614,4.259,4.316q.008,4.731,0,9.461a3.955,3.955,0,0,1-4.327,4.328c-1.106,0-2.212,0-3.369,0v2.561h2.552v2.6Zm15.59-11.672c0-2.474,0-4.864,0-7.255,0-1.289-.441-1.748-1.715-1.75q-7.336-.012-14.672,0c-1.281,0-1.716.449-1.721,1.743-.009,2.218,0,4.436,0,6.654,0,.195.034.39.055.608Zm-17.978,2.644-.172.166a6.814,6.814,0,0,0,.784.938,1.186,1.186,0,0,0,.72.175q7.608.013,15.216,0a1.044,1.044,0,0,0,.649-.156,11.086,11.086,0,0,0,.946-1.121Zm10.163,6.408v-2.479h-2.483v2.479Z" transform="translate(-3854.421 227.773)"/>
      <path id="Trazado_189705" data-name="Trazado 189705" d="M3570.542-161.078v-2.571h2.554v-2.589c-1.13,0-2.257.044-3.379-.016a6.018,6.018,0,0,1-2.056-.386,3.605,3.605,0,0,1-2.254-3.471c-.036-3.456-.042-6.914,0-10.37a3.774,3.774,0,0,1,3.936-3.844q7.683-.091,15.368,0a3.77,3.77,0,0,1,3.939,4q.087,5.032,0,10.067a3.872,3.872,0,0,1-4.167,4.019c-1.159.01-2.318,0-3.532,0v2.567h2.467v2.593Zm15.441-11.678a.939.939,0,0,0,.077-.242c.005-2.448.03-4.9,0-7.344-.013-1-.534-1.41-1.657-1.412q-7.384-.013-14.767,0c-1.226,0-1.656.471-1.66,1.729-.005,1.514,0,3.029,0,4.543v2.726Zm-.019,2.652h-17.9c.107.946.521,1.281,1.609,1.283q6.778.008,13.556,0c.5,0,1.012.027,1.514-.014A1.172,1.172,0,0,0,3585.964-170.1Zm-10.2,3.9v2.5h2.483v-2.5Z" transform="translate(-3565.376 227.857)"/>
      <path id="Trazado_189706" data-name="Trazado 189706" d="M3723.677-471h13.675a1.934,1.934,0,0,1,2.214,2.207c.006,2.261,0,4.521,0,6.782a2.134,2.134,0,0,1-.769,1.838,4.167,4.167,0,0,0,.024,2.642,2.049,2.049,0,0,1,.743,1.738q0,3.473,0,6.946a2.034,2.034,0,0,1-.753,1.735.686.686,0,0,0-.175.469c-.021.528,0,1.057-.009,1.586a1.89,1.89,0,0,1-2.08,2.063q-8.917,0-17.833,0h-7.658c-1.649,0-2.3-.663-2.3-2.33,0-.2-.008-.4,0-.6a1.8,1.8,0,0,0-.5-1.561,2.089,2.089,0,0,1-.43-1.353c-.041-2.333-.026-4.667-.016-7a1.908,1.908,0,0,1,1.567-2.063c.61-.2.234-.746.276-1.124.028-.254.25-.669-.257-.81a1.874,1.874,0,0,1-1.587-2.093c-.009-2.133,0-4.266,0-6.4,0-.291-.01-.585.017-.874a1.845,1.845,0,0,1,1.954-1.8c2.388-.01,4.777,0,7.166,0Zm13.987,1.89h-27.935v7.4h27.935Zm0,13.1H3709.73v7.388h27.936Zm-.924,9.329h-26.077v1.793h26.077Zm0-13.123h-24.5a.97.97,0,0,0-.378.013c-.119.055-.28.183-.286.288-.03.5-.013,1.007-.013,1.537h25.18Z" transform="translate(-3686.195 471)"/>
      <path id="Trazado_189707" data-name="Trazado 189707" d="M3636.374-268.466v3.786h-2.519c0-1.459-.1-2.9.03-4.314a2.465,2.465,0,0,1,2.714-2.113c2.019-.015,4.038,0,6.056,0h16.968v-6.395h2.568v6.395h22.616c2.357,0,3.279.933,3.28,3.315,0,1.028,0,2.056,0,3.126h-2.567v-3.8h-23.285v22.463h-2.548v-22.457Z" transform="translate(-3623.434 306.862)"/>
      <path id="Trazado_189708" data-name="Trazado 189708" d="M3941.339-158.152h-18.056c-.021-.218-.054-.413-.055-.608,0-2.218-.009-4.436,0-6.654.005-1.294.44-1.741,1.722-1.743q7.336-.012,14.672,0c1.274,0,1.712.462,1.715,1.75C3941.343-163.016,3941.339-160.625,3941.339-158.152Z" transform="translate(-3868.934 213.259)" fill="#b9ddfc"/>
      <path id="Trazado_189709" data-name="Trazado 189709" d="M3923.174-90.338h18.143a11.12,11.12,0,0,1-.946,1.121,1.045,1.045,0,0,1-.649.156q-7.608.013-15.216,0a1.189,1.189,0,0,1-.721-.175,6.846,6.846,0,0,1-.783-.938Z" transform="translate(-3868.746 148.089)" fill="#fff"/>
      <path id="Trazado_189710" data-name="Trazado 189710" d="M3977.241-61.96h-2.483v-2.479h2.483Z" transform="translate(-3912.65 126.12)" fill="#fff"/>
      <path id="Trazado_189711" data-name="Trazado 189711" d="M3600.485-158.159h-18.011v-2.726c0-1.514,0-3.029,0-4.543,0-1.258.435-1.726,1.66-1.729q7.384-.016,14.767,0c1.123,0,1.644.416,1.657,1.412.033,2.447.008,4.9,0,7.344A.951.951,0,0,1,3600.485-158.159Z" transform="translate(-3579.879 213.26)" fill="#b9ddfc"/>
      <path id="Trazado_189712" data-name="Trazado 189712" d="M3600.965-90.328a1.172,1.172,0,0,1-1.226,1.271c-.5.04-1.009.014-1.514.014q-6.778,0-13.556,0c-1.087,0-1.5-.337-1.609-1.283Z" transform="translate(-3580.378 148.081)" fill="#fff"/>
      <path id="Trazado_189713" data-name="Trazado 189713" d="M3633.856-64.607h2.483v2.5h-2.483Z" transform="translate(-3623.467 126.262)" fill="#fff"/>
      <path id="Trazado_189714" data-name="Trazado 189714" d="M3748.436-458.529v7.4H3720.5v-7.4Zm-6.5.918v0c-.93,0-1.861-.022-2.79.006a1.841,1.841,0,0,0-1.878,1.924c-.013.583-.015,1.167,0,1.75a1.843,1.843,0,0,0,1.851,1.906q2.816.052,5.634,0a1.812,1.812,0,0,0,1.835-1.853c.025-.582.02-1.167.007-1.75a1.842,1.842,0,0,0-1.98-1.984C3743.718-457.625,3742.824-457.611,3741.931-457.611Zm-19.591,2.773a2.8,2.8,0,0,0,2.751,2.823,2.841,2.841,0,0,0,2.838-2.809,2.8,2.8,0,0,0-2.8-2.778A2.768,2.768,0,0,0,3722.34-454.838Zm13.056.066c0-.6.012-1.2,0-1.8a.926.926,0,0,0-.953-1.025.916.916,0,0,0-.9,1.017q-.019,1.744,0,3.488a.963.963,0,0,0,.923,1.07.969.969,0,0,0,.934-1.063C3735.406-453.645,3735.4-454.208,3735.4-454.772Zm-5.59-.05c0,.6-.012,1.2,0,1.8a.936.936,0,0,0,.874,1,.913.913,0,0,0,.966-.907q.051-1.879,0-3.76a.89.89,0,0,0-.958-.9.9.9,0,0,0-.884.974C3729.792-456.021,3729.805-455.421,3729.806-454.821Z" transform="translate(-3696.967 460.421)" fill="#ffb30b"/>
      <path id="Trazado_189715" data-name="Trazado 189715" d="M3748.444-372.17v7.388h-27.936v-7.388ZM3727-365.7v0c.93,0,1.86.015,2.79,0a1.828,1.828,0,0,0,1.878-1.809,19.6,19.6,0,0,0,0-1.968,1.818,1.818,0,0,0-1.786-1.795q-2.87-.051-5.743,0a1.777,1.777,0,0,0-1.774,1.733c-.042.635-.039,1.276-.018,1.913a1.831,1.831,0,0,0,1.975,1.931C3725.209-365.691,3726.1-365.7,3727-365.7Zm16.774-.005a2.762,2.762,0,0,0,2.82-2.734,2.794,2.794,0,0,0-2.775-2.849,2.834,2.834,0,0,0-2.813,2.777A2.805,2.805,0,0,0,3743.77-365.706Zm-4.639-2.8v-1.635c0-.036,0-.073,0-.109a.958.958,0,0,0-.9-1.033.94.94,0,0,0-.953.984q-.033,1.8,0,3.6a.915.915,0,0,0,.933.993.913.913,0,0,0,.92-1C3739.142-367.307,3739.13-367.907,3739.131-368.506Zm-3.728.009c0-.563.007-1.127,0-1.69-.011-.674-.4-1.113-.952-1.1a.963.963,0,0,0-.906,1.085q-.014,1.717,0,3.434c.006.659.363,1.053.921,1.056s.922-.391.936-1.044C3735.413-367.334,3735.4-367.916,3735.4-368.5Z" transform="translate(-3696.973 387.164)" fill="#ffb30b"/>
      <path id="Trazado_189716" data-name="Trazado 189716" d="M3752.745-310.68v1.793h-26.077v-1.793Z" transform="translate(-3702.198 335.003)" fill="#ffb30b"/>
      <path id="Trazado_189717" data-name="Trazado 189717" d="M3757.715-397.254v1.837h-25.18c0-.53-.017-1.035.013-1.537.006-.1.167-.232.286-.287a.972.972,0,0,1,.378-.013h24.5Z" transform="translate(-3707.172 408.453)" fill="#ffb30b"/>
      <path id="Trazado_189718" data-name="Trazado 189718" d="M3835.6-452.506c.893,0,1.787-.014,2.68,0a1.842,1.842,0,0,1,1.98,1.984c.013.583.018,1.167-.007,1.75a1.812,1.812,0,0,1-1.835,1.853q-2.816.051-5.634,0a1.844,1.844,0,0,1-1.852-1.906c-.016-.583-.014-1.167,0-1.75a1.841,1.841,0,0,1,1.878-1.924c.929-.028,1.86-.006,2.79-.006Zm2.768,1.916h-5.538v1.782h5.538Z" transform="translate(-3790.635 455.316)"/>
      <path id="Trazado_189719" data-name="Trazado 189719" d="M3732.625-449.652a2.768,2.768,0,0,1,2.793-2.764,2.8,2.8,0,0,1,2.8,2.778,2.841,2.841,0,0,1-2.838,2.809A2.8,2.8,0,0,1,3732.625-449.652Zm3.7.006a.913.913,0,0,0-.962-.9.894.894,0,0,0-.869.927.919.919,0,0,0,.9.907A.933.933,0,0,0,3736.329-449.646Z" transform="translate(-3707.251 455.235)"/>
      <path id="Trazado_189720" data-name="Trazado 189720" d="M3808.235-449.552c0,.563.01,1.127,0,1.689a.969.969,0,0,1-.934,1.063.963.963,0,0,1-.923-1.07q-.015-1.744,0-3.488a.916.916,0,0,1,.9-1.017.926.926,0,0,1,.953,1.025C3808.247-450.751,3808.235-450.151,3808.235-449.552Z" transform="translate(-3769.806 455.201)"/>
      <path id="Trazado_189721" data-name="Trazado 189721" d="M3781.8-449.6c0-.6-.013-1.2,0-1.8a.9.9,0,0,1,.884-.974.891.891,0,0,1,.958.9q.047,1.879,0,3.76a.914.914,0,0,1-.966.907.936.936,0,0,1-.874-1C3781.792-448.4,3781.8-449,3781.8-449.6Z" transform="translate(-3748.965 455.195)"/>
      <path id="Trazado_189722" data-name="Trazado 189722" d="M3737.156-360.856c-.894,0-1.787.009-2.68,0a1.83,1.83,0,0,1-1.975-1.931c-.021-.637-.024-1.278.018-1.913a1.777,1.777,0,0,1,1.774-1.733q2.871-.047,5.743,0a1.818,1.818,0,0,1,1.786,1.795,19.6,19.6,0,0,1,0,1.968,1.828,1.828,0,0,1-1.878,1.809c-.929.019-1.86,0-2.79,0Zm-2.773-1.909h5.543v-1.775h-5.543Z" transform="translate(-3707.133 382.319)"/>
      <path id="Trazado_189723" data-name="Trazado 189723" d="M3858.358-360.781a2.805,2.805,0,0,1-2.767-2.807,2.835,2.835,0,0,1,2.813-2.777,2.794,2.794,0,0,1,2.775,2.849A2.762,2.762,0,0,1,3858.358-360.781Zm.048-3.712a.967.967,0,0,0-.937.889.934.934,0,0,0,.914.955.9.9,0,0,0,.923-.878A.926.926,0,0,0,3858.406-364.493Z" transform="translate(-3811.562 382.24)"/>
      <path id="Trazado_189724" data-name="Trazado 189724" d="M3832.789-363.552c0,.6.011,1.2,0,1.8a.913.913,0,0,1-.92,1,.916.916,0,0,1-.933-.993q-.029-1.8,0-3.6a.94.94,0,0,1,.953-.984.959.959,0,0,1,.9,1.033c0,.036,0,.073,0,.109Q3832.79-364.37,3832.789-363.552Z" transform="translate(-3790.631 382.21)"/>
      <path id="Trazado_189725" data-name="Trazado 189725" d="M3808.239-363.546c0,.581.01,1.163,0,1.744-.015.654-.378,1.048-.936,1.044s-.915-.4-.921-1.056q-.015-1.717,0-3.434a.963.963,0,0,1,.906-1.085c.553-.016.941.423.952,1.1C3808.247-364.672,3808.24-364.109,3808.239-363.546Z" transform="translate(-3769.81 382.212)"/>
      <path id="Trazado_189726" data-name="Trazado 189726" d="M3849.032-439.849v1.782h-5.538v-1.782Z" transform="translate(-3801.3 444.575)" fill="#b9ddfc"/>
      <path id="Trazado_189727" data-name="Trazado 189727" d="M3746.806-439.173a.933.933,0,0,1-.931.937.918.918,0,0,1-.9-.907.894.894,0,0,1,.869-.926A.913.913,0,0,1,3746.806-439.173Z" transform="translate(-3717.728 444.763)" fill="#b9ddfc"/>
      <path id="Trazado_189728" data-name="Trazado 189728" d="M3744.991-352.036v-1.776h5.543v1.776Z" transform="translate(-3717.741 371.591)" fill="#b9ddfc"/>
      <path id="Trazado_189729" data-name="Trazado 189729" d="M3868.9-354.027a.925.925,0,0,1,.9.965.9.9,0,0,1-.923.878.934.934,0,0,1-.914-.955A.967.967,0,0,1,3868.9-354.027Z" transform="translate(-3822.059 371.774)" fill="#b9ddfc"/>
    </g>
    <g id="Grupo_129006" data-name="Grupo 129006" transform="translate(275.445 3158.143)">
      <path id="Trazado_189730" data-name="Trazado 189730" d="M3706.262-54.8a1.636,1.636,0,0,1,.847,1.581c-.018,3.225-.008,6.45-.008,9.676v.521c.637.068,1.253.1,1.856.2a8.229,8.229,0,0,1,6.881,7.935c.063,5.318.025,10.637.021,15.955a1.36,1.36,0,0,1-1.471,1.444c-1.644.009-3.288,0-4.932,0h-.573v.573q0,3.977,0,7.954c0,1.2-.5,1.7-1.687,1.7h-24.286a1.46,1.46,0,0,1-1.675-1.68q0-4,0-8v-.549h-.543c-1.784,0-3.567,0-5.351,0a1.408,1.408,0,0,1-1.556-1.556c0-5.163-.018-10.327,0-15.49a8.364,8.364,0,0,1,8.453-8.439c.243,0,.487,0,.78,0v-.6c0-3.179.01-6.357-.008-9.536a1.809,1.809,0,0,1,.821-1.7Zm-25.053,27.531c-.629,0-1.231.022-1.832-.005A1.406,1.406,0,0,1,3678-28.687a1.4,1.4,0,0,1,1.414-1.373c.139-.005.279,0,.419,0h30.479c.186,0,.373,0,.558.012a1.376,1.376,0,0,1,1.177,1.828,1.414,1.414,0,0,1-1.442.957c-.565.008-1.131,0-1.692,0v6.952h4.14c.006-.129.014-.221.014-.314q0-6.955,0-13.911a5.108,5.108,0,0,0-.053-.834,5.547,5.547,0,0,0-5.677-4.8q-12.517-.014-25.034,0a6.174,6.174,0,0,0-1.292.132,5.511,5.511,0,0,0-4.423,5.423c-.023,4.668-.007,9.336-.006,14a2.628,2.628,0,0,0,.036.308h4.594Zm24.858.029h-22.008v17.163h22.008ZM3685.845-43h18.423v-9.068h-18.423Z" transform="translate(-3673.775 54.798)"/>
      <path id="Trazado_189731" data-name="Trazado 189731" d="M3696.847,54.508v6.97h-4.595a2.577,2.577,0,0,1-.036-.308c0-4.668-.018-9.336.006-14a5.51,5.51,0,0,1,4.423-5.423,6.177,6.177,0,0,1,1.292-.132q12.517-.011,25.034,0a5.547,5.547,0,0,1,5.677,4.8,5.054,5.054,0,0,1,.053.834q0,6.955,0,13.911c0,.093-.008.185-.014.314h-4.14V54.512c.561,0,1.126.006,1.692,0a1.414,1.414,0,0,0,1.442-.957,1.376,1.376,0,0,0-1.177-1.828c-.185-.017-.372-.012-.558-.012h-30.479c-.14,0-.279,0-.419,0a1.393,1.393,0,1,0-.035,2.787C3695.615,54.53,3696.217,54.508,3696.847,54.508Zm13.6-11.522a3.8,3.8,0,1,0,3.822,3.768A3.847,3.847,0,0,0,3710.442,42.986Zm-9.376,5.2c.65,0,1.3.009,1.951,0a1.4,1.4,0,0,0,1.483-1.391,1.376,1.376,0,0,0-1.466-1.4q-1.928-.015-3.855,0a1.379,1.379,0,0,0-1.483,1.382,1.393,1.393,0,0,0,1.465,1.408C3699.8,48.2,3700.431,48.188,3701.066,48.188Zm18.885-2.8H3718a1.4,1.4,0,1,0-.037,2.789q1.973.025,3.947,0a1.394,1.394,0,1,0-.009-2.787C3721.252,45.385,3720.6,45.394,3719.951,45.393Z" transform="translate(-3689.412 -26.978)" fill="#084a93"/>
      <path id="Trazado_189732" data-name="Trazado 189732" d="M3763.566,126.856v17.163h-22.008V126.856Zm-10.987,15.335c2.309,0,4.617,0,6.925,0a1.4,1.4,0,1,0-.033-2.791q-5.717-.005-11.434,0c-.852,0-1.7-.015-2.556.007a1.381,1.381,0,0,0-1.35,1.637,1.4,1.4,0,0,0,1.475,1.149C3747.932,142.2,3750.256,142.191,3752.58,142.191Zm.014-8.386h-1.4c-1.877,0-3.753-.007-5.63,0a1.375,1.375,0,0,0-1.443,1.554,1.431,1.431,0,0,0,1.591,1.236q6.84,0,13.68,0a2.377,2.377,0,0,0,.508-.043,1.39,1.39,0,0,0-.377-2.748C3757.215,133.8,3754.9,133.806,3752.594,133.805Zm.147-2.737q2.233,0,4.466,0c.9,0,1.8.016,2.7-.024a1.322,1.322,0,0,0,1.263-1.305,1.355,1.355,0,0,0-1.18-1.433,3.9,3.9,0,0,0-.6-.036q-6.653,0-13.305,0a3.88,3.88,0,0,0-.694.05,1.339,1.339,0,0,0-1.1,1.265,1.391,1.391,0,0,0,1.571,1.482C3748.15,131.073,3750.445,131.068,3752.74,131.068Z" transform="translate(-3731.274 -99.297)" fill="#ffb30b"/>
      <path id="Trazado_189733" data-name="Trazado 189733" d="M3753.334-27.754v-9.068h18.423v9.068Z" transform="translate(-3741.264 39.549)" fill="#b9ddfc"/>
      <path id="Trazado_189734" data-name="Trazado 189734" d="M3791.236,50.718a3.8,3.8,0,1,1-3.783,3.81A3.839,3.839,0,0,1,3791.236,50.718Zm0,2.8a1,1,0,0,0,.044,1.994,1,1,0,1,0-.044-1.994Z" transform="translate(-3770.207 -34.71)"/>
      <path id="Trazado_189735" data-name="Trazado 189735" d="M3731.743,69.356c-.635,0-1.27.01-1.9,0a1.393,1.393,0,0,1-1.465-1.408,1.379,1.379,0,0,1,1.483-1.382q1.927-.013,3.855,0a1.376,1.376,0,0,1,1.466,1.4,1.4,1.4,0,0,1-1.483,1.391C3733.044,69.365,3732.393,69.356,3731.743,69.356Z" transform="translate(-3720.09 -48.146)"/>
      <path id="Trazado_189736" data-name="Trazado 189736" d="M3855.887,66.571c.65,0,1.3-.009,1.95,0a1.394,1.394,0,1,1,.009,2.787q-1.973.026-3.947,0a1.4,1.4,0,1,1,.037-2.789h1.95Z" transform="translate(-3825.348 -48.155)"/>
      <path id="Trazado_189737" data-name="Trazado 189737" d="M3766.855,212.284c-2.324,0-4.648,0-6.972,0a1.4,1.4,0,0,1-1.476-1.149,1.381,1.381,0,0,1,1.35-1.637c.852-.022,1.7-.007,2.556-.007q5.717,0,11.434,0a1.4,1.4,0,1,1,.033,2.791C3771.472,212.288,3769.164,212.284,3766.855,212.284Z" transform="translate(-3745.55 -169.389)"/>
      <path id="Trazado_189738" data-name="Trazado 189738" d="M3766.9,172.65c2.311,0,4.622,0,6.933,0a1.39,1.39,0,0,1,.377,2.748,2.372,2.372,0,0,1-.508.043q-6.84,0-13.68,0a1.431,1.431,0,0,1-1.591-1.236,1.375,1.375,0,0,1,1.443-1.554c1.876-.012,3.753,0,5.63,0Z" transform="translate(-3745.578 -138.141)"/>
      <path id="Trazado_189739" data-name="Trazado 189739" d="M3767.968,138.956c-2.295,0-4.59,0-6.885,0a1.391,1.391,0,0,1-1.571-1.482,1.339,1.339,0,0,1,1.1-1.265,3.883,3.883,0,0,1,.694-.05q6.652,0,13.305,0a3.912,3.912,0,0,1,.6.036,1.355,1.355,0,0,1,1.179,1.433,1.321,1.321,0,0,1-1.262,1.305c-.9.041-1.8.023-2.7.024Q3770.2,138.959,3767.968,138.956Z" transform="translate(-3746.502 -107.185)"/>
      <path id="Trazado_189740" data-name="Trazado 189740" d="M3806.97,69.192a1,1,0,1,1,.044,1.994,1,1,0,0,1-.044-1.994Z" transform="translate(-3785.939 -50.381)" fill="#ffb30b"/>
    </g>
  </g>
</svg>
