<svg xmlns="http://www.w3.org/2000/svg" width="669" height="314" viewBox="0 0 669 314">
  <g id="_4" data-name="4" transform="translate(-673.5 -2510.5)">
    <path id="Path_192354" data-name="Path 192354" d="M20,0H647a20,20,0,0,1,20,20V292a20,20,0,0,1-20,20H20A20,20,0,0,1,0,292V20A20,20,0,0,1,20,0Z" transform="translate(674.5 2511.5)" fill="none" stroke="#084a93" stroke-linecap="round" stroke-width="2" stroke-dasharray="10 10"/>
    <path id="Path_192355" data-name="Path 192355" d="M10,0H338.535a10,10,0,0,1,10,10V36.777a10,10,0,0,1-10,10H10a10,10,0,0,1-10-10V10A10,10,0,0,1,10,0Z" transform="translate(833.862 2642.319)" fill="#ffb30b"/>
    <path id="Path_192356" data-name="Path 192356" d="M-39.669-8.49a2.964,2.964,0,0,1,2.426-1.2,2.956,2.956,0,0,1,2.373.932A4.186,4.186,0,0,1-34.053-6V0h-2.971V-5.933a1.674,1.674,0,0,0-.308-1.112A1.322,1.322,0,0,0-38.377-7.4a1.424,1.424,0,0,0-1.292.58V0h-2.962V-13.5h2.962ZM-28.6-4.148l1.582-5.361h3.173l-3.876,11.1-.167.4A2.944,2.944,0,0,1-30.81,3.841a4.642,4.642,0,0,1-1.222-.175V1.556h.387a2.026,2.026,0,0,0,.954-.18A1.094,1.094,0,0,0-30.2.729L-29.966.1l-3.3-9.605h3.164Zm14.353-.536a5.735,5.735,0,0,1-1,3.538A3.2,3.2,0,0,1-17.943.176,2.742,2.742,0,0,1-20.1-.782V3.656h-2.962V-9.51h2.769l.088.879A2.742,2.742,0,0,1-17.96-9.686a3.224,3.224,0,0,1,2.733,1.3,5.805,5.805,0,0,1,.976,3.564Zm-2.962-.185q0-2.531-1.477-2.531a1.394,1.394,0,0,0-1.406.756V-2.9a1.439,1.439,0,0,0,1.424.791q1.415,0,1.459-2.443ZM-8.345.176a4.889,4.889,0,0,1-3.542-1.305,4.507,4.507,0,0,1-1.354-3.4v-.246A5.84,5.84,0,0,1-12.7-7.348a3.955,3.955,0,0,1,1.578-1.727,4.763,4.763,0,0,1,2.461-.611A4.117,4.117,0,0,1-5.5-8.442a4.887,4.887,0,0,1,1.16,3.467v1.151h-5.889a2.135,2.135,0,0,0,.694,1.257,2.066,2.066,0,0,0,1.389.457,2.662,2.662,0,0,0,2.2-.984l1.354,1.6A3.784,3.784,0,0,1-6.161-.277,5.3,5.3,0,0,1-8.345.176ZM-8.679-7.4q-1.3,0-1.547,1.723h2.988v-.229a1.467,1.467,0,0,0-.36-1.1A1.434,1.434,0,0,0-8.679-7.4Zm11.285.571L1.63-6.9a1.752,1.752,0,0,0-1.793.879V0H-3.125V-9.51H-.347l.1,1.222a2.294,2.294,0,0,1,2.083-1.4,2.888,2.888,0,0,1,.826.105Zm5.019,3.3,1.5-5.985h3.12L9.145,0H6.122l-3.1-9.51H6.148ZM16.255,0H13.285V-9.51h2.971ZM13.109-11.962A1.322,1.322,0,0,1,13.566-13a1.724,1.724,0,0,1,1.187-.4,1.724,1.724,0,0,1,1.187.4,1.322,1.322,0,0,1,.457,1.037,1.322,1.322,0,0,1-.457,1.037,1.724,1.724,0,0,1-1.187.4,1.724,1.724,0,0,1-1.187-.4A1.322,1.322,0,0,1,13.109-11.962Zm9.949,9.29a.684.684,0,0,0-.4-.606,6.016,6.016,0,0,0-1.5-.475A6.853,6.853,0,0,1,19.332-4.4a3.062,3.062,0,0,1-1.1-.971,2.319,2.319,0,0,1-.378-1.31,2.628,2.628,0,0,1,1.081-2.158,4.453,4.453,0,0,1,2.83-.848,4.934,4.934,0,0,1,3.023.853,2.666,2.666,0,0,1,1.143,2.241H22.961q0-1.143-1.2-1.143a1.194,1.194,0,0,0-.782.259.8.8,0,0,0-.316.646.737.737,0,0,0,.387.642,3.654,3.654,0,0,0,1.235.4,10.671,10.671,0,0,1,1.49.378A2.706,2.706,0,0,1,25.915-2.76,2.491,2.491,0,0,1,24.759-.642a5.068,5.068,0,0,1-2.993.817,5.172,5.172,0,0,1-2.18-.439,3.645,3.645,0,0,1-1.494-1.2,2.707,2.707,0,0,1-.536-1.591h2.769a1.145,1.145,0,0,0,.439.962,1.808,1.808,0,0,0,1.081.3,1.422,1.422,0,0,0,.91-.246A.787.787,0,0,0,23.058-2.672Zm3.867-2.171a5.613,5.613,0,0,1,.554-2.536A3.96,3.96,0,0,1,29.07-9.088a4.791,4.791,0,0,1,2.435-.6,4.373,4.373,0,0,1,3.366,1.323,5.076,5.076,0,0,1,1.23,3.6v.105a4.925,4.925,0,0,1-1.235,3.529A4.384,4.384,0,0,1,31.522.176a4.434,4.434,0,0,1-3.261-1.217,4.761,4.761,0,0,1-1.327-3.3Zm2.962.185A3.538,3.538,0,0,0,30.3-2.725a1.376,1.376,0,0,0,1.222.615q1.582,0,1.617-2.435v-.3Q33.139-7.4,31.5-7.4q-1.485,0-1.608,2.206ZM43.159-6.829l-.976-.07a1.752,1.752,0,0,0-1.793.879V0H37.428V-9.51h2.777l.1,1.222a2.294,2.294,0,0,1,2.083-1.4,2.888,2.888,0,0,1,.826.105Z" transform="translate(1008.13 2670.969)" fill="#12263f"/>
    <path id="Path_190427" data-name="Path 190427" d="M-1406.374,5139.429c-.428-.987-.9-4.954-1.361-5.929v-21.8a40.775,40.775,0,0,1,1.415-4.59c3.295-7.543,6.736-15.023,9.986-22.584,1.139-2.65,2.693-4.645,5.555-5.417h78.834c2.865.772,4.419,2.771,5.557,5.424,3.22,7.5,6.591,14.945,9.926,22.4a16.434,16.434,0,0,1,1.476,6.818q-.015,9.135,0,18.269c.005,1.554-.383,5.956-1.247,7.254Zm4.426-31.318h101.136c-.125-.32-.207-.556-.308-.784q-4.9-11.048-9.8-22.1a2.725,2.725,0,0,0-2.857-1.731q-37.586.033-75.172,0a2.846,2.846,0,0,0-2.95,1.931c-2.73,6.242-5.522,12.457-8.289,18.682C-1400.764,5105.406-1401.331,5106.708-1401.948,5108.111Zm-1.322,4.5c-.024.459-.058.819-.058,1.179q-.006,9.079,0,18.16c0,1.868.8,2.651,2.709,2.651q49.254,0,98.508,0c1.941,0,2.714-.788,2.716-2.756q.006-9.025,0-18.051c0-.387-.038-.775-.059-1.183Z" transform="translate(2359.488 -2363.37)" fill="#084a93"/>
    <path id="Path_190428" data-name="Path 190428" d="M-1401.948,5108.111c.617-1.4,1.184-2.705,1.762-4,2.767-6.225,5.559-12.44,8.289-18.682a2.846,2.846,0,0,1,2.95-1.931q37.586.04,75.172,0a2.725,2.725,0,0,1,2.857,1.731q4.87,11.063,9.8,22.1c.1.228.183.464.308.784Z" transform="translate(2359.488 -2363.37)" fill="#fff"/>
    <path id="Path_190429" data-name="Path 190429" d="M-1403.27,5112.609h103.815c.021.408.058.8.059,1.183q0,9.026,0,18.051c0,1.968-.775,2.756-2.716,2.756q-49.254,0-98.508,0c-1.906,0-2.707-.783-2.709-2.651q-.01-9.08,0-18.16C-1403.328,5113.428-1403.294,5113.068-1403.27,5112.609Zm95.064,11.022a6.622,6.622,0,0,0-6.534-6.643,6.618,6.618,0,0,0-6.671,6.505,6.624,6.624,0,0,0,6.588,6.7A6.627,6.627,0,0,0-1308.206,5123.631Zm-79.714-2.242c-1.391,0-2.781-.015-4.171,0a2.227,2.227,0,0,0-2.424,2.144,2.226,2.226,0,0,0,2.431,2.249q4.17.027,8.341,0a2.223,2.223,0,0,0,2.424-2.145,2.233,2.233,0,0,0-2.431-2.249C-1385.14,5121.374-1386.53,5121.389-1387.92,5121.389Zm17.618,0c-1.391,0-2.781-.015-4.171,0a2.227,2.227,0,0,0-2.425,2.143,2.225,2.225,0,0,0,2.428,2.25q4.172.027,8.341,0a2.225,2.225,0,0,0,2.426-2.144,2.233,2.233,0,0,0-2.429-2.25C-1367.522,5121.374-1368.912,5121.389-1370.3,5121.389Zm15.408,2.205a2.22,2.22,0,0,0-2.135-2.2,2.213,2.213,0,0,0-2.252,2.188,2.219,2.219,0,0,0,2.133,2.2A2.221,2.221,0,0,0-1354.894,5123.594Z" transform="translate(2359.488 -2363.37)" fill="#fff"/>
    <path id="Path_190430" data-name="Path 190430" d="M-1308.206,5123.631a6.627,6.627,0,0,1-6.617,6.563,6.624,6.624,0,0,1-6.588-6.7,6.618,6.618,0,0,1,6.671-6.505A6.622,6.622,0,0,1-1308.206,5123.631Zm-6.562-2.234a2.22,2.22,0,0,0-2.233,2.1,2.221,2.221,0,0,0,2.151,2.29,2.221,2.221,0,0,0,2.235-2.209A2.219,2.219,0,0,0-1314.768,5121.4Z" transform="translate(2359.488 -2363.37)" fill="#084a93"/>
    <path id="Path_190431" data-name="Path 190431" d="M-1387.92,5121.389c1.39,0,2.78-.015,4.17,0a2.233,2.233,0,0,1,2.431,2.249,2.223,2.223,0,0,1-2.424,2.145q-4.172.027-8.341,0a2.226,2.226,0,0,1-2.431-2.249,2.227,2.227,0,0,1,2.424-2.144C-1390.7,5121.374-1389.311,5121.389-1387.92,5121.389Z" transform="translate(2359.488 -2363.37)" fill="#084a93"/>
    <path id="Path_190432" data-name="Path 190432" d="M-1370.3,5121.389c1.39,0,2.78-.015,4.17,0a2.233,2.233,0,0,1,2.429,2.25,2.225,2.225,0,0,1-2.426,2.144q-4.17.027-8.341,0a2.225,2.225,0,0,1-2.428-2.25,2.227,2.227,0,0,1,2.425-2.143C-1373.083,5121.374-1371.693,5121.389-1370.3,5121.389Z" transform="translate(2359.488 -2363.37)" fill="#084a93"/>
    <path id="Path_190433" data-name="Path 190433" d="M-1354.894,5123.594a2.221,2.221,0,0,1-2.254,2.19,2.219,2.219,0,0,1-2.133-2.2,2.213,2.213,0,0,1,2.252-2.188A2.22,2.22,0,0,1-1354.894,5123.594Z" transform="translate(2359.488 -2363.37)" fill="#084a93"/>
    <path id="Path_190434" data-name="Path 190434" d="M-1314.768,5121.4a2.219,2.219,0,0,1,2.153,2.179,2.221,2.221,0,0,1-2.235,2.209,2.221,2.221,0,0,1-2.151-2.29A2.22,2.22,0,0,1-1314.768,5121.4Z" transform="translate(2359.488 -2363.37)" fill="#fff"/>
    <path id="Path_190435" data-name="Path 190435" d="M-1406.374,4981.69c-.428-.988-.9-4.955-1.361-5.929v-21.8a40.813,40.813,0,0,1,1.415-4.589c3.295-7.543,6.736-15.023,9.986-22.585,1.139-2.649,2.693-4.645,5.555-5.416h78.834c2.865.772,4.419,2.77,5.557,5.423,3.22,7.5,6.591,14.945,9.926,22.4a16.44,16.44,0,0,1,1.476,6.819q-.015,9.133,0,18.269c.005,1.553-.383,5.955-1.247,7.254Zm4.426-31.319h101.136c-.125-.32-.207-.556-.308-.784q-4.9-11.047-9.8-22.1a2.723,2.723,0,0,0-2.857-1.73q-37.586.033-75.172,0a2.847,2.847,0,0,0-2.95,1.932c-2.73,6.241-5.522,12.456-8.289,18.682C-1400.764,4947.666-1401.331,4948.969-1401.948,4950.371Zm-1.322,4.5c-.024.459-.058.818-.058,1.178q-.006,9.081,0,18.161c0,1.867.8,2.651,2.709,2.651q49.254,0,98.508,0c1.941,0,2.714-.788,2.716-2.757q.006-9.026,0-18.05c0-.388-.038-.775-.059-1.183Z" transform="translate(2359.488 -2363.37)" fill="#084a93"/>
    <path id="Path_190436" data-name="Path 190436" d="M-1401.948,4950.371c.617-1.4,1.184-2.705,1.762-4,2.767-6.226,5.559-12.441,8.289-18.682a2.847,2.847,0,0,1,2.95-1.932q37.586.042,75.172,0a2.723,2.723,0,0,1,2.857,1.73q4.87,11.063,9.8,22.1c.1.228.183.464.308.784Z" transform="translate(2359.488 -2363.37)" fill="#fff"/>
    <path id="Path_190437" data-name="Path 190437" d="M-1403.27,4954.87h103.815c.021.408.058.795.059,1.183q0,9.025,0,18.05c0,1.969-.775,2.757-2.716,2.757q-49.254,0-98.508,0c-1.906,0-2.707-.784-2.709-2.651q-.01-9.081,0-18.161C-1403.328,4955.688-1403.294,4955.329-1403.27,4954.87Zm95.064,11.021a6.621,6.621,0,0,0-6.534-6.643,6.618,6.618,0,0,0-6.671,6.5,6.623,6.623,0,0,0,6.588,6.7A6.628,6.628,0,0,0-1308.206,4965.891Zm-79.714-2.241c-1.391,0-2.781-.015-4.171,0a2.228,2.228,0,0,0-2.424,2.145,2.225,2.225,0,0,0,2.431,2.248q4.17.029,8.341,0a2.222,2.222,0,0,0,2.424-2.145,2.232,2.232,0,0,0-2.431-2.248C-1385.14,4963.635-1386.53,4963.65-1387.92,4963.65Zm17.618,0c-1.391,0-2.781-.015-4.171,0a2.227,2.227,0,0,0-2.425,2.143,2.224,2.224,0,0,0,2.428,2.25q4.172.029,8.341,0a2.224,2.224,0,0,0,2.426-2.143,2.232,2.232,0,0,0-2.429-2.25C-1367.522,4963.635-1368.912,4963.65-1370.3,4963.65Zm15.408,2.205a2.221,2.221,0,0,0-2.135-2.2,2.213,2.213,0,0,0-2.252,2.188,2.22,2.22,0,0,0,2.133,2.2A2.221,2.221,0,0,0-1354.894,4965.855Z" transform="translate(2359.488 -2363.37)" fill="#fff"/>
    <path id="Path_190438" data-name="Path 190438" d="M-1308.206,4965.891a6.628,6.628,0,0,1-6.617,6.563,6.623,6.623,0,0,1-6.588-6.7,6.618,6.618,0,0,1,6.671-6.5A6.621,6.621,0,0,1-1308.206,4965.891Zm-6.562-2.234a2.22,2.22,0,0,0-2.233,2.1,2.22,2.22,0,0,0,2.151,2.29,2.22,2.22,0,0,0,2.235-2.209A2.22,2.22,0,0,0-1314.768,4963.657Z" transform="translate(2359.488 -2363.37)" fill="#084a93"/>
    <path id="Path_190439" data-name="Path 190439" d="M-1387.92,4963.65c1.39,0,2.78-.015,4.17,0a2.232,2.232,0,0,1,2.431,2.248,2.222,2.222,0,0,1-2.424,2.145q-4.172.027-8.341,0a2.225,2.225,0,0,1-2.431-2.248,2.228,2.228,0,0,1,2.424-2.145C-1390.7,4963.635-1389.311,4963.65-1387.92,4963.65Z" transform="translate(2359.488 -2363.37)" fill="#084a93"/>
    <path id="Path_190440" data-name="Path 190440" d="M-1370.3,4963.65c1.39,0,2.78-.015,4.17,0a2.232,2.232,0,0,1,2.429,2.25,2.224,2.224,0,0,1-2.426,2.143q-4.17.027-8.341,0a2.224,2.224,0,0,1-2.428-2.25,2.227,2.227,0,0,1,2.425-2.143C-1373.083,4963.635-1371.693,4963.65-1370.3,4963.65Z" transform="translate(2359.488 -2363.37)" fill="#084a93"/>
    <path id="Path_190441" data-name="Path 190441" d="M-1354.894,4965.855a2.221,2.221,0,0,1-2.254,2.19,2.22,2.22,0,0,1-2.133-2.2,2.213,2.213,0,0,1,2.252-2.188A2.221,2.221,0,0,1-1354.894,4965.855Z" transform="translate(2359.488 -2363.37)" fill="#084a93"/>
    <path id="Path_190442" data-name="Path 190442" d="M-1314.768,4963.657a2.22,2.22,0,0,1,2.153,2.179,2.22,2.22,0,0,1-2.235,2.209,2.22,2.22,0,0,1-2.151-2.29A2.22,2.22,0,0,1-1314.768,4963.657Z" transform="translate(2359.488 -2363.37)" fill="#fff"/>
    <path id="Path_190443" data-name="Path 190443" d="M-1269.622,4981.69c-.427-.988-.9-4.955-1.361-5.929v-21.8a41.045,41.045,0,0,1,1.416-4.589c3.3-7.543,6.735-15.023,9.986-22.585,1.139-2.649,2.692-4.645,5.554-5.416h78.834c2.866.772,4.419,2.77,5.557,5.423,3.22,7.5,6.592,14.945,9.927,22.4a16.422,16.422,0,0,1,1.475,6.819q-.015,9.133,0,18.269c0,1.553-.383,5.955-1.247,7.254Zm4.427-31.319h101.136c-.126-.32-.207-.556-.308-.784q-4.9-11.047-9.8-22.1a2.725,2.725,0,0,0-2.857-1.73q-37.587.033-75.173,0a2.847,2.847,0,0,0-2.949,1.932c-2.73,6.241-5.522,12.456-8.29,18.682C-1264.011,4947.666-1264.579,4948.969-1265.195,4950.371Zm-1.323,4.5c-.023.459-.058.818-.058,1.178q0,9.081,0,18.161c0,1.867.8,2.651,2.709,2.651q49.254,0,98.508,0c1.942,0,2.715-.788,2.716-2.757q.008-9.026,0-18.05c0-.388-.038-.775-.059-1.183Z" transform="translate(2359.488 -2363.37)" fill="#084a93"/>
    <path id="Path_190444" data-name="Path 190444" d="M-1265.195,4950.371c.616-1.4,1.184-2.705,1.761-4,2.768-6.226,5.56-12.441,8.29-18.682a2.847,2.847,0,0,1,2.949-1.932q37.587.042,75.173,0a2.725,2.725,0,0,1,2.857,1.73q4.871,11.063,9.8,22.1c.1.228.182.464.308.784Z" transform="translate(2359.488 -2363.37)" fill="#fff"/>
    <path id="Path_190445" data-name="Path 190445" d="M-1266.518,4954.87H-1162.7c.021.408.059.795.059,1.183q.006,9.025,0,18.05c0,1.969-.774,2.757-2.716,2.757q-49.254,0-98.508,0c-1.905,0-2.707-.784-2.709-2.651q-.009-9.081,0-18.161C-1266.576,4955.688-1266.541,4955.329-1266.518,4954.87Zm95.065,11.021a6.622,6.622,0,0,0-6.535-6.643,6.617,6.617,0,0,0-6.67,6.5,6.623,6.623,0,0,0,6.588,6.7A6.628,6.628,0,0,0-1171.453,4965.891Zm-79.715-2.241c-1.39,0-2.781-.015-4.17,0a2.228,2.228,0,0,0-2.424,2.145,2.224,2.224,0,0,0,2.43,2.248q4.17.029,8.341,0a2.222,2.222,0,0,0,2.424-2.145,2.232,2.232,0,0,0-2.431-2.248C-1248.387,4963.635-1249.778,4963.65-1251.168,4963.65Zm17.618,0c-1.39,0-2.78-.015-4.17,0a2.228,2.228,0,0,0-2.426,2.143,2.225,2.225,0,0,0,2.429,2.25q4.17.029,8.341,0a2.225,2.225,0,0,0,2.426-2.143,2.232,2.232,0,0,0-2.429-2.25C-1230.769,4963.635-1232.16,4963.65-1233.55,4963.65Zm15.408,2.205a2.22,2.22,0,0,0-2.135-2.2,2.214,2.214,0,0,0-2.252,2.188,2.22,2.22,0,0,0,2.134,2.2A2.22,2.22,0,0,0-1218.142,4965.855Z" transform="translate(2359.488 -2363.37)" fill="#fff"/>
    <path id="Path_190446" data-name="Path 190446" d="M-1171.453,4965.891a6.628,6.628,0,0,1-6.617,6.563,6.623,6.623,0,0,1-6.588-6.7,6.617,6.617,0,0,1,6.67-6.5A6.622,6.622,0,0,1-1171.453,4965.891Zm-6.562-2.234a2.221,2.221,0,0,0-2.234,2.1,2.22,2.22,0,0,0,2.152,2.29,2.221,2.221,0,0,0,2.235-2.209A2.22,2.22,0,0,0-1178.015,4963.657Z" transform="translate(2359.488 -2363.37)" fill="#084a93"/>
    <path id="Path_190447" data-name="Path 190447" d="M-1251.168,4963.65c1.39,0,2.781-.015,4.17,0a2.232,2.232,0,0,1,2.431,2.248,2.222,2.222,0,0,1-2.424,2.145q-4.17.027-8.341,0a2.224,2.224,0,0,1-2.43-2.248,2.228,2.228,0,0,1,2.424-2.145C-1253.949,4963.635-1252.558,4963.65-1251.168,4963.65Z" transform="translate(2359.488 -2363.37)" fill="#084a93"/>
    <path id="Path_190448" data-name="Path 190448" d="M-1233.55,4963.65c1.39,0,2.781-.015,4.171,0a2.232,2.232,0,0,1,2.429,2.25,2.225,2.225,0,0,1-2.426,2.143q-4.17.027-8.341,0a2.225,2.225,0,0,1-2.429-2.25,2.228,2.228,0,0,1,2.426-2.143C-1236.33,4963.635-1234.94,4963.65-1233.55,4963.65Z" transform="translate(2359.488 -2363.37)" fill="#084a93"/>
    <path id="Path_190449" data-name="Path 190449" d="M-1218.142,4965.855a2.22,2.22,0,0,1-2.253,2.19,2.22,2.22,0,0,1-2.134-2.2,2.214,2.214,0,0,1,2.252-2.188A2.22,2.22,0,0,1-1218.142,4965.855Z" transform="translate(2359.488 -2363.37)" fill="#084a93"/>
    <path id="Path_190450" data-name="Path 190450" d="M-1178.015,4963.657a2.22,2.22,0,0,1,2.153,2.179,2.221,2.221,0,0,1-2.235,2.209,2.22,2.22,0,0,1-2.152-2.29A2.221,2.221,0,0,1-1178.015,4963.657Z" transform="translate(2359.488 -2363.37)" fill="#fff"/>
    <path id="Path_190451" data-name="Path 190451" d="M-1543.127,4981.69c-.427-.988-.9-4.955-1.361-5.929v-21.8a41.045,41.045,0,0,1,1.416-4.589c3.3-7.543,6.735-15.023,9.986-22.585,1.139-2.649,2.692-4.645,5.554-5.416h78.834c2.866.772,4.419,2.77,5.558,5.423,3.219,7.5,6.591,14.945,9.926,22.4a16.422,16.422,0,0,1,1.475,6.819q-.014,9.133,0,18.269c0,1.553-.383,5.955-1.247,7.254Zm4.427-31.319h101.136c-.125-.32-.207-.556-.308-.784q-4.9-11.047-9.8-22.1a2.725,2.725,0,0,0-2.857-1.73q-37.587.033-75.172,0a2.847,2.847,0,0,0-2.95,1.932c-2.73,6.241-5.522,12.456-8.29,18.682C-1537.516,4947.666-1538.084,4948.969-1538.7,4950.371Zm-1.323,4.5c-.023.459-.058.818-.058,1.178q0,9.081,0,18.161c0,1.867.8,2.651,2.709,2.651q49.254,0,98.508,0c1.942,0,2.715-.788,2.716-2.757q.008-9.026,0-18.05c0-.388-.037-.775-.059-1.183Z" transform="translate(2359.488 -2363.37)" fill="#084a93"/>
    <path id="Path_190452" data-name="Path 190452" d="M-1538.7,4950.371c.616-1.4,1.184-2.705,1.761-4,2.768-6.226,5.56-12.441,8.29-18.682a2.847,2.847,0,0,1,2.95-1.932q37.586.042,75.172,0a2.725,2.725,0,0,1,2.857,1.73q4.871,11.063,9.8,22.1c.1.228.183.464.308.784Z" transform="translate(2359.488 -2363.37)" fill="#fff"/>
    <path id="Path_190453" data-name="Path 190453" d="M-1540.023,4954.87h103.815c.022.408.059.795.059,1.183q.006,9.025,0,18.05c0,1.969-.774,2.757-2.716,2.757q-49.254,0-98.508,0c-1.905,0-2.707-.784-2.709-2.651q-.009-9.081,0-18.161C-1540.081,4955.688-1540.046,4955.329-1540.023,4954.87Zm95.065,11.021a6.622,6.622,0,0,0-6.535-6.643,6.617,6.617,0,0,0-6.67,6.5,6.623,6.623,0,0,0,6.588,6.7A6.628,6.628,0,0,0-1444.958,4965.891Zm-79.715-2.241c-1.39,0-2.78-.015-4.17,0a2.228,2.228,0,0,0-2.424,2.145,2.224,2.224,0,0,0,2.43,2.248q4.17.029,8.341,0a2.222,2.222,0,0,0,2.424-2.145,2.232,2.232,0,0,0-2.43-2.248C-1521.892,4963.635-1523.283,4963.65-1524.673,4963.65Zm17.618,0c-1.39,0-2.78-.015-4.17,0a2.227,2.227,0,0,0-2.425,2.143,2.223,2.223,0,0,0,2.428,2.25q4.17.029,8.341,0a2.225,2.225,0,0,0,2.426-2.143,2.232,2.232,0,0,0-2.429-2.25C-1504.274,4963.635-1505.665,4963.65-1507.055,4963.65Zm15.408,2.205a2.22,2.22,0,0,0-2.135-2.2,2.214,2.214,0,0,0-2.252,2.188,2.22,2.22,0,0,0,2.134,2.2A2.22,2.22,0,0,0-1491.647,4965.855Z" transform="translate(2359.488 -2363.37)" fill="#fff"/>
    <path id="Path_190454" data-name="Path 190454" d="M-1444.958,4965.891a6.628,6.628,0,0,1-6.617,6.563,6.623,6.623,0,0,1-6.588-6.7,6.617,6.617,0,0,1,6.67-6.5A6.622,6.622,0,0,1-1444.958,4965.891Zm-6.562-2.234a2.221,2.221,0,0,0-2.234,2.1,2.22,2.22,0,0,0,2.152,2.29,2.221,2.221,0,0,0,2.235-2.209A2.22,2.22,0,0,0-1451.52,4963.657Z" transform="translate(2359.488 -2363.37)" fill="#084a93"/>
    <path id="Path_190455" data-name="Path 190455" d="M-1524.673,4963.65c1.39,0,2.781-.015,4.171,0a2.232,2.232,0,0,1,2.43,2.248,2.222,2.222,0,0,1-2.424,2.145q-4.17.027-8.341,0a2.224,2.224,0,0,1-2.43-2.248,2.228,2.228,0,0,1,2.424-2.145C-1527.453,4963.635-1526.063,4963.65-1524.673,4963.65Z" transform="translate(2359.488 -2363.37)" fill="#084a93"/>
    <path id="Path_190456" data-name="Path 190456" d="M-1507.055,4963.65c1.39,0,2.781-.015,4.171,0a2.232,2.232,0,0,1,2.429,2.25,2.225,2.225,0,0,1-2.426,2.143q-4.17.027-8.341,0a2.223,2.223,0,0,1-2.428-2.25,2.227,2.227,0,0,1,2.425-2.143C-1509.835,4963.635-1508.445,4963.65-1507.055,4963.65Z" transform="translate(2359.488 -2363.37)" fill="#084a93"/>
    <path id="Path_190457" data-name="Path 190457" d="M-1491.647,4965.855a2.22,2.22,0,0,1-2.253,2.19,2.22,2.22,0,0,1-2.134-2.2,2.214,2.214,0,0,1,2.252-2.188A2.22,2.22,0,0,1-1491.647,4965.855Z" transform="translate(2359.488 -2363.37)" fill="#084a93"/>
    <path id="Path_190458" data-name="Path 190458" d="M-1451.52,4963.657a2.22,2.22,0,0,1,2.153,2.179,2.221,2.221,0,0,1-2.235,2.209,2.22,2.22,0,0,1-2.152-2.29A2.221,2.221,0,0,1-1451.52,4963.657Z" transform="translate(2359.488 -2363.37)" fill="#fff"/>
  </g>
</svg>
