<svg xmlns="http://www.w3.org/2000/svg" width="669" height="314" viewBox="0 0 669 314">
  <g id="_4" data-name="4" transform="translate(-673.5 -2510.5)">
    <rect id="Rectangle_293682" data-name="Rectangle 293682" width="667" height="312" rx="20" transform="translate(674.5 2511.5)" fill="none" stroke="#084a93" stroke-linecap="round" stroke-linejoin="round" stroke-width="2" stroke-dasharray="10 10"/>
    <g id="Group_131790" data-name="Group 131790">
      <g id="Group_131789" data-name="Group 131789">
        <path id="Path_192420" data-name="Path 192420" d="M10,0H338.535a10,10,0,0,1,10,10V36.777a10,10,0,0,1-10,10H10a10,10,0,0,1-10-10V10A10,10,0,0,1,10,0Z" transform="translate(833.862 2642.319)" fill="#ffb30b"/>
        <path id="Path_192421" data-name="Path 192421" d="M-43.251,0h-3.067V-5.344h-4.544V0h-3.085V-12.8h3.085v5.08h4.544V-12.8h3.067Zm6.39-7.242,2.355-5.555h3.331L-35.3-4.6V0h-3.129V-4.6l-4.113-8.2h3.313Zm9.7,2.9V0h-3.085V-12.8h5.106a5.948,5.948,0,0,1,2.6.541,4.074,4.074,0,0,1,1.749,1.538,4.2,4.2,0,0,1,.62,2.263,3.7,3.7,0,0,1-1.34,2.993,5.561,5.561,0,0,1-3.678,1.121Zm0-2.382h2.021a1.906,1.906,0,0,0,1.367-.448,1.665,1.665,0,0,0,.47-1.266,2.059,2.059,0,0,0-.483-1.433,1.712,1.712,0,0,0-1.318-.545h-2.057Zm16.567,1.292h-4.852v3.059h5.73V0h-8.815V-12.8h8.833v2.382h-5.748v2.7h4.852Zm6.891.905H-5.37V0H-8.455V-12.8h5.036a5.621,5.621,0,0,1,3.56,1.01A3.421,3.421,0,0,1,1.424-8.934,4.155,4.155,0,0,1,.883-6.721,3.837,3.837,0,0,1-.809-5.3L1.863-.132V0h-3.3ZM-5.37-6.9h1.951A1.751,1.751,0,0,0-2.1-7.362a1.788,1.788,0,0,0,.444-1.291,1.809,1.809,0,0,0-.448-1.3,1.735,1.735,0,0,0-1.318-.471H-5.37ZM8.086-3.48,10.635-12.8H14.08L9.773,0H6.4L2.127-12.8H5.546ZM18.3,0H15.223V-12.8H18.3Zm8.745-3.4a1.268,1.268,0,0,0-.479-1.055,5.954,5.954,0,0,0-1.683-.782,16.147,16.147,0,0,1-1.969-.782q-2.487-1.222-2.487-3.357a3.011,3.011,0,0,1,.62-1.876A4.008,4.008,0,0,1,22.8-12.52a6.823,6.823,0,0,1,2.549-.453,5.969,5.969,0,0,1,2.474.492,3.917,3.917,0,0,1,1.7,1.4A3.661,3.661,0,0,1,30.129-9H27.053a1.547,1.547,0,0,0-.479-1.213,1.867,1.867,0,0,0-1.3-.431,2.106,2.106,0,0,0-1.305.365,1.119,1.119,0,0,0-.479.927,1.127,1.127,0,0,0,.527.892,6.65,6.65,0,0,0,1.854.826,11.36,11.36,0,0,1,2.18.918,3.663,3.663,0,0,1,2.074,3.3A3.125,3.125,0,0,1,28.863-.782a5.629,5.629,0,0,1-3.472.958,6.888,6.888,0,0,1-2.817-.558,4.247,4.247,0,0,1-1.9-1.529,3.985,3.985,0,0,1-.637-2.237h3.094a1.963,1.963,0,0,0,.532,1.516,2.513,2.513,0,0,0,1.727.488,1.985,1.985,0,0,0,1.208-.33A1.088,1.088,0,0,0,27.044-3.4Zm15.5-2.733a7.546,7.546,0,0,1-.694,3.313A5.132,5.132,0,0,1,39.88-.6a5.494,5.494,0,0,1-2.914.778,5.572,5.572,0,0,1-2.9-.751,5.123,5.123,0,0,1-1.973-2.149,7.329,7.329,0,0,1-.743-3.208v-.721a7.58,7.58,0,0,1,.69-3.318,5.119,5.119,0,0,1,1.978-2.219,5.533,5.533,0,0,1,2.931-.782,5.479,5.479,0,0,1,2.9.773A5.211,5.211,0,0,1,41.832-10a7.362,7.362,0,0,1,.716,3.274ZM39.41-6.671a5.381,5.381,0,0,0-.637-2.9,2.044,2.044,0,0,0-1.824-.989q-2.32,0-2.452,3.48l-.009.94a5.535,5.535,0,0,0,.624,2.892,2.041,2.041,0,0,0,1.854,1.011,2.016,2.016,0,0,0,1.8-.993,5.383,5.383,0,0,0,.642-2.856Zm9.483,2.145h-1.67V0H44.139V-12.8h5.036a5.621,5.621,0,0,1,3.56,1.01,3.421,3.421,0,0,1,1.283,2.853,4.155,4.155,0,0,1-.541,2.213A3.837,3.837,0,0,1,51.785-5.3L54.457-.132V0h-3.3ZM47.224-6.9h1.951A1.751,1.751,0,0,0,50.5-7.362a1.788,1.788,0,0,0,.444-1.291,1.809,1.809,0,0,0-.448-1.3,1.735,1.735,0,0,0-1.318-.471H47.224Z" transform="translate(1008.13 2670.969)" fill="#12263f"/>
        <path id="Path_190427" data-name="Path 190427" d="M-1406.374,5139.429c-.428-.987-.9-4.954-1.361-5.929v-21.8a40.775,40.775,0,0,1,1.415-4.59c3.295-7.543,6.736-15.023,9.986-22.584,1.139-2.65,2.693-4.645,5.555-5.417h78.834c2.865.772,4.419,2.771,5.557,5.424,3.22,7.5,6.591,14.945,9.926,22.4a16.434,16.434,0,0,1,1.476,6.818q-.015,9.135,0,18.269c.005,1.554-.383,5.956-1.247,7.254Zm4.426-31.318h101.136c-.125-.32-.207-.556-.308-.784q-4.9-11.048-9.8-22.1a2.725,2.725,0,0,0-2.857-1.731q-37.586.033-75.172,0a2.846,2.846,0,0,0-2.95,1.931c-2.73,6.242-5.522,12.457-8.289,18.682C-1400.764,5105.406-1401.331,5106.708-1401.948,5108.111Zm-1.322,4.5c-.024.459-.058.819-.058,1.179q-.006,9.079,0,18.16c0,1.868.8,2.651,2.709,2.651q49.254,0,98.508,0c1.941,0,2.714-.788,2.716-2.756q.006-9.025,0-18.051c0-.387-.038-.775-.059-1.183Z" transform="translate(2359.488 -2363.37)" fill="#084a93"/>
        <path id="Path_190428" data-name="Path 190428" d="M-1401.948,5108.111c.617-1.4,1.184-2.705,1.762-4,2.767-6.225,5.559-12.44,8.289-18.682a2.846,2.846,0,0,1,2.95-1.931q37.586.04,75.172,0a2.725,2.725,0,0,1,2.857,1.731q4.87,11.063,9.8,22.1c.1.228.183.464.308.784Z" transform="translate(2359.488 -2363.37)" fill="#fff"/>
        <path id="Path_190429" data-name="Path 190429" d="M-1403.27,5112.609h103.815c.021.408.058.8.059,1.183q0,9.026,0,18.051c0,1.968-.775,2.756-2.716,2.756q-49.254,0-98.508,0c-1.906,0-2.707-.783-2.709-2.651q-.01-9.08,0-18.16C-1403.328,5113.428-1403.294,5113.068-1403.27,5112.609Zm95.064,11.022a6.622,6.622,0,0,0-6.534-6.643,6.618,6.618,0,0,0-6.671,6.505,6.624,6.624,0,0,0,6.588,6.7A6.627,6.627,0,0,0-1308.206,5123.631Zm-79.714-2.242c-1.391,0-2.781-.015-4.171,0a2.227,2.227,0,0,0-2.424,2.144,2.226,2.226,0,0,0,2.431,2.249q4.17.027,8.341,0a2.223,2.223,0,0,0,2.424-2.145,2.233,2.233,0,0,0-2.431-2.249C-1385.14,5121.374-1386.53,5121.389-1387.92,5121.389Zm17.618,0c-1.391,0-2.781-.015-4.171,0a2.227,2.227,0,0,0-2.425,2.143,2.225,2.225,0,0,0,2.428,2.25q4.172.027,8.341,0a2.225,2.225,0,0,0,2.426-2.144,2.233,2.233,0,0,0-2.429-2.25C-1367.522,5121.374-1368.912,5121.389-1370.3,5121.389Zm15.408,2.205a2.22,2.22,0,0,0-2.135-2.2,2.213,2.213,0,0,0-2.252,2.188,2.219,2.219,0,0,0,2.133,2.2A2.221,2.221,0,0,0-1354.894,5123.594Z" transform="translate(2359.488 -2363.37)" fill="#fff"/>
        <path id="Path_190430" data-name="Path 190430" d="M-1308.206,5123.631a6.627,6.627,0,0,1-6.617,6.563,6.624,6.624,0,0,1-6.588-6.7,6.618,6.618,0,0,1,6.671-6.505A6.622,6.622,0,0,1-1308.206,5123.631Zm-6.562-2.234a2.22,2.22,0,0,0-2.233,2.1,2.221,2.221,0,0,0,2.151,2.29,2.221,2.221,0,0,0,2.235-2.209A2.219,2.219,0,0,0-1314.768,5121.4Z" transform="translate(2359.488 -2363.37)" fill="#084a93"/>
        <path id="Path_190431" data-name="Path 190431" d="M-1387.92,5121.389c1.39,0,2.78-.015,4.17,0a2.233,2.233,0,0,1,2.431,2.249,2.223,2.223,0,0,1-2.424,2.145q-4.172.027-8.341,0a2.226,2.226,0,0,1-2.431-2.249,2.227,2.227,0,0,1,2.424-2.144C-1390.7,5121.374-1389.311,5121.389-1387.92,5121.389Z" transform="translate(2359.488 -2363.37)" fill="#084a93"/>
        <path id="Path_190432" data-name="Path 190432" d="M-1370.3,5121.389c1.39,0,2.78-.015,4.17,0a2.233,2.233,0,0,1,2.429,2.25,2.225,2.225,0,0,1-2.426,2.144q-4.17.027-8.341,0a2.225,2.225,0,0,1-2.428-2.25,2.227,2.227,0,0,1,2.425-2.143C-1373.083,5121.374-1371.693,5121.389-1370.3,5121.389Z" transform="translate(2359.488 -2363.37)" fill="#084a93"/>
        <path id="Path_190433" data-name="Path 190433" d="M-1354.894,5123.594a2.221,2.221,0,0,1-2.254,2.19,2.219,2.219,0,0,1-2.133-2.2,2.213,2.213,0,0,1,2.252-2.188A2.22,2.22,0,0,1-1354.894,5123.594Z" transform="translate(2359.488 -2363.37)" fill="#084a93"/>
        <path id="Path_190434" data-name="Path 190434" d="M-1314.768,5121.4a2.219,2.219,0,0,1,2.153,2.179,2.221,2.221,0,0,1-2.235,2.209,2.221,2.221,0,0,1-2.151-2.29A2.22,2.22,0,0,1-1314.768,5121.4Z" transform="translate(2359.488 -2363.37)" fill="#fff"/>
        <path id="Path_190435" data-name="Path 190435" d="M-1406.374,4981.69c-.428-.988-.9-4.955-1.361-5.929v-21.8a40.813,40.813,0,0,1,1.415-4.589c3.295-7.543,6.736-15.023,9.986-22.585,1.139-2.649,2.693-4.645,5.555-5.416h78.834c2.865.772,4.419,2.77,5.557,5.423,3.22,7.5,6.591,14.945,9.926,22.4a16.44,16.44,0,0,1,1.476,6.819q-.015,9.133,0,18.269c.005,1.553-.383,5.955-1.247,7.254Zm4.426-31.319h101.136c-.125-.32-.207-.556-.308-.784q-4.9-11.047-9.8-22.1a2.723,2.723,0,0,0-2.857-1.73q-37.586.033-75.172,0a2.847,2.847,0,0,0-2.95,1.932c-2.73,6.241-5.522,12.456-8.289,18.682C-1400.764,4947.666-1401.331,4948.969-1401.948,4950.371Zm-1.322,4.5c-.024.459-.058.818-.058,1.178q-.006,9.081,0,18.161c0,1.867.8,2.651,2.709,2.651q49.254,0,98.508,0c1.941,0,2.714-.788,2.716-2.757q.006-9.026,0-18.05c0-.388-.038-.775-.059-1.183Z" transform="translate(2359.488 -2363.37)" fill="#084a93"/>
        <path id="Path_190436" data-name="Path 190436" d="M-1401.948,4950.371c.617-1.4,1.184-2.705,1.762-4,2.767-6.226,5.559-12.441,8.289-18.682a2.847,2.847,0,0,1,2.95-1.932q37.586.042,75.172,0a2.723,2.723,0,0,1,2.857,1.73q4.87,11.063,9.8,22.1c.1.228.183.464.308.784Z" transform="translate(2359.488 -2363.37)" fill="#fff"/>
        <path id="Path_190437" data-name="Path 190437" d="M-1403.27,4954.87h103.815c.021.408.058.795.059,1.183q0,9.025,0,18.05c0,1.969-.775,2.757-2.716,2.757q-49.254,0-98.508,0c-1.906,0-2.707-.784-2.709-2.651q-.01-9.081,0-18.161C-1403.328,4955.688-1403.294,4955.329-1403.27,4954.87Zm95.064,11.021a6.621,6.621,0,0,0-6.534-6.643,6.618,6.618,0,0,0-6.671,6.5,6.623,6.623,0,0,0,6.588,6.7A6.628,6.628,0,0,0-1308.206,4965.891Zm-79.714-2.241c-1.391,0-2.781-.015-4.171,0a2.228,2.228,0,0,0-2.424,2.145,2.225,2.225,0,0,0,2.431,2.248q4.17.029,8.341,0a2.222,2.222,0,0,0,2.424-2.145,2.232,2.232,0,0,0-2.431-2.248C-1385.14,4963.635-1386.53,4963.65-1387.92,4963.65Zm17.618,0c-1.391,0-2.781-.015-4.171,0a2.227,2.227,0,0,0-2.425,2.143,2.224,2.224,0,0,0,2.428,2.25q4.172.029,8.341,0a2.224,2.224,0,0,0,2.426-2.143,2.232,2.232,0,0,0-2.429-2.25C-1367.522,4963.635-1368.912,4963.65-1370.3,4963.65Zm15.408,2.205a2.221,2.221,0,0,0-2.135-2.2,2.213,2.213,0,0,0-2.252,2.188,2.22,2.22,0,0,0,2.133,2.2A2.221,2.221,0,0,0-1354.894,4965.855Z" transform="translate(2359.488 -2363.37)" fill="#fff"/>
        <path id="Path_190438" data-name="Path 190438" d="M-1308.206,4965.891a6.628,6.628,0,0,1-6.617,6.563,6.623,6.623,0,0,1-6.588-6.7,6.618,6.618,0,0,1,6.671-6.5A6.621,6.621,0,0,1-1308.206,4965.891Zm-6.562-2.234a2.22,2.22,0,0,0-2.233,2.1,2.22,2.22,0,0,0,2.151,2.29,2.22,2.22,0,0,0,2.235-2.209A2.22,2.22,0,0,0-1314.768,4963.657Z" transform="translate(2359.488 -2363.37)" fill="#084a93"/>
        <path id="Path_190439" data-name="Path 190439" d="M-1387.92,4963.65c1.39,0,2.78-.015,4.17,0a2.232,2.232,0,0,1,2.431,2.248,2.222,2.222,0,0,1-2.424,2.145q-4.172.027-8.341,0a2.225,2.225,0,0,1-2.431-2.248,2.228,2.228,0,0,1,2.424-2.145C-1390.7,4963.635-1389.311,4963.65-1387.92,4963.65Z" transform="translate(2359.488 -2363.37)" fill="#084a93"/>
        <path id="Path_190440" data-name="Path 190440" d="M-1370.3,4963.65c1.39,0,2.78-.015,4.17,0a2.232,2.232,0,0,1,2.429,2.25,2.224,2.224,0,0,1-2.426,2.143q-4.17.027-8.341,0a2.224,2.224,0,0,1-2.428-2.25,2.227,2.227,0,0,1,2.425-2.143C-1373.083,4963.635-1371.693,4963.65-1370.3,4963.65Z" transform="translate(2359.488 -2363.37)" fill="#084a93"/>
        <path id="Path_190441" data-name="Path 190441" d="M-1354.894,4965.855a2.221,2.221,0,0,1-2.254,2.19,2.22,2.22,0,0,1-2.133-2.2,2.213,2.213,0,0,1,2.252-2.188A2.221,2.221,0,0,1-1354.894,4965.855Z" transform="translate(2359.488 -2363.37)" fill="#084a93"/>
        <path id="Path_190442" data-name="Path 190442" d="M-1314.768,4963.657a2.22,2.22,0,0,1,2.153,2.179,2.22,2.22,0,0,1-2.235,2.209,2.22,2.22,0,0,1-2.151-2.29A2.22,2.22,0,0,1-1314.768,4963.657Z" transform="translate(2359.488 -2363.37)" fill="#fff"/>
        <path id="Path_190443" data-name="Path 190443" d="M-1269.622,4981.69c-.427-.988-.9-4.955-1.361-5.929v-21.8a41.045,41.045,0,0,1,1.416-4.589c3.3-7.543,6.735-15.023,9.986-22.585,1.139-2.649,2.692-4.645,5.554-5.416h78.834c2.866.772,4.419,2.77,5.557,5.423,3.22,7.5,6.592,14.945,9.927,22.4a16.422,16.422,0,0,1,1.475,6.819q-.015,9.133,0,18.269c0,1.553-.383,5.955-1.247,7.254Zm4.427-31.319h101.136c-.126-.32-.207-.556-.308-.784q-4.9-11.047-9.8-22.1a2.725,2.725,0,0,0-2.857-1.73q-37.587.033-75.173,0a2.847,2.847,0,0,0-2.949,1.932c-2.73,6.241-5.522,12.456-8.29,18.682C-1264.011,4947.666-1264.579,4948.969-1265.195,4950.371Zm-1.323,4.5c-.023.459-.058.818-.058,1.178q0,9.081,0,18.161c0,1.867.8,2.651,2.709,2.651q49.254,0,98.508,0c1.942,0,2.715-.788,2.716-2.757q.008-9.026,0-18.05c0-.388-.038-.775-.059-1.183Z" transform="translate(2359.488 -2363.37)" fill="#084a93"/>
        <path id="Path_190444" data-name="Path 190444" d="M-1265.195,4950.371c.616-1.4,1.184-2.705,1.761-4,2.768-6.226,5.56-12.441,8.29-18.682a2.847,2.847,0,0,1,2.949-1.932q37.587.042,75.173,0a2.725,2.725,0,0,1,2.857,1.73q4.871,11.063,9.8,22.1c.1.228.182.464.308.784Z" transform="translate(2359.488 -2363.37)" fill="#fff"/>
        <path id="Path_190445" data-name="Path 190445" d="M-1266.518,4954.87H-1162.7c.021.408.059.795.059,1.183q.006,9.025,0,18.05c0,1.969-.774,2.757-2.716,2.757q-49.254,0-98.508,0c-1.905,0-2.707-.784-2.709-2.651q-.009-9.081,0-18.161C-1266.576,4955.688-1266.541,4955.329-1266.518,4954.87Zm95.065,11.021a6.622,6.622,0,0,0-6.535-6.643,6.617,6.617,0,0,0-6.67,6.5,6.623,6.623,0,0,0,6.588,6.7A6.628,6.628,0,0,0-1171.453,4965.891Zm-79.715-2.241c-1.39,0-2.781-.015-4.17,0a2.228,2.228,0,0,0-2.424,2.145,2.224,2.224,0,0,0,2.43,2.248q4.17.029,8.341,0a2.222,2.222,0,0,0,2.424-2.145,2.232,2.232,0,0,0-2.431-2.248C-1248.387,4963.635-1249.778,4963.65-1251.168,4963.65Zm17.618,0c-1.39,0-2.78-.015-4.17,0a2.228,2.228,0,0,0-2.426,2.143,2.225,2.225,0,0,0,2.429,2.25q4.17.029,8.341,0a2.225,2.225,0,0,0,2.426-2.143,2.232,2.232,0,0,0-2.429-2.25C-1230.769,4963.635-1232.16,4963.65-1233.55,4963.65Zm15.408,2.205a2.22,2.22,0,0,0-2.135-2.2,2.214,2.214,0,0,0-2.252,2.188,2.22,2.22,0,0,0,2.134,2.2A2.22,2.22,0,0,0-1218.142,4965.855Z" transform="translate(2359.488 -2363.37)" fill="#fff"/>
        <path id="Path_190446" data-name="Path 190446" d="M-1171.453,4965.891a6.628,6.628,0,0,1-6.617,6.563,6.623,6.623,0,0,1-6.588-6.7,6.617,6.617,0,0,1,6.67-6.5A6.622,6.622,0,0,1-1171.453,4965.891Zm-6.562-2.234a2.221,2.221,0,0,0-2.234,2.1,2.22,2.22,0,0,0,2.152,2.29,2.221,2.221,0,0,0,2.235-2.209A2.22,2.22,0,0,0-1178.015,4963.657Z" transform="translate(2359.488 -2363.37)" fill="#084a93"/>
        <path id="Path_190447" data-name="Path 190447" d="M-1251.168,4963.65c1.39,0,2.781-.015,4.17,0a2.232,2.232,0,0,1,2.431,2.248,2.222,2.222,0,0,1-2.424,2.145q-4.17.027-8.341,0a2.224,2.224,0,0,1-2.43-2.248,2.228,2.228,0,0,1,2.424-2.145C-1253.949,4963.635-1252.558,4963.65-1251.168,4963.65Z" transform="translate(2359.488 -2363.37)" fill="#084a93"/>
        <path id="Path_190448" data-name="Path 190448" d="M-1233.55,4963.65c1.39,0,2.781-.015,4.171,0a2.232,2.232,0,0,1,2.429,2.25,2.225,2.225,0,0,1-2.426,2.143q-4.17.027-8.341,0a2.225,2.225,0,0,1-2.429-2.25,2.228,2.228,0,0,1,2.426-2.143C-1236.33,4963.635-1234.94,4963.65-1233.55,4963.65Z" transform="translate(2359.488 -2363.37)" fill="#084a93"/>
        <path id="Path_190449" data-name="Path 190449" d="M-1218.142,4965.855a2.22,2.22,0,0,1-2.253,2.19,2.22,2.22,0,0,1-2.134-2.2,2.214,2.214,0,0,1,2.252-2.188A2.22,2.22,0,0,1-1218.142,4965.855Z" transform="translate(2359.488 -2363.37)" fill="#084a93"/>
        <path id="Path_190450" data-name="Path 190450" d="M-1178.015,4963.657a2.22,2.22,0,0,1,2.153,2.179,2.221,2.221,0,0,1-2.235,2.209,2.22,2.22,0,0,1-2.152-2.29A2.221,2.221,0,0,1-1178.015,4963.657Z" transform="translate(2359.488 -2363.37)" fill="#fff"/>
        <path id="Path_190451" data-name="Path 190451" d="M-1543.127,4981.69c-.427-.988-.9-4.955-1.361-5.929v-21.8a41.045,41.045,0,0,1,1.416-4.589c3.3-7.543,6.735-15.023,9.986-22.585,1.139-2.649,2.692-4.645,5.554-5.416h78.834c2.866.772,4.419,2.77,5.558,5.423,3.219,7.5,6.591,14.945,9.926,22.4a16.422,16.422,0,0,1,1.475,6.819q-.014,9.133,0,18.269c0,1.553-.383,5.955-1.247,7.254Zm4.427-31.319h101.136c-.125-.32-.207-.556-.308-.784q-4.9-11.047-9.8-22.1a2.725,2.725,0,0,0-2.857-1.73q-37.587.033-75.172,0a2.847,2.847,0,0,0-2.95,1.932c-2.73,6.241-5.522,12.456-8.29,18.682C-1537.516,4947.666-1538.084,4948.969-1538.7,4950.371Zm-1.323,4.5c-.023.459-.058.818-.058,1.178q0,9.081,0,18.161c0,1.867.8,2.651,2.709,2.651q49.254,0,98.508,0c1.942,0,2.715-.788,2.716-2.757q.008-9.026,0-18.05c0-.388-.037-.775-.059-1.183Z" transform="translate(2359.488 -2363.37)" fill="#084a93"/>
        <path id="Path_190452" data-name="Path 190452" d="M-1538.7,4950.371c.616-1.4,1.184-2.705,1.761-4,2.768-6.226,5.56-12.441,8.29-18.682a2.847,2.847,0,0,1,2.95-1.932q37.586.042,75.172,0a2.725,2.725,0,0,1,2.857,1.73q4.871,11.063,9.8,22.1c.1.228.183.464.308.784Z" transform="translate(2359.488 -2363.37)" fill="#fff"/>
        <path id="Path_190453" data-name="Path 190453" d="M-1540.023,4954.87h103.815c.022.408.059.795.059,1.183q.006,9.025,0,18.05c0,1.969-.774,2.757-2.716,2.757q-49.254,0-98.508,0c-1.905,0-2.707-.784-2.709-2.651q-.009-9.081,0-18.161C-1540.081,4955.688-1540.046,4955.329-1540.023,4954.87Zm95.065,11.021a6.622,6.622,0,0,0-6.535-6.643,6.617,6.617,0,0,0-6.67,6.5,6.623,6.623,0,0,0,6.588,6.7A6.628,6.628,0,0,0-1444.958,4965.891Zm-79.715-2.241c-1.39,0-2.78-.015-4.17,0a2.228,2.228,0,0,0-2.424,2.145,2.224,2.224,0,0,0,2.43,2.248q4.17.029,8.341,0a2.222,2.222,0,0,0,2.424-2.145,2.232,2.232,0,0,0-2.43-2.248C-1521.892,4963.635-1523.283,4963.65-1524.673,4963.65Zm17.618,0c-1.39,0-2.78-.015-4.17,0a2.227,2.227,0,0,0-2.425,2.143,2.223,2.223,0,0,0,2.428,2.25q4.17.029,8.341,0a2.225,2.225,0,0,0,2.426-2.143,2.232,2.232,0,0,0-2.429-2.25C-1504.274,4963.635-1505.665,4963.65-1507.055,4963.65Zm15.408,2.205a2.22,2.22,0,0,0-2.135-2.2,2.214,2.214,0,0,0-2.252,2.188,2.22,2.22,0,0,0,2.134,2.2A2.22,2.22,0,0,0-1491.647,4965.855Z" transform="translate(2359.488 -2363.37)" fill="#fff"/>
        <path id="Path_190454" data-name="Path 190454" d="M-1444.958,4965.891a6.628,6.628,0,0,1-6.617,6.563,6.623,6.623,0,0,1-6.588-6.7,6.617,6.617,0,0,1,6.67-6.5A6.622,6.622,0,0,1-1444.958,4965.891Zm-6.562-2.234a2.221,2.221,0,0,0-2.234,2.1,2.22,2.22,0,0,0,2.152,2.29,2.221,2.221,0,0,0,2.235-2.209A2.22,2.22,0,0,0-1451.52,4963.657Z" transform="translate(2359.488 -2363.37)" fill="#084a93"/>
        <path id="Path_190455" data-name="Path 190455" d="M-1524.673,4963.65c1.39,0,2.781-.015,4.171,0a2.232,2.232,0,0,1,2.43,2.248,2.222,2.222,0,0,1-2.424,2.145q-4.17.027-8.341,0a2.224,2.224,0,0,1-2.43-2.248,2.228,2.228,0,0,1,2.424-2.145C-1527.453,4963.635-1526.063,4963.65-1524.673,4963.65Z" transform="translate(2359.488 -2363.37)" fill="#084a93"/>
        <path id="Path_190456" data-name="Path 190456" d="M-1507.055,4963.65c1.39,0,2.781-.015,4.171,0a2.232,2.232,0,0,1,2.429,2.25,2.225,2.225,0,0,1-2.426,2.143q-4.17.027-8.341,0a2.223,2.223,0,0,1-2.428-2.25,2.227,2.227,0,0,1,2.425-2.143C-1509.835,4963.635-1508.445,4963.65-1507.055,4963.65Z" transform="translate(2359.488 -2363.37)" fill="#084a93"/>
        <path id="Path_190457" data-name="Path 190457" d="M-1491.647,4965.855a2.22,2.22,0,0,1-2.253,2.19,2.22,2.22,0,0,1-2.134-2.2,2.214,2.214,0,0,1,2.252-2.188A2.22,2.22,0,0,1-1491.647,4965.855Z" transform="translate(2359.488 -2363.37)" fill="#084a93"/>
        <path id="Path_190458" data-name="Path 190458" d="M-1451.52,4963.657a2.22,2.22,0,0,1,2.153,2.179,2.221,2.221,0,0,1-2.235,2.209,2.22,2.22,0,0,1-2.152-2.29A2.221,2.221,0,0,1-1451.52,4963.657Z" transform="translate(2359.488 -2363.37)" fill="#fff"/>
      </g>
    </g>
  </g>
</svg>
