<svg xmlns="http://www.w3.org/2000/svg" width="669" height="314" viewBox="0 0 669 314">
  <g id="_5" data-name="5" transform="translate(-673.5 -3127.5)">
    <rect id="Rectangle_293685" data-name="Rectangle 293685" width="667" height="312" rx="20" transform="translate(674.5 3128.5)" fill="none" stroke="#084a93" stroke-linecap="round" stroke-linejoin="round" stroke-width="2" stroke-dasharray="10 10"/>
    <g id="Group_131791" data-name="Group 131791">
      <path id="Path_192422" data-name="Path 192422" d="M10,0H338.535a10,10,0,0,1,10,10V36.777a10,10,0,0,1-10,10H10a10,10,0,0,1-10-10V10A10,10,0,0,1,10,0Z" transform="translate(834 3262.426)" fill="#ffb30b"/>
      <path id="Path_192423" data-name="Path 192423" d="M-43.251,0h-3.067V-5.344h-4.544V0h-3.085V-12.8h3.085v5.08h4.544V-12.8h3.067Zm6.39-7.242,2.355-5.555h3.331L-35.3-4.6V0h-3.129V-4.6l-4.113-8.2h3.313Zm9.7,2.9V0h-3.085V-12.8h5.106a5.948,5.948,0,0,1,2.6.541,4.074,4.074,0,0,1,1.749,1.538,4.2,4.2,0,0,1,.62,2.263,3.7,3.7,0,0,1-1.34,2.993,5.561,5.561,0,0,1-3.678,1.121Zm0-2.382h2.021a1.906,1.906,0,0,0,1.367-.448,1.665,1.665,0,0,0,.47-1.266,2.059,2.059,0,0,0-.483-1.433,1.712,1.712,0,0,0-1.318-.545h-2.057Zm16.567,1.292h-4.852v3.059h5.73V0h-8.815V-12.8h8.833v2.382h-5.748v2.7h4.852Zm6.891.905H-5.37V0H-8.455V-12.8h5.036a5.621,5.621,0,0,1,3.56,1.01A3.421,3.421,0,0,1,1.424-8.934,4.155,4.155,0,0,1,.883-6.721,3.837,3.837,0,0,1-.809-5.3L1.863-.132V0h-3.3ZM-5.37-6.9h1.951A1.751,1.751,0,0,0-2.1-7.362a1.788,1.788,0,0,0,.444-1.291,1.809,1.809,0,0,0-.448-1.3,1.735,1.735,0,0,0-1.318-.471H-5.37ZM8.086-3.48,10.635-12.8H14.08L9.773,0H6.4L2.127-12.8H5.546ZM18.3,0H15.223V-12.8H18.3Zm8.745-3.4a1.268,1.268,0,0,0-.479-1.055,5.954,5.954,0,0,0-1.683-.782,16.147,16.147,0,0,1-1.969-.782q-2.487-1.222-2.487-3.357a3.011,3.011,0,0,1,.62-1.876A4.008,4.008,0,0,1,22.8-12.52a6.823,6.823,0,0,1,2.549-.453,5.969,5.969,0,0,1,2.474.492,3.917,3.917,0,0,1,1.7,1.4A3.661,3.661,0,0,1,30.129-9H27.053a1.547,1.547,0,0,0-.479-1.213,1.867,1.867,0,0,0-1.3-.431,2.106,2.106,0,0,0-1.305.365,1.119,1.119,0,0,0-.479.927,1.127,1.127,0,0,0,.527.892,6.65,6.65,0,0,0,1.854.826,11.36,11.36,0,0,1,2.18.918,3.663,3.663,0,0,1,2.074,3.3A3.125,3.125,0,0,1,28.863-.782a5.629,5.629,0,0,1-3.472.958,6.888,6.888,0,0,1-2.817-.558,4.247,4.247,0,0,1-1.9-1.529,3.985,3.985,0,0,1-.637-2.237h3.094a1.963,1.963,0,0,0,.532,1.516,2.513,2.513,0,0,0,1.727.488,1.985,1.985,0,0,0,1.208-.33A1.088,1.088,0,0,0,27.044-3.4Zm15.5-2.733a7.546,7.546,0,0,1-.694,3.313A5.132,5.132,0,0,1,39.88-.6a5.494,5.494,0,0,1-2.914.778,5.572,5.572,0,0,1-2.9-.751,5.123,5.123,0,0,1-1.973-2.149,7.329,7.329,0,0,1-.743-3.208v-.721a7.58,7.58,0,0,1,.69-3.318,5.119,5.119,0,0,1,1.978-2.219,5.533,5.533,0,0,1,2.931-.782,5.479,5.479,0,0,1,2.9.773A5.211,5.211,0,0,1,41.832-10a7.362,7.362,0,0,1,.716,3.274ZM39.41-6.671a5.381,5.381,0,0,0-.637-2.9,2.044,2.044,0,0,0-1.824-.989q-2.32,0-2.452,3.48l-.009.94a5.535,5.535,0,0,0,.624,2.892,2.041,2.041,0,0,0,1.854,1.011,2.016,2.016,0,0,0,1.8-.993,5.383,5.383,0,0,0,.642-2.856Zm9.483,2.145h-1.67V0H44.139V-12.8h5.036a5.621,5.621,0,0,1,3.56,1.01,3.421,3.421,0,0,1,1.283,2.853,4.155,4.155,0,0,1-.541,2.213A3.837,3.837,0,0,1,51.785-5.3L54.457-.132V0h-3.3ZM47.224-6.9h1.951A1.751,1.751,0,0,0,50.5-7.362a1.788,1.788,0,0,0,.444-1.291,1.809,1.809,0,0,0-.448-1.3,1.735,1.735,0,0,0-1.318-.471H47.224Z" transform="translate(1008.268 3291.074)" fill="#12263f"/>
      <path id="Path_190459" data-name="Path 190459" d="M-1305.159,5589.566a4.815,4.815,0,0,1-3.488,3.649,6.835,6.835,0,0,1-1.6.154q-41.09.01-82.178,0c-3.232,0-5.041-1.868-5.123-5.087a15.446,15.446,0,0,1,.874-5.46c2.732-8.04,5.392-16.106,8.056-24.17a5.983,5.983,0,0,0,.3-1.843q.024-24.4.018-48.8a2.371,2.371,0,0,1,.139-1.228,3.943,3.943,0,0,1,1.274-1.088c.249-.145.646-.045.977-.045h69.1c2.034,0,2.438.4,2.438,2.408q0,24.4.007,48.8a4.581,4.581,0,0,0,.179,1.413q4.391,13.247,8.817,26.479a4.724,4.724,0,0,0,.219.483Zm-88.642-5.454h84.9c-.085-.312-.142-.57-.225-.819q-3.82-11.485-7.627-22.976c-.229-.695-.586-.814-1.239-.814q-33.366.024-66.732-.007a1.1,1.1,0,0,0-1.247.929q-3.753,11.366-7.553,22.715C-1393.626,5583.445-1393.7,5583.759-1393.8,5584.112Zm8.65-75.337v47.6h67.612v-47.6Zm-9.256,78.489c-.206,2.6.19,3.036,2.653,3.036h80.992c.33,0,.662.01.991-.011a1.489,1.489,0,0,0,1.5-1.4,12.48,12.48,0,0,0,.013-1.623Z" transform="translate(2359.626 -2176.36)" fill="#084a93"/>
      <path id="Path_190460" data-name="Path 190460" d="M-1393.8,5584.112c.1-.353.175-.667.277-.972q3.78-11.357,7.553-22.715a1.1,1.1,0,0,1,1.247-.929q33.366.037,66.732.007c.653,0,1.01.119,1.239.814q3.781,11.5,7.627,22.976c.083.249.14.507.225.819Zm42.457-3.031q6.717,0,13.436,0c1.732,0,2.374-1.056,1.6-2.622-1.386-2.8-2.811-5.574-4.168-8.384a2.081,2.081,0,0,0-2.117-1.315q-8.747.042-17.494,0a2.083,2.083,0,0,0-2.118,1.315c-1.346,2.782-2.755,5.534-4.131,8.3-.833,1.675-.2,2.7,1.649,2.705Q-1358.016,5581.085-1351.344,5581.081Z" transform="translate(2359.626 -2176.36)" fill="#fff"/>
      <path id="Path_190461" data-name="Path 190461" d="M-1385.151,5508.775h67.612v47.6h-67.612Zm33.8,3.025h-28.494c-1.843,0-2.3.45-2.3,2.28q0,18.484,0,36.97c0,1.847.447,2.3,2.275,2.3h57.078c1.788,0,2.255-.461,2.255-2.229q0-18.53,0-37.06c0-1.786-.469-2.26-2.229-2.26Z" transform="translate(2359.626 -2176.36)" fill="#fff"/>
      <path id="Path_190462" data-name="Path 190462" d="M-1394.407,5587.264h86.151a12.48,12.48,0,0,1-.013,1.623,1.489,1.489,0,0,1-1.5,1.4c-.329.021-.661.011-.991.011h-80.992C-1394.217,5590.3-1394.613,5589.862-1394.407,5587.264Z" transform="translate(2359.626 -2176.36)" fill="#fff"/>
      <path id="Path_190463" data-name="Path 190463" d="M-1351.344,5581.081q-6.673,0-13.346,0c-1.854,0-2.482-1.03-1.649-2.705,1.376-2.768,2.785-5.52,4.131-8.3a2.083,2.083,0,0,1,2.118-1.315q8.746.042,17.494,0a2.081,2.081,0,0,1,2.117,1.315c1.357,2.81,2.782,5.588,4.168,8.384.777,1.566.135,2.619-1.6,2.622Q-1344.626,5581.088-1351.344,5581.081Zm11.347-3.1c-.936-1.881-1.836-3.637-2.681-5.419a1.093,1.093,0,0,0-1.163-.725c-4.3.029-8.606.176-12.893-.05-2.269-.12-3.551.5-4.243,2.671a26.535,26.535,0,0,1-1.716,3.523Z" transform="translate(2359.626 -2176.36)" fill="#084a93"/>
      <path id="Path_190464" data-name="Path 190464" d="M-1351.356,5511.8h28.584c1.76,0,2.229.474,2.229,2.26q0,18.531,0,37.06c0,1.768-.467,2.229-2.255,2.229h-57.078c-1.828,0-2.275-.452-2.275-2.3q0-18.484,0-36.97c0-1.83.458-2.28,2.3-2.28Zm-27.672,38.4h55.337v-35.267h-55.337Z" transform="translate(2359.626 -2176.36)" fill="#084a93"/>
      <path id="Path_190465" data-name="Path 190465" d="M-1340,5577.979h-22.7a26.535,26.535,0,0,0,1.716-3.523c.692-2.166,1.974-2.791,4.243-2.671,4.287.226,8.594.079,12.893.05a1.093,1.093,0,0,1,1.163.725C-1341.833,5574.342-1340.933,5576.1-1340,5577.979Z" transform="translate(2359.626 -2176.36)" fill="#fff"/>
      <path id="Path_190466" data-name="Path 190466" d="M-1379.028,5550.2v-35.267h55.337V5550.2Zm33.861-20.024h2.98v-2.921h-2.98Zm6.054,6.191v-2.943h-2.942v2.943Z" transform="translate(2359.626 -2176.36)" fill="#fff"/>
      <path id="Path_190467" data-name="Path 190467" d="M-1345.167,5530.177v-2.921h2.98v2.921Z" transform="translate(2359.626 -2176.36)" fill="#084a93"/>
      <path id="Path_190468" data-name="Path 190468" d="M-1339.113,5536.368h-2.942v-2.943h2.942Z" transform="translate(2359.626 -2176.36)" fill="#084a93"/>
      <path id="Path_190469" data-name="Path 190469" d="M-1328.934,5410.356h-44.847c-1.225-.554-2.261-1.352-2.17-2.812a9.151,9.151,0,0,1,.761-3.261,6.652,6.652,0,0,1,5.782-3.981,1.255,1.255,0,0,0,1.336-1.148c.3-1.379.748-2.724,1.133-4.084.189-.666.374-1.333.59-2.1h-1.141c-7.022,0-14.043.012-21.065,0-3.782-.009-6.283-2.418-6.285-6.074q-.018-28.715,0-57.43a5.8,5.8,0,0,1,6.091-6.092q37.414-.014,74.83.023a7.472,7.472,0,0,1,2.854.654,5.875,5.875,0,0,1,3.2,4.245V5388.1a15.651,15.651,0,0,1-1.132,2.428,5.929,5.929,0,0,1-5.3,2.447q-10.477-.02-20.954-.005h-1.075c.076.345.118.589.185.826.509,1.793,1.081,3.57,1.508,5.382a1.271,1.271,0,0,0,1.349,1.128,6.714,6.714,0,0,1,5.892,4.21C-1326.359,5406.893-1326.14,5409.154-1328.934,5410.356Zm-22.357-84.1h-37.024c-2.61,0-3.637,1.033-3.637,3.659V5386.4c0,2.629,1.024,3.665,3.632,3.665q36.981,0,73.962,0c2.556,0,3.6-1.049,3.6-3.616v-56.567c0-2.569-1.042-3.622-3.589-3.622Zm13.938,73.9c-.667-2.337-1.288-4.563-1.959-6.774a.868.868,0,0,0-.683-.4c-7.579-.021-15.158-.014-22.737-.025a.659.659,0,0,0-.754.586c-.476,1.772-1,3.532-1.5,5.3-.119.418-.22.84-.343,1.311Zm7.693,7.276c-.052-2.623-1.957-4.332-4.8-4.334q-16.893-.01-33.786,0a7.923,7.923,0,0,0-1.351.113c-2.246.391-3.683,2.67-3.4,4.219Z" transform="translate(2359.626 -2171.36)" fill="#084a93"/>
      <path id="Path_190470" data-name="Path 190470" d="M-1351.291,5326.255h36.939c2.547,0,3.589,1.053,3.589,3.622v56.567c0,2.567-1.039,3.616-3.6,3.616q-36.981,0-73.962,0c-2.608,0-3.632-1.036-3.632-3.665v-56.481c0-2.626,1.027-3.659,3.637-3.659Zm-.062,55.09q16.431,0,32.862,0c3.088,0,4.832-1.762,4.833-4.856q0-21.232,0-42.466c0-3.075-1.783-4.869-4.843-4.87q-32.862,0-65.723,0c-3.024,0-4.83,1.79-4.832,4.794q-.008,21.319.007,42.635a6.169,6.169,0,0,0,.214,1.676c.569,1.989,2.227,3.086,4.621,3.087Q-1367.783,5381.35-1351.353,5381.345Zm-.047,5.808c2.236,0,4.472,0,6.708,0,1.33,0,1.991-.48,2-1.424.013-.969-.681-1.471-2.046-1.48h-.085q-6.539,0-13.076,0a4.432,4.432,0,0,0-1.092.1,1.292,1.292,0,0,0-1.031,1.373,1.3,1.3,0,0,0,1.07,1.344,4.421,4.421,0,0,0,1.012.078C-1355.758,5387.156-1353.579,5387.153-1351.4,5387.153Z" transform="translate(2359.626 -2171.36)" fill="#fff"/>
      <path id="Path_190471" data-name="Path 190471" d="M-1337.353,5400.155h-27.974c.123-.471.224-.893.343-1.311.5-1.766,1.022-3.526,1.5-5.3a.659.659,0,0,1,.754-.586c7.579.011,15.158,0,22.737.025a.868.868,0,0,1,.683.4C-1338.641,5395.592-1338.02,5397.818-1337.353,5400.155Z" transform="translate(2359.626 -2171.36)" fill="#fff"/>
      <path id="Path_190472" data-name="Path 190472" d="M-1329.66,5407.431h-43.334c-.284-1.549,1.153-3.828,3.4-4.219a7.923,7.923,0,0,1,1.351-.113q16.893-.01,33.786,0C-1331.617,5403.1-1329.712,5404.808-1329.66,5407.431Z" transform="translate(2359.626 -2171.36)" fill="#fff"/>
      <path id="Path_190473" data-name="Path 190473" d="M-1351.353,5381.345q-16.43,0-32.861,0c-2.394,0-4.052-1.1-4.621-3.087a6.169,6.169,0,0,1-.214-1.676q-.018-21.316-.007-42.635c0-3,1.808-4.794,4.832-4.794q32.862-.006,65.723,0c3.06,0,4.842,1.795,4.843,4.87q0,21.232,0,42.466c0,3.094-1.745,4.854-4.833,4.856Q-1334.922,5381.354-1351.353,5381.345Zm0-2.905h32.615c1.785,0,2.189-.406,2.189-2.2q0-20.984,0-41.967c0-1.791-.429-2.228-2.19-2.228h-65.23c-1.76,0-2.189.437-2.189,2.229q0,20.982,0,41.966c0,1.793.4,2.2,2.19,2.2Z" transform="translate(2359.626 -2171.36)" fill="#084a93"/>
      <path id="Path_190474" data-name="Path 190474" d="M-1351.4,5387.153c-2.179,0-4.358,0-6.537,0a4.421,4.421,0,0,1-1.012-.078,1.3,1.3,0,0,1-1.07-1.344,1.292,1.292,0,0,1,1.031-1.373,4.432,4.432,0,0,1,1.092-.1q6.539-.009,13.076,0h.085c1.365.009,2.059.511,2.046,1.48-.012.944-.673,1.421-2,1.424C-1346.928,5387.157-1349.164,5387.153-1351.4,5387.153Z" transform="translate(2359.626 -2171.36)" fill="#084a93"/>
      <path id="Path_190475" data-name="Path 190475" d="M-1351.357,5378.44h-32.615c-1.786,0-2.19-.406-2.19-2.2q0-20.984,0-41.966c0-1.792.429-2.229,2.189-2.229h65.23c1.761,0,2.19.437,2.19,2.228q0,20.984,0,41.967c0,1.793-.4,2.2-2.189,2.2Zm-30.389-9.867a13.085,13.085,0,0,0,1.491-1.334q11.178-13.77,22.324-27.567c.641-.792,1.3-1.568,1.9-2.391a1.427,1.427,0,0,0-.23-1.983,1.448,1.448,0,0,0-1.99.186,5.277,5.277,0,0,0-.384.453q-11.506,14.214-23.013,28.429a10.3,10.3,0,0,0-1.333,1.746,1.941,1.941,0,0,0-.032,1.483C-1382.837,5367.977-1382.277,5368.185-1381.746,5368.573Zm30.59-25.08c-.4-.417-.716-.952-1.181-1.18-.694-.341-1.292.044-1.755.634q-7.83,9.98-15.663,19.955a1.455,1.455,0,0,0,.073,2.186,1.5,1.5,0,0,0,2.214-.42q7.818-9.935,15.615-19.885A9.824,9.824,0,0,0-1351.156,5343.493Zm-14.508-7.237a5.748,5.748,0,0,0-1.2-1.172c-.713-.366-1.286.078-1.752.638q-7.033,8.446-14.068,16.891c-.734.882-.724,1.743-.01,2.314.68.544,1.508.4,2.213-.441q7.074-8.468,14.122-16.957A8.539,8.539,0,0,0-1365.664,5336.256Z" transform="translate(2359.626 -2171.36)" fill="#fff"/>
      <path id="Path_190476" data-name="Path 190476" d="M-1381.746,5368.573c-.531-.388-1.091-.6-1.265-.978a1.941,1.941,0,0,1,.032-1.483,10.3,10.3,0,0,1,1.333-1.746q11.505-14.216,23.013-28.429a5.277,5.277,0,0,1,.384-.453,1.448,1.448,0,0,1,1.99-.186,1.427,1.427,0,0,1,.23,1.983c-.6.823-1.261,1.6-1.9,2.391q-11.156,13.788-22.324,27.567A13.085,13.085,0,0,1-1381.746,5368.573Z" transform="translate(2359.626 -2171.36)" fill="#084a93"/>
      <path id="Path_190477" data-name="Path 190477" d="M-1351.156,5343.493a9.824,9.824,0,0,1-.7,1.29q-7.8,9.952-15.615,19.885a1.5,1.5,0,0,1-2.214.42,1.455,1.455,0,0,1-.073-2.186q7.824-9.982,15.663-19.955c.463-.59,1.061-.975,1.755-.634C-1351.872,5342.541-1351.557,5343.076-1351.156,5343.493Z" transform="translate(2359.626 -2171.36)" fill="#084a93"/>
      <path id="Path_190478" data-name="Path 190478" d="M-1365.664,5336.256a8.539,8.539,0,0,1-.7,1.273q-7.047,8.492-14.122,16.957c-.7.844-1.533.985-2.213.441-.714-.571-.724-1.432.01-2.314q7.029-8.449,14.068-16.891c.466-.56,1.039-1,1.752-.638A5.748,5.748,0,0,1-1365.664,5336.256Z" transform="translate(2359.626 -2171.36)" fill="#084a93"/>
      <path id="Path_190479" data-name="Path 190479" d="M-1217.954,5410.356H-1262.8c-1.225-.554-2.26-1.352-2.169-2.812a9.127,9.127,0,0,1,.761-3.261,6.65,6.65,0,0,1,5.781-3.981,1.255,1.255,0,0,0,1.336-1.148c.3-1.379.748-2.724,1.133-4.084.189-.666.375-1.333.591-2.1h-1.142c-7.021,0-14.043.012-21.065,0-3.782-.009-6.283-2.418-6.285-6.074q-.016-28.715,0-57.43a5.8,5.8,0,0,1,6.091-6.092q37.416-.014,74.83.023a7.472,7.472,0,0,1,2.854.654,5.871,5.871,0,0,1,3.2,4.245V5388.1a15.551,15.551,0,0,1-1.132,2.428,5.929,5.929,0,0,1-5.3,2.447q-10.476-.02-20.953-.005h-1.076c.077.345.118.589.185.826.509,1.793,1.081,3.57,1.508,5.382a1.271,1.271,0,0,0,1.349,1.128,6.714,6.714,0,0,1,5.892,4.21C-1215.379,5406.893-1215.16,5409.154-1217.954,5410.356Zm-22.357-84.1h-37.024c-2.611,0-3.638,1.033-3.638,3.659V5386.4c0,2.629,1.024,3.665,3.632,3.665q36.981,0,73.963,0c2.556,0,3.594-1.049,3.594-3.616q0-28.284,0-56.567c0-2.569-1.042-3.622-3.589-3.622Zm13.938,73.9c-.667-2.337-1.288-4.563-1.96-6.774a.868.868,0,0,0-.683-.4c-7.579-.021-15.157-.014-22.736-.025a.66.66,0,0,0-.755.586c-.476,1.772-1,3.532-1.5,5.3-.119.418-.22.84-.342,1.311Zm7.692,7.276c-.052-2.623-1.957-4.332-4.8-4.334q-16.893-.01-33.786,0a7.912,7.912,0,0,0-1.35.113c-2.247.391-3.683,2.67-3.4,4.219Z" transform="translate(2359.626 -2171.36)" fill="#084a93"/>
      <path id="Path_190480" data-name="Path 190480" d="M-1240.311,5326.255h36.938c2.547,0,3.589,1.053,3.589,3.622q0,28.284,0,56.567c0,2.567-1.038,3.616-3.594,3.616q-36.982,0-73.963,0c-2.608,0-3.632-1.036-3.632-3.665v-56.481c0-2.626,1.027-3.659,3.638-3.659Zm-.062,55.09q16.431,0,32.861,0c3.088,0,4.833-1.762,4.833-4.856q0-21.232,0-42.466c0-3.075-1.783-4.869-4.843-4.87q-32.86,0-65.722,0c-3.024,0-4.831,1.79-4.832,4.794q-.009,21.319.006,42.635a6.209,6.209,0,0,0,.215,1.676c.569,1.989,2.226,3.086,4.621,3.087Q-1256.8,5381.35-1240.373,5381.345Zm-.047,5.808c2.236,0,4.472,0,6.707,0,1.33,0,1.991-.48,2-1.424.013-.969-.681-1.471-2.046-1.48h-.085q-6.537,0-13.075,0a4.432,4.432,0,0,0-1.092.1,1.293,1.293,0,0,0-1.032,1.373,1.3,1.3,0,0,0,1.07,1.344,4.421,4.421,0,0,0,1.012.078C-1244.779,5387.156-1242.6,5387.153-1240.42,5387.153Z" transform="translate(2359.626 -2171.36)" fill="#fff"/>
      <path id="Path_190481" data-name="Path 190481" d="M-1226.373,5400.155h-27.974c.122-.471.223-.893.342-1.311.5-1.766,1.022-3.526,1.5-5.3a.66.66,0,0,1,.755-.586c7.579.011,15.157,0,22.736.025a.868.868,0,0,1,.683.4C-1227.661,5395.592-1227.04,5397.818-1226.373,5400.155Z" transform="translate(2359.626 -2171.36)" fill="#fff"/>
      <path id="Path_190482" data-name="Path 190482" d="M-1218.681,5407.431h-43.334c-.283-1.549,1.153-3.828,3.4-4.219a7.912,7.912,0,0,1,1.35-.113q16.893-.01,33.786,0C-1220.638,5403.1-1218.733,5404.808-1218.681,5407.431Z" transform="translate(2359.626 -2171.36)" fill="#fff"/>
      <path id="Path_190483" data-name="Path 190483" d="M-1240.373,5381.345q-16.431,0-32.861,0c-2.4,0-4.052-1.1-4.621-3.087a6.209,6.209,0,0,1-.215-1.676q-.017-21.316-.006-42.635c0-3,1.808-4.794,4.832-4.794q32.86-.006,65.722,0c3.06,0,4.842,1.795,4.843,4.87q.006,21.232,0,42.466c0,3.094-1.745,4.854-4.833,4.856Q-1223.943,5381.354-1240.373,5381.345Zm-.005-2.905h32.615c1.786,0,2.19-.406,2.19-2.2v-41.967c0-1.791-.429-2.228-2.19-2.228h-65.23c-1.761,0-2.19.437-2.19,2.229v41.966c0,1.793.4,2.2,2.19,2.2Z" transform="translate(2359.626 -2171.36)" fill="#084a93"/>
      <path id="Path_190484" data-name="Path 190484" d="M-1240.42,5387.153c-2.179,0-4.359,0-6.538,0a4.421,4.421,0,0,1-1.012-.078,1.3,1.3,0,0,1-1.07-1.344,1.293,1.293,0,0,1,1.032-1.373,4.432,4.432,0,0,1,1.092-.1q6.537-.009,13.075,0h.085c1.365.009,2.059.511,2.046,1.48-.012.944-.673,1.421-2,1.424C-1235.948,5387.157-1238.184,5387.153-1240.42,5387.153Z" transform="translate(2359.626 -2171.36)" fill="#084a93"/>
      <path id="Path_190485" data-name="Path 190485" d="M-1240.378,5378.44h-32.615c-1.786,0-2.19-.406-2.19-2.2v-41.966c0-1.792.429-2.229,2.19-2.229h65.23c1.761,0,2.189.437,2.19,2.228v41.967c0,1.793-.4,2.2-2.19,2.2Zm-30.389-9.867a12.919,12.919,0,0,0,1.491-1.334q11.178-13.77,22.325-27.567c.64-.792,1.3-1.568,1.9-2.391a1.427,1.427,0,0,0-.23-1.983,1.448,1.448,0,0,0-1.99.186,5.243,5.243,0,0,0-.383.453q-11.508,14.214-23.014,28.429a10.3,10.3,0,0,0-1.333,1.746,1.937,1.937,0,0,0-.031,1.483C-1271.857,5367.977-1271.3,5368.185-1270.767,5368.573Zm30.591-25.08c-.4-.417-.716-.952-1.181-1.18-.695-.341-1.293.044-1.756.634q-7.828,9.98-15.663,19.955a1.455,1.455,0,0,0,.074,2.186,1.5,1.5,0,0,0,2.213-.42q7.818-9.935,15.615-19.885A9.811,9.811,0,0,0-1240.176,5343.493Zm-14.509-7.237a5.722,5.722,0,0,0-1.2-1.172c-.713-.366-1.285.078-1.752.638q-7.033,8.446-14.068,16.891c-.734.882-.724,1.743-.01,2.314.68.544,1.509.4,2.214-.441q7.073-8.468,14.121-16.957A8.441,8.441,0,0,0-1254.685,5336.256Z" transform="translate(2359.626 -2171.36)" fill="#fff"/>
      <path id="Path_190486" data-name="Path 190486" d="M-1270.767,5368.573c-.531-.388-1.09-.6-1.264-.978a1.937,1.937,0,0,1,.031-1.483,10.3,10.3,0,0,1,1.333-1.746q11.505-14.216,23.014-28.429a5.243,5.243,0,0,1,.383-.453,1.448,1.448,0,0,1,1.99-.186,1.427,1.427,0,0,1,.23,1.983c-.6.823-1.261,1.6-1.9,2.391q-11.157,13.788-22.325,27.567A12.919,12.919,0,0,1-1270.767,5368.573Z" transform="translate(2359.626 -2171.36)" fill="#084a93"/>
      <path id="Path_190487" data-name="Path 190487" d="M-1240.176,5343.493a9.811,9.811,0,0,1-.7,1.29q-7.8,9.952-15.615,19.885a1.5,1.5,0,0,1-2.213.42,1.455,1.455,0,0,1-.074-2.186q7.826-9.982,15.663-19.955c.463-.59,1.061-.975,1.756-.634C-1240.892,5342.541-1240.578,5343.076-1240.176,5343.493Z" transform="translate(2359.626 -2171.36)" fill="#084a93"/>
      <path id="Path_190488" data-name="Path 190488" d="M-1254.685,5336.256a8.441,8.441,0,0,1-.7,1.273q-7.045,8.492-14.121,16.957c-.7.844-1.534.985-2.214.441-.714-.571-.724-1.432.01-2.314q7.029-8.449,14.068-16.891c.467-.56,1.039-1,1.752-.638A5.722,5.722,0,0,1-1254.685,5336.256Z" transform="translate(2359.626 -2171.36)" fill="#084a93"/>
      <path id="Path_190489" data-name="Path 190489" d="M-1439.913,5410.356h-44.848c-1.224-.554-2.26-1.352-2.169-2.812a9.151,9.151,0,0,1,.761-3.261,6.651,6.651,0,0,1,5.781-3.981,1.254,1.254,0,0,0,1.336-1.148c.3-1.379.748-2.724,1.134-4.084.188-.666.374-1.333.59-2.1h-1.142c-7.021,0-14.043.012-21.064,0-3.783-.009-6.284-2.418-6.286-6.074q-.017-28.715,0-57.43a5.8,5.8,0,0,1,6.09-6.092q37.416-.014,74.831.023a7.472,7.472,0,0,1,2.853.654,5.871,5.871,0,0,1,3.2,4.245V5388.1a15.562,15.562,0,0,1-1.132,2.428,5.929,5.929,0,0,1-5.3,2.447q-10.476-.02-20.953-.005h-1.075c.076.345.117.589.185.826.508,1.793,1.08,3.57,1.507,5.382a1.271,1.271,0,0,0,1.349,1.128,6.714,6.714,0,0,1,5.892,4.21C-1437.338,5406.893-1437.119,5409.154-1439.913,5410.356Zm-22.357-84.1h-37.024c-2.61,0-3.637,1.033-3.637,3.659q0,28.241,0,56.481c0,2.629,1.023,3.665,3.631,3.665q36.981,0,73.963,0c2.556,0,3.6-1.049,3.6-3.616v-56.567c0-2.569-1.043-3.622-3.589-3.622Zm13.938,73.9c-.667-2.337-1.288-4.563-1.959-6.774a.872.872,0,0,0-.684-.4c-7.578-.021-15.157-.014-22.736-.025a.658.658,0,0,0-.754.586c-.477,1.772-1,3.532-1.5,5.3-.118.418-.22.84-.342,1.311Zm7.693,7.276c-.052-2.623-1.957-4.332-4.8-4.334q-16.893-.01-33.786,0a7.912,7.912,0,0,0-1.35.113c-2.247.391-3.683,2.67-3.4,4.219Z" transform="translate(2359.626 -2171.36)" fill="#084a93"/>
      <path id="Path_190490" data-name="Path 190490" d="M-1462.27,5326.255h36.939c2.546,0,3.589,1.053,3.589,3.622v56.567c0,2.567-1.039,3.616-3.6,3.616q-36.981,0-73.963,0c-2.608,0-3.631-1.036-3.631-3.665q0-28.241,0-56.481c0-2.626,1.027-3.659,3.637-3.659Zm-.062,55.09q16.431,0,32.861,0c3.088,0,4.833-1.762,4.833-4.856q.006-21.232,0-42.466c0-3.075-1.782-4.869-4.843-4.87q-32.86,0-65.722,0c-3.024,0-4.831,1.79-4.832,4.794q-.009,21.319.006,42.635a6.213,6.213,0,0,0,.215,1.676c.569,1.989,2.226,3.086,4.621,3.087Q-1478.763,5381.35-1462.332,5381.345Zm-.047,5.808c2.236,0,4.472,0,6.708,0,1.33,0,1.99-.48,2-1.424.012-.969-.682-1.471-2.047-1.48h-.085q-6.537,0-13.075,0a4.432,4.432,0,0,0-1.092.1,1.292,1.292,0,0,0-1.031,1.373,1.3,1.3,0,0,0,1.07,1.344,4.413,4.413,0,0,0,1.011.078C-1466.737,5387.156-1464.558,5387.153-1462.379,5387.153Z" transform="translate(2359.626 -2171.36)" fill="#fff"/>
      <path id="Path_190491" data-name="Path 190491" d="M-1448.332,5400.155h-27.974c.122-.471.224-.893.342-1.311.5-1.766,1.022-3.526,1.5-5.3a.658.658,0,0,1,.754-.586c7.579.011,15.158,0,22.736.025a.872.872,0,0,1,.684.4C-1449.62,5395.592-1449,5397.818-1448.332,5400.155Z" transform="translate(2359.626 -2171.36)" fill="#fff"/>
      <path id="Path_190492" data-name="Path 190492" d="M-1440.639,5407.431h-43.335c-.283-1.549,1.153-3.828,3.4-4.219a7.912,7.912,0,0,1,1.35-.113q16.893-.01,33.786,0C-1442.6,5403.1-1440.691,5404.808-1440.639,5407.431Z" transform="translate(2359.626 -2171.36)" fill="#fff"/>
      <path id="Path_190493" data-name="Path 190493" d="M-1462.332,5381.345q-16.431,0-32.861,0c-2.4,0-4.052-1.1-4.621-3.087a6.213,6.213,0,0,1-.215-1.676q-.016-21.316-.006-42.635c0-3,1.808-4.794,4.832-4.794q32.86-.006,65.722,0c3.061,0,4.843,1.795,4.843,4.87q.006,21.232,0,42.466c0,3.094-1.745,4.854-4.833,4.856Q-1445.9,5381.354-1462.332,5381.345Zm-.005-2.905h32.615c1.786,0,2.19-.406,2.19-2.2v-41.967c0-1.791-.429-2.228-2.19-2.228h-65.23c-1.761,0-2.189.437-2.19,2.229v41.966c0,1.793.4,2.2,2.191,2.2Z" transform="translate(2359.626 -2171.36)" fill="#084a93"/>
      <path id="Path_190494" data-name="Path 190494" d="M-1462.379,5387.153c-2.179,0-4.358,0-6.538,0a4.413,4.413,0,0,1-1.011-.078,1.3,1.3,0,0,1-1.07-1.344,1.292,1.292,0,0,1,1.031-1.373,4.432,4.432,0,0,1,1.092-.1q6.537-.009,13.075,0h.085c1.365.009,2.059.511,2.047,1.48-.013.944-.673,1.421-2,1.424C-1457.907,5387.157-1460.143,5387.153-1462.379,5387.153Z" transform="translate(2359.626 -2171.36)" fill="#084a93"/>
      <path id="Path_190495" data-name="Path 190495" d="M-1462.337,5378.44h-32.614c-1.786,0-2.19-.406-2.191-2.2v-41.966c0-1.792.429-2.229,2.19-2.229h65.23c1.761,0,2.19.437,2.19,2.228v41.967c0,1.793-.4,2.2-2.19,2.2Zm-30.388-9.867a13.085,13.085,0,0,0,1.491-1.334q11.178-13.77,22.324-27.567c.64-.792,1.3-1.568,1.9-2.391a1.428,1.428,0,0,0-.229-1.983,1.449,1.449,0,0,0-1.991.186,5.267,5.267,0,0,0-.383.453q-11.508,14.214-23.013,28.429a10.2,10.2,0,0,0-1.333,1.746,1.937,1.937,0,0,0-.032,1.483C-1493.816,5367.977-1493.257,5368.185-1492.725,5368.573Zm30.59-25.08c-.4-.417-.716-.952-1.181-1.18-.695-.341-1.293.044-1.756.634q-7.828,9.98-15.663,19.955a1.456,1.456,0,0,0,.074,2.186,1.5,1.5,0,0,0,2.214-.42q7.817-9.935,15.614-19.885A9.7,9.7,0,0,0-1462.135,5343.493Zm-14.509-7.237a5.7,5.7,0,0,0-1.2-1.172c-.713-.366-1.285.078-1.752.638q-7.032,8.446-14.068,16.891c-.734.882-.724,1.743-.01,2.314.68.544,1.509.4,2.214-.441q7.074-8.468,14.121-16.957A8.441,8.441,0,0,0-1476.644,5336.256Z" transform="translate(2359.626 -2171.36)" fill="#fff"/>
      <path id="Path_190496" data-name="Path 190496" d="M-1492.725,5368.573c-.532-.388-1.091-.6-1.265-.978a1.937,1.937,0,0,1,.032-1.483,10.2,10.2,0,0,1,1.333-1.746q11.505-14.216,23.013-28.429a5.267,5.267,0,0,1,.383-.453,1.449,1.449,0,0,1,1.991-.186,1.428,1.428,0,0,1,.229,1.983c-.6.823-1.261,1.6-1.9,2.391q-11.157,13.788-22.324,27.567A13.085,13.085,0,0,1-1492.725,5368.573Z" transform="translate(2359.626 -2171.36)" fill="#084a93"/>
      <path id="Path_190497" data-name="Path 190497" d="M-1462.135,5343.493a9.7,9.7,0,0,1-.7,1.29q-7.794,9.952-15.614,19.885a1.5,1.5,0,0,1-2.214.42,1.456,1.456,0,0,1-.074-2.186q7.826-9.982,15.663-19.955c.463-.59,1.061-.975,1.756-.634C-1462.851,5342.541-1462.537,5343.076-1462.135,5343.493Z" transform="translate(2359.626 -2171.36)" fill="#084a93"/>
      <path id="Path_190498" data-name="Path 190498" d="M-1476.644,5336.256a8.441,8.441,0,0,1-.7,1.273q-7.045,8.492-14.121,16.957c-.7.844-1.534.985-2.214.441-.714-.571-.724-1.432.01-2.314q7.031-8.449,14.068-16.891c.467-.56,1.039-1,1.752-.638A5.7,5.7,0,0,1-1476.644,5336.256Z" transform="translate(2359.626 -2171.36)" fill="#084a93"/>
    </g>
  </g>
</svg>
