<svg xmlns="http://www.w3.org/2000/svg" width="669" height="314" viewBox="0 0 669 314">
  <g id="_6" data-name="6" transform="translate(-673.5 -3744.5)">
    <rect id="Rectangle_293688" data-name="Rectangle 293688" width="667" height="312" rx="20" transform="translate(674.5 3745.5)" fill="none" stroke="#084a93" stroke-linecap="round" stroke-linejoin="round" stroke-width="2" stroke-dasharray="10 10"/>
    <g id="Group_131792" data-name="Group 131792">
      <path id="Path_192424" data-name="Path 192424" d="M10,0H300.924a10,10,0,0,1,10,10V31.729a10,10,0,0,1-10,10H10a10,10,0,0,1-10-10V10A10,10,0,0,1,10,0Z" transform="translate(853.096 3881.567)" fill="#ffb30b"/>
      <path id="Path_192425" data-name="Path 192425" d="M-43.251,0h-3.067V-5.344h-4.544V0h-3.085V-12.8h3.085v5.08h4.544V-12.8h3.067Zm6.39-7.242,2.355-5.555h3.331L-35.3-4.6V0h-3.129V-4.6l-4.113-8.2h3.313Zm9.7,2.9V0h-3.085V-12.8h5.106a5.948,5.948,0,0,1,2.6.541,4.074,4.074,0,0,1,1.749,1.538,4.2,4.2,0,0,1,.62,2.263,3.7,3.7,0,0,1-1.34,2.993,5.561,5.561,0,0,1-3.678,1.121Zm0-2.382h2.021a1.906,1.906,0,0,0,1.367-.448,1.665,1.665,0,0,0,.47-1.266,2.059,2.059,0,0,0-.483-1.433,1.712,1.712,0,0,0-1.318-.545h-2.057Zm16.567,1.292h-4.852v3.059h5.73V0h-8.815V-12.8h8.833v2.382h-5.748v2.7h4.852Zm6.891.905H-5.37V0H-8.455V-12.8h5.036a5.621,5.621,0,0,1,3.56,1.01A3.421,3.421,0,0,1,1.424-8.934,4.155,4.155,0,0,1,.883-6.721,3.837,3.837,0,0,1-.809-5.3L1.863-.132V0h-3.3ZM-5.37-6.9h1.951A1.751,1.751,0,0,0-2.1-7.362a1.788,1.788,0,0,0,.444-1.291,1.809,1.809,0,0,0-.448-1.3,1.735,1.735,0,0,0-1.318-.471H-5.37ZM8.086-3.48,10.635-12.8H14.08L9.773,0H6.4L2.127-12.8H5.546ZM18.3,0H15.223V-12.8H18.3Zm8.745-3.4a1.268,1.268,0,0,0-.479-1.055,5.954,5.954,0,0,0-1.683-.782,16.147,16.147,0,0,1-1.969-.782q-2.487-1.222-2.487-3.357a3.011,3.011,0,0,1,.62-1.876A4.008,4.008,0,0,1,22.8-12.52a6.823,6.823,0,0,1,2.549-.453,5.969,5.969,0,0,1,2.474.492,3.917,3.917,0,0,1,1.7,1.4A3.661,3.661,0,0,1,30.129-9H27.053a1.547,1.547,0,0,0-.479-1.213,1.867,1.867,0,0,0-1.3-.431,2.106,2.106,0,0,0-1.305.365,1.119,1.119,0,0,0-.479.927,1.127,1.127,0,0,0,.527.892,6.65,6.65,0,0,0,1.854.826,11.36,11.36,0,0,1,2.18.918,3.663,3.663,0,0,1,2.074,3.3A3.125,3.125,0,0,1,28.863-.782a5.629,5.629,0,0,1-3.472.958,6.888,6.888,0,0,1-2.817-.558,4.247,4.247,0,0,1-1.9-1.529,3.985,3.985,0,0,1-.637-2.237h3.094a1.963,1.963,0,0,0,.532,1.516,2.513,2.513,0,0,0,1.727.488,1.985,1.985,0,0,0,1.208-.33A1.088,1.088,0,0,0,27.044-3.4Zm15.5-2.733a7.546,7.546,0,0,1-.694,3.313A5.132,5.132,0,0,1,39.88-.6a5.494,5.494,0,0,1-2.914.778,5.572,5.572,0,0,1-2.9-.751,5.123,5.123,0,0,1-1.973-2.149,7.329,7.329,0,0,1-.743-3.208v-.721a7.58,7.58,0,0,1,.69-3.318,5.119,5.119,0,0,1,1.978-2.219,5.533,5.533,0,0,1,2.931-.782,5.479,5.479,0,0,1,2.9.773A5.211,5.211,0,0,1,41.832-10a7.362,7.362,0,0,1,.716,3.274ZM39.41-6.671a5.381,5.381,0,0,0-.637-2.9,2.044,2.044,0,0,0-1.824-.989q-2.32,0-2.452,3.48l-.009.94a5.535,5.535,0,0,0,.624,2.892,2.041,2.041,0,0,0,1.854,1.011,2.016,2.016,0,0,0,1.8-.993,5.383,5.383,0,0,0,.642-2.856Zm9.483,2.145h-1.67V0H44.139V-12.8h5.036a5.621,5.621,0,0,1,3.56,1.01,3.421,3.421,0,0,1,1.283,2.853,4.155,4.155,0,0,1-.541,2.213A3.837,3.837,0,0,1,51.785-5.3L54.457-.132V0h-3.3ZM47.224-6.9h1.951A1.751,1.751,0,0,0,50.5-7.362a1.788,1.788,0,0,0,.444-1.291,1.809,1.809,0,0,0-.448-1.3,1.735,1.735,0,0,0-1.318-.471H47.224Z" transform="translate(1008.096 3907.567)" fill="#12263f"/>
      <path id="Path_190499" data-name="Path 190499" d="M-1476.1,6028.282c-.247-.571-.522-2.864-.787-3.428v-12.606a23.6,23.6,0,0,1,.818-2.654c1.906-4.362,3.895-8.687,5.774-13.06a4.831,4.831,0,0,1,3.213-3.132h45.587a4.831,4.831,0,0,1,3.213,3.137c1.862,4.34,3.812,8.642,5.74,12.953a9.5,9.5,0,0,1,.854,3.943q-.008,5.282,0,10.564c0,.9-.221,3.443-.721,4.194Zm2.559-18.109h58.484c-.072-.186-.12-.322-.178-.454q-2.835-6.388-5.666-12.779a1.577,1.577,0,0,0-1.652-1q-21.735.019-43.47,0a1.647,1.647,0,0,0-1.706,1.117c-1.578,3.609-3.193,7.2-4.793,10.8C-1472.857,6008.607-1473.185,6009.36-1473.542,6010.172Zm-.765,2.6c-.014.266-.034.474-.034.681q0,5.251,0,10.5c0,1.08.465,1.534,1.567,1.534h56.964c1.123,0,1.57-.456,1.571-1.594q0-5.219,0-10.438c0-.224-.021-.448-.034-.684Z" transform="translate(2373.641 -1999.797)" fill="#084a93"/>
      <path id="Path_190500" data-name="Path 190500" d="M-1473.137,6010.479c.357-.812.685-1.565,1.019-2.316,1.6-3.6,3.215-7.194,4.793-10.8a1.647,1.647,0,0,1,1.706-1.117q21.735.024,43.47,0a1.577,1.577,0,0,1,1.652,1q2.817,6.4,5.666,12.779c.059.132.106.269.178.454Z" transform="translate(2373.236 -2000.104)" fill="#fff"/>
      <path id="Path_190501" data-name="Path 190501" d="M-1474,6015.116h60.032c.012.236.034.46.034.684q0,5.22,0,10.438c0,1.138-.448,1.594-1.571,1.594h-56.964c-1.1,0-1.566-.454-1.567-1.534q-.005-5.251,0-10.5C-1474.032,6015.59-1474.013,6015.382-1474,6015.116Zm54.972,6.374a3.829,3.829,0,0,0-3.779-3.841,3.826,3.826,0,0,0-3.857,3.761,3.831,3.831,0,0,0,3.81,3.875A3.833,3.833,0,0,0-1419.026,6021.49Zm-46.1-1.3c-.8,0-1.609-.009-2.412,0a1.288,1.288,0,0,0-1.4,1.241,1.287,1.287,0,0,0,1.406,1.3q2.411.016,4.823,0a1.285,1.285,0,0,0,1.4-1.24,1.291,1.291,0,0,0-1.406-1.3C-1463.515,6020.185-1464.318,6020.194-1465.122,6020.194Zm10.188,0c-.8,0-1.608-.009-2.411,0a1.288,1.288,0,0,0-1.4,1.24,1.285,1.285,0,0,0,1.4,1.3q2.411.016,4.824,0a1.287,1.287,0,0,0,1.4-1.239,1.292,1.292,0,0,0-1.405-1.3C-1453.327,6020.185-1454.131,6020.194-1454.934,6020.194Zm8.91,1.274a1.284,1.284,0,0,0-1.235-1.27,1.28,1.28,0,0,0-1.3,1.265,1.285,1.285,0,0,0,1.234,1.272A1.285,1.285,0,0,0-1446.024,6021.468Z" transform="translate(2373.333 -2002.141)" fill="#fff"/>
      <path id="Path_190502" data-name="Path 190502" d="M-1413.3,6021.8a3.834,3.834,0,0,1-3.826,3.795,3.832,3.832,0,0,1-3.81-3.876,3.826,3.826,0,0,1,3.857-3.761A3.829,3.829,0,0,1-1413.3,6021.8Zm-3.8-1.292a1.284,1.284,0,0,0-1.292,1.212,1.285,1.285,0,0,0,1.245,1.325,1.284,1.284,0,0,0,1.293-1.277A1.283,1.283,0,0,0-1417.091,6020.5Z" transform="translate(2367.603 -2002.447)" fill="#084a93"/>
      <path id="Path_190503" data-name="Path 190503" d="M-1464.505,6020.808c.8,0,1.608-.009,2.411,0a1.291,1.291,0,0,1,1.406,1.3,1.285,1.285,0,0,1-1.4,1.24q-2.411.016-4.823,0a1.287,1.287,0,0,1-1.406-1.3,1.288,1.288,0,0,1,1.4-1.241C-1466.114,6020.8-1465.309,6020.808-1464.505,6020.808Z" transform="translate(2372.717 -2002.754)" fill="#084a93"/>
      <path id="Path_190504" data-name="Path 190504" d="M-1453.085,6020.808c.8,0,1.608-.009,2.411,0a1.292,1.292,0,0,1,1.405,1.3,1.287,1.287,0,0,1-1.4,1.239q-2.413.016-4.824,0a1.285,1.285,0,0,1-1.4-1.3,1.288,1.288,0,0,1,1.4-1.24C-1454.693,6020.8-1453.889,6020.808-1453.085,6020.808Z" transform="translate(2371.484 -2002.754)" fill="#084a93"/>
      <path id="Path_190505" data-name="Path 190505" d="M-1442.943,6022.083a1.285,1.285,0,0,1-1.3,1.268,1.285,1.285,0,0,1-1.234-1.272,1.28,1.28,0,0,1,1.3-1.265A1.284,1.284,0,0,1-1442.943,6022.083Z" transform="translate(2370.252 -2002.755)" fill="#084a93"/>
      <path id="Path_190506" data-name="Path 190506" d="M-1416.782,6020.813a1.283,1.283,0,0,1,1.245,1.26,1.285,1.285,0,0,1-1.293,1.278,1.285,1.285,0,0,1-1.245-1.325A1.284,1.284,0,0,1-1416.782,6020.813Z" transform="translate(2367.295 -2002.755)" fill="#fff"/>
      <path id="Path_190507" data-name="Path 190507" d="M-1536.343,5982.522c-.247-.571-.522-2.866-.787-3.429v-12.606a23.706,23.706,0,0,1,.819-2.653c1.905-4.362,3.895-8.688,5.775-13.061a4.829,4.829,0,0,1,3.211-3.132h45.588a4.83,4.83,0,0,1,3.213,3.137c1.862,4.339,3.811,8.642,5.74,12.953a9.494,9.494,0,0,1,.854,3.943q-.01,5.282,0,10.564c0,.9-.221,3.444-.721,4.2Zm2.56-18.11h58.483c-.072-.185-.12-.322-.177-.453q-2.836-6.388-5.666-12.779a1.576,1.576,0,0,0-1.652-1q-21.735.019-43.47,0a1.646,1.646,0,0,0-1.706,1.117c-1.579,3.609-3.194,7.2-4.793,10.8C-1533.1,5962.848-1533.426,5963.6-1533.783,5964.412Zm-.765,2.6c-.013.266-.033.474-.033.682q0,5.251,0,10.5c0,1.079.465,1.532,1.566,1.532q28.482,0,56.964,0c1.123,0,1.57-.456,1.571-1.593q0-5.221,0-10.438c0-.224-.021-.448-.034-.685Z" transform="translate(2380.141 -1994.859)" fill="#084a93"/>
      <path id="Path_190508" data-name="Path 190508" d="M-1533.378,5964.718c.357-.811.684-1.564,1.019-2.315,1.6-3.6,3.214-7.194,4.793-10.8a1.646,1.646,0,0,1,1.706-1.117q21.735.024,43.47,0a1.576,1.576,0,0,1,1.652,1q2.815,6.4,5.666,12.779c.058.131.105.268.177.453Z" transform="translate(2379.736 -1995.166)" fill="#fff"/>
      <path id="Path_190509" data-name="Path 190509" d="M-1534.24,5969.356h60.033c.013.237.034.46.034.685q0,5.219,0,10.438c0,1.137-.448,1.593-1.571,1.593q-28.482,0-56.964,0c-1.1,0-1.566-.453-1.566-1.532q-.005-5.251,0-10.5C-1534.273,5969.83-1534.254,5969.622-1534.24,5969.356Zm54.973,6.373a3.831,3.831,0,0,0-3.779-3.841,3.827,3.827,0,0,0-3.857,3.762,3.828,3.828,0,0,0,3.809,3.874A3.833,3.833,0,0,0-1479.267,5975.729Zm-46.1-1.3c-.8,0-1.608-.008-2.411,0a1.288,1.288,0,0,0-1.4,1.24,1.286,1.286,0,0,0,1.405,1.3q2.413.017,4.823,0a1.287,1.287,0,0,0,1.4-1.241,1.292,1.292,0,0,0-1.406-1.3C-1523.756,5974.425-1524.559,5974.433-1525.364,5974.433Zm10.189,0c-.8,0-1.608-.008-2.412,0a1.289,1.289,0,0,0-1.4,1.239,1.286,1.286,0,0,0,1.405,1.3q2.411.017,4.823,0a1.287,1.287,0,0,0,1.4-1.24,1.291,1.291,0,0,0-1.405-1.3C-1513.568,5974.425-1514.372,5974.433-1515.175,5974.433Zm8.909,1.276a1.284,1.284,0,0,0-1.234-1.271,1.281,1.281,0,0,0-1.3,1.267,1.282,1.282,0,0,0,1.234,1.271A1.283,1.283,0,0,0-1506.266,5975.708Z" transform="translate(2379.833 -1997.203)" fill="#fff"/>
      <path id="Path_190510" data-name="Path 190510" d="M-1473.537,5976.035a3.833,3.833,0,0,1-3.827,3.795,3.829,3.829,0,0,1-3.809-3.874,3.827,3.827,0,0,1,3.857-3.762A3.83,3.83,0,0,1-1473.537,5976.035Zm-3.795-1.292a1.285,1.285,0,0,0-1.292,1.214,1.284,1.284,0,0,0,1.244,1.324,1.285,1.285,0,0,0,1.293-1.277A1.285,1.285,0,0,0-1477.332,5974.743Z" transform="translate(2374.103 -1997.509)" fill="#084a93"/>
      <path id="Path_190511" data-name="Path 190511" d="M-1524.747,5975.046c.8,0,1.608-.008,2.412,0a1.292,1.292,0,0,1,1.406,1.3,1.287,1.287,0,0,1-1.4,1.241q-2.411.017-4.823,0a1.286,1.286,0,0,1-1.405-1.3,1.288,1.288,0,0,1,1.4-1.24C-1526.355,5975.039-1525.551,5975.046-1524.747,5975.046Z" transform="translate(2379.216 -1997.816)" fill="#084a93"/>
      <path id="Path_190512" data-name="Path 190512" d="M-1513.326,5975.046c.8,0,1.607-.008,2.411,0a1.291,1.291,0,0,1,1.405,1.3,1.287,1.287,0,0,1-1.4,1.24q-2.411.017-4.823,0a1.286,1.286,0,0,1-1.405-1.3,1.289,1.289,0,0,1,1.4-1.239C-1514.935,5975.039-1514.13,5975.046-1513.326,5975.046Z" transform="translate(2377.984 -1997.816)" fill="#084a93"/>
      <path id="Path_190513" data-name="Path 190513" d="M-1503.185,5976.323a1.283,1.283,0,0,1-1.3,1.266,1.282,1.282,0,0,1-1.234-1.271,1.281,1.281,0,0,1,1.3-1.267A1.284,1.284,0,0,1-1503.185,5976.323Z" transform="translate(2376.752 -1997.817)" fill="#084a93"/>
      <path id="Path_190514" data-name="Path 190514" d="M-1477.023,5975.052a1.285,1.285,0,0,1,1.245,1.261,1.285,1.285,0,0,1-1.293,1.277,1.284,1.284,0,0,1-1.244-1.324A1.285,1.285,0,0,1-1477.023,5975.052Z" transform="translate(2373.794 -1997.817)" fill="#fff"/>
      <path id="Path_190515" data-name="Path 190515" d="M-1417.288,5973.793c-.247-.572-.522-2.866-.787-3.429v-12.606a23.693,23.693,0,0,1,.818-2.654c1.905-4.361,3.9-8.687,5.775-13.06a4.832,4.832,0,0,1,3.211-3.132h45.587a4.833,4.833,0,0,1,3.214,3.137c1.862,4.34,3.811,8.643,5.74,12.953a9.494,9.494,0,0,1,.853,3.943q-.008,5.281,0,10.564c0,.9-.222,3.444-.722,4.194Zm2.559-18.11h58.484c-.072-.186-.12-.322-.177-.454q-2.836-6.388-5.667-12.778a1.575,1.575,0,0,0-1.652-1q-21.734.019-43.469,0a1.648,1.648,0,0,0-1.706,1.118c-1.579,3.609-3.194,7.2-4.794,10.8C-1414.044,5954.118-1414.372,5954.872-1414.729,5955.683Zm-.765,2.6c-.013.265-.033.473-.034.681q0,5.25,0,10.5c0,1.08.466,1.533,1.567,1.533H-1357c1.122,0,1.57-.456,1.571-1.594q0-5.219,0-10.437c0-.225-.022-.449-.034-.685Z" transform="translate(2367.294 -1993.917)" fill="#084a93"/>
      <path id="Path_190516" data-name="Path 190516" d="M-1414.324,5955.989c.357-.811.685-1.565,1.019-2.315,1.6-3.6,3.215-7.194,4.794-10.8a1.648,1.648,0,0,1,1.706-1.118q21.734.024,43.469,0a1.575,1.575,0,0,1,1.652,1q2.817,6.4,5.667,12.778c.058.132.105.269.177.454Z" transform="translate(2366.889 -1994.224)" fill="#fff"/>
      <path id="Path_190517" data-name="Path 190517" d="M-1415.185,5960.627h60.033c.012.236.034.459.034.685q0,5.219,0,10.438c0,1.138-.449,1.594-1.571,1.594h-56.963c-1.1,0-1.566-.453-1.567-1.533q-.005-5.251,0-10.5C-1415.218,5961.1-1415.2,5960.892-1415.185,5960.627Zm54.972,6.373a3.828,3.828,0,0,0-3.778-3.841,3.827,3.827,0,0,0-3.858,3.762,3.829,3.829,0,0,0,3.809,3.874A3.832,3.832,0,0,0-1360.213,5967Zm-46.1-1.3c-.8,0-1.608-.009-2.411,0a1.288,1.288,0,0,0-1.4,1.24,1.287,1.287,0,0,0,1.405,1.3q2.411.015,4.824,0a1.285,1.285,0,0,0,1.4-1.241,1.29,1.29,0,0,0-1.405-1.3C-1404.7,5965.7-1405.505,5965.7-1406.309,5965.7Zm10.188,0c-.8,0-1.608-.009-2.411,0a1.288,1.288,0,0,0-1.4,1.239,1.287,1.287,0,0,0,1.4,1.3q2.411.017,4.823,0a1.286,1.286,0,0,0,1.4-1.24,1.29,1.29,0,0,0-1.4-1.3C-1394.513,5965.7-1395.317,5965.7-1396.121,5965.7Zm8.91,1.275a1.284,1.284,0,0,0-1.235-1.271,1.28,1.28,0,0,0-1.3,1.265,1.284,1.284,0,0,0,1.234,1.272A1.283,1.283,0,0,0-1387.211,5966.979Z" transform="translate(2366.986 -1996.261)" fill="#fff"/>
      <path id="Path_190518" data-name="Path 190518" d="M-1354.483,5967.306a3.832,3.832,0,0,1-3.826,3.795,3.829,3.829,0,0,1-3.809-3.874,3.827,3.827,0,0,1,3.858-3.762A3.828,3.828,0,0,1-1354.483,5967.306Zm-3.794-1.292a1.283,1.283,0,0,0-1.292,1.213,1.284,1.284,0,0,0,1.245,1.324,1.284,1.284,0,0,0,1.292-1.278A1.282,1.282,0,0,0-1358.277,5966.015Z" transform="translate(2361.256 -1996.567)" fill="#084a93"/>
      <path id="Path_190519" data-name="Path 190519" d="M-1405.692,5966.318c.8,0,1.608-.009,2.412,0a1.29,1.29,0,0,1,1.405,1.3,1.285,1.285,0,0,1-1.4,1.241q-2.411.015-4.824,0a1.287,1.287,0,0,1-1.405-1.3,1.288,1.288,0,0,1,1.4-1.24C-1407.3,5966.309-1406.5,5966.318-1405.692,5966.318Z" transform="translate(2366.369 -1996.875)" fill="#084a93"/>
      <path id="Path_190520" data-name="Path 190520" d="M-1394.272,5966.318c.8,0,1.608-.009,2.412,0a1.29,1.29,0,0,1,1.4,1.3,1.286,1.286,0,0,1-1.4,1.24q-2.411.015-4.823,0a1.287,1.287,0,0,1-1.4-1.3,1.288,1.288,0,0,1,1.4-1.239C-1395.88,5966.309-1395.076,5966.318-1394.272,5966.318Z" transform="translate(2365.137 -1996.875)" fill="#084a93"/>
      <path id="Path_190521" data-name="Path 190521" d="M-1384.13,5967.594a1.283,1.283,0,0,1-1.3,1.267,1.284,1.284,0,0,1-1.234-1.272,1.28,1.28,0,0,1,1.3-1.265A1.284,1.284,0,0,1-1384.13,5967.594Z" transform="translate(2363.904 -1996.875)" fill="#084a93"/>
      <path id="Path_190522" data-name="Path 190522" d="M-1357.968,5966.323a1.282,1.282,0,0,1,1.245,1.259,1.284,1.284,0,0,1-1.292,1.278,1.284,1.284,0,0,1-1.245-1.324A1.283,1.283,0,0,1-1357.968,5966.323Z" transform="translate(2360.947 -1996.876)" fill="#fff"/>
      <path id="Path_190523" data-name="Path 190523" d="M-1302.2,5962.972c-.247-.571-.522-2.865-.787-3.428v-12.607a23.556,23.556,0,0,1,.818-2.653c1.906-4.362,3.895-8.687,5.775-13.06a4.83,4.83,0,0,1,3.212-3.133h45.587a4.829,4.829,0,0,1,3.213,3.136c1.862,4.341,3.812,8.643,5.741,12.953a9.513,9.513,0,0,1,.853,3.943q-.008,5.284,0,10.564c0,.9-.221,3.444-.721,4.2Zm2.559-18.11h58.484c-.072-.186-.12-.322-.178-.453q-2.835-6.39-5.666-12.779a1.577,1.577,0,0,0-1.652-1q-21.735.019-43.47,0a1.646,1.646,0,0,0-1.706,1.116c-1.578,3.609-3.193,7.2-4.793,10.8C-1298.953,5943.3-1299.281,5944.051-1299.638,5944.861Zm-.765,2.6c-.013.265-.034.474-.034.682q0,5.251,0,10.5c0,1.08.465,1.533,1.567,1.533q28.482,0,56.964,0c1.122,0,1.569-.456,1.57-1.595q0-5.218,0-10.437c0-.225-.021-.449-.034-.685Z" transform="translate(2354.875 -1992.75)" fill="#084a93"/>
      <path id="Path_190524" data-name="Path 190524" d="M-1299.233,5945.168c.357-.811.685-1.564,1.019-2.315,1.6-3.6,3.215-7.194,4.793-10.8a1.646,1.646,0,0,1,1.706-1.117q21.736.024,43.47,0a1.576,1.576,0,0,1,1.652,1q2.817,6.4,5.666,12.779c.059.131.106.268.178.454Z" transform="translate(2354.47 -1993.057)" fill="#fff"/>
      <path id="Path_190525" data-name="Path 190525" d="M-1300.094,5949.807h60.032c.013.235.034.46.034.684q0,5.219,0,10.437c0,1.139-.448,1.595-1.57,1.595q-28.482,0-56.964,0c-1.1,0-1.566-.454-1.567-1.533q-.005-5.251,0-10.5C-1300.128,5950.28-1300.108,5950.071-1300.094,5949.807Zm54.972,6.373a3.83,3.83,0,0,0-3.779-3.842,3.828,3.828,0,0,0-3.857,3.762,3.83,3.83,0,0,0,3.81,3.875A3.832,3.832,0,0,0-1245.122,5956.18Zm-46.1-1.3c-.8,0-1.609-.008-2.412,0a1.289,1.289,0,0,0-1.4,1.24,1.287,1.287,0,0,0,1.406,1.3q2.411.015,4.823,0a1.287,1.287,0,0,0,1.4-1.241,1.291,1.291,0,0,0-1.406-1.3C-1289.61,5954.875-1290.414,5954.883-1291.218,5954.883Zm10.188,0c-.8,0-1.608-.008-2.411,0a1.288,1.288,0,0,0-1.4,1.239,1.287,1.287,0,0,0,1.4,1.3q2.411.015,4.823,0a1.287,1.287,0,0,0,1.4-1.24,1.291,1.291,0,0,0-1.405-1.3C-1279.423,5954.875-1280.227,5954.883-1281.03,5954.883Zm8.91,1.275a1.284,1.284,0,0,0-1.235-1.271,1.28,1.28,0,0,0-1.3,1.265,1.284,1.284,0,0,0,1.234,1.272A1.284,1.284,0,0,0-1272.12,5956.159Z" transform="translate(2354.566 -1995.094)" fill="#fff"/>
      <path id="Path_190526" data-name="Path 190526" d="M-1239.392,5956.486a3.832,3.832,0,0,1-3.826,3.795,3.83,3.83,0,0,1-3.81-3.875,3.828,3.828,0,0,1,3.857-3.762A3.83,3.83,0,0,1-1239.392,5956.486Zm-3.8-1.292a1.285,1.285,0,0,0-1.292,1.213,1.285,1.285,0,0,0,1.245,1.324,1.284,1.284,0,0,0,1.293-1.276A1.283,1.283,0,0,0-1243.187,5955.194Z" transform="translate(2348.836 -1995.399)" fill="#084a93"/>
      <path id="Path_190527" data-name="Path 190527" d="M-1290.6,5955.5c.8,0,1.608-.009,2.411,0a1.291,1.291,0,0,1,1.406,1.3,1.286,1.286,0,0,1-1.4,1.241q-2.411.016-4.823,0a1.287,1.287,0,0,1-1.406-1.3,1.289,1.289,0,0,1,1.4-1.24C-1292.21,5955.488-1291.405,5955.5-1290.6,5955.5Z" transform="translate(2353.949 -1995.707)" fill="#084a93"/>
      <path id="Path_190528" data-name="Path 190528" d="M-1279.181,5955.5c.8,0,1.608-.009,2.411,0a1.291,1.291,0,0,1,1.405,1.3,1.287,1.287,0,0,1-1.4,1.24q-2.413.016-4.823,0a1.287,1.287,0,0,1-1.4-1.3,1.289,1.289,0,0,1,1.4-1.239C-1280.789,5955.488-1279.985,5955.5-1279.181,5955.5Z" transform="translate(2352.718 -1995.707)" fill="#084a93"/>
      <path id="Path_190529" data-name="Path 190529" d="M-1269.039,5956.773a1.284,1.284,0,0,1-1.3,1.266,1.284,1.284,0,0,1-1.234-1.272,1.28,1.28,0,0,1,1.3-1.265A1.284,1.284,0,0,1-1269.039,5956.773Z" transform="translate(2351.485 -1995.708)" fill="#084a93"/>
      <path id="Path_190530" data-name="Path 190530" d="M-1242.878,5955.5a1.284,1.284,0,0,1,1.245,1.261,1.284,1.284,0,0,1-1.293,1.276,1.285,1.285,0,0,1-1.244-1.324A1.285,1.285,0,0,1-1242.878,5955.5Z" transform="translate(2348.528 -1995.708)" fill="#fff"/>
      <path id="Path_190531" data-name="Path 190531" d="M-1240.539,6015.636c-.247-.571-.522-2.865-.787-3.429V5999.6a23.83,23.83,0,0,1,.818-2.654c1.906-4.361,3.9-8.687,5.775-13.06a4.832,4.832,0,0,1,3.212-3.132h45.587a4.831,4.831,0,0,1,3.214,3.137c1.862,4.34,3.811,8.643,5.74,12.953a9.5,9.5,0,0,1,.853,3.943q-.008,5.282,0,10.564c0,.9-.222,3.445-.722,4.195Zm2.559-18.11h58.484c-.072-.186-.12-.322-.177-.453q-2.836-6.39-5.667-12.779a1.576,1.576,0,0,0-1.652-1q-21.734.018-43.469,0a1.644,1.644,0,0,0-1.706,1.117c-1.579,3.609-3.194,7.2-4.794,10.8C-1237.295,5995.96-1237.623,5996.714-1237.98,5997.525Zm-.765,2.6c-.013.265-.033.473-.034.68q0,5.251,0,10.5c0,1.08.466,1.534,1.567,1.534q28.482,0,56.964,0c1.122,0,1.57-.456,1.57-1.594q0-5.219,0-10.438c0-.225-.022-.448-.034-.684Z" transform="translate(2348.221 -1998.433)" fill="#084a93"/>
      <path id="Path_190532" data-name="Path 190532" d="M-1237.575,5997.832c.357-.811.685-1.565,1.019-2.315,1.6-3.6,3.215-7.194,4.794-10.8a1.644,1.644,0,0,1,1.706-1.117q21.734.022,43.469,0a1.576,1.576,0,0,1,1.652,1q2.817,6.4,5.667,12.779c.058.131.105.268.177.453Z" transform="translate(2347.816 -1998.739)" fill="#fff"/>
      <path id="Path_190533" data-name="Path 190533" d="M-1238.436,6002.47h60.033c.011.235.034.459.034.684q0,5.219,0,10.438c0,1.138-.448,1.594-1.57,1.594q-28.482,0-56.964,0c-1.1,0-1.565-.454-1.566-1.534q-.005-5.251,0-10.5C-1238.469,6002.943-1238.45,6002.735-1238.436,6002.47Zm54.972,6.373a3.828,3.828,0,0,0-3.779-3.841,3.826,3.826,0,0,0-3.856,3.762,3.829,3.829,0,0,0,3.809,3.875A3.832,3.832,0,0,0-1183.464,6008.843Zm-46.1-1.3c-.8,0-1.608-.009-2.411,0a1.287,1.287,0,0,0-1.4,1.24,1.287,1.287,0,0,0,1.405,1.3q2.411.016,4.823,0a1.286,1.286,0,0,0,1.4-1.241,1.29,1.29,0,0,0-1.406-1.3C-1227.952,6007.538-1228.756,6007.547-1229.56,6007.547Zm10.188,0c-.8,0-1.608-.009-2.411,0a1.287,1.287,0,0,0-1.4,1.239,1.287,1.287,0,0,0,1.4,1.3q2.411.016,4.823,0a1.286,1.286,0,0,0,1.4-1.24,1.289,1.289,0,0,0-1.4-1.3C-1217.764,6007.538-1218.568,6007.547-1219.372,6007.547Zm8.91,1.274a1.283,1.283,0,0,0-1.235-1.27,1.281,1.281,0,0,0-1.3,1.265,1.283,1.283,0,0,0,1.234,1.272A1.284,1.284,0,0,0-1210.462,6008.821Z" transform="translate(2347.912 -2000.776)" fill="#fff"/>
      <path id="Path_190534" data-name="Path 190534" d="M-1177.734,6009.149a3.831,3.831,0,0,1-3.826,3.795,3.828,3.828,0,0,1-3.809-3.874,3.826,3.826,0,0,1,3.856-3.762A3.828,3.828,0,0,1-1177.734,6009.149Zm-3.794-1.292a1.283,1.283,0,0,0-1.292,1.214,1.283,1.283,0,0,0,1.245,1.323,1.283,1.283,0,0,0,1.292-1.277A1.283,1.283,0,0,0-1181.528,6007.857Z" transform="translate(2342.182 -2001.083)" fill="#084a93"/>
      <path id="Path_190535" data-name="Path 190535" d="M-1228.943,6008.161c.8,0,1.609-.009,2.411,0a1.29,1.29,0,0,1,1.406,1.3,1.286,1.286,0,0,1-1.4,1.241q-2.411.015-4.823,0a1.287,1.287,0,0,1-1.405-1.3,1.287,1.287,0,0,1,1.4-1.24C-1230.551,6008.151-1229.747,6008.161-1228.943,6008.161Z" transform="translate(2347.296 -2001.39)" fill="#084a93"/>
      <path id="Path_190536" data-name="Path 190536" d="M-1217.523,6008.161c.8,0,1.608-.009,2.412,0a1.289,1.289,0,0,1,1.4,1.3,1.286,1.286,0,0,1-1.4,1.24q-2.411.015-4.823,0a1.287,1.287,0,0,1-1.4-1.3,1.287,1.287,0,0,1,1.4-1.239C-1219.131,6008.151-1218.327,6008.161-1217.523,6008.161Z" transform="translate(2346.063 -2001.39)" fill="#084a93"/>
      <path id="Path_190537" data-name="Path 190537" d="M-1207.381,6009.436a1.284,1.284,0,0,1-1.3,1.267,1.283,1.283,0,0,1-1.234-1.272,1.281,1.281,0,0,1,1.3-1.265A1.283,1.283,0,0,1-1207.381,6009.436Z" transform="translate(2344.831 -2001.391)" fill="#084a93"/>
      <path id="Path_190538" data-name="Path 190538" d="M-1181.219,6008.166a1.283,1.283,0,0,1,1.245,1.26,1.284,1.284,0,0,1-1.292,1.277,1.283,1.283,0,0,1-1.245-1.324A1.283,1.283,0,0,1-1181.219,6008.166Z" transform="translate(2341.874 -2001.391)" fill="#fff"/>
      <path id="Path_190539" data-name="Path 190539" d="M-1347.059,6044.7c-.247-.571-.522-2.865-.787-3.428v-12.607a23.815,23.815,0,0,1,.818-2.653c1.906-4.363,3.9-8.688,5.775-13.061a4.83,4.83,0,0,1,3.212-3.132h45.587a4.831,4.831,0,0,1,3.214,3.136c1.862,4.34,3.811,8.643,5.74,12.954a9.492,9.492,0,0,1,.853,3.942q-.008,5.283,0,10.564c0,.9-.221,3.444-.721,4.2Zm2.559-18.11h58.484c-.072-.185-.12-.323-.178-.454q-2.835-6.388-5.666-12.779a1.576,1.576,0,0,0-1.653-1q-21.734.018-43.469,0a1.646,1.646,0,0,0-1.706,1.117c-1.579,3.609-3.194,7.2-4.794,10.8C-1343.815,6025.028-1344.143,6025.781-1344.5,6026.593Zm-.765,2.6c-.013.266-.033.474-.033.681q0,5.251,0,10.5c0,1.079.465,1.532,1.567,1.532q28.481,0,56.964,0c1.123,0,1.57-.456,1.571-1.594q0-5.219,0-10.437c0-.224-.022-.448-.034-.685Z" transform="translate(2359.715 -2001.569)" fill="#084a93"/>
      <path id="Path_190540" data-name="Path 190540" d="M-1344.095,6026.9c.357-.812.685-1.565,1.019-2.315,1.6-3.6,3.215-7.194,4.794-10.8a1.646,1.646,0,0,1,1.706-1.117q21.734.024,43.469,0a1.576,1.576,0,0,1,1.653,1q2.815,6.4,5.666,12.779c.058.131.105.269.178.454Z" transform="translate(2359.311 -2001.876)" fill="#fff"/>
      <path id="Path_190541" data-name="Path 190541" d="M-1344.956,6031.537h60.033c.011.236.034.46.034.685q0,5.219,0,10.437c0,1.138-.448,1.594-1.571,1.594q-28.482,0-56.964,0c-1.1,0-1.566-.453-1.567-1.532q-.007-5.251,0-10.5C-1344.989,6032.011-1344.97,6031.8-1344.956,6031.537Zm54.972,6.373a3.829,3.829,0,0,0-3.778-3.841,3.827,3.827,0,0,0-3.857,3.762,3.829,3.829,0,0,0,3.809,3.875A3.832,3.832,0,0,0-1289.984,6037.91Zm-46.1-1.3c-.8,0-1.608-.008-2.411,0a1.288,1.288,0,0,0-1.4,1.24,1.286,1.286,0,0,0,1.405,1.3q2.411.016,4.824,0a1.285,1.285,0,0,0,1.4-1.241,1.291,1.291,0,0,0-1.405-1.3C-1334.472,6036.606-1335.276,6036.614-1336.08,6036.614Zm10.188,0c-.8,0-1.609-.008-2.412,0a1.288,1.288,0,0,0-1.4,1.239,1.286,1.286,0,0,0,1.4,1.3q2.411.016,4.823,0a1.287,1.287,0,0,0,1.4-1.24,1.292,1.292,0,0,0-1.405-1.3C-1324.284,6036.606-1325.088,6036.614-1325.891,6036.614Zm8.909,1.276a1.284,1.284,0,0,0-1.235-1.271,1.281,1.281,0,0,0-1.3,1.266,1.284,1.284,0,0,0,1.235,1.271A1.284,1.284,0,0,0-1316.982,6037.89Z" transform="translate(2359.407 -2003.913)" fill="#fff"/>
      <path id="Path_190542" data-name="Path 190542" d="M-1284.254,6038.216a3.832,3.832,0,0,1-3.826,3.795,3.829,3.829,0,0,1-3.809-3.875,3.827,3.827,0,0,1,3.857-3.762A3.829,3.829,0,0,1-1284.254,6038.216Zm-3.794-1.292a1.285,1.285,0,0,0-1.292,1.213,1.284,1.284,0,0,0,1.245,1.324,1.284,1.284,0,0,0,1.292-1.277A1.283,1.283,0,0,0-1288.048,6036.924Z" transform="translate(2353.677 -2004.219)" fill="#084a93"/>
      <path id="Path_190543" data-name="Path 190543" d="M-1335.463,6037.228c.8,0,1.608-.008,2.412,0a1.291,1.291,0,0,1,1.405,1.3,1.285,1.285,0,0,1-1.4,1.241q-2.411.016-4.824,0a1.286,1.286,0,0,1-1.405-1.3,1.288,1.288,0,0,1,1.4-1.24C-1337.071,6037.22-1336.267,6037.228-1335.463,6037.228Z" transform="translate(2358.791 -2004.526)" fill="#084a93"/>
      <path id="Path_190544" data-name="Path 190544" d="M-1324.042,6037.228c.8,0,1.608-.008,2.411,0a1.292,1.292,0,0,1,1.405,1.3,1.287,1.287,0,0,1-1.4,1.24q-2.411.016-4.823,0a1.286,1.286,0,0,1-1.4-1.3,1.288,1.288,0,0,1,1.4-1.239C-1325.651,6037.22-1324.847,6037.228-1324.042,6037.228Z" transform="translate(2357.559 -2004.526)" fill="#084a93"/>
      <path id="Path_190545" data-name="Path 190545" d="M-1313.9,6038.5a1.284,1.284,0,0,1-1.3,1.266,1.284,1.284,0,0,1-1.235-1.271,1.281,1.281,0,0,1,1.3-1.266A1.284,1.284,0,0,1-1313.9,6038.5Z" transform="translate(2356.326 -2004.527)" fill="#084a93"/>
      <path id="Path_190546" data-name="Path 190546" d="M-1287.74,6037.233a1.283,1.283,0,0,1,1.245,1.261,1.284,1.284,0,0,1-1.292,1.277,1.284,1.284,0,0,1-1.245-1.324A1.285,1.285,0,0,1-1287.74,6037.233Z" transform="translate(2353.369 -2004.527)" fill="#fff"/>
      <path id="Path_190547" data-name="Path 190547" d="M-1536.356,5783.737c-.247-.571-.522-2.865-.787-3.429V5767.7a23.559,23.559,0,0,1,.818-2.654c1.906-4.36,3.895-8.687,5.774-13.06a4.828,4.828,0,0,1,3.213-3.132h45.587a4.825,4.825,0,0,1,3.213,3.137c1.862,4.34,3.812,8.643,5.741,12.953a9.492,9.492,0,0,1,.853,3.942q-.008,5.282,0,10.564c0,.9-.221,3.444-.721,4.194Zm2.559-18.11h58.484c-.072-.185-.12-.321-.178-.454q-2.835-6.388-5.666-12.779a1.576,1.576,0,0,0-1.652-1q-21.735.018-43.47,0a1.647,1.647,0,0,0-1.706,1.117c-1.578,3.609-3.193,7.2-4.793,10.8C-1533.112,5764.063-1533.44,5764.815-1533.8,5765.627Zm-.765,2.6c-.013.266-.034.473-.034.681q0,5.251,0,10.5c0,1.08.465,1.533,1.567,1.533h56.964c1.122,0,1.569-.456,1.57-1.594q0-5.219,0-10.438c0-.224-.021-.448-.034-.684Z" transform="translate(2380.143 -1967.164)" fill="#ffb30b"/>
      <path id="Path_190548" data-name="Path 190548" d="M-1533.392,5765.934c.357-.812.685-1.564,1.019-2.315,1.6-3.6,3.215-7.194,4.793-10.8a1.646,1.646,0,0,1,1.706-1.117q21.735.023,43.47,0a1.577,1.577,0,0,1,1.652,1q2.817,6.4,5.666,12.779c.059.132.106.269.178.454Z" transform="translate(2379.738 -1967.471)" fill="#fff"/>
      <path id="Path_190549" data-name="Path 190549" d="M-1534.253,5770.572h60.032c.012.235.034.459.034.683q0,5.22,0,10.438c0,1.138-.448,1.594-1.57,1.594h-56.964c-1.1,0-1.566-.453-1.567-1.534q-.005-5.251,0-10.5C-1534.287,5771.045-1534.267,5770.837-1534.253,5770.572Zm54.972,6.373a3.829,3.829,0,0,0-3.779-3.841,3.827,3.827,0,0,0-3.857,3.762,3.831,3.831,0,0,0,3.81,3.875A3.832,3.832,0,0,0-1479.281,5776.945Zm-46.1-1.3c-.8,0-1.609-.009-2.412,0a1.287,1.287,0,0,0-1.4,1.24,1.288,1.288,0,0,0,1.406,1.3q2.411.015,4.823,0a1.286,1.286,0,0,0,1.4-1.241,1.29,1.29,0,0,0-1.406-1.3C-1523.769,5775.64-1524.573,5775.649-1525.377,5775.649Zm10.188,0c-.8,0-1.608-.009-2.411,0a1.287,1.287,0,0,0-1.4,1.239,1.287,1.287,0,0,0,1.4,1.3q2.411.015,4.823,0a1.287,1.287,0,0,0,1.4-1.24,1.289,1.289,0,0,0-1.4-1.3C-1513.581,5775.64-1514.386,5775.649-1515.189,5775.649Zm8.91,1.274a1.284,1.284,0,0,0-1.235-1.27,1.279,1.279,0,0,0-1.3,1.265,1.284,1.284,0,0,0,1.234,1.272A1.285,1.285,0,0,0-1506.279,5776.924Z" transform="translate(2379.835 -1969.508)" fill="#fff"/>
      <path id="Path_190550" data-name="Path 190550" d="M-1473.551,5777.251a3.832,3.832,0,0,1-3.826,3.795,3.831,3.831,0,0,1-3.81-3.875,3.827,3.827,0,0,1,3.857-3.762A3.829,3.829,0,0,1-1473.551,5777.251Zm-3.795-1.292a1.283,1.283,0,0,0-1.291,1.212,1.283,1.283,0,0,0,1.244,1.325,1.284,1.284,0,0,0,1.293-1.277A1.283,1.283,0,0,0-1477.346,5775.96Z" transform="translate(2374.105 -1969.813)" fill="#084a93"/>
      <path id="Path_190551" data-name="Path 190551" d="M-1524.76,5776.263c.8,0,1.608-.009,2.411,0a1.29,1.29,0,0,1,1.406,1.3,1.286,1.286,0,0,1-1.4,1.241q-2.411.015-4.823,0a1.288,1.288,0,0,1-1.406-1.3,1.287,1.287,0,0,1,1.4-1.24C-1526.369,5776.254-1525.564,5776.263-1524.76,5776.263Z" transform="translate(2379.219 -1970.121)" fill="#084a93"/>
      <path id="Path_190552" data-name="Path 190552" d="M-1513.34,5776.263c.8,0,1.608-.009,2.412,0a1.289,1.289,0,0,1,1.4,1.3,1.287,1.287,0,0,1-1.4,1.24q-2.413.015-4.823,0a1.287,1.287,0,0,1-1.4-1.3,1.287,1.287,0,0,1,1.4-1.239C-1514.948,5776.254-1514.144,5776.263-1513.34,5776.263Z" transform="translate(2377.986 -1970.121)" fill="#084a93"/>
      <path id="Path_190553" data-name="Path 190553" d="M-1503.2,5777.538a1.285,1.285,0,0,1-1.3,1.267,1.284,1.284,0,0,1-1.234-1.271,1.279,1.279,0,0,1,1.3-1.265A1.284,1.284,0,0,1-1503.2,5777.538Z" transform="translate(2376.754 -1970.122)" fill="#084a93"/>
      <path id="Path_190554" data-name="Path 190554" d="M-1477.037,5776.269a1.283,1.283,0,0,1,1.245,1.26,1.283,1.283,0,0,1-1.292,1.276,1.283,1.283,0,0,1-1.244-1.324A1.282,1.282,0,0,1-1477.037,5776.269Z" transform="translate(2373.797 -1970.122)" fill="#fff"/>
      <path id="Path_190555" data-name="Path 190555" d="M-1481.237,5830.471c-.247-.571-.522-2.864-.787-3.428v-12.606a23.742,23.742,0,0,1,.818-2.654c1.906-4.362,3.9-8.687,5.775-13.06a4.829,4.829,0,0,1,3.212-3.132h45.587a4.832,4.832,0,0,1,3.214,3.136c1.862,4.34,3.811,8.642,5.74,12.954a9.489,9.489,0,0,1,.853,3.943q-.008,5.281,0,10.564c0,.9-.222,3.443-.722,4.194Zm2.559-18.11h58.484c-.072-.185-.12-.321-.177-.454q-2.836-6.388-5.667-12.779a1.576,1.576,0,0,0-1.652-1q-21.734.021-43.469,0a1.646,1.646,0,0,0-1.706,1.117c-1.579,3.609-3.194,7.2-4.794,10.8C-1477.993,5810.8-1478.321,5811.55-1478.678,5812.361Zm-.765,2.6c-.013.266-.033.474-.034.682q0,5.251,0,10.5c0,1.08.466,1.534,1.567,1.534h56.964c1.122,0,1.57-.456,1.57-1.594q0-5.219,0-10.438c0-.224-.022-.448-.034-.684Z" transform="translate(2374.195 -1972.208)" fill="#ffb30b"/>
      <path id="Path_190556" data-name="Path 190556" d="M-1478.273,5812.667c.357-.811.685-1.564,1.019-2.315,1.6-3.6,3.215-7.193,4.794-10.8a1.646,1.646,0,0,1,1.706-1.117q21.734.024,43.469,0a1.576,1.576,0,0,1,1.652,1q2.817,6.4,5.667,12.779c.058.132.105.269.177.454Z" transform="translate(2373.79 -1972.514)" fill="#fff"/>
      <path id="Path_190557" data-name="Path 190557" d="M-1479.134,5817.305h60.033c.012.236.034.46.034.684q0,5.219,0,10.438c0,1.138-.448,1.593-1.57,1.594H-1477.6c-1.1,0-1.566-.454-1.567-1.534q-.005-5.251,0-10.5C-1479.167,5817.779-1479.148,5817.571-1479.134,5817.305Zm54.972,6.374a3.828,3.828,0,0,0-3.779-3.841,3.826,3.826,0,0,0-3.857,3.761,3.83,3.83,0,0,0,3.809,3.875A3.832,3.832,0,0,0-1424.162,5823.679Zm-46.1-1.3c-.8,0-1.608-.009-2.411,0a1.288,1.288,0,0,0-1.4,1.241,1.286,1.286,0,0,0,1.405,1.3q2.411.015,4.823,0a1.286,1.286,0,0,0,1.4-1.24,1.291,1.291,0,0,0-1.405-1.3C-1468.65,5822.374-1469.454,5822.383-1470.258,5822.383Zm10.188,0c-.8,0-1.608-.009-2.411,0a1.288,1.288,0,0,0-1.4,1.24,1.286,1.286,0,0,0,1.4,1.3q2.411.015,4.824,0a1.286,1.286,0,0,0,1.4-1.239,1.29,1.29,0,0,0-1.4-1.3C-1458.462,5822.374-1459.266,5822.383-1460.07,5822.383Zm8.91,1.274a1.284,1.284,0,0,0-1.235-1.271,1.281,1.281,0,0,0-1.3,1.266,1.285,1.285,0,0,0,1.234,1.272A1.285,1.285,0,0,0-1451.16,5823.658Z" transform="translate(2373.887 -1974.55)" fill="#fff"/>
      <path id="Path_190558" data-name="Path 190558" d="M-1418.432,5823.985a3.832,3.832,0,0,1-3.826,3.8,3.83,3.83,0,0,1-3.809-3.875,3.826,3.826,0,0,1,3.857-3.761A3.828,3.828,0,0,1-1418.432,5823.985Zm-3.794-1.292a1.284,1.284,0,0,0-1.292,1.213,1.285,1.285,0,0,0,1.245,1.325,1.284,1.284,0,0,0,1.292-1.278A1.283,1.283,0,0,0-1422.226,5822.693Z" transform="translate(2368.156 -1974.856)" fill="#084a93"/>
      <path id="Path_190559" data-name="Path 190559" d="M-1469.641,5823c.8,0,1.609-.009,2.412,0a1.291,1.291,0,0,1,1.405,1.3,1.286,1.286,0,0,1-1.4,1.24q-2.411.015-4.823,0a1.286,1.286,0,0,1-1.405-1.3,1.288,1.288,0,0,1,1.4-1.241C-1471.249,5822.988-1470.445,5823-1469.641,5823Z" transform="translate(2373.27 -1975.164)" fill="#084a93"/>
      <path id="Path_190560" data-name="Path 190560" d="M-1458.221,5823c.8,0,1.608-.009,2.412,0a1.29,1.29,0,0,1,1.4,1.3,1.286,1.286,0,0,1-1.4,1.239q-2.411.015-4.824,0a1.286,1.286,0,0,1-1.4-1.3,1.288,1.288,0,0,1,1.4-1.24C-1459.829,5822.988-1459.025,5823-1458.221,5823Z" transform="translate(2372.038 -1975.164)" fill="#084a93"/>
      <path id="Path_190561" data-name="Path 190561" d="M-1448.079,5824.272a1.284,1.284,0,0,1-1.3,1.267,1.285,1.285,0,0,1-1.234-1.272,1.282,1.282,0,0,1,1.3-1.266A1.284,1.284,0,0,1-1448.079,5824.272Z" transform="translate(2370.806 -1975.165)" fill="#084a93"/>
      <path id="Path_190562" data-name="Path 190562" d="M-1421.917,5823a1.283,1.283,0,0,1,1.245,1.26,1.284,1.284,0,0,1-1.292,1.278,1.285,1.285,0,0,1-1.245-1.325A1.284,1.284,0,0,1-1421.917,5823Z" transform="translate(2367.849 -1975.166)" fill="#fff"/>
      <path id="Path_190563" data-name="Path 190563" d="M-1417.288,5775.008c-.247-.571-.522-2.865-.787-3.429v-12.606a23.787,23.787,0,0,1,.818-2.654c1.905-4.362,3.9-8.687,5.775-13.06a4.828,4.828,0,0,1,3.211-3.132h45.587a4.829,4.829,0,0,1,3.214,3.137c1.862,4.34,3.811,8.642,5.74,12.953a9.489,9.489,0,0,1,.853,3.943q-.008,5.281,0,10.564c0,.9-.222,3.444-.722,4.195Zm2.559-18.111h58.484c-.072-.184-.12-.321-.177-.453q-2.836-6.388-5.667-12.78a1.575,1.575,0,0,0-1.652-1q-21.734.02-43.469,0a1.645,1.645,0,0,0-1.706,1.117c-1.579,3.609-3.194,7.2-4.794,10.8C-1414.044,5755.333-1414.372,5756.086-1414.729,5756.9Zm-.765,2.6c-.013.266-.033.474-.034.682q0,5.251,0,10.5c0,1.081.466,1.533,1.567,1.533q28.481,0,56.963,0c1.122,0,1.57-.456,1.571-1.594q0-5.22,0-10.438c0-.224-.022-.448-.034-.684Z" transform="translate(2367.294 -1966.222)" fill="#084a93"/>
      <path id="Path_190564" data-name="Path 190564" d="M-1414.324,5757.2c.357-.811.685-1.563,1.019-2.314,1.6-3.6,3.215-7.194,4.794-10.8a1.644,1.644,0,0,1,1.706-1.116q21.734.023,43.469,0a1.576,1.576,0,0,1,1.652,1q2.817,6.4,5.667,12.779c.058.132.105.269.177.453Z" transform="translate(2366.889 -1966.529)" fill="#fff"/>
      <path id="Path_190565" data-name="Path 190565" d="M-1415.185,5761.842h60.033c.012.236.034.46.034.684q0,5.219,0,10.438c0,1.138-.449,1.594-1.571,1.594q-28.482,0-56.963,0c-1.1,0-1.566-.453-1.567-1.533q-.005-5.25,0-10.5C-1415.218,5762.315-1415.2,5762.108-1415.185,5761.842Zm54.972,6.373a3.828,3.828,0,0,0-3.778-3.841,3.827,3.827,0,0,0-3.858,3.762,3.831,3.831,0,0,0,3.809,3.875A3.833,3.833,0,0,0-1360.213,5768.215Zm-46.1-1.3c-.8,0-1.608-.008-2.411,0a1.288,1.288,0,0,0-1.4,1.24,1.286,1.286,0,0,0,1.405,1.3q2.411.016,4.824,0a1.285,1.285,0,0,0,1.4-1.241,1.291,1.291,0,0,0-1.405-1.3C-1404.7,5766.911-1405.505,5766.919-1406.309,5766.919Zm10.188,0c-.8,0-1.608-.008-2.411,0a1.288,1.288,0,0,0-1.4,1.239,1.286,1.286,0,0,0,1.4,1.3q2.411.016,4.823,0a1.286,1.286,0,0,0,1.4-1.24,1.29,1.29,0,0,0-1.4-1.3C-1394.513,5766.911-1395.317,5766.919-1396.121,5766.919Zm8.91,1.275a1.284,1.284,0,0,0-1.235-1.271,1.281,1.281,0,0,0-1.3,1.266,1.284,1.284,0,0,0,1.234,1.271A1.284,1.284,0,0,0-1387.211,5768.194Z" transform="translate(2366.986 -1968.565)" fill="#fff"/>
      <path id="Path_190566" data-name="Path 190566" d="M-1354.483,5768.521a3.833,3.833,0,0,1-3.826,3.8,3.831,3.831,0,0,1-3.809-3.875,3.827,3.827,0,0,1,3.858-3.762A3.828,3.828,0,0,1-1354.483,5768.521Zm-3.794-1.292a1.284,1.284,0,0,0-1.292,1.213,1.284,1.284,0,0,0,1.245,1.324,1.283,1.283,0,0,0,1.292-1.276A1.283,1.283,0,0,0-1358.277,5767.23Z" transform="translate(2361.256 -1968.872)" fill="#084a93"/>
      <path id="Path_190567" data-name="Path 190567" d="M-1405.692,5767.533c.8,0,1.608-.008,2.412,0a1.291,1.291,0,0,1,1.405,1.3,1.285,1.285,0,0,1-1.4,1.241q-2.411.016-4.824,0a1.286,1.286,0,0,1-1.405-1.3,1.288,1.288,0,0,1,1.4-1.24C-1407.3,5767.524-1406.5,5767.533-1405.692,5767.533Z" transform="translate(2366.369 -1969.179)" fill="#084a93"/>
      <path id="Path_190568" data-name="Path 190568" d="M-1394.272,5767.533c.8,0,1.608-.008,2.412,0a1.29,1.29,0,0,1,1.4,1.3,1.286,1.286,0,0,1-1.4,1.24q-2.411.016-4.823,0a1.286,1.286,0,0,1-1.4-1.3,1.288,1.288,0,0,1,1.4-1.239C-1395.88,5767.524-1395.076,5767.533-1394.272,5767.533Z" transform="translate(2365.137 -1969.179)" fill="#084a93"/>
      <path id="Path_190569" data-name="Path 190569" d="M-1384.13,5768.809a1.284,1.284,0,0,1-1.3,1.266,1.284,1.284,0,0,1-1.234-1.271,1.281,1.281,0,0,1,1.3-1.266A1.284,1.284,0,0,1-1384.13,5768.809Z" transform="translate(2363.904 -1969.18)" fill="#084a93"/>
      <path id="Path_190570" data-name="Path 190570" d="M-1357.968,5767.538a1.283,1.283,0,0,1,1.245,1.261,1.283,1.283,0,0,1-1.292,1.276,1.284,1.284,0,0,1-1.245-1.324A1.284,1.284,0,0,1-1357.968,5767.538Z" transform="translate(2360.947 -1969.18)" fill="#fff"/>
      <path id="Path_190571" data-name="Path 190571" d="M-1349.351,5844.329c-.247-.571-.522-2.865-.787-3.428v-12.606a23.759,23.759,0,0,1,.819-2.654c1.906-4.362,3.895-8.687,5.775-13.06a4.829,4.829,0,0,1,3.212-3.132h45.588a4.831,4.831,0,0,1,3.213,3.136c1.862,4.34,3.812,8.642,5.74,12.953a9.492,9.492,0,0,1,.854,3.943q-.009,5.282,0,10.564c0,.9-.221,3.443-.721,4.195Zm2.56-18.11h58.483c-.072-.185-.12-.321-.177-.453q-2.836-6.388-5.666-12.779a1.578,1.578,0,0,0-1.652-1q-21.735.021-43.47,0a1.646,1.646,0,0,0-1.706,1.117c-1.579,3.609-3.193,7.2-4.793,10.8C-1346.107,5824.655-1346.434,5825.407-1346.791,5826.218Zm-.765,2.6c-.014.266-.034.474-.034.681q0,5.251,0,10.5c0,1.081.465,1.533,1.567,1.533h56.964c1.123,0,1.57-.456,1.571-1.594q0-5.219,0-10.438c0-.224-.021-.448-.034-.684Z" transform="translate(2359.963 -1973.702)" fill="#ffb30b"/>
      <path id="Path_190572" data-name="Path 190572" d="M-1346.386,5826.525c.357-.812.684-1.563,1.019-2.315,1.6-3.6,3.214-7.193,4.793-10.8a1.646,1.646,0,0,1,1.706-1.117q21.735.025,43.47,0a1.578,1.578,0,0,1,1.652,1q2.815,6.4,5.666,12.779c.058.132.105.269.177.453Z" transform="translate(2359.559 -1974.009)" fill="#fff"/>
      <path id="Path_190573" data-name="Path 190573" d="M-1347.247,5831.163h60.032c.012.236.034.46.034.684q0,5.219,0,10.438c0,1.139-.448,1.594-1.571,1.594h-56.964c-1.1,0-1.566-.453-1.567-1.533q-.005-5.251,0-10.5C-1347.281,5831.637-1347.262,5831.429-1347.247,5831.163Zm54.972,6.373a3.829,3.829,0,0,0-3.779-3.841,3.826,3.826,0,0,0-3.857,3.761,3.83,3.83,0,0,0,3.809,3.875A3.834,3.834,0,0,0-1292.275,5837.536Zm-46.1-1.3c-.8,0-1.608-.009-2.411,0a1.289,1.289,0,0,0-1.4,1.241,1.287,1.287,0,0,0,1.405,1.3q2.413.015,4.823,0a1.287,1.287,0,0,0,1.4-1.24,1.292,1.292,0,0,0-1.406-1.3C-1336.764,5836.232-1337.567,5836.241-1338.372,5836.241Zm10.188,0c-.8,0-1.608-.009-2.412,0a1.289,1.289,0,0,0-1.4,1.24,1.287,1.287,0,0,0,1.405,1.3q2.411.015,4.823,0a1.287,1.287,0,0,0,1.4-1.239,1.292,1.292,0,0,0-1.405-1.3C-1326.576,5836.232-1327.38,5836.241-1328.183,5836.241Zm8.909,1.275a1.283,1.283,0,0,0-1.234-1.271,1.281,1.281,0,0,0-1.3,1.266,1.284,1.284,0,0,0,1.234,1.272A1.284,1.284,0,0,0-1319.274,5837.516Z" transform="translate(2359.655 -1976.046)" fill="#fff"/>
      <path id="Path_190574" data-name="Path 190574" d="M-1286.545,5837.843a3.834,3.834,0,0,1-3.827,3.8,3.83,3.83,0,0,1-3.809-3.875,3.826,3.826,0,0,1,3.857-3.761A3.829,3.829,0,0,1-1286.545,5837.843Zm-3.8-1.292a1.285,1.285,0,0,0-1.292,1.213,1.284,1.284,0,0,0,1.245,1.325,1.284,1.284,0,0,0,1.293-1.277A1.285,1.285,0,0,0-1290.34,5836.551Z" transform="translate(2353.925 -1976.352)" fill="#084a93"/>
      <path id="Path_190575" data-name="Path 190575" d="M-1337.755,5836.854c.8,0,1.608-.009,2.412,0a1.292,1.292,0,0,1,1.406,1.3,1.287,1.287,0,0,1-1.4,1.24q-2.411.015-4.823,0a1.287,1.287,0,0,1-1.405-1.3,1.288,1.288,0,0,1,1.4-1.241C-1339.363,5836.846-1338.559,5836.854-1337.755,5836.854Z" transform="translate(2359.039 -1976.659)" fill="#084a93"/>
      <path id="Path_190576" data-name="Path 190576" d="M-1326.334,5836.854c.8,0,1.608-.009,2.411,0a1.292,1.292,0,0,1,1.405,1.3,1.288,1.288,0,0,1-1.4,1.239q-2.411.015-4.823,0a1.287,1.287,0,0,1-1.405-1.3,1.289,1.289,0,0,1,1.4-1.24C-1327.943,5836.846-1327.138,5836.854-1326.334,5836.854Z" transform="translate(2357.807 -1976.659)" fill="#084a93"/>
      <path id="Path_190577" data-name="Path 190577" d="M-1316.193,5838.13a1.284,1.284,0,0,1-1.3,1.267,1.284,1.284,0,0,1-1.234-1.272,1.281,1.281,0,0,1,1.3-1.266A1.283,1.283,0,0,1-1316.193,5838.13Z" transform="translate(2356.574 -1976.66)" fill="#084a93"/>
      <path id="Path_190578" data-name="Path 190578" d="M-1290.031,5836.859a1.285,1.285,0,0,1,1.245,1.261,1.284,1.284,0,0,1-1.293,1.277,1.284,1.284,0,0,1-1.245-1.325A1.285,1.285,0,0,1-1290.031,5836.859Z" transform="translate(2353.617 -1976.66)" fill="#fff"/>
      <path id="Path_190579" data-name="Path 190579" d="M-1296.626,5758.3c-.247-.571-.523-2.865-.787-3.428v-12.607a23.593,23.593,0,0,1,.818-2.653c1.906-4.362,3.895-8.687,5.775-13.06a4.828,4.828,0,0,1,3.212-3.132h45.587a4.83,4.83,0,0,1,3.213,3.137c1.862,4.339,3.812,8.642,5.74,12.953a9.491,9.491,0,0,1,.854,3.942q-.008,5.282,0,10.564c0,.9-.221,3.444-.721,4.2Zm2.559-18.11h58.484c-.072-.185-.12-.322-.178-.453q-2.835-6.388-5.666-12.779a1.576,1.576,0,0,0-1.652-1q-21.735.02-43.47,0a1.646,1.646,0,0,0-1.706,1.117c-1.578,3.609-3.193,7.2-4.793,10.8C-1293.382,5738.625-1293.71,5739.379-1294.067,5740.189Zm-.765,2.6c-.014.266-.034.474-.034.682q0,5.251,0,10.5c0,1.08.465,1.533,1.567,1.533q28.482,0,56.964,0c1.123,0,1.57-.456,1.571-1.593q0-5.22,0-10.438c0-.224-.021-.448-.034-.685Z" transform="translate(2354.273 -1964.419)" fill="#084a93"/>
      <path id="Path_190580" data-name="Path 190580" d="M-1293.662,5740.5c.357-.811.685-1.564,1.019-2.315,1.6-3.6,3.215-7.194,4.793-10.8a1.646,1.646,0,0,1,1.706-1.117q21.735.023,43.47,0a1.576,1.576,0,0,1,1.652,1q2.817,6.4,5.666,12.779c.059.131.106.269.178.453Z" transform="translate(2353.869 -1964.726)" fill="#fff"/>
      <path id="Path_190581" data-name="Path 190581" d="M-1294.523,5745.134h60.032c.012.237.034.46.034.685q0,5.219,0,10.438c0,1.137-.448,1.593-1.571,1.593q-28.481,0-56.963,0c-1.1,0-1.566-.453-1.567-1.533q-.005-5.251,0-10.5C-1294.557,5745.608-1294.538,5745.4-1294.523,5745.134Zm54.972,6.373a3.831,3.831,0,0,0-3.779-3.841,3.827,3.827,0,0,0-3.857,3.762,3.83,3.83,0,0,0,3.81,3.875A3.833,3.833,0,0,0-1239.551,5751.507Zm-46.1-1.3c-.8,0-1.608-.008-2.412,0a1.288,1.288,0,0,0-1.4,1.24,1.287,1.287,0,0,0,1.406,1.3q2.411.016,4.823,0a1.286,1.286,0,0,0,1.4-1.241,1.291,1.291,0,0,0-1.406-1.3C-1284.04,5750.2-1284.843,5750.211-1285.647,5750.211Zm10.188,0c-.8,0-1.607-.008-2.411,0a1.287,1.287,0,0,0-1.4,1.239,1.285,1.285,0,0,0,1.4,1.3q2.411.016,4.823,0a1.287,1.287,0,0,0,1.4-1.24,1.291,1.291,0,0,0-1.405-1.3C-1273.852,5750.2-1274.656,5750.211-1275.459,5750.211Zm8.91,1.275a1.284,1.284,0,0,0-1.235-1.271,1.281,1.281,0,0,0-1.3,1.266,1.284,1.284,0,0,0,1.234,1.271A1.284,1.284,0,0,0-1266.549,5751.487Z" transform="translate(2353.965 -1966.762)" fill="#fff"/>
      <path id="Path_190582" data-name="Path 190582" d="M-1233.821,5751.813a3.833,3.833,0,0,1-3.826,3.8,3.83,3.83,0,0,1-3.81-3.875,3.827,3.827,0,0,1,3.857-3.762A3.831,3.831,0,0,1-1233.821,5751.813Zm-3.8-1.292a1.286,1.286,0,0,0-1.292,1.213,1.284,1.284,0,0,0,1.245,1.324,1.283,1.283,0,0,0,1.293-1.276A1.285,1.285,0,0,0-1237.616,5750.521Z" transform="translate(2348.235 -1967.068)" fill="#084a93"/>
      <path id="Path_190583" data-name="Path 190583" d="M-1285.03,5750.825c.8,0,1.608-.008,2.411,0a1.291,1.291,0,0,1,1.406,1.3,1.286,1.286,0,0,1-1.4,1.241q-2.411.016-4.823,0a1.287,1.287,0,0,1-1.406-1.3,1.288,1.288,0,0,1,1.4-1.24C-1286.639,5750.817-1285.834,5750.825-1285.03,5750.825Z" transform="translate(2353.349 -1967.376)" fill="#084a93"/>
      <path id="Path_190584" data-name="Path 190584" d="M-1273.61,5750.825c.8,0,1.608-.008,2.411,0a1.291,1.291,0,0,1,1.405,1.3,1.287,1.287,0,0,1-1.4,1.24q-2.411.016-4.823,0a1.285,1.285,0,0,1-1.4-1.3,1.287,1.287,0,0,1,1.4-1.239C-1275.218,5750.817-1274.414,5750.825-1273.61,5750.825Z" transform="translate(2352.116 -1967.376)" fill="#084a93"/>
      <path id="Path_190585" data-name="Path 190585" d="M-1263.468,5752.1a1.284,1.284,0,0,1-1.3,1.266,1.284,1.284,0,0,1-1.234-1.271,1.281,1.281,0,0,1,1.3-1.266A1.284,1.284,0,0,1-1263.468,5752.1Z" transform="translate(2350.885 -1967.377)" fill="#084a93"/>
      <path id="Path_190586" data-name="Path 190586" d="M-1237.307,5750.83a1.285,1.285,0,0,1,1.245,1.261,1.283,1.283,0,0,1-1.293,1.276,1.284,1.284,0,0,1-1.245-1.324A1.286,1.286,0,0,1-1237.307,5750.83Z" transform="translate(2347.927 -1967.377)" fill="#fff"/>
      <path id="Path_190587" data-name="Path 190587" d="M-1244.253,5821.742c-.247-.571-.522-2.865-.787-3.428v-12.607a23.783,23.783,0,0,1,.819-2.654c1.905-4.361,3.895-8.687,5.774-13.059a4.827,4.827,0,0,1,3.212-3.132h45.588a4.831,4.831,0,0,1,3.213,3.136c1.862,4.34,3.812,8.643,5.74,12.954a9.491,9.491,0,0,1,.854,3.942q-.01,5.283,0,10.564c0,.9-.221,3.444-.721,4.2Zm2.56-18.11h58.483c-.072-.186-.12-.322-.178-.454q-2.835-6.388-5.666-12.779a1.576,1.576,0,0,0-1.652-1q-21.735.019-43.47,0a1.646,1.646,0,0,0-1.706,1.117c-1.579,3.609-3.194,7.2-4.793,10.8C-1241.009,5802.067-1241.336,5802.821-1241.693,5803.632Zm-.765,2.6c-.013.265-.033.473-.033.681q0,5.251,0,10.5c0,1.08.465,1.533,1.566,1.533q28.482,0,56.964,0c1.123,0,1.57-.456,1.571-1.594q0-5.219,0-10.437c0-.224-.021-.449-.034-.684Z" transform="translate(2348.622 -1971.265)" fill="#084a93"/>
      <path id="Path_190588" data-name="Path 190588" d="M-1241.288,5803.938c.357-.811.684-1.565,1.019-2.315,1.6-3.6,3.214-7.194,4.793-10.8a1.646,1.646,0,0,1,1.706-1.117q21.735.024,43.47,0a1.576,1.576,0,0,1,1.652,1q2.815,6.4,5.666,12.779c.058.131.105.268.178.454Z" transform="translate(2348.217 -1971.572)" fill="#fff"/>
      <path id="Path_190589" data-name="Path 190589" d="M-1242.15,5808.577h60.033c.012.235.034.46.034.684q0,5.219,0,10.438c0,1.138-.448,1.594-1.571,1.594q-28.482,0-56.964,0c-1.1,0-1.566-.453-1.566-1.533q-.005-5.251,0-10.5C-1242.183,5809.05-1242.164,5808.841-1242.15,5808.577Zm54.973,6.373a3.831,3.831,0,0,0-3.779-3.842,3.828,3.828,0,0,0-3.857,3.762,3.829,3.829,0,0,0,3.809,3.875A3.833,3.833,0,0,0-1187.177,5814.95Zm-46.1-1.3c-.8,0-1.608-.008-2.411,0a1.288,1.288,0,0,0-1.4,1.24,1.287,1.287,0,0,0,1.405,1.3q2.413.015,4.823,0a1.288,1.288,0,0,0,1.4-1.241,1.292,1.292,0,0,0-1.406-1.3C-1231.666,5813.645-1232.469,5813.653-1233.274,5813.653Zm10.189,0c-.8,0-1.608-.008-2.412,0a1.289,1.289,0,0,0-1.4,1.239,1.287,1.287,0,0,0,1.405,1.3q2.411.015,4.823,0a1.288,1.288,0,0,0,1.4-1.24,1.292,1.292,0,0,0-1.405-1.3C-1221.478,5813.645-1222.282,5813.653-1223.085,5813.653Zm8.909,1.275a1.283,1.283,0,0,0-1.234-1.271,1.28,1.28,0,0,0-1.3,1.265,1.283,1.283,0,0,0,1.234,1.272A1.283,1.283,0,0,0-1214.176,5814.929Z" transform="translate(2348.314 -1973.609)" fill="#fff"/>
      <path id="Path_190590" data-name="Path 190590" d="M-1181.447,5815.256a3.833,3.833,0,0,1-3.827,3.795,3.829,3.829,0,0,1-3.809-3.875,3.828,3.828,0,0,1,3.857-3.762A3.831,3.831,0,0,1-1181.447,5815.256Zm-3.795-1.292a1.284,1.284,0,0,0-1.292,1.213,1.284,1.284,0,0,0,1.244,1.324,1.284,1.284,0,0,0,1.293-1.277A1.284,1.284,0,0,0-1185.242,5813.964Z" transform="translate(2342.584 -1973.914)" fill="#084a93"/>
      <path id="Path_190591" data-name="Path 190591" d="M-1232.657,5814.267c.8,0,1.609-.008,2.412,0a1.292,1.292,0,0,1,1.406,1.3,1.288,1.288,0,0,1-1.4,1.241q-2.411.015-4.823,0a1.287,1.287,0,0,1-1.405-1.3,1.288,1.288,0,0,1,1.4-1.24C-1234.265,5814.259-1233.461,5814.267-1232.657,5814.267Z" transform="translate(2347.697 -1974.222)" fill="#084a93"/>
      <path id="Path_190592" data-name="Path 190592" d="M-1221.237,5814.267c.8,0,1.608-.008,2.411,0a1.291,1.291,0,0,1,1.405,1.3,1.288,1.288,0,0,1-1.4,1.24q-2.411.015-4.823,0a1.287,1.287,0,0,1-1.405-1.3,1.289,1.289,0,0,1,1.4-1.239C-1222.845,5814.259-1222.04,5814.267-1221.237,5814.267Z" transform="translate(2346.465 -1974.222)" fill="#084a93"/>
      <path id="Path_190593" data-name="Path 190593" d="M-1211.095,5815.543a1.283,1.283,0,0,1-1.3,1.266,1.283,1.283,0,0,1-1.234-1.272,1.28,1.28,0,0,1,1.3-1.265A1.283,1.283,0,0,1-1211.095,5815.543Z" transform="translate(2345.232 -1974.223)" fill="#084a93"/>
      <path id="Path_190594" data-name="Path 190594" d="M-1184.933,5814.272a1.284,1.284,0,0,1,1.245,1.26,1.284,1.284,0,0,1-1.293,1.277,1.284,1.284,0,0,1-1.244-1.324A1.284,1.284,0,0,1-1184.933,5814.272Z" transform="translate(2342.275 -1974.223)" fill="#fff"/>
      <path id="Path_192426" data-name="Path 192426" d="M0,0,17.4,23.98" transform="translate(875.588 3815.596)" fill="none" stroke="#ffb30b" stroke-linecap="round" stroke-width="2"/>
      <path id="Path_192427" data-name="Path 192427" d="M0,0,52.454,13.632" transform="translate(957.371 3849.114)" fill="none" stroke="#ffb30b" stroke-linecap="round" stroke-width="2"/>
      <path id="Path_192428" data-name="Path 192428" d="M0,14.905,40.021,0" transform="translate(1015.216 3785.991)" fill="none" stroke="#084a93" stroke-linecap="round" stroke-width="2"/>
      <path id="Path_192429" data-name="Path 192429" d="M0,0,43.243,21.715" transform="translate(1091.671 3793.881)" fill="none" stroke="#084a93" stroke-linecap="round" stroke-width="2"/>
      <path id="Path_192430" data-name="Path 192430" d="M0,0,23.2,31.714" transform="translate(873.555 3987.621)" fill="none" stroke="#ffb30b" stroke-linecap="round" stroke-width="2"/>
      <path id="Path_192431" data-name="Path 192431" d="M0,0,51.079,14.658" transform="translate(961.293 4020.595)" fill="none" stroke="#ffb30b" stroke-linecap="round" stroke-width="2"/>
      <path id="Path_190595" data-name="Path 190595" d="M-1486.366,5985.634l217.831,20.381-124.309-29.532" transform="translate(2374.663 -1997.972)" fill="none" stroke="#084a93" stroke-linecap="round" stroke-linejoin="round" stroke-width="2"/>
      <path id="Path_190596" data-name="Path 190596" d="M-1444.946,5990.634l54.511-15.092,64.989,29.532-138.6-28.271,42.276-9.048" transform="translate(2372.254 -1997.03)" fill="none" stroke="#084a93" stroke-linecap="round" stroke-linejoin="round" stroke-width="2"/>
      <path id="Path_190597" data-name="Path 190597" d="M-1405.229,6014.078l123.811-47.763,52.96,12.882" transform="translate(2365.907 -1996.874)" fill="none" stroke="#084a93" stroke-linecap="round" stroke-linejoin="round" stroke-width="2"/>
      <path id="Path_192432" data-name="Path 192432" d="M37.476,0,0,8.377" transform="translate(1014.414 3961.063)" fill="none" stroke="#084a93" stroke-linecap="round" stroke-width="2"/>
      <path id="Path_190598" data-name="Path 190598" d="M-1274.764,6036.8c0-.408,29.063-27.208,29.063-27.208" transform="translate(2351.829 -2001.544)" fill="none" stroke="#084a93" stroke-linecap="round" stroke-linejoin="round" stroke-width="2"/>
    </g>
  </g>
</svg>
