<svg xmlns="http://www.w3.org/2000/svg" width="85" height="81.007" viewBox="0 0 85 81.007">
  <g id="_7" data-name="7" transform="translate(0 -12.025)">
    <g id="Group_131774" data-name="Group 131774" transform="translate(1.245 13.27)">
      <path id="Path_192281" data-name="Path 192281" d="M204.1,383.845l-1.66,15.223h17.783l-1.66-15.223Z" transform="translate(-170.079 -323.362)" fill="#eaf6ff"/>
      <path id="Path_192282" data-name="Path 192282" d="M224.7,399.068l-1.66-15.223H208.577l-.769,7.056h11.341a1.494,1.494,0,0,1,1.485,1.332l.745,6.835h3.32Z" transform="translate(-174.553 -323.362)" fill="#d5e3f4"/>
      <path id="Path_192283" data-name="Path 192283" d="M7.5,65.005v53.623a1.66,1.66,0,0,0,1.66,1.66H88.35a1.66,1.66,0,0,0,1.66-1.66V65.005a1.66,1.66,0,0,0-1.66-1.66H9.16A1.66,1.66,0,0,0,7.5,65.005Z" transform="translate(-7.5 -56.07)" fill="#0c71e0"/>
      <path id="Path_192284" data-name="Path 192284" d="M477.82,63.345H474.5a1.66,1.66,0,0,1,1.66,1.66v53.623a1.66,1.66,0,0,1-1.66,1.66h3.32a1.66,1.66,0,0,0,1.66-1.66V65.005A1.66,1.66,0,0,0,477.82,63.345Z" transform="translate(-396.971 -56.07)" fill="#084a93"/>
      <path id="Path_192285" data-name="Path 192285" d="M7.5,106.845H90.01v42.5H7.5Z" transform="translate(-7.5 -92.349)" fill="#d4e9fc"/>
      <path id="Path_192286" data-name="Path 192286" d="M484.5,106.845h3.32v42.5H484.5Z" transform="translate(-405.311 -92.349)" fill="#b9ddfc"/>
      <path id="Path_192287" data-name="Path 192287" d="M143.585,464.233h36.494a.5.5,0,0,0,.5-.554,5.623,5.623,0,0,0-5.6-5.068h-26.3a5.623,5.623,0,0,0-5.6,5.068A.5.5,0,0,0,143.585,464.233Z" transform="translate(-120.578 -385.716)" fill="#ffc84f"/>
      <path id="Path_192288" data-name="Path 192288" d="M318.516,458.611H315.2a5.623,5.623,0,0,1,5.6,5.068.5.5,0,0,1-.5.554h3.32a.5.5,0,0,0,.5-.554A5.623,5.623,0,0,0,318.516,458.611Z" transform="translate(-264.114 -385.716)" fill="#ffb30b"/>
      <path id="Path_192289" data-name="Path 192289" d="M114.847,21.185V76.521h46.867V21.185a1.66,1.66,0,0,0-1.66-1.66H116.507A1.66,1.66,0,0,0,114.847,21.185Z" transform="translate(-97.026 -19.525)" fill="#eaf6ff"/>
      <path id="Path_192290" data-name="Path 192290" d="M369.639,19.525h-3.486a1.66,1.66,0,0,1,1.66,1.66V76.521H371.3V21.185a1.66,1.66,0,0,0-1.66-1.66Z" transform="translate(-306.611 -19.525)" fill="#d5e3f4"/>
      <path id="Path_192291" data-name="Path 192291" d="M160.054,19.525H116.507a1.66,1.66,0,0,0-1.66,1.66V26.3H132.12a1.66,1.66,0,0,1,1.174.486l3.887,3.887a1.66,1.66,0,0,0,1.174.486h23.359V21.185A1.66,1.66,0,0,0,160.054,19.525Z" transform="translate(-97.026 -19.525)" fill="#ffc84f"/>
      <path id="Path_192292" data-name="Path 192292" d="M367.813,21.185V31.16H371.3V21.185a1.66,1.66,0,0,0-1.66-1.66h-3.486A1.66,1.66,0,0,1,367.813,21.185Z" transform="translate(-306.611 -19.525)" fill="#ffb30b"/>
    </g>
    <g id="Group_131775" data-name="Group 131775" transform="translate(0 12.025)">
      <path id="Path_192293" data-name="Path 192293" d="M82.095,19.3H67.179V14.93a2.909,2.909,0,0,0-2.905-2.905H20.727a2.909,2.909,0,0,0-2.905,2.905V19.3H2.905A2.909,2.909,0,0,0,0,22.206V75.829a2.909,2.909,0,0,0,2.905,2.905H33.473L32.8,84.92H29.352a6.839,6.839,0,0,0-6.834,6.191,1.746,1.746,0,0,0,1.735,1.921H60.747a1.746,1.746,0,0,0,1.735-1.92,6.839,6.839,0,0,0-6.834-6.192H52.2l-.675-6.186H82.095A2.909,2.909,0,0,0,85,75.829V22.206A2.909,2.909,0,0,0,82.095,19.3ZM65.933,36.233a1.245,1.245,0,0,0-1.245,1.245V69.021H20.312V21.29H36.34a.418.418,0,0,1,.293.122L40.521,25.3a2.887,2.887,0,0,0,2.054.851H64.688v5.517a1.245,1.245,0,1,0,2.49,0V29.013H82.51V69.021H67.179V37.478A1.245,1.245,0,0,0,65.933,36.233ZM2.49,69.021V29.013H17.821V69.021Zm79.6-47.231a.416.416,0,0,1,.415.415v4.316H67.179V21.791ZM20.312,14.93a.416.416,0,0,1,.415-.415H64.273a.416.416,0,0,1,.415.415v8.73H42.575a.412.412,0,0,1-.294-.122l-3.887-3.887A2.885,2.885,0,0,0,36.34,18.8H20.312ZM2.905,21.791H17.821v4.731H2.49V22.206A.416.416,0,0,1,2.905,21.791ZM59.847,90.542H25.153a4.358,4.358,0,0,1,4.2-3.132h26.3A4.357,4.357,0,0,1,59.847,90.542Zm22.248-14.3h-36.4a1.245,1.245,0,0,0,0,2.49h3.331L49.7,84.92H35.3l.675-6.186h3.9a1.245,1.245,0,0,0,0-2.49H2.905a.416.416,0,0,1-.415-.415V71.512H82.51v4.317A.415.415,0,0,1,82.095,76.244Z" transform="translate(0 -12.025)"/>
      <path id="Path_192294" data-name="Path 192294" d="M274.191,49.557h.163a1.245,1.245,0,0,0,0-2.49h-.163a1.245,1.245,0,0,0,0,2.49Z" transform="translate(-227.633 -41.249)"/>
      <path id="Path_192295" data-name="Path 192295" d="M312.76,49.557h.163a1.245,1.245,0,0,0,0-2.49h-.163a1.245,1.245,0,0,0,0,2.49Z" transform="translate(-259.799 -41.249)"/>
      <path id="Path_192296" data-name="Path 192296" d="M351.328,49.557h.163a1.245,1.245,0,0,0,0-2.49h-.163a1.245,1.245,0,0,0,0,2.49Z" transform="translate(-291.964 -41.249)"/>
      <path id="Path_192297" data-name="Path 192297" d="M165.058,135.781h2.1A2.845,2.845,0,0,0,170,132.939v-2.916a2.845,2.845,0,0,0-2.842-2.842h-2.1a2.845,2.845,0,0,0-2.842,2.842v2.916A2.845,2.845,0,0,0,165.058,135.781Zm-.351-5.758a.352.352,0,0,1,.351-.352h2.1a.352.352,0,0,1,.351.352v2.916a.352.352,0,0,1-.351.352h-2.1a.352.352,0,0,1-.351-.352Z" transform="translate(-135.286 -108.063)"/>
      <path id="Path_192298" data-name="Path 192298" d="M283.481,132.939v-2.916a2.845,2.845,0,0,0-2.842-2.842h-2.1a2.845,2.845,0,0,0-2.842,2.842v2.916a2.845,2.845,0,0,0,2.842,2.842h2.1A2.845,2.845,0,0,0,283.481,132.939Zm-5.295,0v-2.916a.352.352,0,0,1,.352-.352h2.1a.352.352,0,0,1,.351.352v2.916a.352.352,0,0,1-.351.352h-2.1A.352.352,0,0,1,278.186,132.939Z" transform="translate(-229.926 -108.063)"/>
      <path id="Path_192299" data-name="Path 192299" d="M222.55,127.181a1.245,1.245,0,0,0-1.245,1.245v6.11a1.245,1.245,0,1,0,2.49,0v-6.11A1.245,1.245,0,0,0,222.55,127.181Z" transform="translate(-184.565 -108.063)"/>
      <path id="Path_192300" data-name="Path 192300" d="M249.745,127.181a1.245,1.245,0,0,0-1.245,1.245v6.11a1.245,1.245,0,0,0,2.49,0v-6.11A1.245,1.245,0,0,0,249.745,127.181Z" transform="translate(-207.245 -108.063)"/>
      <path id="Path_192301" data-name="Path 192301" d="M336.029,127.181a1.245,1.245,0,0,0-1.245,1.245v6.11a1.245,1.245,0,1,0,2.49,0v-6.11A1.245,1.245,0,0,0,336.029,127.181Z" transform="translate(-279.205 -108.063)"/>
      <path id="Path_192302" data-name="Path 192302" d="M167.159,272.6h-2.1a2.845,2.845,0,0,0-2.842,2.842v2.916a2.845,2.845,0,0,0,2.842,2.842h2.1A2.845,2.845,0,0,0,170,278.354v-2.916A2.845,2.845,0,0,0,167.159,272.6Zm.351,5.758a.352.352,0,0,1-.351.352h-2.1a.352.352,0,0,1-.351-.352v-2.916a.352.352,0,0,1,.351-.352h2.1a.352.352,0,0,1,.351.352Z" transform="translate(-135.286 -229.337)"/>
      <path id="Path_192303" data-name="Path 192303" d="M307.834,272.6h-2.1a2.845,2.845,0,0,0-2.842,2.842v2.916a2.845,2.845,0,0,0,2.842,2.842h2.1a2.845,2.845,0,0,0,2.842-2.842v-2.916A2.845,2.845,0,0,0,307.834,272.6Zm.351,5.758a.352.352,0,0,1-.351.352h-2.1a.352.352,0,0,1-.351-.352v-2.916a.352.352,0,0,1,.351-.352h2.1a.352.352,0,0,1,.351.352Z" transform="translate(-252.606 -229.337)"/>
      <path id="Path_192304" data-name="Path 192304" d="M222.55,272.6a1.245,1.245,0,0,0-1.245,1.245v6.11a1.245,1.245,0,0,0,2.49,0v-6.11A1.245,1.245,0,0,0,222.55,272.6Z" transform="translate(-184.565 -229.337)"/>
      <path id="Path_192305" data-name="Path 192305" d="M249.745,272.6a1.245,1.245,0,0,0-1.245,1.245v6.11a1.245,1.245,0,0,0,2.49,0v-6.11A1.245,1.245,0,0,0,249.745,272.6Z" transform="translate(-207.245 -229.337)"/>
      <path id="Path_192306" data-name="Path 192306" d="M276.94,272.6a1.245,1.245,0,0,0-1.245,1.245v6.11a1.245,1.245,0,0,0,2.49,0v-6.11A1.245,1.245,0,0,0,276.94,272.6Z" transform="translate(-229.925 -229.337)"/>
      <path id="Path_192307" data-name="Path 192307" d="M307.834,197.427h-2.1a2.845,2.845,0,0,0-2.842,2.842v2.916a2.845,2.845,0,0,0,2.842,2.842h2.1a2.845,2.845,0,0,0,2.842-2.842v-2.916A2.845,2.845,0,0,0,307.834,197.427Zm.351,5.758a.352.352,0,0,1-.351.352h-2.1a.352.352,0,0,1-.351-.352v-2.916a.352.352,0,0,1,.351-.352h2.1a.352.352,0,0,1,.351.352Z" transform="translate(-252.606 -166.647)"/>
      <path id="Path_192308" data-name="Path 192308" d="M194.355,197.427h-2.1a2.845,2.845,0,0,0-2.842,2.842v2.916a2.845,2.845,0,0,0,2.842,2.842h2.1a2.845,2.845,0,0,0,2.842-2.842v-2.916A2.845,2.845,0,0,0,194.355,197.427Zm.352,5.758a.352.352,0,0,1-.352.352h-2.1a.352.352,0,0,1-.351-.352v-2.916a.352.352,0,0,1,.351-.352h2.1a.352.352,0,0,1,.352.352Z" transform="translate(-157.967 -166.647)"/>
      <path id="Path_192309" data-name="Path 192309" d="M276.94,197.427a1.245,1.245,0,0,0-1.245,1.245v6.11a1.245,1.245,0,0,0,2.49,0v-6.11A1.245,1.245,0,0,0,276.94,197.427Z" transform="translate(-229.925 -166.647)"/>
      <path id="Path_192310" data-name="Path 192310" d="M249.745,197.427a1.245,1.245,0,0,0-1.245,1.245v6.11a1.245,1.245,0,0,0,2.49,0v-6.11A1.245,1.245,0,0,0,249.745,197.427Z" transform="translate(-207.245 -166.647)"/>
      <path id="Path_192311" data-name="Path 192311" d="M163.461,206.028a1.245,1.245,0,0,0,1.245-1.245v-6.11a1.245,1.245,0,1,0-2.49,0v6.11A1.245,1.245,0,0,0,163.461,206.028Z" transform="translate(-135.286 -166.648)"/>
    </g>
  </g>
</svg>
