<svg xmlns="http://www.w3.org/2000/svg" width="400" height="850" viewBox="0 0 400 850">
  <g id="Grupo_131781" data-name="Grupo 131781" transform="translate(-180 -1049)">
    <g id="Grupo_129831" data-name="Grupo 129831" transform="translate(3874.046 -882.677)">
      <line id="Línea_192" data-name="Línea 192" y2="692.574" transform="translate(-3493.546 2003.677)" fill="none" stroke="#004996" stroke-linecap="round" stroke-linejoin="round" stroke-width="4"/>
      <g id="Grupo_129822" data-name="Grupo 129822">
        <path id="Trazado_191564" data-name="Trazado 191564" d="M-3443.244,2752.251h-100.605a12.2,12.2,0,0,1-12.2-12.2v-31.6a12.2,12.2,0,0,1,12.2-12.2h100.605c-1.2,0,12.2-2.479,12.2,12.2v31.6A12.2,12.2,0,0,1-3443.244,2752.251Z" fill="#ffb30b" stroke="#084a93" stroke-linecap="round" stroke-linejoin="round" stroke-width="4" opacity="0.35"/>
        <text id="Windows_10_guest_" data-name="Windows 10
(guest)" transform="translate(-3493.546 2719.942)" font-size="14" font-family="Roboto-Bold, Roboto" font-weight="700"><tspan x="-38.319" y="0">Windows 10</tspan><tspan x="-22.586" y="16.8">(guest)</tspan></text>
      </g>
      <circle id="Elipse_4880" data-name="Elipse 4880" cx="6" cy="6" r="6" transform="translate(-3499.546 2665.357)" fill="#084a93"/>
      <circle id="Elipse_4881" data-name="Elipse 4881" cx="6" cy="6" r="6" transform="translate(-3499.546 2690.25)" fill="#004996"/>
      <path id="Trazado_191565" data-name="Trazado 191565" d="M-3618.546,2514.686V2338.874a20.188,20.188,0,0,1,20.187-20.188h209.625a20.189,20.189,0,0,1,20.188,20.188v175.812" fill="none" stroke="#004996" stroke-linecap="round" stroke-linejoin="round" stroke-width="4"/>
      <g id="Grupo_129823" data-name="Grupo 129823">
        <circle id="Elipse_4882" data-name="Elipse 4882" cx="50" cy="50" r="50" transform="translate(-3543.546 2571.357)" fill="#ffb30b" stroke="#084a93" stroke-linecap="round" stroke-linejoin="round" stroke-width="4"/>
        <text id="Máquina_virtual_de_Windows_10" data-name="Máquina
virtual de
Windows
10" transform="translate(-3493.547 2600.248)" font-size="14" font-family="Roboto-Bold, Roboto" font-weight="700"><tspan x="-27.286" y="0">Máquina</tspan><tspan x="-29.48" y="16.8">virtual de</tspan><tspan x="-28.543" y="33.6">Windows</tspan><tspan x="-8.032" y="50.4">10</tspan></text>
      </g>
      <g id="Grupo_129824" data-name="Grupo 129824">
        <path id="Trazado_191566" data-name="Trazado 191566" d="M-3568.244,2570.686h-100.605a12.2,12.2,0,0,1-12.2-12.2v-31.6a12.2,12.2,0,0,1,12.2-12.2h100.605c-1.2,0,12.2-2.478,12.2,12.2v31.6A12.2,12.2,0,0,1-3568.244,2570.686Z" fill="#ffb30b" stroke="#084a93" stroke-linecap="round" stroke-linejoin="round" stroke-width="4" opacity="0.35"/>
        <text id="Windows_95_guest_" data-name="Windows 95
(guest)" transform="translate(-3618.547 2538.377)" font-size="14" font-family="Roboto-Bold, Roboto" font-weight="700"><tspan x="-38.319" y="0">Windows 95</tspan><tspan x="-22.586" y="16.8">(guest)</tspan></text>
      </g>
      <g id="Grupo_129825" data-name="Grupo 129825">
        <path id="Trazado_191567" data-name="Trazado 191567" d="M-3318.323,2570.686h-100.6a12.2,12.2,0,0,1-12.2-12.2v-31.6a12.2,12.2,0,0,1,12.2-12.2h100.6c-1.2,0,12.2-2.478,12.2,12.2v31.6A12.2,12.2,0,0,1-3318.323,2570.686Z" fill="#ffb30b" stroke="#084a93" stroke-linecap="round" stroke-linejoin="round" stroke-width="4" opacity="0.35"/>
        <text id="Ubuntu_7.04_guest_" data-name="Ubuntu 7.04
(guest)" transform="translate(-3368.626 2538.377)" font-size="14" font-family="Roboto-Bold, Roboto" font-weight="700"><tspan x="-38.493" y="0">Ubuntu 7.04</tspan><tspan x="-22.586" y="16.8">(guest)</tspan></text>
      </g>
      <circle id="Elipse_4883" data-name="Elipse 4883" cx="6" cy="6" r="6" transform="translate(-3499.546 2565.357)" fill="#004996"/>
      <circle id="Elipse_4884" data-name="Elipse 4884" cx="6" cy="6" r="6" transform="translate(-3374.625 2508.528)" fill="#004996"/>
      <circle id="Elipse_4885" data-name="Elipse 4885" cx="6" cy="6" r="6" transform="translate(-3374.625 2484.687)" fill="#084a93"/>
      <circle id="Elipse_4886" data-name="Elipse 4886" cx="6" cy="6" r="6" transform="translate(-3624.546 2484.687)" fill="#084a93"/>
      <circle id="Elipse_4887" data-name="Elipse 4887" cx="6" cy="6" r="6" transform="translate(-3624.546 2508.528)" fill="#004996"/>
      <g id="Grupo_129826" data-name="Grupo 129826">
        <circle id="Elipse_4888" data-name="Elipse 4888" cx="50" cy="50" r="50" transform="translate(-3418.546 2390.687)" fill="#ffb30b" stroke="#084a93" stroke-linecap="round" stroke-linejoin="round" stroke-width="4"/>
        <text id="Máquina_virtual_de_Ubuntu_7.04" data-name="Máquina
virtual de
Ubuntu
7.04" transform="translate(-3368.546 2419.578)" font-size="14" font-family="Roboto-Bold, Roboto" font-weight="700"><tspan x="-27.286" y="0">Máquina</tspan><tspan x="-29.48" y="16.8">virtual de</tspan><tspan x="-22.668" y="33.6">Ubuntu</tspan><tspan x="-14.082" y="50.4">7.04</tspan></text>
      </g>
      <g id="Grupo_129827" data-name="Grupo 129827">
        <circle id="Elipse_4889" data-name="Elipse 4889" cx="50" cy="50" r="50" transform="translate(-3668.546 2390.687)" fill="#ffb30b" stroke="#084a93" stroke-linecap="round" stroke-linejoin="round" stroke-width="4"/>
        <text id="Máquina_virtual_de_Windows_95" data-name="Máquina
virtual de
Windows
95" transform="translate(-3618.547 2419.578)" font-size="14" font-family="Roboto-Bold, Roboto" font-weight="700"><tspan x="-27.286" y="0">Máquina</tspan><tspan x="-29.48" y="16.8">virtual de</tspan><tspan x="-28.543" y="33.6">Windows</tspan><tspan x="-8.032" y="50.4">95</tspan></text>
      </g>
      <circle id="Elipse_4890" data-name="Elipse 4890" cx="6" cy="6" r="6" transform="translate(-3499.546 2135.677)" fill="#084a93"/>
      <circle id="Elipse_4891" data-name="Elipse 4891" cx="6" cy="6" r="6" transform="translate(-3499.546 2264.677)" fill="#084a93"/>
      <circle id="Elipse_4892" data-name="Elipse 4892" cx="6" cy="6" r="6" transform="translate(-3499.546 2312.687)" fill="#004996"/>
      <circle id="Elipse_4893" data-name="Elipse 4893" cx="6" cy="6" r="6" transform="translate(-3374.625 2384.687)" fill="#004996"/>
      <circle id="Elipse_4894" data-name="Elipse 4894" cx="6" cy="6" r="6" transform="translate(-3624.546 2384.687)" fill="#004996"/>
      <g id="Grupo_129828" data-name="Grupo 129828">
        <rect id="Rectángulo_293631" data-name="Rectángulo 293631" width="160" height="81" rx="6.943" transform="translate(-3573.546 2189.677)" fill="#004996" stroke="#084a93" stroke-linecap="round" stroke-linejoin="round" stroke-width="4"/>
        <text id="Programa_Máquina_virtual_host_" data-name="Programa
Máquina virtual
(host)" transform="translate(-3493.546 2215.652)" fill="#fff" font-size="16" font-family="Roboto-Bold, Roboto" font-weight="700"><tspan x="-35.332" y="0">Programa</tspan><tspan x="-56.043" y="19.2">Máquina virtual</tspan><tspan x="-21.445" y="38.4">(host)</tspan></text>
      </g>
      <circle id="Elipse_4895" data-name="Elipse 4895" cx="6" cy="6" r="6" transform="translate(-3499.546 2183.677)" fill="#004996"/>
      <g id="Grupo_129829" data-name="Grupo 129829">
        <circle id="Elipse_4896" data-name="Elipse 4896" cx="45" cy="45" r="45" transform="translate(-3538.546 2051.677)" fill="#ffb30b" stroke="#084a93" stroke-linecap="round" stroke-linejoin="round" stroke-width="4"/>
        <text id="Windows" transform="translate(-3493.546 2101.353)" font-size="16" font-family="Roboto-Bold, Roboto" font-weight="700"><tspan x="-32.621" y="0">Windows</tspan></text>
      </g>
      <circle id="Elipse_4897" data-name="Elipse 4897" cx="6" cy="6" r="6" transform="translate(-3499.546 1997.677)" fill="#084a93"/>
      <circle id="Elipse_4898" data-name="Elipse 4898" cx="6" cy="6" r="6" transform="translate(-3499.546 2045.677)" fill="#004996"/>
      <g id="Grupo_129830" data-name="Grupo 129830">
        <rect id="Rectángulo_293632" data-name="Rectángulo 293632" width="180" height="42" rx="10" transform="translate(-3583.546 1961.677)" fill="#004996" stroke="#084a93" stroke-linecap="round" stroke-linejoin="round" stroke-width="4" opacity="0.2"/>
        <text id="Ordenador_físico" data-name="Ordenador físico" transform="translate(-3493.546 1987.353)" fill="#084a93" font-size="16" font-family="Roboto-Bold, Roboto" font-weight="700"><tspan x="-59.973" y="0">Ordenador físico</tspan></text>
      </g>
    </g>
    <g id="Rectángulo_293474" data-name="Rectángulo 293474" transform="translate(180 1049)" fill="none" stroke="#084a93" stroke-width="2" stroke-dasharray="10 10">
      <rect width="400" height="850" rx="10" stroke="none"/>
      <rect x="1" y="1" width="398" height="848" rx="9" fill="none"/>
    </g>
  </g>
</svg>
