<svg xmlns="http://www.w3.org/2000/svg" width="188.667" height="188.826" viewBox="0 0 188.667 188.826">
  <g id="_3" data-name="3" transform="translate(-0.001)">
    <path id="Path_192260" data-name="Path 192260" d="M339.094,44.789H269.707a10.451,10.451,0,0,0-10.45,10.45V94.488a10.451,10.451,0,0,0,10.45,10.45H294.39l-3.989,16.1a2.284,2.284,0,0,0,3.609,2.36l24.034-18.462H339.1a10.45,10.45,0,0,0,10.45-10.45V55.239a10.452,10.452,0,0,0-10.452-10.45Zm0,0" transform="translate(-163.642 -28.271)" fill="#ffcf63"/>
    <path id="Path_192261" data-name="Path 192261" d="M346.664,211.53l-3.084,12.454a2.284,2.284,0,0,0,3.609,2.36l24.034-18.462h-19.81Zm0,0" transform="translate(-216.821 -131.215)" fill="#ffb30b"/>
    <path id="Path_192262" data-name="Path 192262" d="M441.829,44.789h-19.81a10.45,10.45,0,0,1,10.45,10.45V94.488a10.45,10.45,0,0,1-10.45,10.45h19.81a10.449,10.449,0,0,0,10.45-10.45V55.239A10.45,10.45,0,0,0,441.829,44.789Zm0,0" transform="translate(-266.378 -28.271)" fill="#ffb30b"/>
    <path id="Path_192263" data-name="Path 192263" d="M153.24,288.616c-.52-8.868-6.15-16.095-14.529-20.019-10.256-4.8-38.185-12.067-38.185-12.067a5.7,5.7,0,0,1-4.658-5.6V234.964H65.5v15.965a5.7,5.7,0,0,1-4.656,5.6S32.919,263.8,22.661,268.6c-8.379,3.924-14.009,11.15-14.529,20.019L7.5,326.679a7.6,7.6,0,0,0,7.6,7.69h131.17a7.6,7.6,0,0,0,7.6-7.69Zm0,0" transform="translate(-4.735 -148.309)" fill="#fcc18b"/>
    <path id="Path_192264" data-name="Path 192264" d="M270.572,288.616c-.52-8.868-6.15-16.095-14.529-20.019-10.256-4.8-38.185-12.067-38.185-12.067a5.7,5.7,0,0,1-4.658-5.6V234.964h-19.81v25.541a5.7,5.7,0,0,0,4.656,5.6s27.931,7.267,38.187,12.068c8.379,3.923,14.009,11.15,14.529,20.018l.6,36.178H263.6a7.6,7.6,0,0,0,7.6-7.69Zm0,0" transform="translate(-122.067 -148.309)" fill="#eaab65"/>
    <path id="Path_192265" data-name="Path 192265" d="M103.2,125.367H99.209a6.158,6.158,0,0,0-6.068,7.416l1.566,8.619c1.214,6.388,8.5,3.469,8.5,3.469Zm0,0" transform="translate(-58.722 -79.132)" fill="#eaab65"/>
    <path id="Path_192266" data-name="Path 192266" d="M291.276,125.367h3.986a6.158,6.158,0,0,1,6.068,7.416l-1.566,8.619c-1.214,6.388-8.5,3.469-8.5,3.469Zm0,0" transform="translate(-183.846 -79.132)" fill="#fcc18b"/>
    <path id="Path_192267" data-name="Path 192267" d="M172.776,20.986a31.392,31.392,0,0,0-44.188,0c-6.611,6.113-10.192,15.191-10.192,24.56l.009,32.666c0,15.444,20.072,31.436,32.279,31.436s32.279-15.992,32.279-31.436l.009-32.666c0-9.368-3.583-18.447-10.194-24.56Zm0,0" transform="translate(-74.73 -7.508)" fill="#fcc18b"/>
    <path id="Path_192268" data-name="Path 192268" d="M211.081,20.986a32.606,32.606,0,0,0-22.093-9.092,31.711,31.711,0,0,0-9.906,1.683,34.321,34.321,0,0,1,12.189,7.409c6.611,6.113,10.192,15.191,10.192,24.56l-.009,32.666c0,11.685-11.492,23.684-22.373,28.831a24.013,24.013,0,0,0,9.9,2.6c12.206,0,32.279-15.992,32.279-31.436l.009-32.666c0-9.368-3.581-18.447-10.192-24.56Zm0,0" transform="translate(-113.036 -7.508)" fill="#eaab65"/>
    <path id="Path_192269" data-name="Path 192269" d="M159.878,7.5H119.931a18.61,18.61,0,0,0-18.61,18.61V51.791s5.124-.117,8.418,3.142a1.09,1.09,0,0,0,1.851-.782V34.025a8.226,8.226,0,0,1,8.226-8.226h7.475a8.488,8.488,0,0,1,5.378,1.919l.733.6a10.274,10.274,0,0,0,13,0l.733-.6a8.489,8.489,0,0,1,5.378-1.919h7.474a8.226,8.226,0,0,1,8.227,8.226V54.152a1.09,1.09,0,0,0,1.851.782c3.292-3.26,8.418-3.143,8.418-3.143V26.111A18.611,18.611,0,0,0,159.878,7.5Zm0,0" transform="translate(-63.953 -4.734)" fill="#265185"/>
    <path id="Path_192270" data-name="Path 192270" d="M248.273,7.5h-6.909c3.476,4.093,5.657,10.24,5.712,18.3h1.312a8.226,8.226,0,0,1,8.226,8.226V54.152a1.09,1.09,0,0,0,1.851.782c3.293-3.26,8.418-3.143,8.418-3.143V26.111A18.611,18.611,0,0,0,248.273,7.5Zm0,0" transform="translate(-152.348 -4.734)" fill="#1b395e"/>
    <path id="Path_192271" data-name="Path 192271" d="M138.711,310.811c-5.969-2.793-17.92-6.422-26.872-8.968l-1.936.735a82.491,82.491,0,0,1-58.433,0l-1.936-.735c-8.952,2.546-20.9,6.175-26.872,8.968-8.379,3.924-14.009,11.15-14.529,20.019L7.5,368.893a7.6,7.6,0,0,0,7.6,7.69h131.17a7.6,7.6,0,0,0,7.6-7.69l-.631-38.063c-.52-8.868-6.15-16.095-14.529-20.019Zm0,0" transform="translate(-4.735 -190.524)" fill="#00defc"/>
    <path id="Path_192272" data-name="Path 192272" d="M154.437,367.045H59.912a5.48,5.48,0,0,1-5.466-5.09l-3.865-54.241a5.481,5.481,0,0,1,5.466-5.871H158.3a5.481,5.481,0,0,1,5.466,5.871L159.9,361.956a5.479,5.479,0,0,1-5.466,5.09Zm0,0" transform="translate(-31.917 -190.524)" fill="#f2f2f2"/>
    <path id="Path_192273" data-name="Path 192273" d="M308.541,301.844H288.586a5.48,5.48,0,0,1,5.466,5.871l-4.228,59.331h14.851a5.478,5.478,0,0,0,5.466-5.09l3.867-54.241a5.481,5.481,0,0,0-5.466-5.871Zm0,0" transform="translate(-182.154 -190.524)" fill="#cdd6df"/>
    <path id="Path_192274" data-name="Path 192274" d="M159.821,488.175H53.124a4.769,4.769,0,0,1,0-9.538h106.7a4.769,4.769,0,0,1,0,9.538Zm0,0" transform="translate(-30.521 -302.115)" fill="#cdd6df"/>
    <path id="Path_192275" data-name="Path 192275" d="M200.507,383.109a7.632,7.632,0,1,1-7.632-7.632A7.632,7.632,0,0,1,200.507,383.109Zm0,0" transform="translate(-116.924 -237.001)" fill="#fff"/>
    <path id="Path_192276" data-name="Path 192276" d="M349.087,112.775a2.583,2.583,0,0,0-2.324-2.494,1.026,1.026,0,0,0-.648.171l-8.677,5.636a2.258,2.258,0,0,0,0,3.826l8.677,5.636a1.026,1.026,0,0,0,.648.171,2.583,2.583,0,0,0,2.324-2.494,1.565,1.565,0,0,0-.615-1.333L342.458,118l6.013-3.894a1.569,1.569,0,0,0,.615-1.333Zm0,0" transform="translate(-212.322 -69.61)"/>
    <path id="Path_192277" data-name="Path 192277" d="M394.155,85.367a1.5,1.5,0,0,0-1.435.854l-11.99,24.627a1.534,1.534,0,0,0-.171.65,1.89,1.89,0,0,0,1.915,1.809,1.713,1.713,0,0,0,1.537-.853l12.023-24.629a1.482,1.482,0,0,0,.137-.65,1.959,1.959,0,0,0-2.015-1.809Zm0,0" transform="translate(-240.208 -53.884)"/>
    <path id="Path_192278" data-name="Path 192278" d="M444.264,116.088l-8.675-5.636a1.033,1.033,0,0,0-.65-.171,2.582,2.582,0,0,0-2.322,2.494,1.565,1.565,0,0,0,.615,1.333L439.244,118l-6.012,3.894a1.565,1.565,0,0,0-.615,1.333,2.582,2.582,0,0,0,2.322,2.494,1.033,1.033,0,0,0,.65-.171l8.675-5.636a2.258,2.258,0,0,0,0-3.826Zm0,0" transform="translate(-273.067 -69.609)"/>
    <path id="Path_192279" data-name="Path 192279" d="M175.452,13.752H115.9A21.414,21.414,0,0,0,95.923,0H55.978A21.4,21.4,0,0,0,34.6,21.376V45.649a9.019,9.019,0,0,0-2.9,8.5l1.57,8.641a7.525,7.525,0,0,0,3.362,5.25,8.131,8.131,0,0,0,4.277,1.132V70.7c0,7.791,4.545,16.377,12.47,23.559A50.913,50.913,0,0,0,58,97.987v4.633a2.931,2.931,0,0,1-2.4,2.881c-.065.012-.128.026-.192.042-.048.013-4.8,1.25-11,3.011H24.13a8.245,8.245,0,0,0-8.225,8.832l.055.781C6.888,122.717,1.18,130.874.636,140.144l0,.117L0,178.335a10.362,10.362,0,0,0,10.364,10.491H141.536a10.365,10.365,0,0,0,10.364-10.5l-.63-38.063c0-.039,0-.078-.006-.117-.559-9.538-6.584-17.9-16.118-22.361-.174-.082-.357-.166-.546-.251l.01-.146a8.245,8.245,0,0,0-8.225-8.832h-18.9c-6.206-1.76-10.956-3-11-3.009-.063-.017-.127-.032-.192-.043a2.931,2.931,0,0,1-2.4-2.881V97.988a51.181,51.181,0,0,0,4.626-3.725,40.406,40.406,0,0,0,10.715-14.83h17.972L124.073,92.1a4.993,4.993,0,0,0,2.136,5.44,4.99,4.99,0,0,0,5.842-.22l23.289-17.89h20.111a13.23,13.23,0,0,0,13.216-13.216V26.968a13.231,13.231,0,0,0-13.216-13.216ZM111,50.428a11.934,11.934,0,0,1,2.711-.568,3.568,3.568,0,0,1,1.05,3.3l-1.562,8.6c-.228,1.2-.689,1.485-.84,1.579A2.7,2.7,0,0,1,111,63.64ZM40.134,21.376A15.863,15.863,0,0,1,55.978,5.532H95.925a15.863,15.863,0,0,1,15.844,15.844V44.551a16.1,16.1,0,0,0-4.737,1.593V29.291A11,11,0,0,0,96.04,18.3H88.564a11.3,11.3,0,0,0-7.13,2.543l-.732.6a7.509,7.509,0,0,1-9.5,0l-.733-.6a11.3,11.3,0,0,0-7.13-2.543H55.862A11,11,0,0,0,44.87,29.291V46.143a16.091,16.091,0,0,0-4.737-1.592Zm-.592,41.957c-.151-.094-.612-.379-.836-1.556L37.14,53.158a3.575,3.575,0,0,1,1.047-3.3,11.938,11.938,0,0,1,2.714.565l0,13.213a2.707,2.707,0,0,1-1.363-.307ZM15.068,181.29a7.534,7.534,0,0,0,.271,2H10.366a4.833,4.833,0,0,1-4.833-4.879l.63-38c.409-6.641,4.09-12.4,10.231-16.165l3.377,47.381a8.179,8.179,0,0,0,.572,2.475,7.547,7.547,0,0,0-5.274,7.187Zm115.676-9.662,3.432-48.144c6.941,3.724,11.126,9.819,11.564,16.929l.63,37.991a4.833,4.833,0,0,1-4.833,4.891h-4.973a7.536,7.536,0,0,0-6.281-9.474,8.141,8.141,0,0,0,.462-2.193Zm.558,9.662a2.006,2.006,0,0,1-2,2H22.6a2,2,0,0,1,0-4.006H129.3A2.006,2.006,0,0,1,131.3,181.29Zm-2.929-66.339a2.685,2.685,0,0,1,.72,2.043l-3.867,54.242a2.722,2.722,0,0,1-2.707,2.52H27.995a2.724,2.724,0,0,1-2.707-2.521l-3.865-54.241a2.713,2.713,0,0,1,2.707-2.907H126.387a2.691,2.691,0,0,1,1.987.864Zm-37.576-6.4H61.1a8.452,8.452,0,0,0,2.43-5.934v-1.238a28.036,28.036,0,0,0,12.415,3.524,28.047,28.047,0,0,0,12.417-3.524v1.238a8.452,8.452,0,0,0,2.43,5.934ZM94.81,90.163c-6.176,5.6-13.578,9.211-18.859,9.211s-12.682-3.616-18.858-9.211C50.322,84.03,46.439,76.937,46.439,70.7l-.006-17.426h.108A3.867,3.867,0,0,0,50.4,49.417V29.291a5.466,5.466,0,0,1,5.46-5.46h7.475a5.744,5.744,0,0,1,3.626,1.294l.735.6a13.039,13.039,0,0,0,16.505,0l.733-.6a5.747,5.747,0,0,1,3.627-1.294h7.474a5.467,5.467,0,0,1,5.461,5.46V49.417a3.866,3.866,0,0,0,3.967,3.861l0,17.427c0,6.232-3.882,13.326-10.653,19.459Zm88.326-23.946a7.692,7.692,0,0,1-7.684,7.684H154.4a2.76,2.76,0,0,0-1.684.573L129.774,92.1l3.658-14.765a2.765,2.765,0,0,0-2.684-3.432h-20A21.373,21.373,0,0,0,111,70.7V69.169a8.13,8.13,0,0,0,4.276-1.132,7.534,7.534,0,0,0,3.367-5.271l1.566-8.619a9.018,9.018,0,0,0-2.9-8.5V21.376c0-.7-.035-1.4-.1-2.092h58.253a7.692,7.692,0,0,1,7.684,7.684Zm0,0"/>
    <path id="Path_192280" data-name="Path 192280" d="M188.141,388.773a10.4,10.4,0,1,0-10.4-10.4A10.41,10.41,0,0,0,188.141,388.773Zm0-15.265a4.866,4.866,0,1,1-4.866,4.866A4.872,4.872,0,0,1,188.141,373.508Zm0,0" transform="translate(-112.19 -232.267)"/>
  </g>
</svg>
