<svg xmlns="http://www.w3.org/2000/svg" width="420" height="499" viewBox="0 0 420 499">
  <g id="_5" data-name="5" transform="translate(-1000 -3187)">
    <path id="BG" d="M0,0H420V499H0Z" transform="translate(1000 3187)" fill="#f6f6f6" opacity="0.15"/>
    <g id="Group_130263" data-name="Group 130263" transform="translate(7946.031 1655.222)">
      <path id="Path_192200" data-name="Path 192200" d="M-6841.311,1873.467a27.52,27.52,0,0,1-1.788-2.7c-1.15-2.371-.944-4.633,1.049-6.451,2.1-1.919,4.716-2.173,6.756-.342,4.092,3.673,7.979,7.6,11.711,11.639,2.04,2.209,1.6,5.115-.754,7.56q-4.8,4.976-9.773,9.785c-2.755,2.678-5.782,2.912-8.1.768-2.156-2-2.176-4.838-.058-7.874.184-.263.342-.543.943-1.507-2.462,0-4.5.014-6.531,0-11.068-.09-17.538-6.565-17.6-17.668-.039-6.505-.008-13.011-.008-20.113-3.816,0-7.374-.241-10.89.042-14.222,1.144-22.111-6.017-21.659-21.6.654-22.584.16-45.2.171-67.8.006-12.418,6.2-18.565,18.692-18.591,4.37-.009,8.74,0,13.685,0v-4.144q0-23.952.007-47.9c.017-11.755,6.356-18.076,18.147-18.118,8.18-.029,16.36-.006,24.842-.006.068-1.546.165-2.744.166-3.943.014-9.108-.044-18.217.024-27.325.081-10.712,6.535-17.216,17.267-17.287q20.4-.135,40.811,0c10.874.064,17.414,6.6,17.442,17.493q.094,36.434,0,72.868c-.028,11.009-6.679,17.507-17.744,17.568-4.7.026-9.4.005-14.477.005a48.715,48.715,0,0,0,.047,6.216c.463,3.422,2.925,4.554,6.059,4.566,6.633.026,13.267.013,19.9.014h51.268c7.954,0,9.883-2.317,8.5-10.8-4.356,0-8.813.087-13.264-.034a29.635,29.635,0,0,1-7.323-.806c-6.974-2.008-11.295-7.974-11.32-15.763q-.123-37.446.012-74.893c.049-9.706,6.634-16.275,16.4-16.4q21.245-.27,42.5-.006c10.031.12,16.447,6.783,16.583,16.961.122,9.107.029,18.217.031,27.325v4.021c1.454.083,2.636.206,3.82.209,7.308.019,14.616-.048,21.923.027,10.856.11,17.364,6.626,17.411,17.531.069,16.08.019,32.161.02,48.241v4.383c4.848,0,9.322-.01,13.8,0,12.244.031,18.568,6.274,18.578,18.415q.03,35.591,0,71.182c-.011,11.93-6.422,18.324-18.325,18.355-4.486.011-8.972,0-13.855,0-.072,1.4-.181,2.582-.185,3.766-.02,5.622.062,11.246-.028,16.867-.168,10.454-6.732,16.975-17.156,17.145-2.125.035-4.25.006-6.858.006.7,1.181,1.239,1.94,1.625,2.771,1.108,2.381.921,4.673-1.073,6.465-2.1,1.884-4.726,2.143-6.771.3-4.085-3.681-7.973-7.6-11.7-11.646-2.008-2.177-1.551-5.141.793-7.567q4.8-4.972,9.78-9.777c2.536-2.452,5.626-2.658,7.842-.685,2.233,1.988,2.317,4.825.236,7.853-.189.275-.363.561-1.018,1.577,3.65-.181,6.93.121,9.909-.689,1.461-.4,3.278-2.81,3.358-4.39.359-7.155.157-14.338.157-22-5.261,0-10.281-.009-15.3,0a16.375,16.375,0,0,1-12.91-5.492,16.085,16.085,0,0,1-4.061-11.13c.007-24.852-.063-49.7.033-74.555.038-10.082,6.618-16.537,16.763-16.752,5.031-.106,10.066-.018,15.365-.018.085-1.434.205-2.52.206-3.605q.018-24.121,0-48.242c-.007-5.838-1.633-7.506-7.35-7.529-8.181-.032-16.362-.008-25.024-.008v3.92c0,9,.045,17.993-.013,26.989-.073,11.063-6.629,17.594-17.653,17.665-4.709.03-9.418.005-14.717.005,0,1.53.018,2.818,0,4.1-.174,10.87-6.681,17.4-17.51,17.474-8.994.058-17.988.013-26.983.013h-3.845v13.042c.85-.5,1.537-.93,2.25-1.312,2.471-1.326,4.835-1.152,6.741.942s2.124,4.731.287,6.768a157.418,157.418,0,0,1-11.665,11.681c-2.307,2.073-5.06,1.593-7.29-.572q-4.962-4.816-9.79-9.768c-2.654-2.708-2.957-5.782-.9-8.079,2.006-2.242,4.773-2.323,7.848-.231.275.187.564.353,1.181.737v-13.05c-1.22-.054-2.416-.149-3.613-.151-8.882-.013-17.764.013-26.646-.013-11.547-.034-17.848-6.342-17.986-17.961-.013-1.087,0-2.175,0-3.625-5.157,0-9.859.019-14.561,0-11.289-.054-17.767-6.5-17.819-17.793-.041-8.883-.009-17.767-.01-26.651v-4.132h-4.271c-7.308,0-14.617-.057-21.924.034-4.046.051-6.108,1.842-6.125,5.593-.08,17.429-.028,34.859-.009,52.288a8.272,8.272,0,0,0,.379,1.465c4.793,0,9.7.043,14.6-.012,5.085-.057,9.5,1.443,13.022,5.238a16.532,16.532,0,0,1,4.317,11.725c.008,24.627.072,49.254-.026,73.881-.042,10.444-6.731,16.97-17.168,17.108-4.914.065-9.83.011-15.02.011,0,7.774-.136,15.157.072,22.531.076,2.7,2.166,4.159,4.794,4.34C-6847.1,1873.6-6844.526,1873.467-6841.311,1873.467Zm30.007-189.126h53.513v-21.083H-6811.3Zm97.1.048h53.6v-21.06h-53.6Zm129.209,97.6h-53.6v21.118h53.6Zm-301.875,21.1h53.511v-21.076h-53.511Zm75.448-151.068h53.76c0-5.673.187-11.145-.071-16.6-.15-3.158-2.43-4.675-5.522-4.74-3.589-.075-7.18-.037-10.771-.037-10.323,0-20.646-.033-30.969.021-4.066.021-6.234,1.57-6.369,4.924C-6811.576,1640.953-6811.417,1646.328-6811.417,1652.021Zm150.962.033c0-5.679.137-10.947-.052-16.2-.11-3.094-2-5.09-5.173-5.108q-21.708-.123-43.417-.007c-2.636.01-4.832,1.438-4.969,4.1-.293,5.667-.09,11.36-.09,17.219Zm75.617,118.711c0-5.078.052-9.881-.015-14.683-.066-4.834-1.892-6.619-6.818-6.667-5.834-.057-11.669-.016-17.5-.016-7.742,0-15.484-.041-23.226.025-3.891.033-6.083,1.53-6.221,4.7-.239,5.465-.066,10.949-.066,16.646Zm-248.251.024c0-5.148.054-9.957-.016-14.764-.067-4.691-1.887-6.552-6.538-6.6-6.843-.074-13.688-.024-20.533-.024s-13.688,0-20.533.007c-3.118,0-5.892,1.03-6.1,4.439-.339,5.564-.092,11.163-.092,16.944Zm21.714-75.136c0,5.721-.158,11.2.062,16.657.122,3.048,2.348,4.612,5.242,4.629q21.537.122,43.075,0c2.917-.015,5.118-1.641,5.251-4.646.243-5.461.069-10.94.069-16.64Zm97.054-.019c0,5.556-.1,10.72.036,15.878.092,3.367,1.921,5.38,5.243,5.407,14.39.119,28.781.1,43.171.022,2.925-.015,5.129-1.637,5.261-4.653.241-5.473.069-10.963.069-16.654ZM-6886.9,1814.379c0,5.787-.224,11.372.087,16.926.18,3.219,2.772,4.428,5.769,4.435,13.91.033,27.82.062,41.729-.011,4.224-.022,6.094-1.993,6.2-6.268.1-3.925-.143-7.863.084-11.777.165-2.83-.81-3.592-3.589-3.57-15.591.123-31.184.055-46.777.067C-6884.484,1814.182-6885.573,1814.3-6886.9,1814.379Zm248.176.011c0,5.651-.129,11.017.049,16.372.106,3.206,2.269,4.912,5.332,4.93q21.535.126,43.072,0c2.921-.017,5.1-1.677,5.225-4.677.238-5.46.068-10.938.068-16.622Z"/>
      <path id="Path_192201" data-name="Path 192201" d="M-6758,1911.334c-10.98,0-21.643.012-32.305-.01a62.815,62.815,0,0,1-7.069-.23,15.793,15.793,0,0,1-14-14.53c-.086-1.007-.112-2.021-.113-3.032,0-27.773.039-55.547-.032-83.32-.019-7.641,3-13.336,10.09-16.343a19.885,19.885,0,0,1,7.567-1.234q57.84-.111,115.68-.038c11.279.011,17.763,6.529,17.779,17.837q.062,41.492,0,82.983c-.015,11.433-6.569,17.882-18.078,17.911-10.568.026-21.135.006-31.7.006h-3.9c.3,6.937,1.082,13.357,3.7,19.381.443,1.018,2.072,1.79,3.3,2.128,1.478.405,3.15.05,4.68.335a4.785,4.785,0,0,1,4.118,5.019,4.856,4.856,0,0,1-3.9,5.207,13.854,13.854,0,0,1-3.341.3q-30.522.024-61.044-.006a11.24,11.24,0,0,1-3.653-.44c-2.387-.839-3.909-2.827-3.272-5.2.482-1.79,2.2-3.294,3.522-4.783.342-.385,1.281-.274,1.951-.324,6.467-.49,6.574-.469,8.078-6.846.85-3.6,1.353-7.282,1.921-10.942A28.3,28.3,0,0,0-6758,1911.334Zm86.82-32.589v-3.335q0-32.195-.006-64.389c0-6.02-1.6-7.635-7.57-7.637q-57.13-.018-114.259,0c-6.217,0-7.681,1.5-7.683,7.815q-.013,32.025,0,64.052v3.5Zm-129.1,11.132c-1.428,8.366.436,10.66,8.363,10.66q56.262,0,112.525,0c7.272,0,9.819-3.545,7.545-10.659Zm74.656,21.477c-6.336,0-12.931-.04-19.524.065a2.367,2.367,0,0,0-1.741,1.456c-1.065,6.582-1.985,13.187-2.945,19.8h27.9C-6723.148,1925.658-6724.325,1918.853-6725.622,1911.354Z"/>
      <path id="Path_192202" data-name="Path 192202" d="M-6811.3,1684.341v-21.083h53.513v21.083Zm15.833-15.82a5.184,5.184,0,0,0-5.16,5.442,5.248,5.248,0,0,0,5.44,5.2,5.325,5.325,0,0,0,5.2-5.48A5.239,5.239,0,0,0-6795.471,1668.521Z" fill="#004996"/>
      <path id="Path_192203" data-name="Path 192203" d="M-6714.2,1684.389v-21.06h53.6v21.06Zm15.944-5.216a5.327,5.327,0,0,0,5.4-5.29,5.224,5.224,0,0,0-5.269-5.364,5.2,5.2,0,0,0-5.372,5.24A5.279,5.279,0,0,0-6698.255,1679.173Z" fill="#87b1ca"/>
      <path id="Path_192204" data-name="Path 192204" d="M-6584.99,1781.992v21.118h-53.6v-21.118Zm-32.3,10.547a5.255,5.255,0,0,0-5.376-5.273,5.2,5.2,0,0,0-5.271,5.34,5.257,5.257,0,0,0,5.335,5.312A5.341,5.341,0,0,0-6617.291,1792.539Z" fill="#004996"/>
      <path id="Path_192205" data-name="Path 192205" d="M-6884.5,1800.726V1779.65h53.511v21.076Zm21.32-10.5a5.245,5.245,0,0,0-5.325-5.319,5.205,5.205,0,0,0-5.326,5.288,5.276,5.276,0,0,0,5.291,5.366A5.348,5.348,0,0,0-6863.181,1790.224Z" fill="#87b1ca"/>
      <path id="Path_192206" data-name="Path 192206" d="M-6809.054,1649.657c0-5.693-.158-11.068.058-16.427.136-3.355,2.3-4.9,6.37-4.925,10.322-.053,20.646-.022,30.969-.021,3.59,0,7.182-.037,10.771.038,3.092.064,5.372,1.582,5.521,4.74.258,5.451.072,10.922.072,16.595Zm21.432-10.669a5.251,5.251,0,0,0-5.427-5.222,5.2,5.2,0,0,0-5.222,5.387,5.26,5.26,0,0,0,5.384,5.262A5.337,5.337,0,0,0-6787.622,1638.988Z" fill="#87b1ca"/>
      <path id="Path_192207" data-name="Path 192207" d="M-6660.455,1652.054h-53.7c0-5.859-.2-11.552.09-17.219.137-2.661,2.333-4.089,4.969-4.1q21.708-.09,43.417.007c3.169.018,5.063,2.014,5.173,5.108C-6660.318,1641.107-6660.455,1646.375-6660.455,1652.054Zm-32.4-10.717a5.233,5.233,0,0,0-5.432-5.206,5.194,5.194,0,0,0-5.206,5.4,5.258,5.258,0,0,0,5.4,5.246A5.316,5.316,0,0,0-6692.855,1641.337Z" fill="#004996"/>
      <path id="Path_192208" data-name="Path 192208" d="M-6584.838,1770.765h-53.849c0-5.7-.173-11.181.066-16.646.138-3.165,2.33-4.662,6.221-4.7,7.742-.066,15.484-.024,23.226-.025,5.834,0,11.669-.041,17.5.016,4.926.048,6.752,1.833,6.818,6.667C-6584.786,1760.884-6584.838,1765.687-6584.838,1770.765Zm-37.668-5.243a5.317,5.317,0,0,0,5.207-5.467,5.235,5.235,0,0,0-5.465-5.17,5.188,5.188,0,0,0-5.169,5.431A5.245,5.245,0,0,0-6622.506,1765.522Z" fill="#87b1ca"/>
      <path id="Path_192209" data-name="Path 192209" d="M-6833.089,1770.789H-6886.9c0-5.781-.247-11.38.092-16.944.207-3.409,2.981-4.437,6.1-4.439q10.268-.006,20.533-.007c6.845,0,13.69-.05,20.533.024,4.651.05,6.471,1.911,6.538,6.6C-6833.035,1760.832-6833.089,1765.641-6833.089,1770.789Zm-37.64-15.9a5.184,5.184,0,0,0-5.459,5.139,5.259,5.259,0,0,0,5.143,5.5,5.306,5.306,0,0,0,5.487-5.183A5.213,5.213,0,0,0-6870.729,1754.89Z" fill="#004996"/>
      <path id="Path_192210" data-name="Path 192210" d="M-6809.012,1693.289h53.7c0,5.7.173,11.179-.069,16.64-.134,3.005-2.335,4.631-5.252,4.647q-21.536.117-43.074,0c-2.9-.016-5.12-1.58-5.243-4.628C-6809.17,1704.486-6809.012,1699.01-6809.012,1693.289Zm16.028,5.249a5.2,5.2,0,0,0-5.291,5.323,5.259,5.259,0,0,0,5.324,5.325,5.341,5.341,0,0,0,5.332-5.361A5.26,5.26,0,0,0-6792.984,1698.538Z" fill="#87b1ca"/>
      <path id="Path_192211" data-name="Path 192211" d="M-6714.321,1695.634h53.78c0,5.691.172,11.181-.069,16.654-.132,3.016-2.336,4.638-5.261,4.653-14.39.074-28.781.1-43.171-.022-3.322-.027-5.151-2.04-5.243-5.407C-6714.425,1706.354-6714.321,1701.19-6714.321,1695.634Zm21.47,10.556a5.244,5.244,0,0,0-5.355-5.289,5.2,5.2,0,0,0-5.291,5.322,5.26,5.26,0,0,0,5.32,5.327A5.329,5.329,0,0,0-6692.851,1706.19Z" fill="#004996"/>
      <path id="Path_192212" data-name="Path 192212" d="M-6886.9,1814.379c1.326-.078,2.415-.2,3.5-.2,15.593-.012,31.186.056,46.777-.067,2.779-.022,3.754.74,3.589,3.57-.227,3.914.014,7.852-.084,11.777-.107,4.275-1.977,6.246-6.2,6.268-13.909.073-27.819.044-41.729.011-3-.007-5.589-1.216-5.769-4.435C-6887.123,1825.751-6886.9,1820.166-6886.9,1814.379Zm16.047,5.277a5.205,5.205,0,0,0-5.344,5.27,5.277,5.277,0,0,0,5.273,5.384,5.341,5.341,0,0,0,5.376-5.317A5.243,5.243,0,0,0-6870.852,1819.656Z" fill="#004996"/>
      <path id="Path_192213" data-name="Path 192213" d="M-6638.723,1814.39h53.746c0,5.684.17,11.162-.068,16.622-.13,3-2.3,4.66-5.225,4.677q-21.535.123-43.072,0c-3.063-.018-5.226-1.724-5.332-4.93C-6638.852,1825.407-6638.723,1820.041-6638.723,1814.39Zm16,15.916a5.324,5.324,0,0,0,5.425-5.257,5.227,5.227,0,0,0-5.243-5.389,5.194,5.194,0,0,0-5.4,5.21A5.267,5.267,0,0,0-6622.726,1830.306Z" fill="#87b1ca"/>
      <path id="Path_192214" data-name="Path 192214" d="M-6671.182,1878.745H-6800.7v-3.5q0-32.027,0-64.052c0-6.311,1.466-7.813,7.683-7.815q57.129-.013,114.259,0c5.975,0,7.566,1.617,7.57,7.637q.02,32.195.006,64.389Zm-64.811-10.6q9.935,0,19.87,0c4.873,0,8.793-1.855,11.144-6.225,2.379-4.421,1.465-8.6-1.256-12.648-6.381-9.5-12.623-19.093-18.976-28.613-5.83-8.737-15.667-8.751-21.478-.037-6.349,9.521-12.586,19.118-18.98,28.608-2.73,4.053-3.659,8.21-1.3,12.64,2.4,4.522,6.447,6.31,11.446,6.285C-6749.016,1868.123-6742.5,1868.148-6735.993,1868.146Zm-53.9-37.821h.018c0,3.591-.111,7.187.033,10.772.132,3.293,2.317,5.394,5.265,5.408a5.194,5.194,0,0,0,5.359-5.342q.246-10.767.006-21.544a5.079,5.079,0,0,0-5.3-5.359c-3.138-.022-5.238,2.075-5.359,5.628C-6789.98,1823.364-6789.888,1826.846-6789.888,1830.325Zm97.137-.193c0,3.591-.1,7.186.028,10.774.117,3.366,2.145,5.457,5.1,5.578a5.211,5.211,0,0,0,5.566-5.463q.237-10.6.012-21.21c-.071-3.555-2.31-5.606-5.46-5.551-3.12.054-5.115,2.16-5.228,5.77C-6692.84,1823.394-6692.758,1826.764-6692.751,1830.132Zm-86.473,32.916a5.2,5.2,0,0,0-5.007-5.594,5.172,5.172,0,0,0-5.6,4.984,5.233,5.233,0,0,0,4.982,5.63A5.278,5.278,0,0,0-6779.224,1863.048Zm97.157-.172a5.223,5.223,0,0,0-5.2-5.433,5.2,5.2,0,0,0-5.44,5.167,5.267,5.267,0,0,0,5.17,5.476A5.322,5.322,0,0,0-6682.067,1862.876Z" fill="#e1f3fe"/>
      <path id="Path_192215" data-name="Path 192215" d="M-6800.278,1889.877h128.433c2.274,7.114-.273,10.658-7.545,10.659q-56.262.006-112.525,0C-6799.842,1900.537-6801.706,1898.243-6800.278,1889.877Z" fill="#87b1ca"/>
      <path id="Path_192216" data-name="Path 192216" d="M-6725.622,1911.354c1.3,7.5,2.474,14.3,3.686,21.32h-27.9c.96-6.612,1.88-13.217,2.945-19.8a2.367,2.367,0,0,1,1.741-1.456C-6738.553,1911.314-6731.958,1911.354-6725.622,1911.354Z" fill="#87b1ca"/>
      <path id="Path_192217" data-name="Path 192217" d="M-6795.471,1668.521a5.239,5.239,0,0,1,5.479,5.159,5.325,5.325,0,0,1-5.2,5.48,5.248,5.248,0,0,1-5.44-5.2A5.184,5.184,0,0,1-6795.471,1668.521Z"/>
      <path id="Path_192218" data-name="Path 192218" d="M-6698.255,1679.173a5.279,5.279,0,0,1-5.244-5.414,5.2,5.2,0,0,1,5.372-5.24,5.224,5.224,0,0,1,5.269,5.364A5.327,5.327,0,0,1-6698.255,1679.173Z"/>
      <path id="Path_192219" data-name="Path 192219" d="M-6617.291,1792.539a5.341,5.341,0,0,1-5.312,5.379,5.257,5.257,0,0,1-5.335-5.312,5.2,5.2,0,0,1,5.271-5.34A5.255,5.255,0,0,1-6617.291,1792.539Z"/>
      <path id="Path_192220" data-name="Path 192220" d="M-6865.545,1792.588a5.348,5.348,0,0,1-5.359,5.335,5.276,5.276,0,0,1-5.292-5.366,5.207,5.207,0,0,1,5.326-5.289A5.247,5.247,0,0,1-6865.545,1792.588Z"/>
      <path id="Path_192221" data-name="Path 192221" d="M-6789.986,1641.352a5.337,5.337,0,0,1-5.264,5.427,5.261,5.261,0,0,1-5.385-5.262,5.2,5.2,0,0,1,5.223-5.388A5.252,5.252,0,0,1-6789.986,1641.352Z"/>
      <path id="Path_192222" data-name="Path 192222" d="M-6692.855,1641.337a5.316,5.316,0,0,1-5.241,5.44,5.258,5.258,0,0,1-5.4-5.246,5.194,5.194,0,0,1,5.206-5.4A5.233,5.233,0,0,1-6692.855,1641.337Z"/>
      <path id="Path_192223" data-name="Path 192223" d="M-6622.506,1765.522a5.245,5.245,0,0,1-5.427-5.206,5.188,5.188,0,0,1,5.169-5.431,5.235,5.235,0,0,1,5.465,5.17A5.317,5.317,0,0,1-6622.506,1765.522Z"/>
      <path id="Path_192224" data-name="Path 192224" d="M-6870.729,1754.89a5.213,5.213,0,0,1,5.171,5.452,5.306,5.306,0,0,1-5.487,5.183,5.259,5.259,0,0,1-5.143-5.5A5.184,5.184,0,0,1-6870.729,1754.89Z"/>
      <path id="Path_192225" data-name="Path 192225" d="M-6795.348,1700.9a5.261,5.261,0,0,1,5.366,5.287,5.344,5.344,0,0,1-5.333,5.361,5.258,5.258,0,0,1-5.323-5.325A5.2,5.2,0,0,1-6795.348,1700.9Z"/>
      <path id="Path_192226" data-name="Path 192226" d="M-6692.851,1706.19a5.329,5.329,0,0,1-5.326,5.36,5.26,5.26,0,0,1-5.32-5.327,5.2,5.2,0,0,1,5.291-5.322A5.244,5.244,0,0,1-6692.851,1706.19Z"/>
      <path id="Path_192227" data-name="Path 192227" d="M-6870.852,1819.656a5.243,5.243,0,0,1,5.305,5.337,5.341,5.341,0,0,1-5.376,5.317,5.277,5.277,0,0,1-5.273-5.384A5.205,5.205,0,0,1-6870.852,1819.656Z"/>
      <path id="Path_192228" data-name="Path 192228" d="M-6622.726,1830.306a5.267,5.267,0,0,1-5.213-5.436,5.194,5.194,0,0,1,5.4-5.21,5.227,5.227,0,0,1,5.243,5.389A5.324,5.324,0,0,1-6622.726,1830.306Z"/>
      <path id="Path_192229" data-name="Path 192229" d="M-6735.993,1868.147c-6.511,0-13.023-.024-19.534.008-5,.025-9.042-1.763-11.446-6.285-2.355-4.43-1.426-8.587,1.3-12.64,6.394-9.49,12.631-19.087,18.98-28.608,5.811-8.714,15.648-8.7,21.478.037,6.353,9.52,12.595,19.112,18.976,28.613,2.721,4.051,3.635,8.227,1.256,12.648-2.351,4.37-6.271,6.224-11.144,6.225Q-6726.059,1868.148-6735.993,1868.147Zm21.694-11.063-21.666-33.114-21.918,33.114Z"/>
      <path id="Path_192230" data-name="Path 192230" d="M-6789.888,1830.325c0-3.479-.092-6.961.026-10.437.121-3.553,2.221-5.65,5.359-5.628a5.079,5.079,0,0,1,5.3,5.359q.234,10.768-.006,21.544a5.194,5.194,0,0,1-5.359,5.342c-2.948-.014-5.133-2.115-5.265-5.408-.144-3.585-.033-7.181-.033-10.772Z"/>
      <path id="Path_192231" data-name="Path 192231" d="M-6692.754,1830.131c0-3.367-.086-6.737.019-10.1.113-3.61,2.108-5.716,5.228-5.77,3.15-.055,5.389,2,5.46,5.551q.212,10.6-.012,21.21a5.211,5.211,0,0,1-5.566,5.463c-2.953-.121-4.981-2.212-5.1-5.578C-6692.848,1837.318-6692.751,1833.723-6692.754,1830.131Z"/>
      <path id="Path_192232" data-name="Path 192232" d="M-6779.224,1863.048a5.278,5.278,0,0,1-5.62,5.02,5.233,5.233,0,0,1-4.982-5.63,5.172,5.172,0,0,1,5.6-4.984A5.2,5.2,0,0,1-6779.224,1863.048Z"/>
      <path id="Path_192233" data-name="Path 192233" d="M-6682.067,1862.876a5.322,5.322,0,0,1-5.466,5.21,5.267,5.267,0,0,1-5.17-5.476,5.2,5.2,0,0,1,5.44-5.167A5.223,5.223,0,0,1-6682.067,1862.876Z"/>
      <path id="Path_192234" data-name="Path 192234" d="M-6714.3,1857.084h-43.584l21.918-33.114Z" fill="#ffb300"/>
    </g>
    <rect id="BG-2" data-name="BG" width="372" height="451" transform="translate(1024 3211)" fill="none" stroke="#084a93" stroke-width="2" stroke-dasharray="10"/>
  </g>
</svg>
