<svg xmlns="http://www.w3.org/2000/svg" width="890.765" height="217.849" viewBox="0 0 890.765 217.849">
  <g id="_4" data-name="4" transform="translate(-354.569 -4065.597)">
    <path id="Path_192334" data-name="Path 192334" d="M10,0A10,10,0,1,1,0,10,10,10,0,0,1,10,0Z" transform="translate(1105 4157)" fill="#ffb30b"/>
    <path id="Path_192336" data-name="Path 192336" d="M19.811,0H185.88a19.811,19.811,0,0,1,19.811,19.811V185.88a19.811,19.811,0,0,1-19.811,19.811H19.811A19.811,19.811,0,0,1,0,185.88V19.811A19.811,19.811,0,0,1,19.811,0Z" transform="translate(695.268 4071.676)" fill="#00defc"/>
    <path id="Path_189930" data-name="Path 189930" d="M-946.994,1810.935h-20.637a1.976,1.976,0,0,1-1.848-1.323,33.387,33.387,0,0,0-4.119-7.867,33.216,33.216,0,0,0-23.108-13.83,1.975,1.975,0,0,1-1.569-1.135c-7.13-15.543-19.82-25.225-36.888-28.1l-.164-.057a9.714,9.714,0,0,0-3.127-.516h-6.79a2.038,2.038,0,0,1-2.034-2.033v-53.786a1.956,1.956,0,0,0-1.955-1.956h-3.385a1.956,1.956,0,0,0-1.955,1.956v56.261a1.944,1.944,0,0,1-1.421,1.881c-1.35.367-2.72.784-4.114,1.3a42.749,42.749,0,0,0-16.18,10.708,1.969,1.969,0,0,1-1.589.6q-1.341-.111-2.688-.111a32.843,32.843,0,0,0-27.6,14.883,1.949,1.949,0,0,1-1.17.827,33.336,33.336,0,0,0-23.055,20.981,1.979,1.979,0,0,1-1.849,1.322h-20.619a4.994,4.994,0,0,0-4.994,4.994v69.942a29.269,29.269,0,0,0,29.268,29.268h159.506A29.075,29.075,0,0,0-942,1886.065v-70.135A4.994,4.994,0,0,0-946.994,1810.935Z" transform="translate(1849.037 2368.307)" fill="#fff"/>
    <path id="Path_189931" data-name="Path 189931" d="M-1059.065,1839.221q-21.619,0-43.237-.01a42.987,42.987,0,0,1-4.455-.243,23.5,23.5,0,0,1-20.732-23.273c-.078-11.855,8.913-22.215,20.5-23.486a2.865,2.865,0,0,0,2.665-1.809,23.344,23.344,0,0,1,26.586-12.428,2.461,2.461,0,0,0,2.984-1.053,34.2,34.2,0,0,1,15.219-11.438c3.7-1.366,7.657-2.038,11.5-3.021h6.79a6.023,6.023,0,0,0,.983.327c15.187,2.349,25.607,10.69,31.321,24.928.587,1.464,1,3,1.5,4.51,1.042-.052,1.933-.092,2.823-.142,16.472-.918,28.835,15.57,23.356,31.153-3.445,9.8-12.255,15.949-23.053,15.976-14.77.038-29.54.01-44.309.01Zm46.8-39.523c-1.826-15.429-9.527-26.349-24.678-30.158-15.972-4.016-28.176,2.466-36.854,16.108-.637-.271-1.181-.5-1.721-.731-10.5-4.55-21.195.2-24.707,11.095-.537,1.664-1.287,1.958-2.888,1.913a17.037,17.037,0,0,0-15.584,8.054c-3.834,5.925-4.067,12.232-.463,18.4a16.978,16.978,0,0,0,15.487,8.855q49.929.06,99.857.026a18.133,18.133,0,0,0,8.869-2.318,17.629,17.629,0,0,0,7.728-22.008,17.743,17.743,0,0,0-20.2-10.592C-1008.978,1798.713-1010.506,1799.2-1012.267,1799.7Z" transform="translate(1851.834 2373.677)"/>
    <path id="Path_189932" data-name="Path 189932" d="M-1012.725,1799.228c1.761-.5,3.289-.984,4.845-1.354a17.743,17.743,0,0,1,20.2,10.592,17.629,17.629,0,0,1-7.728,22.008,18.133,18.133,0,0,1-8.869,2.318q-49.927-.02-99.857-.026a16.978,16.978,0,0,1-15.487-8.855c-3.6-6.17-3.371-12.477.463-18.4a17.037,17.037,0,0,1,15.584-8.054c1.6.045,2.351-.249,2.888-1.913,3.512-10.894,14.209-15.645,24.707-11.095.54.234,1.084.461,1.721.731,8.678-13.642,20.882-20.125,36.854-16.108C-1022.252,1772.879-1014.552,1783.8-1012.725,1799.228Zm-14.087-17.651c-9.375-10.119-27.172-10.512-37.1-.026l3.955,3.946c9.773-7.834,19.542-7.792,29.193,0Zm22.8,27.456c4.019,1.094,5.888,3.091,5.863,6.117-.026,3.043-1.982,5.071-5.8,5.987v5.71c4.89-.243,8.437-2.394,10.476-6.679a11.153,11.153,0,0,0-1.2-12.108,10.828,10.828,0,0,0-9.339-4.605Z" transform="translate(1852.293 2374.146)" fill="#084a93"/>
    <path id="Path_189933" data-name="Path 189933" d="M-1031.448,1781.1l-3.949,3.917c-9.652-7.789-19.42-7.831-29.193,0l-3.955-3.946C-1058.62,1770.592-1040.823,1770.985-1031.448,1781.1Z" transform="translate(1856.929 2374.619)"/>
    <path id="Path_189934" data-name="Path 189934" d="M-1013.41,1806.2v-5.579a10.828,10.828,0,0,1,9.339,4.605,11.153,11.153,0,0,1,1.2,12.108c-2.039,4.285-5.586,6.436-10.476,6.679v-5.71c3.82-.916,5.776-2.944,5.8-5.987C-1007.522,1809.295-1009.391,1807.3-1013.41,1806.2Z" transform="translate(1861.693 2376.975)"/>
    <path id="Path_189935" data-name="Path 189935" d="M-969.6,1915.381h-162.645a27.633,27.633,0,0,1-27.6-27.6V1725.134a27.633,27.633,0,0,1,27.6-27.6H-969.6a27.633,27.633,0,0,1,27.6,27.6v162.645A27.633,27.633,0,0,1-969.6,1915.381Zm-162.645-211.771a21.548,21.548,0,0,0-21.524,21.523v162.645a21.548,21.548,0,0,0,21.524,21.523H-969.6a21.546,21.546,0,0,0,21.522-21.523V1725.134a21.546,21.546,0,0,0-21.522-21.523Z" transform="translate(1849.037 2368.065)" fill="#ffb30b"/>
    <path id="Path_192337" data-name="Path 192337" d="M19.811,0H185.88a19.811,19.811,0,0,1,19.811,19.811V185.88a19.811,19.811,0,0,1-19.811,19.811H19.811A19.811,19.811,0,0,1,0,185.88V19.811A19.811,19.811,0,0,1,19.811,0Z" transform="translate(1033.563 4071.676)" fill="#00defc"/>
    <path id="Path_189936" data-name="Path 189936" d="M-634.138,1808.1h-23.988a33.391,33.391,0,0,0-4.57-9.19,33.185,33.185,0,0,0-24.22-13.943c-7.038-16.142-19.907-26.184-37.345-29.126l-.164-.057a9.715,9.715,0,0,0-3.127-.516h-6.79a9.719,9.719,0,0,0-2.034.231v-15.019h102.1v-7.3h-211.5v7.3h102.1v16.739a53.544,53.544,0,0,0-5.535,1.671,42.921,42.921,0,0,0-16.829,11.4,32.7,32.7,0,0,0-3.629-.2,32.851,32.851,0,0,0-28.012,15.534,33.337,33.337,0,0,0-24.261,22.479h-23.971a3.039,3.039,0,0,0-3.04,3.039v72.759A28.407,28.407,0,0,0-820.54,1912.3h160.293a29.15,29.15,0,0,0,29.15-29.15v-72.016A3.039,3.039,0,0,0-634.138,1808.1Z" transform="translate(1876.432 2371.146)" fill="#fff"/>
    <path id="Path_189937" data-name="Path 189937" d="M-748.163,1839.221q-21.619,0-43.237-.01a42.99,42.99,0,0,1-4.455-.243,23.5,23.5,0,0,1-20.732-23.273c-.078-11.855,8.913-22.215,20.5-23.486a2.865,2.865,0,0,0,2.665-1.809,23.344,23.344,0,0,1,26.586-12.428,2.461,2.461,0,0,0,2.984-1.053,34.2,34.2,0,0,1,15.219-11.438c3.7-1.366,7.657-2.038,11.5-3.021h6.79a6.025,6.025,0,0,0,.983.327c15.187,2.349,25.607,10.69,31.321,24.928.587,1.464,1,3,1.5,4.51,1.042-.052,1.933-.092,2.823-.142,16.472-.918,28.835,15.57,23.356,31.153-3.445,9.8-12.255,15.949-23.053,15.976-14.77.038-29.54.01-44.309.01Zm46.8-39.523c-1.825-15.429-9.527-26.349-24.678-30.158-15.972-4.016-28.175,2.466-36.854,16.108-.637-.271-1.181-.5-1.721-.731-10.5-4.55-21.2.2-24.708,11.095-.537,1.664-1.287,1.958-2.888,1.913a17.037,17.037,0,0,0-15.584,8.054c-3.834,5.925-4.067,12.232-.463,18.4a16.978,16.978,0,0,0,15.487,8.855q49.929.06,99.857.026a18.132,18.132,0,0,0,8.869-2.318,17.629,17.629,0,0,0,7.728-22.008,17.743,17.743,0,0,0-20.2-10.592C-698.076,1798.713-699.6,1799.2-701.365,1799.7Z" transform="translate(1879.229 2373.677)"/>
    <path id="Path_189938" data-name="Path 189938" d="M-701.823,1799.228c1.761-.5,3.289-.984,4.846-1.354a17.743,17.743,0,0,1,20.2,10.592,17.629,17.629,0,0,1-7.728,22.008,18.133,18.133,0,0,1-8.869,2.318q-49.927-.02-99.857-.026a16.978,16.978,0,0,1-15.487-8.855c-3.6-6.17-3.371-12.477.463-18.4a17.037,17.037,0,0,1,15.584-8.054c1.6.045,2.351-.249,2.888-1.913,3.512-10.894,14.209-15.645,24.708-11.095.54.234,1.084.461,1.721.731,8.678-13.642,20.882-20.125,36.854-16.108C-711.35,1772.879-703.649,1783.8-701.823,1799.228Zm-14.087-17.651c-9.375-10.119-27.172-10.512-37.1-.026l3.955,3.946c9.774-7.834,19.542-7.792,29.193,0Zm22.8,27.456c4.019,1.094,5.888,3.091,5.863,6.117-.026,3.043-1.982,5.071-5.8,5.987v5.71c4.89-.243,8.437-2.394,10.476-6.679a11.154,11.154,0,0,0-1.2-12.108,10.828,10.828,0,0,0-9.339-4.605Z" transform="translate(1879.687 2374.146)" fill="#084a93"/>
    <path id="Path_189939" data-name="Path 189939" d="M-720.546,1781.1l-3.949,3.917c-9.652-7.789-19.42-7.831-29.193,0l-3.955-3.946C-747.717,1770.592-729.921,1770.985-720.546,1781.1Z" transform="translate(1884.322 2374.619)"/>
    <path id="Path_189940" data-name="Path 189940" d="M-702.508,1806.2v-5.579a10.828,10.828,0,0,1,9.339,4.605,11.153,11.153,0,0,1,1.2,12.108c-2.039,4.285-5.586,6.436-10.476,6.679v-5.71c3.82-.916,5.775-2.944,5.8-5.987C-696.62,1809.295-698.489,1807.3-702.508,1806.2Z" transform="translate(1889.088 2376.975)"/>
    <path id="Path_189941" data-name="Path 189941" d="M-658.7,1915.381H-821.344a27.633,27.633,0,0,1-27.6-27.6V1725.134a27.633,27.633,0,0,1,27.6-27.6H-658.7a27.633,27.633,0,0,1,27.6,27.6v162.645A27.633,27.633,0,0,1-658.7,1915.381Zm-162.645-211.771a21.548,21.548,0,0,0-21.524,21.523v162.645a21.548,21.548,0,0,0,21.524,21.523H-658.7a21.547,21.547,0,0,0,21.523-21.523V1725.134a21.547,21.547,0,0,0-21.523-21.523Z" transform="translate(1876.432 2368.065)" fill="#ffb30b"/>
    <path id="Path_192338" data-name="Path 192338" d="M19.811,0H185.88a19.811,19.811,0,0,1,19.811,19.811V185.88a19.811,19.811,0,0,1-19.811,19.811H19.811A19.811,19.811,0,0,1,0,185.88V19.811A19.811,19.811,0,0,1,19.811,0Z" transform="translate(360.648 4071.676)" fill="#00defc"/>
    <path id="Path_189942" data-name="Path 189942" d="M-1278.083,1915.381h-162.646a27.633,27.633,0,0,1-27.6-27.6V1725.134a27.633,27.633,0,0,1,27.6-27.6h162.646a27.633,27.633,0,0,1,27.6,27.6v162.645A27.633,27.633,0,0,1-1278.083,1915.381Zm-162.646-211.771a21.547,21.547,0,0,0-21.523,21.523v162.645a21.547,21.547,0,0,0,21.523,21.523h162.646a21.547,21.547,0,0,0,21.523-21.523V1725.134a21.547,21.547,0,0,0-21.523-21.523Z" transform="translate(1822.899 2368.065)" fill="#ffb30b"/>
    <path id="Path_189943" data-name="Path 189943" d="M-1367.547,1839.221q-21.617,0-43.235-.01a42.972,42.972,0,0,1-4.455-.243,23.494,23.494,0,0,1-20.732-23.273c-.078-11.855,8.913-22.215,20.5-23.486a2.866,2.866,0,0,0,2.665-1.809,23.344,23.344,0,0,1,26.586-12.428,2.461,2.461,0,0,0,2.984-1.053,34.2,34.2,0,0,1,15.219-11.438c3.7-1.366,7.657-2.038,11.5-3.021h6.79a5.99,5.99,0,0,0,.983.327c15.187,2.349,25.607,10.69,31.32,24.928.588,1.464,1,3,1.5,4.51,1.042-.052,1.933-.092,2.823-.142,16.472-.918,28.835,15.57,23.356,31.153-3.445,9.8-12.255,15.949-23.053,15.976-14.77.038-29.54.01-44.31.01Zm46.8-39.523c-1.826-15.429-9.527-26.349-24.678-30.158-15.972-4.016-28.175,2.466-36.854,16.108-.638-.271-1.181-.5-1.721-.731-10.5-4.55-21.2.2-24.707,11.095-.537,1.664-1.289,1.958-2.888,1.913a17.036,17.036,0,0,0-15.584,8.054c-3.834,5.925-4.066,12.232-.463,18.4a16.977,16.977,0,0,0,15.487,8.855q49.929.06,99.857.026a18.125,18.125,0,0,0,8.867-2.318,17.626,17.626,0,0,0,7.728-22.008,17.74,17.74,0,0,0-20.2-10.592C-1317.459,1798.713-1318.988,1799.2-1320.748,1799.7Z" transform="translate(1825.696 2373.677)"/>
    <path id="Path_189944" data-name="Path 189944" d="M-1321.206,1799.228c1.76-.5,3.289-.984,4.845-1.354a17.74,17.74,0,0,1,20.2,10.592,17.626,17.626,0,0,1-7.728,22.008,18.125,18.125,0,0,1-8.867,2.318q-49.929-.02-99.857-.026a16.977,16.977,0,0,1-15.487-8.855c-3.6-6.17-3.371-12.477.463-18.4a17.036,17.036,0,0,1,15.584-8.054c1.6.045,2.351-.249,2.888-1.913,3.512-10.894,14.209-15.645,24.707-11.095.54.234,1.083.461,1.721.731,8.678-13.642,20.882-20.125,36.854-16.108C-1330.733,1772.879-1323.033,1783.8-1321.206,1799.228Zm-14.087-17.651c-9.375-10.119-27.172-10.512-37.1-.026l3.955,3.946c9.773-7.834,19.542-7.792,29.192,0Zm22.8,27.456c4.019,1.094,5.888,3.091,5.863,6.117-.026,3.043-1.982,5.071-5.8,5.987v5.71c4.891-.243,8.438-2.394,10.477-6.679a11.153,11.153,0,0,0-1.2-12.108,10.828,10.828,0,0,0-9.339-4.605Z" transform="translate(1826.154 2374.146)" fill="#084a93"/>
    <path id="Path_189945" data-name="Path 189945" d="M-1339.929,1781.1l-3.95,3.917c-9.651-7.789-19.419-7.831-29.192,0l-3.955-3.946C-1367.1,1770.592-1349.3,1770.985-1339.929,1781.1Z" transform="translate(1830.791 2374.619)"/>
    <path id="Path_189946" data-name="Path 189946" d="M-1321.891,1806.2v-5.579a10.828,10.828,0,0,1,9.339,4.605,11.153,11.153,0,0,1,1.2,12.108c-2.039,4.285-5.586,6.436-10.477,6.679v-5.71c3.821-.916,5.777-2.944,5.8-5.987C-1316,1809.295-1317.872,1807.3-1321.891,1806.2Z" transform="translate(1835.556 2376.975)"/>
    <path id="Path_192339" data-name="Path 192339" d="M-70.826,0l2.1-12.086,3.47.008a4.752,4.752,0,0,1,2.2.552,4.149,4.149,0,0,1,1.581,1.515,5.188,5.188,0,0,1,.73,2.225,7.343,7.343,0,0,1-.017,1.478l-.058.44a6.9,6.9,0,0,1-2.088,4.262A5.906,5.906,0,0,1-67.091,0Zm4.184-10.069L-68.046-2l1.013.008a3.322,3.322,0,0,0,2.694-1.229,6.349,6.349,0,0,0,1.166-3.71l.017-.266a3.348,3.348,0,0,0-.523-2.1,2,2,0,0,0-1.635-.764ZM-54.98,0a2.423,2.423,0,0,1-.091-.813,3.042,3.042,0,0,1-2.291.979A2.756,2.756,0,0,1-59.317-.6a2.323,2.323,0,0,1-.726-1.855,2.685,2.685,0,0,1,1.233-2.254,5.6,5.6,0,0,1,3.15-.784l1.1.017.116-.54a1.874,1.874,0,0,0,.025-.523.9.9,0,0,0-.295-.61,1.015,1.015,0,0,0-.668-.228,1.43,1.43,0,0,0-.93.27,1.308,1.308,0,0,0-.49.826l-2.349.008a2.611,2.611,0,0,1,1.183-2.088A4.581,4.581,0,0,1-55.2-9.147a3.312,3.312,0,0,1,2.391.909,2.659,2.659,0,0,1,.722,2.254l-.689,4.3-.042.531a2.563,2.563,0,0,0,.141,1L-52.681,0Zm-1.8-1.652a2.144,2.144,0,0,0,1.768-.88l.291-1.552-.813-.008A2.273,2.273,0,0,0-57.4-3.3a1.373,1.373,0,0,0-.257.672.8.8,0,0,0,.187.71A.946.946,0,0,0-56.781-1.652Zm10.276-9.538-.39,2.208H-45.4l-.307,1.76H-47.2l-.764,4.5a1.144,1.144,0,0,0,.066.647q.116.224.564.241.133.008.714-.042l-.166,1.834a3.937,3.937,0,0,1-1.345.191A2.11,2.11,0,0,1-49.85-.573a2.609,2.609,0,0,1-.465-1.909l.772-4.74h-1.27l.307-1.76h1.27l.382-2.208ZM-40.4,0A2.423,2.423,0,0,1-40.5-.813a3.042,3.042,0,0,1-2.291.979A2.756,2.756,0,0,1-44.741-.6a2.323,2.323,0,0,1-.726-1.855,2.685,2.685,0,0,1,1.233-2.254,5.6,5.6,0,0,1,3.15-.784l1.1.017.116-.54a1.874,1.874,0,0,0,.025-.523.9.9,0,0,0-.295-.61,1.015,1.015,0,0,0-.668-.228,1.43,1.43,0,0,0-.93.27,1.308,1.308,0,0,0-.49.826l-2.349.008A2.611,2.611,0,0,1-43.4-8.363a4.581,4.581,0,0,1,2.777-.784,3.312,3.312,0,0,1,2.391.909,2.659,2.659,0,0,1,.722,2.254l-.689,4.3-.042.531a2.563,2.563,0,0,0,.141,1L-38.1,0Zm-1.8-1.652a2.144,2.144,0,0,0,1.768-.88l.291-1.552-.813-.008a2.273,2.273,0,0,0-1.868.789,1.373,1.373,0,0,0-.257.672.8.8,0,0,0,.187.71A.946.946,0,0,0-42.205-1.652Zm13.655-.108a1.537,1.537,0,0,0,1.079-.353,1.734,1.734,0,0,0,.564-.984l2.2-.008A3.226,3.226,0,0,1-25.3-1.4,3.606,3.606,0,0,1-26.729-.224a4.087,4.087,0,0,1-1.88.4A3.319,3.319,0,0,1-31.2-.955a4.213,4.213,0,0,1-.921-2.938l.025-.457.008-.091a5.615,5.615,0,0,1,1.478-3.474,4,4,0,0,1,3.1-1.233,3.238,3.238,0,0,1,2.411.992,3.5,3.5,0,0,1,.876,2.528h-2.183a1.838,1.838,0,0,0-.315-1.137,1.2,1.2,0,0,0-.946-.448q-1.677-.05-2.034,2.449A8.269,8.269,0,0,0-29.8-3.237Q-29.713-1.785-28.551-1.76ZM-19.536.166a3.907,3.907,0,0,1-2.088-.577,3.5,3.5,0,0,1-1.357-1.561,4.349,4.349,0,0,1-.349-2.187l.025-.332A5.806,5.806,0,0,1-22.541-6.9,4.613,4.613,0,0,1-20.9-8.587a4.066,4.066,0,0,1,2.225-.56,3.107,3.107,0,0,1,2.627,1.276,4.374,4.374,0,0,1,.677,3.147L-15.5-3.7h-5.5a1.927,1.927,0,0,0,.423,1.395,1.616,1.616,0,0,0,1.245.54,2.872,2.872,0,0,0,2.241-1l1.071,1.328A3.331,3.331,0,0,1-17.486-.245,4.778,4.778,0,0,1-19.536.166Zm.747-7.379a1.663,1.663,0,0,0-1.15.407,3.573,3.573,0,0,0-.9,1.469h3.221l.05-.216a2.2,2.2,0,0,0,.008-.631,1.2,1.2,0,0,0-.407-.751A1.275,1.275,0,0,0-18.789-7.213ZM-11.1-8.99l-.2,1.063a3.232,3.232,0,0,1,2.615-1.22,2.155,2.155,0,0,1,1.876.93,3.746,3.746,0,0,1,.44,2.507L-7.317,0H-9.658L-8.7-5.736a2.686,2.686,0,0,0,.017-.589A.951.951,0,0,0-9.741-7.2a2.015,2.015,0,0,0-1.652.855L-12.513,0h-2.341l1.561-8.981Zm10.368-2.2-.39,2.208H.369L.062-7.222H-1.432l-.764,4.5a1.144,1.144,0,0,0,.066.647q.116.224.564.241.133.008.714-.042L-1.017-.042A3.937,3.937,0,0,1-2.362.149,2.11,2.11,0,0,1-4.08-.573a2.609,2.609,0,0,1-.465-1.909l.772-4.74h-1.27l.307-1.76h1.27l.382-2.208ZM4.437.166A3.907,3.907,0,0,1,2.349-.411,3.5,3.5,0,0,1,.992-1.971,4.349,4.349,0,0,1,.643-4.159l.025-.332A5.806,5.806,0,0,1,1.432-6.9,4.613,4.613,0,0,1,3.075-8.587,4.066,4.066,0,0,1,5.3-9.147,3.107,3.107,0,0,1,7.927-7.871,4.374,4.374,0,0,1,8.6-4.725L8.471-3.7h-5.5a1.927,1.927,0,0,0,.423,1.395,1.616,1.616,0,0,0,1.245.54,2.872,2.872,0,0,0,2.241-1L7.948-1.436A3.331,3.331,0,0,1,6.487-.245,4.778,4.778,0,0,1,4.437.166Zm.747-7.379a1.663,1.663,0,0,0-1.15.407,3.573,3.573,0,0,0-.9,1.469H6.354l.05-.216a2.2,2.2,0,0,0,.008-.631,1.2,1.2,0,0,0-.407-.751A1.275,1.275,0,0,0,5.184-7.213Zm10.135.481a4.833,4.833,0,0,0-.789-.083,2.269,2.269,0,0,0-1.984.938L11.509,0H9.168l1.561-8.981,2.2-.008-.216,1.1A2.47,2.47,0,0,1,14.8-9.164a3.414,3.414,0,0,1,.813.116Zm8.815,4.964a1.573,1.573,0,0,0,1.079-.365,1.28,1.28,0,0,0,.432-.971h2.25a3.077,3.077,0,0,1-.5,1.673A3.286,3.286,0,0,1,26.056-.253a4.2,4.2,0,0,1-1.88.419,3.9,3.9,0,0,1-3.038-1.224,4.845,4.845,0,0,1-1.112-3.383V-4.6a4.79,4.79,0,0,1,1.1-3.312,3.854,3.854,0,0,1,3.03-1.237,3.778,3.778,0,0,1,2.7.959,3.4,3.4,0,0,1,1.033,2.552h-2.25a1.648,1.648,0,0,0-.432-1.139,1.439,1.439,0,0,0-1.1-.438,1.445,1.445,0,0,0-1.266.611,3.541,3.541,0,0,0-.427,1.983v.249a3.586,3.586,0,0,0,.423,2A1.463,1.463,0,0,0,24.135-1.768ZM31.8,0H29.389V-12.75H31.8ZM36.3,0H33.9V-8.981H36.3ZM33.755-11.306a1.181,1.181,0,0,1,.361-.888,1.356,1.356,0,0,1,.984-.349,1.36,1.36,0,0,1,.979.349,1.175,1.175,0,0,1,.365.888,1.178,1.178,0,0,1-.369.9,1.363,1.363,0,0,1-.975.349,1.363,1.363,0,0,1-.975-.349A1.178,1.178,0,0,1,33.755-11.306ZM42.413.166A4.409,4.409,0,0,1,39.2-1.046a4.308,4.308,0,0,1-1.241-3.229v-.232a5.426,5.426,0,0,1,.523-2.42A3.838,3.838,0,0,1,39.96-8.571a4.159,4.159,0,0,1,2.187-.577,3.727,3.727,0,0,1,2.9,1.162,4.722,4.722,0,0,1,1.058,3.3v.979H40.387a2.229,2.229,0,0,0,.7,1.411,2.12,2.12,0,0,0,1.482.531,2.589,2.589,0,0,0,2.167-1l1.179,1.32A3.6,3.6,0,0,1,44.455-.261,4.793,4.793,0,0,1,42.413.166Zm-.274-7.379a1.5,1.5,0,0,0-1.158.484,2.5,2.5,0,0,0-.569,1.384h3.337v-.192a1.786,1.786,0,0,0-.432-1.238A1.547,1.547,0,0,0,42.139-7.213Zm7.537-1.768.075,1.038a3.136,3.136,0,0,1,2.582-1.2,2.606,2.606,0,0,1,2.125.838A3.912,3.912,0,0,1,55.171-5.8V0h-2.4V-5.744a1.556,1.556,0,0,0-.332-1.108,1.486,1.486,0,0,0-1.1-.344,1.65,1.65,0,0,0-1.519.863V0h-2.4V-8.981Zm10.185-2.208v2.208H61.4v1.76H59.861v4.482a1.07,1.07,0,0,0,.191.714.959.959,0,0,0,.73.216,3.826,3.826,0,0,0,.706-.058V-.05a4.939,4.939,0,0,1-1.453.216,2.29,2.29,0,0,1-2.573-2.548V-7.222H56.151v-1.76h1.312v-2.208ZM66.867.166A4.409,4.409,0,0,1,63.65-1.046a4.308,4.308,0,0,1-1.241-3.229v-.232a5.426,5.426,0,0,1,.523-2.42,3.838,3.838,0,0,1,1.482-1.644A4.159,4.159,0,0,1,66.6-9.147a3.727,3.727,0,0,1,2.9,1.162,4.722,4.722,0,0,1,1.058,3.3v.979H64.842a2.229,2.229,0,0,0,.7,1.411,2.12,2.12,0,0,0,1.482.531,2.589,2.589,0,0,0,2.167-1l1.179,1.32A3.6,3.6,0,0,1,68.909-.261,4.793,4.793,0,0,1,66.867.166Zm-.274-7.379a1.5,1.5,0,0,0-1.158.484,2.5,2.5,0,0,0-.569,1.384H68.2v-.192a1.786,1.786,0,0,0-.432-1.238A1.547,1.547,0,0,0,66.593-7.213Z" transform="translate(462.79 4112.339)" fill="#12263f"/>
    <path id="Path_192340" data-name="Path 192340" d="M-42.326-4.034a4.52,4.52,0,0,1-.855,2.22A4.648,4.648,0,0,1-45.04-.328a5.662,5.662,0,0,1-2.474.494A4.182,4.182,0,0,1-49.6-.386,3.659,3.659,0,0,1-51-1.913a5.644,5.644,0,0,1-.577-2.3,11.3,11.3,0,0,1,.212-2.54,8.052,8.052,0,0,1,.963-2.7,6.02,6.02,0,0,1,1.648-1.868,4.971,4.971,0,0,1,3.071-.93A4.078,4.078,0,0,1-42.7-11.094,4.658,4.658,0,0,1-41.5-7.969l-2.424-.008a2.54,2.54,0,0,0-.457-1.677,1.862,1.862,0,0,0-1.419-.564,2.463,2.463,0,0,0-2.046.888,5.341,5.341,0,0,0-1.075,2.714,15.04,15.04,0,0,0-.232,2.6,2.586,2.586,0,0,0,.49,1.615,1.639,1.639,0,0,0,1.253.544,2.5,2.5,0,0,0,1.781-.527,2.789,2.789,0,0,0,.884-1.631ZM-38.98,0h-2.357l2.216-12.75h2.349Zm7.122-9.147a3.6,3.6,0,0,1,2.046.61A3.436,3.436,0,0,1-28.551-6.9a5.059,5.059,0,0,1,.286,2.312,5.465,5.465,0,0,1-1.49,3.466A4.207,4.207,0,0,1-32.962.166a3.592,3.592,0,0,1-2.025-.6A3.423,3.423,0,0,1-36.25-2.059,4.948,4.948,0,0,1-36.54-4.35a5.626,5.626,0,0,1,1.511-3.536A4.12,4.12,0,0,1-31.858-9.147ZM-34.224-3.5a2.072,2.072,0,0,0,.374,1.256,1.241,1.241,0,0,0,1,.477,1.819,1.819,0,0,0,1.693-.99,4.937,4.937,0,0,0,.573-2.69,2.254,2.254,0,0,0-.386-1.272,1.221,1.221,0,0,0-1.009-.493,1.822,1.822,0,0,0-1.673.982A4.886,4.886,0,0,0-34.224-3.5ZM-22.03-.93A3.1,3.1,0,0,1-24.5.166a2.308,2.308,0,0,1-1.959-.93,3.4,3.4,0,0,1-.515-2.407l.971-5.811h2.341l-.988,5.842a2.311,2.311,0,0,0-.008.515.854.854,0,0,0,.921.856,2.14,2.14,0,0,0,1.8-.839l1.121-6.374h2.357L-20.021,0H-22.2Zm8.209-8.226a2.556,2.556,0,0,1,2.025,1l.88-4.6h2.349L-10.774,0h-2.092l.133-.963A2.907,2.907,0,0,1-15.074.174a2.585,2.585,0,0,1-1.469-.44,2.77,2.77,0,0,1-.975-1.241A5,5,0,0,1-17.9-3.312a6.8,6.8,0,0,1,.025-1.013l.05-.374a7.19,7.19,0,0,1,.768-2.424,4,4,0,0,1,1.395-1.552A3.288,3.288,0,0,1-13.821-9.156Zm-1.7,4.831a6.722,6.722,0,0,0-.042,1.063q.083,1.461,1.179,1.486a2,2,0,0,0,1.718-.93l.639-3.569a1.326,1.326,0,0,0-1.295-.93,1.706,1.706,0,0,0-1.424.66A4.437,4.437,0,0,0-15.522-4.325ZM4.308-4.408a5.387,5.387,0,0,1-.942,3.324A3.021,3.021,0,0,1,.822.166a2.8,2.8,0,0,1-2.2-.946V3.453h-2.4V-8.981h2.225l.083.88A2.819,2.819,0,0,1,.805-9.147,3.041,3.041,0,0,1,3.387-7.919a5.532,5.532,0,0,1,.921,3.387Zm-2.4-.174a3.535,3.535,0,0,0-.444-1.934A1.446,1.446,0,0,0,.174-7.2a1.571,1.571,0,0,0-1.552.863v3.677a1.6,1.6,0,0,0,1.569.888Q1.909-1.768,1.909-4.582Zm8.932-2.15A6.517,6.517,0,0,0,9.978-6.8a1.757,1.757,0,0,0-1.785.921V0h-2.4V-8.981H8.06l.066,1.071a2.223,2.223,0,0,1,2-1.237,2.514,2.514,0,0,1,.747.108ZM14.526,0H12.119V-8.981h2.407ZM11.978-11.306a1.181,1.181,0,0,1,.361-.888,1.356,1.356,0,0,1,.984-.349,1.36,1.36,0,0,1,.979.349,1.175,1.175,0,0,1,.365.888,1.178,1.178,0,0,1-.369.9,1.363,1.363,0,0,1-.975.349,1.363,1.363,0,0,1-.975-.349A1.178,1.178,0,0,1,11.978-11.306ZM19.864-2.93l1.668-6.051h2.507L21.009,0H18.718l-3.03-8.981H18.2ZM30.173,0a2.664,2.664,0,0,1-.241-.805,2.9,2.9,0,0,1-2.266.971A3.189,3.189,0,0,1,25.479-.6a2.456,2.456,0,0,1-.867-1.926A2.538,2.538,0,0,1,25.67-4.715a5.222,5.222,0,0,1,3.059-.772h1.1V-6a1.48,1.48,0,0,0-.32-1A1.257,1.257,0,0,0,28.5-7.371a1.429,1.429,0,0,0-.95.291.987.987,0,0,0-.344.8h-2.4a2.41,2.41,0,0,1,.481-1.444A3.182,3.182,0,0,1,26.654-8.77a4.961,4.961,0,0,1,1.976-.378,3.92,3.92,0,0,1,2.635.834,2.918,2.918,0,0,1,.975,2.345v3.893A4.294,4.294,0,0,0,32.6-.141V0ZM28.189-1.668a2.066,2.066,0,0,0,.979-.237,1.554,1.554,0,0,0,.664-.635V-4.084h-.9q-1.8,0-1.917,1.245l-.008.141a.96.96,0,0,0,.315.739A1.225,1.225,0,0,0,28.189-1.668Zm5.52-2.889A5.413,5.413,0,0,1,34.652-7.9a3.057,3.057,0,0,1,2.577-1.245,2.751,2.751,0,0,1,2.167.979V-12.75H41.8V0H39.636L39.52-.955A2.823,2.823,0,0,1,37.212.166a3.049,3.049,0,0,1-2.544-1.249A5.587,5.587,0,0,1,33.709-4.557Zm2.4.179a3.546,3.546,0,0,0,.44,1.937,1.433,1.433,0,0,0,1.278.673A1.605,1.605,0,0,0,39.4-2.707v-3.55A1.582,1.582,0,0,0,37.843-7.2Q36.108-7.2,36.108-4.379Zm7.18-.2A5.327,5.327,0,0,1,43.8-6.956a3.767,3.767,0,0,1,1.482-1.619,4.323,4.323,0,0,1,2.245-.573A4.09,4.09,0,0,1,50.5-8.035,4.464,4.464,0,0,1,51.78-5.014L51.8-4.4a4.694,4.694,0,0,1-1.154,3.316,4.011,4.011,0,0,1-3.1,1.249,4.031,4.031,0,0,1-3.1-1.245,4.777,4.777,0,0,1-1.158-3.387Zm2.4.17a3.357,3.357,0,0,0,.481,1.958,1.588,1.588,0,0,0,1.378.678,1.592,1.592,0,0,0,1.361-.669,3.674,3.674,0,0,0,.49-2.141,3.324,3.324,0,0,0-.49-1.945,1.592,1.592,0,0,0-1.378-.69,1.566,1.566,0,0,0-1.361.686A3.735,3.735,0,0,0,45.688-4.4Z" transform="translate(462.173 4250.712)"/>
    <path id="Path_192341" data-name="Path 192341" d="M-24.159-4.026A4.277,4.277,0,0,1-25.6-.955,5.058,5.058,0,0,1-29.024.166,4.548,4.548,0,0,1-32.68-1.4a6.416,6.416,0,0,1-1.332-4.3v-.739A7.245,7.245,0,0,1-33.4-9.5a4.6,4.6,0,0,1,1.756-2.038,4.918,4.918,0,0,1,2.652-.71,4.927,4.927,0,0,1,3.37,1.121,4.6,4.6,0,0,1,1.478,3.146h-2.49a2.524,2.524,0,0,0-.652-1.7,2.413,2.413,0,0,0-1.706-.527,2.116,2.116,0,0,0-1.864.892,5,5,0,0,0-.635,2.768v.913A5.352,5.352,0,0,0-30.9-2.772a2.077,2.077,0,0,0,1.872.9A2.458,2.458,0,0,0-27.3-2.395a2.381,2.381,0,0,0,.652-1.631ZM-20.15,0h-2.407V-12.75h2.407Zm4.507,0H-18.05V-8.981h2.407Zm-2.548-11.306a1.181,1.181,0,0,1,.361-.888,1.356,1.356,0,0,1,.984-.349,1.36,1.36,0,0,1,.979.349,1.175,1.175,0,0,1,.365.888,1.178,1.178,0,0,1-.369.9,1.363,1.363,0,0,1-.975.349,1.363,1.363,0,0,1-.975-.349A1.178,1.178,0,0,1-18.191-11.306ZM-9.533.166A4.409,4.409,0,0,1-12.75-1.046a4.308,4.308,0,0,1-1.241-3.229v-.232a5.426,5.426,0,0,1,.523-2.42,3.838,3.838,0,0,1,1.482-1.644A4.159,4.159,0,0,1-9.8-9.147,3.727,3.727,0,0,1-6.9-7.985,4.722,4.722,0,0,1-5.84-4.69v.979h-5.719a2.229,2.229,0,0,0,.7,1.411,2.12,2.12,0,0,0,1.482.531,2.589,2.589,0,0,0,2.167-1l1.179,1.32A3.6,3.6,0,0,1-7.491-.261,4.793,4.793,0,0,1-9.533.166Zm-.274-7.379a1.5,1.5,0,0,0-1.158.484,2.5,2.5,0,0,0-.569,1.384H-8.2v-.192a1.786,1.786,0,0,0-.432-1.238A1.547,1.547,0,0,0-9.807-7.213ZM-2.27-8.981-2.2-7.944a3.136,3.136,0,0,1,2.582-1.2,2.606,2.606,0,0,1,2.125.838A3.912,3.912,0,0,1,3.225-5.8V0H.826V-5.744A1.556,1.556,0,0,0,.494-6.852,1.486,1.486,0,0,0-.61-7.2a1.65,1.65,0,0,0-1.519.863V0h-2.4V-8.981ZM7.915-11.189v2.208H9.45v1.76H7.915v4.482a1.07,1.07,0,0,0,.191.714.959.959,0,0,0,.73.216,3.826,3.826,0,0,0,.706-.058V-.05A4.939,4.939,0,0,1,8.089.166,2.29,2.29,0,0,1,5.516-2.382V-7.222H4.2v-1.76H5.516v-2.208ZM14.921.166A4.409,4.409,0,0,1,11.7-1.046a4.308,4.308,0,0,1-1.241-3.229v-.232a5.426,5.426,0,0,1,.523-2.42,3.838,3.838,0,0,1,1.482-1.644,4.159,4.159,0,0,1,2.187-.577,3.727,3.727,0,0,1,2.9,1.162,4.722,4.722,0,0,1,1.058,3.3v.979H12.9A2.229,2.229,0,0,0,13.6-2.3a2.12,2.12,0,0,0,1.482.531,2.589,2.589,0,0,0,2.167-1l1.179,1.32A3.6,3.6,0,0,1,16.963-.261,4.793,4.793,0,0,1,14.921.166Zm-.274-7.379a1.5,1.5,0,0,0-1.158.484,2.5,2.5,0,0,0-.569,1.384h3.337v-.192a1.786,1.786,0,0,0-.432-1.238A1.547,1.547,0,0,0,14.647-7.213ZM31.19-2.49H26.824L25.994,0H23.346l4.5-12.086h2.308L34.677,0H32.029ZM27.5-4.507h3.021L29-9.031Z" transform="translate(749.32 4114.244)"/>
    <path id="Path_192342" data-name="Path 192342" d="M-23.865-4.026A4.277,4.277,0,0,1-25.3-.955,5.058,5.058,0,0,1-28.729.166,4.548,4.548,0,0,1-32.385-1.4a6.416,6.416,0,0,1-1.332-4.3v-.739A7.245,7.245,0,0,1-33.1-9.5a4.6,4.6,0,0,1,1.756-2.038,4.918,4.918,0,0,1,2.652-.71,4.927,4.927,0,0,1,3.37,1.121,4.6,4.6,0,0,1,1.478,3.146h-2.49a2.524,2.524,0,0,0-.652-1.7A2.413,2.413,0,0,0-28.7-10.21a2.116,2.116,0,0,0-1.864.892,5,5,0,0,0-.635,2.768v.913A5.352,5.352,0,0,0-30.6-2.772a2.077,2.077,0,0,0,1.872.9,2.458,2.458,0,0,0,1.722-.527,2.381,2.381,0,0,0,.652-1.631ZM-19.855,0h-2.407V-12.75h2.407Zm4.507,0h-2.407V-8.981h2.407ZM-17.9-11.306a1.181,1.181,0,0,1,.361-.888,1.356,1.356,0,0,1,.984-.349,1.36,1.36,0,0,1,.979.349,1.175,1.175,0,0,1,.365.888,1.178,1.178,0,0,1-.369.9,1.363,1.363,0,0,1-.975.349,1.363,1.363,0,0,1-.975-.349A1.178,1.178,0,0,1-17.9-11.306ZM-9.239.166a4.409,4.409,0,0,1-3.217-1.212A4.308,4.308,0,0,1-13.7-4.275v-.232a5.426,5.426,0,0,1,.523-2.42,3.838,3.838,0,0,1,1.482-1.644A4.159,4.159,0,0,1-9.5-9.147,3.727,3.727,0,0,1-6.6-7.985a4.722,4.722,0,0,1,1.058,3.3v.979h-5.719a2.229,2.229,0,0,0,.7,1.411,2.12,2.12,0,0,0,1.482.531,2.589,2.589,0,0,0,2.167-1l1.179,1.32A3.6,3.6,0,0,1-7.2-.261,4.793,4.793,0,0,1-9.239.166Zm-.274-7.379a1.5,1.5,0,0,0-1.158.484,2.5,2.5,0,0,0-.569,1.384H-7.9v-.192a1.786,1.786,0,0,0-.432-1.238A1.547,1.547,0,0,0-9.513-7.213Zm7.537-1.768L-1.9-7.944a3.136,3.136,0,0,1,2.582-1.2,2.606,2.606,0,0,1,2.125.838A3.912,3.912,0,0,1,3.52-5.8V0h-2.4V-5.744A1.556,1.556,0,0,0,.789-6.852,1.486,1.486,0,0,0-.315-7.2a1.65,1.65,0,0,0-1.519.863V0h-2.4V-8.981ZM8.209-11.189v2.208H9.745v1.76H8.209v4.482a1.07,1.07,0,0,0,.191.714.959.959,0,0,0,.73.216,3.826,3.826,0,0,0,.706-.058V-.05A4.939,4.939,0,0,1,8.384.166,2.29,2.29,0,0,1,5.811-2.382V-7.222H4.5v-1.76H5.811v-2.208ZM15.215.166A4.409,4.409,0,0,1,12-1.046a4.308,4.308,0,0,1-1.241-3.229v-.232a5.426,5.426,0,0,1,.523-2.42,3.838,3.838,0,0,1,1.482-1.644,4.159,4.159,0,0,1,2.187-.577,3.727,3.727,0,0,1,2.9,1.162,4.722,4.722,0,0,1,1.058,3.3v.979H13.19a2.229,2.229,0,0,0,.7,1.411,2.12,2.12,0,0,0,1.482.531,2.589,2.589,0,0,0,2.167-1l1.179,1.32A3.6,3.6,0,0,1,17.257-.261,4.793,4.793,0,0,1,15.215.166Zm-.274-7.379a1.5,1.5,0,0,0-1.158.484,2.5,2.5,0,0,0-.569,1.384h3.337v-.192a1.786,1.786,0,0,0-.432-1.238A1.547,1.547,0,0,0,14.941-7.213ZM24.662,0V-12.086H28.9a5.559,5.559,0,0,1,3.337.843,2.881,2.881,0,0,1,1.137,2.469,2.731,2.731,0,0,1-.457,1.565,2.637,2.637,0,0,1-1.27.992,2.551,2.551,0,0,1,1.465.938,2.773,2.773,0,0,1,.535,1.727,3.19,3.19,0,0,1-1.112,2.64A5.007,5.007,0,0,1,29.36,0Zm2.49-5.263V-2h2.133a2.059,2.059,0,0,0,1.374-.419,1.437,1.437,0,0,0,.494-1.158,1.518,1.518,0,0,0-1.718-1.685Zm0-1.76h1.843q1.884-.033,1.884-1.5A1.388,1.388,0,0,0,30.4-9.708a2.51,2.51,0,0,0-1.507-.361H27.152Z" transform="translate(853.935 4114.244)"/>
    <path id="Path_192343" data-name="Path 192343" d="M-40.6-4.034a4.52,4.52,0,0,1-.855,2.22A4.648,4.648,0,0,1-43.313-.328a5.662,5.662,0,0,1-2.474.494,4.182,4.182,0,0,1-2.083-.552,3.659,3.659,0,0,1-1.4-1.527,5.644,5.644,0,0,1-.577-2.3,11.3,11.3,0,0,1,.212-2.54,8.052,8.052,0,0,1,.963-2.7,6.02,6.02,0,0,1,1.648-1.868,4.971,4.971,0,0,1,3.071-.93,4.078,4.078,0,0,1,2.976,1.158,4.658,4.658,0,0,1,1.208,3.125l-2.424-.008a2.54,2.54,0,0,0-.457-1.677,1.862,1.862,0,0,0-1.419-.564,2.463,2.463,0,0,0-2.046.888A5.341,5.341,0,0,0-47.19-6.616a15.04,15.04,0,0,0-.232,2.6,2.586,2.586,0,0,0,.49,1.615,1.639,1.639,0,0,0,1.253.544A2.5,2.5,0,0,0-43.9-2.386a2.789,2.789,0,0,0,.884-1.631ZM-37.254,0h-2.357L-37.4-12.75h2.349Zm7.122-9.147a3.6,3.6,0,0,1,2.046.61A3.436,3.436,0,0,1-26.824-6.9a5.059,5.059,0,0,1,.286,2.312,5.465,5.465,0,0,1-1.49,3.466A4.207,4.207,0,0,1-31.236.166a3.592,3.592,0,0,1-2.025-.6,3.423,3.423,0,0,1-1.262-1.623,4.948,4.948,0,0,1-.291-2.291A5.626,5.626,0,0,1-33.3-7.886,4.12,4.12,0,0,1-30.132-9.147ZM-32.5-3.5a2.072,2.072,0,0,0,.374,1.256,1.241,1.241,0,0,0,1,.477,1.819,1.819,0,0,0,1.693-.99,4.937,4.937,0,0,0,.573-2.69A2.254,2.254,0,0,0-29.24-6.72a1.221,1.221,0,0,0-1.009-.493,1.822,1.822,0,0,0-1.673.982A4.886,4.886,0,0,0-32.5-3.5ZM-20.3-.93a3.1,3.1,0,0,1-2.474,1.1,2.308,2.308,0,0,1-1.959-.93,3.4,3.4,0,0,1-.515-2.407l.971-5.811h2.341l-.988,5.842a2.311,2.311,0,0,0-.008.515.854.854,0,0,0,.921.856,2.14,2.14,0,0,0,1.8-.839l1.121-6.374h2.357L-18.295,0h-2.183Zm8.209-8.226a2.556,2.556,0,0,1,2.025,1l.88-4.6H-6.84L-9.048,0H-11.14l.133-.963A2.907,2.907,0,0,1-13.348.174a2.585,2.585,0,0,1-1.469-.44,2.77,2.77,0,0,1-.975-1.241,5,5,0,0,1-.378-1.805,6.8,6.8,0,0,1,.025-1.013l.05-.374a7.19,7.19,0,0,1,.768-2.424,4,4,0,0,1,1.395-1.552A3.288,3.288,0,0,1-12.094-9.156Zm-1.7,4.831a6.722,6.722,0,0,0-.042,1.063q.083,1.461,1.179,1.486a2,2,0,0,0,1.718-.93l.639-3.569a1.326,1.326,0,0,0-1.295-.93,1.706,1.706,0,0,0-1.424.66A4.437,4.437,0,0,0-13.8-4.325ZM.249-8a2.994,2.994,0,0,1,2.4-1.146q2.922,0,2.963,3.4V0h-2.4V-5.686A1.669,1.669,0,0,0,2.88-6.827a1.423,1.423,0,0,0-1.1-.369,1.633,1.633,0,0,0-1.527.813V0h-2.4V-12.75h2.4Zm9.762,8h-2.4V-8.981h2.4ZM9.305-12.625H11.92l-2.3,2.573H7.67ZM20.171-4.408a5.439,5.439,0,0,1-.921,3.366A3.052,3.052,0,0,1,16.676.166,2.8,2.8,0,0,1,14.344-.955L14.236,0H12.078V-12.75h2.4v4.574a2.732,2.732,0,0,1,2.183-.971A3.077,3.077,0,0,1,19.237-7.94a5.446,5.446,0,0,1,.934,3.4Zm-2.4-.174A3.573,3.573,0,0,0,17.34-6.57,1.46,1.46,0,0,0,16.054-7.2a1.582,1.582,0,0,0-1.577.938v3.544a1.6,1.6,0,0,0,1.594.946A1.481,1.481,0,0,0,17.6-2.914,5.909,5.909,0,0,0,17.772-4.582ZM26.7-6.732a6.517,6.517,0,0,0-.863-.066,1.757,1.757,0,0,0-1.785.921V0h-2.4V-8.981h2.266l.066,1.071a2.223,2.223,0,0,1,2-1.237,2.514,2.514,0,0,1,.747.108ZM30.381,0H27.974V-8.981h2.407ZM27.833-11.306a1.181,1.181,0,0,1,.361-.888,1.356,1.356,0,0,1,.984-.349,1.36,1.36,0,0,1,.979.349,1.175,1.175,0,0,1,.365.888,1.178,1.178,0,0,1-.369.9,1.363,1.363,0,0,1-.975.349,1.363,1.363,0,0,1-.975-.349A1.178,1.178,0,0,1,27.833-11.306Zm4.15,6.749A5.413,5.413,0,0,1,32.925-7.9,3.057,3.057,0,0,1,35.5-9.147a2.751,2.751,0,0,1,2.167.979V-12.75h2.407V0H37.91l-.116-.955A2.823,2.823,0,0,1,35.486.166a3.049,3.049,0,0,1-2.544-1.249A5.587,5.587,0,0,1,31.983-4.557Zm2.4.179a3.546,3.546,0,0,0,.44,1.937,1.433,1.433,0,0,0,1.278.673,1.605,1.605,0,0,0,1.569-.939v-3.55A1.582,1.582,0,0,0,36.117-7.2Q34.382-7.2,34.382-4.379Zm7.18-.2a5.327,5.327,0,0,1,.515-2.382,3.767,3.767,0,0,1,1.482-1.619A4.323,4.323,0,0,1,45.8-9.147a4.09,4.09,0,0,1,2.968,1.112,4.464,4.464,0,0,1,1.282,3.021l.017.614a4.694,4.694,0,0,1-1.154,3.316A4.011,4.011,0,0,1,45.82.166a4.031,4.031,0,0,1-3.1-1.245,4.777,4.777,0,0,1-1.158-3.387Zm2.4.17a3.357,3.357,0,0,0,.481,1.958,1.588,1.588,0,0,0,1.378.678,1.592,1.592,0,0,0,1.361-.669,3.674,3.674,0,0,0,.49-2.141,3.324,3.324,0,0,0-.49-1.945,1.592,1.592,0,0,0-1.378-.69,1.566,1.566,0,0,0-1.361.686A3.735,3.735,0,0,0,43.961-4.4Z" transform="translate(797.401 4250.712)"/>
    <path id="Path_192344" data-name="Path 192344" d="M3.21-3.662H-3.21L-4.431,0H-8.325l6.616-17.773H1.685L8.337,0H4.443ZM-2.222-6.628H2.222L-.012-13.281Z" transform="translate(1067.713 4141.051)"/>
    <path id="Path_192345" data-name="Path 192345" d="M-6.39,0V-17.773H-.165a8.175,8.175,0,0,1,4.907,1.239A4.237,4.237,0,0,1,6.415-12.9a4.016,4.016,0,0,1-.671,2.3A3.878,3.878,0,0,1,3.876-9.143,3.752,3.752,0,0,1,6.03-7.764a4.078,4.078,0,0,1,.787,2.539A4.691,4.691,0,0,1,5.182-1.343,7.364,7.364,0,0,1,.519,0Zm3.662-7.739v4.8H.409a3.027,3.027,0,0,0,2.02-.616,2.114,2.114,0,0,0,.726-1.7A2.232,2.232,0,0,0,.629-7.739Zm0-2.588h2.71q2.771-.049,2.771-2.209a2.042,2.042,0,0,0-.7-1.74,3.692,3.692,0,0,0-2.216-.531H-2.728Z" transform="translate(1205.754 4141.051)"/>
    <path id="Path_192346" data-name="Path 192346" d="M-23.583-12.086v7.96A4.076,4.076,0,0,1-24.823-.988,4.784,4.784,0,0,1-28.214.166,4.838,4.838,0,0,1-31.576-.955a4.006,4.006,0,0,1-1.27-3.08v-8.052h2.49v7.977a2.3,2.3,0,0,0,.569,1.731,2.183,2.183,0,0,0,1.573.544q2.1,0,2.133-2.208v-8.043Zm6.749,9.6a.773.773,0,0,0-.436-.693,4.95,4.95,0,0,0-1.4-.452q-3.2-.672-3.2-2.723a2.468,2.468,0,0,1,.992-2,4,4,0,0,1,2.594-.8,4.307,4.307,0,0,1,2.735.805A2.538,2.538,0,0,1-14.526-6.25h-2.4a1.161,1.161,0,0,0-.332-.851,1.405,1.405,0,0,0-1.038-.336,1.436,1.436,0,0,0-.938.274.865.865,0,0,0-.332.7.739.739,0,0,0,.378.643,3.885,3.885,0,0,0,1.274.423A10.407,10.407,0,0,1-16.4-5a2.482,2.482,0,0,1,1.9,2.416A2.343,2.343,0,0,1-15.556-.594a4.548,4.548,0,0,1-2.723.76,4.75,4.75,0,0,1-2-.4,3.363,3.363,0,0,1-1.374-1.1,2.565,2.565,0,0,1-.5-1.515h2.274a1.252,1.252,0,0,0,.473.979,1.877,1.877,0,0,0,1.179.34A1.737,1.737,0,0,0-17.187-1.8.814.814,0,0,0-16.834-2.482ZM-7.579-.913A3.008,3.008,0,0,1-10.036.166a2.837,2.837,0,0,1-2.2-.83A3.543,3.543,0,0,1-13.016-3.1V-8.981h2.4v5.809q0,1.4,1.278,1.4a1.732,1.732,0,0,0,1.677-.848V-8.981h2.407V0H-7.512ZM1.76,0a2.664,2.664,0,0,1-.241-.805A2.9,2.9,0,0,1-.747.166,3.189,3.189,0,0,1-2.934-.6,2.456,2.456,0,0,1-3.8-2.523,2.538,2.538,0,0,1-2.743-4.715,5.222,5.222,0,0,1,.315-5.487h1.1V-6A1.48,1.48,0,0,0,1.1-7,1.257,1.257,0,0,0,.091-7.371a1.429,1.429,0,0,0-.95.291.987.987,0,0,0-.344.8H-3.6a2.41,2.41,0,0,1,.481-1.444A3.182,3.182,0,0,1-1.76-8.77,4.961,4.961,0,0,1,.216-9.147a3.92,3.92,0,0,1,2.635.834,2.918,2.918,0,0,1,.975,2.345v3.893A4.294,4.294,0,0,0,4.184-.141V0ZM-.224-1.668a2.066,2.066,0,0,0,.979-.237,1.554,1.554,0,0,0,.664-.635V-4.084h-.9q-1.8,0-1.917,1.245L-1.4-2.7a.96.96,0,0,0,.315.739A1.225,1.225,0,0,0-.224-1.668Zm10.94-5.063A6.517,6.517,0,0,0,9.853-6.8a1.757,1.757,0,0,0-1.785.921V0h-2.4V-8.981H7.936L8-7.911a2.223,2.223,0,0,1,2-1.237,2.514,2.514,0,0,1,.747.108ZM14.4,0H11.995V-8.981H14.4ZM11.854-11.306a1.181,1.181,0,0,1,.361-.888,1.356,1.356,0,0,1,.984-.349,1.36,1.36,0,0,1,.979.349,1.175,1.175,0,0,1,.365.888,1.178,1.178,0,0,1-.369.9,1.363,1.363,0,0,1-.975.349,1.363,1.363,0,0,1-.975-.349A1.178,1.178,0,0,1,11.854-11.306ZM16-4.574a5.327,5.327,0,0,1,.515-2.382A3.768,3.768,0,0,1,18-8.575a4.323,4.323,0,0,1,2.245-.573,4.09,4.09,0,0,1,2.968,1.112A4.464,4.464,0,0,1,24.5-5.014l.017.614a4.694,4.694,0,0,1-1.154,3.316,4.011,4.011,0,0,1-3.1,1.249,4.031,4.031,0,0,1-3.1-1.245A4.777,4.777,0,0,1,16-4.466Zm2.4.17a3.357,3.357,0,0,0,.481,1.958,1.588,1.588,0,0,0,1.378.678,1.592,1.592,0,0,0,1.361-.669,3.674,3.674,0,0,0,.49-2.141,3.324,3.324,0,0,0-.49-1.945,1.592,1.592,0,0,0-1.378-.69,1.566,1.566,0,0,0-1.361.686A3.735,3.735,0,0,0,18.4-4.4ZM30.854-2.482a.773.773,0,0,0-.436-.693,4.95,4.95,0,0,0-1.4-.452q-3.2-.672-3.2-2.723a2.468,2.468,0,0,1,.992-2,4,4,0,0,1,2.594-.8,4.307,4.307,0,0,1,2.735.805A2.538,2.538,0,0,1,33.162-6.25h-2.4a1.161,1.161,0,0,0-.332-.851,1.405,1.405,0,0,0-1.038-.336,1.436,1.436,0,0,0-.938.274.865.865,0,0,0-.332.7.739.739,0,0,0,.378.643,3.885,3.885,0,0,0,1.274.423,10.407,10.407,0,0,1,1.511.4,2.482,2.482,0,0,1,1.9,2.416A2.343,2.343,0,0,1,32.132-.594a4.548,4.548,0,0,1-2.723.76,4.75,4.75,0,0,1-2-.4,3.363,3.363,0,0,1-1.374-1.1,2.565,2.565,0,0,1-.5-1.515h2.274a1.252,1.252,0,0,0,.473.979,1.877,1.877,0,0,0,1.179.34A1.737,1.737,0,0,0,30.5-1.8.814.814,0,0,0,30.854-2.482Z" transform="translate(1135.729 4091.926)"/>
    <path id="Path_192347" data-name="Path 192347" d="M-41.873-4.034a4.52,4.52,0,0,1-.855,2.22A4.648,4.648,0,0,1-44.588-.328a5.662,5.662,0,0,1-2.474.494,4.182,4.182,0,0,1-2.083-.552,3.659,3.659,0,0,1-1.4-1.527,5.644,5.644,0,0,1-.577-2.3,11.3,11.3,0,0,1,.212-2.54,8.052,8.052,0,0,1,.963-2.7A6.02,6.02,0,0,1-48.3-11.322a4.971,4.971,0,0,1,3.071-.93,4.078,4.078,0,0,1,2.976,1.158,4.658,4.658,0,0,1,1.208,3.125l-2.424-.008a2.54,2.54,0,0,0-.457-1.677,1.862,1.862,0,0,0-1.419-.564,2.463,2.463,0,0,0-2.046.888,5.341,5.341,0,0,0-1.075,2.714,15.04,15.04,0,0,0-.232,2.6,2.586,2.586,0,0,0,.49,1.615,1.639,1.639,0,0,0,1.253.544,2.5,2.5,0,0,0,1.781-.527,2.789,2.789,0,0,0,.884-1.631ZM-38.528,0h-2.357l2.216-12.75h2.349Zm7.122-9.147a3.6,3.6,0,0,1,2.046.61A3.436,3.436,0,0,1-28.1-6.9a5.059,5.059,0,0,1,.286,2.312A5.465,5.465,0,0,1-29.3-1.125,4.207,4.207,0,0,1-32.51.166a3.592,3.592,0,0,1-2.025-.6A3.423,3.423,0,0,1-35.8-2.059a4.948,4.948,0,0,1-.291-2.291,5.626,5.626,0,0,1,1.511-3.536A4.12,4.12,0,0,1-31.406-9.147ZM-33.772-3.5A2.072,2.072,0,0,0-33.4-2.245a1.241,1.241,0,0,0,1,.477,1.819,1.819,0,0,0,1.693-.99,4.937,4.937,0,0,0,.573-2.69,2.254,2.254,0,0,0-.386-1.272,1.221,1.221,0,0,0-1.009-.493,1.822,1.822,0,0,0-1.673.982A4.886,4.886,0,0,0-33.772-3.5ZM-21.578-.93a3.1,3.1,0,0,1-2.474,1.1,2.308,2.308,0,0,1-1.959-.93,3.4,3.4,0,0,1-.515-2.407l.971-5.811h2.341L-24.2-3.139a2.311,2.311,0,0,0-.008.515.854.854,0,0,0,.921.856,2.14,2.14,0,0,0,1.8-.839l1.121-6.374h2.357L-19.569,0h-2.183Zm8.209-8.226a2.556,2.556,0,0,1,2.025,1l.88-4.6h2.349L-10.322,0h-2.092l.133-.963A2.907,2.907,0,0,1-14.622.174a2.585,2.585,0,0,1-1.469-.44,2.77,2.77,0,0,1-.975-1.241,5,5,0,0,1-.378-1.805,6.8,6.8,0,0,1,.025-1.013l.05-.374A7.19,7.19,0,0,1-16.6-7.122a4,4,0,0,1,1.395-1.552A3.288,3.288,0,0,1-13.368-9.156Zm-1.7,4.831a6.722,6.722,0,0,0-.042,1.063q.083,1.461,1.179,1.486a2,2,0,0,0,1.718-.93l.639-3.569a1.326,1.326,0,0,0-1.295-.93,1.706,1.706,0,0,0-1.424.66A4.437,4.437,0,0,0-15.07-4.325ZM4.76-4.408a5.387,5.387,0,0,1-.942,3.324A3.021,3.021,0,0,1,1.274.166,2.8,2.8,0,0,1-.926-.78V3.453h-2.4V-8.981H-1.1l.083.88A2.819,2.819,0,0,1,1.258-9.147,3.041,3.041,0,0,1,3.839-7.919,5.532,5.532,0,0,1,4.76-4.532Zm-2.4-.174a3.535,3.535,0,0,0-.444-1.934A1.446,1.446,0,0,0,.627-7.2a1.571,1.571,0,0,0-1.552.863v3.677a1.6,1.6,0,0,0,1.569.888Q2.362-1.768,2.362-4.582ZM11.625-.913A3.008,3.008,0,0,1,9.168.166a2.837,2.837,0,0,1-2.2-.83A3.543,3.543,0,0,1,6.188-3.1V-8.981h2.4v5.809q0,1.4,1.278,1.4a1.732,1.732,0,0,0,1.677-.848V-8.981h2.407V0H11.692ZM10.554-12.75h2.615l-2.3,2.573H8.919Zm13.3,8.342a5.439,5.439,0,0,1-.921,3.366A3.052,3.052,0,0,1,20.358.166,2.8,2.8,0,0,1,18.025-.955L17.917,0H15.759V-12.75h2.4v4.574a2.732,2.732,0,0,1,2.183-.971A3.077,3.077,0,0,1,22.918-7.94a5.446,5.446,0,0,1,.934,3.4Zm-2.4-.174a3.573,3.573,0,0,0-.432-1.988A1.46,1.46,0,0,0,19.735-7.2a1.582,1.582,0,0,0-1.577.938v3.544a1.6,1.6,0,0,0,1.594.946,1.481,1.481,0,0,0,1.527-1.146A5.909,5.909,0,0,0,21.453-4.582ZM27.862,0H25.454V-12.75h2.407Zm4.507,0H29.962V-8.981h2.407ZM29.821-11.306a1.181,1.181,0,0,1,.361-.888,1.356,1.356,0,0,1,.984-.349,1.36,1.36,0,0,1,.979.349,1.175,1.175,0,0,1,.365.888,1.178,1.178,0,0,1-.369.9,1.363,1.363,0,0,1-.975.349,1.363,1.363,0,0,1-.975-.349A1.178,1.178,0,0,1,29.821-11.306ZM38.08-1.768a1.573,1.573,0,0,0,1.079-.365,1.28,1.28,0,0,0,.432-.971h2.25a3.077,3.077,0,0,1-.5,1.673A3.286,3.286,0,0,1,40-.253a4.2,4.2,0,0,1-1.88.419,3.9,3.9,0,0,1-3.038-1.224,4.845,4.845,0,0,1-1.112-3.383V-4.6a4.79,4.79,0,0,1,1.1-3.312A3.854,3.854,0,0,1,38.1-9.147a3.778,3.778,0,0,1,2.7.959A3.4,3.4,0,0,1,41.84-5.636h-2.25a1.648,1.648,0,0,0-.432-1.139,1.439,1.439,0,0,0-1.1-.438A1.445,1.445,0,0,0,36.8-6.6,3.541,3.541,0,0,0,36.37-4.62v.249a3.586,3.586,0,0,0,.423,2A1.463,1.463,0,0,0,38.08-1.768Zm4.756-2.806a5.327,5.327,0,0,1,.515-2.382,3.767,3.767,0,0,1,1.482-1.619,4.323,4.323,0,0,1,2.245-.573,4.09,4.09,0,0,1,2.968,1.112,4.464,4.464,0,0,1,1.282,3.021l.017.614a4.694,4.694,0,0,1-1.154,3.316,4.011,4.011,0,0,1-3.1,1.249,4.031,4.031,0,0,1-3.1-1.245,4.777,4.777,0,0,1-1.158-3.387Zm2.4.17a3.357,3.357,0,0,0,.481,1.958,1.588,1.588,0,0,0,1.378.678,1.592,1.592,0,0,0,1.361-.669,3.674,3.674,0,0,0,.49-2.141,3.324,3.324,0,0,0-.49-1.945,1.592,1.592,0,0,0-1.378-.69,1.566,1.566,0,0,0-1.361.686A3.735,3.735,0,0,0,45.235-4.4Z" transform="translate(1135.174 4250.712)"/>
  </g>
</svg>
