<svg xmlns="http://www.w3.org/2000/svg" width="1030" height="350" viewBox="0 0 1030 350">
  <g id="Grupo_131759" data-name="Grupo 131759" transform="translate(-285 -4034)">
    <circle id="Elipse_4851" data-name="Elipse 4851" cx="10" cy="10" r="10" transform="translate(1105 4157)" fill="#ffb30b"/>
    <rect id="Rectángulo_293675" data-name="Rectángulo 293675" width="1030" height="350" transform="translate(285 4034)" fill="none"/>
    <g id="Grupo_129058" data-name="Grupo 129058" transform="translate(1822.899 2368.065)">
      <g id="Grupo_129042" data-name="Grupo 129042" transform="translate(-1133.711 1697.532)">
        <rect id="Rectángulo_293592" data-name="Rectángulo 293592" width="205.691" height="205.691" rx="19.811" transform="translate(6.079 6.079)" fill="#00defc"/>
        <path id="Trazado_189930" data-name="Trazado 189930" d="M-946.994,1810.935h-20.637a1.976,1.976,0,0,1-1.848-1.323,33.387,33.387,0,0,0-4.119-7.867,33.216,33.216,0,0,0-23.108-13.83,1.975,1.975,0,0,1-1.569-1.135c-7.13-15.543-19.82-25.225-36.888-28.1l-.164-.057a9.714,9.714,0,0,0-3.127-.516h-6.79a2.038,2.038,0,0,1-2.034-2.033v-53.786a1.956,1.956,0,0,0-1.955-1.956h-3.385a1.956,1.956,0,0,0-1.955,1.956v56.261a1.944,1.944,0,0,1-1.421,1.881c-1.35.367-2.72.784-4.114,1.3a42.749,42.749,0,0,0-16.18,10.708,1.969,1.969,0,0,1-1.589.6q-1.341-.111-2.688-.111a32.843,32.843,0,0,0-27.6,14.883,1.949,1.949,0,0,1-1.17.827,33.336,33.336,0,0,0-23.055,20.981,1.979,1.979,0,0,1-1.849,1.322h-20.619a4.994,4.994,0,0,0-4.994,4.994v69.942a29.269,29.269,0,0,0,29.268,29.268h159.506A29.075,29.075,0,0,0-942,1886.065v-70.135A4.994,4.994,0,0,0-946.994,1810.935Z" transform="translate(1159.849 -1697.29)" fill="#fff"/>
        <g id="Grupo_129040" data-name="Grupo 129040" transform="translate(35.156 70.538)">
          <path id="Trazado_189931" data-name="Trazado 189931" d="M-1059.065,1839.221q-21.619,0-43.237-.01a42.987,42.987,0,0,1-4.455-.243,23.5,23.5,0,0,1-20.732-23.273c-.078-11.855,8.913-22.215,20.5-23.486a2.865,2.865,0,0,0,2.665-1.809,23.344,23.344,0,0,1,26.586-12.428,2.461,2.461,0,0,0,2.984-1.053,34.2,34.2,0,0,1,15.219-11.438c3.7-1.366,7.657-2.038,11.5-3.021h6.79a6.023,6.023,0,0,0,.983.327c15.187,2.349,25.607,10.69,31.321,24.928.587,1.464,1,3,1.5,4.51,1.042-.052,1.933-.092,2.823-.142,16.472-.918,28.835,15.57,23.356,31.153-3.445,9.8-12.255,15.949-23.053,15.976-14.77.038-29.54.01-44.309.01Zm46.8-39.523c-1.826-15.429-9.527-26.349-24.678-30.158-15.972-4.016-28.176,2.466-36.854,16.108-.637-.271-1.181-.5-1.721-.731-10.5-4.55-21.195.2-24.707,11.095-.537,1.664-1.287,1.958-2.888,1.913a17.037,17.037,0,0,0-15.584,8.054c-3.834,5.925-4.067,12.232-.463,18.4a16.978,16.978,0,0,0,15.487,8.855q49.929.06,99.857.026a18.133,18.133,0,0,0,8.869-2.318,17.629,17.629,0,0,0,7.728-22.008,17.743,17.743,0,0,0-20.2-10.592C-1008.978,1798.713-1010.506,1799.2-1012.267,1799.7Z" transform="translate(1127.49 -1762.459)"/>
          <path id="Trazado_189932" data-name="Trazado 189932" d="M-1012.725,1799.228c1.761-.5,3.289-.984,4.845-1.354a17.743,17.743,0,0,1,20.2,10.592,17.629,17.629,0,0,1-7.728,22.008,18.133,18.133,0,0,1-8.869,2.318q-49.927-.02-99.857-.026a16.978,16.978,0,0,1-15.487-8.855c-3.6-6.17-3.371-12.477.463-18.4a17.037,17.037,0,0,1,15.584-8.054c1.6.045,2.351-.249,2.888-1.913,3.512-10.894,14.209-15.645,24.707-11.095.54.234,1.084.461,1.721.731,8.678-13.642,20.882-20.125,36.854-16.108C-1022.252,1772.879-1014.552,1783.8-1012.725,1799.228Zm-14.087-17.651c-9.375-10.119-27.172-10.512-37.1-.026l3.955,3.946c9.773-7.834,19.542-7.792,29.193,0Zm22.8,27.456c4.019,1.094,5.888,3.091,5.863,6.117-.026,3.043-1.982,5.071-5.8,5.987v5.71c4.89-.243,8.437-2.394,10.476-6.679a11.153,11.153,0,0,0-1.2-12.108,10.828,10.828,0,0,0-9.339-4.605Z" transform="translate(1127.948 -1761.99)" fill="#084a93"/>
          <path id="Trazado_189933" data-name="Trazado 189933" d="M-1031.448,1781.1l-3.949,3.917c-9.652-7.789-19.42-7.831-29.193,0l-3.955-3.946C-1058.62,1770.592-1040.823,1770.985-1031.448,1781.1Z" transform="translate(1132.584 -1761.517)"/>
          <path id="Trazado_189934" data-name="Trazado 189934" d="M-1013.41,1806.2v-5.579a10.828,10.828,0,0,1,9.339,4.605,11.153,11.153,0,0,1,1.2,12.108c-2.039,4.285-5.586,6.436-10.476,6.679v-5.71c3.82-.916,5.776-2.944,5.8-5.987C-1007.522,1809.295-1009.391,1807.3-1013.41,1806.2Z" transform="translate(1137.349 -1759.161)"/>
        </g>
        <g id="Grupo_129041" data-name="Grupo 129041">
          <path id="Trazado_189935" data-name="Trazado 189935" d="M-969.6,1915.381h-162.645a27.633,27.633,0,0,1-27.6-27.6V1725.134a27.633,27.633,0,0,1,27.6-27.6H-969.6a27.633,27.633,0,0,1,27.6,27.6v162.645A27.633,27.633,0,0,1-969.6,1915.381Zm-162.645-211.771a21.548,21.548,0,0,0-21.524,21.523v162.645a21.548,21.548,0,0,0,21.524,21.523H-969.6a21.546,21.546,0,0,0,21.522-21.523V1725.134a21.546,21.546,0,0,0-21.522-21.523Z" transform="translate(1159.849 -1697.532)" fill="#ffb30b"/>
        </g>
      </g>
      <g id="Grupo_129045" data-name="Grupo 129045" transform="translate(-795.416 1697.532)">
        <rect id="Rectángulo_293593" data-name="Rectángulo 293593" width="205.691" height="205.691" rx="19.811" transform="translate(6.079 6.079)" fill="#00defc"/>
        <path id="Trazado_189936" data-name="Trazado 189936" d="M-634.138,1808.1h-23.988a33.391,33.391,0,0,0-4.57-9.19,33.185,33.185,0,0,0-24.22-13.943c-7.038-16.142-19.907-26.184-37.345-29.126l-.164-.057a9.715,9.715,0,0,0-3.127-.516h-6.79a9.719,9.719,0,0,0-2.034.231v-15.019h102.1v-7.3h-211.5v7.3h102.1v16.739a53.544,53.544,0,0,0-5.535,1.671,42.921,42.921,0,0,0-16.829,11.4,32.7,32.7,0,0,0-3.629-.2,32.851,32.851,0,0,0-28.012,15.534,33.337,33.337,0,0,0-24.261,22.479h-23.971a3.039,3.039,0,0,0-3.04,3.039v72.759A28.407,28.407,0,0,0-820.54,1912.3h160.293a29.15,29.15,0,0,0,29.15-29.15v-72.016A3.039,3.039,0,0,0-634.138,1808.1Z" transform="translate(848.947 -1694.451)" fill="#fff"/>
        <g id="Grupo_129043" data-name="Grupo 129043" transform="translate(35.156 70.538)">
          <path id="Trazado_189937" data-name="Trazado 189937" d="M-748.163,1839.221q-21.619,0-43.237-.01a42.99,42.99,0,0,1-4.455-.243,23.5,23.5,0,0,1-20.732-23.273c-.078-11.855,8.913-22.215,20.5-23.486a2.865,2.865,0,0,0,2.665-1.809,23.344,23.344,0,0,1,26.586-12.428,2.461,2.461,0,0,0,2.984-1.053,34.2,34.2,0,0,1,15.219-11.438c3.7-1.366,7.657-2.038,11.5-3.021h6.79a6.025,6.025,0,0,0,.983.327c15.187,2.349,25.607,10.69,31.321,24.928.587,1.464,1,3,1.5,4.51,1.042-.052,1.933-.092,2.823-.142,16.472-.918,28.835,15.57,23.356,31.153-3.445,9.8-12.255,15.949-23.053,15.976-14.77.038-29.54.01-44.309.01Zm46.8-39.523c-1.825-15.429-9.527-26.349-24.678-30.158-15.972-4.016-28.175,2.466-36.854,16.108-.637-.271-1.181-.5-1.721-.731-10.5-4.55-21.2.2-24.708,11.095-.537,1.664-1.287,1.958-2.888,1.913a17.037,17.037,0,0,0-15.584,8.054c-3.834,5.925-4.067,12.232-.463,18.4a16.978,16.978,0,0,0,15.487,8.855q49.929.06,99.857.026a18.132,18.132,0,0,0,8.869-2.318,17.629,17.629,0,0,0,7.728-22.008,17.743,17.743,0,0,0-20.2-10.592C-698.076,1798.713-699.6,1799.2-701.365,1799.7Z" transform="translate(816.587 -1762.459)"/>
          <path id="Trazado_189938" data-name="Trazado 189938" d="M-701.823,1799.228c1.761-.5,3.289-.984,4.846-1.354a17.743,17.743,0,0,1,20.2,10.592,17.629,17.629,0,0,1-7.728,22.008,18.133,18.133,0,0,1-8.869,2.318q-49.927-.02-99.857-.026a16.978,16.978,0,0,1-15.487-8.855c-3.6-6.17-3.371-12.477.463-18.4a17.037,17.037,0,0,1,15.584-8.054c1.6.045,2.351-.249,2.888-1.913,3.512-10.894,14.209-15.645,24.708-11.095.54.234,1.084.461,1.721.731,8.678-13.642,20.882-20.125,36.854-16.108C-711.35,1772.879-703.649,1783.8-701.823,1799.228Zm-14.087-17.651c-9.375-10.119-27.172-10.512-37.1-.026l3.955,3.946c9.774-7.834,19.542-7.792,29.193,0Zm22.8,27.456c4.019,1.094,5.888,3.091,5.863,6.117-.026,3.043-1.982,5.071-5.8,5.987v5.71c4.89-.243,8.437-2.394,10.476-6.679a11.154,11.154,0,0,0-1.2-12.108,10.828,10.828,0,0,0-9.339-4.605Z" transform="translate(817.046 -1761.99)" fill="#084a93"/>
          <path id="Trazado_189939" data-name="Trazado 189939" d="M-720.546,1781.1l-3.949,3.917c-9.652-7.789-19.42-7.831-29.193,0l-3.955-3.946C-747.717,1770.592-729.921,1770.985-720.546,1781.1Z" transform="translate(821.682 -1761.517)"/>
          <path id="Trazado_189940" data-name="Trazado 189940" d="M-702.508,1806.2v-5.579a10.828,10.828,0,0,1,9.339,4.605,11.153,11.153,0,0,1,1.2,12.108c-2.039,4.285-5.586,6.436-10.476,6.679v-5.71c3.82-.916,5.775-2.944,5.8-5.987C-696.62,1809.295-698.489,1807.3-702.508,1806.2Z" transform="translate(826.447 -1759.161)"/>
        </g>
        <g id="Grupo_129044" data-name="Grupo 129044">
          <path id="Trazado_189941" data-name="Trazado 189941" d="M-658.7,1915.381H-821.344a27.633,27.633,0,0,1-27.6-27.6V1725.134a27.633,27.633,0,0,1,27.6-27.6H-658.7a27.633,27.633,0,0,1,27.6,27.6v162.645A27.633,27.633,0,0,1-658.7,1915.381Zm-162.645-211.771a21.548,21.548,0,0,0-21.524,21.523v162.645a21.548,21.548,0,0,0,21.524,21.523H-658.7a21.547,21.547,0,0,0,21.523-21.523V1725.134a21.547,21.547,0,0,0-21.523-21.523Z" transform="translate(848.947 -1697.532)" fill="#ffb30b"/>
        </g>
      </g>
      <g id="Grupo_129048" data-name="Grupo 129048" transform="translate(-1468.33 1697.532)">
        <rect id="Rectángulo_293594" data-name="Rectángulo 293594" width="205.691" height="205.691" rx="19.811" transform="translate(6.079 6.079)" fill="#00defc"/>
        <g id="Grupo_129046" data-name="Grupo 129046">
          <path id="Trazado_189942" data-name="Trazado 189942" d="M-1278.083,1915.381h-162.646a27.633,27.633,0,0,1-27.6-27.6V1725.134a27.633,27.633,0,0,1,27.6-27.6h162.646a27.633,27.633,0,0,1,27.6,27.6v162.645A27.633,27.633,0,0,1-1278.083,1915.381Zm-162.646-211.771a21.547,21.547,0,0,0-21.523,21.523v162.645a21.547,21.547,0,0,0,21.523,21.523h162.646a21.547,21.547,0,0,0,21.523-21.523V1725.134a21.547,21.547,0,0,0-21.523-21.523Z" transform="translate(1468.33 -1697.532)" fill="#ffb30b"/>
        </g>
        <g id="Grupo_129047" data-name="Grupo 129047" transform="translate(35.156 70.538)">
          <path id="Trazado_189943" data-name="Trazado 189943" d="M-1367.547,1839.221q-21.617,0-43.235-.01a42.972,42.972,0,0,1-4.455-.243,23.494,23.494,0,0,1-20.732-23.273c-.078-11.855,8.913-22.215,20.5-23.486a2.866,2.866,0,0,0,2.665-1.809,23.344,23.344,0,0,1,26.586-12.428,2.461,2.461,0,0,0,2.984-1.053,34.2,34.2,0,0,1,15.219-11.438c3.7-1.366,7.657-2.038,11.5-3.021h6.79a5.99,5.99,0,0,0,.983.327c15.187,2.349,25.607,10.69,31.32,24.928.588,1.464,1,3,1.5,4.51,1.042-.052,1.933-.092,2.823-.142,16.472-.918,28.835,15.57,23.356,31.153-3.445,9.8-12.255,15.949-23.053,15.976-14.77.038-29.54.01-44.31.01Zm46.8-39.523c-1.826-15.429-9.527-26.349-24.678-30.158-15.972-4.016-28.175,2.466-36.854,16.108-.638-.271-1.181-.5-1.721-.731-10.5-4.55-21.2.2-24.707,11.095-.537,1.664-1.289,1.958-2.888,1.913a17.036,17.036,0,0,0-15.584,8.054c-3.834,5.925-4.066,12.232-.463,18.4a16.977,16.977,0,0,0,15.487,8.855q49.929.06,99.857.026a18.125,18.125,0,0,0,8.867-2.318,17.626,17.626,0,0,0,7.728-22.008,17.74,17.74,0,0,0-20.2-10.592C-1317.459,1798.713-1318.988,1799.2-1320.748,1799.7Z" transform="translate(1435.971 -1762.459)"/>
          <path id="Trazado_189944" data-name="Trazado 189944" d="M-1321.206,1799.228c1.76-.5,3.289-.984,4.845-1.354a17.74,17.74,0,0,1,20.2,10.592,17.626,17.626,0,0,1-7.728,22.008,18.125,18.125,0,0,1-8.867,2.318q-49.929-.02-99.857-.026a16.977,16.977,0,0,1-15.487-8.855c-3.6-6.17-3.371-12.477.463-18.4a17.036,17.036,0,0,1,15.584-8.054c1.6.045,2.351-.249,2.888-1.913,3.512-10.894,14.209-15.645,24.707-11.095.54.234,1.083.461,1.721.731,8.678-13.642,20.882-20.125,36.854-16.108C-1330.733,1772.879-1323.033,1783.8-1321.206,1799.228Zm-14.087-17.651c-9.375-10.119-27.172-10.512-37.1-.026l3.955,3.946c9.773-7.834,19.542-7.792,29.192,0Zm22.8,27.456c4.019,1.094,5.888,3.091,5.863,6.117-.026,3.043-1.982,5.071-5.8,5.987v5.71c4.891-.243,8.438-2.394,10.477-6.679a11.153,11.153,0,0,0-1.2-12.108,10.828,10.828,0,0,0-9.339-4.605Z" transform="translate(1436.429 -1761.99)" fill="#084a93"/>
          <path id="Trazado_189945" data-name="Trazado 189945" d="M-1339.929,1781.1l-3.95,3.917c-9.651-7.789-19.419-7.831-29.192,0l-3.955-3.946C-1367.1,1770.592-1349.3,1770.985-1339.929,1781.1Z" transform="translate(1441.065 -1761.517)"/>
          <path id="Trazado_189946" data-name="Trazado 189946" d="M-1321.891,1806.2v-5.579a10.828,10.828,0,0,1,9.339,4.605,11.153,11.153,0,0,1,1.2,12.108c-2.039,4.285-5.586,6.436-10.477,6.679v-5.71c3.821-.916,5.777-2.944,5.8-5.987C-1316,1809.295-1317.872,1807.3-1321.891,1806.2Z" transform="translate(1445.83 -1759.161)"/>
        </g>
      </g>
      <text id="Data_center_cliente" data-name="Data center cliente" transform="translate(-1360.109 1744.274)" fill="#12263f" font-size="17" font-family="Roboto-Bold, Roboto" font-weight="700"><tspan x="-71.86" y="0">Data center cliente</tspan></text>
      <text id="Cloud_Privado" data-name="Cloud Privado" transform="translate(-1360.727 1882.647)" font-size="17" font-family="Roboto-Bold, Roboto" font-weight="700"><tspan x="-53.507" y="0">Cloud Privado</tspan></text>
      <text id="Cliente_A" data-name="Cliente A" transform="translate(-1073.579 1746.179)" font-size="17" font-family="Roboto-Bold, Roboto" font-weight="700"><tspan x="-34.726" y="0">Cliente A</tspan></text>
      <text id="Cliente_B" data-name="Cliente B" transform="translate(-968.965 1746.179)" font-size="17" font-family="Roboto-Bold, Roboto" font-weight="700"><tspan x="-34.432" y="0">Cliente B</tspan></text>
      <text id="Cloud_Híbrido" data-name="Cloud Híbrido" transform="translate(-1025.498 1882.647)" font-size="17" font-family="Roboto-Bold, Roboto" font-weight="700"><tspan x="-52.353" y="0">Cloud Híbrido</tspan></text>
      <text id="A" transform="translate(-755.186 1772.985)" font-size="25" font-family="Roboto-Bold, Roboto" font-weight="700"><tspan x="-8.411" y="0">A</tspan></text>
      <text id="B" transform="translate(-617.145 1772.985)" font-size="25" font-family="Roboto-Bold, Roboto" font-weight="700"><tspan x="-7.977" y="0">B</tspan></text>
      <text id="Usuarios" transform="translate(-687.17 1723.861)" font-size="17" font-family="Roboto-Bold, Roboto" font-weight="700"><tspan x="-33.809" y="0">Usuarios</tspan></text>
      <text id="Cloud_Público" data-name="Cloud Público" transform="translate(-687.726 1882.647)" font-size="17" font-family="Roboto-Bold, Roboto" font-weight="700"><tspan x="-53.054" y="0">Cloud Público</tspan></text>
      <text id="Privado" transform="translate(-1360.899 1974.011)" fill="#084a93" font-size="32" font-family="Roboto-Bold, Roboto" font-weight="700"><tspan x="-55.008" y="0">Privado</tspan></text>
      <text id="Híbrido" transform="translate(-1024.303 1975.011)" fill="#084a93" font-size="33" font-family="Roboto-Bold, Roboto" font-weight="700"><tspan x="-54.487" y="0">Híbrido</tspan></text>
      <text id="Público" transform="translate(-687.898 1974.011)" fill="#084a93" font-size="32" font-family="Roboto-Bold, Roboto" font-weight="700"><tspan x="-54.156" y="0">Público</tspan></text>
      <g id="Grupo_129051" data-name="Grupo 129051" transform="translate(-1468.33 1947.167)">
        <g id="Grupo_129049" data-name="Grupo 129049" transform="translate(183.856)">
          <path id="Trazado_189947" data-name="Trazado 189947" d="M-1296.656,1927.308l-2.444,2.445,13.852,13.852-13.852,13.852,2.444,2.444,16.3-16.3Z" transform="translate(1299.1 -1927.308)" fill="#084a93"/>
          <path id="Trazado_189948" data-name="Trazado 189948" d="M-1282.617,1927.308l-2.444,2.445,13.852,13.852-13.852,13.852,2.444,2.444,16.3-16.3Z" transform="translate(1300.314 -1927.308)" fill="#084a93"/>
        </g>
        <g id="Grupo_129050" data-name="Grupo 129050">
          <path id="Trazado_189949" data-name="Trazado 189949" d="M-1437.994,1959.9l2.444-2.444L-1449.4,1943.6l13.852-13.852-2.444-2.445-16.3,16.3Z" transform="translate(1469.544 -1927.308)" fill="#084a93"/>
          <path id="Trazado_189950" data-name="Trazado 189950" d="M-1452.034,1959.9l2.444-2.444-13.852-13.852,13.852-13.852-2.444-2.445-16.3,16.3Z" transform="translate(1468.33 -1927.308)" fill="#084a93"/>
        </g>
      </g>
      <g id="Grupo_129054" data-name="Grupo 129054" transform="translate(-1124.369 1947.167)">
        <g id="Grupo_129052" data-name="Grupo 129052" transform="translate(170.691)">
          <path id="Trazado_189951" data-name="Trazado 189951" d="M-980.057,1927.308l-2.444,2.445,13.852,13.852-13.852,13.852,2.444,2.444,16.3-16.3Z" transform="translate(982.502 -1927.308)" fill="#084a93"/>
          <path id="Trazado_189952" data-name="Trazado 189952" d="M-966.018,1927.308l-2.444,2.445,13.852,13.852-13.852,13.852,2.444,2.444,16.3-16.3Z" transform="translate(983.715 -1927.308)" fill="#084a93"/>
        </g>
        <g id="Grupo_129053" data-name="Grupo 129053">
          <path id="Trazado_189953" data-name="Trazado 189953" d="M-1121.4,1959.9l2.444-2.444L-1132.8,1943.6l13.852-13.852-2.444-2.445-16.3,16.3Z" transform="translate(1152.945 -1927.308)" fill="#084a93"/>
          <path id="Trazado_189954" data-name="Trazado 189954" d="M-1135.435,1959.9l2.444-2.444-13.852-13.852,13.852-13.852-2.444-2.445-16.3,16.3Z" transform="translate(1151.731 -1927.308)" fill="#084a93"/>
        </g>
      </g>
      <g id="Grupo_129057" data-name="Grupo 129057" transform="translate(-795.415 1947.167)">
        <g id="Grupo_129055" data-name="Grupo 129055" transform="translate(183.856)">
          <path id="Trazado_189955" data-name="Trazado 189955" d="M-677.273,1927.308l-2.444,2.445,13.852,13.852-13.852,13.852,2.444,2.444,16.3-16.3Z" transform="translate(679.717 -1927.308)" fill="#084a93"/>
          <path id="Trazado_189956" data-name="Trazado 189956" d="M-663.234,1927.308l-2.444,2.445,13.852,13.852-13.852,13.852,2.444,2.444,16.3-16.3Z" transform="translate(680.931 -1927.308)" fill="#084a93"/>
        </g>
        <g id="Grupo_129056" data-name="Grupo 129056">
          <path id="Trazado_189957" data-name="Trazado 189957" d="M-818.611,1959.9l2.444-2.444-13.852-13.852,13.852-13.852-2.444-2.445-16.3,16.3Z" transform="translate(850.16 -1927.308)" fill="#084a93"/>
          <path id="Trazado_189958" data-name="Trazado 189958" d="M-832.65,1959.9l2.444-2.444-13.852-13.852,13.852-13.852-2.444-2.445-16.3,16.3Z" transform="translate(848.947 -1927.308)" fill="#084a93"/>
        </g>
      </g>
    </g>
  </g>
</svg>
