<svg xmlns="http://www.w3.org/2000/svg" width="423.941" height="341.387" viewBox="0 0 423.941 341.387">
  <g id="_1" data-name="1" transform="translate(-949 -480)">
    <path id="Trazado_189959" data-name="Trazado 189959" d="M-967.52,2585.052q-58.674,0-117.348-.029a116.244,116.244,0,0,1-12.091-.659c-31.664-3.36-56.06-30.784-56.271-63.168-.211-32.174,24.191-60.292,55.633-63.742,3.7-.406,5.592-1.571,7.234-4.91a63.353,63.353,0,0,1,72.157-33.73c3.79.945,5.81.088,8.1-2.858,10.935-14.066,24.61-24.885,41.3-31.045,10.043-3.7,20.781-5.529,31.207-8.2h18.428a16.435,16.435,0,0,0,2.67.886c41.217,6.375,69.5,29.016,85,67.658,1.594,3.974,2.716,8.138,4.066,12.24,2.83-.142,5.247-.251,7.663-.385,44.708-2.493,78.259,42.256,63.39,84.551-9.352,26.6-33.263,43.288-62.568,43.363-40.087.1-80.174.026-120.261.027ZM-840.5,2477.781c-4.957-41.878-25.857-71.513-66.98-81.854-43.348-10.9-76.473,6.7-100.026,43.722-1.729-.735-3.2-1.35-4.671-1.986-28.492-12.349-57.526.546-67.059,30.113-1.456,4.516-3.495,5.312-7.836,5.194-18.007-.492-32.565,6.815-42.3,21.858-10.405,16.082-11.036,33.2-1.254,49.944,9.3,15.924,23.625,24.014,42.031,24.036q135.511.16,271.024.069a49.19,49.19,0,0,0,24.067-6.293c20.922-11.461,29.879-36.889,20.974-59.731-8.3-21.295-32.522-34.029-54.824-28.746C-831.578,2475.108-835.726,2476.437-840.5,2477.781Z" transform="translate(2110.726 -1832.182)" fill="#084a93" opacity="0.35"/>
    <path id="Trazado_189960" data-name="Trazado 189960" d="M-840.5,2477.781c4.777-1.344,8.925-2.673,13.149-3.674,22.3-5.283,46.523,7.451,54.824,28.746,8.905,22.842-.052,48.27-20.974,59.731a49.19,49.19,0,0,1-24.067,6.293q-135.512-.051-271.024-.069c-18.406-.022-32.729-8.112-42.031-24.036-9.782-16.745-9.151-33.862,1.254-49.944,9.732-15.043,24.29-22.35,42.3-21.858,4.341.118,6.38-.678,7.836-5.194,9.533-29.567,38.567-42.462,67.059-30.113,1.467.636,2.942,1.251,4.671,1.986,23.553-37.026,56.678-54.622,100.026-43.722C-866.36,2406.268-845.46,2435.9-840.5,2477.781Zm-38.235-47.908c-25.442-27.462-73.746-28.532-100.683-.071l10.733,10.71c26.525-21.262,53.036-21.146,79.231-.01C-885.792,2436.869-882.265,2433.37-878.738,2429.873Zm61.89,74.519c10.908,2.971,15.983,8.388,15.915,16.6-.069,8.258-5.377,13.764-15.747,16.249v15.5c13.272-.66,22.9-6.5,28.436-18.129,5.437-11.423,4.312-22.688-3.257-32.861-6.17-8.293-14.53-12.682-25.347-12.5Z" transform="translate(2110.726 -1832.182)" fill="#084a93" opacity="0.15"/>
    <path id="Trazado_189961" data-name="Trazado 189961" d="M-878.738,2429.873c-3.527,3.5-7.054,7-10.719,10.629-26.2-21.136-52.706-21.252-79.231.01l-10.733-10.71C-952.484,2401.341-904.18,2402.411-878.738,2429.873Z" transform="translate(2110.726 -1832.182)" fill="#084a93" opacity="0.35"/>
    <path id="Trazado_189962" data-name="Trazado 189962" d="M-816.848,2504.392v-15.141c10.817-.181,19.177,4.208,25.347,12.5,7.569,10.173,8.694,21.438,3.257,32.861-5.535,11.63-15.164,17.469-28.436,18.129v-15.5c10.37-2.485,15.678-7.991,15.747-16.249C-800.865,2512.78-805.94,2507.363-816.848,2504.392Z" transform="translate(2110.726 -1832.182)" fill="#084a93" opacity="0.35"/>
    <path id="Trazado_189963" data-name="Trazado 189963" d="M-788.746,2428.923v-4.816h4.785v-4.849c-2.118,0-4.23.083-6.331-.031a11.246,11.246,0,0,1-3.851-.723,6.753,6.753,0,0,1-4.223-6.5c-.067-6.475-.079-12.952,0-19.426a7.07,7.07,0,0,1,7.373-7.2q14.394-.171,28.789,0c4.482.058,7.3,2.989,7.378,7.488q.164,9.426,0,18.858c-.084,4.651-3.141,7.487-7.806,7.529-2.171.02-4.342,0-6.617,0v4.808h4.622v4.857Zm28.927-21.876a1.806,1.806,0,0,0,.144-.454c.01-4.585.057-9.172-.005-13.757-.025-1.867-1-2.642-3.1-2.646q-13.832-.024-27.663,0c-2.3,0-3.1.882-3.11,3.238-.01,2.837,0,5.674,0,8.511v5.106Zm-.036,4.968H-793.4c.2,1.772.977,2.4,3.014,2.4q12.7.015,25.394,0c.946,0,1.9.05,2.836-.026A2.194,2.194,0,0,0-759.855,2412.015Zm-19.1,7.31V2424h4.652v-4.675Z" transform="translate(2110.726 -1832.182)"/>
    <path id="Trazado_189964" data-name="Trazado 189964" d="M-759.819,2407.047H-793.56v-5.106c0-2.837-.007-5.674,0-8.511.008-2.356.814-3.234,3.11-3.238q13.832-.03,27.663,0c2.1,0,3.079.779,3.1,2.646.062,4.585.015,9.172.005,13.757A1.806,1.806,0,0,1-759.819,2407.047Z" transform="translate(2110.726 -1832.182)" fill="#b9ddfc"/>
    <path id="Trazado_189965" data-name="Trazado 189965" d="M-759.855,2412.015a2.194,2.194,0,0,1-2.3,2.38c-.94.076-1.89.026-2.836.026q-12.7,0-25.394,0c-2.037,0-2.813-.63-3.014-2.4Z" transform="translate(2110.726 -1832.182)" fill="#084a93"/>
    <path id="Trazado_189966" data-name="Trazado 189966" d="M-778.959,2419.325h4.652V2424h-4.652Z" transform="translate(2110.726 -1832.182)" fill="#084a93"/>
    <path id="Trazado_189967" data-name="Trazado 189967" d="M-963.51,2312.182a1.749,1.749,0,0,1,.905,1.689c-.019,3.446-.008,6.892-.008,10.338v.557c.68.072,1.338.1,1.983.217a8.793,8.793,0,0,1,7.351,8.478c.068,5.682.027,11.365.022,17.047a1.453,1.453,0,0,1-1.571,1.542c-1.757.01-3.513,0-5.269,0h-.612v.612q0,4.25,0,8.5c0,1.28-.535,1.82-1.8,1.82q-12.975,0-25.948,0a1.56,1.56,0,0,1-1.79-1.8q0-4.273,0-8.548v-.587h-.58c-1.906,0-3.811,0-5.717,0a1.5,1.5,0,0,1-1.663-1.662c0-5.517-.019-11.034,0-16.551a8.937,8.937,0,0,1,9.031-9.016c.26,0,.521,0,.833,0v-.637c0-3.4.012-6.792-.008-10.188a1.933,1.933,0,0,1,.878-1.815Zm-26.766,29.414c-.673,0-1.316.024-1.957,0a1.5,1.5,0,0,1-1.474-1.511,1.5,1.5,0,0,1,1.511-1.466c.149-.006.3,0,.447,0h32.564c.2,0,.4-.005.6.013a1.47,1.47,0,0,1,1.258,1.953,1.511,1.511,0,0,1-1.54,1.022c-.6.008-1.209,0-1.808,0v7.428h4.424c.006-.137.014-.236.014-.335q0-7.431,0-14.862a5.4,5.4,0,0,0-.056-.891,5.926,5.926,0,0,0-6.065-5.126q-13.374-.015-26.748,0a6.667,6.667,0,0,0-1.38.141,5.889,5.889,0,0,0-4.726,5.795c-.024,4.987-.008,9.974-.006,14.962a2.658,2.658,0,0,0,.039.329h4.909Zm26.558.031h-23.514v18.337h23.514Zm-21.6-16.843h19.683V2315.1h-19.683Z" transform="translate(2110.726 -1832.182)"/>
    <path id="Trazado_189968" data-name="Trazado 189968" d="M-990.276,2341.6v7.447h-4.909a2.658,2.658,0,0,1-.039-.329c0-4.988-.018-9.975.006-14.962a5.889,5.889,0,0,1,4.726-5.795,6.667,6.667,0,0,1,1.38-.141q13.374-.012,26.748,0a5.926,5.926,0,0,1,6.065,5.126,5.4,5.4,0,0,1,.056.891q.006,7.431,0,14.862c0,.1-.008.2-.014.335h-4.424V2341.6c.6,0,1.2.007,1.808,0a1.511,1.511,0,0,0,1.54-1.022,1.47,1.47,0,0,0-1.258-1.953c-.2-.018-.4-.013-.6-.013h-32.564c-.149,0-.3,0-.447,0a1.5,1.5,0,0,0-1.511,1.466,1.5,1.5,0,0,0,1.474,1.511C-991.592,2341.62-990.949,2341.6-990.276,2341.6Zm14.525-12.31a4.11,4.11,0,0,0-4.042,4.07,4.119,4.119,0,0,0,4.062,4.054,4.109,4.109,0,0,0,4.064-4.1A4.1,4.1,0,0,0-975.751,2329.286Zm-10.017,5.558c.694,0,1.389.009,2.084,0a1.494,1.494,0,0,0,1.585-1.487,1.47,1.47,0,0,0-1.566-1.494q-2.06-.016-4.119,0a1.474,1.474,0,0,0-1.585,1.476,1.489,1.489,0,0,0,1.566,1.505C-987.125,2334.854-986.447,2334.844-985.768,2334.844Zm20.177-2.986h-2.083a1.507,1.507,0,0,0-1.582,1.493,1.5,1.5,0,0,0,1.542,1.487q2.107.027,4.217,0a1.476,1.476,0,0,0,1.521-1.5,1.475,1.475,0,0,0-1.531-1.48C-964.2,2331.849-964.9,2331.858-965.591,2331.858Z" transform="translate(2110.726 -1832.182)" fill="#084a93"/>
    <path id="Trazado_189969" data-name="Trazado 189969" d="M-963.718,2341.627v18.337h-23.514v-18.337Zm-11.738,16.385c2.466,0,4.933,0,7.4,0a1.493,1.493,0,0,0,1.607-1.411,1.5,1.5,0,0,0-1.642-1.572q-6.108,0-12.216,0c-.91,0-1.821-.016-2.731.008a1.475,1.475,0,0,0-1.442,1.748,1.5,1.5,0,0,0,1.576,1.227C-980.422,2358.016-977.939,2358.012-975.456,2358.012Zm.015-8.96h-1.492c-2.005,0-4.01-.008-6.015,0a1.469,1.469,0,0,0-1.541,1.66,1.529,1.529,0,0,0,1.7,1.321q7.308,0,14.616,0a2.514,2.514,0,0,0,.542-.046,1.476,1.476,0,0,0,1.133-1.85,1.487,1.487,0,0,0-1.536-1.086C-970.5,2349.048-972.972,2349.052-975.441,2349.052Zm.156-2.925q2.387,0,4.772,0c.961,0,1.923.017,2.882-.026a1.414,1.414,0,0,0,1.349-1.4,1.448,1.448,0,0,0-1.261-1.531,4.18,4.18,0,0,0-.643-.039q-7.107,0-14.215,0a4.182,4.182,0,0,0-.742.052,1.431,1.431,0,0,0-1.176,1.352,1.485,1.485,0,0,0,1.678,1.583C-980.189,2346.132-977.737,2346.127-975.285,2346.127Z" transform="translate(2110.726 -1832.182)" fill="#ffb30b"/>
    <path id="Trazado_189970" data-name="Trazado 189970" d="M-985.323,2324.784V2315.1h19.683v9.688Z" transform="translate(2110.726 -1832.182)" fill="#b9ddfc"/>
    <path id="Trazado_189971" data-name="Trazado 189971" d="M-975.751,2329.286a4.1,4.1,0,0,1,4.084,4.026,4.109,4.109,0,0,1-4.064,4.1,4.119,4.119,0,0,1-4.062-4.054A4.11,4.11,0,0,1-975.751,2329.286Zm0,2.994a1.086,1.086,0,0,0-1.035,1.113,1.086,1.086,0,0,0,1.082,1.018,1.109,1.109,0,0,0,1.044-1.064A1.107,1.107,0,0,0-975.75,2332.28Z" transform="translate(2110.726 -1832.182)"/>
    <path id="Trazado_189972" data-name="Trazado 189972" d="M-985.768,2334.844c-.679,0-1.357.01-2.035,0a1.489,1.489,0,0,1-1.566-1.505,1.474,1.474,0,0,1,1.585-1.476q2.059-.014,4.119,0a1.47,1.47,0,0,1,1.566,1.494,1.494,1.494,0,0,1-1.585,1.487C-984.379,2334.853-985.074,2334.844-985.768,2334.844Z" transform="translate(2110.726 -1832.182)"/>
    <path id="Trazado_189973" data-name="Trazado 189973" d="M-965.591,2331.858c.7,0,1.39-.009,2.084,0a1.475,1.475,0,0,1,1.531,1.48,1.476,1.476,0,0,1-1.521,1.5q-2.109.029-4.217,0a1.5,1.5,0,0,1-1.542-1.487,1.507,1.507,0,0,1,1.582-1.493h2.083Z" transform="translate(2110.726 -1832.182)"/>
    <path id="Trazado_189974" data-name="Trazado 189974" d="M-975.456,2358.012c-2.483,0-4.966,0-7.449,0a1.5,1.5,0,0,1-1.576-1.227,1.475,1.475,0,0,1,1.442-1.748c.91-.024,1.821-.008,2.731-.008q6.108,0,12.216,0a1.5,1.5,0,0,1,1.642,1.572,1.493,1.493,0,0,1-1.607,1.411C-970.523,2358.016-972.99,2358.012-975.456,2358.012Z" transform="translate(2110.726 -1832.182)"/>
    <path id="Trazado_189975" data-name="Trazado 189975" d="M-975.441,2349.052c2.469,0,4.938,0,7.407,0a1.487,1.487,0,0,1,1.536,1.086,1.476,1.476,0,0,1-1.133,1.85,2.514,2.514,0,0,1-.542.046q-7.308,0-14.616,0a1.529,1.529,0,0,1-1.7-1.321,1.469,1.469,0,0,1,1.541-1.66c2.005-.013,4.01,0,6.015,0Z" transform="translate(2110.726 -1832.182)"/>
    <path id="Trazado_189976" data-name="Trazado 189976" d="M-975.285,2346.127c-2.452,0-4.9.005-7.356,0a1.485,1.485,0,0,1-1.678-1.583,1.431,1.431,0,0,1,1.176-1.352,4.182,4.182,0,0,1,.742-.052q7.107,0,14.215,0a4.18,4.18,0,0,1,.643.039,1.448,1.448,0,0,1,1.261,1.531,1.414,1.414,0,0,1-1.349,1.4c-.959.043-1.921.024-2.882.026Q-972.9,2346.13-975.285,2346.127Z" transform="translate(2110.726 -1832.182)"/>
    <path id="Trazado_189977" data-name="Trazado 189977" d="M-975.75,2332.28a1.107,1.107,0,0,1,1.091,1.067,1.109,1.109,0,0,1-1.044,1.064,1.086,1.086,0,0,1-1.082-1.018A1.086,1.086,0,0,1-975.75,2332.28Z" transform="translate(2110.726 -1832.182)" fill="#ffb30b"/>
    <path id="Trazado_189978" data-name="Trazado 189978" d="M-1043.222,2489.859c-.183.363-.395.715-.546,1.091q-3.887,9.683-7.758,19.371c-.845,2.111-1.19,2.35-3.415,2.35q-15.084,0-30.168,0c-2.18,0-2.791-.454-3.118-2.545-1.385-8.854-2.729-17.714-4.112-26.568a2.576,2.576,0,0,1,1.487-2.974h31.085a13.465,13.465,0,0,1,1.67,2.189,19.467,19.467,0,0,1,1.109,3.3,1.144,1.144,0,0,0,1.318.963c3.117-.042,6.235.025,9.35-.037a3.285,3.285,0,0,1,3.1,1.359Zm-39.618,18.542c9.079,0,17.929.011,26.779-.04.358,0,.882-.519,1.043-.913,2.038-4.976,4.024-9.973,6.018-14.967.134-.336.223-.691.339-1.057a2.166,2.166,0,0,0-.435-.115c-8.727-.006-17.454-.017-26.181.025a1.467,1.467,0,0,0-1.021.784c-.717,1.6-1.337,3.235-1.986,4.861C-1079.781,2500.726-1081.274,2504.474-1082.84,2508.4Zm21.554-21.385c-.445-2.162-.445-2.162-2.384-2.162h-24.119l2.632,17.107a3.926,3.926,0,0,0,.817-1.365q2.327-5.8,4.649-11.607c.675-1.679,1.1-1.962,2.914-1.97,2.714-.011,5.428,0,8.142,0Z" transform="translate(2110.726 -1832.182)"/>
    <path id="Trazado_189979" data-name="Trazado 189979" d="M-1082.84,2508.4c1.566-3.927,3.059-7.675,4.556-11.422.649-1.626,1.269-3.265,1.986-4.861a1.467,1.467,0,0,1,1.021-.784c8.727-.042,17.454-.031,26.181-.025a2.166,2.166,0,0,1,.435.115c-.116.366-.2.721-.339,1.057-1.994,4.994-3.98,9.991-6.018,14.967-.161.394-.685.911-1.043.913C-1064.911,2508.412-1073.761,2508.4-1082.84,2508.4Z" transform="translate(2110.726 -1832.182)" fill="#ffb30b"/>
    <path id="Trazado_189980" data-name="Trazado 189980" d="M-1061.286,2487.016h-7.349c-2.714,0-5.428-.008-8.142,0-1.819.008-2.239.291-2.914,1.97q-2.334,5.8-4.649,11.607a3.926,3.926,0,0,1-.817,1.365l-2.632-17.107h24.119C-1061.731,2484.854-1061.731,2484.854-1061.286,2487.016Z" transform="translate(2110.726 -1832.182)" fill="#ffb30b"/>
    <path id="Trazado_189981" data-name="Trazado 189981" d="M-1026.789,2506.292c-.184.363-.4.714-.546,1.09q-3.887,9.684-7.759,19.372c-.844,2.11-1.19,2.35-3.414,2.35h-30.169c-2.179,0-2.79-.454-3.117-2.546-1.385-8.853-2.73-17.713-4.113-26.567a2.576,2.576,0,0,1,1.488-2.974h31.085a13.382,13.382,0,0,1,1.669,2.189,19.389,19.389,0,0,1,1.11,3.3,1.143,1.143,0,0,0,1.318.963c3.116-.042,6.235.025,9.35-.038a3.288,3.288,0,0,1,3.1,1.36Zm-39.618,18.542c9.079,0,17.929.011,26.779-.04.358,0,.882-.519,1.043-.913,2.037-4.976,4.024-9.973,6.018-14.967.134-.336.223-.691.339-1.057a2.1,2.1,0,0,0-.435-.115c-8.727-.006-17.454-.017-26.181.025a1.468,1.468,0,0,0-1.022.784c-.717,1.6-1.336,3.235-1.986,4.861C-1063.348,2517.159-1064.841,2520.907-1066.407,2524.834Zm21.553-21.386c-.444-2.161-.444-2.161-2.383-2.161h-24.119l2.632,17.107a3.943,3.943,0,0,0,.817-1.365q2.327-5.8,4.649-11.608c.675-1.678,1.1-1.962,2.914-1.969,2.714-.011,5.428,0,8.142,0Z" transform="translate(2110.726 -1832.182)"/>
    <path id="Trazado_189982" data-name="Trazado 189982" d="M-1066.407,2524.834c1.566-3.927,3.059-7.675,4.555-11.422.65-1.626,1.269-3.265,1.986-4.861a1.468,1.468,0,0,1,1.022-.784c8.727-.042,17.454-.031,26.181-.025a2.1,2.1,0,0,1,.435.115c-.116.366-.2.721-.339,1.057-1.994,4.994-3.981,9.991-6.018,14.967-.161.394-.685.911-1.043.913C-1048.478,2524.845-1057.328,2524.834-1066.407,2524.834Z" transform="translate(2110.726 -1832.182)" fill="#ffb30b"/>
    <path id="Trazado_189983" data-name="Trazado 189983" d="M-1044.854,2503.448h-7.348c-2.714,0-5.428-.008-8.142,0-1.819.007-2.239.291-2.914,1.969q-2.334,5.8-4.649,11.608a3.943,3.943,0,0,1-.817,1.365l-2.632-17.107h24.119C-1045.3,2501.287-1045.3,2501.287-1044.854,2503.448Z" transform="translate(2110.726 -1832.182)" fill="#ffb30b"/>
    <path id="Trazado_189984" data-name="Trazado 189984" d="M-826.379,2506.485c0,6.371-.02,12.741.021,19.112a2.855,2.855,0,0,1-1.049,2.321,14.928,14.928,0,0,1-5.031,2.7,43.3,43.3,0,0,1-10.328,2.236,56.02,56.02,0,0,1-16.752-.747,27.267,27.267,0,0,1-8.359-2.914,11.582,11.582,0,0,1-1.075-.719,3.766,3.766,0,0,1-1.69-3.336q.095-18.585,0-37.171a6.484,6.484,0,0,1,3.317-5.949,25.065,25.065,0,0,1,9.324-3.27,52.912,52.912,0,0,1,21.6.558,19.082,19.082,0,0,1,7.764,3.464,5.675,5.675,0,0,1,2.268,4.689C-826.4,2493.8-826.379,2500.141-826.379,2506.485Zm-41.468,9.647c0,3.184-.011,6.232.021,9.279a1.086,1.086,0,0,0,.455.772,18.084,18.084,0,0,0,2.671,1.491,38.3,38.3,0,0,0,11.644,2.514,48.035,48.035,0,0,0,19.17-2,26.924,26.924,0,0,0,4.2-2.02,1.386,1.386,0,0,0,.526-1.039c.042-2.779.024-5.558.021-8.337,0-.2-.03-.4-.05-.635-6.136,3.1-12.676,3.859-19.318,3.858S-861.686,2519.248-867.847,2516.132Zm0-12.959v.889c0,2.455.075,4.913-.033,7.364a2,2,0,0,0,1.344,2.2,52.831,52.831,0,0,0,6.033,2.242,48.462,48.462,0,0,0,14.524,1.333,42.56,42.56,0,0,0,12.147-2.083,26.492,26.492,0,0,0,4.121-2.006,1.494,1.494,0,0,0,.548-1.121c.047-2.7.026-5.4.024-8.093,0-.206-.02-.411-.03-.585-1.388.646-2.706,1.386-4.109,1.89a45.9,45.9,0,0,1-18.167,2.3,37.661,37.661,0,0,1-14.274-3.142C-866.415,2504.028-867.068,2503.609-867.847,2503.173Zm19.28-10.091a43.9,43.9,0,0,0,13.755-1.978,12.523,12.523,0,0,0,4.675-2.483c1.319-1.208,1.318-2.279.005-3.5a12.016,12.016,0,0,0-4.519-2.435,45.017,45.017,0,0,0-16.2-1.972,40.429,40.429,0,0,0-11.509,1.978,11.944,11.944,0,0,0-4.57,2.5c-1.2,1.146-1.19,2.183-.013,3.333a2.968,2.968,0,0,0,.681.566,35.461,35.461,0,0,0,4.13,1.986A41.576,41.576,0,0,0-848.567,2493.082Zm-19.28-1.613c0,2.087.083,4.109-.027,6.12a3.622,3.622,0,0,0,1.831,3.432,18.99,18.99,0,0,0,6.42,2.567,49.409,49.409,0,0,0,16.643.955,32.366,32.366,0,0,0,9.566-2.239,16.926,16.926,0,0,0,3.3-2,2.356,2.356,0,0,0,.917-1.539c.1-2.412.042-4.83.042-7.209-1.45.669-2.821,1.423-4.274,1.949a42.488,42.488,0,0,1-14.71,2.313C-854.969,2495.8-861.655,2495.055-867.847,2491.469Z" transform="translate(2110.726 -1832.182)"/>
    <path id="Trazado_189985" data-name="Trazado 189985" d="M-867.847,2516.132c6.161,3.116,12.7,3.884,19.339,3.886s13.182-.761,19.318-3.858c.02.24.05.438.05.635,0,2.779.021,5.558-.021,8.337a1.386,1.386,0,0,1-.526,1.039,26.924,26.924,0,0,1-4.2,2.02,48.035,48.035,0,0,1-19.17,2,38.3,38.3,0,0,1-11.644-2.514,18.084,18.084,0,0,1-2.671-1.491,1.086,1.086,0,0,1-.455-.772C-867.858,2522.364-867.847,2519.316-867.847,2516.132Z" transform="translate(2110.726 -1832.182)" fill="#084a93"/>
    <path id="Trazado_189986" data-name="Trazado 189986" d="M-867.847,2503.173c.779.436,1.432.855,2.128,1.182a37.661,37.661,0,0,0,14.274,3.142,45.9,45.9,0,0,0,18.167-2.3c1.4-.5,2.721-1.244,4.109-1.89.01.174.03.379.03.585,0,2.7.023,5.4-.024,8.093a1.494,1.494,0,0,1-.548,1.121,26.492,26.492,0,0,1-4.121,2.006,42.56,42.56,0,0,1-12.147,2.083,48.462,48.462,0,0,1-14.524-1.333,52.831,52.831,0,0,1-6.033-2.242,2,2,0,0,1-1.344-2.2c.108-2.451.033-4.909.033-7.364Z" transform="translate(2110.726 -1832.182)" fill="#084a93"/>
    <path id="Trazado_189987" data-name="Trazado 189987" d="M-848.567,2493.082a41.576,41.576,0,0,1-13.564-2,35.461,35.461,0,0,1-4.13-1.986,2.968,2.968,0,0,1-.681-.566c-1.177-1.15-1.183-2.187.013-3.333a11.944,11.944,0,0,1,4.57-2.5,40.429,40.429,0,0,1,11.509-1.978,45.017,45.017,0,0,1,16.2,1.972,12.016,12.016,0,0,1,4.519,2.435c1.313,1.217,1.314,2.288-.005,3.5a12.523,12.523,0,0,1-4.675,2.483A43.9,43.9,0,0,1-848.567,2493.082Z" transform="translate(2110.726 -1832.182)" fill="#084a93"/>
    <path id="Trazado_189988" data-name="Trazado 189988" d="M-867.847,2491.469c6.192,3.586,12.878,4.331,19.7,4.353a42.488,42.488,0,0,0,14.71-2.313c1.453-.526,2.824-1.28,4.274-1.949,0,2.379.055,4.8-.042,7.209a2.356,2.356,0,0,1-.917,1.539,16.926,16.926,0,0,1-3.3,2,32.366,32.366,0,0,1-9.566,2.239,49.409,49.409,0,0,1-16.643-.955,18.99,18.99,0,0,1-6.42-2.567,3.622,3.622,0,0,1-1.831-3.432C-867.764,2495.578-867.847,2493.556-867.847,2491.469Z" transform="translate(2110.726 -1832.182)" fill="#084a93"/>
    <path id="Trazado_189989" data-name="Trazado 189989" d="M-981.83,2572.044v-11.773a22.266,22.266,0,0,1,.765-2.479c1.779-4.073,3.637-8.113,5.393-12.2a4.511,4.511,0,0,1,3-2.926c9.416-.264,32.344-.264,42.573,0a4.513,4.513,0,0,1,3,2.929c1.738,4.053,3.559,8.071,5.36,12.1a8.871,8.871,0,0,1,.8,3.683q-.008,4.932,0,9.865a4.008,4.008,0,0,1-.673,2.3.6.6,0,0,0-.016.547,4.087,4.087,0,0,1,.69,2.411q-.02,4.458,0,8.915a4.1,4.1,0,0,1-.685,2.413.6.6,0,0,0,.006.547,4.052,4.052,0,0,1,.679,2.355c-.012,3.012,0,6.023-.007,9.034a4.485,4.485,0,0,1-.057.828,3.537,3.537,0,0,1-3.564,2.962q-26.835.008-53.668,0c-.04,0-.08,0-.119,0a3.43,3.43,0,0,1-2.846-1.576,9.3,9.3,0,0,1-.631-1.4v-10.7c.248-.527.5-1.049.735-1.582a.563.563,0,0,0,0-.4c-.231-.533-.487-1.056-.735-1.582v-10.7c.248-.526.5-1.048.735-1.582a.563.563,0,0,0,0-.4C-981.326,2573.092-981.582,2572.57-981.83,2572.044Zm3.126-13.711h54.617c-.068-.173-.112-.3-.166-.424q-2.649-5.966-5.292-11.934a1.471,1.471,0,0,0-1.543-.935q-20.3.018-40.595,0a1.537,1.537,0,0,0-1.593,1.043c-1.475,3.371-2.983,6.727-4.477,10.089C-978.065,2556.872-978.371,2557.575-978.7,2558.333Zm-.715,2.429c-.012.248-.031.442-.031.636q0,4.9,0,9.808c0,1.008.434,1.431,1.463,1.431q26.6,0,53.2,0c1.049,0,1.466-.425,1.467-1.488q0-4.875,0-9.748c0-.21-.02-.419-.031-.639Zm28.043,26.147h26.508c1.145,0,1.546-.4,1.546-1.528q0-4.4,0-8.8c0-1.175-.392-1.566-1.568-1.566h-53.016c-1.145,0-1.545.4-1.546,1.528q0,4.368,0,8.737c0,1.258.369,1.626,1.626,1.627Zm-.075,14.27h26.568c1.172,0,1.561-.393,1.562-1.573q0-4.4,0-8.8c0-1.109-.4-1.521-1.492-1.521H-977.95c-1.091,0-1.5.413-1.5,1.512q0,4.368,0,8.737c0,1.289.359,1.642,1.671,1.642Z" transform="translate(2110.726 -1832.182)"/>
    <path id="Trazado_189990" data-name="Trazado 189990" d="M-978.7,2558.333c.333-.758.639-1.461.951-2.163,1.494-3.362,3-6.718,4.477-10.089a1.537,1.537,0,0,1,1.593-1.043q20.3.022,40.595,0a1.471,1.471,0,0,1,1.543.935q2.631,5.973,5.292,11.934c.054.123.1.251.166.424Z" transform="translate(2110.726 -1832.182)" fill="#b9ddfc"/>
    <path id="Trazado_189991" data-name="Trazado 189991" d="M-979.419,2560.762h56.065c.011.22.031.429.031.639q0,4.874,0,9.748c0,1.063-.418,1.488-1.467,1.488q-26.6,0-53.2,0c-1.029,0-1.462-.423-1.463-1.431q0-4.905,0-9.808C-979.45,2561.2-979.431,2561.01-979.419,2560.762Zm51.339,5.952a3.577,3.577,0,0,0-3.529-3.588,3.574,3.574,0,0,0-3.6,3.513,3.577,3.577,0,0,0,3.557,3.619A3.58,3.58,0,0,0-928.08,2566.714Zm-43.049-1.211c-.751,0-1.5-.008-2.252,0a1.2,1.2,0,0,0-1.309,1.158,1.2,1.2,0,0,0,1.312,1.214q2.253.015,4.505,0a1.2,1.2,0,0,0,1.309-1.158,1.2,1.2,0,0,0-1.313-1.214C-969.627,2565.5-970.378,2565.5-971.129,2565.5Zm9.514,0c-.75,0-1.5-.008-2.252,0a1.2,1.2,0,0,0-1.31,1.157,1.2,1.2,0,0,0,1.312,1.215q2.251.015,4.5,0a1.2,1.2,0,0,0,1.31-1.157,1.2,1.2,0,0,0-1.311-1.215C-960.113,2565.5-960.864,2565.5-961.615,2565.5Zm8.321,1.191a1.2,1.2,0,0,0-1.153-1.187,1.2,1.2,0,0,0-1.216,1.182,1.2,1.2,0,0,0,1.152,1.188A1.2,1.2,0,0,0-953.294,2566.694Z" transform="translate(2110.726 -1832.182)" fill="#084a93"/>
    <path id="Trazado_189992" data-name="Trazado 189992" d="M-951.376,2586.909h-26.449c-1.257,0-1.626-.369-1.626-1.627q0-4.368,0-8.737c0-1.133.4-1.528,1.546-1.528h53.016c1.176,0,1.567.391,1.568,1.566q0,4.4,0,8.8c0,1.133-.4,1.528-1.546,1.528Zm23.3-5.959a3.575,3.575,0,0,0-3.563-3.553,3.572,3.572,0,0,0-3.568,3.547,3.575,3.575,0,0,0,3.592,3.584A3.579,3.579,0,0,0-928.08,2580.95Zm-43.008-1.176c-.771,0-1.541-.009-2.312,0a1.2,1.2,0,0,0-1.29,1.177,1.189,1.189,0,0,0,1.271,1.194q2.281.019,4.564,0a1.2,1.2,0,0,0,1.291-1.176,1.2,1.2,0,0,0-1.272-1.195C-969.586,2579.764-970.337,2579.774-971.088,2579.774Zm9.432,2.378c.77,0,1.541.009,2.311,0a1.2,1.2,0,0,0,1.295-1.174,1.191,1.191,0,0,0-1.269-1.2q-2.282-.02-4.564,0a1.2,1.2,0,0,0-1.294,1.172,1.209,1.209,0,0,0,1.328,1.2C-963.118,2582.159-962.387,2582.152-961.656,2582.152Zm5.993-1.236a1.2,1.2,0,0,0,1.167,1.231,1.2,1.2,0,0,0,1.2-1.138,1.2,1.2,0,0,0-1.168-1.231A1.2,1.2,0,0,0-955.663,2580.916Z" transform="translate(2110.726 -1832.182)" fill="#084a93"/>
    <path id="Trazado_189993" data-name="Trazado 189993" d="M-951.451,2601.179H-977.78c-1.312,0-1.671-.353-1.671-1.642q0-4.368,0-8.737c0-1.1.41-1.512,1.5-1.512h53.136c1.089,0,1.492.412,1.492,1.521q0,4.4,0,8.8c0,1.18-.39,1.573-1.562,1.573Zm23.371-5.952a3.575,3.575,0,0,0-3.557-3.56,3.572,3.572,0,0,0-3.574,3.541,3.577,3.577,0,0,0,3.585,3.591A3.58,3.58,0,0,0-928.08,2595.227Zm-43.046,1.2c.751,0,1.5.008,2.252,0a1.205,1.205,0,0,0,1.31-1.159,1.2,1.2,0,0,0-1.312-1.214q-2.253-.015-4.505,0a1.2,1.2,0,0,0-1.309,1.157,1.206,1.206,0,0,0,1.312,1.216C-972.628,2596.43-971.877,2596.422-971.126,2596.422Zm9.571-2.378c-.771,0-1.542-.008-2.312,0a1.2,1.2,0,0,0-1.31,1.158,1.2,1.2,0,0,0,1.312,1.215q2.251.015,4.5,0a1.2,1.2,0,0,0,1.31-1.158,1.206,1.206,0,0,0-1.311-1.215C-960.093,2594.036-960.824,2594.044-961.555,2594.044Zm8.261,1.185a1.2,1.2,0,0,0-1.159-1.181,1.2,1.2,0,0,0-1.21,1.188,1.2,1.2,0,0,0,1.159,1.182A1.2,1.2,0,0,0-953.294,2595.229Z" transform="translate(2110.726 -1832.182)" fill="#084a93"/>
    <path id="Trazado_189994" data-name="Trazado 189994" d="M-928.08,2566.714a3.58,3.58,0,0,1-3.574,3.544,3.577,3.577,0,0,1-3.557-3.619,3.574,3.574,0,0,1,3.6-3.513A3.577,3.577,0,0,1-928.08,2566.714Zm-3.544-1.207a1.2,1.2,0,0,0-1.206,1.133,1.2,1.2,0,0,0,1.162,1.237,1.2,1.2,0,0,0,1.207-1.193A1.2,1.2,0,0,0-931.624,2565.507Z" transform="translate(2110.726 -1832.182)"/>
    <path id="Trazado_189995" data-name="Trazado 189995" d="M-971.129,2565.5c.751,0,1.5-.008,2.252,0a1.2,1.2,0,0,1,1.313,1.214,1.2,1.2,0,0,1-1.309,1.158q-2.253.015-4.505,0a1.2,1.2,0,0,1-1.312-1.214,1.2,1.2,0,0,1,1.309-1.158C-972.631,2565.5-971.88,2565.5-971.129,2565.5Z" transform="translate(2110.726 -1832.182)"/>
    <path id="Trazado_189996" data-name="Trazado 189996" d="M-961.615,2565.5c.751,0,1.5-.008,2.253,0a1.2,1.2,0,0,1,1.311,1.215,1.2,1.2,0,0,1-1.31,1.157q-2.251.015-4.5,0a1.2,1.2,0,0,1-1.312-1.215,1.2,1.2,0,0,1,1.31-1.157C-963.116,2565.5-962.365,2565.5-961.615,2565.5Z" transform="translate(2110.726 -1832.182)"/>
    <path id="Trazado_189997" data-name="Trazado 189997" d="M-953.294,2566.694a1.2,1.2,0,0,1-1.217,1.183,1.2,1.2,0,0,1-1.152-1.188,1.2,1.2,0,0,1,1.216-1.182A1.2,1.2,0,0,1-953.294,2566.694Z" transform="translate(2110.726 -1832.182)"/>
    <path id="Trazado_189998" data-name="Trazado 189998" d="M-928.08,2580.95a3.579,3.579,0,0,1-3.539,3.578,3.575,3.575,0,0,1-3.592-3.584,3.572,3.572,0,0,1,3.568-3.547A3.575,3.575,0,0,1-928.08,2580.95Zm-3.544-1.172a1.2,1.2,0,0,0-1.206,1.133,1.2,1.2,0,0,0,1.162,1.236,1.2,1.2,0,0,0,1.207-1.192A1.2,1.2,0,0,0-931.624,2579.778Z" transform="translate(2110.726 -1832.182)"/>
    <path id="Trazado_189999" data-name="Trazado 189999" d="M-971.088,2579.774c.751,0,1.5-.01,2.252,0a1.2,1.2,0,0,1,1.272,1.195,1.2,1.2,0,0,1-1.291,1.176q-2.281.016-4.564,0a1.189,1.189,0,0,1-1.271-1.194,1.2,1.2,0,0,1,1.29-1.177C-972.629,2579.765-971.859,2579.774-971.088,2579.774Z" transform="translate(2110.726 -1832.182)"/>
    <path id="Trazado_190000" data-name="Trazado 190000" d="M-961.656,2582.152c-.731,0-1.462.007-2.193,0a1.209,1.209,0,0,1-1.328-1.2,1.2,1.2,0,0,1,1.294-1.172q2.281-.015,4.564,0a1.191,1.191,0,0,1,1.269,1.2,1.2,1.2,0,0,1-1.295,1.174C-960.115,2582.161-960.886,2582.152-961.656,2582.152Z" transform="translate(2110.726 -1832.182)"/>
    <path id="Trazado_190001" data-name="Trazado 190001" d="M-955.663,2580.916a1.2,1.2,0,0,1,1.2-1.138,1.2,1.2,0,0,1,1.168,1.231,1.2,1.2,0,0,1-1.2,1.138A1.2,1.2,0,0,1-955.663,2580.916Z" transform="translate(2110.726 -1832.182)"/>
    <path id="Trazado_190002" data-name="Trazado 190002" d="M-928.08,2595.227a3.58,3.58,0,0,1-3.546,3.572,3.577,3.577,0,0,1-3.585-3.591,3.572,3.572,0,0,1,3.574-3.541A3.575,3.575,0,0,1-928.08,2595.227Zm-3.613,1.191a1.2,1.2,0,0,0,1.23-1.109,1.2,1.2,0,0,0-1.136-1.261,1.2,1.2,0,0,0-1.23,1.108A1.2,1.2,0,0,0-931.693,2596.418Z" transform="translate(2110.726 -1832.182)"/>
    <path id="Trazado_190003" data-name="Trazado 190003" d="M-971.126,2596.422c-.751,0-1.5.008-2.252,0a1.206,1.206,0,0,1-1.312-1.216,1.2,1.2,0,0,1,1.309-1.157q2.253-.014,4.505,0a1.2,1.2,0,0,1,1.312,1.214,1.205,1.205,0,0,1-1.31,1.159C-969.624,2596.43-970.375,2596.422-971.126,2596.422Z" transform="translate(2110.726 -1832.182)"/>
    <path id="Trazado_190004" data-name="Trazado 190004" d="M-961.555,2594.044c.731,0,1.462-.008,2.193,0a1.206,1.206,0,0,1,1.311,1.215,1.2,1.2,0,0,1-1.31,1.158q-2.251.015-4.5,0a1.2,1.2,0,0,1-1.312-1.215,1.2,1.2,0,0,1,1.31-1.158C-963.1,2594.036-962.326,2594.044-961.555,2594.044Z" transform="translate(2110.726 -1832.182)"/>
    <path id="Trazado_190005" data-name="Trazado 190005" d="M-953.294,2595.229a1.2,1.2,0,0,1-1.21,1.189,1.2,1.2,0,0,1-1.159-1.182,1.2,1.2,0,0,1,1.21-1.188A1.2,1.2,0,0,1-953.294,2595.229Z" transform="translate(2110.726 -1832.182)"/>
    <path id="Trazado_190006" data-name="Trazado 190006" d="M-931.624,2565.507a1.2,1.2,0,0,1,1.163,1.177,1.2,1.2,0,0,1-1.207,1.193,1.2,1.2,0,0,1-1.162-1.237A1.2,1.2,0,0,1-931.624,2565.507Z" transform="translate(2110.726 -1832.182)" fill="#ffb30b"/>
    <path id="Trazado_190007" data-name="Trazado 190007" d="M-931.624,2579.778a1.2,1.2,0,0,1,1.163,1.177,1.2,1.2,0,0,1-1.207,1.192,1.2,1.2,0,0,1-1.162-1.236A1.2,1.2,0,0,1-931.624,2579.778Z" transform="translate(2110.726 -1832.182)" fill="#ffb30b"/>
    <path id="Trazado_190008" data-name="Trazado 190008" d="M-931.693,2596.418a1.2,1.2,0,0,1-1.136-1.262,1.2,1.2,0,0,1,1.23-1.108,1.2,1.2,0,0,1,1.136,1.261A1.2,1.2,0,0,1-931.693,2596.418Z" transform="translate(2110.726 -1832.182)" fill="#ffb30b"/>
    <path id="Trazado_190009" data-name="Trazado 190009" d="M-932.739,2428.52a6.962,6.962,0,0,1,4.235,2.336,6.46,6.46,0,0,1,1.47,3.852c.017.3.015.6.015.9q0,30.113.014,60.226a4.128,4.128,0,0,1-2.278,4.128.782.782,0,0,0-.282.592c-.028,1.1-.006,2.2-.016,3.3s-.469,1.575-1.548,1.575q-20.241.007-40.483,0c-1.078,0-1.539-.481-1.548-1.575-.01-1.076.024-2.154-.022-3.228a1.012,1.012,0,0,0-.413-.73,3.889,3.889,0,0,1-2.128-3.615q0-30.564-.007-61.128a6.456,6.456,0,0,1,5.523-6.548.822.822,0,0,0,.2-.09Zm-40.423,36.956V2495.9c0,1.466.4,1.863,1.877,1.863h39.814c1.51,0,1.892-.39,1.892-1.924v-60.311c0-2.938-1.5-4.443-4.431-4.443h-34.706c-2.939,0-4.446,1.5-4.446,4.428Q-973.164,2450.492-973.162,2465.476Zm40.987,34.894h-38.368v2.471h38.368Z" transform="translate(2110.726 -1832.182)"/>
    <path id="Trazado_190010" data-name="Trazado 190010" d="M-973.162,2465.476q0-14.984,0-29.968c0-2.927,1.507-4.428,4.446-4.428h34.706c2.93,0,4.431,1.5,4.431,4.443v60.311c0,1.534-.382,1.924-1.892,1.924h-39.814c-1.478,0-1.877-.4-1.877-1.863Zm21.789.216H-962.26q-3.228,0-6.457,0c-1.5,0-1.885.384-1.886,1.85,0,2.277-.006,4.555,0,6.831,0,1.078.475,1.55,1.551,1.586.45.016.9,0,1.352,0h33.711c1.429,0,1.846-.414,1.848-1.82q0-3.228,0-6.456c0-1.645-.342-1.994-1.967-1.994Zm.009-25.621q-8.785,0-17.569,0c-1.235,0-1.666.437-1.669,1.674q-.006,3.453,0,6.906c0,1.192.449,1.654,1.619,1.654q17.605.006,35.211,0c1.179,0,1.628-.457,1.631-1.643q.009-3.378,0-6.756c0-1.448-.381-1.836-1.808-1.837Zm-.088,23.053q8.784,0,17.569,0c1.337,0,1.743-.416,1.744-1.753q0-3.416,0-6.831c0-1.181-.463-1.667-1.619-1.668q-17.605-.008-35.212,0c-1.166,0-1.628.479-1.631,1.655-.006,2.177,0,4.354,0,6.531,0,1.757.3,2.067,2.033,2.067Zm7.758,23.067a7.692,7.692,0,0,0-7.7-7.658,7.685,7.685,0,0,0-7.656,7.7,7.684,7.684,0,0,0,7.7,7.655A7.683,7.683,0,0,0-943.694,2486.191Zm-14.153-48.716a4.2,4.2,0,0,0,.051-.44c0-.675.021-1.35-.007-2.024a1.265,1.265,0,0,0-1.369-1.361c-2.5-.026-5-.02-7.5,0a1.167,1.167,0,0,0-1.295,1.015c-.088.926-.022,1.866-.022,2.794h2.462l.086-1.2h5.044l.089,1.219Zm21.848,0c0-.867.024-1.663-.007-2.457a1.261,1.261,0,0,0-1.362-1.368c-2.5-.027-4.995-.021-7.493,0a1.161,1.161,0,0,0-1.3,1c-.087.925-.022,1.866-.022,2.808h2.447l.094-1.211h5.042l.091,1.225Z" transform="translate(2110.726 -1832.182)" fill="#b9ddfc"/>
    <path id="Trazado_190011" data-name="Trazado 190011" d="M-932.175,2500.37v2.471h-38.368v-2.471Z" transform="translate(2110.726 -1832.182)" fill="#084a93"/>
    <path id="Trazado_190012" data-name="Trazado 190012" d="M-951.373,2465.692H-934.1c1.625,0,1.967.349,1.967,1.994q0,3.228,0,6.456c0,1.406-.419,1.82-1.848,1.82H-967.7c-.451,0-.9.012-1.352,0-1.076-.036-1.547-.508-1.551-1.586-.009-2.276,0-4.554,0-6.831,0-1.466.388-1.847,1.886-1.85q3.228,0,6.457,0Zm-16.648,7.643h33.28v-5h-33.28Z" transform="translate(2110.726 -1832.182)"/>
    <path id="Trazado_190013" data-name="Trazado 190013" d="M-951.364,2440.071h17.418c1.427,0,1.807.389,1.808,1.837q0,3.378,0,6.756c0,1.186-.452,1.642-1.631,1.643q-17.605,0-35.211,0c-1.17,0-1.617-.462-1.619-1.654q-.009-3.453,0-6.906c0-1.237.434-1.673,1.669-1.674Q-960.149,2440.068-951.364,2440.071ZM-968,2442.647v5.049h33.24v-5.049Z" transform="translate(2110.726 -1832.182)"/>
    <path id="Trazado_190014" data-name="Trazado 190014" d="M-951.452,2463.125H-968.57c-1.729,0-2.033-.31-2.033-2.067,0-2.177,0-4.354,0-6.531,0-1.176.465-1.655,1.631-1.655q17.605-.008,35.212,0c1.156,0,1.616.487,1.619,1.668q.008,3.415,0,6.831c0,1.337-.407,1.752-1.744,1.753Q-942.668,2463.129-951.452,2463.125Zm-16.555-2.626h33.246v-5.026h-33.246Z" transform="translate(2110.726 -1832.182)"/>
    <path id="Trazado_190015" data-name="Trazado 190015" d="M-943.694,2486.191a7.683,7.683,0,0,1-7.658,7.692,7.684,7.684,0,0,1-7.7-7.655,7.685,7.685,0,0,1,7.656-7.7A7.692,7.692,0,0,1-943.694,2486.191Zm-2.563,0a5.126,5.126,0,0,0-5.133-5.093,5.126,5.126,0,0,0-5.094,5.131,5.126,5.126,0,0,0,5.133,5.093A5.125,5.125,0,0,0-946.257,2486.189Z" transform="translate(2110.726 -1832.182)"/>
    <path id="Trazado_190016" data-name="Trazado 190016" d="M-957.847,2437.475H-960.3l-.089-1.219h-5.044l-.086,1.2h-2.462c0-.928-.066-1.868.022-2.794a1.167,1.167,0,0,1,1.295-1.015c2.5-.02,5-.026,7.5,0a1.265,1.265,0,0,1,1.369,1.361c.028.674.01,1.349.007,2.024A4.2,4.2,0,0,1-957.847,2437.475Z" transform="translate(2110.726 -1832.182)"/>
    <path id="Trazado_190017" data-name="Trazado 190017" d="M-936,2437.476h-2.51l-.091-1.225h-5.042l-.094,1.211h-2.447c0-.942-.065-1.883.022-2.808a1.161,1.161,0,0,1,1.3-1c2.5-.02,5-.026,7.493,0a1.261,1.261,0,0,1,1.362,1.368C-935.975,2435.813-936,2436.609-936,2437.476Z" transform="translate(2110.726 -1832.182)"/>
    <path id="Trazado_190018" data-name="Trazado 190018" d="M-968.021,2473.335v-5h33.28v5Z" transform="translate(2110.726 -1832.182)" fill="#084a93"/>
    <path id="Trazado_190019" data-name="Trazado 190019" d="M-968,2442.647h33.24v5.049H-968Z" transform="translate(2110.726 -1832.182)" fill="#084a93"/>
    <path id="Trazado_190020" data-name="Trazado 190020" d="M-968.007,2460.5v-5.026h33.246v5.026Z" transform="translate(2110.726 -1832.182)" fill="#084a93"/>
    <path id="Trazado_190021" data-name="Trazado 190021" d="M-946.257,2486.189a5.125,5.125,0,0,1-5.094,5.131,5.126,5.126,0,0,1-5.133-5.093,5.126,5.126,0,0,1,5.094-5.131A5.126,5.126,0,0,1-946.257,2486.189Z" transform="translate(2110.726 -1832.182)" fill="#ffb30b"/>
    <path id="Trazado_190022" data-name="Trazado 190022" d="M-737.808,2615.787c0,6.149-.042,12.3.023,18.447a3.912,3.912,0,0,1-4.057,4.056c-8.6-.032-17.207-.011-25.81-.014a3.753,3.753,0,0,1-4.047-4.034q0-18.565,0-37.129a3.713,3.713,0,0,1,2.966-3.807,5.126,5.126,0,0,1,1.072-.087q12.906-.007,25.811,0a3.745,3.745,0,0,1,3.978,3.049,5.248,5.248,0,0,1,.061.98Q-737.806,2606.517-737.808,2615.787Zm-31.74-.046q0,9.268,0,18.538a1.633,1.633,0,0,0,1.877,1.856q12.927,0,25.854.01a1.746,1.746,0,0,0,1.876-1.883q-.039-18.515,0-37.029a1.741,1.741,0,0,0-1.869-1.889q-12.949.024-25.9.01a1.621,1.621,0,0,0-1.837,1.848Q-769.548,2606.472-769.548,2615.741Z" transform="translate(2110.726 -1832.182)"/>
    <path id="Trazado_190023" data-name="Trazado 190023" d="M-769.548,2615.741q0-9.27,0-18.539a1.621,1.621,0,0,1,1.837-1.848q12.951,0,25.9-.01a1.741,1.741,0,0,1,1.869,1.889q-.038,18.515,0,37.029a1.746,1.746,0,0,1-1.876,1.883q-12.927-.024-25.854-.01a1.633,1.633,0,0,1-1.877-1.856Q-769.548,2625.009-769.548,2615.741Zm.835-2.6q0,7.837,0,15.675c0,1.027.352,1.386,1.379,1.387q12.574,0,25.15,0c1.048,0,1.4-.359,1.4-1.416q0-15.629,0-31.256c0-1.061-.342-1.4-1.407-1.405h-25.1c-1.094,0-1.42.332-1.42,1.434Q-768.714,2605.351-768.713,2613.141Zm14,17.558a2.51,2.51,0,0,0-2.534,2.521,2.538,2.538,0,0,0,2.541,2.528,2.549,2.549,0,0,0,2.517-2.511A2.521,2.521,0,0,0-754.71,2630.7Z" transform="translate(2110.726 -1832.182)" fill="#084a93"/>
    <path id="Trazado_190024" data-name="Trazado 190024" d="M-768.713,2613.141q0-7.79,0-15.581c0-1.1.326-1.434,1.42-1.434h25.1c1.065,0,1.407.344,1.407,1.405q0,15.628,0,31.256c0,1.057-.352,1.416-1.4,1.416q-12.576,0-25.15,0c-1.027,0-1.379-.36-1.379-1.387Q-768.714,2620.979-768.713,2613.141Zm25.794,14.892v-.468q0-14.406.011-28.811c0-.45-.17-.5-.547-.5q-11.283.013-22.565.007h-.523v29.77Z" transform="translate(2110.726 -1832.182)"/>
    <path id="Trazado_190025" data-name="Trazado 190025" d="M-754.71,2630.7a2.521,2.521,0,0,1,2.524,2.538,2.549,2.549,0,0,1-2.517,2.511,2.538,2.538,0,0,1-2.541-2.528A2.51,2.51,0,0,1-754.71,2630.7Zm.018,3.054c.161-.265.332-.425.324-.574-.006-.116-.267-.329-.362-.3a.558.558,0,0,0-.335.387C-755.079,2633.379-754.878,2633.522-754.692,2633.753Z" transform="translate(2110.726 -1832.182)"/>
    <path id="Trazado_190026" data-name="Trazado 190026" d="M-742.919,2628.033h-23.624v-29.77h.523q11.283,0,22.565-.007c.377,0,.548.048.547.5q-.021,14.406-.011,28.811Z" transform="translate(2110.726 -1832.182)" fill="#b9ddfc"/>
    <path id="Trazado_190027" data-name="Trazado 190027" d="M-754.692,2633.753c-.186-.231-.387-.374-.373-.49a.558.558,0,0,1,.335-.387c.095-.026.356.187.362.3C-754.36,2633.328-754.531,2633.488-754.692,2633.753Z" transform="translate(2110.726 -1832.182)" fill="#fff"/>
    <g id="Trazado_190028" data-name="Trazado 190028" transform="translate(2110.726 -1832.182)" stroke-miterlimit="10">
      <path d="M -1127.913940429688 2652.569091796875 L -1127.9140625 2652.569091796875 L -1127.914184570312 2652.569091796875 C -1130.288452148438 2652.568359375 -1132.662841796875 2652.568359375 -1135.037231445312 2652.568359375 C -1139.894897460938 2652.568115234375 -1144.91796875 2652.568115234375 -1149.858276367188 2652.56201171875 C -1150.41162109375 2652.560791015625 -1150.916015625 2652.49755859375 -1151.358520507812 2652.374267578125 C -1152.442260742188 2652.071533203125 -1153.35693359375 2651.47314453125 -1154.004150390625 2650.6435546875 C -1154.645263671875 2649.822021484375 -1155.009765625 2648.791259765625 -1155.05810546875 2647.662841796875 C -1155.06298828125 2647.542724609375 -1155.0625 2647.428466796875 -1155.062133789062 2647.32763671875 L -1155.06201171875 2647.25 L -1155.061889648438 2639.5244140625 C -1155.061767578125 2629.343994140625 -1155.061645507812 2618.81689453125 -1155.06396484375 2608.463134765625 C -1155.06396484375 2606.2666015625 -1154.091674804688 2604.61669921875 -1152.252319335938 2603.691650390625 C -1151.896240234375 2603.51318359375 -1151.533081054688 2603.411376953125 -1151.212524414062 2603.321533203125 C -1151.084228515625 2603.28564453125 -1150.963012695312 2603.251708984375 -1150.849731445312 2603.215087890625 L -1150.700073242188 2603.1669921875 L -1150.54296875 2603.1669921875 L -1127.208984375 2603.1669921875 L -1127.097778320312 2603.1669921875 L -1126.9892578125 2603.19140625 C -1126.180786132812 2603.37353515625 -1124.997802734375 2603.732177734375 -1124.06201171875 2604.74072265625 C -1123.140869140625 2605.733154296875 -1122.693603515625 2606.9541015625 -1122.694946289062 2608.47265625 C -1122.697387695312 2615.669921875 -1122.697265625 2622.98828125 -1122.697143554688 2630.06591796875 L -1122.697021484375 2635.31689453125 L -1122.69677734375 2639.31298828125 C -1122.696533203125 2641.97705078125 -1122.696411132812 2644.64111328125 -1122.697021484375 2647.30517578125 C -1122.697021484375 2648.6025390625 -1123.026000976562 2649.666259765625 -1123.702880859375 2650.556884765625 C -1124.7177734375 2651.89208984375 -1126.134521484375 2652.569091796875 -1127.913940429688 2652.569091796875 Z M -1151.654052734375 2647.508056640625 C -1151.587524414062 2648.606689453125 -1150.976806640625 2649.164306640625 -1149.83642578125 2649.1650390625 C -1146.963989257812 2649.16650390625 -1144.090209960938 2649.16796875 -1141.217529296875 2649.16796875 C -1136.06396484375 2649.16796875 -1131.846313476562 2649.163330078125 -1127.944580078125 2649.153076171875 C -1127.5947265625 2649.15234375 -1127.220458984375 2649.073974609375 -1126.943115234375 2648.943359375 C -1126.320434570312 2648.650390625 -1126.128662109375 2648.04736328125 -1126.095092773438 2647.508056640625 C -1131.531127929688 2647.508056640625 -1136.967163085938 2647.508056640625 -1142.403076171875 2647.507080078125 L -1142.42236328125 2647.507080078125 L -1142.442138671875 2647.507080078125 C -1142.638305664062 2647.507080078125 -1142.882446289062 2647.507080078125 -1143.143432617188 2647.469970703125 C -1143.64404296875 2647.400390625 -1144.052124023438 2647.140625 -1144.299194335938 2646.776123046875 C -1144.576538085938 2647.183837890625 -1145.033203125 2647.448974609375 -1145.589721679688 2647.4921875 L -1145.592529296875 2647.492431640625 L -1145.595336914062 2647.492431640625 C -1145.782104492188 2647.505859375 -1145.96142578125 2647.507080078125 -1146.129028320312 2647.507080078125 C -1147.970703125 2647.508056640625 -1149.81201171875 2647.508056640625 -1151.654052734375 2647.508056640625 Z M -1151.635986328125 2644.10009765625 C -1149.790161132812 2644.10009765625 -1147.9443359375 2644.10009765625 -1146.098510742188 2644.10107421875 L -1146.095825195312 2644.10107421875 L -1146.093139648438 2644.10107421875 L -1146.04541015625 2644.101318359375 C -1145.864624023438 2644.10205078125 -1145.639526367188 2644.102783203125 -1145.395874023438 2644.151611328125 C -1144.875854492188 2644.256103515625 -1144.468872070312 2644.544189453125 -1144.233520507812 2644.942138671875 C -1144.039794921875 2644.6591796875 -1143.812866210938 2644.468017578125 -1143.714721679688 2644.392333984375 C -1143.377319335938 2644.129638671875 -1142.984619140625 2644.09912109375 -1142.71875 2644.09912109375 C -1142.6689453125 2644.09912109375 -1142.618774414062 2644.100341796875 -1142.569580078125 2644.101318359375 C -1142.538208007812 2644.102294921875 -1142.507446289062 2644.10302734375 -1142.47802734375 2644.10302734375 C -1138.651489257812 2644.100341796875 -1134.836791992188 2644.10009765625 -1131.284545898438 2644.10009765625 L -1128.479248046875 2644.10009765625 L -1126.133056640625 2644.10009765625 L -1126.133056640625 2611.822265625 C -1126.194946289062 2611.822509765625 -1126.2568359375 2611.822509765625 -1126.318725585938 2611.822509765625 C -1126.708740234375 2611.82275390625 -1127.096923828125 2611.822998046875 -1127.484008789062 2611.822998046875 C -1128.246459960938 2611.822998046875 -1128.86279296875 2611.822021484375 -1129.423461914062 2611.820068359375 C -1130.179321289062 2611.8173828125 -1130.78466796875 2611.495849609375 -1131.098999023438 2610.979248046875 C -1131.290161132812 2611.259765625 -1131.513549804688 2611.450439453125 -1131.610229492188 2611.52587890625 C -1131.992065429688 2611.822998046875 -1132.442016601562 2611.822998046875 -1132.611450195312 2611.822998046875 C -1132.661376953125 2611.822998046875 -1132.711669921875 2611.822021484375 -1132.760986328125 2611.82080078125 C -1132.79248046875 2611.820068359375 -1132.823364257812 2611.819091796875 -1132.85302734375 2611.819091796875 C -1137.226684570312 2611.82177734375 -1141.587890625 2611.822021484375 -1145.649169921875 2611.822021484375 L -1148.856811523438 2611.822021484375 L -1151.635986328125 2611.822021484375 L -1151.635986328125 2644.10009765625 Z M -1132.850952148438 2608.4130859375 C -1132.642456054688 2608.4130859375 -1132.419311523438 2608.416015625 -1132.18408203125 2608.45068359375 C -1131.685791015625 2608.5234375 -1131.280029296875 2608.783203125 -1131.034301757812 2609.145751953125 C -1130.98681640625 2609.079345703125 -1130.933959960938 2609.016357421875 -1130.876098632812 2608.957275390625 C -1130.635009765625 2608.711669921875 -1130.190185546875 2608.41796875 -1129.440185546875 2608.4140625 C -1128.864501953125 2608.411376953125 -1128.30029296875 2608.410888671875 -1127.873168945312 2608.410888671875 L -1127.138305664062 2608.4111328125 L -1126.404541015625 2608.411376953125 C -1126.302856445312 2608.411376953125 -1126.201293945312 2608.411376953125 -1126.099731445312 2608.411376953125 C -1126.100219726562 2608.380126953125 -1126.100952148438 2608.348876953125 -1126.101684570312 2608.317626953125 C -1126.12890625 2607.19287109375 -1126.752075195312 2606.5732421875 -1127.856201171875 2606.572021484375 C -1131.241088867188 2606.568359375 -1134.267333984375 2606.56640625 -1137.107666015625 2606.56640625 C -1141.727172851562 2606.56640625 -1145.9072265625 2606.5712890625 -1149.886596679688 2606.5810546875 C -1150.202880859375 2606.581787109375 -1150.539916992188 2606.654052734375 -1150.788452148438 2606.774658203125 C -1151.087890625 2606.91943359375 -1151.6552734375 2607.19384765625 -1151.66552734375 2608.412109375 C -1145.420654296875 2608.412109375 -1139.175659179688 2608.412109375 -1132.929931640625 2608.4130859375 L -1132.891235351562 2608.4130859375 L -1132.850952148438 2608.4130859375 Z" stroke="none"/>
      <path d="M -1150.54296875 2604.1669921875 C -1150.964965820312 2604.302978515625 -1151.411987304688 2604.388916015625 -1151.802978515625 2604.5849609375 C -1153.387939453125 2605.382080078125 -1154.06396484375 2606.72412109375 -1154.06396484375 2608.462890625 C -1154.06103515625 2621.39208984375 -1154.06201171875 2634.321044921875 -1154.06201171875 2647.25 C -1154.06201171875 2647.373046875 -1154.06396484375 2647.4970703125 -1154.058959960938 2647.6201171875 C -1153.97900390625 2649.488037109375 -1152.880004882812 2650.910888671875 -1151.089965820312 2651.410888671875 C -1150.694946289062 2651.52099609375 -1150.26904296875 2651.56103515625 -1149.857055664062 2651.56201171875 C -1142.54296875 2651.571044921875 -1135.22802734375 2651.56689453125 -1127.913940429688 2651.569091796875 C -1126.51904296875 2651.569091796875 -1125.358032226562 2651.08203125 -1124.4990234375 2649.951904296875 C -1123.904052734375 2649.1689453125 -1123.697021484375 2648.26708984375 -1123.697021484375 2647.304931640625 C -1123.696044921875 2643.30908203125 -1123.697021484375 2639.31298828125 -1123.697021484375 2635.31689453125 C -1123.697021484375 2626.368896484375 -1123.697998046875 2617.419921875 -1123.694946289062 2608.471923828125 C -1123.693969726562 2607.319091796875 -1123.994995117188 2606.282958984375 -1124.795043945312 2605.4208984375 C -1125.449951171875 2604.715087890625 -1126.2939453125 2604.373046875 -1127.208984375 2604.1669921875 L -1150.54296875 2604.1669921875 M -1126.405883789062 2609.411376953125 C -1127.41552734375 2609.411376953125 -1128.425415039062 2609.409423828125 -1129.43505859375 2609.4140625 C -1130.011962890625 2609.4169921875 -1130.340942382812 2609.68505859375 -1130.3349609375 2610.118896484375 C -1130.328979492188 2610.553955078125 -1129.995971679688 2610.818115234375 -1129.420043945312 2610.820068359375 C -1128.002075195312 2610.824951171875 -1126.584106445312 2610.822021484375 -1125.133056640625 2610.822021484375 L -1125.133056640625 2645.10009765625 L -1125.673950195312 2645.10009765625 C -1131.275024414062 2645.10009765625 -1136.875854492188 2645.0986328125 -1142.47802734375 2645.10302734375 C -1142.691162109375 2645.10302734375 -1142.9599609375 2645.072265625 -1143.10400390625 2645.18408203125 C -1143.31005859375 2645.343017578125 -1143.52197265625 2645.60791015625 -1143.552978515625 2645.85107421875 C -1143.593017578125 2646.169921875 -1143.362060546875 2646.429931640625 -1143.003051757812 2646.47998046875 C -1142.80517578125 2646.508056640625 -1142.60498046875 2646.505859375 -1142.402954101562 2646.507080078125 C -1136.848022460938 2646.508056640625 -1131.29296875 2646.508056640625 -1125.738037109375 2646.508056640625 L -1125.162963867188 2646.508056640625 C -1124.885986328125 2648.06005859375 -1125.373046875 2649.31005859375 -1126.516967773438 2649.847900390625 C -1126.946044921875 2650.050048828125 -1127.463989257812 2650.152099609375 -1127.942016601562 2650.153076171875 C -1135.239990234375 2650.171875 -1142.538818359375 2650.168701171875 -1149.837036132812 2650.1650390625 C -1151.588012695312 2650.1640625 -1152.650024414062 2649.0849609375 -1152.660034179688 2647.325927734375 C -1152.661010742188 2647.0810546875 -1152.660034179688 2646.8349609375 -1152.660034179688 2646.508056640625 L -1152.100952148438 2646.508056640625 C -1150.109985351562 2646.508056640625 -1148.119995117188 2646.508056640625 -1146.129028320312 2646.507080078125 C -1145.974975585938 2646.507080078125 -1145.819946289062 2646.506103515625 -1145.6669921875 2646.4951171875 C -1145.266967773438 2646.464111328125 -1145.032958984375 2646.22998046875 -1145.009033203125 2645.846923828125 C -1144.984985351562 2645.458984375 -1145.2099609375 2645.208984375 -1145.593017578125 2645.132080078125 C -1145.756958007812 2645.09912109375 -1145.930053710938 2645.10205078125 -1146.098999023438 2645.10107421875 C -1148.10498046875 2645.10009765625 -1150.110961914062 2645.10009765625 -1152.116943359375 2645.10009765625 L -1152.635986328125 2645.10009765625 L -1152.635986328125 2610.822021484375 L -1152.06396484375 2610.822021484375 C -1145.660034179688 2610.82177734375 -1139.255981445312 2610.8232421875 -1132.85302734375 2610.819091796875 C -1132.638793945312 2610.819091796875 -1132.369995117188 2610.849853515625 -1132.225952148438 2610.738037109375 C -1132.02099609375 2610.577880859375 -1131.81201171875 2610.31298828125 -1131.781005859375 2610.070068359375 C -1131.739013671875 2609.7470703125 -1131.973999023438 2609.491943359375 -1132.329956054688 2609.43994140625 C -1132.526977539062 2609.4111328125 -1132.730346679688 2609.413330078125 -1132.930053710938 2609.4130859375 C -1139.287963867188 2609.412109375 -1145.64501953125 2609.412109375 -1152.001953125 2609.412109375 L -1152.587036132812 2609.412109375 C -1152.866943359375 2607.556884765625 -1152.39697265625 2606.44189453125 -1151.224975585938 2605.875 C -1150.824951171875 2605.680908203125 -1150.337036132812 2605.58203125 -1149.889038085938 2605.5810546875 C -1142.544799804688 2605.562744140625 -1135.199829101562 2605.5634765625 -1127.85498046875 2605.572021484375 C -1126.203979492188 2605.573974609375 -1125.141967773438 2606.64306640625 -1125.10205078125 2608.2919921875 C -1125.093017578125 2608.64306640625 -1125.100952148438 2608.993896484375 -1125.100952148438 2609.386962890625 C -1125.31005859375 2609.39697265625 -1125.474975585938 2609.410888671875 -1125.640014648438 2609.410888671875 C -1125.895385742188 2609.411376953125 -1126.150512695312 2609.411376953125 -1126.405883789062 2609.411376953125 M -1150.857299804688 2602.1669921875 L -1126.986572265625 2602.1669921875 L -1126.769653320312 2602.2158203125 C -1125.831298828125 2602.42724609375 -1124.453857421875 2602.84814453125 -1123.328979492188 2604.060546875 C -1122.243286132812 2605.23046875 -1121.693481445312 2606.71533203125 -1121.694946289062 2608.4736328125 C -1121.697387695312 2615.67041015625 -1121.697265625 2622.9892578125 -1121.697143554688 2630.0673828125 L -1121.69677734375 2639.312744140625 C -1121.696533203125 2641.97705078125 -1121.696411132812 2644.641357421875 -1121.697021484375 2647.305419921875 C -1121.697021484375 2648.80810546875 -1122.10400390625 2650.105712890625 -1122.906616210938 2651.161865234375 C -1124.103637695312 2652.73681640625 -1125.835083007812 2653.569091796875 -1127.913940429688 2653.569091796875 C -1130.28857421875 2653.568359375 -1132.66259765625 2653.568359375 -1135.036743164062 2653.568359375 C -1139.894897460938 2653.568115234375 -1144.918334960938 2653.568115234375 -1149.859497070312 2653.56201171875 C -1150.504028320312 2653.560546875 -1151.097900390625 2653.48486328125 -1151.626953125 2653.33740234375 C -1154.242553710938 2652.60693359375 -1155.939697265625 2650.448974609375 -1156.05712890625 2647.70556640625 C -1156.06298828125 2647.56103515625 -1156.062622070312 2647.43505859375 -1156.062255859375 2647.323974609375 L -1156.06201171875 2647.25 L -1156.061889648438 2639.474853515625 C -1156.061767578125 2629.310791015625 -1156.061645507812 2618.800537109375 -1156.06396484375 2608.46337890625 C -1156.06396484375 2607.2265625 -1155.797119140625 2606.12548828125 -1155.270874023438 2605.190185546875 C -1154.6982421875 2604.17236328125 -1153.833862304688 2603.36767578125 -1152.701538085938 2602.798095703125 C -1152.258544921875 2602.575927734375 -1151.828002929688 2602.45556640625 -1151.482177734375 2602.358642578125 C -1151.363403320312 2602.325439453125 -1151.251220703125 2602.2939453125 -1151.156372070312 2602.263427734375 L -1150.857299804688 2602.1669921875 Z M -1130.46630859375 2607.569580078125 C -1130.841064453125 2607.569091796875 -1131.211669921875 2607.56884765625 -1131.577880859375 2607.568603515625 C -1131.3818359375 2607.63232421875 -1131.197265625 2607.716796875 -1131.026611328125 2607.81884765625 C -1130.8642578125 2607.72412109375 -1130.67822265625 2607.6376953125 -1130.46630859375 2607.569580078125 Z M -1127.483276367188 2612.822998046875 C -1128.246215820312 2612.822998046875 -1128.86376953125 2612.822021484375 -1129.426879882812 2612.820068359375 C -1130.052978515625 2612.81787109375 -1130.616821289062 2612.6572265625 -1131.077514648438 2612.37548828125 C -1131.708984375 2612.822998046875 -1132.383422851562 2612.822998046875 -1132.611572265625 2612.822998046875 C -1132.669555664062 2612.822998046875 -1132.727905273438 2612.82177734375 -1132.78515625 2612.8203125 C -1132.808349609375 2612.81982421875 -1132.831176757812 2612.819091796875 -1132.85302734375 2612.819091796875 C -1137.224853515625 2612.82177734375 -1141.586181640625 2612.822021484375 -1145.647827148438 2612.822021484375 L -1150.635986328125 2612.822021484375 L -1150.635986328125 2643.10009765625 C -1149.123291015625 2643.10009765625 -1147.610717773438 2643.100341796875 -1146.098022460938 2643.10107421875 L -1146.0419921875 2643.101318359375 C -1145.841430664062 2643.10205078125 -1145.538330078125 2643.10302734375 -1145.198852539062 2643.17138671875 C -1144.84814453125 2643.24169921875 -1144.528442382812 2643.369384765625 -1144.248046875 2643.543212890625 C -1143.619995117188 2643.09912109375 -1142.946655273438 2643.09912109375 -1142.71875 2643.09912109375 C -1142.660888671875 2643.09912109375 -1142.6025390625 2643.100341796875 -1142.545288085938 2643.101806640625 C -1142.522216796875 2643.102294921875 -1142.499633789062 2643.10302734375 -1142.47802734375 2643.10302734375 C -1138.652099609375 2643.100341796875 -1134.83251953125 2643.10009765625 -1131.275024414062 2643.10009765625 L -1127.133056640625 2643.10009765625 L -1127.133056640625 2612.82275390625 C -1127.249877929688 2612.82275390625 -1127.366577148438 2612.822998046875 -1127.483276367188 2612.822998046875 Z" stroke="none" fill="#000"/>
    </g>
    <path id="Trazado_190029" data-name="Trazado 190029" d="M-1152.636,2645.1v-34.278h.572q9.606,0,19.211,0c.214,0,.483.031.627-.081a1.161,1.161,0,0,0,.445-.668.576.576,0,0,0-.549-.63,4.13,4.13,0,0,0-.6-.027h-19.657c-.28-1.855.19-2.97,1.362-3.537a3.173,3.173,0,0,1,1.336-.294q11.016-.027,22.034-.009a2.6,2.6,0,0,1,2.753,2.72c.009.351,0,.7,0,1.095-.209.01-.374.024-.539.024-1.265,0-2.53,0-3.8,0-.577,0-.906.271-.9.7s.339.7.915.7c1.418,0,2.836,0,4.287,0V2645.1h-.541q-8.4,0-16.8,0c-.213,0-.482-.031-.626.081a1.156,1.156,0,0,0-.449.667.576.576,0,0,0,.55.629,4.28,4.28,0,0,0,.6.027h17.24c.277,1.552-.21,2.8-1.354,3.34a3.46,3.46,0,0,1-1.425.305q-10.947.029-21.9.012a2.624,2.624,0,0,1-2.823-2.839c0-.245,0-.491,0-.818h6.531c.154,0,.309,0,.462-.012a.649.649,0,0,0,.658-.648.651.651,0,0,0-.584-.715,2.664,2.664,0,0,0-.506-.031h-6.537Z" transform="translate(2110.726 -1832.182)" fill="#084a93"/>
    <path id="Trazado_190030" data-name="Trazado 190030" d="M-1108.621,2416.4a2.769,2.769,0,0,1-2,2.1,3.959,3.959,0,0,1-.923.089q-23.616.006-47.231,0a2.7,2.7,0,0,1-2.944-2.923,8.877,8.877,0,0,1,.5-3.138c1.57-4.622,3.1-9.257,4.63-13.892a3.466,3.466,0,0,0,.172-1.059q.013-14.025.01-28.049a1.36,1.36,0,0,1,.08-.706,2.268,2.268,0,0,1,.732-.625c.143-.083.371-.025.561-.025h39.714c1.169,0,1.4.229,1.4,1.384q0,14.025,0,28.049a2.633,2.633,0,0,0,.1.812q2.523,7.613,5.067,15.218a2.87,2.87,0,0,0,.126.278Zm-50.946-3.135h48.8c-.049-.18-.082-.328-.13-.471-1.463-4.4-2.934-8.8-4.383-13.205-.132-.4-.337-.468-.712-.468q-19.178.014-38.354,0a.636.636,0,0,0-.717.534q-2.157,6.532-4.341,13.056C-1159.466,2412.877-1159.51,2413.057-1159.567,2413.26Zm4.971-43.3v27.356h38.86v-27.356Zm-5.319,45.111c-.118,1.493.109,1.745,1.524,1.745h46.55c.19,0,.38.006.57-.006a.855.855,0,0,0,.863-.806,7.223,7.223,0,0,0,.007-.932Z" transform="translate(2110.726 -1832.182)"/>
    <path id="Trazado_190031" data-name="Trazado 190031" d="M-1159.567,2413.26c.057-.2.1-.383.159-.558q2.173-6.528,4.341-13.056a.636.636,0,0,1,.717-.534q19.178.021,38.354,0c.375,0,.58.069.712.468,1.449,4.406,2.92,8.8,4.383,13.205.048.143.081.291.13.471Zm24.4-1.742q3.861,0,7.722,0c1,0,1.364-.607.918-1.506-.8-1.608-1.615-3.2-2.4-4.819a1.2,1.2,0,0,0-1.217-.756q-5.028.024-10.055,0a1.2,1.2,0,0,0-1.217.755c-.774,1.6-1.583,3.181-2.374,4.772-.479.963-.118,1.554.948,1.555Q-1139,2411.52-1135.165,2411.518Z" transform="translate(2110.726 -1832.182)" fill="#084a93"/>
    <path id="Trazado_190032" data-name="Trazado 190032" d="M-1154.6,2369.961h38.86v27.356h-38.86Zm19.424,1.738h-16.377c-1.059,0-1.322.259-1.322,1.311q0,10.625,0,21.248c0,1.062.257,1.321,1.308,1.321h32.8c1.027,0,1.3-.265,1.3-1.281q0-10.65,0-21.3c0-1.027-.27-1.3-1.282-1.3Z" transform="translate(2110.726 -1832.182)" fill="#084a93"/>
    <path id="Trazado_190033" data-name="Trazado 190033" d="M-1159.915,2415.072h49.514a7.223,7.223,0,0,1-.007.932.855.855,0,0,1-.863.806c-.19.012-.38.006-.57.006h-46.55C-1159.806,2416.817-1160.033,2416.565-1159.915,2415.072Z" transform="translate(2110.726 -1832.182)" fill="#084a93"/>
    <path id="Trazado_190034" data-name="Trazado 190034" d="M-1135.165,2411.518q-3.836,0-7.67,0c-1.066,0-1.427-.592-.948-1.555.791-1.591,1.6-3.172,2.374-4.772a1.2,1.2,0,0,1,1.217-.755q5.028.024,10.055,0a1.2,1.2,0,0,1,1.217.756c.78,1.615,1.6,3.211,2.4,4.819.446.9.078,1.5-.918,1.506Q-1131.3,2411.523-1135.165,2411.518Zm6.521-1.783c-.538-1.081-1.054-2.09-1.54-3.114a.629.629,0,0,0-.669-.417c-2.471.016-4.946.1-7.41-.029a2.035,2.035,0,0,0-2.439,1.536,15.207,15.207,0,0,1-.986,2.024Z" transform="translate(2110.726 -1832.182)"/>
    <path id="Trazado_190035" data-name="Trazado 190035" d="M-1135.172,2371.7h16.428c1.012,0,1.282.273,1.282,1.3q0,10.65,0,21.3c0,1.016-.269,1.281-1.3,1.281h-32.8c-1.051,0-1.308-.259-1.308-1.321q0-10.625,0-21.248c0-1.052.263-1.311,1.322-1.311Zm-15.9,22.071h31.8V2373.5h-31.8Z" transform="translate(2110.726 -1832.182)"/>
    <path id="Trazado_190036" data-name="Trazado 190036" d="M-1128.644,2409.735h-13.044a15.207,15.207,0,0,0,.986-2.024,2.035,2.035,0,0,1,2.439-1.536c2.464.13,4.939.045,7.41.029a.629.629,0,0,1,.669.417C-1129.7,2407.645-1129.182,2408.654-1128.644,2409.735Z" transform="translate(2110.726 -1832.182)" fill="#084a93"/>
    <path id="Trazado_190037" data-name="Trazado 190037" d="M-1151.076,2393.77V2373.5h31.8v20.269Zm19.461-11.509h1.713v-1.678h-1.713Zm3.48,3.559v-1.692h-1.691v1.692Z" transform="translate(2110.726 -1832.182)" fill="#ffb30b"/>
    <path id="Trazado_190038" data-name="Trazado 190038" d="M-1131.615,2382.261v-1.678h1.713v1.678Z" transform="translate(2110.726 -1832.182)"/>
    <path id="Trazado_190039" data-name="Trazado 190039" d="M-1128.135,2385.82h-1.691v-1.692h1.691Z" transform="translate(2110.726 -1832.182)"/>
    <path id="Trazado_190040" data-name="Trazado 190040" d="M-1133,2627.223h-2.99v-.524c0-.972,0-1.944,0-2.916,0-.681-.238-.912-.921-.916-.71,0-1.42-.006-2.129,0-3.141.029-2.705-.406-2.735,2.713-.005.537,0,1.073,0,1.64h-3v-.515c0-1,.006-2.006,0-3.008-.006-.539-.24-.818-.728-.823q-2.175-.021-4.351,0a.654.654,0,0,0-.695.707c-.013,1.45-.008,2.9,0,4.35a.666.666,0,0,0,.642.715,5.85,5.85,0,0,0,.738.024c.982,0,1.965,0,2.992,0v.506c0,.987-.005,1.975,0,2.962,0,.655.252.91.888.912q2.015.009,4.027,0c.64,0,.891-.254.9-.905.007-.987,0-1.974,0-2.961v-.49h2.956c.007.172.019.322.019.472,0,1,0,2.006,0,3.008,0,.619.259.873.874.876q2.013.009,4.027,0c.642,0,.9-.252.906-.9.01-.987,0-1.974,0-2.962v-.523h.57c.973,0,1.945.008,2.917,0,.614-.007.885-.254.888-.816q.014-2.1,0-4.211a.684.684,0,0,0-.734-.77q-2.153-.019-4.305,0c-.49,0-.734.277-.746.81-.017.709-.006,1.419-.007,2.129Z" transform="translate(2110.726 -1832.182)" fill="#fff"/>
    <path id="Trazado_190041" data-name="Trazado 190041" d="M-1133,2627.223v-1.411c0-.71-.01-1.42.007-2.129.012-.533.256-.805.746-.81q2.153-.019,4.305,0a.684.684,0,0,1,.734.77q.015,2.106,0,4.211c0,.562-.274.809-.888.816-.972.011-1.944,0-2.917,0h-.57v.523c0,.988.007,1.975,0,2.962-.006.644-.264.893-.906.9q-2.013.006-4.027,0c-.615,0-.87-.257-.874-.876-.008-1,0-2,0-3.008,0-.15-.012-.3-.019-.472h-2.956v.49c0,.987.005,1.974,0,2.961-.005.651-.256.9-.9.905q-2.013.008-4.027,0c-.636,0-.884-.257-.888-.912-.007-.987,0-1.975,0-2.962v-.506c-1.027,0-2.01,0-2.992,0a5.85,5.85,0,0,1-.738-.024.666.666,0,0,1-.642-.715c-.005-1.45-.01-2.9,0-4.35a.654.654,0,0,1,.695-.707q2.177-.024,4.351,0c.488,0,.722.284.728.823.01,1,0,2,0,3.008v.515h3c0-.567,0-1.1,0-1.64.03-3.119-.406-2.684,2.735-2.713.709-.006,1.419,0,2.129,0,.683,0,.917.235.921.916.005.972,0,1.944,0,2.916v.524Zm-8.833,4.414v-2.931h-2.91v2.931Zm-7.3-7.348v2.934h2.923v-2.934Zm11.708,2.944V2624.3h-2.912v2.935Zm8.807-2.936h-2.929v2.919h2.929Zm-7.339,4.4v2.919h2.917V2628.7Z" transform="translate(2110.726 -1832.182)"/>
    <path id="Trazado_190042" data-name="Trazado 190042" d="M-1141.556,2631.637h-2.911v-2.931h2.911Z" transform="translate(2110.726 -1832.182)" fill="#ffb30b"/>
    <path id="Trazado_190043" data-name="Trazado 190043" d="M-1148.859,2624.289h2.924v2.934h-2.924Z" transform="translate(2110.726 -1832.182)" fill="#ffb30b"/>
    <path id="Trazado_190044" data-name="Trazado 190044" d="M-1137.15,2627.233h-2.912V2624.3h2.912Z" transform="translate(2110.726 -1832.182)" fill="#ffb30b"/>
    <path id="Trazado_190045" data-name="Trazado 190045" d="M-1128.617,2624.3v2.919h-2.929V2624.3Z" transform="translate(2110.726 -1832.182)" fill="#ffb30b"/>
    <path id="Trazado_190046" data-name="Trazado 190046" d="M-1135.682,2628.7h2.916v2.919h-2.916Z" transform="translate(2110.726 -1832.182)" fill="#ffb30b"/>
    <path id="Trazado_190047" data-name="Trazado 190047" d="M-1138.924,2608.213c.925,0,1.85,0,2.775,0a2.293,2.293,0,0,0,.549-.056.575.575,0,0,0,.49-.675,1.352,1.352,0,0,0-.506-.627c-.111-.088-.326-.059-.494-.06q-2.775,0-5.55,0c-.168,0-.385-.027-.494.062-.2.169-.477.41-.483.628s.247.482.448.654c.116.1.354.073.537.074C-1140.743,2608.216-1139.833,2608.213-1138.924,2608.213Z" transform="translate(2110.726 -1832.182)" fill="#fff"/>
    <path id="Trazado_190048" data-name="Trazado 190048" d="M-1138.924,2608.213c-.909,0-1.819,0-2.728,0-.183,0-.421.025-.537-.074-.2-.172-.453-.435-.448-.654s.278-.459.483-.628c.109-.089.326-.061.494-.062q2.775,0,5.55,0c.168,0,.383-.028.494.06a1.352,1.352,0,0,1,.506.627.575.575,0,0,1-.49.675,2.293,2.293,0,0,1-.549.056C-1137.074,2608.215-1138,2608.213-1138.924,2608.213Z" transform="translate(2110.726 -1832.182)"/>
    <path id="Trazado_192374" data-name="Trazado 192374" d="M-86.607-4.263a4.528,4.528,0,0,1-1.525,3.252A5.355,5.355,0,0,1-91.758.176a4.816,4.816,0,0,1-3.872-1.657A6.793,6.793,0,0,1-97.04-6.029v-.782a7.671,7.671,0,0,1,.65-3.252,4.874,4.874,0,0,1,1.859-2.158,5.207,5.207,0,0,1,2.808-.751,5.217,5.217,0,0,1,3.568,1.187A4.866,4.866,0,0,1-86.59-8.455h-2.637a2.673,2.673,0,0,0-.69-1.8,2.555,2.555,0,0,0-1.806-.558,2.24,2.24,0,0,0-1.973.945,5.3,5.3,0,0,0-.672,2.931v.967a5.667,5.667,0,0,0,.628,3.032,2.2,2.2,0,0,0,1.982.958,2.6,2.6,0,0,0,1.824-.558,2.521,2.521,0,0,0,.69-1.727Zm1.169-.58a5.64,5.64,0,0,1,.545-2.522,3.989,3.989,0,0,1,1.569-1.714,4.577,4.577,0,0,1,2.377-.606,4.33,4.33,0,0,1,3.142,1.178,4.727,4.727,0,0,1,1.358,3.2l.018.65a4.97,4.97,0,0,1-1.222,3.511A4.247,4.247,0,0,1-80.93.176a4.268,4.268,0,0,1-3.283-1.318,5.058,5.058,0,0,1-1.226-3.586Zm2.54.18a3.555,3.555,0,0,0,.51,2.073,1.682,1.682,0,0,0,1.459.717,1.686,1.686,0,0,0,1.441-.709,3.89,3.89,0,0,0,.519-2.267,3.519,3.519,0,0,0-.519-2.06,1.686,1.686,0,0,0-1.459-.731,1.658,1.658,0,0,0-1.441.726A3.955,3.955,0,0,0-82.9-4.662ZM-72.483-9.51l.079,1.063a3.342,3.342,0,0,1,2.733-1.239,2.536,2.536,0,0,1,2.522,1.45,3.265,3.265,0,0,1,2.856-1.45,2.836,2.836,0,0,1,2.3.9,4.141,4.141,0,0,1,.756,2.711V0h-2.549V-6.064A1.811,1.811,0,0,0-64.1-7.247a1.4,1.4,0,0,0-1.116-.374A1.585,1.585,0,0,0-66.8-6.53L-66.788,0h-2.54V-6.056a1.789,1.789,0,0,0-.325-1.2,1.416,1.416,0,0,0-1.107-.369,1.646,1.646,0,0,0-1.564.9V0h-2.54V-9.51Zm21.762,4.843a5.7,5.7,0,0,1-1,3.52A3.2,3.2,0,0,1-54.413.176a2.963,2.963,0,0,1-2.329-1V3.656h-2.54V-9.51h2.355l.088.932a2.985,2.985,0,0,1,2.408-1.107,3.22,3.22,0,0,1,2.733,1.3A5.858,5.858,0,0,1-50.722-4.8Zm-2.54-.185a3.743,3.743,0,0,0-.47-2.048A1.532,1.532,0,0,0-55.1-7.62a1.663,1.663,0,0,0-1.644.914v3.894a1.692,1.692,0,0,0,1.661.94Q-53.262-1.872-53.262-4.852Zm9.809,3.885a3.185,3.185,0,0,1-2.6,1.143A3,3,0,0,1-48.388-.7a3.752,3.752,0,0,1-.822-2.575V-9.51h2.54v6.151q0,1.487,1.354,1.487a1.834,1.834,0,0,0,1.775-.9V-9.51h2.549V0h-2.391Zm7.418-10.881V-9.51h1.626v1.863h-1.626V-2.9a1.133,1.133,0,0,0,.2.756,1.015,1.015,0,0,0,.773.229,4.051,4.051,0,0,0,.747-.062V-.053a5.229,5.229,0,0,1-1.538.229,2.425,2.425,0,0,1-2.725-2.7V-7.646h-1.389V-9.51h1.389v-2.338ZM-27.483,0a2.821,2.821,0,0,1-.255-.853,3.073,3.073,0,0,1-2.4,1.028,3.376,3.376,0,0,1-2.316-.809,2.6,2.6,0,0,1-.918-2.039,2.687,2.687,0,0,1,1.121-2.32,5.529,5.529,0,0,1,3.239-.817h1.169v-.545a1.567,1.567,0,0,0-.338-1.055,1.331,1.331,0,0,0-1.068-.4,1.513,1.513,0,0,0-1.006.308,1.045,1.045,0,0,0-.365.844h-2.54a2.551,2.551,0,0,1,.51-1.529,3.37,3.37,0,0,1,1.441-1.1,5.253,5.253,0,0,1,2.092-.4,4.15,4.15,0,0,1,2.791.883,3.09,3.09,0,0,1,1.033,2.483V-2.2a4.546,4.546,0,0,0,.378,2.048V0Zm-2.1-1.767a2.188,2.188,0,0,0,1.037-.25,1.645,1.645,0,0,0,.7-.672V-4.324h-.949q-1.907,0-2.03,1.318l-.009.149a1.017,1.017,0,0,0,.334.782A1.3,1.3,0,0,0-29.584-1.767Zm10.2-.105a1.666,1.666,0,0,0,1.143-.387,1.355,1.355,0,0,0,.457-1.028h2.382a3.258,3.258,0,0,1-.527,1.771A3.48,3.48,0,0,1-17.354-.268a4.442,4.442,0,0,1-1.991.444,4.129,4.129,0,0,1-3.217-1.3A5.13,5.13,0,0,1-23.739-4.7v-.167A5.071,5.071,0,0,1-22.57-8.376a4.08,4.08,0,0,1,3.208-1.31A4,4,0,0,1-16.5-8.67a3.594,3.594,0,0,1,1.094,2.7h-2.382a1.745,1.745,0,0,0-.457-1.206,1.524,1.524,0,0,0-1.16-.464,1.53,1.53,0,0,0-1.34.647,3.749,3.749,0,0,0-.453,2.1v.264a3.8,3.8,0,0,0,.448,2.113A1.549,1.549,0,0,0-19.389-1.872ZM-11.276,0h-2.549V-9.51h2.549Zm-2.7-11.971a1.251,1.251,0,0,1,.382-.94,1.436,1.436,0,0,1,1.042-.369,1.44,1.44,0,0,1,1.037.369,1.244,1.244,0,0,1,.387.94,1.247,1.247,0,0,1-.391.949,1.443,1.443,0,0,1-1.033.369,1.443,1.443,0,0,1-1.033-.369A1.247,1.247,0,0,1-13.975-11.971ZM-9.58-4.843a5.64,5.64,0,0,1,.545-2.522A3.989,3.989,0,0,1-7.466-9.079a4.577,4.577,0,0,1,2.377-.606A4.33,4.33,0,0,1-1.947-8.508a4.727,4.727,0,0,1,1.358,3.2l.018.65A4.97,4.97,0,0,1-1.793-1.147,4.247,4.247,0,0,1-5.071.176,4.268,4.268,0,0,1-8.354-1.143,5.058,5.058,0,0,1-9.58-4.729Zm2.54.18a3.555,3.555,0,0,0,.51,2.073,1.682,1.682,0,0,0,1.459.717A1.686,1.686,0,0,0-3.63-2.581a3.89,3.89,0,0,0,.519-2.267,3.519,3.519,0,0,0-.519-2.06,1.686,1.686,0,0,0-1.459-.731,1.658,1.658,0,0,0-1.441.726A3.955,3.955,0,0,0-7.04-4.662ZM-4.588-13.5h2.769l-2.435,2.725H-6.319ZM3.331-9.51l.079,1.1A3.32,3.32,0,0,1,6.144-9.686a2.759,2.759,0,0,1,2.25.888,4.142,4.142,0,0,1,.756,2.654V0H6.609V-6.082a1.648,1.648,0,0,0-.352-1.173A1.574,1.574,0,0,0,5.089-7.62a1.747,1.747,0,0,0-1.608.914V0H.94V-9.51ZM19.934.176a4.668,4.668,0,0,1-3.406-1.283,4.561,4.561,0,0,1-1.314-3.419v-.246a5.745,5.745,0,0,1,.554-2.562,4.064,4.064,0,0,1,1.569-1.74,4.4,4.4,0,0,1,2.316-.611,3.947,3.947,0,0,1,3.072,1.23,5,5,0,0,1,1.121,3.489v1.037H17.789a2.36,2.36,0,0,0,.743,1.494,2.245,2.245,0,0,0,1.569.563,2.742,2.742,0,0,0,2.294-1.063l1.248,1.4A3.813,3.813,0,0,1,22.1-.277,5.075,5.075,0,0,1,19.934.176Zm-.29-7.813a1.587,1.587,0,0,0-1.226.512,2.651,2.651,0,0,0-.6,1.466h3.533v-.2a1.891,1.891,0,0,0-.457-1.311A1.638,1.638,0,0,0,19.644-7.638Zm7.98-1.872.079,1.1a3.32,3.32,0,0,1,2.733-1.274,2.759,2.759,0,0,1,2.25.888,4.142,4.142,0,0,1,.756,2.654V0H30.9V-6.082a1.648,1.648,0,0,0-.352-1.173,1.574,1.574,0,0,0-1.169-.365,1.747,1.747,0,0,0-1.608.914V0h-2.54V-9.51ZM42.53,0H39.981V-13.5H42.53Zm7.6,0a2.821,2.821,0,0,1-.255-.853,3.073,3.073,0,0,1-2.4,1.028,3.376,3.376,0,0,1-2.316-.809,2.6,2.6,0,0,1-.918-2.039,2.687,2.687,0,0,1,1.121-2.32A5.529,5.529,0,0,1,48.6-5.81h1.169v-.545a1.567,1.567,0,0,0-.338-1.055,1.331,1.331,0,0,0-1.068-.4A1.513,1.513,0,0,0,47.36-7.5,1.045,1.045,0,0,0,47-6.653h-2.54a2.551,2.551,0,0,1,.51-1.529,3.37,3.37,0,0,1,1.441-1.1,5.253,5.253,0,0,1,2.092-.4,4.15,4.15,0,0,1,2.791.883,3.09,3.09,0,0,1,1.033,2.483V-2.2A4.546,4.546,0,0,0,52.7-.149V0Zm-2.1-1.767a2.188,2.188,0,0,0,1.037-.25,1.645,1.645,0,0,0,.7-.672V-4.324h-.949q-1.907,0-2.03,1.318l-.009.149a1.017,1.017,0,0,0,.334.782A1.3,1.3,0,0,0,48.032-1.767ZM61.093-9.51l.079,1.1a3.32,3.32,0,0,1,2.733-1.274,2.759,2.759,0,0,1,2.25.888,4.142,4.142,0,0,1,.756,2.654V0h-2.54V-6.082a1.648,1.648,0,0,0-.352-1.173,1.574,1.574,0,0,0-1.169-.365,1.747,1.747,0,0,0-1.608.914V0H58.7V-9.51ZM74.531-.967A3.185,3.185,0,0,1,71.93.176,3,3,0,0,1,69.6-.7a3.752,3.752,0,0,1-.822-2.575V-9.51h2.54v6.151q0,1.487,1.354,1.487a1.834,1.834,0,0,0,1.775-.9V-9.51h2.549V0H74.6Zm12.946-3.7A5.758,5.758,0,0,1,86.5-1.1,3.231,3.231,0,0,1,83.777.176a2.969,2.969,0,0,1-2.47-1.187L81.193,0H78.908V-13.5h2.54v4.843A2.893,2.893,0,0,1,83.76-9.686a3.258,3.258,0,0,1,2.729,1.279,5.767,5.767,0,0,1,.989,3.6Zm-2.54-.185a3.783,3.783,0,0,0-.457-2.1,1.545,1.545,0,0,0-1.362-.664,1.676,1.676,0,0,0-1.67.993v3.753a1.7,1.7,0,0,0,1.688,1,1.568,1.568,0,0,0,1.617-1.213A6.257,6.257,0,0,0,84.938-4.852ZM93.419.176a4.668,4.668,0,0,1-3.406-1.283A4.561,4.561,0,0,1,88.7-4.526v-.246a5.745,5.745,0,0,1,.554-2.562,4.064,4.064,0,0,1,1.569-1.74,4.4,4.4,0,0,1,2.316-.611,3.947,3.947,0,0,1,3.072,1.23A5,5,0,0,1,97.33-4.966v1.037H91.274a2.36,2.36,0,0,0,.743,1.494,2.245,2.245,0,0,0,1.569.563A2.742,2.742,0,0,0,95.88-2.936l1.248,1.4A3.813,3.813,0,0,1,95.581-.277,5.075,5.075,0,0,1,93.419.176Zm-.29-7.813a1.587,1.587,0,0,0-1.226.512,2.651,2.651,0,0,0-.6,1.466h3.533v-.2a1.891,1.891,0,0,0-.457-1.311A1.638,1.638,0,0,0,93.129-7.638Z" transform="translate(1164.984 815.387)"/>
    <path id="Trazado_192375" data-name="Trazado 192375" d="M-26.479-2.051h-3.6L-30.758,0h-2.181l3.705-9.953h1.9L-23.608,0h-2.181Zm-3.042-1.661h2.488l-1.251-3.726Zm13.043.082a4.436,4.436,0,0,1-.776,2.738,2.488,2.488,0,0,1-2.1,1.029,2.3,2.3,0,0,1-1.812-.779V2.844h-1.976V-7.4H-21.3l.068.725a2.322,2.322,0,0,1,1.873-.861,2.5,2.5,0,0,1,2.126,1.012,4.556,4.556,0,0,1,.759,2.789Zm-1.976-.144a2.911,2.911,0,0,0-.366-1.593,1.191,1.191,0,0,0-1.063-.561,1.294,1.294,0,0,0-1.278.711v3.028a1.316,1.316,0,0,0,1.292.731Q-18.454-1.456-18.454-3.773ZM-13.169,0h-1.982V-10.5h1.982Zm3.712,0H-11.44V-7.4h1.982Zm-2.1-9.311a.973.973,0,0,1,.3-.731,1.117,1.117,0,0,1,.81-.287,1.12,1.12,0,0,1,.807.287.967.967,0,0,1,.3.731.97.97,0,0,1-.3.738,1.122,1.122,0,0,1-.8.287,1.122,1.122,0,0,1-.8-.287A.97.97,0,0,1-11.556-9.311Zm6.8,7.854a1.3,1.3,0,0,0,.889-.3,1.054,1.054,0,0,0,.355-.8h1.853a2.534,2.534,0,0,1-.41,1.377,2.706,2.706,0,0,1-1.1.971A3.455,3.455,0,0,1-4.72.137a3.211,3.211,0,0,1-2.5-1.008,3.99,3.99,0,0,1-.916-2.786v-.13a3.944,3.944,0,0,1,.909-2.728,3.174,3.174,0,0,1,2.5-1.019,3.111,3.111,0,0,1,2.225.79,2.8,2.8,0,0,1,.851,2.1H-3.51a1.358,1.358,0,0,0-.355-.938,1.185,1.185,0,0,0-.9-.361,1.19,1.19,0,0,0-1.042.5A2.916,2.916,0,0,0-6.163-3.8V-3.6a2.953,2.953,0,0,0,.349,1.643A1.2,1.2,0,0,0-4.754-1.456ZM3.756,0a2.194,2.194,0,0,1-.2-.663,2.39,2.39,0,0,1-1.866.8,2.626,2.626,0,0,1-1.8-.629A2.023,2.023,0,0,1-.824-2.078a2.09,2.09,0,0,1,.872-1.8,4.3,4.3,0,0,1,2.519-.636h.909v-.424a1.219,1.219,0,0,0-.263-.82,1.035,1.035,0,0,0-.831-.308,1.177,1.177,0,0,0-.783.239.813.813,0,0,0-.284.656H-.66a1.984,1.984,0,0,1,.4-1.189A2.621,2.621,0,0,1,.858-7.222a4.086,4.086,0,0,1,1.627-.311,3.228,3.228,0,0,1,2.17.687,2.4,2.4,0,0,1,.8,1.931v3.206A3.536,3.536,0,0,0,5.752-.116V0ZM2.123-1.374a1.7,1.7,0,0,0,.807-.195,1.28,1.28,0,0,0,.547-.523V-3.363H2.738q-1.483,0-1.579,1.025l-.007.116a.791.791,0,0,0,.26.608A1.009,1.009,0,0,0,2.123-1.374Zm7.93-.082a1.3,1.3,0,0,0,.889-.3,1.054,1.054,0,0,0,.355-.8h1.853a2.534,2.534,0,0,1-.41,1.377,2.706,2.706,0,0,1-1.1.971,3.455,3.455,0,0,1-1.548.345,3.211,3.211,0,0,1-2.5-1.008,3.99,3.99,0,0,1-.916-2.786v-.13a3.944,3.944,0,0,1,.909-2.728,3.174,3.174,0,0,1,2.5-1.019,3.111,3.111,0,0,1,2.225.79,2.8,2.8,0,0,1,.851,2.1H11.3a1.358,1.358,0,0,0-.355-.938,1.185,1.185,0,0,0-.9-.361A1.19,1.19,0,0,0,9-5.437,2.916,2.916,0,0,0,8.644-3.8V-3.6a2.953,2.953,0,0,0,.349,1.643A1.2,1.2,0,0,0,10.052-1.456ZM16.362,0H14.379V-7.4h1.982Zm-2.1-9.311a.973.973,0,0,1,.3-.731,1.117,1.117,0,0,1,.81-.287,1.12,1.12,0,0,1,.807.287.967.967,0,0,1,.3.731.97.97,0,0,1-.3.738,1.122,1.122,0,0,1-.8.287,1.122,1.122,0,0,1-.8-.287A.97.97,0,0,1,14.263-9.311Zm3.418,5.544A4.387,4.387,0,0,1,18.1-5.729a3.1,3.1,0,0,1,1.22-1.333,3.56,3.56,0,0,1,1.849-.472,3.368,3.368,0,0,1,2.444.916,3.676,3.676,0,0,1,1.056,2.488l.014.506a3.866,3.866,0,0,1-.95,2.731A3.3,3.3,0,0,1,21.188.137,3.319,3.319,0,0,1,18.635-.889a3.934,3.934,0,0,1-.954-2.789Zm1.976.14a2.765,2.765,0,0,0,.4,1.612,1.308,1.308,0,0,0,1.135.558,1.311,1.311,0,0,0,1.121-.551,3.025,3.025,0,0,0,.4-1.763,2.737,2.737,0,0,0-.4-1.6,1.311,1.311,0,0,0-1.135-.568,1.29,1.29,0,0,0-1.121.565A3.076,3.076,0,0,0,19.657-3.626ZM21.564-10.5h2.153L21.824-8.381H20.217Zm6.159,3.1.062.854a2.582,2.582,0,0,1,2.126-.991,2.146,2.146,0,0,1,1.75.69,3.221,3.221,0,0,1,.588,2.064V0H30.273V-4.73A1.282,1.282,0,0,0,30-5.643a1.224,1.224,0,0,0-.909-.284,1.359,1.359,0,0,0-1.251.711V0H25.864V-7.4Z" transform="translate(1158 693.387)"/>
    <path id="Trazado_192376" data-name="Trazado 192376" d="M-32.136-3.507V0h-2.051V-9.953H-30.3a4.492,4.492,0,0,1,1.972.41,3.022,3.022,0,0,1,1.309,1.166,3.25,3.25,0,0,1,.458,1.719,2.858,2.858,0,0,1-1,2.307,4.171,4.171,0,0,1-2.772.844Zm0-1.661H-30.3a1.8,1.8,0,0,0,1.241-.383,1.392,1.392,0,0,0,.427-1.094,1.642,1.642,0,0,0-.431-1.183,1.609,1.609,0,0,0-1.189-.465h-1.88ZM-23.2,0h-1.982V-10.5H-23.2Zm5.913,0a2.194,2.194,0,0,1-.2-.663,2.39,2.39,0,0,1-1.866.8,2.626,2.626,0,0,1-1.8-.629,2.023,2.023,0,0,1-.714-1.586A2.09,2.09,0,0,1-21-3.883a4.3,4.3,0,0,1,2.519-.636h.909v-.424a1.219,1.219,0,0,0-.263-.82,1.035,1.035,0,0,0-.831-.308,1.177,1.177,0,0,0-.783.239.813.813,0,0,0-.284.656H-21.7a1.984,1.984,0,0,1,.4-1.189,2.621,2.621,0,0,1,1.121-.858,4.086,4.086,0,0,1,1.627-.311,3.228,3.228,0,0,1,2.17.687,2.4,2.4,0,0,1,.8,1.931v3.206a3.536,3.536,0,0,0,.294,1.593V0Zm-1.634-1.374a1.7,1.7,0,0,0,.807-.195,1.28,1.28,0,0,0,.547-.523V-3.363h-.738q-1.483,0-1.579,1.025l-.007.116a.791.791,0,0,0,.26.608A1.009,1.009,0,0,0-18.922-1.374ZM-11.7-9.215V-7.4h1.265v1.449H-11.7v3.691a.881.881,0,0,0,.157.588.79.79,0,0,0,.6.178,3.151,3.151,0,0,0,.581-.048v1.5a4.067,4.067,0,0,1-1.2.178,1.886,1.886,0,0,1-2.119-2.1V-5.947h-1.08V-7.4h1.08V-9.215ZM-5.052,0a2.194,2.194,0,0,1-.2-.663,2.39,2.39,0,0,1-1.866.8,2.626,2.626,0,0,1-1.8-.629,2.023,2.023,0,0,1-.714-1.586,2.09,2.09,0,0,1,.872-1.8,4.3,4.3,0,0,1,2.519-.636h.909v-.424a1.219,1.219,0,0,0-.263-.82,1.035,1.035,0,0,0-.831-.308,1.177,1.177,0,0,0-.783.239.813.813,0,0,0-.284.656H-9.468a1.984,1.984,0,0,1,.4-1.189A2.621,2.621,0,0,1-7.95-7.222a4.086,4.086,0,0,1,1.627-.311,3.228,3.228,0,0,1,2.17.687,2.4,2.4,0,0,1,.8,1.931v3.206A3.536,3.536,0,0,0-3.056-.116V0ZM-6.686-1.374a1.7,1.7,0,0,0,.807-.195,1.28,1.28,0,0,0,.547-.523V-3.363H-6.07q-1.483,0-1.579,1.025l-.007.116a.791.791,0,0,0,.26.608A1.009,1.009,0,0,0-6.686-1.374ZM-1.292,0V-5.947h-1.1V-7.4h1.1v-.629A2.553,2.553,0,0,1-.578-9.957a2.767,2.767,0,0,1,2-.687,4.618,4.618,0,0,1,1,.137L2.406-8.976a2.519,2.519,0,0,0-.6-.062Q.69-9.037.69-7.991V-7.4H2.16v1.449H.69V0Zm4.17-3.767A4.387,4.387,0,0,1,3.3-5.729a3.1,3.1,0,0,1,1.22-1.333,3.56,3.56,0,0,1,1.849-.472,3.368,3.368,0,0,1,2.444.916A3.676,3.676,0,0,1,9.871-4.129l.014.506a3.866,3.866,0,0,1-.95,2.731A3.3,3.3,0,0,1,6.385.137,3.319,3.319,0,0,1,3.832-.889a3.934,3.934,0,0,1-.954-2.789Zm1.976.14a2.765,2.765,0,0,0,.4,1.612,1.308,1.308,0,0,0,1.135.558,1.311,1.311,0,0,0,1.121-.551,3.025,3.025,0,0,0,.4-1.763,2.737,2.737,0,0,0-.4-1.6A1.311,1.311,0,0,0,6.371-5.94a1.29,1.29,0,0,0-1.121.565A3.076,3.076,0,0,0,4.854-3.626Zm10.4-1.918a5.367,5.367,0,0,0-.711-.055,1.447,1.447,0,0,0-1.47.759V0H11.1V-7.4h1.866l.055.882A1.831,1.831,0,0,1,14.67-7.533a2.07,2.07,0,0,1,.615.089Zm2.8-1.853.062.827a2.6,2.6,0,0,1,2.126-.964A1.973,1.973,0,0,1,22.21-6.405a2.54,2.54,0,0,1,2.222-1.128,2.206,2.206,0,0,1,1.791.7,3.221,3.221,0,0,1,.588,2.109V0H24.828V-4.717a1.408,1.408,0,0,0-.246-.919,1.091,1.091,0,0,0-.868-.291,1.233,1.233,0,0,0-1.23.848L22.49,0H20.515V-4.71a1.391,1.391,0,0,0-.253-.93,1.1,1.1,0,0,0-.861-.287,1.28,1.28,0,0,0-1.217.7V0H16.208V-7.4ZM32.614,0a2.194,2.194,0,0,1-.2-.663,2.39,2.39,0,0,1-1.866.8,2.626,2.626,0,0,1-1.8-.629,2.023,2.023,0,0,1-.714-1.586,2.09,2.09,0,0,1,.872-1.8,4.3,4.3,0,0,1,2.519-.636h.909v-.424a1.219,1.219,0,0,0-.263-.82,1.035,1.035,0,0,0-.831-.308,1.177,1.177,0,0,0-.783.239.813.813,0,0,0-.284.656H28.2a1.984,1.984,0,0,1,.4-1.189,2.621,2.621,0,0,1,1.121-.858,4.086,4.086,0,0,1,1.627-.311,3.228,3.228,0,0,1,2.17.687,2.4,2.4,0,0,1,.8,1.931v3.206A3.536,3.536,0,0,0,34.61-.116V0ZM30.98-1.374a1.7,1.7,0,0,0,.807-.195,1.28,1.28,0,0,0,.547-.523V-3.363H31.6q-1.483,0-1.579,1.025l-.007.116a.791.791,0,0,0,.26.608A1.009,1.009,0,0,0,30.98-1.374Z" transform="translate(1062 722.387)"/>
    <path id="Trazado_192377" data-name="Trazado 192377" d="M-43.958,0h-2.051V-9.953h2.051Zm3.589-7.4.062.854a2.582,2.582,0,0,1,2.126-.991,2.146,2.146,0,0,1,1.75.69,3.221,3.221,0,0,1,.588,2.064V0H-37.82V-4.73a1.282,1.282,0,0,0-.273-.913A1.224,1.224,0,0,0-39-5.927a1.359,1.359,0,0,0-1.251.711V0h-1.976V-7.4ZM-33.807,0V-5.947h-1.1V-7.4h1.1v-.629a2.553,2.553,0,0,1,.714-1.931,2.767,2.767,0,0,1,2-.687,4.618,4.618,0,0,1,1,.137l-.021,1.531a2.519,2.519,0,0,0-.6-.062q-1.114,0-1.114,1.046V-7.4h1.47v1.449h-1.47V0Zm8.634-5.544a5.367,5.367,0,0,0-.711-.055,1.447,1.447,0,0,0-1.47.759V0H-29.33V-7.4h1.866l.055.882a1.831,1.831,0,0,1,1.647-1.019,2.07,2.07,0,0,1,.615.089ZM-20.142,0a2.194,2.194,0,0,1-.2-.663,2.39,2.39,0,0,1-1.866.8,2.626,2.626,0,0,1-1.8-.629,2.023,2.023,0,0,1-.714-1.586,2.09,2.09,0,0,1,.872-1.8,4.3,4.3,0,0,1,2.519-.636h.909v-.424a1.219,1.219,0,0,0-.263-.82,1.035,1.035,0,0,0-.831-.308,1.177,1.177,0,0,0-.783.239.813.813,0,0,0-.284.656h-1.976a1.984,1.984,0,0,1,.4-1.189,2.621,2.621,0,0,1,1.121-.858,4.086,4.086,0,0,1,1.627-.311,3.228,3.228,0,0,1,2.17.687,2.4,2.4,0,0,1,.8,1.931v3.206a3.536,3.536,0,0,0,.294,1.593V0Zm-1.634-1.374a1.7,1.7,0,0,0,.807-.195,1.28,1.28,0,0,0,.547-.523V-3.363h-.738q-1.483,0-1.579,1.025l-.007.116a.791.791,0,0,0,.26.608A1.009,1.009,0,0,0-21.776-1.374ZM-13.518.137a3.631,3.631,0,0,1-2.649-1,3.548,3.548,0,0,1-1.022-2.659v-.191A4.468,4.468,0,0,1-16.758-5.7a3.161,3.161,0,0,1,1.22-1.354,3.425,3.425,0,0,1,1.8-.475,3.07,3.07,0,0,1,2.389.957,3.889,3.889,0,0,1,.872,2.714v.807h-4.71a1.835,1.835,0,0,0,.578,1.162,1.746,1.746,0,0,0,1.22.438A2.132,2.132,0,0,0-11.6-2.283l.971,1.087a2.966,2.966,0,0,1-1.2.981A3.947,3.947,0,0,1-13.518.137Zm-.226-6.077a1.234,1.234,0,0,0-.954.4,2.062,2.062,0,0,0-.468,1.14h2.748V-4.56a1.471,1.471,0,0,0-.355-1.02A1.274,1.274,0,0,0-13.744-5.94Zm8.395,3.9a.637.637,0,0,0-.359-.571A4.077,4.077,0,0,0-6.86-2.987Q-9.5-3.541-9.5-5.229a2.032,2.032,0,0,1,.817-1.644,3.3,3.3,0,0,1,2.136-.66,3.547,3.547,0,0,1,2.252.663,2.09,2.09,0,0,1,.844,1.723H-5.424a.956.956,0,0,0-.273-.7,1.157,1.157,0,0,0-.854-.277,1.182,1.182,0,0,0-.772.226.712.712,0,0,0-.273.574.609.609,0,0,0,.311.53,3.2,3.2,0,0,0,1.049.349,8.571,8.571,0,0,1,1.244.332A2.044,2.044,0,0,1-3.428-2.126,1.929,1.929,0,0,1-4.3-.489,3.745,3.745,0,0,1-6.539.137,3.912,3.912,0,0,1-8.189-.195,2.77,2.77,0,0,1-9.321-1.1a2.113,2.113,0,0,1-.41-1.248h1.873a1.031,1.031,0,0,0,.39.807,1.546,1.546,0,0,0,.971.28A1.43,1.43,0,0,0-5.64-1.48.67.67,0,0,0-5.349-2.044ZM.208-9.215V-7.4H1.473v1.449H.208v3.691a.881.881,0,0,0,.157.588.79.79,0,0,0,.6.178,3.151,3.151,0,0,0,.581-.048v1.5a4.067,4.067,0,0,1-1.2.178,1.886,1.886,0,0,1-2.119-2.1V-5.947h-1.08V-7.4h1.08V-9.215ZM6.73-5.544A5.367,5.367,0,0,0,6.019-5.6a1.447,1.447,0,0,0-1.47.759V0H2.574V-7.4H4.44l.055.882A1.831,1.831,0,0,1,6.142-7.533a2.07,2.07,0,0,1,.615.089ZM12.11-.752a2.477,2.477,0,0,1-2.023.889A2.337,2.337,0,0,1,8.271-.547a2.918,2.918,0,0,1-.639-2V-7.4H9.608v4.784q0,1.157,1.053,1.157a1.426,1.426,0,0,0,1.381-.7V-7.4h1.982V0H12.165Zm6.48-.7a1.3,1.3,0,0,0,.889-.3,1.054,1.054,0,0,0,.355-.8h1.853a2.534,2.534,0,0,1-.41,1.377,2.706,2.706,0,0,1-1.1.971,3.455,3.455,0,0,1-1.548.345,3.211,3.211,0,0,1-2.5-1.008,3.99,3.99,0,0,1-.916-2.786v-.13a3.944,3.944,0,0,1,.909-2.728,3.174,3.174,0,0,1,2.5-1.019,3.111,3.111,0,0,1,2.225.79,2.8,2.8,0,0,1,.851,2.1H19.834a1.358,1.358,0,0,0-.355-.938,1.185,1.185,0,0,0-.9-.361,1.19,1.19,0,0,0-1.042.5A2.916,2.916,0,0,0,17.182-3.8V-3.6a2.953,2.953,0,0,0,.349,1.643A1.2,1.2,0,0,0,18.59-1.456Zm6.59-7.759V-7.4h1.265v1.449H25.18v3.691a.881.881,0,0,0,.157.588.79.79,0,0,0,.6.178,3.151,3.151,0,0,0,.581-.048v1.5a4.067,4.067,0,0,1-1.2.178,1.886,1.886,0,0,1-2.119-2.1V-5.947h-1.08V-7.4H23.2V-9.215ZM31.975-.752a2.477,2.477,0,0,1-2.023.889,2.337,2.337,0,0,1-1.815-.684,2.918,2.918,0,0,1-.639-2V-7.4h1.976v4.784q0,1.157,1.053,1.157a1.426,1.426,0,0,0,1.381-.7V-7.4h1.982V0H32.03Zm7.561-4.792a5.367,5.367,0,0,0-.711-.055,1.447,1.447,0,0,0-1.47.759V0H35.379V-7.4h1.866l.055.882a1.831,1.831,0,0,1,1.647-1.019,2.07,2.07,0,0,1,.615.089ZM44.567,0a2.194,2.194,0,0,1-.2-.663,2.39,2.39,0,0,1-1.866.8,2.626,2.626,0,0,1-1.8-.629,2.023,2.023,0,0,1-.714-1.586,2.09,2.09,0,0,1,.872-1.8,4.3,4.3,0,0,1,2.519-.636h.909v-.424a1.219,1.219,0,0,0-.263-.82,1.035,1.035,0,0,0-.831-.308,1.177,1.177,0,0,0-.783.239.813.813,0,0,0-.284.656H40.151a1.984,1.984,0,0,1,.4-1.189,2.621,2.621,0,0,1,1.121-.858A4.086,4.086,0,0,1,43.3-7.533a3.228,3.228,0,0,1,2.17.687,2.4,2.4,0,0,1,.8,1.931v3.206a3.536,3.536,0,0,0,.294,1.593V0ZM42.933-1.374a1.7,1.7,0,0,0,.807-.195,1.28,1.28,0,0,0,.547-.523V-3.363h-.738q-1.483,0-1.579,1.025l-.007.116a.791.791,0,0,0,.26.608A1.009,1.009,0,0,0,42.933-1.374Z" transform="translate(1259 722.387)"/>
  </g>
</svg>
