<svg xmlns="http://www.w3.org/2000/svg" width="398.522" height="189.2" viewBox="0 0 398.522 189.2">
  <g id="_1" data-name="1" transform="translate(-229.034 -420)">
    <path id="Trazado_188704" data-name="Trazado 188704" d="M1452.656,305.04a87.131,87.131,0,0,0-15.322,1.747c24.789-44.264-.626-78.935-58.281-77.968-46.946.79-100.956,24.993-134.954,57.881-8.251-5.345-19.891-8.367-34.516-8.122-42.029.708-92.066,27.679-111.751,60.245s-1.571,58.393,40.458,57.686l261.735-4.4c31.027-.517,67.967-20.433,82.5-44.477S1483.69,304.523,1452.656,305.04Z" transform="translate(-860.844 207.439)" fill="#00defc" opacity="0.15"/>
    <g id="Grupo_128525" data-name="Grupo 128525" transform="translate(-3428.366 810)">
      <g id="Grupo_128524" data-name="Grupo 128524" transform="translate(3720 -390)">
        <g id="Background_Complete" data-name="Background Complete" transform="translate(0 0)">
          <g id="Grupo_128358" data-name="Grupo 128358">
            <rect id="Rectángulo_41128" data-name="Rectángulo 41128" width="16.994" height="0.128" transform="translate(213.836 176.26)" fill="#ebebeb"/>
            <rect id="Rectángulo_41129" data-name="Rectángulo 41129" width="4.46" height="0.128" transform="translate(165.479 177.653)" fill="#ebebeb"/>
            <rect id="Rectángulo_41130" data-name="Rectángulo 41130" width="9.847" height="0.128" transform="translate(203.476 171.496)" fill="#ebebeb"/>
            <rect id="Rectángulo_41131" data-name="Rectángulo 41131" width="22.161" height="0.128" transform="translate(26.915 172.358)" fill="#ebebeb"/>
            <rect id="Rectángulo_41132" data-name="Rectángulo 41132" width="3.249" height="0.128" transform="translate(53.644 172.358)" fill="#ebebeb"/>
            <rect id="Rectángulo_41133" data-name="Rectángulo 41133" width="48.062" height="0.128" transform="translate(67.454 174.524)" fill="#ebebeb"/>
            <path id="Trazado_188447" data-name="Trazado 188447" d="M140.209,200.073H41.136a2.932,2.932,0,0,1-2.929-2.929V57.881a2.932,2.932,0,0,1,2.929-2.928h99.073a2.932,2.932,0,0,1,2.928,2.928V197.144A2.932,2.932,0,0,1,140.209,200.073ZM41.136,55.081a2.8,2.8,0,0,0-2.8,2.8V197.144a2.8,2.8,0,0,0,2.8,2.8h99.073a2.8,2.8,0,0,0,2.8-2.8V57.881a2.8,2.8,0,0,0-2.8-2.8Z" transform="translate(-18.604 -54.953)" fill="#ebebeb"/>
            <path id="Trazado_188448" data-name="Trazado 188448" d="M356.506,200.073H257.433a2.932,2.932,0,0,1-2.928-2.929V57.881a2.931,2.931,0,0,1,2.928-2.928h99.073a2.932,2.932,0,0,1,2.929,2.928V197.144A2.932,2.932,0,0,1,356.506,200.073ZM257.433,55.081a2.8,2.8,0,0,0-2.8,2.8V197.144a2.8,2.8,0,0,0,2.8,2.8h99.073a2.8,2.8,0,0,0,2.8-2.8V57.881a2.8,2.8,0,0,0-2.8-2.8Z" transform="translate(-123.926 -54.953)" fill="#ebebeb"/>
            <rect id="Rectángulo_41134" data-name="Rectángulo 41134" width="256.535" height="0.128" transform="translate(0 168.002)" fill="#ebebeb"/>
          </g>
          <g id="Grupo_128375" data-name="Grupo 128375" transform="translate(65.806 7.696)">
            <g id="Grupo_128359" data-name="Grupo 128359" transform="translate(67.947 0)">
              <rect id="Rectángulo_41135" data-name="Rectángulo 41135" width="14.872" height="19.963" transform="translate(16.626 19.963) rotate(180)" fill="#f0f0f0"/>
              <rect id="Rectángulo_41136" data-name="Rectángulo 41136" width="14.872" height="19.963" transform="translate(15.395 20.373) rotate(180)" fill="#f5f5f5"/>
              <rect id="Rectángulo_41137" data-name="Rectángulo 41137" width="4.717" height="22.285" transform="translate(14.484 1.66)" fill="#e0e0e0"/>
              <path id="Trazado_188449" data-name="Trazado 188449" d="M271.4,73.187l-10.7,15.121v7.164h14.484V73.187Z" transform="translate(-260.693 -71.528)" fill="#ebebeb"/>
              <path id="Trazado_188450" data-name="Trazado 188450" d="M293.593,108.287a1.448,1.448,0,1,1-1.447-1.448A1.448,1.448,0,0,1,293.593,108.287Z" transform="translate(-275.303 -87.914)" fill="#fafafa"/>
              <rect id="Rectángulo_41138" data-name="Rectángulo 41138" width="2.896" height="9.411" transform="translate(15.395 6.89)" fill="#f0f0f0"/>
              <rect id="Rectángulo_41139" data-name="Rectángulo 41139" width="2.896" height="1.327" transform="translate(15.395 6.89)" fill="#fafafa" opacity="0.6"/>
            </g>
            <g id="Grupo_128366" data-name="Grupo 128366" transform="translate(48.459 9.66)">
              <g id="Grupo_128361" data-name="Grupo 128361" transform="translate(0 4.416)">
                <path id="Trazado_188451" data-name="Trazado 188451" d="M248.956,101.751V98.123a.348.348,0,0,0,0-.7c-1.383,0-2.767-.009-4.151-.017v5.036h4.151A.348.348,0,0,0,248.956,101.751Z" transform="translate(-233.468 -97.398)" fill="#ebebeb"/>
                <rect id="Rectángulo_41140" data-name="Rectángulo 41140" width="3.224" height="3.623" transform="translate(12.263 0.724)" fill="#f5f5f5"/>
                <path id="Trazado_188452" data-name="Trazado 188452" d="M236,102.445H224.822c-.768,0-1.391-.968-1.391-2.162s.623-2.162,1.391-2.162H236Z" transform="translate(-223.061 -97.745)" fill="#fafafa"/>
                <g id="Grupo_128360" data-name="Grupo 128360">
                  <path id="Trazado_188453" data-name="Trazado 188453" d="M235.649,97.416c-3.66,0-7.325-.066-10.984,0-2.506.046-2.641,4.85-.183,5.018,1.714.117,3.477,0,5.194,0h5.973a.348.348,0,0,0,0-.695H225.243c-.8,0-1.377-.009-1.687-.956-.268-.819-.184-2.492.915-2.673a2.428,2.428,0,0,1,.377,0h10.8a.348.348,0,0,0,0-.7Z" transform="translate(-222.709 -97.387)" fill="#e6e6e6"/>
                </g>
              </g>
              <g id="Grupo_128363" data-name="Grupo 128363" transform="translate(1.761)">
                <path id="Trazado_188454" data-name="Trazado 188454" d="M249.466,92.659V89.434a.309.309,0,0,0,0-.617c-1.229,0-2.459-.008-3.688-.016v4.476h3.688A.309.309,0,0,0,249.466,92.659Z" transform="translate(-235.703 -88.791)" fill="#ebebeb"/>
                <rect id="Rectángulo_41141" data-name="Rectángulo 41141" width="2.865" height="3.22" transform="translate(10.898 0.644)" fill="#f5f5f5"/>
                <path id="Trazado_188455" data-name="Trazado 188455" d="M237.953,93.276H228.02c-.683,0-1.237-.86-1.237-1.921s.554-1.921,1.237-1.921h9.934Z" transform="translate(-226.454 -89.099)" fill="#fafafa"/>
                <g id="Grupo_128362" data-name="Grupo 128362">
                  <path id="Trazado_188456" data-name="Trazado 188456" d="M237.641,88.807c-3.252,0-6.51-.059-9.761,0-2.228.04-2.347,4.31-.163,4.46,1.523.1,3.09,0,4.616,0h5.308a.309.309,0,0,0,0-.617h-9.247c-.714,0-1.224-.008-1.5-.85-.239-.729-.163-2.214.813-2.376a2.208,2.208,0,0,1,.335,0h9.6a.309.309,0,0,0,0-.617Z" transform="translate(-226.142 -88.781)" fill="#e6e6e6"/>
                </g>
              </g>
              <g id="Grupo_128365" data-name="Grupo 128365" transform="translate(0 9.347)">
                <path id="Trazado_188457" data-name="Trazado 188457" d="M248.956,111.363v-3.628a.348.348,0,0,0,0-.7c-1.383,0-2.767-.009-4.151-.017v5.036h4.151A.348.348,0,0,0,248.956,111.363Z" transform="translate(-233.468 -107.01)" fill="#ebebeb"/>
                <rect id="Rectángulo_41142" data-name="Rectángulo 41142" width="3.224" height="3.623" transform="translate(12.263 0.724)" fill="#f5f5f5"/>
                <path id="Trazado_188458" data-name="Trazado 188458" d="M236,112.057H224.822c-.768,0-1.391-.968-1.391-2.162s.623-2.162,1.391-2.162H236Z" transform="translate(-223.061 -107.357)" fill="#fafafa"/>
                <g id="Grupo_128364" data-name="Grupo 128364">
                  <path id="Trazado_188459" data-name="Trazado 188459" d="M235.649,107.028c-3.66,0-7.325-.066-10.984,0-2.506.046-2.641,4.85-.183,5.018,1.714.118,3.477,0,5.194,0h5.973a.348.348,0,0,0,0-.695H225.243c-.8,0-1.377-.009-1.687-.956-.268-.819-.184-2.491.915-2.673a2.429,2.429,0,0,1,.377,0h10.8a.348.348,0,0,0,0-.7Z" transform="translate(-222.709 -106.999)" fill="#e6e6e6"/>
                </g>
              </g>
            </g>
            <g id="Grupo_128369" data-name="Grupo 128369" transform="translate(0 23.762)">
              <rect id="Rectángulo_41143" data-name="Rectángulo 41143" width="124.922" height="3.615" transform="translate(0)" fill="#f5f5f5"/>
              <g id="Grupo_128367" data-name="Grupo 128367" transform="translate(118.19 3.615)">
                <path id="Trazado_188460" data-name="Trazado 188460" d="M358.619,132.1v-8.788h4.394Z" transform="translate(-358.619 -123.312)" fill="#e0e0e0"/>
                <path id="Trazado_188461" data-name="Trazado 188461" d="M360.816,132.1l4.394-8.788h-2.2l-4.394,8.788Z" transform="translate(-358.619 -123.312)" fill="#f5f5f5"/>
              </g>
              <g id="Grupo_128368" data-name="Grupo 128368" transform="translate(0 3.615)">
                <path id="Trazado_188462" data-name="Trazado 188462" d="M136.937,132.1v-8.788h-4.394Z" transform="translate(-130.345 -123.312)" fill="#e0e0e0"/>
                <path id="Trazado_188463" data-name="Trazado 188463" d="M132.654,132.1l-4.394-8.788h2.2l4.394,8.788Z" transform="translate(-128.26 -123.312)" fill="#f5f5f5"/>
              </g>
            </g>
            <g id="Grupo_128370" data-name="Grupo 128370" transform="translate(91.856 4.362)">
              <path id="Trazado_188464" data-name="Trazado 188464" d="M326.411,88.346v-.332a9.559,9.559,0,1,0-19.118,0v9.892h19.118Z" transform="translate(-307.293 -78.454)" fill="#f0f0f0"/>
              <path id="Trazado_188465" data-name="Trazado 188465" d="M311.368,90a7.468,7.468,0,1,0,7.469-7.469A7.468,7.468,0,0,0,311.368,90Z" transform="translate(-309.277 -80.438)" fill="#fafafa"/>
              <path id="Trazado_188466" data-name="Trazado 188466" d="M318.837,83.709a7.464,7.464,0,0,0-7.439,6.879c-.015-.2-.03-.39-.03-.59A7.468,7.468,0,1,1,326.3,90c0,.2-.014.394-.03.59A7.464,7.464,0,0,0,318.837,83.709Z" transform="translate(-309.277 -80.438)" fill="#e6e6e6"/>
              <path id="Trazado_188467" data-name="Trazado 188467" d="M315.981,92.6h3.927V88.675a.79.79,0,1,1,1.581,0v4.717a.79.79,0,0,1-.79.79h-4.717a.79.79,0,0,1,0-1.58Z" transform="translate(-311.139 -83.046)" fill="#e0e0e0"/>
              <path id="Trazado_188468" data-name="Trazado 188468" d="M315.981,97.126a.79.79,0,0,1,0-1.58H320.7a.79.79,0,1,1,0,1.58Z" transform="translate(-311.139 -86.777)" fill="#f5f5f5"/>
              <path id="Trazado_188469" data-name="Trazado 188469" d="M324.384,87.142a.79.79,0,0,1,1.581,0v4.717a.79.79,0,0,1-1.581,0Z" transform="translate(-315.615 -82.3)" fill="#ebebeb"/>
            </g>
            <g id="Grupo_128374" data-name="Grupo 128374" transform="translate(16.189 5.982)">
              <g id="Grupo_128372" data-name="Grupo 128372" transform="translate(12.155)">
                <g id="Grupo_128371" data-name="Grupo 128371">
                  <path id="Trazado_188470" data-name="Trazado 188470" d="M197.593,99.478H183.505l1.563-17.866h14.088Z" transform="translate(-183.505 -81.612)" fill="#ebebeb"/>
                  <path id="Trazado_188471" data-name="Trazado 188471" d="M210.963,99.478h.673L213.2,81.612h-.673Z" transform="translate(-196.876 -81.612)" fill="#e0e0e0"/>
                  <path id="Trazado_188472" data-name="Trazado 188472" d="M197.831,99.385H186.616l1.244-14.223h11.215Z" transform="translate(-185.02 -83.341)" fill="#e0e0e0"/>
                  <path id="Trazado_188473" data-name="Trazado 188473" d="M197.983,99.326h-9.369l1.039-11.881h9.369Z" transform="translate(-185.993 -84.452)" fill="#fafafa"/>
                </g>
                <path id="Trazado_188474" data-name="Trazado 188474" d="M197.215,97.676a3.226,3.226,0,1,0,0-6.451C195.434,91.225,195.434,97.676,197.215,97.676Z" transform="translate(-189.531 -86.293)" fill="#e6e6e6"/>
              </g>
              <g id="Grupo_128373" data-name="Grupo 128373" transform="translate(0 6.808)">
                <path id="Trazado_188475" data-name="Trazado 188475" d="M173.838,105.939l.967-11.058H160.782l-.967,11.058Z" transform="translate(-159.814 -94.881)" fill="#f0f0f0"/>
                <path id="Trazado_188476" data-name="Trazado 188476" d="M187.148,105.939l.967-11.058h.755l-.967,11.058Z" transform="translate(-173.124 -94.881)" fill="#e0e0e0"/>
                <path id="Trazado_188477" data-name="Trazado 188477" d="M173.958,105.882l.77-8.8H163.564l-.77,8.8Z" transform="translate(-161.265 -95.951)" fill="#fafafa"/>
                <path id="Trazado_188478" data-name="Trazado 188478" d="M174.035,105.845l.643-7.354h-9.326l-.643,7.354Z" transform="translate(-162.197 -96.639)" fill="#ebebeb"/>
                <path id="Trazado_188479" data-name="Trazado 188479" d="M173.626,104.9a2.085,2.085,0,0,0,0-4.169C172.475,100.735,172.475,104.9,173.626,104.9Z" transform="translate(-166.119 -97.731)" fill="#f5f5f5"/>
              </g>
            </g>
          </g>
          <g id="Grupo_128377" data-name="Grupo 128377" transform="translate(31.324 109.373)">
            <path id="Trazado_188480" data-name="Trazado 188480" d="M69.992,310.868a.2.2,0,0,1-.067-.143c-.047-1.008-.652-10.891-6.7-17.662-5.121-5.728.131-1.64,2.41.2a.211.211,0,0,0,.315-.271c-1.606-2.716-5.638-9.895-4.24-11.292,1.321-1.321,4.05,5.235,5.268,8.415a.211.211,0,0,0,.406-.1c-.351-3.366-.862-10.4,1.034-10.157,1.878.245,1.353,9.545.983,14.1a.211.211,0,0,0,.412.078c.847-2.8,2.46-6.939,4.352-5.843,2.8,1.623-4.124,7.322-3.691,13.508C70.894,307.764,71.007,311.741,69.992,310.868Z" transform="translate(-61.051 -273.838)" fill="#f5f5f5"/>
            <g id="Grupo_128376" data-name="Grupo 128376" transform="translate(11.824 4.269)">
              <path id="Trazado_188481" data-name="Trazado 188481" d="M84.1,310.957c-.012-.017.034-.1.092-.139,6.973-4.825,5.256-15.447,3.137-22.035a17.778,17.778,0,0,1-1.035-4.553,28.279,28.279,0,0,1,3.364,6.225c.13.279.455.181.408-.122-.531-3.4-.739-14.074,2.346-13.884,1.395.086-.157,9.372-.216,11.266-.01.305.368.42.446.136.913-3.294,7.21-10.1,8.353-8.741.485.578-2.457,3.778-3.46,5.281a45.055,45.055,0,0,0-4.368,9.11c-.106.278.236.569.384.336,1.116-1.761,5.28-5.993,6.689-3.9,1.022,1.521-1.7,3.722-3.048,5.028-2.383,2.316-4.656,4.867-5.811,7.946C90.593,305.012,84.941,312.082,84.1,310.957Z" transform="translate(-84.096 -276.446)" fill="#f5f5f5"/>
            </g>
            <path id="Trazado_188482" data-name="Trazado 188482" d="M78.84,305.889a.243.243,0,0,0,.071-.178c-.01-1.226.075-13.265,6.977-21.885,5.84-7.292-.268-1.983-2.913.4a.257.257,0,0,1-.4-.308c1.772-3.4,6.193-12.385,4.4-13.989-1.691-1.517-4.572,6.624-5.841,10.564a.256.256,0,0,1-.5-.091c.2-4.11.361-12.689-1.925-12.264-2.264.421-1.014,11.677-.264,17.179a.256.256,0,0,1-.495.122c-1.213-3.344-3.444-8.263-5.669-6.807-3.294,2.155,5.489,8.618,5.371,16.156C77.54,302.18,77.666,307.016,78.84,305.889Z" transform="translate(-66.161 -268.126)" fill="#e6e6e6"/>
            <path id="Trazado_188483" data-name="Trazado 188483" d="M83.335,357.281a121.988,121.988,0,0,0,3.47-21.494H71.2a122,122,0,0,0,3.47,21.494,3.281,3.281,0,0,0,3.172,2.427h2.321A3.282,3.282,0,0,0,83.335,357.281Z" transform="translate(-65.993 -301.072)" fill="#e6e6e6"/>
          </g>
          <g id="Grupo_128378" data-name="Grupo 128378" transform="translate(199.077 129.907)">
            <path id="Trazado_188484" data-name="Trazado 188484" d="M409.653,347.976H395.607a3.21,3.21,0,0,1-3.206-3.039l-1.718-32.213h23.894l-1.718,32.213A3.21,3.21,0,0,1,409.653,347.976Z" transform="translate(-389.313 -310.376)" fill="#e6e6e6"/>
            <rect id="Rectángulo_41144" data-name="Rectángulo 41144" width="6.475" height="6.475" transform="translate(10.08 4.324)" fill="#fafafa"/>
            <rect id="Rectángulo_41145" data-name="Rectángulo 41145" width="6.475" height="6.475" transform="translate(10.08 12.392)" fill="#fafafa"/>
            <rect id="Rectángulo_41146" data-name="Rectángulo 41146" width="6.475" height="6.475" transform="translate(10.08 20.461)" fill="#fafafa"/>
            <rect id="Rectángulo_41147" data-name="Rectángulo 41147" width="6.475" height="6.475" transform="translate(10.08 28.53)" fill="#fafafa"/>
            <rect id="Rectángulo_41148" data-name="Rectángulo 41148" width="26.635" height="2.348" rx="1.174" fill="#f5f5f5"/>
            <path id="Trazado_188485" data-name="Trazado 188485" d="M427.291,363.755h-3.764v6.474h3.288a1.3,1.3,0,0,0,.16-.544Z" transform="translate(-405.305 -335.225)" fill="#fafafa"/>
            <path id="Trazado_188486" data-name="Trazado 188486" d="M400.838,363.755h-3.764l.317,5.931a1.3,1.3,0,0,0,.16.544h3.288Z" transform="translate(-392.425 -335.225)" fill="#fafafa"/>
            <path id="Trazado_188487" data-name="Trazado 188487" d="M400.43,348.028h-4.194l.345,6.475h3.849Z" transform="translate(-392.016 -327.567)" fill="#fafafa"/>
            <path id="Trazado_188488" data-name="Trazado 188488" d="M400.021,332.3H395.4l.345,6.475h4.279Z" transform="translate(-391.608 -319.909)" fill="#fafafa"/>
            <path id="Trazado_188489" data-name="Trazado 188489" d="M399.613,316.575h-5.055l.345,6.475h4.71Z" transform="translate(-391.199 -312.252)" fill="#fafafa"/>
            <path id="Trazado_188490" data-name="Trazado 188490" d="M423.527,348.028V354.5h3.849l.345-6.475Z" transform="translate(-405.305 -327.567)" fill="#fafafa"/>
            <path id="Trazado_188491" data-name="Trazado 188491" d="M423.527,332.3v6.475h4.279l.345-6.475Z" transform="translate(-405.305 -319.909)" fill="#fafafa"/>
            <path id="Trazado_188492" data-name="Trazado 188492" d="M423.527,316.575v6.475h4.71l.345-6.475Z" transform="translate(-405.305 -312.252)" fill="#fafafa"/>
          </g>
        </g>
        <g id="Shadow" transform="translate(26.315 177.581)">
          <ellipse id="_Path_" data-name="&lt;Path&gt;" cx="99.479" cy="5.81" rx="99.479" ry="5.81" fill="#f5f5f5"/>
        </g>
        <g id="Extraction" transform="translate(40.367 47.214)">
          <g id="Grupo_128381" data-name="Grupo 128381">
            <g id="Grupo_128379" data-name="Grupo 128379" transform="translate(0)">
              <path id="Trazado_188493" data-name="Trazado 188493" d="M241.746,195.457c-3.631,0-7.921-6.637-11.706-12.492a72.386,72.386,0,0,0-7.46-10.263h8.49v-4.1H220.658a67.269,67.269,0,0,0,5.434-7.645c2.843-4.4,6.383-9.873,9.088-9.873h7.963v-4.1H235.18c-4.939,0-8.629,5.707-12.535,11.749-2.844,4.4-6.383,9.873-9.088,9.873H122.67c-2.705,0-6.245-5.474-9.088-9.873-3.907-6.042-7.6-11.749-12.535-11.749H93.083v4.1h7.963c2.705,0,6.245,5.474,9.088,9.873a67.269,67.269,0,0,0,5.434,7.645H78.678v4.1h41.383a72.389,72.389,0,0,0-7.46,10.263c-3.785,5.855-8.076,12.492-11.707,12.492H85.8v4.1h15.094c5.865,0,10.377-6.979,15.153-14.369,3.785-5.855,8.075-12.491,11.706-12.491h87.131c3.632,0,7.921,6.637,11.707,12.492,4.776,7.389,9.288,14.368,15.153,14.368H256.84v-4.1Z" transform="translate(-78.678 -146.975)" fill="#263238"/>
            </g>
            <g id="Grupo_128380" data-name="Grupo 128380" transform="translate(0 1.748)" opacity="0.4">
              <path id="Trazado_188494" data-name="Trazado 188494" d="M351.517,195.209l-.218.317c3.024,2.086,5.883,6.29,9.04,11.164l.323-.209C357.483,201.572,354.6,197.335,351.517,195.209Z" transform="translate(-211.426 -172.21)" fill="#fff"/>
              <path id="Trazado_188495" data-name="Trazado 188495" d="M377.038,228.963l-.316.221a35.749,35.749,0,0,0,4.637,5.623l.263-.281A35.381,35.381,0,0,1,377.038,228.963Z" transform="translate(-223.805 -188.645)" fill="#fff"/>
              <path id="Trazado_188496" data-name="Trazado 188496" d="M370.834,220.347c.664,1.026,1.328,2.047,1.994,3.038l.32-.214c-.664-.99-1.328-2.009-1.99-3.033Z" transform="translate(-220.938 -184.348)" fill="#fff"/>
              <path id="Trazado_188497" data-name="Trazado 188497" d="M388.738,242.036l-.226.312a6.97,6.97,0,0,0,4.1,1.53h10.181v-.385H392.613A6.6,6.6,0,0,1,388.738,242.036Z" transform="translate(-229.546 -195.011)" fill="#fff"/>
              <rect id="Rectángulo_41149" data-name="Rectángulo 41149" width="3.078" height="0.385" transform="translate(175.084 48.483)" fill="#fff"/>
              <rect id="Rectángulo_41150" data-name="Rectángulo 41150" width="3.078" height="0.385" transform="translate(0 21.623)" fill="#fff"/>
              <rect id="Rectángulo_41151" data-name="Rectángulo 41151" width="11.938" height="0.385" transform="translate(6.063 21.623)" fill="#fff"/>
              <path id="Trazado_188498" data-name="Trazado 188498" d="M119.578,191.633v.385h23.875v-.385h-.868a5.018,5.018,0,0,1-2.771-.94l-.211.322a6.964,6.964,0,0,0,1.149.619Z" transform="translate(-98.593 -170.011)" fill="#fff"/>
              <rect id="Rectángulo_41152" data-name="Rectángulo 41152" width="11.937" height="0.385" transform="translate(107.532 21.623)" fill="#fff"/>
              <path id="Trazado_188499" data-name="Trazado 188499" d="M341.221,192.018v-.385H331.6a6.963,6.963,0,0,0,1.149-.619l-.211-.322a5.018,5.018,0,0,1-2.771.94H317.346v.385H331.1a5.5,5.5,0,0,1,2.118.449l.148-.355c-.086-.036-.171-.062-.257-.094Z" transform="translate(-194.893 -170.011)" fill="#fff"/>
              <rect id="Rectángulo_41153" data-name="Rectángulo 41153" width="5.969" height="0.385" transform="translate(98.578 21.623)" fill="#fff"/>
              <rect id="Rectángulo_41154" data-name="Rectángulo 41154" width="23.875" height="0.385" transform="translate(71.719 21.623)" fill="#fff"/>
              <rect id="Rectángulo_41155" data-name="Rectángulo 41155" width="3.078" height="0.385" transform="translate(149.313 21.623)" fill="#fff"/>
              <path id="Trazado_188500" data-name="Trazado 188500" d="M355.906,174.421l-.323-.21a44.374,44.374,0,0,1-5.334,7.068l.269.274A44.645,44.645,0,0,0,355.906,174.421Z" transform="translate(-210.914 -161.985)" fill="#fff"/>
              <path id="Trazado_188501" data-name="Trazado 188501" d="M373.629,150.767h2.66v-.385h-2.66c-3.918,0-7.479,5.5-10.621,10.355l.323.209C366.419,156.175,369.92,150.766,373.629,150.767Z" transform="translate(-217.127 -150.382)" fill="#fff"/>
              <rect id="Rectángulo_41156" data-name="Rectángulo 41156" width="3.078" height="0.385" transform="translate(161.387)" fill="#fff"/>
              <path id="Trazado_188502" data-name="Trazado 188502" d="M150.366,181.279a44.373,44.373,0,0,1-5.334-7.068l-.323.21a44.645,44.645,0,0,0,5.388,7.132Z" transform="translate(-110.83 -161.985)" fill="#fff"/>
              <path id="Trazado_188503" data-name="Trazado 188503" d="M130.049,160.946l.323-.209c-3.142-4.854-6.7-10.355-10.621-10.355h-2.66v.385h2.66C123.46,150.766,126.96,156.175,130.049,160.946Z" transform="translate(-97.382 -150.382)" fill="#fff"/>
              <rect id="Rectángulo_41157" data-name="Rectángulo 41157" width="3.078" height="0.385" transform="translate(14.405)" fill="#fff"/>
              <path id="Trazado_188504" data-name="Trazado 188504" d="M188.517,192.526h-.908v.385h12.845v-.385H188.517Z" transform="translate(-131.72 -170.903)" fill="#fff"/>
              <path id="Trazado_188505" data-name="Trazado 188505" d="M148.936,206.481l.323.209c3.157-4.874,6.016-9.078,9.041-11.164l-.219-.317C155,197.336,152.116,201.573,148.936,206.481Z" transform="translate(-112.889 -172.21)" fill="#fff"/>
              <path id="Trazado_188506" data-name="Trazado 188506" d="M172.18,192.526h-1.233v.148a6.5,6.5,0,0,0-1.033.33l.148.355a5.505,5.505,0,0,1,2.118-.449h5v-.385h-5Z" transform="translate(-123.104 -170.903)" fill="#fff"/>
              <path id="Trazado_188507" data-name="Trazado 188507" d="M112.317,243.494H102.136v.385h10.181a6.968,6.968,0,0,0,4.1-1.53l-.226-.312A6.6,6.6,0,0,1,112.317,243.494Z" transform="translate(-90.1 -195.011)" fill="#fff"/>
              <path id="Trazado_188508" data-name="Trazado 188508" d="M143.143,223.171l.32.214c.666-.991,1.33-2.012,1.994-3.038l-.323-.209C144.471,221.162,143.808,222.181,143.143,223.171Z" transform="translate(-110.068 -184.348)" fill="#fff"/>
              <path id="Trazado_188509" data-name="Trazado 188509" d="M132.213,234.526l.263.281a35.72,35.72,0,0,0,4.637-5.623l-.315-.221A35.378,35.378,0,0,1,132.213,234.526Z" transform="translate(-104.746 -188.645)" fill="#fff"/>
              <rect id="Rectángulo_41158" data-name="Rectángulo 41158" width="3.078" height="0.385" transform="translate(7.122 48.483)" fill="#fff"/>
            </g>
          </g>
        </g>
        <g id="Folders" transform="translate(32.329 32.125)">
          <g id="Grupo_128385" data-name="Grupo 128385" transform="translate(7.36 55.709)">
            <g id="Grupo_128382" data-name="Grupo 128382" transform="translate(3.26)">
              <path id="Trazado_188510" data-name="Trazado 188510" d="M103.522,226.146H99.759a2.64,2.64,0,0,0-2.2,1.182l-.551.832a2.421,2.421,0,0,1-2.018,1.085h-9.7a1.576,1.576,0,0,0-1.576,1.576v15.154h21.88v-16.73l-.192-1.455A1.892,1.892,0,0,0,103.522,226.146Z" transform="translate(-83.709 -226.146)" fill="#407bff"/>
              <path id="Trazado_188511" data-name="Trazado 188511" d="M103.522,226.146H99.759a2.64,2.64,0,0,0-2.2,1.182l-.551.832a2.421,2.421,0,0,1-2.018,1.085h-9.7a1.576,1.576,0,0,0-1.576,1.576v15.154h21.88v-16.73l-.192-1.455A1.892,1.892,0,0,0,103.522,226.146Z" transform="translate(-83.709 -226.146)" fill="#fff" opacity="0.2"/>
            </g>
            <g id="Grupo_128383" data-name="Grupo 128383" transform="translate(4.901 5.013)">
              <rect id="Rectángulo_41159" data-name="Rectángulo 41159" width="18.598" height="12.718" fill="#263238"/>
              <rect id="Rectángulo_41160" data-name="Rectángulo 41160" width="18.598" height="12.718" fill="#fff" opacity="0.9"/>
            </g>
            <g id="Grupo_128384" data-name="Grupo 128384" transform="translate(0 6.381)">
              <path id="Trazado_188512" data-name="Trazado 188512" d="M102.5,252.03H80.615l-3.209-11.689a1.391,1.391,0,0,1,1.341-1.759H96.678a2.787,2.787,0,0,1,2.688,2.049Z" transform="translate(-77.356 -238.582)" fill="#407bff"/>
              <path id="Trazado_188513" data-name="Trazado 188513" d="M102.5,252.03H80.615l-3.209-11.689a1.391,1.391,0,0,1,1.341-1.759H96.678a2.787,2.787,0,0,1,2.688,2.049Z" transform="translate(-77.356 -238.582)" fill="#fff" opacity="0.6"/>
            </g>
          </g>
          <g id="Grupo_128393" data-name="Grupo 128393" transform="translate(4.023)">
            <g id="Grupo_128386" data-name="Grupo 128386">
              <path id="Trazado_188514" data-name="Trazado 188514" d="M73.082,117.566h4.059a2.847,2.847,0,0,1,2.373,1.275l.594.9a2.612,2.612,0,0,0,2.177,1.17h10.47a1.7,1.7,0,0,1,1.7,1.7v14.96a1.389,1.389,0,0,1-1.389,1.389H72.24a1.389,1.389,0,0,1-1.389-1.389v-16.66l.208-1.57A2.041,2.041,0,0,1,73.082,117.566Z" transform="translate(-70.851 -117.566)" fill="#407bff"/>
              <path id="Trazado_188515" data-name="Trazado 188515" d="M73.082,117.566h4.059a2.847,2.847,0,0,1,2.373,1.275l.594.9a2.612,2.612,0,0,0,2.177,1.17h10.47a1.7,1.7,0,0,1,1.7,1.7v14.96a1.389,1.389,0,0,1-1.389,1.389H72.24a1.389,1.389,0,0,1-1.389-1.389v-16.66l.208-1.57A2.041,2.041,0,0,1,73.082,117.566Z" transform="translate(-70.851 -117.566)" fill="#fff" opacity="0.6"/>
            </g>
            <g id="Grupo_128387" data-name="Grupo 128387" transform="translate(17.263 3.343)">
              <rect id="Rectángulo_41161" data-name="Rectángulo 41161" width="2.097" height="14.538" fill="#263238"/>
              <rect id="Rectángulo_41162" data-name="Rectángulo 41162" width="2.097" height="14.538" fill="#fff" opacity="0.5"/>
            </g>
            <rect id="Rectángulo_41163" data-name="Rectángulo 41163" width="1.609" height="1.197" transform="translate(16.765 4.033)" fill="#263238"/>
            <rect id="Rectángulo_41164" data-name="Rectángulo 41164" width="1.609" height="1.197" transform="translate(16.765 6.64)" fill="#263238"/>
            <rect id="Rectángulo_41165" data-name="Rectángulo 41165" width="1.609" height="1.197" transform="translate(16.765 9.246)" fill="#263238"/>
            <rect id="Rectángulo_41166" data-name="Rectángulo 41166" width="1.609" height="1.197" transform="translate(16.765 11.853)" fill="#263238"/>
            <rect id="Rectángulo_41167" data-name="Rectángulo 41167" width="1.609" height="1.197" transform="translate(16.765 14.46)" fill="#263238"/>
            <g id="Grupo_128388" data-name="Grupo 128388" transform="translate(16.765 4.033)">
              <rect id="Rectángulo_41168" data-name="Rectángulo 41168" width="1.609" height="1.197" fill="#fff" opacity="0.7"/>
              <rect id="Rectángulo_41169" data-name="Rectángulo 41169" width="1.609" height="1.197" transform="translate(0 2.607)" fill="#fff" opacity="0.7"/>
              <rect id="Rectángulo_41170" data-name="Rectángulo 41170" width="1.609" height="1.197" transform="translate(0 5.213)" fill="#fff" opacity="0.7"/>
              <rect id="Rectángulo_41171" data-name="Rectángulo 41171" width="1.609" height="1.197" transform="translate(0 7.82)" fill="#fff" opacity="0.7"/>
              <rect id="Rectángulo_41172" data-name="Rectángulo 41172" width="1.609" height="1.197" transform="translate(0 10.427)" fill="#fff" opacity="0.7"/>
            </g>
            <g id="Grupo_128391" data-name="Grupo 128391" transform="translate(18.326 5.23)">
              <g id="Grupo_128389" data-name="Grupo 128389">
                <rect id="Rectángulo_41173" data-name="Rectángulo 41173" width="1.609" height="1.197" fill="#263238"/>
                <rect id="Rectángulo_41174" data-name="Rectángulo 41174" width="1.609" height="1.197" transform="translate(0 2.607)" fill="#263238"/>
                <rect id="Rectángulo_41175" data-name="Rectángulo 41175" width="1.609" height="1.197" transform="translate(0 5.213)" fill="#263238"/>
                <rect id="Rectángulo_41176" data-name="Rectángulo 41176" width="1.609" height="1.197" transform="translate(0 7.82)" fill="#263238"/>
                <rect id="Rectángulo_41177" data-name="Rectángulo 41177" width="1.609" height="1.197" transform="translate(0 10.427)" fill="#263238"/>
              </g>
              <g id="Grupo_128390" data-name="Grupo 128390" opacity="0.8">
                <rect id="Rectángulo_41178" data-name="Rectángulo 41178" width="1.609" height="1.197" fill="#fff"/>
                <rect id="Rectángulo_41179" data-name="Rectángulo 41179" width="1.609" height="1.197" transform="translate(0 2.607)" fill="#fff"/>
                <rect id="Rectángulo_41180" data-name="Rectángulo 41180" width="1.609" height="1.197" transform="translate(0 5.213)" fill="#fff"/>
                <rect id="Rectángulo_41181" data-name="Rectángulo 41181" width="1.609" height="1.197" transform="translate(0 7.82)" fill="#fff"/>
                <rect id="Rectángulo_41182" data-name="Rectángulo 41182" width="1.609" height="1.197" transform="translate(0 10.427)" fill="#fff"/>
              </g>
            </g>
            <g id="Grupo_128392" data-name="Grupo 128392" transform="translate(16.068 16.854)">
              <path id="Trazado_188516" data-name="Trazado 188516" d="M102.168,150.415v4.768h4.614v-4.768Zm3.872,3.9h-3.058v-3.037h3.058Z" transform="translate(-102.168 -150.415)" fill="#263238"/>
              <path id="Trazado_188517" data-name="Trazado 188517" d="M102.168,150.415v4.768h4.614v-4.768Zm3.872,3.9h-3.058v-3.037h3.058Z" transform="translate(-102.168 -150.415)" fill="#fff" opacity="0.7"/>
            </g>
          </g>
          <g id="Grupo_128403" data-name="Grupo 128403" transform="translate(0 27.492)">
            <g id="Grupo_128394" data-name="Grupo 128394">
              <path id="Trazado_188518" data-name="Trazado 188518" d="M84.4,171.148H63.011v4.768l4.76,4.76H89.159v-4.768Z" transform="translate(-63.011 -171.148)" fill="#407bff"/>
              <path id="Trazado_188519" data-name="Trazado 188519" d="M84.4,171.148H63.011v4.768l4.76,4.76H89.159v-4.768Z" transform="translate(-63.011 -171.148)" fill="#fff" opacity="0.3"/>
            </g>
            <g id="Grupo_128395" data-name="Grupo 128395" transform="translate(4.76 9.524)">
              <rect id="Rectángulo_41183" data-name="Rectángulo 41183" width="21.388" height="4.768" fill="#407bff"/>
              <rect id="Rectángulo_41184" data-name="Rectángulo 41184" width="21.388" height="4.768" fill="#fff" opacity="0.3"/>
            </g>
            <g id="Grupo_128396" data-name="Grupo 128396" transform="translate(4.76 14.288)">
              <rect id="Rectángulo_41185" data-name="Rectángulo 41185" width="21.388" height="4.768" fill="#407bff"/>
              <rect id="Rectángulo_41186" data-name="Rectángulo 41186" width="21.388" height="4.768" fill="#fff" opacity="0.6"/>
            </g>
            <g id="Grupo_128397" data-name="Grupo 128397" transform="translate(4.76 4.76)">
              <rect id="Rectángulo_41187" data-name="Rectángulo 41187" width="21.388" height="4.768" fill="#407bff"/>
            </g>
            <g id="Grupo_128398" data-name="Grupo 128398" transform="translate(8.067)">
              <path id="Trazado_188520" data-name="Trazado 188520" d="M83.495,190.2h4.8v-14.3l-4.76-4.76h-4.8l4.76,4.76Z" transform="translate(-78.735 -171.148)" fill="#407bff"/>
              <path id="Trazado_188521" data-name="Trazado 188521" d="M83.495,190.2h4.8v-14.3l-4.76-4.76h-4.8l4.76,4.76Z" transform="translate(-78.735 -171.148)" opacity="0.2"/>
            </g>
            <g id="Grupo_128399" data-name="Grupo 128399" transform="translate(11.55 8.166)">
              <path id="Trazado_188522" data-name="Trazado 188522" d="M85.523,187.065v7.484h7.242v-7.484Zm6.078,6.126H86.8v-4.767h4.8Z" transform="translate(-85.523 -187.065)" fill="#263238"/>
              <path id="Trazado_188523" data-name="Trazado 188523" d="M85.523,187.065v7.484h7.242v-7.484Zm6.078,6.126H86.8v-4.767h4.8Z" transform="translate(-85.523 -187.065)" fill="#fff" opacity="0.5"/>
            </g>
            <g id="Grupo_128400" data-name="Grupo 128400">
              <path id="Trazado_188524" data-name="Trazado 188524" d="M63.011,171.148v4.768l4.76,4.76v-4.768Z" transform="translate(-63.011 -171.148)" fill="#263238"/>
              <path id="Trazado_188525" data-name="Trazado 188525" d="M63.011,171.148v4.768l4.76,4.76v-4.768Z" transform="translate(-63.011 -171.148)" fill="#fff" opacity="0.5"/>
            </g>
            <g id="Grupo_128401" data-name="Grupo 128401" transform="translate(0 4.764)">
              <path id="Trazado_188526" data-name="Trazado 188526" d="M63.011,180.434V185.2l4.76,4.76v-4.768Z" transform="translate(-63.011 -180.434)" fill="#263238"/>
              <path id="Trazado_188527" data-name="Trazado 188527" d="M63.011,180.434V185.2l4.76,4.76v-4.768Z" transform="translate(-63.011 -180.434)" fill="#fff" opacity="0.6"/>
            </g>
            <g id="Grupo_128402" data-name="Grupo 128402" transform="translate(0 9.528)">
              <path id="Trazado_188528" data-name="Trazado 188528" d="M63.011,189.719v4.768l4.76,4.76v-4.768Z" transform="translate(-63.011 -189.719)" fill="#263238"/>
              <path id="Trazado_188529" data-name="Trazado 188529" d="M63.011,189.719v4.768l4.76,4.76v-4.768Z" transform="translate(-63.011 -189.719)" fill="#fff" opacity="0.8"/>
            </g>
          </g>
        </g>
        <g id="Documents" transform="translate(189.858 33.263)">
          <g id="Grupo_128416" data-name="Grupo 128416" transform="translate(9.457 48.282)">
            <g id="Grupo_128404" data-name="Grupo 128404">
              <rect id="Rectángulo_41188" data-name="Rectángulo 41188" width="23.326" height="31.388" fill="#407bff"/>
              <rect id="Rectángulo_41189" data-name="Rectángulo 41189" width="23.326" height="31.388" fill="#fff" opacity="0.7"/>
            </g>
            <rect id="Rectángulo_41190" data-name="Rectángulo 41190" width="20.278" height="8.171" transform="translate(1.524 1.524)" fill="#fff" opacity="0.7"/>
            <rect id="Rectángulo_41191" data-name="Rectángulo 41191" width="20.278" height="8.171" transform="translate(1.524 11.609)" fill="#fff" opacity="0.7"/>
            <path id="Trazado_188530" data-name="Trazado 188530" d="M411.724,222.78l-1.892-2.306-2.336,2.848-2.334-3.355-2.479,2.479-2.432-1.368-2.212,3.673-2.212-3.674-2.511,1.418-1.869-1.056v.875l1.869,1.056,2.24-1.265,2.483,4.123,2.483-4.123,2.291,1.288,2.244-2.244,2.389,3.435,2.386-2.909,1.892,2.306Z" transform="translate(-389.922 -216.848)" fill="#407bff"/>
            <path id="Trazado_188531" data-name="Trazado 188531" d="M411.724,222.78l-1.892-2.306-2.336,2.848-2.334-3.355-2.479,2.479-2.432-1.368-2.212,3.673-2.212-3.674-2.511,1.418-1.869-1.056v.875l1.869,1.056,2.24-1.265,2.483,4.123,2.483-4.123,2.291,1.288,2.244-2.244,2.389,3.435,2.386-2.909,1.892,2.306Z" transform="translate(-389.922 -216.848)" fill="#fff" opacity="0.5"/>
            <path id="Trazado_188532" data-name="Trazado 188532" d="M411.724,239.971l-1.906,1.076-2.511-1.418-2.213,3.673-2.212-3.673L400.451,241l-2.479-2.479-2.334,3.355-2.337-2.847-1.855,2.261v1.2l1.855-2.261,2.387,2.908,2.389-3.435,2.244,2.244,2.291-1.288,2.483,4.123,2.483-4.123,2.24,1.265,1.906-1.076Z" transform="translate(-389.922 -225.882)" fill="#407bff"/>
            <path id="Trazado_188533" data-name="Trazado 188533" d="M411.724,239.971l-1.906,1.076-2.511-1.418-2.213,3.673-2.212-3.673L400.451,241l-2.479-2.479-2.334,3.355-2.337-2.847-1.855,2.261v1.2l1.855-2.261,2.387,2.908,2.389-3.435,2.244,2.244,2.291-1.288,2.483,4.123,2.483-4.123,2.24,1.265,1.906-1.076Z" transform="translate(-389.922 -225.882)" fill="#fff" opacity="0.5"/>
            <g id="Grupo_128415" data-name="Grupo 128415" transform="translate(9.53 21.313)">
              <g id="Grupo_128409" data-name="Grupo 128409">
                <g id="Grupo_128405" data-name="Grupo 128405">
                  <path id="Trazado_188534" data-name="Trazado 188534" d="M407.419,256.19h11.619a.381.381,0,0,0,0-.762H407.419a.381.381,0,0,0,0,.762Z" transform="translate(-407.051 -255.428)" fill="#263238"/>
                </g>
                <g id="Grupo_128406" data-name="Grupo 128406" transform="translate(0 2.074)">
                  <path id="Trazado_188535" data-name="Trazado 188535" d="M407.419,260.233h10.1a.381.381,0,0,0,0-.762h-10.1a.381.381,0,0,0,0,.762Z" transform="translate(-407.051 -259.471)" fill="#263238"/>
                </g>
                <g id="Grupo_128407" data-name="Grupo 128407" transform="translate(0 4.148)">
                  <path id="Trazado_188536" data-name="Trazado 188536" d="M407.419,264.275h10.1a.381.381,0,0,0,0-.762h-10.1a.381.381,0,0,0,0,.762Z" transform="translate(-407.051 -263.513)" fill="#263238"/>
                </g>
                <g id="Grupo_128408" data-name="Grupo 128408" transform="translate(0 6.223)">
                  <path id="Trazado_188537" data-name="Trazado 188537" d="M407.419,268.318h10.6a.381.381,0,0,0,0-.762h-10.6a.381.381,0,0,0,0,.762Z" transform="translate(-407.051 -267.556)" fill="#263238"/>
                </g>
              </g>
              <g id="Grupo_128414" data-name="Grupo 128414" opacity="0.4">
                <g id="Grupo_128410" data-name="Grupo 128410">
                  <path id="Trazado_188538" data-name="Trazado 188538" d="M407.419,256.19h11.619a.381.381,0,0,0,0-.762H407.419a.381.381,0,0,0,0,.762Z" transform="translate(-407.051 -255.428)" fill="#fff"/>
                </g>
                <g id="Grupo_128411" data-name="Grupo 128411" transform="translate(0 2.074)">
                  <path id="Trazado_188539" data-name="Trazado 188539" d="M407.419,260.233h10.1a.381.381,0,0,0,0-.762h-10.1a.381.381,0,0,0,0,.762Z" transform="translate(-407.051 -259.471)" fill="#fff"/>
                </g>
                <g id="Grupo_128412" data-name="Grupo 128412" transform="translate(0 4.148)">
                  <path id="Trazado_188540" data-name="Trazado 188540" d="M407.419,264.275h10.1a.381.381,0,0,0,0-.762h-10.1a.381.381,0,0,0,0,.762Z" transform="translate(-407.051 -263.513)" fill="#fff"/>
                </g>
                <g id="Grupo_128413" data-name="Grupo 128413" transform="translate(0 6.223)">
                  <path id="Trazado_188541" data-name="Trazado 188541" d="M407.419,268.318h10.6a.381.381,0,0,0,0-.762h-10.6a.381.381,0,0,0,0,.762Z" transform="translate(-407.051 -267.556)" fill="#fff"/>
                </g>
              </g>
            </g>
          </g>
          <g id="Grupo_128439" data-name="Grupo 128439" transform="translate(10.385)">
            <g id="Grupo_128417" data-name="Grupo 128417">
              <rect id="Rectángulo_41192" data-name="Rectángulo 41192" width="21.205" height="28.535" fill="#407bff"/>
              <rect id="Rectángulo_41193" data-name="Rectángulo 41193" width="21.205" height="28.535" fill="#fff" opacity="0.6"/>
            </g>
            <rect id="Rectángulo_41194" data-name="Rectángulo 41194" width="18.435" height="7.428" transform="translate(1.385 1.385)" fill="#fff" opacity="0.7"/>
            <g id="Grupo_128436" data-name="Grupo 128436" transform="translate(8.719 10.352)">
              <g id="Grupo_128418" data-name="Grupo 128418">
                <path id="Trazado_188542" data-name="Trazado 188542" d="M407.612,140.655h10.563a.347.347,0,0,0,0-.693H407.612a.347.347,0,0,0,0,.693Z" transform="translate(-407.278 -139.962)" fill="#263238"/>
              </g>
              <g id="Grupo_128419" data-name="Grupo 128419" transform="translate(0 1.886)">
                <path id="Trazado_188543" data-name="Trazado 188543" d="M407.612,144.33h9.177a.347.347,0,0,0,0-.693h-9.177a.347.347,0,0,0,0,.693Z" transform="translate(-407.278 -143.637)" fill="#263238"/>
              </g>
              <g id="Grupo_128420" data-name="Grupo 128420" transform="translate(0 3.771)">
                <path id="Trazado_188544" data-name="Trazado 188544" d="M407.612,148h9.177a.347.347,0,0,0,0-.693h-9.177a.347.347,0,0,0,0,.693Z" transform="translate(-407.278 -147.312)" fill="#263238"/>
              </g>
              <g id="Grupo_128421" data-name="Grupo 128421" transform="translate(0 5.657)">
                <path id="Trazado_188545" data-name="Trazado 188545" d="M407.612,151.68h9.639a.347.347,0,0,0,0-.693h-9.639a.347.347,0,0,0,0,.693Z" transform="translate(-407.278 -150.987)" fill="#263238"/>
              </g>
              <g id="Grupo_128422" data-name="Grupo 128422" transform="translate(0 7.542)">
                <path id="Trazado_188546" data-name="Trazado 188546" d="M407.612,155.355H415.4a.347.347,0,0,0,0-.693h-7.792a.347.347,0,0,0,0,.693Z" transform="translate(-407.278 -154.662)" fill="#263238"/>
              </g>
              <g id="Grupo_128423" data-name="Grupo 128423" transform="translate(0 9.428)">
                <path id="Trazado_188547" data-name="Trazado 188547" d="M407.612,159.03h10.563a.347.347,0,0,0,0-.693H407.612a.347.347,0,0,0,0,.693Z" transform="translate(-407.278 -158.337)" fill="#263238"/>
              </g>
              <g id="Grupo_128424" data-name="Grupo 128424" transform="translate(0 11.313)">
                <path id="Trazado_188548" data-name="Trazado 188548" d="M407.612,162.7h9.177a.347.347,0,0,0,0-.693h-9.177a.347.347,0,0,0,0,.693Z" transform="translate(-407.278 -162.012)" fill="#263238"/>
              </g>
              <g id="Grupo_128425" data-name="Grupo 128425" transform="translate(0 13.199)">
                <path id="Trazado_188549" data-name="Trazado 188549" d="M407.612,166.38h9.177a.347.347,0,0,0,0-.693h-9.177a.347.347,0,0,0,0,.693Z" transform="translate(-407.278 -165.687)" fill="#263238"/>
              </g>
              <g id="Grupo_128426" data-name="Grupo 128426" transform="translate(0 15.084)">
                <path id="Trazado_188550" data-name="Trazado 188550" d="M407.612,170.055h9.639a.347.347,0,0,0,0-.693h-9.639a.347.347,0,0,0,0,.693Z" transform="translate(-407.278 -169.362)" fill="#263238"/>
              </g>
              <g id="Grupo_128427" data-name="Grupo 128427" opacity="0.4">
                <path id="Trazado_188551" data-name="Trazado 188551" d="M407.612,140.655h10.563a.347.347,0,0,0,0-.693H407.612a.347.347,0,0,0,0,.693Z" transform="translate(-407.278 -139.962)" fill="#fff"/>
              </g>
              <g id="Grupo_128428" data-name="Grupo 128428" transform="translate(0 1.886)" opacity="0.4">
                <path id="Trazado_188552" data-name="Trazado 188552" d="M407.612,144.33h9.177a.347.347,0,0,0,0-.693h-9.177a.347.347,0,0,0,0,.693Z" transform="translate(-407.278 -143.637)" fill="#fff"/>
              </g>
              <g id="Grupo_128429" data-name="Grupo 128429" transform="translate(0 3.771)" opacity="0.4">
                <path id="Trazado_188553" data-name="Trazado 188553" d="M407.612,148h9.177a.347.347,0,0,0,0-.693h-9.177a.347.347,0,0,0,0,.693Z" transform="translate(-407.278 -147.312)" fill="#fff"/>
              </g>
              <g id="Grupo_128430" data-name="Grupo 128430" transform="translate(0 5.657)" opacity="0.4">
                <path id="Trazado_188554" data-name="Trazado 188554" d="M407.612,151.68h9.639a.347.347,0,0,0,0-.693h-9.639a.347.347,0,0,0,0,.693Z" transform="translate(-407.278 -150.987)" fill="#fff"/>
              </g>
              <g id="Grupo_128431" data-name="Grupo 128431" transform="translate(0 7.542)" opacity="0.4">
                <path id="Trazado_188555" data-name="Trazado 188555" d="M407.612,155.355H415.4a.347.347,0,0,0,0-.693h-7.792a.347.347,0,0,0,0,.693Z" transform="translate(-407.278 -154.662)" fill="#fff"/>
              </g>
              <g id="Grupo_128432" data-name="Grupo 128432" transform="translate(0 9.428)" opacity="0.4">
                <path id="Trazado_188556" data-name="Trazado 188556" d="M407.612,159.03h10.563a.347.347,0,0,0,0-.693H407.612a.347.347,0,0,0,0,.693Z" transform="translate(-407.278 -158.337)" fill="#fff"/>
              </g>
              <g id="Grupo_128433" data-name="Grupo 128433" transform="translate(0 11.313)" opacity="0.4">
                <path id="Trazado_188557" data-name="Trazado 188557" d="M407.612,162.7h9.177a.347.347,0,0,0,0-.693h-9.177a.347.347,0,0,0,0,.693Z" transform="translate(-407.278 -162.012)" fill="#fff"/>
              </g>
              <g id="Grupo_128434" data-name="Grupo 128434" transform="translate(0 13.199)" opacity="0.4">
                <path id="Trazado_188558" data-name="Trazado 188558" d="M407.612,166.38h9.177a.347.347,0,0,0,0-.693h-9.177a.347.347,0,0,0,0,.693Z" transform="translate(-407.278 -165.687)" fill="#fff"/>
              </g>
              <g id="Grupo_128435" data-name="Grupo 128435" transform="translate(0 15.084)" opacity="0.4">
                <path id="Trazado_188559" data-name="Trazado 188559" d="M407.612,170.055h9.639a.347.347,0,0,0,0-.693h-9.639a.347.347,0,0,0,0,.693Z" transform="translate(-407.278 -169.362)" fill="#fff"/>
              </g>
            </g>
            <g id="Grupo_128437" data-name="Grupo 128437" transform="translate(1.385 10.699)">
              <rect id="Rectángulo_41195" data-name="Rectángulo 41195" width="5.196" height="5.196" fill="#407bff"/>
              <rect id="Rectángulo_41196" data-name="Rectángulo 41196" width="5.196" height="5.196" fill="#fff" opacity="0.3"/>
            </g>
            <g id="Grupo_128438" data-name="Grupo 128438" transform="translate(5.679 2.513)">
              <rect id="Rectángulo_41197" data-name="Rectángulo 41197" width="1.407" height="2.813" transform="translate(0 2.813)" fill="#407bff"/>
              <rect id="Rectángulo_41198" data-name="Rectángulo 41198" width="1.407" height="4.22" transform="translate(2.813 1.407)" fill="#407bff"/>
              <rect id="Rectángulo_41199" data-name="Rectángulo 41199" width="1.407" height="3.517" transform="translate(5.627 2.11)" fill="#407bff"/>
              <rect id="Rectángulo_41200" data-name="Rectángulo 41200" width="1.407" height="5.627" transform="translate(8.44)" fill="#407bff"/>
            </g>
          </g>
          <g id="Grupo_128474" data-name="Grupo 128474" transform="translate(0 23.707)">
            <g id="Grupo_128440" data-name="Grupo 128440">
              <rect id="Rectángulo_41201" data-name="Rectángulo 41201" width="21.205" height="28.535" fill="#407bff"/>
              <rect id="Rectángulo_41202" data-name="Rectángulo 41202" width="21.205" height="28.535" fill="#fff" opacity="0.8"/>
            </g>
            <g id="Grupo_128469" data-name="Grupo 128469" transform="translate(8.719 2.366)">
              <g id="Grupo_128454" data-name="Grupo 128454">
                <g id="Grupo_128441" data-name="Grupo 128441">
                  <path id="Trazado_188560" data-name="Trazado 188560" d="M387.372,171.295h10.563a.347.347,0,0,0,0-.693H387.372a.347.347,0,0,0,0,.693Z" transform="translate(-387.038 -170.602)" fill="#263238"/>
                </g>
                <g id="Grupo_128442" data-name="Grupo 128442" transform="translate(0 1.886)">
                  <path id="Trazado_188561" data-name="Trazado 188561" d="M387.372,174.97h9.177a.347.347,0,0,0,0-.693h-9.177a.347.347,0,0,0,0,.693Z" transform="translate(-387.038 -174.277)" fill="#263238"/>
                </g>
                <g id="Grupo_128443" data-name="Grupo 128443" transform="translate(0 3.771)">
                  <path id="Trazado_188562" data-name="Trazado 188562" d="M387.372,178.645h9.177a.347.347,0,0,0,0-.693h-9.177a.347.347,0,0,0,0,.693Z" transform="translate(-387.038 -177.952)" fill="#263238"/>
                </g>
                <g id="Grupo_128444" data-name="Grupo 128444" transform="translate(0 5.657)">
                  <path id="Trazado_188563" data-name="Trazado 188563" d="M387.372,182.32h9.639a.347.347,0,0,0,0-.693h-9.639a.347.347,0,0,0,0,.693Z" transform="translate(-387.038 -181.627)" fill="#263238"/>
                </g>
                <g id="Grupo_128445" data-name="Grupo 128445" transform="translate(0 7.542)">
                  <path id="Trazado_188564" data-name="Trazado 188564" d="M387.372,185.995h7.792a.347.347,0,0,0,0-.693h-7.792a.347.347,0,0,0,0,.693Z" transform="translate(-387.038 -185.302)" fill="#263238"/>
                </g>
                <g id="Grupo_128446" data-name="Grupo 128446" transform="translate(0 9.428)">
                  <path id="Trazado_188565" data-name="Trazado 188565" d="M387.372,189.67h10.563a.347.347,0,0,0,0-.693H387.372a.347.347,0,0,0,0,.693Z" transform="translate(-387.038 -188.977)" fill="#263238"/>
                </g>
                <g id="Grupo_128447" data-name="Grupo 128447" transform="translate(0 11.313)">
                  <path id="Trazado_188566" data-name="Trazado 188566" d="M387.372,193.345h9.177a.347.347,0,0,0,0-.693h-9.177a.347.347,0,0,0,0,.693Z" transform="translate(-387.038 -192.652)" fill="#263238"/>
                </g>
                <g id="Grupo_128448" data-name="Grupo 128448" transform="translate(0 13.199)">
                  <path id="Trazado_188567" data-name="Trazado 188567" d="M387.372,197.02h9.177a.347.347,0,0,0,0-.693h-9.177a.347.347,0,0,0,0,.693Z" transform="translate(-387.038 -196.327)" fill="#263238"/>
                </g>
                <g id="Grupo_128449" data-name="Grupo 128449" transform="translate(0 16.972)">
                  <path id="Trazado_188568" data-name="Trazado 188568" d="M387.372,204.374h7.792a.347.347,0,0,0,0-.693h-7.792a.347.347,0,0,0,0,.693Z" transform="translate(-387.038 -203.681)" fill="#263238"/>
                </g>
                <g id="Grupo_128450" data-name="Grupo 128450" transform="translate(0 18.857)">
                  <path id="Trazado_188569" data-name="Trazado 188569" d="M387.372,208.049h10.563a.347.347,0,0,0,0-.693H387.372a.347.347,0,0,0,0,.693Z" transform="translate(-387.038 -207.356)" fill="#263238"/>
                </g>
                <g id="Grupo_128451" data-name="Grupo 128451" transform="translate(0 20.743)">
                  <path id="Trazado_188570" data-name="Trazado 188570" d="M387.372,211.724h9.177a.347.347,0,0,0,0-.693h-9.177a.347.347,0,0,0,0,.693Z" transform="translate(-387.038 -211.031)" fill="#263238"/>
                </g>
                <g id="Grupo_128452" data-name="Grupo 128452" transform="translate(0 22.628)">
                  <path id="Trazado_188571" data-name="Trazado 188571" d="M387.372,215.4h9.177a.347.347,0,0,0,0-.693h-9.177a.347.347,0,0,0,0,.693Z" transform="translate(-387.038 -214.706)" fill="#263238"/>
                </g>
                <g id="Grupo_128453" data-name="Grupo 128453" transform="translate(0 15.084)">
                  <path id="Trazado_188572" data-name="Trazado 188572" d="M387.372,200.695h9.639a.347.347,0,0,0,0-.693h-9.639a.347.347,0,0,0,0,.693Z" transform="translate(-387.038 -200.002)" fill="#263238"/>
                </g>
              </g>
              <g id="Grupo_128468" data-name="Grupo 128468" opacity="0.4">
                <g id="Grupo_128455" data-name="Grupo 128455">
                  <path id="Trazado_188573" data-name="Trazado 188573" d="M387.372,171.295h10.563a.347.347,0,0,0,0-.693H387.372a.347.347,0,0,0,0,.693Z" transform="translate(-387.038 -170.602)" fill="#fff"/>
                </g>
                <g id="Grupo_128456" data-name="Grupo 128456" transform="translate(0 1.886)">
                  <path id="Trazado_188574" data-name="Trazado 188574" d="M387.372,174.97h9.177a.347.347,0,0,0,0-.693h-9.177a.347.347,0,0,0,0,.693Z" transform="translate(-387.038 -174.277)" fill="#fff"/>
                </g>
                <g id="Grupo_128457" data-name="Grupo 128457" transform="translate(0 3.771)">
                  <path id="Trazado_188575" data-name="Trazado 188575" d="M387.372,178.645h9.177a.347.347,0,0,0,0-.693h-9.177a.347.347,0,0,0,0,.693Z" transform="translate(-387.038 -177.952)" fill="#fff"/>
                </g>
                <g id="Grupo_128458" data-name="Grupo 128458" transform="translate(0 5.657)">
                  <path id="Trazado_188576" data-name="Trazado 188576" d="M387.372,182.32h9.639a.347.347,0,0,0,0-.693h-9.639a.347.347,0,0,0,0,.693Z" transform="translate(-387.038 -181.627)" fill="#fff"/>
                </g>
                <g id="Grupo_128459" data-name="Grupo 128459" transform="translate(0 7.542)">
                  <path id="Trazado_188577" data-name="Trazado 188577" d="M387.372,185.995h7.792a.347.347,0,0,0,0-.693h-7.792a.347.347,0,0,0,0,.693Z" transform="translate(-387.038 -185.302)" fill="#fff"/>
                </g>
                <g id="Grupo_128460" data-name="Grupo 128460" transform="translate(0 9.428)">
                  <path id="Trazado_188578" data-name="Trazado 188578" d="M387.372,189.67h10.563a.347.347,0,0,0,0-.693H387.372a.347.347,0,0,0,0,.693Z" transform="translate(-387.038 -188.977)" fill="#fff"/>
                </g>
                <g id="Grupo_128461" data-name="Grupo 128461" transform="translate(0 11.313)">
                  <path id="Trazado_188579" data-name="Trazado 188579" d="M387.372,193.345h9.177a.347.347,0,0,0,0-.693h-9.177a.347.347,0,0,0,0,.693Z" transform="translate(-387.038 -192.652)" fill="#fff"/>
                </g>
                <g id="Grupo_128462" data-name="Grupo 128462" transform="translate(0 13.199)">
                  <path id="Trazado_188580" data-name="Trazado 188580" d="M387.372,197.02h9.177a.347.347,0,0,0,0-.693h-9.177a.347.347,0,0,0,0,.693Z" transform="translate(-387.038 -196.327)" fill="#fff"/>
                </g>
                <g id="Grupo_128463" data-name="Grupo 128463" transform="translate(0 16.972)">
                  <path id="Trazado_188581" data-name="Trazado 188581" d="M387.372,204.374h7.792a.347.347,0,0,0,0-.693h-7.792a.347.347,0,0,0,0,.693Z" transform="translate(-387.038 -203.681)" fill="#fff"/>
                </g>
                <g id="Grupo_128464" data-name="Grupo 128464" transform="translate(0 18.857)">
                  <path id="Trazado_188582" data-name="Trazado 188582" d="M387.372,208.049h10.563a.347.347,0,0,0,0-.693H387.372a.347.347,0,0,0,0,.693Z" transform="translate(-387.038 -207.356)" fill="#fff"/>
                </g>
                <g id="Grupo_128465" data-name="Grupo 128465" transform="translate(0 20.743)">
                  <path id="Trazado_188583" data-name="Trazado 188583" d="M387.372,211.724h9.177a.347.347,0,0,0,0-.693h-9.177a.347.347,0,0,0,0,.693Z" transform="translate(-387.038 -211.031)" fill="#fff"/>
                </g>
                <g id="Grupo_128466" data-name="Grupo 128466" transform="translate(0 22.628)">
                  <path id="Trazado_188584" data-name="Trazado 188584" d="M387.372,215.4h9.177a.347.347,0,0,0,0-.693h-9.177a.347.347,0,0,0,0,.693Z" transform="translate(-387.038 -214.706)" fill="#fff"/>
                </g>
                <g id="Grupo_128467" data-name="Grupo 128467" transform="translate(0 15.084)">
                  <path id="Trazado_188585" data-name="Trazado 188585" d="M387.372,200.695h9.639a.347.347,0,0,0,0-.693h-9.639a.347.347,0,0,0,0,.693Z" transform="translate(-387.038 -200.002)" fill="#fff"/>
                </g>
              </g>
            </g>
            <g id="Grupo_128470" data-name="Grupo 128470" transform="translate(1.485 10.841)">
              <path id="Trazado_188586" data-name="Trazado 188586" d="M374.708,189.776l-.837-.837a3.175,3.175,0,0,0-.933,2.251h1.184A2,2,0,0,1,374.708,189.776Z" transform="translate(-372.938 -188.006)" fill="#407bff"/>
              <path id="Trazado_188587" data-name="Trazado 188587" d="M376.123,195.328a2,2,0,0,1-2-2h-1.184a3.185,3.185,0,0,0,3.185,3.185Z" transform="translate(-372.938 -190.143)" fill="#407bff"/>
              <path id="Trazado_188588" data-name="Trazado 188588" d="M376.123,195.328a2,2,0,0,1-2-2h-1.184a3.185,3.185,0,0,0,3.185,3.185Z" transform="translate(-372.938 -190.143)" fill="#fff" opacity="0.3"/>
              <path id="Trazado_188589" data-name="Trazado 188589" d="M375.593,188.891a2,2,0,0,1,1.415-.586v-1.184a3.175,3.175,0,0,0-2.252.933Z" transform="translate(-373.823 -187.121)" fill="#407bff"/>
              <path id="Trazado_188590" data-name="Trazado 188590" d="M375.593,188.891a2,2,0,0,1,1.415-.586v-1.184a3.175,3.175,0,0,0-2.252.933Z" transform="translate(-373.823 -187.121)" opacity="0.5"/>
              <path id="Trazado_188591" data-name="Trazado 188591" d="M381.145,190.305a2,2,0,0,1-2,2v1.184a3.184,3.184,0,0,0,0-6.369V188.3A2,2,0,0,1,381.145,190.305Z" transform="translate(-375.96 -187.121)" fill="#407bff"/>
              <path id="Trazado_188592" data-name="Trazado 188592" d="M381.9,194.742l.837.837a3.175,3.175,0,0,0,.933-2.252h-1.184A1.992,1.992,0,0,1,381.9,194.742Z" transform="translate(-377.303 -190.143)" opacity="0.2"/>
            </g>
            <g id="Grupo_128473" data-name="Grupo 128473" transform="translate(1.485 2)">
              <g id="Grupo_128471" data-name="Grupo 128471">
                <path id="Trazado_188593" data-name="Trazado 188593" d="M375.593,178.853l-.837.837a3.175,3.175,0,0,0,2.252.932v-1.184A2,2,0,0,1,375.593,178.853Z" transform="translate(-373.823 -174.254)" fill="#407bff"/>
                <path id="Trazado_188594" data-name="Trazado 188594" d="M381.145,176.1a2,2,0,0,1-2,2v1.184a3.184,3.184,0,0,0,3.184-3.184Z" transform="translate(-375.96 -172.912)" fill="#407bff"/>
                <path id="Trazado_188595" data-name="Trazado 188595" d="M381.145,176.1a2,2,0,0,1-2,2v1.184a3.184,3.184,0,0,0,3.184-3.184Z" transform="translate(-375.96 -172.912)" fill="#fff" opacity="0.3"/>
                <path id="Trazado_188596" data-name="Trazado 188596" d="M374.708,177.511a2,2,0,0,1-.586-1.415h-1.184a3.176,3.176,0,0,0,.933,2.252Z" transform="translate(-372.938 -172.912)" fill="#407bff"/>
                <path id="Trazado_188597" data-name="Trazado 188597" d="M374.708,177.511a2,2,0,0,1-.586-1.415h-1.184a3.176,3.176,0,0,0,.933,2.252Z" transform="translate(-372.938 -172.912)" opacity="0.5"/>
                <path id="Trazado_188598" data-name="Trazado 188598" d="M376.123,171.074a2,2,0,0,1,2,2h1.184a3.184,3.184,0,0,0-6.369,0h1.184A2,2,0,0,1,376.123,171.074Z" transform="translate(-372.938 -169.89)" fill="#407bff"/>
                <path id="Trazado_188599" data-name="Trazado 188599" d="M380.56,171.66l.837-.837a3.173,3.173,0,0,0-2.251-.933v1.184A1.994,1.994,0,0,1,380.56,171.66Z" transform="translate(-375.96 -169.89)" opacity="0.2"/>
              </g>
              <g id="Grupo_128472" data-name="Grupo 128472" transform="translate(0 17.681)">
                <path id="Trazado_188600" data-name="Trazado 188600" d="M381.9,207.007l.837-.837a3.175,3.175,0,0,1,.933,2.252h-1.184A2,2,0,0,0,381.9,207.007Z" transform="translate(-377.303 -205.237)" fill="#407bff"/>
                <path id="Trazado_188601" data-name="Trazado 188601" d="M379.145,212.559a2,2,0,0,0,2-2h1.184a3.184,3.184,0,0,1-3.184,3.184Z" transform="translate(-375.96 -207.374)" fill="#407bff"/>
                <path id="Trazado_188602" data-name="Trazado 188602" d="M379.145,212.559a2,2,0,0,0,2-2h1.184a3.184,3.184,0,0,1-3.184,3.184Z" transform="translate(-375.96 -207.374)" fill="#fff" opacity="0.3"/>
                <path id="Trazado_188603" data-name="Trazado 188603" d="M380.56,206.122a2,2,0,0,0-1.415-.586v-1.184a3.174,3.174,0,0,1,2.251.933Z" transform="translate(-375.96 -204.352)" fill="#407bff"/>
                <path id="Trazado_188604" data-name="Trazado 188604" d="M380.56,206.122a2,2,0,0,0-1.415-.586v-1.184a3.174,3.174,0,0,1,2.251.933Z" transform="translate(-375.96 -204.352)" opacity="0.5"/>
                <path id="Trazado_188605" data-name="Trazado 188605" d="M374.122,207.537a2,2,0,0,0,2,2v1.184a3.184,3.184,0,1,1,0-6.369v1.184A2,2,0,0,0,374.122,207.537Z" transform="translate(-372.938 -204.352)" fill="#407bff"/>
                <path id="Trazado_188606" data-name="Trazado 188606" d="M374.708,211.974l-.837.837a3.174,3.174,0,0,1-.933-2.251h1.184A2,2,0,0,0,374.708,211.974Z" transform="translate(-372.938 -207.374)" opacity="0.2"/>
              </g>
            </g>
          </g>
        </g>
        <g id="Device" transform="translate(87.565 51.786)">
          <g id="Grupo_128497" data-name="Grupo 128497">
            <g id="Grupo_128493" data-name="Grupo 128493">
              <g id="Grupo_128476" data-name="Grupo 128476" transform="translate(21.559 46)">
                <path id="Rectángulo_41203" data-name="Rectángulo 41203" d="M0,0H12.033a1.737,1.737,0,0,1,1.737,1.737v0a1.737,1.737,0,0,1-1.737,1.737H0a0,0,0,0,1,0,0V0A0,0,0,0,1,0,0Z" transform="translate(25.527 16.003)" fill="#263238"/>
                <rect id="Rectángulo_41204" data-name="Rectángulo 41204" width="28.938" height="3.474" rx="1.737" transform="translate(0 16.003)"/>
                <rect id="Rectángulo_41205" data-name="Rectángulo 41205" width="28.938" height="3.474" rx="1.737" transform="translate(0 16.003)" fill="#fff" opacity="0.5"/>
                <g id="Grupo_128475" data-name="Grupo 128475" transform="translate(12.571)">
                  <path id="Trazado_188607" data-name="Trazado 188607" d="M255.316,261.547h6.691l-4.284-16h-2.407Z" transform="translate(-246.016 -245.543)" fill="#263238"/>
                  <path id="Trazado_188608" data-name="Trazado 188608" d="M252.206,261.547H238.549l-1.36-16h10.733Z" transform="translate(-237.19 -245.543)"/>
                  <path id="Trazado_188609" data-name="Trazado 188609" d="M252.206,261.547H238.549l-1.36-16h10.733Z" transform="translate(-237.19 -245.543)" fill="#fff" opacity="0.3"/>
                </g>
              </g>
              <path id="Trazado_188610" data-name="Trazado 188610" d="M323.055,155.886h-6.208l-4.806,54.934h6.208a2.62,2.62,0,0,0,2.559-2.353l4.394-50.228A2.122,2.122,0,0,0,323.055,155.886Z" transform="translate(-239.507 -155.886)" fill="#263238"/>
              <g id="Grupo_128477" data-name="Grupo 128477">
                <path id="Trazado_188611" data-name="Trazado 188611" d="M247.978,210.82H172.825a2.121,2.121,0,0,1-2.147-2.353l4.394-50.228a2.619,2.619,0,0,1,2.559-2.353h75.153a2.121,2.121,0,0,1,2.147,2.353l-4.394,50.228A2.619,2.619,0,0,1,247.978,210.82Z" transform="translate(-170.668 -155.886)" fill="#263238"/>
              </g>
              <path id="Trazado_188612" data-name="Trazado 188612" d="M247.978,210.82H172.825a2.121,2.121,0,0,1-2.147-2.353l4.394-50.228a2.619,2.619,0,0,1,2.559-2.353h75.153a2.121,2.121,0,0,1,2.147,2.353l-4.394,50.228A2.619,2.619,0,0,1,247.978,210.82Z" transform="translate(-170.668 -155.886)" fill="#fff" opacity="0.7"/>
              <path id="Trazado_188613" data-name="Trazado 188613" d="M249.212,206.977h-70.02a1.841,1.841,0,0,1-1.863-2.042L180.98,163.2a2.273,2.273,0,0,1,2.22-2.041h70.02a1.84,1.84,0,0,1,1.863,2.041l-3.651,41.734A2.273,2.273,0,0,1,249.212,206.977Z" transform="translate(-173.908 -158.454)" fill="#fafafa" opacity="0.9"/>
              <g id="Grupo_128478" data-name="Grupo 128478" transform="translate(51.621 7.211)">
                <path id="Trazado_188614" data-name="Trazado 188614" d="M279.388,185.233h-2.449l.429-4.9h2.449Z" transform="translate(-274.035 -175.002)" fill="#407bff"/>
                <path id="Trazado_188615" data-name="Trazado 188615" d="M279.388,185.233h-2.449l.429-4.9h2.449Z" transform="translate(-274.035 -175.002)" opacity="0.2"/>
                <path id="Trazado_188616" data-name="Trazado 188616" d="M288.936,182.908h-2.449l.643-7.348h2.449Z" transform="translate(-278.685 -172.677)" fill="#407bff"/>
                <path id="Trazado_188617" data-name="Trazado 188617" d="M298.484,184.071h-2.449l.536-6.123h2.449Z" transform="translate(-283.334 -173.84)" fill="#407bff"/>
                <path id="Trazado_188618" data-name="Trazado 188618" d="M308.032,180.584h-2.449l.857-9.8h2.449Z" transform="translate(-287.983 -170.353)" fill="#407bff"/>
                <path id="Trazado_188619" data-name="Trazado 188619" d="M308.032,180.584h-2.449l.857-9.8h2.449Z" transform="translate(-287.983 -170.353)" opacity="0.4"/>
                <path id="Trazado_188620" data-name="Trazado 188620" d="M293.779,179.72H272.226q.409-4.673.818-9.346c.051-.58-.854-.576-.9,0l-.857,9.8a.456.456,0,0,0,.452.453h22.045A.453.453,0,0,0,293.779,179.72Z" transform="translate(-271.28 -169.941)" fill="#407bff"/>
                <path id="Trazado_188621" data-name="Trazado 188621" d="M293.779,179.72H272.226q.409-4.673.818-9.346c.051-.58-.854-.576-.9,0l-.857,9.8a.456.456,0,0,0,.452.453h22.045A.453.453,0,0,0,293.779,179.72Z" transform="translate(-271.28 -169.941)" fill="#fff" opacity="0.5"/>
              </g>
              <g id="Grupo_128480" data-name="Grupo 128480" transform="translate(13.656 6.724)">
                <path id="Trazado_188622" data-name="Trazado 188622" d="M201.439,184.714l-1.6,1.468a5.092,5.092,0,0,0,3.806,1.636l.182-2.076A3.2,3.2,0,0,1,201.439,184.714Z" transform="translate(-198.53 -176.648)" fill="#407bff"/>
                <path id="Trazado_188623" data-name="Trazado 188623" d="M201.439,184.714l-1.6,1.468a5.092,5.092,0,0,0,3.806,1.636l.182-2.076A3.2,3.2,0,0,1,201.439,184.714Z" transform="translate(-198.53 -176.648)" opacity="0.5"/>
                <path id="Trazado_188624" data-name="Trazado 188624" d="M211.258,179.878a3.906,3.906,0,0,1-3.816,3.509l-.182,2.076a6.218,6.218,0,0,0,6.074-5.585Z" transform="translate(-202.143 -174.293)" fill="#407bff"/>
                <path id="Trazado_188625" data-name="Trazado 188625" d="M211.258,179.878a3.906,3.906,0,0,1-3.816,3.509l-.182,2.076a6.218,6.218,0,0,0,6.074-5.585Z" transform="translate(-202.143 -174.293)" opacity="0.1"/>
                <path id="Trazado_188626" data-name="Trazado 188626" d="M200.193,182.359a3.226,3.226,0,0,1-.811-2.481h-2.076a5.133,5.133,0,0,0,1.29,3.949Z" transform="translate(-197.285 -174.293)" fill="#407bff"/>
                <path id="Trazado_188627" data-name="Trazado 188627" d="M203.219,171.068a3.164,3.164,0,0,1,3.2,3.509H208.5a5.036,5.036,0,0,0-5.1-5.585,6.218,6.218,0,0,0-6.074,5.585H199.4A3.907,3.907,0,0,1,203.219,171.068Z" transform="translate(-197.305 -168.992)" fill="#407bff"/>
                <g id="Grupo_128479" data-name="Grupo 128479" transform="translate(0.022)">
                  <path id="Trazado_188628" data-name="Trazado 188628" d="M203.219,171.068a3.164,3.164,0,0,1,3.2,3.509H208.5a5.036,5.036,0,0,0-5.1-5.585,6.218,6.218,0,0,0-6.074,5.585H199.4A3.907,3.907,0,0,1,203.219,171.068Z" transform="translate(-197.327 -168.992)" fill="#fff" opacity="0.2"/>
                </g>
                <path id="Trazado_188629" data-name="Trazado 188629" d="M211.2,172.1l1.6-1.468a5.09,5.09,0,0,0-3.806-1.636l-.182,2.076A3.2,3.2,0,0,1,211.2,172.1Z" transform="translate(-202.897 -168.992)" fill="#fff" opacity="0.6"/>
              </g>
              <g id="Grupo_128482" data-name="Grupo 128482" transform="translate(29.213 6.724)">
                <path id="Trazado_188630" data-name="Trazado 188630" d="M231.76,184.714l-1.6,1.468a5.09,5.09,0,0,0,3.806,1.636l.182-2.076A3.2,3.2,0,0,1,231.76,184.714Z" transform="translate(-228.851 -176.648)" fill="#407bff"/>
                <path id="Trazado_188631" data-name="Trazado 188631" d="M231.76,184.714l-1.6,1.468a5.09,5.09,0,0,0,3.806,1.636l.182-2.076A3.2,3.2,0,0,1,231.76,184.714Z" transform="translate(-228.851 -176.648)" opacity="0.5"/>
                <path id="Trazado_188632" data-name="Trazado 188632" d="M241.579,179.878a3.906,3.906,0,0,1-3.816,3.509l-.182,2.076a6.218,6.218,0,0,0,6.074-5.585Z" transform="translate(-232.463 -174.293)" fill="#407bff"/>
                <path id="Trazado_188633" data-name="Trazado 188633" d="M241.579,179.878a3.906,3.906,0,0,1-3.816,3.509l-.182,2.076a6.218,6.218,0,0,0,6.074-5.585Z" transform="translate(-232.463 -174.293)" opacity="0.1"/>
                <path id="Trazado_188634" data-name="Trazado 188634" d="M230.514,182.359a3.225,3.225,0,0,1-.811-2.481h-2.076a5.131,5.131,0,0,0,1.29,3.949Z" transform="translate(-227.606 -174.293)" fill="#407bff"/>
                <path id="Trazado_188635" data-name="Trazado 188635" d="M233.54,171.068a3.164,3.164,0,0,1,3.2,3.509h2.076a5.036,5.036,0,0,0-5.1-5.585,6.218,6.218,0,0,0-6.074,5.585h2.076A3.907,3.907,0,0,1,233.54,171.068Z" transform="translate(-227.626 -168.992)" fill="#407bff"/>
                <g id="Grupo_128481" data-name="Grupo 128481" transform="translate(0.022)">
                  <path id="Trazado_188636" data-name="Trazado 188636" d="M233.54,171.068a3.164,3.164,0,0,1,3.2,3.509h2.076a5.036,5.036,0,0,0-5.1-5.585,6.218,6.218,0,0,0-6.074,5.585h2.076A3.907,3.907,0,0,1,233.54,171.068Z" transform="translate(-227.648 -168.992)" fill="#fff" opacity="0.2"/>
                </g>
                <path id="Trazado_188637" data-name="Trazado 188637" d="M241.523,172.1l1.6-1.468a5.092,5.092,0,0,0-3.806-1.636l-.182,2.076A3.2,3.2,0,0,1,241.523,172.1Z" transform="translate(-233.218 -168.992)" fill="#fff" opacity="0.6"/>
              </g>
              <g id="Grupo_128490" data-name="Grupo 128490" transform="translate(51.789 32.691)">
                <g id="Grupo_128486" data-name="Grupo 128486">
                  <g id="Grupo_128483" data-name="Grupo 128483" transform="translate(0.779)">
                    <path id="Trazado_188638" data-name="Trazado 188638" d="M276.051,222.526h-2.926l.256-2.923h2.925Zm-2.233-.634h1.653l.145-1.655h-1.652Z" transform="translate(-273.125 -219.603)" fill="#407bff"/>
                  </g>
                  <g id="Grupo_128484" data-name="Grupo 128484" transform="translate(0.389 4.452)">
                    <path id="Trazado_188639" data-name="Trazado 188639" d="M275.292,231.2h-2.926l.256-2.923h2.925Zm-2.233-.634h1.652l.145-1.655H273.2Z" transform="translate(-272.366 -228.28)" fill="#407bff"/>
                  </g>
                  <g id="Grupo_128485" data-name="Grupo 128485" transform="translate(0 8.904)">
                    <path id="Trazado_188640" data-name="Trazado 188640" d="M274.532,239.881h-2.925l.255-2.923h2.926Zm-2.233-.634h1.652l.145-1.655h-1.652Z" transform="translate(-271.607 -236.958)" fill="#407bff"/>
                  </g>
                </g>
                <g id="Grupo_128487" data-name="Grupo 128487" transform="translate(5.079 0.815)">
                  <path id="Trazado_188641" data-name="Trazado 188641" d="M282.159,222.617a.643.643,0,0,1-.651-.713.794.794,0,0,1,.776-.713h9.784a.643.643,0,0,1,.651.713.8.8,0,0,1-.776.713Z" transform="translate(-281.506 -221.191)" fill="#407bff"/>
                  <path id="Trazado_188642" data-name="Trazado 188642" d="M282.159,222.617a.643.643,0,0,1-.651-.713.794.794,0,0,1,.776-.713h9.784a.643.643,0,0,1,.651.713.8.8,0,0,1-.776.713Z" transform="translate(-281.506 -221.191)" fill="#fff" opacity="0.7"/>
                </g>
                <g id="Grupo_128488" data-name="Grupo 128488" transform="translate(4.305 9.652)">
                  <path id="Trazado_188643" data-name="Trazado 188643" d="M280.652,239.843a.644.644,0,0,1-.651-.714.794.794,0,0,1,.776-.713h8.2a.643.643,0,0,1,.651.713.794.794,0,0,1-.776.714Z" transform="translate(-279.999 -238.416)" fill="#407bff"/>
                  <path id="Trazado_188644" data-name="Trazado 188644" d="M280.652,239.843a.644.644,0,0,1-.651-.714.794.794,0,0,1,.776-.713h8.2a.643.643,0,0,1,.651.713.794.794,0,0,1-.776.714Z" transform="translate(-279.999 -238.416)" fill="#fff" opacity="0.4"/>
                </g>
                <g id="Grupo_128489" data-name="Grupo 128489" transform="translate(4.695 5.2)">
                  <path id="Trazado_188645" data-name="Trazado 188645" d="M281.412,231.165a.642.642,0,0,1-.651-.713.794.794,0,0,1,.775-.713H289.1a.643.643,0,0,1,.651.713.794.794,0,0,1-.776.713Z" transform="translate(-280.759 -229.739)" fill="#407bff"/>
                  <path id="Trazado_188646" data-name="Trazado 188646" d="M281.412,231.165a.642.642,0,0,1-.651-.713.794.794,0,0,1,.775-.713H289.1a.643.643,0,0,1,.651.713.794.794,0,0,1-.776.713Z" transform="translate(-280.759 -229.739)" fill="#fff" opacity="0.2"/>
                </g>
              </g>
              <g id="Grupo_128492" data-name="Grupo 128492" transform="translate(24.15 33.713)">
                <path id="Trazado_188647" data-name="Trazado 188647" d="M241.779,229.966l-2.213-3.019a.464.464,0,0,0-.718-.093l-2.345,2.583-1.844-3.032a.463.463,0,0,0-.718-.092c-.809.744-1.6,1.513-2.429,2.235-.247-.135-.486-.289-.728-.431l-1.338-.792a.469.469,0,0,0-.626.164l-2.368,3.433-1.768-3.433a.465.465,0,0,0-.626-.164l-1.129.609a13.68,13.68,0,0,0-1.225.683,9.044,9.044,0,0,0-.983-.587l-1.185-.7a.458.458,0,0,0-.462.79c.657.39,1.827,1.471,2.6,1.47a6.086,6.086,0,0,0,2.433-1.22L226,232.039a.463.463,0,0,0,.79,0l2.559-3.709,1.991,1.177a.469.469,0,0,0,.554-.071l2.269-2.087,1.872,3.078a.462.462,0,0,0,.719.092l2.381-2.623,1.855,2.53C241.333,230.9,242.128,230.441,241.779,229.966Z" transform="translate(-218.282 -223.829)" fill="#407bff"/>
                <g id="Grupo_128491" data-name="Grupo 128491">
                  <path id="Trazado_188648" data-name="Trazado 188648" d="M240.492,231.485h-21.8l.827-9.451c.052-.586-.863-.583-.915,0l-.867,9.909a.462.462,0,0,0,.457.458h22.295A.458.458,0,0,0,240.492,231.485Z" transform="translate(-217.738 -221.595)" fill="#407bff"/>
                  <path id="Trazado_188649" data-name="Trazado 188649" d="M240.492,231.485h-21.8l.827-9.451c.052-.586-.863-.583-.915,0l-.867,9.909a.462.462,0,0,0,.457.458h22.295A.458.458,0,0,0,240.492,231.485Z" transform="translate(-217.738 -221.595)" fill="#fff" opacity="0.5"/>
                </g>
              </g>
            </g>
            <g id="Grupo_128496" data-name="Grupo 128496" transform="translate(30.912 19.488)">
              <g id="Grupo_128494" data-name="Grupo 128494">
                <path id="Trazado_188650" data-name="Trazado 188650" d="M271.425,205.27h-38.9l.868-9.926h38.9Z" transform="translate(-231.698 -194.588)" fill="#407bff"/>
                <path id="Trazado_188651" data-name="Trazado 188651" d="M271.425,205.27h-38.9l.868-9.926h38.9Z" transform="translate(-231.698 -194.588)" fill="#fff" opacity="0.9"/>
                <path id="Trazado_188652" data-name="Trazado 188652" d="M271.335,205.308H230.917l1-11.438h40.417ZM232.562,203.8h37.391l.736-8.412H233.3Z" transform="translate(-230.917 -193.87)" fill="#263238"/>
              </g>
              <g id="Grupo_128495" data-name="Grupo 128495" transform="translate(6.26 3.528)">
                <path id="Trazado_188653" data-name="Trazado 188653" d="M246.467,204.338l-.069.787h-3.28l.371-4.236h3.2l-.069.787h-2.227l-.081.92h1.967l-.067.762h-1.967l-.086.98Z" transform="translate(-243.118 -200.816)" fill="#407bff"/>
                <path id="Trazado_188654" data-name="Trazado 188654" d="M253.159,205.124l-.894-1.47-1.133,1.47h-1.126l1.756-2.154-1.307-2.082h1.113l.854,1.374,1.076-1.374h1.059l-1.656,2.046,1.388,2.19Z" transform="translate(-246.472 -200.816)" fill="#407bff"/>
                <path id="Trazado_188655" data-name="Trazado 188655" d="M260.028,201.687h-1.355l.07-.8h3.692l-.07.8h-1.356l-.3,3.438h-.98Z" transform="translate(-250.692 -200.816)" fill="#407bff"/>
                <path id="Trazado_188656" data-name="Trazado 188656" d="M269.006,205.124l-.714-1.18h-.9l-.1,1.18h-.98l.371-4.236h1.833a2.245,2.245,0,0,1,.961.188,1.285,1.285,0,0,1,.592.533,1.391,1.391,0,0,1,.152.817,1.554,1.554,0,0,1-.3.814,1.629,1.629,0,0,1-.691.523l.831,1.362Zm.036-3.247a.961.961,0,0,0-.655-.191h-.8l-.129,1.477h.8a1.089,1.089,0,0,0,.689-.194.74.74,0,0,0,.278-.544A.62.62,0,0,0,269.042,201.878Z" transform="translate(-254.409 -200.816)" fill="#407bff"/>
                <path id="Trazado_188657" data-name="Trazado 188657" d="M277.317,204.217H275.35l-.455.908h-1l2.259-4.236h.968l1.523,4.236h-1.029Zm-.243-.744-.53-1.622-.814,1.622Z" transform="translate(-258.102 -200.816)" fill="#407bff"/>
                <path id="Trazado_188658" data-name="Trazado 188658" d="M284.681,204.847a1.843,1.843,0,0,1-.754-.78,2.037,2.037,0,0,1-.2-1.129,2.316,2.316,0,0,1,.4-1.129,2.392,2.392,0,0,1,.891-.781,2.6,2.6,0,0,1,1.2-.281,2.355,2.355,0,0,1,.978.193,1.763,1.763,0,0,1,.7.557l-.68.581a1.232,1.232,0,0,0-1.021-.5,1.5,1.5,0,0,0-.717.172,1.4,1.4,0,0,0-.523.481,1.512,1.512,0,0,0-.233.7,1.346,1.346,0,0,0,.111.7,1.087,1.087,0,0,0,.439.481,1.335,1.335,0,0,0,.687.172,1.477,1.477,0,0,0,1.109-.5l.579.581a2.211,2.211,0,0,1-.8.563,2.611,2.611,0,0,1-1.015.193A2.292,2.292,0,0,1,284.681,204.847Z" transform="translate(-262.887 -200.747)" fill="#407bff"/>
                <path id="Trazado_188659" data-name="Trazado 188659" d="M293.467,201.687h-1.355l.07-.8h3.692l-.07.8h-1.356l-.3,3.438h-.981Z" transform="translate(-266.974 -200.816)" fill="#407bff"/>
              </g>
            </g>
          </g>
        </g>
        <g id="Desk" transform="translate(65.115 117.362)">
          <g id="Grupo_128513" data-name="Grupo 128513" transform="translate(0 0)">
            <g id="Grupo_128498" data-name="Grupo 128498" transform="translate(15.313 3.402)">
              <rect id="Rectángulo_41206" data-name="Rectángulo 41206" width="105.504" height="58.989" fill="#407bff"/>
            </g>
            <g id="Grupo_128499" data-name="Grupo 128499" transform="translate(7.524 3.402)">
              <rect id="Rectángulo_41207" data-name="Rectángulo 41207" width="9.84" height="58.989" transform="translate(9.84 58.989) rotate(180)" fill="#407bff"/>
              <rect id="Rectángulo_41208" data-name="Rectángulo 41208" width="9.84" height="58.989" transform="translate(9.84 58.989) rotate(180)" fill="#fff" opacity="0.3"/>
            </g>
            <g id="Grupo_128500" data-name="Grupo 128500" transform="translate(5.459 3.402)">
              <rect id="Rectángulo_41209" data-name="Rectángulo 41209" width="108.033" height="5.22" fill="#407bff"/>
              <rect id="Rectángulo_41210" data-name="Rectángulo 41210" width="108.033" height="5.22" fill="#fff" opacity="0.6"/>
            </g>
            <g id="Grupo_128501" data-name="Grupo 128501" transform="translate(3.394 3.402)">
              <rect id="Rectángulo_41211" data-name="Rectángulo 41211" width="4.13" height="58.989" fill="#407bff"/>
              <rect id="Rectángulo_41212" data-name="Rectángulo 41212" width="4.13" height="58.989" fill="#fff" opacity="0.5"/>
            </g>
            <g id="Grupo_128502" data-name="Grupo 128502" transform="translate(116.372 3.402)">
              <rect id="Rectángulo_41213" data-name="Rectángulo 41213" width="9.84" height="58.989" transform="translate(9.84 58.989) rotate(180)" fill="#407bff"/>
              <rect id="Rectángulo_41214" data-name="Rectángulo 41214" width="9.84" height="58.989" transform="translate(9.84 58.989) rotate(180)" fill="#fff" opacity="0.3"/>
            </g>
            <g id="Grupo_128503" data-name="Grupo 128503" transform="translate(119.766)">
              <rect id="Rectángulo_41215" data-name="Rectángulo 41215" width="8.925" height="4.528" transform="translate(8.925 4.528) rotate(180)" fill="#407bff"/>
              <rect id="Rectángulo_41216" data-name="Rectángulo 41216" width="8.925" height="4.528" transform="translate(8.925 4.528) rotate(180)" fill="#fff" opacity="0.3"/>
            </g>
            <g id="Grupo_128504" data-name="Grupo 128504" transform="translate(64.855 11.438)">
              <rect id="Rectángulo_41217" data-name="Rectángulo 41217" width="44.571" height="50.953" fill="#407bff"/>
              <rect id="Rectángulo_41218" data-name="Rectángulo 41218" width="44.571" height="50.953" fill="#fff" opacity="0.5"/>
            </g>
            <g id="Grupo_128505" data-name="Grupo 128505" transform="translate(109.426 11.438)">
              <rect id="Rectángulo_41219" data-name="Rectángulo 41219" width="2.816" height="50.953" fill="#407bff"/>
              <rect id="Rectángulo_41220" data-name="Rectángulo 41220" width="2.816" height="50.953" fill="#fff" opacity="0.2"/>
            </g>
            <g id="Grupo_128510" data-name="Grupo 128510" transform="translate(67.671 14.215)">
              <g id="Grupo_128507" data-name="Grupo 128507">
                <rect id="Rectángulo_41221" data-name="Rectángulo 41221" width="38.939" height="11.787" transform="translate(0 13.961)" fill="#407bff"/>
                <g id="Grupo_128506" data-name="Grupo 128506">
                  <rect id="Rectángulo_41222" data-name="Rectángulo 41222" width="38.939" height="11.787" fill="#407bff"/>
                  <rect id="Rectángulo_41223" data-name="Rectángulo 41223" width="38.939" height="11.787" transform="translate(0 27.922)" fill="#407bff"/>
                </g>
              </g>
              <g id="Grupo_128509" data-name="Grupo 128509" opacity="0.7">
                <rect id="Rectángulo_41224" data-name="Rectángulo 41224" width="38.939" height="11.787" transform="translate(0 13.961)" fill="#fff"/>
                <g id="Grupo_128508" data-name="Grupo 128508">
                  <rect id="Rectángulo_41225" data-name="Rectángulo 41225" width="38.939" height="11.787" fill="#fff"/>
                  <rect id="Rectángulo_41226" data-name="Rectángulo 41226" width="38.939" height="11.787" transform="translate(0 27.922)" fill="#fff"/>
                </g>
              </g>
            </g>
            <g id="Grupo_128511" data-name="Grupo 128511" transform="translate(15.313 3.402)">
              <rect id="Rectángulo_41227" data-name="Rectángulo 41227" width="4.13" height="58.989" transform="translate(96.929)" fill="#407bff"/>
              <rect id="Rectángulo_41228" data-name="Rectángulo 41228" width="105.504" height="58.989" fill="#fff" opacity="0.1"/>
              <rect id="Rectángulo_41229" data-name="Rectángulo 41229" width="4.13" height="58.989" transform="translate(96.929)" fill="#fff" opacity="0.5"/>
            </g>
            <rect id="Rectángulo_41230" data-name="Rectángulo 41230" width="119.766" height="4.528" transform="translate(0 0)" fill="#407bff"/>
            <rect id="Rectángulo_41231" data-name="Rectángulo 41231" width="119.766" height="4.528" transform="translate(0 0)" fill="#fff" opacity="0.6"/>
            <g id="Grupo_128512" data-name="Grupo 128512" transform="translate(84.62 18.827)">
              <path id="Trazado_188660" data-name="Trazado 188660" d="M294.475,320.392h-1.352a1.281,1.281,0,0,0,0,2.562h1.352a1.281,1.281,0,1,0,0-2.562Z" transform="translate(-291.842 -320.392)" fill="#407bff"/>
              <path id="Trazado_188661" data-name="Trazado 188661" d="M294.475,347.6h-1.352a1.281,1.281,0,0,0,0,2.563h1.352a1.281,1.281,0,0,0,0-2.563Z" transform="translate(-291.842 -333.641)" fill="#407bff"/>
              <path id="Trazado_188662" data-name="Trazado 188662" d="M294.475,374.813h-1.352a1.281,1.281,0,0,0,0,2.562h1.352a1.281,1.281,0,0,0,0-2.562Z" transform="translate(-291.842 -346.891)" fill="#407bff"/>
              <path id="Trazado_188663" data-name="Trazado 188663" d="M294.4,321.673a1.281,1.281,0,1,1-1.282-1.281A1.281,1.281,0,0,1,294.4,321.673Z" transform="translate(-291.842 -320.392)" fill="#fafafa" opacity="0.3"/>
              <path id="Trazado_188664" data-name="Trazado 188664" d="M294.4,348.883a1.281,1.281,0,1,1-1.282-1.281A1.281,1.281,0,0,1,294.4,348.883Z" transform="translate(-291.842 -333.641)" fill="#fafafa" opacity="0.3"/>
              <path id="Trazado_188665" data-name="Trazado 188665" d="M294.4,376.094a1.281,1.281,0,1,1-1.282-1.281A1.281,1.281,0,0,1,294.4,376.094Z" transform="translate(-291.842 -346.891)" fill="#fafafa" opacity="0.3"/>
            </g>
          </g>
        </g>
        <g id="Character" transform="translate(86.586 48.781)">
          <g id="Grupo_128523" data-name="Grupo 128523">
            <path id="Trazado_188666" data-name="Trazado 188666" d="M203.269,180.528c-.733,1.036.884,4.332.884,4.332l-7.281.881L198.3,177.8S204.133,179.305,203.269,180.528Z" transform="translate(-182.448 -163.553)" fill="#ce7a63"/>
            <path id="Trazado_188667" data-name="Trazado 188667" d="M206.242,182.533a2.066,2.066,0,0,1,.115-1.485c.538-.76-1.514-1.627-3.144-2.175A9.424,9.424,0,0,0,206.242,182.533Z" transform="translate(-185.536 -164.074)" opacity="0.2"/>
            <g id="Grupo_128514" data-name="Grupo 128514" transform="translate(33.668 125.423)">
              <path id="Trazado_188668" data-name="Trazado 188668" d="M239.075,394.485l.776,7.409-3.417.641-2.054-7.151Z" transform="translate(-234.38 -394.485)" fill="#ce7a63"/>
              <path id="Trazado_188669" data-name="Trazado 188669" d="M240.764,406.419l-4.017.8a.33.33,0,0,0-.265.316l-.071,3.413a.547.547,0,0,0,.649.555c1.443-.316,2.715-.653,4.518-1.011,2.128-.426,1.639-.063,4.147-.529,1.511-.282,1.443-2.05.788-2.007-3,.218-3.479-.6-4.817-1.425A1.319,1.319,0,0,0,240.764,406.419Z" transform="translate(-235.369 -400.278)" fill="#263238"/>
              <path id="Trazado_188670" data-name="Trazado 188670" d="M235.737,400.108l3.874-.511-.536-5.112-4.695.9Z" transform="translate(-234.38 -394.485)" opacity="0.2"/>
            </g>
            <g id="Grupo_128515" data-name="Grupo 128515" transform="translate(1.492 123.659)">
              <path id="Trazado_188671" data-name="Trazado 188671" d="M180.6,391.309l-2.326,9.184L175,400.032l.871-8.985Z" transform="translate(-173.289 -391.046)" fill="#ce7a63"/>
              <path id="Trazado_188672" data-name="Trazado 188672" d="M177.09,406.936,173,406.648a.331.331,0,0,0-.34.234l-.973,3.273a.548.548,0,0,0,.364.684.522.522,0,0,0,.114.022c1.475.078,2.791.09,4.624.222,2.165.153,1.6.373,4.139.589,1.532.128,1.935-1.595,1.291-1.726-2.949-.584-3.195-1.5-4.267-2.651A1.321,1.321,0,0,0,177.09,406.936Z" transform="translate(-171.667 -398.643)" fill="#263238"/>
              <path id="Trazado_188673" data-name="Trazado 188673" d="M175.392,398.136l3.585.549,1.714-6.769c-1.572-.167-4.146-.425-4.649-.476Z" transform="translate(-173.481 -391.239)" opacity="0.2"/>
            </g>
            <path id="Trazado_188674" data-name="Trazado 188674" d="M184.123,254.5s-1.131,3.283-1.3,11.274c-.1,4.775-.565,12.335-.925,17.646-.105,1.554-.2,2.915-.276,3.958a12.49,12.49,0,0,1-.914,3.846c-.35.852-.789,2.018-1.241,3.474a55.149,55.149,0,0,0-1.965,9.037c-1.2,8.952-2.569,26.294-2.569,26.294l4.43.575,10.9-40.415,11.622-35.72Z" transform="translate(-171.768 -200.885)" fill="#263238"/>
            <path id="Trazado_188675" data-name="Trazado 188675" d="M210.123,285.1l-.47-3.518-3.8-3.215-1.279-.63A42.677,42.677,0,0,1,206.791,295Z" transform="translate(-186.198 -212.216)" opacity="0.2"/>
            <path id="Trazado_188676" data-name="Trazado 188676" d="M217.084,253.543l5.332,75.064-4.513.768s-6.037-20.772-7.057-32.255a29.687,29.687,0,0,1-.132-3.666,14.409,14.409,0,0,0-.612-4.619l-.634-2.144-3.557-12.037a20.516,20.516,0,0,0-3.521-6.951c-1.85-2.334-4.138-6.856-3.188-14.378l16.7-1.157Z" transform="translate(-183.474 -199.764)" fill="#263238"/>
            <g id="Grupo_128518" data-name="Grupo 128518" transform="translate(0 25.093)">
              <g id="Grupo_128516" data-name="Grupo 128516" transform="translate(15.348 22.706)">
                <path id="Trazado_188677" data-name="Trazado 188677" d="M200.825,245.177a20.367,20.367,0,0,1,3.462-.449,17.034,17.034,0,0,1,2.776.911,1.2,1.2,0,0,1,.439,2.013s-1.425,1.826-2.136,1.976c-1.421.3-5.495-1.879-5.495-1.879Z" transform="translate(-199.257 -243.935)" fill="#ce7a63"/>
                <path id="Trazado_188678" data-name="Trazado 188678" d="M200.115,243.19l-1.44,4.645,1.382.115,1.267-4.058Z" transform="translate(-198.675 -243.19)" fill="#263238"/>
                <path id="Trazado_188679" data-name="Trazado 188679" d="M200.115,243.19l-1.44,4.645,1.382.115,1.267-4.058Z" transform="translate(-198.675 -243.19)" fill="#fff" opacity="0.2"/>
              </g>
              <path id="Trazado_188680" data-name="Trazado 188680" d="M177.022,199.519a1.5,1.5,0,0,0-2.55.3c-1.616,3.458-5.7,12.626-5.713,17.077-.02,5.55,16.29,8.834,16.29,8.834l.986-3.189-11.223-6.895,3.228-7.606S178.844,202.015,177.022,199.519Z" transform="translate(-168.76 -198.936)" fill="#407bff"/>
              <path id="Trazado_188681" data-name="Trazado 188681" d="M177.022,199.519a1.5,1.5,0,0,0-2.55.3c-1.616,3.458-5.7,12.626-5.713,17.077-.02,5.55,16.29,8.834,16.29,8.834l.986-3.189-11.223-6.895,3.228-7.606S178.844,202.015,177.022,199.519Z" transform="translate(-168.76 -198.936)" opacity="0.1"/>
              <g id="Grupo_128517" data-name="Grupo 128517" transform="translate(5.825 1.133)" opacity="0.4">
                <path id="Trazado_188682" data-name="Trazado 188682" d="M182.884,201.145l-1.759.242-1.011.724,1.205,12.3,2.25-5.3S184.267,203.876,182.884,201.145Z" transform="translate(-180.114 -201.145)"/>
                <path id="Trazado_188683" data-name="Trazado 188683" d="M187.713,235.9l-4.659-2.862.677,6.913c.974.366,1.947.691,2.871.975Z" transform="translate(-181.546 -216.672)"/>
              </g>
            </g>
            <path id="Trazado_188684" data-name="Trazado 188684" d="M207.588,222.912s-8.03,2.627-21.183.5l-6.3-26.573a4.619,4.619,0,0,1,2.316-5.043c2.707-1.495,8.061-2.9,18.626-2.32a5.891,5.891,0,0,1,5.406,4.531Z" transform="translate(-174.226 -169.171)" fill="#407bff"/>
            <g id="Grupo_128519" data-name="Grupo 128519" transform="translate(12.271 18.495)">
              <path id="Trazado_188685" data-name="Trazado 188685" d="M192.677,189.008l.8-1.885s3.162-1.6,8.534-.845l1.275,1.477A60.757,60.757,0,0,0,192.677,189.008Z" transform="translate(-192.677 -186.078)" fill="#263238"/>
            </g>
            <path id="Trazado_188686" data-name="Trazado 188686" d="M216.045,164.455c.072.3-.027.579-.228.625s-.439-.17-.5-.464.027-.579.229-.621S215.97,164.157,216.045,164.455Z" transform="translate(-191.42 -156.827)" fill="#263238"/>
            <path id="Trazado_188687" data-name="Trazado 188687" d="M216.227,166.662l2.051,2.005a2.181,2.181,0,0,1-1.852.585Z" transform="translate(-191.873 -158.128)" fill="#ba4d3c"/>
            <path id="Trazado_188688" data-name="Trazado 188688" d="M193.318,161.19c.784,4.021,1.029,5.743,3.395,7.575,3.477,1.74,8.448.973,8.907-3.191.415-3.746-.936-9.679-5.213-10.835a5.691,5.691,0,0,0-7.007,3.889A5.443,5.443,0,0,0,193.318,161.19Z" transform="translate(-180.662 -152.223)" fill="#ce7a63"/>
            <path id="Trazado_188689" data-name="Trazado 188689" d="M213.654,162.131a.167.167,0,0,0,.138-.07,1.256,1.256,0,0,1,1-.584.159.159,0,0,0,.164-.156.17.17,0,0,0-.164-.166,1.563,1.563,0,0,0-1.278.721.162.162,0,0,0,.047.226h0A.175.175,0,0,0,213.654,162.131Z" transform="translate(-190.54 -155.447)" fill="#263238"/>
            <path id="Trazado_188690" data-name="Trazado 188690" d="M226.255,213.974l-.537-9.733-3.479-4.6-1.9-1.763-1.467,1.027S219.071,204.264,226.255,213.974Z" transform="translate(-193.159 -173.326)" opacity="0.4"/>
            <path id="Trazado_188691" data-name="Trazado 188691" d="M227.305,196.669c1.927,3.54,2.674,5.633,3.334,6.512a.4.4,0,0,0,.377.154l11.262-1.636a.4.4,0,0,1,.438.272l.907,2.789a.4.4,0,0,1-.252.5l-10.559,3.579a5.5,5.5,0,0,1-5.622-.986,29.872,29.872,0,0,1-7.177-9.427c-.811-1.6-2.693-4.565.4-7.172C222.976,189.094,226.027,194.319,227.305,196.669Z" transform="translate(-193.077 -169.854)" fill="#407bff"/>
            <path id="Trazado_188692" data-name="Trazado 188692" d="M227.305,196.669c1.927,3.54,2.674,5.633,3.334,6.512a.4.4,0,0,0,.377.154l11.262-1.636a.4.4,0,0,1,.438.272l.907,2.789a.4.4,0,0,1-.252.5l-10.559,3.579a5.5,5.5,0,0,1-5.622-.986,29.872,29.872,0,0,1-7.177-9.427c-.811-1.6-2.693-4.565.4-7.172C222.976,189.094,226.027,194.319,227.305,196.669Z" transform="translate(-193.077 -169.854)" fill="#fff" opacity="0.1"/>
            <path id="Trazado_188693" data-name="Trazado 188693" d="M265.2,207.917l2.322-2.727a1.983,1.983,0,0,1,.96-.621l5.462-1.588a.4.4,0,0,1,.468.2h0a.4.4,0,0,1-.205.552l-2.258.924a.4.4,0,0,0-.247.4l.112,1.365a1.992,1.992,0,0,1-1.16,1.975l-1.642.748-.19.075-2.818.947a.4.4,0,0,1-.518-.289l-.372-1.616A.4.4,0,0,1,265.2,207.917Z" transform="translate(-215.671 -175.805)" fill="#ce7a63"/>
            <g id="Grupo_128520" data-name="Grupo 128520" transform="translate(48.821 31.201)">
              <path id="Trazado_188694" data-name="Trazado 188694" d="M263.943,211.471l1.392,3.512a.4.4,0,0,0,.547.212l.462-.225a.4.4,0,0,0,.2-.506l-1.327-3.367a.4.4,0,0,0-.433-.249l-.526.081A.4.4,0,0,0,263.943,211.471Z" transform="translate(-263.915 -210.842)" fill="#263238"/>
            </g>
            <g id="Grupo_128521" data-name="Grupo 128521" transform="translate(33.544 127.604)">
              <path id="Trazado_188695" data-name="Trazado 188695" d="M234.14,399.675l.7,1.855,5.319-.822-.148-1.971Z" transform="translate(-234.14 -398.736)" fill="#407bff"/>
              <path id="Trazado_188696" data-name="Trazado 188696" d="M234.14,399.675l.7,1.855,5.319-.822-.148-1.971Z" transform="translate(-234.14 -398.736)" opacity="0.2"/>
            </g>
            <g id="Grupo_128522" data-name="Grupo 128522" transform="translate(2.612 127.796)">
              <path id="Trazado_188697" data-name="Trazado 188697" d="M173.935,399.11l-.084,1.948,5.335.713.415-1.933Z" transform="translate(-173.851 -399.11)" fill="#407bff"/>
              <path id="Trazado_188698" data-name="Trazado 188698" d="M173.935,399.11l-.084,1.948,5.335.713.415-1.933Z" transform="translate(-173.851 -399.11)" opacity="0.2"/>
            </g>
            <path id="Trazado_188699" data-name="Trazado 188699" d="M194.556,166.692s.6-.846,2.392.133c0,0,2.549-2.853,2.628-5.526,0,0,1.883-.348,1.725-1.565s-1.054-2.808-.865-3.911,2.02-4,.465-5.284-1.739.246-2.62.411-6.2.355-6.881,4.121a5.17,5.17,0,0,0-.356,6.4C193.373,165.065,194.556,166.692,194.556,166.692Z" transform="translate(-179.149 -150.029)" fill="#263238"/>
            <path id="Trazado_188700" data-name="Trazado 188700" d="M208.734,164.647l4.655-2.586s1.171,3.046.609,3.2-1.3-2.238-1.3-2.238l-3.315,1.581Z" transform="translate(-188.225 -155.888)" fill="#407bff"/>
            <path id="Trazado_188701" data-name="Trazado 188701" d="M216.69,163.892l.353-.209s.962,2.153.7,2.343S216.69,163.892,216.69,163.892Z" transform="translate(-192.099 -156.678)" fill="#fff" opacity="0.7"/>
            <path id="Trazado_188702" data-name="Trazado 188702" d="M207.746,167.011a3.166,3.166,0,0,1,1.357,2.023c.2,1.091-.823,1.537-1.822,1.151-.906-.349-2.093-1.339-1.842-2.4A1.462,1.462,0,0,1,207.746,167.011Z" transform="translate(-186.603 -158.158)" fill="#ce7a63"/>
          </g>
        </g>
      </g>
    </g>
  </g>
</svg>
