<svg xmlns="http://www.w3.org/2000/svg" width="474.96" height="452.628" viewBox="0 0 474.96 452.628">
  <g id="_1" data-name="1" transform="translate(-24.683 -34.803)">
    <ellipse id="Ellipse_4852" data-name="Ellipse 4852" cx="216.306" cy="20.161" rx="216.306" ry="20.161" transform="translate(44.373 447.11)" fill="#eef6ff"/>
    <g id="Group_129104" data-name="Group 129104" transform="translate(25.709 35.803)">
      <g id="Group_129078" data-name="Group 129078" transform="translate(23.534 245.766)">
        <g id="Group_129073" data-name="Group 129073">
          <path id="Path_190049" data-name="Path 190049" d="M69.757,354.491a10.206,10.206,0,0,1-10.065-8.444l-11.5-65.12a10.223,10.223,0,0,1,10.066-12H186.729a10.209,10.209,0,0,1,10.066,8.444l11.5,65.121a10.22,10.22,0,0,1-10.065,12Z" transform="translate(-48.032 -268.926)" fill="none" stroke="#d9faff" stroke-miterlimit="10" stroke-width="2" opacity="0.4"/>
          <path id="Path_190050" data-name="Path 190050" d="M197.973,349.192H69.5a5.182,5.182,0,0,1-5.1-4.281l-11.5-65.121a5.182,5.182,0,0,1,5.1-6.083H186.47a5.183,5.183,0,0,1,5.1,4.28l11.5,65.122A5.181,5.181,0,0,1,197.973,349.192Z" transform="translate(-47.773 -268.667)" fill="#00defc" opacity="0.15"/>
        </g>
        <g id="Group_129077" data-name="Group 129077" transform="translate(20.462 20.671)">
          <path id="Path_190051" data-name="Path 190051" d="M176.641,291.449h-50.6l-.5-2.835h50.6Z" transform="translate(-64.291 -288.53)" fill="#00defc"/>
          <path id="Path_190052" data-name="Path 190052" d="M167.9,297.195H127.056l-.5-2.835H167.4Z" transform="translate(-64.236 -288.218)" fill="#00defc"/>
          <g id="Group_129076" data-name="Group 129076">
            <g id="Group_129074" data-name="Group 129074">
              <path id="Path_190053" data-name="Path 190053" d="M120.219,321.749H74.154a1.255,1.255,0,0,1-1.186-1.008l-5.51-31.2a.821.821,0,0,1,.83-1.008h46.066a1.253,1.253,0,0,1,1.185,1.008l5.512,31.2A.823.823,0,0,1,120.219,321.749Zm-45.413-2.016h44.05L113.7,290.55H69.652Z" transform="translate(-67.442 -288.534)" fill="#00defc"/>
              <path id="Path_190054" data-name="Path 190054" d="M94.431,306.149a1.164,1.164,0,0,1-.6-.173l-25.788-15.6a1.125,1.125,0,0,1-.518-1.4.929.929,0,0,1,1.353-.27l25.155,15.217,19.781-15.217a1.089,1.089,0,0,1,1.447.27.962.962,0,0,1-.023,1.4l-20.277,15.6A.872.872,0,0,1,94.431,306.149Z" transform="translate(-67.442 -288.534)" fill="#00defc"/>
            </g>
            <g id="Group_129075" data-name="Group 129075" transform="translate(7.35 43.399)">
              <path id="Path_190055" data-name="Path 190055" d="M187.446,333.747H75.129l-.715-4.047H186.731Z" transform="translate(-74.414 -329.7)" fill="#cc8f09"/>
            </g>
          </g>
          <path id="Path_190056" data-name="Path 190056" d="M173.156,302.941H128.071l-.5-2.836h45.085Z" transform="translate(-64.181 -287.906)" fill="#00defc"/>
          <path id="Path_190057" data-name="Path 190057" d="M163.7,308.687H129.086l-.5-2.836H163.2Z" transform="translate(-64.126 -287.595)" fill="#00defc"/>
          <path id="Path_190058" data-name="Path 190058" d="M176.544,314.433H130.1l-.5-2.836h46.444Z" transform="translate(-64.071 -287.283)" fill="#00defc"/>
          <path id="Path_190059" data-name="Path 190059" d="M169.886,320.179H131.116l-.5-2.835h38.771Z" transform="translate(-64.016 -286.971)" fill="#00defc"/>
        </g>
      </g>
      <g id="Group_129095" data-name="Group 129095" transform="translate(0 95.386)">
        <g id="Group_129079" data-name="Group 129079">
          <path id="Path_190060" data-name="Path 190060" d="M58.045,264.382a12.556,12.556,0,0,1-12.388-10.41L25.9,141.024a12.575,12.575,0,0,1,12.387-14.742H204.327a12.555,12.555,0,0,1,12.388,10.408l19.76,112.948a12.576,12.576,0,0,1-12.387,14.743Z" transform="translate(-25.709 -126.282)" fill="none" stroke="#d9faff" stroke-miterlimit="10" stroke-width="2" opacity="0.4"/>
          <path id="Path_190061" data-name="Path 190061" d="M223.827,259.083H57.786a7.536,7.536,0,0,1-7.424-6.238L30.6,139.9a7.537,7.537,0,0,1,7.424-8.836H204.069a7.537,7.537,0,0,1,7.424,6.238l19.758,112.948A7.536,7.536,0,0,1,223.827,259.083Z" transform="translate(-25.45 -126.023)" fill="#00defc" opacity="0.15"/>
        </g>
        <g id="Group_129094" data-name="Group 129094" transform="translate(25.784 16.279)">
          <g id="Group_129080" data-name="Group 129080" transform="translate(0 0.516)">
            <path id="Path_190062" data-name="Path 190062" d="M105.739,220.894c-15.953,0-31.2-12.979-33.992-28.93s7.917-28.93,23.869-28.93,31.2,12.978,33.992,28.93S121.692,220.894,105.739,220.894Zm-9.594-54.837c-14.286,0-23.874,11.622-21.375,25.907S90.925,217.87,105.21,217.87s23.874-11.622,21.375-25.907S110.431,166.057,96.146,166.057Z" transform="translate(-49.021 -141.084)" fill="#cc8f09"/>
            <path id="Path_190063" data-name="Path 190063" d="M110.038,240.793c-26.387,0-51.612-21.468-56.228-47.856s13.1-47.856,39.484-47.856,51.611,21.467,56.228,47.856S136.427,240.793,110.038,240.793ZM93.824,148.1c-24.722,0-41.315,20.112-36.99,44.832s27.955,44.832,52.676,44.832,41.313-20.112,36.989-44.832S118.545,148.1,93.824,148.1Z" transform="translate(-50.009 -142.057)" fill="#cc8f09"/>
            <path id="Path_190064" data-name="Path 190064" d="M110.725,243.972c-28.055,0-54.873-22.824-59.78-50.879s13.923-50.879,41.979-50.879,54.873,22.824,59.78,50.879a48.788,48.788,0,0,1,.158,16.453l-9.1-2.932a40.115,40.115,0,0,0-.133-13.522c-4.032-23.054-26.069-41.809-49.123-41.809s-38.528,18.755-34.495,41.809S86.085,234.9,109.139,234.9Z" transform="translate(-50.167 -142.213)" fill="#00defc"/>
            <path id="Path_190065" data-name="Path 190065" d="M106.426,223.857c-17.62,0-34.463-14.334-37.544-31.954-2-11.438,2.313-22.075,11.259-27.757l5.879,7.874c-6.411,4.071-9.5,11.69-8.068,19.883,2.207,12.618,14.268,22.883,26.886,22.883s21.088-10.265,18.88-22.883a27.674,27.674,0,0,0-8.173-14.95l5.827-5.929A38.639,38.639,0,0,1,132.789,191.9C135.872,209.522,124.046,223.857,106.426,223.857Z" transform="translate(-49.178 -141.023)" fill="#00defc"/>
            <path id="Path_190066" data-name="Path 190066" d="M91.966,200.859a16.546,16.546,0,0,1-5.727-9.682c-1.316-7.521,3.733-13.639,11.254-13.639s14.709,6.118,16.024,13.639a12.518,12.518,0,0,1-.578,6.683l-8.684-4.448a4.118,4.118,0,0,0,.191-2.235,5.682,5.682,0,0,0-5.367-4.568,3.737,3.737,0,0,0-3.77,4.568,5.546,5.546,0,0,0,1.918,3.243Z" transform="translate(-48.222 -140.297)" fill="#00defc"/>
          </g>
          <g id="Group_129093" data-name="Group 129093" transform="translate(103.349)">
            <g id="Group_129086" data-name="Group 129086">
              <g id="Group_129081" data-name="Group 129081">
                <path id="Path_190067" data-name="Path 190067" d="M191.012,144.4H148.668l-.469-2.68h42.344Z" transform="translate(-148.199 -141.723)" fill="#00defc"/>
              </g>
              <g id="Group_129082" data-name="Group 129082" transform="translate(1.186 6.778)">
                <path id="Path_190068" data-name="Path 190068" d="M199.4,150.832h-49.61l-.469-2.68h49.61Z" transform="translate(-149.324 -148.153)" fill="#00defc"/>
              </g>
              <g id="Group_129083" data-name="Group 129083" transform="translate(2.371 13.555)">
                <path id="Path_190069" data-name="Path 190069" d="M196.669,157.261H150.917l-.469-2.68H196.2Z" transform="translate(-150.449 -154.581)" fill="#00defc"/>
              </g>
              <g id="Group_129084" data-name="Group 129084" transform="translate(3.557 20.333)">
                <path id="Path_190070" data-name="Path 190070" d="M184.964,163.69H152.042l-.469-2.68H184.5Z" transform="translate(-151.573 -161.011)" fill="#00defc"/>
              </g>
              <g id="Group_129085" data-name="Group 129085" transform="translate(4.743 27.111)">
                <path id="Path_190071" data-name="Path 190071" d="M195.126,170.119H153.167l-.469-2.68h41.959Z" transform="translate(-152.698 -167.44)" fill="#00defc"/>
              </g>
            </g>
            <g id="Group_129092" data-name="Group 129092" transform="translate(8.029 45.894)">
              <g id="Group_129087" data-name="Group 129087">
                <path id="Path_190072" data-name="Path 190072" d="M198.627,187.937H156.284l-.469-2.68h42.344Z" transform="translate(-155.815 -185.257)" fill="#00defc"/>
              </g>
              <g id="Group_129088" data-name="Group 129088" transform="translate(1.186 6.778)">
                <path id="Path_190073" data-name="Path 190073" d="M207.019,194.366h-49.61l-.469-2.68h49.61Z" transform="translate(-156.94 -191.686)" fill="#00defc"/>
              </g>
              <g id="Group_129089" data-name="Group 129089" transform="translate(2.371 13.556)">
                <path id="Path_190074" data-name="Path 190074" d="M204.285,200.795H158.533l-.469-2.68h45.751Z" transform="translate(-158.064 -198.115)" fill="#00defc"/>
              </g>
              <g id="Group_129090" data-name="Group 129090" transform="translate(3.557 20.333)">
                <path id="Path_190075" data-name="Path 190075" d="M192.58,207.224H159.658l-.469-2.68h32.922Z" transform="translate(-159.189 -204.544)" fill="#00defc"/>
              </g>
              <g id="Group_129091" data-name="Group 129091" transform="translate(4.743 27.111)">
                <path id="Path_190076" data-name="Path 190076" d="M202.742,213.653H160.783l-.469-2.68h41.959Z" transform="translate(-160.314 -210.973)" fill="#00defc"/>
              </g>
            </g>
          </g>
        </g>
      </g>
      <g id="Group_129103" data-name="Group 129103" transform="translate(64.412)">
        <g id="Group_129096" data-name="Group 129096">
          <path id="Path_190077" data-name="Path 190077" d="M98.024,118.908a11.215,11.215,0,0,1-11.011-13.343L98.739,44.889A11.232,11.232,0,0,1,109.75,35.8H242.1a11.215,11.215,0,0,1,11.011,13.343l-11.726,60.674a11.232,11.232,0,0,1-11.011,9.088Z" transform="translate(-86.807 -35.803)" fill="none" stroke="#d9faff" stroke-miterlimit="10" stroke-width="2" opacity="0.4"/>
          <path id="Path_190078" data-name="Path 190078" d="M230.111,113.61H97.765a6.177,6.177,0,0,1-6.064-7.348l11.726-60.675a6.176,6.176,0,0,1,6.064-5H241.837A6.177,6.177,0,0,1,247.9,47.93l-11.726,60.675A6.176,6.176,0,0,1,230.111,113.61Z" transform="translate(-86.548 -35.544)" fill="#00defc" opacity="0.15"/>
        </g>
        <g id="Group_129102" data-name="Group 129102" transform="translate(23.651 13.373)">
          <g id="Group_129097" data-name="Group 129097">
            <path id="Path_190079" data-name="Path 190079" d="M132.626,105.155c-15.623,0-25.876-12.71-22.857-28.334s18.186-28.334,33.808-28.334,25.878,12.71,22.859,28.334S148.25,105.155,132.626,105.155ZM143.285,50c-14.789,0-29.146,12.032-32,26.822s6.848,26.822,21.638,26.822,29.146-12.032,32.005-26.822S158.075,50,143.285,50Z" transform="translate(-109.242 -48.488)" fill="#00defc"/>
            <path id="Path_190080" data-name="Path 190080" d="M132.118,105.155c-10.018,0-15.712-12.71-12.693-28.334s13.626-28.334,23.644-28.334,15.712,12.71,12.694,28.334S142.136,105.155,132.118,105.155ZM142.777,50c-9.184,0-18.983,12.032-21.841,26.822s2.289,26.822,11.474,26.822,18.981-12.032,21.841-26.822S151.962,50,142.777,50Z" transform="translate(-108.733 -48.488)" fill="#00defc"/>
            <path id="Path_190081" data-name="Path 190081" d="M131.625,105.155c-4.914,0-4.744-14.6-2.09-28.334s8.127-28.334,13.041-28.334,4.744,14.6,2.089,28.334S136.539,105.155,131.625,105.155ZM142.284,50c-2.527,0-8.025,10.2-11.237,26.822s-1.657,26.822.871,26.822,8.025-10.2,11.236-26.822S144.813,50,142.284,50Z" transform="translate(-108.241 -48.488)" fill="#00defc"/>
            <path id="Path_190082" data-name="Path 190082" d="M134.575,94.467c-15.624,0-26.759-8.15-24.822-18.169S125.975,58.13,141.6,58.13,168.356,66.28,166.42,76.3,150.2,94.467,134.575,94.467Zm6.73-34.826c-14.79,0-28.266,7.471-30.04,16.657s8.812,16.657,23.6,16.657,28.266-7.472,30.041-16.657S156.1,59.642,141.305,59.642Z" transform="translate(-109.226 -47.965)" fill="#00defc"/>
            <path id="Path_190083" data-name="Path 190083" d="M136.616,83.318c-13.736,0-27.821-2.651-26.871-7.565s16.06-7.565,29.795-7.565,27.821,2.651,26.872,7.565S150.35,83.318,136.616,83.318ZM139.247,69.7c-16.618,0-27.5,3.525-27.991,6.053s9.034,6.053,25.652,6.053,27.5-3.526,27.992-6.053S155.865,69.7,139.247,69.7Z" transform="translate(-109.217 -47.42)" fill="#00defc"/>
          </g>
          <g id="Group_129101" data-name="Group 129101" transform="translate(59.34 4.86)">
            <g id="Group_129098" data-name="Group 129098" transform="translate(2.456 20.912)">
              <path id="Path_190084" data-name="Path 190084" d="M222.624,76.013H168.482a.606.606,0,0,1-.609-.756.961.961,0,0,1,.9-.756h54.141a.605.605,0,0,1,.609.756A.961.961,0,0,1,222.624,76.013Z" transform="translate(-167.858 -72.849)" fill="#00defc"/>
              <path id="Path_190085" data-name="Path 190085" d="M222.479,75.342a3.062,3.062,0,0,1-2.873,2.407,1.928,1.928,0,0,1-1.942-2.407,3.062,3.062,0,0,1,2.873-2.408A1.929,1.929,0,0,1,222.479,75.342Z" transform="translate(-165.16 -72.934)" fill="#cc8f09"/>
            </g>
            <g id="Group_129099" data-name="Group 129099" transform="translate(4.913)">
              <path id="Path_190086" data-name="Path 190086" d="M170.812,64.378a.618.618,0,0,1-.491-.221.787.787,0,0,1,.207-1.069l9.786-8.2a.914.914,0,0,1,.577-.221h45.94a.606.606,0,0,1,.61.756.962.962,0,0,1-.9.756H180.912l-9.522,7.979A.91.91,0,0,1,170.812,64.378Z" transform="translate(-170.189 -53.013)" fill="#00defc"/>
              <path id="Path_190087" data-name="Path 190087" d="M226.312,55.506a3.06,3.06,0,0,1-2.872,2.407,1.929,1.929,0,0,1-1.943-2.407A3.063,3.063,0,0,1,224.37,53.1,1.929,1.929,0,0,1,226.312,55.506Z" transform="translate(-167.408 -53.098)" fill="#cc8f09"/>
            </g>
            <g id="Group_129100" data-name="Group 129100" transform="translate(0 35.274)">
              <path id="Path_190088" data-name="Path 190088" d="M218.709,96.27h-45.94a.616.616,0,0,1-.491-.221l-6.616-8.2a.787.787,0,0,1,.207-1.069.753.753,0,0,1,1.069,0l6.437,7.979H219a.606.606,0,0,1,.609.756A.962.962,0,0,1,218.709,96.27Z" transform="translate(-165.529 -86.557)" fill="#00defc"/>
              <path id="Path_190089" data-name="Path 190089" d="M218.646,95.177a3.063,3.063,0,0,1-2.873,2.408,1.929,1.929,0,0,1-1.942-2.408A3.06,3.06,0,0,1,216.7,92.77,1.929,1.929,0,0,1,218.646,95.177Z" transform="translate(-162.911 -86.22)" fill="#cc8f09"/>
            </g>
          </g>
        </g>
      </g>
    </g>
    <g id="Group_129110" data-name="Group 129110" transform="translate(289.685 264.249)">
      <g id="Group_129105" data-name="Group 129105" transform="translate(4.267 84.181)">
        <path id="Path_190090" data-name="Path 190090" d="M327.287,451.188h-4.031V341.317a5.024,5.024,0,0,0-5.1-4.938H289.279a5.023,5.023,0,0,0-5.1,4.938v109.87h-4.031V341.317a9.059,9.059,0,0,1,9.126-8.969H318.16a9.059,9.059,0,0,1,9.126,8.969Z" transform="translate(-280.152 -332.348)" fill="#081a35"/>
        <path id="Path_190091" data-name="Path 190091" d="M322.95,451.084V341.215a7.033,7.033,0,0,1,7.11-6.955h28.883a7.034,7.034,0,0,1,7.111,6.955V451.084" transform="translate(-277.831 -332.244)" fill="none" stroke="#d9faff" stroke-miterlimit="10" stroke-width="4"/>
      </g>
      <g id="Group_129109" data-name="Group 129109">
        <g id="Group_129106" data-name="Group 129106" transform="translate(46.936 40.45)">
          <rect id="Rectangle_293595" data-name="Rectangle 293595" width="6.658" height="34.819" transform="translate(0 0)" fill="#cc8f09"/>
          <rect id="Rectangle_293596" data-name="Rectangle 293596" width="6.658" height="34.819" transform="translate(30.527 34.819) rotate(180)" fill="#cc8f09"/>
        </g>
        <g id="Group_129107" data-name="Group 129107" transform="translate(29.738)">
          <rect id="Rectangle_293597" data-name="Rectangle 293597" width="60.301" height="45.465" rx="6.962" transform="translate(6.443)" fill="#081a35"/>
          <rect id="Rectangle_293598" data-name="Rectangle 293598" width="60.301" height="45.465" rx="6.962" fill="#084a93"/>
        </g>
        <g id="Group_129108" data-name="Group 129108" transform="translate(0 73.532)">
          <path id="Rectangle_293599" data-name="Rectangle 293599" d="M0,0H44.663a3.578,3.578,0,0,1,3.578,3.578v4.4a3.578,3.578,0,0,1-3.578,3.578H0a0,0,0,0,1,0,0V0A0,0,0,0,1,0,0Z" transform="translate(48.241)" fill="#081a35"/>
          <path id="Rectangle_293600" data-name="Rectangle 293600" d="M3.578,0H48.241a0,0,0,0,1,0,0V11.555a0,0,0,0,1,0,0H3.578A3.578,3.578,0,0,1,0,7.977v-4.4A3.578,3.578,0,0,1,3.578,0Z" fill="#084a93"/>
        </g>
      </g>
    </g>
    <g id="Group_129140" data-name="Group 129140" transform="translate(165.679 120.657)">
      <g id="Group_129123" data-name="Group 129123" transform="translate(30.252 162.153)">
        <g id="Group_129116" data-name="Group 129116" transform="translate(58.26)">
          <g id="Group_129114" data-name="Group 129114" transform="translate(15.936 146.095)">
            <g id="Group_129113" data-name="Group 129113" transform="translate(0 17.018)">
              <g id="Group_129111" data-name="Group 129111">
                <path id="Path_190092" data-name="Path 190092" d="M292.767,429.712a29.481,29.481,0,0,1,.99,4.487c.234,1.685.27,2.827.27,2.827a176.915,176.915,0,0,1-35.97,10.648c-1.558-5.4.686-7.876,4.26-9.7,4.66-2.393,11.579-3.717,15.261-9.059l12.93-4.086a16.369,16.369,0,0,1,1.931,3.86C292.558,429.027,292.668,429.373,292.767,429.712Z" transform="translate(-257.553 -424.825)" fill="#084a93"/>
                <path id="Path_190093" data-name="Path 190093" d="M293.756,433.717c.234,1.685.27,2.827.27,2.827a176.914,176.914,0,0,1-35.97,10.648c-1.558-5.4.686-7.876,4.26-9.7a8.865,8.865,0,0,1,4.874,4.678A124.491,124.491,0,0,0,293.756,433.717Z" transform="translate(-257.553 -424.343)" fill="#00defc" opacity="0.35"/>
                <path id="Path_190094" data-name="Path 190094" d="M292.366,429.514c-1.409,1.151-2.767,2.371-4.2,3.5a19.114,19.114,0,0,1-5.167,3.032,12.988,12.988,0,0,1-5.826.568,10.8,10.8,0,0,0-6.176,1.173,28.5,28.5,0,0,0-5.158,3.753c-.489.414-1.223-.276-.724-.693a27.493,27.493,0,0,1,5.783-4.134,11.249,11.249,0,0,1,5.935-1.134,20.611,20.611,0,0,0,3.04.14,10.434,10.434,0,0,0,2.95-.683c3.577-1.346,6.285-4.173,9.219-6.55C292.157,428.829,292.268,429.174,292.366,429.514Z" transform="translate(-257.152 -424.627)" fill="#00defc" opacity="0.35"/>
              </g>
              <g id="Group_129112" data-name="Group 129112" transform="translate(12.997 6.752)">
                <path id="Path_190095" data-name="Path 190095" d="M270.233,434.2a.5.5,0,0,0,.279.969A.5.5,0,0,0,270.233,434.2Z" transform="translate(-269.882 -431.07)" fill="#fff"/>
                <path id="Path_190096" data-name="Path 190096" d="M271.812,433.483a.5.5,0,0,0,.278.968A.5.5,0,0,0,271.812,433.483Z" transform="translate(-269.796 -431.109)" fill="#fff"/>
                <path id="Path_190097" data-name="Path 190097" d="M273.5,432.465a.5.5,0,0,0,.279.968A.5.5,0,0,0,273.5,432.465Z" transform="translate(-269.705 -431.164)" fill="#fff"/>
                <path id="Path_190098" data-name="Path 190098" d="M274.932,431.252a.5.5,0,0,0,.279.968A.5.5,0,0,0,274.932,431.252Z" transform="translate(-269.627 -431.23)" fill="#fff"/>
              </g>
            </g>
            <path id="Path_190099" data-name="Path 190099" d="M284.461,408.682l5.35,17.019s-6.532,5.615-12.93,4.086l-6.5-15.535Z" transform="translate(-256.857 -408.682)" fill="#efad9c"/>
          </g>
          <g id="Group_129115" data-name="Group 129115">
            <path id="Path_190100" data-name="Path 190100" d="M242.734,273.709s-1.14,77.331,1.044,86.022,25.1,68.26,25.1,68.26l19.876-7.235-19.458-66.441,5.114-84.211Z" transform="translate(-242.437 -270.103)" fill="#084a93"/>
            <path id="Path_190101" data-name="Path 190101" d="M282.239,417.9l-18.925-64.619,5.31-72.243a.5.5,0,0,0-1.006-.074l-1.231,16.762c-5.346-4.49-3.111-16.5-3.087-16.63a.5.5,0,1,0-.99-.191c-.106.556-2.513,13.5,3.988,18.019l-4,54.373a.512.512,0,0,0,.019.179l18.951,64.707a.5.5,0,0,0,.483.362.517.517,0,0,0,.142-.02A.5.5,0,0,0,282.239,417.9Z" transform="translate(-241.388 -269.539)" fill="#081a35"/>
          </g>
        </g>
        <g id="Group_129122" data-name="Group 129122" transform="translate(0 0.14)">
          <g id="Group_129120" data-name="Group 129120" transform="translate(0 155.156)">
            <g id="Group_129119" data-name="Group 129119" transform="translate(0 17.83)">
              <g id="Group_129117" data-name="Group 129117">
                <path id="Path_190102" data-name="Path 190102" d="M225.5,439.645a29.57,29.57,0,0,1-.292,4.586c-.242,1.683-.525,2.792-.525,2.792a176.942,176.942,0,0,1-37.512.262c0-5.623,2.842-7.378,6.783-8.143,5.14-1.008,12.154-.363,17.173-4.475l13.555-.343a16.335,16.335,0,0,1,.786,4.243C225.492,438.929,225.5,439.292,225.5,439.645Z" transform="translate(-187.174 -434.323)" fill="#084a93"/>
                <path id="Path_190103" data-name="Path 190103" d="M225.211,443.983c-.242,1.683-.525,2.792-.525,2.792a176.941,176.941,0,0,1-37.512.261c0-5.623,2.842-7.378,6.783-8.143a8.863,8.863,0,0,1,3.386,5.846A124.572,124.572,0,0,0,225.211,443.983Z" transform="translate(-187.174 -434.075)" fill="#00defc" opacity="0.35"/>
                <path id="Path_190104" data-name="Path 190104" d="M225.053,439.427c-1.673.716-3.316,1.512-5.01,2.2a19.091,19.091,0,0,1-5.8,1.481,13,13,0,0,1-5.755-1.068,10.809,10.809,0,0,0-6.259-.585,28.558,28.558,0,0,0-6,2.177c-.584.263-1.1-.6-.5-.867a27.523,27.523,0,0,1,6.7-2.368,11.238,11.238,0,0,1,6.016.553,20.668,20.668,0,0,0,2.882.978,10.5,10.5,0,0,0,3.024.161c3.81-.3,7.2-2.268,10.673-3.739C225.043,438.711,225.053,439.073,225.053,439.427Z" transform="translate(-186.725 -434.105)" fill="#00defc" opacity="0.35"/>
              </g>
              <g id="Group_129118" data-name="Group 129118" transform="translate(15.448 2.449)">
                <path id="Path_190105" data-name="Path 190105" d="M202.314,438.18a.5.5,0,0,0,0,1.008A.5.5,0,0,0,202.314,438.18Z" transform="translate(-201.827 -436.563)" fill="#fff"/>
                <path id="Path_190106" data-name="Path 190106" d="M204.031,437.924a.5.5,0,0,0,0,1.008A.5.5,0,0,0,204.031,437.924Z" transform="translate(-201.734 -436.577)" fill="#fff"/>
                <path id="Path_190107" data-name="Path 190107" d="M205.931,437.413a.5.5,0,0,0,0,1.008A.5.5,0,0,0,205.931,437.413Z" transform="translate(-201.631 -436.604)" fill="#fff"/>
                <path id="Path_190108" data-name="Path 190108" d="M207.648,436.646a.5.5,0,0,0,0,1.008A.5.5,0,0,0,207.648,436.646Z" transform="translate(-201.538 -436.646)" fill="#fff"/>
              </g>
            </g>
            <path id="Path_190109" data-name="Path 190109" d="M223.142,417.41l.412,17.834s-7.834,3.579-13.555.334l-1.925-16.73Z" transform="translate(-186.041 -417.41)" fill="#efad9c"/>
          </g>
          <g id="Group_129121" data-name="Group 129121" transform="translate(10.021)">
            <path id="Path_190110" data-name="Path 190110" d="M220.487,270.236s-23.749,74.127-23.807,83.088,7.954,76.442,7.954,76.442l21.054-2.038-3.263-73.422L250.84,274.49Z" transform="translate(-196.68 -270.236)" fill="#084a93"/>
            <path id="Path_190111" data-name="Path 190111" d="M242.089,284.31V279.3a.5.5,0,0,0-1.008,0v4.437a2.108,2.108,0,0,1-.924-.556c-.762-.77-1.11-2.2-1.009-4.129a.5.5,0,1,0-1.006-.053c-.12,2.274.325,3.928,1.322,4.915a3.079,3.079,0,0,0,1.423.808L215.158,352.1a.5.5,0,0,0-.032.2l3.466,72.657a.5.5,0,0,0,.5.481h.024a.5.5,0,0,0,.48-.527l-3.462-72.551,25.919-67.878v-.01h0A.483.483,0,0,0,242.089,284.31Z" transform="translate(-195.679 -269.787)" fill="#081a35"/>
          </g>
        </g>
      </g>
      <g id="Group_129131" data-name="Group 129131" transform="translate(0 50.208)">
        <g id="Group_129126" data-name="Group 129126">
          <g id="Group_129124" data-name="Group 129124">
            <path id="Path_190112" data-name="Path 190112" d="M239.686,185.367,215,202.179a130.8,130.8,0,0,1-12.119,22.239L176.31,184.083l-8.474,5.237s23.094,52.841,35.127,52.845C213.131,242.168,239.686,185.367,239.686,185.367Z" transform="translate(-157.971 -162.823)" fill="#efad9c"/>
            <path id="Path_190113" data-name="Path 190113" d="M158.534,174.777a1.255,1.255,0,0,0,.851,1.516q2.891,1.1,5.875,1.913a15.477,15.477,0,0,0-.088,7.23A7.667,7.667,0,0,0,169.5,191a1.019,1.019,0,0,0,.49.264,8.813,8.813,0,0,0,6.518-1.347,20.751,20.751,0,0,0,4.482-4.255c.279-.329.564-.655.868-.96.151-.152.306-.3.467-.44q.1-.085.2-.168c.017-.014.05-.037.078-.057.19-.123.384-.23.581-.342.021-.012.036-.021.048-.03l.036-.011c.1-.031.194-.064.293-.09s.171-.032.253-.054a.218.218,0,0,0,.053-.009l.2-.025a2.089,2.089,0,0,0,.759-.236,1.685,1.685,0,0,0,.8-1.875,2.247,2.247,0,0,0-1.086-1.326,4.58,4.58,0,0,0-3.162-.294,7.56,7.56,0,0,0-3.546,2.093q-.057-.546-.115-1.09a104.658,104.658,0,0,0-2.691-15.922,1.231,1.231,0,0,0-2.418.3l.372,6.244c.04.676.081,1.35.113,2.026q-2.628-3.89-5.259-7.78c-.348-.514-.714-.836-1.309-.6-.569.23-.652.984-.506,1.582a30.585,30.585,0,0,0,3.126,7.278c-1.912-1.3-4.433-2.812-6.279-4.206a1.216,1.216,0,0,0-1.589.292c-.411.516,0,1.12.381,1.61,1.079,1.405,3.243,2.683,4.507,3.914-1.626-.475-4.531-.968-6.116-1.569A1.243,1.243,0,0,0,158.534,174.777Z" transform="translate(-158.478 -163.917)" fill="#efad9c"/>
          </g>
          <g id="Group_129125" data-name="Group 129125" transform="translate(13.101 12.112)">
            <path id="Path_190114" data-name="Path 190114" d="M213.081,204.338,203.028,221.9l-20.221-29.928-11.9,8.32s20.568,43.909,32.008,43.1,25.536-32.931,25.536-32.931Z" transform="translate(-170.905 -174.507)" fill="#084a93"/>
            <path id="Path_190115" data-name="Path 190115" d="M234.489,175.406c-11.445,3.907-25.466,30.051-25.466,30.051l17.612,10.337Z" transform="translate(-168.838 -175.406)" fill="#00defc"/>
          </g>
        </g>
        <g id="Group_129129" data-name="Group 129129" transform="translate(109.614 4.991)">
          <g id="Group_129127" data-name="Group 129127">
            <path id="Path_190116" data-name="Path 190116" d="M262.453,185.65l23.466,18.472a130.8,130.8,0,0,0,10.558,23.021l29.29-38.408,8.092,5.81s-26.681,51.124-38.685,50.3C285.03,244.145,262.453,185.65,262.453,185.65Z" transform="translate(-262.453 -167.729)" fill="#efad9c"/>
            <path id="Path_190117" data-name="Path 190117" d="M340.455,179.59c-1.622.489-4.554.781-6.208,1.143,1.345-1.141,3.593-2.267,4.766-3.594.41-.464.865-1.037.49-1.579a1.216,1.216,0,0,0-1.566-.4c-1.938,1.264-4.556,2.6-6.554,3.764A30.56,30.56,0,0,0,335,171.876c.186-.587.156-1.345-.4-1.614-.578-.28-.965.016-1.347.5l-5.782,7.4c.079-.673.167-1.343.253-2.015l.8-6.2a1.231,1.231,0,0,0-2.392-.469,104.632,104.632,0,0,0-3.782,15.7q-.1.539-.191,1.08a7.561,7.561,0,0,0-3.394-2.332A4.588,4.588,0,0,0,315.6,184a2.251,2.251,0,0,0-1.175,1.249,1.685,1.685,0,0,0,.671,1.926,2.093,2.093,0,0,0,.741.289l.2.039.051.013c.081.027.167.044.249.071.1.033.191.072.287.11l.035.014c.012.008.026.019.046.032.189.125.375.245.556.382.027.021.058.046.074.061.065.059.129.12.191.182.152.151.3.308.435.47.283.326.544.67.8,1.017a20.738,20.738,0,0,0,4.179,4.554,8.812,8.812,0,0,0,6.41,1.793,1.023,1.023,0,0,0,.507-.23,7.665,7.665,0,0,0,4.7-5.253,15.475,15.475,0,0,0,.411-7.219q3.03-.609,5.994-1.5a1.229,1.229,0,0,0-.5-2.406Z" transform="translate(-259.639 -168.651)" fill="#efad9c"/>
          </g>
          <g id="Group_129128" data-name="Group 129128" transform="translate(9.588 10.343)">
            <path id="Path_190118" data-name="Path 190118" d="M287.521,206.481l9.257,17.995,21.539-28.992,11.517,8.843s-22.51,42.945-33.9,41.625-24.039-34.04-24.039-34.04Z" transform="translate(-271.529 -177.539)" fill="#084a93"/>
            <path id="Path_190119" data-name="Path 190119" d="M271.548,178.462c10.681,5.671,19.533,32.109,19.533,32.109l-18.173,9.014Z" transform="translate(-271.548 -178.462)" fill="#00defc"/>
          </g>
        </g>
        <g id="Group_129130" data-name="Group 129130" transform="translate(60.223 8.762)">
          <path id="Path_190120" data-name="Path 190120" d="M248.077,172.228l-13.944,3.35S222.508,233.288,215.6,277.95c42.076,12.459,61.074,4.767,61.074,4.767,1.671-53.1-2.095-103.917-2.095-103.917l-13.147-5.507Z" transform="translate(-215.603 -172.228)" fill="#00defc"/>
          <ellipse id="Ellipse_4853" data-name="Ellipse 4853" cx="30.451" cy="14.149" rx="30.451" ry="14.149" transform="translate(17.316 79.946) rotate(-85.736)" fill="#00defc" opacity="0.35"/>
        </g>
      </g>
      <g id="Group_129139" data-name="Group 129139" transform="translate(73.524)">
        <g id="Group_129136" data-name="Group 129136" transform="translate(3.566)">
          <path id="Path_190121" data-name="Path 190121" d="M240.12,119.643l1-3.351a9.223,9.223,0,0,0-6.128,8.666l-.843-2.715c-5.4,6.239-.519,12.39-.519,12.39a14.825,14.825,0,0,0,1.367,3.758c4.64,8.871,15.29,12.381,19.808,21.278.986,1.941,2.243,4.136,4.689,4.284,2.252.137,3.844-1.762,5.131-3.333a62.1,62.1,0,0,0,8.907-14.739c2.169-5.031,4.412-10.861,2.51-16.331-1.323-3.8-5.175-6.743-9.075-6.227C260.861,115.195,248.44,114.79,240.12,119.643Z" transform="translate(-231.602 -116.292)" fill="#5b3d31"/>
          <path id="Path_190122" data-name="Path 190122" d="M265.815,130.166c-5.149-11.534-26.663-9.451-29.011-.794-4.833,17.808-2.849,25.436,1.836,30.107,5.421,5.405,9.266,5.078,8.438,15.462.179,7.012,5.834,11.376,13.358,1.065a62.783,62.783,0,0,1,6.479-23.818S267.938,134.922,265.815,130.166Z" transform="translate(-231.471 -115.972)" fill="#efad9c"/>
          <path id="Path_190123" data-name="Path 190123" d="M234.944,134.722s-1.27-4.093,4.114-10.322c3.444-3.984,12.563-4.309,20.155-2.271s10.674,5.654,10.485,11.2-.177,12.494-.177,12.494l-3.172,2.042c-4.44-3.5-3.032-15.36-3.032-15.36-4.062,4.961-11.293,3.167-11.293,3.167l4.52-3.306a27.823,27.823,0,0,1-14.11,2.427,33.916,33.916,0,0,0,3.008-2.684C242.241,133.447,238.412,134.722,234.944,134.722Z" transform="translate(-231.428 -116.042)" fill="#5b3d31"/>
          <g id="Group_129134" data-name="Group 129134" transform="translate(4.963 23.056)">
            <g id="Group_129132" data-name="Group 129132" transform="translate(12.341 5.676)">
              <path id="Path_190124" data-name="Path 190124" d="M250.74,145.019a1.364,1.364,0,1,1-1.251-1.469A1.364,1.364,0,0,1,250.74,145.019Z" transform="translate(-248.016 -143.546)"/>
              <path id="Path_190125" data-name="Path 190125" d="M249.389,144.515a.5.5,0,1,1-.458-.538A.5.5,0,0,1,249.389,144.515Z" transform="translate(-247.995 -143.523)" fill="#fff"/>
            </g>
            <g id="Group_129133" data-name="Group 129133" transform="translate(1.821 4.838)">
              <path id="Path_190126" data-name="Path 190126" d="M240.762,144.224a1.365,1.365,0,1,1-1.252-1.469A1.365,1.365,0,0,1,240.762,144.224Z" transform="translate(-238.037 -142.751)"/>
              <path id="Path_190127" data-name="Path 190127" d="M239.411,143.72a.5.5,0,1,1-.459-.538A.5.5,0,0,1,239.411,143.72Z" transform="translate(-238.017 -142.728)" fill="#fff"/>
            </g>
            <path id="Path_190128" data-name="Path 190128" d="M242.191,139.22a4.466,4.466,0,0,0-5.56-.17.9.9,0,0,0-.215,1.114.652.652,0,0,0,.97.221,3.206,3.206,0,0,1,2.386-.584,3.254,3.254,0,0,1,1.182.429c.325.2.63.513,1.028.326a.721.721,0,0,0,.248-.2A.894.894,0,0,0,242.191,139.22Z" transform="translate(-236.31 -138.162)" fill="#5b3d31"/>
            <path id="Path_190129" data-name="Path 190129" d="M246.936,139.6a5.711,5.711,0,0,1,6.328.778.8.8,0,0,1-1.082,1.189,4.014,4.014,0,0,0-2.6-.968,4.341,4.341,0,0,0-1.413.216c-.4.132-.8.39-1.22.139a.768.768,0,0,1-.246-.241A.81.81,0,0,1,246.936,139.6Z" transform="translate(-235.753 -138.117)" fill="#5b3d31"/>
            <path id="Path_190130" data-name="Path 190130" d="M243.364,151.874a4.842,4.842,0,0,1-2.215-.735.713.713,0,1,1,.761-1.205,3.747,3.747,0,0,0,4.444-.464.713.713,0,1,1,1.081.93A5.105,5.105,0,0,1,243.364,151.874Z" transform="translate(-236.065 -137.562)" fill="#c16b5b"/>
            <path id="Path_190131" data-name="Path 190131" d="M241.958,147.867a.179.179,0,0,1-.16-.141c-.245-1.187.181-1.55.581-1.645a1.719,1.719,0,0,1,1.384.42.178.178,0,0,1-.211.288,1.389,1.389,0,0,0-1.09-.361c-.359.084-.465.5-.315,1.226a.178.178,0,0,1-.139.21A.158.158,0,0,1,241.958,147.867Z" transform="translate(-236.016 -137.734)" fill="#c16b5b"/>
          </g>
          <g id="Group_129135" data-name="Group 129135" transform="translate(32.524 29.473)">
            <path id="Path_190132" data-name="Path 190132" d="M269.994,151.76c-1.991,2.023-4.907,2.383-6.514.8s-1.294-4.5.7-6.526,4.906-2.383,6.513-.8S271.984,149.736,269.994,151.76Z" transform="translate(-262.453 -144.249)" fill="#efad9c"/>
            <path id="Path_190133" data-name="Path 190133" d="M269.3,146.122a3.147,3.147,0,0,0-2.761-.167,2.583,2.583,0,0,0-1.12.736,1.568,1.568,0,0,0-.34,1.419,2.233,2.233,0,0,0,.686.954,2.077,2.077,0,0,1,.467.552.8.8,0,0,1-1.115,1.046.357.357,0,1,0-.35.622,1.487,1.487,0,0,0,.608.182,1.507,1.507,0,0,0,1.5-2.159,2.684,2.684,0,0,0-.617-.759,1.657,1.657,0,0,1-.494-.64.861.861,0,0,1,.2-.761.719.719,0,0,1,1.281.18,1.277,1.277,0,0,1,.227,1.066.356.356,0,0,0,.26.431.513.513,0,0,0,.058.009.356.356,0,0,0,.373-.27,1.977,1.977,0,0,0-.355-1.675,1.648,1.648,0,0,0-.5-.4,2.246,2.246,0,0,1,1.609.239,1.38,1.38,0,0,1,.557,1.725.357.357,0,1,0,.622.35A2.087,2.087,0,0,0,269.3,146.122Z" transform="translate(-262.337 -144.17)" fill="#c16b5b"/>
          </g>
        </g>
        <g id="Group_129138" data-name="Group 129138" transform="translate(0 20.248)">
          <g id="Group_129137" data-name="Group 129137">
            <path id="Path_190134" data-name="Path 190134" d="M259.329,149.663l-10.5-.783a1.709,1.709,0,0,1-1.188-.609l-1.727-2.071-2.136,1.811a1.713,1.713,0,0,1-1.236.4l-9.27-.695a2.371,2.371,0,0,1-2.2-2.531l.545-7.308a2.371,2.371,0,0,1,2.55-2.178l26.054,1.946a2.371,2.371,0,0,1,2.2,2.531l-.545,7.308A2.371,2.371,0,0,1,259.329,149.663Z" transform="translate(-228.065 -135.488)" fill="#081a35"/>
            <path id="Path_190135" data-name="Path 190135" d="M256.48,149.469l-10.5-.783a1.709,1.709,0,0,1-1.188-.609l-1.727-2.071-2.136,1.811a1.713,1.713,0,0,1-1.236.4l-9.27-.695a2.371,2.371,0,0,1-2.2-2.531l.545-7.308a2.371,2.371,0,0,1,2.55-2.178l26.054,1.946a2.371,2.371,0,0,1,2.2,2.531l-.545,7.308A2.371,2.371,0,0,1,256.48,149.469Z" transform="translate(-228.22 -135.499)" fill="#084a93"/>
            <path id="Path_190136" data-name="Path 190136" d="M254.381,147.037l-8.786-.656a1.67,1.67,0,0,1-1-.409l-1.473-1.355-1.758,1.132a1.683,1.683,0,0,1-1.027.239l-7.758-.58c-1.1-.082-1.938-.824-1.875-1.659l.35-4.687a1.8,1.8,0,0,1,2.1-1.363l21.8,1.628c1.1.082,1.937.824,1.874,1.659l-.349,4.687A1.8,1.8,0,0,1,254.381,147.037Z" transform="translate(-228.085 -135.38)" fill="#081a35"/>
          </g>
          <path id="Path_190137" data-name="Path 190137" d="M260.16,144.31l6.335.467s3.025-1.275,4.817,1.27q.844-1.842,1.649-3.847l-12.8-1.412Z" transform="translate(-226.488 -135.212)" fill="#081a35"/>
        </g>
      </g>
    </g>
    <g id="Group_129155" data-name="Group 129155" transform="translate(288.581 94.486)">
      <g id="Group_129143" data-name="Group 129143" transform="translate(102.233 151.041)">
        <g id="Group_129141" data-name="Group 129141" transform="translate(0 0)">
          <path id="Path_190138" data-name="Path 190138" d="M382.418,308.027a10.385,10.385,0,0,1-10.243-12.1l8.8-52.522a10.355,10.355,0,0,1,10.242-8.669h67.78a10.386,10.386,0,0,1,10.243,12.1l-8.8,52.521a10.355,10.355,0,0,1-10.242,8.669Z" transform="translate(-372.032 -234.738)" fill="none" stroke="#d9faff" stroke-miterlimit="10" stroke-width="2" opacity="0.4"/>
          <path id="Path_190139" data-name="Path 190139" d="M449.939,302.729H382.158a5.345,5.345,0,0,1-5.271-6.228l8.8-52.52a5.345,5.345,0,0,1,5.271-4.463h67.78a5.345,5.345,0,0,1,5.272,6.228l-8.8,52.521A5.344,5.344,0,0,1,449.939,302.729Z" transform="translate(-371.773 -234.479)" fill="#00defc" opacity="0.15"/>
        </g>
        <g id="Group_129142" data-name="Group 129142" transform="translate(26.746 15.02)">
          <path id="Path_190140" data-name="Path 190140" d="M433.046,270.124,414,257.95,409.921,282.3l23.125-12.174L414,257.95,409.921,282.3Z" transform="translate(-396.723 -248.499)" fill="#cc8f09"/>
          <path id="Path_190141" data-name="Path 190141" d="M415.708,292.236c-11.923,0-20-9.7-18-21.625s13.323-21.626,25.247-21.626,20,9.7,18,21.626S427.632,292.236,415.708,292.236Zm6.739-40.228c-10.257,0-20,8.344-21.717,18.6s5.229,18.6,15.486,18.6,20-8.345,21.717-18.6S432.7,252.009,422.446,252.009Z" transform="translate(-397.402 -248.985)" fill="#00defc" opacity="0.35"/>
        </g>
      </g>
      <g id="Group_129154" data-name="Group 129154">
        <g id="Group_129144" data-name="Group 129144">
          <path id="Path_190142" data-name="Path 190142" d="M287.635,229.566a12.576,12.576,0,0,1-12.405-14.643l18.822-112.947a12.536,12.536,0,0,1,12.405-10.509H472.519a12.576,12.576,0,0,1,12.405,14.642L466.1,219.058A12.539,12.539,0,0,1,453.7,229.566Z" transform="translate(-275.058 -91.467)" fill="none" stroke="#d9faff" stroke-miterlimit="10" stroke-width="2" opacity="0.4"/>
          <path id="Path_190143" data-name="Path 190143" d="M453.438,224.268H287.376a7.536,7.536,0,0,1-7.434-8.775l18.822-112.948a7.536,7.536,0,0,1,7.434-6.3H472.26a7.536,7.536,0,0,1,7.434,8.775L460.872,217.97A7.536,7.536,0,0,1,453.438,224.268Z" transform="translate(-274.799 -91.208)" fill="#00defc" opacity="0.15"/>
        </g>
        <g id="Group_129153" data-name="Group 129153" transform="translate(17.059 17.972)">
          <g id="Group_129145" data-name="Group 129145" transform="translate(52.706)">
            <path id="Path_190144" data-name="Path 190144" d="M361.413,202.493H353.79l9.3-55.834h7.623Z" transform="translate(-340.553 -106.445)" fill="#00defc"/>
            <path id="Path_190145" data-name="Path 190145" d="M376.612,203.36h-7.623l12.116-72.7h7.623Z" transform="translate(-339.729 -107.313)" fill="#cc8f09"/>
            <path id="Path_190146" data-name="Path 190146" d="M391.81,201.8h-7.623l7.064-42.388h7.623Z" transform="translate(-338.905 -105.754)" fill="#00defc"/>
            <path id="Path_190147" data-name="Path 190147" d="M407.009,202.861h-7.623l10.5-63h7.623Z" transform="translate(-338.081 -106.814)" fill="#cc8f09"/>
            <path id="Path_190148" data-name="Path 190148" d="M422.207,204.105h-7.623l14.528-87.181h7.623Z" transform="translate(-337.256 -108.058)" fill="#00defc"/>
            <path id="Path_190149" data-name="Path 190149" d="M437.406,203.6h-7.623l12.9-77.407h7.623Z" transform="translate(-336.432 -107.555)" fill="#cc8f09"/>
            <path id="Path_190150" data-name="Path 190150" d="M448.892,213.014H341.662a.416.416,0,0,1-.421-.5.62.62,0,0,1,.588-.5H448.556l17.162-102.988a.62.62,0,0,1,.588-.5.415.415,0,0,1,.42.5L449.479,212.51A.619.619,0,0,1,448.892,213.014Z" transform="translate(-341.234 -108.514)" fill="#00defc"/>
          </g>
          <g id="Group_129151" data-name="Group 129151" transform="translate(16.113 0.239)">
            <g id="Group_129146" data-name="Group 129146" transform="translate(4.672)">
              <path id="Path_190151" data-name="Path 190151" d="M354.748,111.512H310.956l.462-2.772H355.21Z" transform="translate(-310.956 -108.741)" fill="#00defc"/>
            </g>
            <g id="Group_129147" data-name="Group 129147" transform="translate(3.504 7.01)">
              <path id="Path_190152" data-name="Path 190152" d="M361.156,118.161H309.848l.462-2.771h51.308Z" transform="translate(-309.848 -115.39)" fill="#00defc"/>
            </g>
            <g id="Group_129148" data-name="Group 129148" transform="translate(2.336 14.019)">
              <path id="Path_190153" data-name="Path 190153" d="M356.057,124.81H308.74l.462-2.771h47.317Z" transform="translate(-308.74 -122.039)" fill="#00defc"/>
            </g>
            <g id="Group_129149" data-name="Group 129149" transform="translate(1.168 21.029)">
              <path id="Path_190154" data-name="Path 190154" d="M341.68,131.46H307.632l.462-2.771h34.049Z" transform="translate(-307.632 -128.688)" fill="#00defc"/>
            </g>
            <g id="Group_129150" data-name="Group 129150" transform="translate(0 28.039)">
              <path id="Path_190155" data-name="Path 190155" d="M349.918,138.109H306.524l.462-2.771H350.38Z" transform="translate(-306.524 -135.337)" fill="#00defc"/>
            </g>
          </g>
          <g id="Group_129152" data-name="Group 129152" transform="translate(0 94.66)">
            <path id="Path_190156" data-name="Path 190156" d="M295.828,203.847h-4.589l.924-5.543h4.589Z" transform="translate(-291.239 -198.305)" fill="#00defc"/>
            <path id="Path_190157" data-name="Path 190157" d="M332.468,203.847h-32.21l.924-5.543h32.211Z" transform="translate(-290.75 -198.305)" fill="#00defc"/>
          </g>
        </g>
      </g>
    </g>
    <g id="Group_129156" data-name="Group 129156" transform="translate(35.985 48.672)">
      <path id="Path_190158" data-name="Path 190158" d="M273.806,71.928a4.264,4.264,0,1,1,4.264-4.264A4.269,4.269,0,0,1,273.806,71.928Zm0-7.52a3.256,3.256,0,1,0,3.256,3.255A3.26,3.26,0,0,0,273.806,64.408Z" transform="translate(-22.761 -47.175)" fill="#00defc"/>
      <path id="Path_190159" data-name="Path 190159" d="M391.371,324.583a4.263,4.263,0,1,1,4.264-4.263A4.268,4.268,0,0,1,391.371,324.583Zm0-7.519a3.255,3.255,0,1,0,3.257,3.255A3.26,3.26,0,0,0,391.371,317.064Z" transform="translate(-16.385 -33.473)" fill="#00defc"/>
      <path id="Path_190160" data-name="Path 190160" d="M69.757,374.487a4.263,4.263,0,1,1,4.263-4.263A4.269,4.269,0,0,1,69.757,374.487Zm0-7.519a3.255,3.255,0,1,0,3.255,3.255A3.26,3.26,0,0,0,69.757,366.968Z" transform="translate(-33.827 -30.766)" fill="#00defc"/>
      <path id="Path_190161" data-name="Path 190161" d="M353.152,240.353a4.264,4.264,0,1,1,4.263-4.264A4.269,4.269,0,0,1,353.152,240.353Zm0-7.52a3.256,3.256,0,1,0,3.255,3.255A3.26,3.26,0,0,0,353.152,232.833Z" transform="translate(-18.457 -38.041)" fill="#00defc"/>
      <path id="Path_190162" data-name="Path 190162" d="M61.893,106.723a4.263,4.263,0,1,1,4.263-4.263A4.269,4.269,0,0,1,61.893,106.723Zm0-7.52a3.256,3.256,0,1,0,3.255,3.257A3.261,3.261,0,0,0,61.893,99.2Z" transform="translate(-34.253 -45.288)" fill="#00defc"/>
      <path id="Path_190163" data-name="Path 190163" d="M359.173,71.928a4.264,4.264,0,1,1,4.263-4.264A4.269,4.269,0,0,1,359.173,71.928Zm0-7.52a3.256,3.256,0,1,0,3.255,3.255A3.259,3.259,0,0,0,359.173,64.408Z" transform="translate(-18.131 -47.175)" fill="#00defc"/>
      <path id="Path_190164" data-name="Path 190164" d="M421.108,59.865a4.263,4.263,0,1,1,4.264-4.263A4.268,4.268,0,0,1,421.108,59.865Zm0-7.519a3.255,3.255,0,1,0,3.257,3.255A3.259,3.259,0,0,0,421.108,52.346Z" transform="translate(-14.772 -47.83)" fill="#00defc"/>
      <path id="Path_190165" data-name="Path 190165" d="M336.375,60.045a6.018,6.018,0,1,1,6.018-6.018A6.025,6.025,0,0,1,336.375,60.045Zm0-11.027a5.01,5.01,0,1,0,5.01,5.01A5.015,5.015,0,0,0,336.375,49.018Z" transform="translate(-19.462 -48.01)" fill="#00defc"/>
      <path id="Path_190166" data-name="Path 190166" d="M459.9,326.427a6.018,6.018,0,1,1,6.018-6.018A6.025,6.025,0,0,1,459.9,326.427Zm0-11.027a5.01,5.01,0,1,0,5.01,5.01A5.015,5.015,0,0,0,459.9,315.4Z" transform="translate(-12.763 -33.563)" fill="#00defc"/>
      <path id="Path_190167" data-name="Path 190167" d="M41.474,329.379a6.018,6.018,0,1,1,6.018-6.018A6.024,6.024,0,0,1,41.474,329.379Zm0-11.027a5.01,5.01,0,1,0,5.01,5.01A5.015,5.015,0,0,0,41.474,318.352Z" transform="translate(-35.456 -33.403)" fill="#00defc"/>
    </g>
    <g id="Group_129159" data-name="Group 129159" transform="translate(345.388 337.821)">
      <g id="Group_129157" data-name="Group 129157" transform="translate(30.922)">
        <path id="Path_190168" data-name="Path 190168" d="M435.475,382.092c-1.532,4.343-5.2,7.629-9.192,9.928s-8.385,3.8-12.537,5.8-8.174,4.657-10.6,8.567a7.172,7.172,0,0,0-1.29,4.394,3.479,3.479,0,0,0,2.882,3.185c1.753.132,3.134-1.4,4.233-2.781a26.959,26.959,0,0,1,6.6-6.542c2.65-1.642,6.036-2.378,8.92-1.179a6.945,6.945,0,0,1,1.833,1.129,7.477,7.477,0,0,1,1.392,1.541,10.584,10.584,0,0,1,1.068,9.5c-1.693,4.455-5.8,7.569-10.109,9.595s-8.969,3.215-13.283,5.242c-9.161,4.313-16.5,13.122-19.622,22.757h-7.106c2.177-8.657-.363-18.575-5.4-25.943-2.509-3.678-5.765-6.762-8.637-10.159s-5.442-7.256-6.167-11.641.756-9.383,4.525-11.741a7.372,7.372,0,0,1,2.922-1.038,8.132,8.132,0,0,1,2.037-.04,6.933,6.933,0,0,1,6.138,4.4,15.857,15.857,0,0,1,.332,5.221,7.786,7.786,0,0,0,1.24,5c1.1,1.371,3.4,1.884,4.6.615a4.364,4.364,0,0,0,.937-2.5c1.6-12.457-6.894-23.916-8.748-36.333-.685-4.637-.272-9.806,2.853-13.293a8.874,8.874,0,0,1,5.442-2.762,8.774,8.774,0,0,1,2.056-.031,6.221,6.221,0,0,1,4.667,2.671c3,4.555-1.008,10.6-.323,16.035.252,1.965,1.582,4.122,3.557,4.082,2.157-.041,3.317-2.51,3.83-4.606,1.8-7.4,1.774-15.1,2.732-22.647s3.1-15.329,8.355-20.842c3.658-3.83,9.272-6.279,14.3-5.11a10.539,10.539,0,0,1,1.945.656c.029.01.06.03.091.04,6.339,2.933,8.295,11.469,6.238,18.141s-7.024,11.963-11.58,17.255-9.02,11.228-9.705,18.181c-.121,1.169-.031,2.56.937,3.245,1.552,1.1,3.537-.584,4.706-2.086,2.389-3.053,4.969-6.087,8.356-7.952,3.033-1.652,6.863-2.217,9.977-.847a8.016,8.016,0,0,1,1.088.575,4.785,4.785,0,0,1,.645.474C435.968,372.89,436.916,378,435.475,382.092Z" transform="translate(-358.273 -322.285)" fill="#cc8f09"/>
        <path id="Path_190169" data-name="Path 190169" d="M394.442,400.026c.212-1.088.433-2.177.655-3.265a78.773,78.773,0,0,0,32.936-21.5q2.193-2.418,4.193-5.018a4.78,4.78,0,0,0-.645-.474,8.014,8.014,0,0,0-1.088-.575,76.633,76.633,0,0,1-34.921,25.267c3.779-18.393,8.344-36.786,16.266-53.889a130.174,130.174,0,0,1,9.636-17.355,10.536,10.536,0,0,0-1.945-.656c-8.012,12.175-13.737,25.771-18.051,39.7a358.624,358.624,0,0,0-8.677,35.719,46.537,46.537,0,0,1-10.392-45,8.774,8.774,0,0,0-2.056.031,49.018,49.018,0,0,0,4.737,37.945,49.594,49.594,0,0,0,7.227,9.454c-1.421,7.166-2.772,14.351-4.223,21.507-.352,1.733-.716,3.466-1.078,5.19a32.477,32.477,0,0,1-16.186-14.715,32.135,32.135,0,0,1-3.265-19.733,8.131,8.131,0,0,0-2.037.04,34.277,34.277,0,0,0,12.246,31.223,35.159,35.159,0,0,0,8.808,5.17c-1.744,8.1-3.689,16.176-6.047,24.128h2.086c1.985-6.7,3.658-13.475,5.181-20.3a70.347,70.347,0,0,0,36.575-23.009q1.542-1.845,2.963-3.79a7.472,7.472,0,0,0-1.392-1.541,68.854,68.854,0,0,1-27.181,22.383,66.264,66.264,0,0,1-10.472,3.729c2.177-10,4.051-20.076,6.038-30.114A.967.967,0,0,0,394.442,400.026Z" transform="translate(-357.897 -322.269)" fill="#996b07"/>
      </g>
      <g id="Group_129158" data-name="Group 129158" transform="translate(0 32.253)">
        <path id="Path_190170" data-name="Path 190170" d="M381.715,425.58a68.123,68.123,0,0,1-7.38,26H344.363a23.568,23.568,0,0,0-4.027-8.782,38.721,38.721,0,0,1-4.776-6.431,13.6,13.6,0,0,1-1.423-8.982,7.735,7.735,0,0,1,1.887-3.584,5.3,5.3,0,0,1,1.708-1.244,4.186,4.186,0,0,1,1.56-.411c2.2-.137,4.343,1.318,6.062,3.395-3.658-5.777-7.264-11.607-10.911-17.395-1.792-2.825-3.711-6.283-3.258-10.11a7.906,7.906,0,0,1,.833-2.762,6.468,6.468,0,0,1,1.3-1.782,4.955,4.955,0,0,1,3.131-1.56c2.4-.169,4.712,1.413,6.726,3.352-3.374-6.315-6.325-12.609-9.7-18.924a36.8,36.8,0,0,1-4.122-10.026c-.791-3.764-.5-8.307,1.423-11.027.011-.021.021-.032.032-.053a6.333,6.333,0,0,1,1.55-1.508,5.235,5.235,0,0,1,4.175-.706c2.035.506,3.88,2.066,5.535,3.89,6.979,7.738,10.753,20.083,14.053,32.154a14.6,14.6,0,0,1,1.655-8.234,5.886,5.886,0,0,1,3.258-2.868,4.012,4.012,0,0,1,2.087-.095,3.785,3.785,0,0,1,1.371.58c2.224,1.476,3.584,4.849,4.6,8.149a94.091,94.091,0,0,1,4.027,28.77c.38-2.667,2.5-3.816,4.291-3.258a4.125,4.125,0,0,1,1.855,1.307,10.116,10.116,0,0,1,1.961,4.069A27.086,27.086,0,0,1,381.715,425.58Z" transform="translate(-328.942 -352.878)" fill="#ffb30b"/>
        <path id="Path_190171" data-name="Path 190171" d="M377.307,412.083a100.884,100.884,0,0,1-15.687,34.094c-.432-5.313-1.075-10.616-1.9-15.887a.968.968,0,0,0,.348-.559,148.224,148.224,0,0,0,2.952-51.889,4.013,4.013,0,0,0-2.087.095,145.747,145.747,0,0,1-2.056,47.441,217.816,217.816,0,0,0-17-53.471q-4.365-9.33-9.615-18.207a6.333,6.333,0,0,0-1.55,1.508A215.8,215.8,0,0,1,355.643,419.7a227.113,227.113,0,0,1-22.424-26.25,6.467,6.467,0,0,0-1.3,1.782,231.757,231.757,0,0,0,23.931,27.684,1.019,1.019,0,0,0,.5.274q.949,4.9,1.676,9.847.759,5.124,1.233,10.279a51.123,51.123,0,0,1-21.622-20.8,5.3,5.3,0,0,0-1.708,1.244,52.988,52.988,0,0,0,23.541,22c.011,0,.011.011.021.011.158,1.919.3,3.848.4,5.767h2.1c-.053-1.075-.126-2.151-.211-3.215a1.065,1.065,0,0,0,1.191-.411,102.5,102.5,0,0,0,16.193-34.516A4.126,4.126,0,0,0,377.307,412.083Z" transform="translate(-328.846 -352.833)" fill="#dd6e0a"/>
      </g>
    </g>
    <g id="Group_129166" data-name="Group 129166" transform="translate(69.942 363.06)">
      <g id="Group_129163" data-name="Group 129163" transform="translate(65.483)">
        <g id="Group_129160" data-name="Group 129160" transform="translate(16.388 42.166)">
          <path id="Path_190172" data-name="Path 190172" d="M179.956,404.307a28.755,28.755,0,0,1,49.886-6.363,44.055,44.055,0,0,1-24.83,9.647C196.328,408.084,188.546,405.674,179.956,404.307Z" transform="translate(-143.448 -386.222)" fill="#ffb30b"/>
          <path id="Path_190173" data-name="Path 190173" d="M145.49,440.821c12.417-18.071,27.336-35.878,48.439-43.827a58.71,58.71,0,0,1,16.743-3.692c1.174-.08,1.11,1.747-.053,1.826-21.336,1.445-39.106,15.49-52.225,31.4-4.04,4.9-7.77,10.043-11.364,15.274C146.368,442.768,144.822,441.794,145.49,440.821Z" transform="translate(-145.326 -385.838)" fill="#dd6e0a"/>
        </g>
        <g id="Group_129161" data-name="Group 129161" transform="translate(17.079)">
          <path id="Path_190174" data-name="Path 190174" d="M184.991,346.225c4.8,5.68,6.851,14.068,5.385,22.006a36.76,36.76,0,0,1-7.269,15.523,68.073,68.073,0,0,1-12.08,11.728,54.154,54.154,0,0,1-1.089-27.549A35.855,35.855,0,0,1,184.991,346.225Z" transform="translate(-144.752 -346.225)" fill="#ffb30b"/>
          <path id="Path_190175" data-name="Path 190175" d="M146.149,441.04A220.09,220.09,0,0,0,173.4,387.832q2.79-7.975,4.958-16.147c.3-1.136,2.048-.6,1.746.537a221.922,221.922,0,0,1-23.167,55.407Q152.6,435,147.69,442.022C147.019,442.982,145.473,442.008,146.149,441.04Z" transform="translate(-145.981 -344.878)" fill="#dd6e0a"/>
        </g>
        <g id="Group_129162" data-name="Group 129162" transform="translate(0 16.514)">
          <path id="Path_190176" data-name="Path 190176" d="M129.781,362.111c4.946-.309,9.976-.464,14.792.705s9.456,3.821,12.05,8.044a18.108,18.108,0,0,1,2.467,8.89,34.524,34.524,0,0,1-1.146,9.231,49.329,49.329,0,0,1-18.119-9.372C134.621,375.147,130.493,368.93,129.781,362.111Z" transform="translate(-129.781 -361.89)" fill="#ffb30b"/>
          <path id="Path_190177" data-name="Path 190177" d="M144.164,369.106c8,5.074,12.89,13.691,14.837,22.808,2.324,10.879.306,22.007-3.456,32.326a180.5,180.5,0,0,1-8.684,19.28c-.528,1.047-2.067.061-1.541-.981,5.363-10.639,10.651-21.7,12.343-33.613,1.313-9.243.2-18.965-4.321-27.239a29.954,29.954,0,0,0-10.16-11.039A.914.914,0,0,1,144.164,369.106Z" transform="translate(-129.077 -361.506)" fill="#dd6e0a"/>
        </g>
      </g>
      <g id="Group_129165" data-name="Group 129165" transform="translate(0 28.324)">
        <path id="Path_190178" data-name="Path 190178" d="M183.142,450.481H75.447c-4.121-4.825-6.743-12.35-7.592-18.642-.319-2.379-.352-4.935.86-7.018a7.981,7.981,0,0,1,7.8-3.493,13.134,13.134,0,0,1,7.745,4.3,39.365,39.365,0,0,1,5.09,7.437,60.121,60.121,0,0,1-2.644-25.251,14.762,14.762,0,0,1,1.553-5.873,5.959,5.959,0,0,1,4.87-3.216c2.589-.022,4.649,2.082,6.225,4.12a60.6,60.6,0,0,1,9.486,17.815c-1.256-13.452-2.126-27.312,3.317-39.674a16,16,0,0,1,4.054-5.961,7.336,7.336,0,0,1,6.777-1.652c3.79,1.233,5.134,5.8,5.838,9.706a254.15,254.15,0,0,1,3.911,38.55,45.306,45.306,0,0,1,7.922-20.989c1.742-2.478,4.275-5.013,7.283-4.649a6.186,6.186,0,0,1,4.584,3.757,15.6,15.6,0,0,1,1.057,6.048,70.951,70.951,0,0,1-2.864,21.87A36.5,36.5,0,0,1,161.9,414.112c2.138-1.652,4.892-3.129,7.415-2.181a5.8,5.8,0,0,1,3.216,3.438,13.393,13.393,0,0,1,.705,4.77,40,40,0,0,1-4.132,17.9,20.152,20.152,0,0,1,8.274-7.084c2.281-1.046,5.289-1.531,7.052.254a6.538,6.538,0,0,1,1.4,4.516C185.919,440.973,186.118,446.151,183.142,450.481Z" transform="translate(-67.667 -373.092)" fill="#cc8f09"/>
        <g id="Group_129164" data-name="Group 129164" transform="translate(6.831 7.039)">
          <path id="Path_190179" data-name="Path 190179" d="M122.628,450.119h-2.2c-.21-2.314-.4-4.627-.584-6.941q-2.529-31.135-3.493-62.347c-.044-1.421,2.159-1.411,2.2,0q.281,8.857.673,17.715Q120.38,424.36,122.628,450.119Z" transform="translate(-71.857 -379.769)" fill="#996b07"/>
          <path id="Path_190180" data-name="Path 190180" d="M108.954,448.748H106.6q-8.38-20.956-15.568-42.351c-.451-1.344,1.675-1.918,2.126-.584Q100.427,427.511,108.954,448.748Z" transform="translate(-73.234 -378.397)" fill="#996b07"/>
          <path id="Path_190181" data-name="Path 190181" d="M92.459,447.661H89.65Q81.569,437.5,74.336,426.695c-.794-1.179,1.112-2.28,1.894-1.112Q83.867,436.968,92.459,447.661Z" transform="translate(-74.146 -377.311)" fill="#996b07"/>
          <path id="Path_190182" data-name="Path 190182" d="M144.373,402.386a466.446,466.446,0,0,0-8.065,46.581h-2.215a473.967,473.967,0,0,1,8.153-47.165C142.566,400.413,144.681,401,144.373,402.386Z" transform="translate(-70.895 -378.617)" fill="#996b07"/>
          <path id="Path_190183" data-name="Path 190183" d="M161.737,417.359q-5.47,15.171-9.541,30.794h-2.281q4.116-15.915,9.7-31.377C160.084,415.442,162.211,416.026,161.737,417.359Z" transform="translate(-70.037 -377.803)" fill="#996b07"/>
          <path id="Path_190184" data-name="Path 190184" d="M175.343,433.172,170.936,447.3h-2.314l4.594-14.719C173.635,431.233,175.761,431.806,175.343,433.172Z" transform="translate(-69.022 -376.946)" fill="#996b07"/>
        </g>
      </g>
    </g>
  </g>
</svg>
