<svg xmlns="http://www.w3.org/2000/svg" xmlns:xlink="http://www.w3.org/1999/xlink" width="439.744" height="453.72" viewBox="0 0 439.744 453.72">
  <defs>
    <clipPath id="clip-path">
      <path id="Path_191963" data-name="Path 191963" d="M-5139.859,1563.05q-.007-1.937-.01-3.882h0C-5139.864,1560.462-5139.864,1561.758-5139.859,1563.05Z" transform="translate(5139.869 -1559.168)" fill="none"/>
    </clipPath>
  </defs>
  <g id="_1" data-name="1" transform="translate(5446.318 -1144.215)">
    <g id="Group_129978" data-name="Group 129978" transform="translate(-5436.943 1422.609)">
      <g id="Group_129917" data-name="Group 129917" transform="translate(224.875 16.421)">
        <path id="Path_191803" data-name="Path 191803" d="M-5131.083,1518.476l-16.643,9.679-3.792-2.191,13.184-7.669-4.768-.992,2.283-2.067,6.486,1.364Z" transform="translate(5151.518 -1515.235)" fill="#a6bfda"/>
      </g>
      <g id="Group_129918" data-name="Group 129918" transform="translate(208.871 8.268)">
        <path id="Path_191804" data-name="Path 191804" d="M-5151.9,1506.4c4.484,2.593,2.247,5.913-2.3,8.559-5.152,3-10.756,3.861-15.05,1.378-4.336-2.5-2.368-5.846,2.3-8.605C-5162.122,1504.922-5156.231,1503.893-5151.9,1506.4Zm-14.3,8.292c1.508.874,4.242.247,8.031-1.955,3.685-2.145,4.836-3.729,3.249-4.647-1.435-.825-4.225-.348-8.087,1.919-3.825,2.2-4.721,3.8-3.193,4.683Z" transform="translate(5171.658 -1504.975)" fill="#a6bfda"/>
      </g>
      <g id="Group_129919" data-name="Group 129919" transform="translate(194.56 0)">
        <path id="Path_191805" data-name="Path 191805" d="M-5169.906,1495.987c4.484,2.6,2.265,5.924-2.284,8.577-5.153,2.992-10.775,3.84-15.069,1.359-4.332-2.5-2.373-5.846,2.321-8.594C-5180.114,1494.523-5174.238,1493.484-5169.906,1495.987Zm-14.3,8.3c1.5.873,4.243.246,8.032-1.956,3.69-2.15,4.838-3.736,3.25-4.654-1.434-.827-4.229-.343-8.087,1.926-3.825,2.2-4.721,3.8-3.194,4.684Z" transform="translate(5189.668 -1494.57)" fill="#a6bfda"/>
      </g>
      <g id="Group_129920" data-name="Group 129920" transform="translate(267.821 41.235)">
        <path id="Path_191806" data-name="Path 191806" d="M-5077.04,1549.7l-16.643,9.686-3.788-2.191,13.18-7.672-4.768-.992,2.28-2.068,6.49,1.359Z" transform="translate(5097.471 -1546.464)" fill="#a6bfda"/>
      </g>
      <g id="Group_129921" data-name="Group 129921" transform="translate(280.441 49.627)">
        <path id="Path_191807" data-name="Path 191807" d="M-5061.824,1558.446c4.485,2.593,2.248,5.915-2.307,8.561-5.148,2.995-10.775,3.847-15.047,1.373-4.334-2.5-2.372-5.845,2.3-8.606C-5072.05,1556.972-5066.154,1555.942-5061.824,1558.446Zm-14.3,8.294c1.509.874,4.239.244,8.026-1.956,3.692-2.146,4.838-3.735,3.25-4.653-1.429-.825-4.225-.344-8.082,1.924-3.827,2.2-4.728,3.8-3.195,4.686Z" transform="translate(5081.589 -1557.024)" fill="#a6bfda"/>
      </g>
      <g id="Group_129924" data-name="Group 129924" transform="translate(237.5 24.811)" style="isolation: isolate">
        <g id="Group_129922" data-name="Group 129922">
          <path id="Path_191808" data-name="Path 191808" d="M-5115.866,1527.215c4.485,2.6,2.247,5.913-2.307,8.563-5.148,3-10.775,3.845-15.046,1.375-4.335-2.5-2.373-5.846,2.3-8.608C-5126.092,1525.739-5120.2,1524.712-5115.866,1527.215Zm-14.3,8.294c1.513.872,4.248.246,8.032-1.956,3.69-2.145,4.837-3.731,3.254-4.646-1.434-.828-4.224-.351-8.091,1.919-3.821,2.2-4.723,3.8-3.195,4.683Z" transform="translate(5135.63 -1525.793)" fill="#a6bfda"/>
        </g>
        <g id="Group_129923" data-name="Group 129923" transform="translate(14.315 8.272)">
          <path id="Path_191809" data-name="Path 191809" d="M-5097.853,1537.626c4.489,2.593,2.251,5.914-2.3,8.561-5.153,3-10.757,3.856-15.055,1.375-4.327-2.5-2.363-5.848,2.307-8.607C-5108.085,1536.148-5102.189,1535.122-5097.853,1537.626Zm-14.3,8.3c1.509.869,4.244.242,8.032-1.958,3.69-2.147,4.833-3.734,3.25-4.651-1.434-.828-4.229-.349-8.087,1.923-3.825,2.2-4.721,3.8-3.194,4.686Z" transform="translate(5117.615 -1536.203)" fill="#a6bfda"/>
        </g>
      </g>
      <g id="Group_129925" data-name="Group 129925" transform="translate(294.755 57.899)">
        <path id="Path_191810" data-name="Path 191810" d="M-5043.815,1568.856c4.488,2.593,2.251,5.91-2.3,8.561-5.148,3-10.775,3.847-15.051,1.373-4.327-2.5-2.368-5.845,2.308-8.606C-5054.038,1567.383-5048.143,1566.354-5043.815,1568.856Zm-14.294,8.294c1.509.871,4.248.246,8.026-1.959,3.69-2.145,4.837-3.731,3.254-4.649-1.435-.825-4.229-.349-8.091,1.921-3.825,2.2-4.717,3.806-3.189,4.687Z" transform="translate(5063.575 -1567.435)" fill="#a6bfda"/>
      </g>
      <g id="Group_129926" data-name="Group 129926" transform="translate(339.388 82.592)">
        <path id="Path_191811" data-name="Path 191811" d="M-4986.974,1601.752l-16.648,9.681-3.784-2.193,13.18-7.667-4.763-.992,2.284-2.071,6.481,1.362Z" transform="translate(5007.405 -1598.51)" fill="#a6bfda"/>
      </g>
      <g id="Group_129929" data-name="Group 129929" transform="translate(309.07 66.168)" style="isolation: isolate">
        <g id="Group_129927" data-name="Group 129927">
          <path id="Path_191812" data-name="Path 191812" d="M-5025.8,1579.264c4.494,2.594,2.252,5.914-2.3,8.564-5.152,2.995-10.775,3.845-15.049,1.373-4.332-2.5-2.369-5.846,2.3-8.605C-5036.021,1577.786-5030.125,1576.76-5025.8,1579.264Zm-14.289,8.293c1.5.874,4.238.244,8.022-1.958,3.686-2.145,4.837-3.734,3.249-4.649-1.429-.823-4.215-.344-8.077,1.921-3.831,2.2-4.722,3.8-3.194,4.686Z" transform="translate(5045.56 -1577.841)" fill="#a6bfda"/>
        </g>
        <g id="Group_129928" data-name="Group 129928" transform="translate(16.001 8.153)">
          <path id="Path_191813" data-name="Path 191813" d="M-5004.992,1591.34l-16.647,9.681-3.784-2.189,13.185-7.672-4.763-.994,2.284-2.065,6.48,1.359Z" transform="translate(5025.423 -1588.102)" fill="#a6bfda"/>
        </g>
      </g>
      <g id="Group_129930" data-name="Group 129930" transform="translate(352.012 90.985)">
        <path id="Path_191814" data-name="Path 191814" d="M-4971.761,1610.494c4.494,2.594,2.256,5.913-2.3,8.561-5.153,3-10.779,3.847-15.051,1.375-4.331-2.5-2.367-5.845,2.3-8.608C-4981.984,1609.018-4976.093,1607.991-4971.761,1610.494Zm-14.313,8.282c1.523.883,4.262.257,8.045-1.948,3.691-2.142,4.838-3.728,3.25-4.648-1.43-.824-4.23-.348-8.079,1.924-3.834,2.2-4.725,3.8-3.217,4.672Z" transform="translate(4991.518 -1609.072)" fill="#a6bfda"/>
      </g>
      <g id="Group_129931" data-name="Group 129931" transform="translate(194.128 34.303)">
        <path id="Path_191815" data-name="Path 191815" d="M-5169.777,1540.983l-16.643,9.679-3.792-2.189,13.185-7.669-4.768-.995,2.284-2.07,6.485,1.366Z" transform="translate(5190.212 -1537.739)" fill="#a6bfda"/>
      </g>
      <g id="Group_129932" data-name="Group 129932" transform="translate(208.445 42.576)">
        <path id="Path_191816" data-name="Path 191816" d="M-5151.764,1551.392l-16.643,9.679-3.789-2.189,13.18-7.669-4.769-1,2.284-2.065,6.486,1.361Z" transform="translate(5172.195 -1548.151)" fill="#a6bfda"/>
      </g>
      <g id="Group_129933" data-name="Group 129933" transform="translate(222.757 50.844)">
        <path id="Path_191817" data-name="Path 191817" d="M-5133.752,1561.8l-16.643,9.679-3.788-2.189,13.185-7.667-4.772-1,2.284-2.07,6.485,1.366Z" transform="translate(5154.183 -1558.556)" fill="#a6bfda"/>
      </g>
      <g id="Group_129934" data-name="Group 129934" transform="translate(235.378 59.239)">
        <path id="Path_191818" data-name="Path 191818" d="M-5118.536,1570.54c4.484,2.593,2.252,5.917-2.307,8.563-5.143,3-10.775,3.848-15.05,1.376-4.332-2.5-2.363-5.845,2.307-8.606C-5128.762,1569.069-5122.871,1568.04-5118.536,1570.54Zm-14.3,8.294c1.509.876,4.243.249,8.027-1.952,3.69-2.147,4.841-3.736,3.253-4.654-1.434-.824-4.224-.346-8.086,1.921-3.825,2.2-4.721,3.8-3.194,4.684Z" transform="translate(5138.3 -1569.122)" fill="#a6bfda"/>
      </g>
      <g id="Group_129935" data-name="Group 129935" transform="translate(292.636 92.325)">
        <path id="Path_191819" data-name="Path 191819" d="M-5046.485,1612.178c4.49,2.6,2.256,5.915-2.3,8.563-5.152,3-10.775,3.849-15.05,1.378-4.332-2.5-2.368-5.846,2.3-8.608C-5056.708,1610.7-5050.816,1609.678-5046.485,1612.178Zm-14.294,8.3c1.513.873,4.248.244,8.031-1.959,3.686-2.14,4.833-3.734,3.25-4.647-1.431-.827-4.224-.348-8.087,1.921-3.821,2.2-4.721,3.8-3.194,4.684Z" transform="translate(5066.242 -1610.759)" fill="#a6bfda"/>
      </g>
      <g id="Group_129936" data-name="Group 129936" transform="translate(280.017 83.932)">
        <path id="Path_191820" data-name="Path 191820" d="M-5061.7,1603.441l-16.638,9.676-3.787-2.186,13.179-7.671-4.768-.992,2.284-2.07,6.481,1.364Z" transform="translate(5082.122 -1600.197)" fill="#a6bfda"/>
      </g>
      <g id="Group_129937" data-name="Group 129937" transform="translate(264.008 75.783)">
        <path id="Path_191821" data-name="Path 191821" d="M-5082.511,1591.36c4.489,2.593,2.252,5.916-2.3,8.561-5.153,3-10.775,3.847-15.051,1.379-4.332-2.508-2.363-5.846,2.307-8.606C-5092.732,1589.887-5086.837,1588.86-5082.511,1591.36Zm-14.293,8.292c1.509.875,4.244.25,8.022-1.955,3.691-2.142,4.842-3.733,3.254-4.648-1.43-.825-4.219-.347-8.082,1.924-3.825,2.2-4.727,3.8-3.194,4.679Z" transform="translate(5102.27 -1589.941)" fill="#a6bfda"/>
      </g>
      <g id="Group_129938" data-name="Group 129938" transform="translate(249.692 67.51)">
        <path id="Path_191822" data-name="Path 191822" d="M-5100.523,1580.953c4.489,2.588,2.251,5.913-2.3,8.562-5.153,2.994-10.774,3.842-15.05,1.373-4.336-2.5-2.367-5.844,2.307-8.605C-5110.75,1579.476-5104.854,1578.449-5100.523,1580.953Zm-14.294,8.292c1.509.873,4.239.246,8.026-1.955,3.686-2.146,4.837-3.735,3.25-4.653-1.43-.827-4.224-.344-8.087,1.924-3.825,2.2-4.722,3.8-3.189,4.684Z" transform="translate(5120.286 -1579.531)" fill="#a6bfda"/>
      </g>
      <g id="Group_129939" data-name="Group 129939" transform="translate(321.26 108.868)">
        <path id="Path_191823" data-name="Path 191823" d="M-5010.451,1633c4.483,2.6,2.251,5.917-2.3,8.566-5.159,2.995-10.78,3.845-15.051,1.375-4.341-2.507-2.373-5.848,2.3-8.607C-5020.679,1631.525-5014.789,1630.5-5010.451,1633Zm-14.318,8.285c1.528.884,4.266.258,8.05-1.944,3.69-2.145,4.833-3.735,3.241-4.651-1.421-.827-4.22-.344-8.087,1.922-3.816,2.2-4.712,3.8-3.2,4.674Z" transform="translate(5030.219 -1631.579)" fill="#a6bfda"/>
      </g>
      <g id="Group_129940" data-name="Group 129940" transform="translate(306.951 100.596)">
        <path id="Path_191824" data-name="Path 191824" d="M-5028.468,1622.589c4.489,2.593,2.251,5.917-2.3,8.566-5.153,2.995-10.771,3.843-15.046,1.373-4.336-2.5-2.368-5.847,2.3-8.607C-5038.691,1621.116-5032.8,1620.085-5028.468,1622.589Zm-14.317,8.284c1.532.888,4.261.258,8.049-1.944,3.681-2.146,4.833-3.735,3.255-4.651-1.435-.83-4.22-.344-8.091,1.924-3.822,2.2-4.717,3.8-3.213,4.671Z" transform="translate(5048.227 -1621.168)" fill="#a6bfda"/>
      </g>
      <g id="Group_129941" data-name="Group 129941" transform="translate(261.886 110.211)">
        <path id="Path_191825" data-name="Path 191825" d="M-5085.176,1634.691c4.485,2.59,2.252,5.91-2.3,8.561-5.152,2.995-10.774,3.843-15.055,1.375-4.331-2.5-2.363-5.848,2.308-8.608C-5095.4,1633.217-5089.511,1632.186-5085.176,1634.691Zm-14.3,8.292c1.514.873,4.248.246,8.032-1.954,3.69-2.149,4.841-3.736,3.254-4.651-1.43-.827-4.225-.347-8.087,1.921-3.825,2.2-4.722,3.8-3.2,4.683Z" transform="translate(5104.939 -1633.269)" fill="#a6bfda"/>
      </g>
      <g id="Group_129942" data-name="Group 129942" transform="translate(290.516 126.755)">
        <path id="Path_191826" data-name="Path 191826" d="M-5049.149,1655.509c4.484,2.592,2.251,5.913-2.3,8.563-5.153,2.995-10.78,3.845-15.055,1.375-4.332-2.506-2.363-5.845,2.308-8.607C-5059.373,1654.036-5053.481,1653.007-5049.149,1655.509Zm-14.312,8.282c1.521.885,4.257.26,8.049-1.944,3.682-2.147,4.828-3.731,3.25-4.651-1.435-.825-4.229-.347-8.088,1.924-3.824,2.2-4.721,3.8-3.211,4.672Z" transform="translate(5068.91 -1654.088)" fill="#a6bfda"/>
      </g>
      <g id="Group_129943" data-name="Group 129943" transform="translate(276.2 118.483)">
        <path id="Path_191827" data-name="Path 191827" d="M-5067.163,1645.1c4.483,2.593,2.25,5.913-2.3,8.561-5.148,2.995-10.775,3.845-15.051,1.376-4.336-2.5-2.368-5.845,2.307-8.606C-5077.39,1643.624-5071.5,1642.6-5067.163,1645.1Zm-14.318,8.282c1.528.88,4.262.258,8.05-1.944,3.686-2.149,4.838-3.738,3.25-4.654-1.43-.822-4.225-.341-8.086,1.926-3.827,2.2-4.722,3.8-3.214,4.672Z" transform="translate(5086.927 -1643.678)" fill="#a6bfda"/>
      </g>
      <g id="Group_129944" data-name="Group 129944" transform="translate(247.572 101.94)">
        <path id="Path_191828" data-name="Path 191828" d="M-5103.192,1624.281c4.489,2.59,2.256,5.913-2.3,8.56-5.153,3-10.78,3.849-15.055,1.377-4.332-2.506-2.367-5.847,2.3-8.605C-5113.415,1622.807-5107.524,1621.778-5103.192,1624.281Zm-14.294,8.292c1.5.872,4.239.249,8.026-1.953,3.691-2.149,4.842-3.739,3.25-4.654-1.429-.825-4.224-.344-8.087,1.926-3.82,2.2-4.721,3.8-3.189,4.681Z" transform="translate(5122.954 -1622.86)" fill="#a6bfda"/>
      </g>
      <g id="Group_129945" data-name="Group 129945" transform="translate(234.948 93.546)">
        <path id="Path_191829" data-name="Path 191829" d="M-5118.41,1615.535l-16.638,9.681-3.793-2.189,13.184-7.667-4.768-1,2.284-2.068,6.485,1.362Z" transform="translate(5138.841 -1612.296)" fill="#a6bfda"/>
      </g>
      <g id="Group_129946" data-name="Group 129946" transform="translate(220.636 85.273)">
        <path id="Path_191830" data-name="Path 191830" d="M-5136.417,1605.13l-16.643,9.679-3.793-2.193,13.185-7.665-4.768-1,2.284-2.068,6.486,1.366Z" transform="translate(5156.853 -1601.885)" fill="#a6bfda"/>
      </g>
      <g id="Group_129947" data-name="Group 129947" transform="translate(206.323 77.002)">
        <path id="Path_191831" data-name="Path 191831" d="M-5154.433,1594.717l-16.643,9.678-3.789-2.186,13.18-7.672-4.768-.992,2.284-2.07,6.49,1.363Z" transform="translate(5174.865 -1591.476)" fill="#a6bfda"/>
      </g>
      <g id="Group_129948" data-name="Group 129948" transform="translate(159.569 86.736)">
        <path id="Path_191832" data-name="Path 191832" d="M-5213.936,1605.148c4.484,2.6,2.247,5.91-2.312,8.561-5.148,3-10.752,3.859-15.046,1.378-4.335-2.5-2.368-5.847,2.3-8.608C-5224.168,1603.67-5218.272,1602.644-5213.936,1605.148Zm-14.3,8.3c1.509.869,4.242.241,8.031-1.961,3.685-2.144,4.831-3.733,3.249-4.649-1.43-.824-4.224-.348-8.087,1.924-3.825,2.2-4.722,3.8-3.193,4.687Z" transform="translate(5233.704 -1603.725)" fill="#a6bfda"/>
      </g>
      <g id="Group_129949" data-name="Group 129949" transform="translate(145.257 78.463)">
        <path id="Path_191833" data-name="Path 191833" d="M-5231.953,1594.737c4.485,2.594,2.252,5.912-2.307,8.565-5.148,2.995-10.77,3.84-15.046,1.375-4.336-2.5-2.368-5.848,2.3-8.61C-5242.18,1593.262-5236.289,1592.232-5231.953,1594.737Zm-14.3,8.3c1.5.871,4.238.244,8.027-1.956,3.69-2.146,4.842-3.733,3.254-4.648-1.435-.829-4.229-.349-8.088,1.921-3.825,2.2-4.722,3.8-3.194,4.683Z" transform="translate(5251.716 -1593.315)" fill="#a6bfda"/>
      </g>
      <g id="Group_129950" data-name="Group 129950" transform="translate(130.943 70.193)">
        <path id="Path_191834" data-name="Path 191834" d="M-5249.97,1584.328c4.489,2.594,2.252,5.913-2.3,8.561-5.154,3-10.78,3.848-15.051,1.38-4.332-2.506-2.363-5.847,2.308-8.608C-5260.2,1582.853-5254.3,1581.824-5249.97,1584.328Zm-14.3,8.293c1.508.872,4.247.246,8.031-1.956,3.69-2.145,4.837-3.734,3.254-4.649-1.434-.825-4.229-.346-8.092,1.924-3.82,2.2-4.717,3.8-3.193,4.681Z" transform="translate(5269.729 -1582.906)" fill="#a6bfda"/>
      </g>
      <g id="Group_129951" data-name="Group 129951" transform="translate(118.318 61.801)">
        <path id="Path_191835" data-name="Path 191835" d="M-5265.183,1575.589l-16.643,9.677-3.793-2.191,13.185-7.665-4.772-.994,2.289-2.07,6.485,1.364Z" transform="translate(5285.619 -1572.345)" fill="#a6bfda"/>
      </g>
      <g id="Group_129952" data-name="Group 129952" transform="translate(188.197 103.28)">
        <path id="Path_191836" data-name="Path 191836" d="M-5177.916,1625.968c4.489,2.593,2.251,5.913-2.3,8.564-5.148,2.992-10.775,3.842-15.05,1.373-4.332-2.5-2.364-5.846,2.307-8.606C-5188.138,1624.491-5182.247,1623.464-5177.916,1625.968Zm-14.294,8.294c1.509.869,4.244.244,8.027-1.956,3.692-2.146,4.838-3.735,3.25-4.651-1.429-.829-4.224-.346-8.082,1.921-3.826,2.205-4.723,3.8-3.195,4.686Z" transform="translate(5197.676 -1624.546)" fill="#a6bfda"/>
      </g>
      <g id="Group_129953" data-name="Group 129953" transform="translate(175.577 94.889)">
        <path id="Path_191837" data-name="Path 191837" d="M-5193.127,1617.227l-16.638,9.679-3.793-2.193,13.18-7.667-4.768-.992,2.284-2.067,6.486,1.361Z" transform="translate(5213.559 -1613.986)" fill="#a6bfda"/>
      </g>
      <g id="Group_129954" data-name="Group 129954" transform="translate(202.511 111.551)">
        <path id="Path_191838" data-name="Path 191838" d="M-5159.9,1636.377c4.489,2.593,2.247,5.913-2.308,8.563-5.144,2.993-10.77,3.845-15.05,1.373-4.332-2.5-2.358-5.845,2.307-8.6C-5170.126,1634.9-5164.23,1633.873-5159.9,1636.377Zm-14.3,8.294c1.509.873,4.244.246,8.031-1.956,3.686-2.149,4.833-3.735,3.25-4.649-1.43-.829-4.225-.346-8.082,1.921-3.831,2.2-4.727,3.8-3.2,4.684Z" transform="translate(5179.662 -1634.954)" fill="#a6bfda"/>
      </g>
      <g id="Group_129955" data-name="Group 129955" transform="translate(259.768 144.635)">
        <path id="Path_191839" data-name="Path 191839" d="M-5087.844,1678.015c4.489,2.593,2.252,5.913-2.3,8.561-5.154,3-10.775,3.847-15.052,1.38-4.331-2.509-2.367-5.847,2.3-8.61C-5098.067,1676.537-5092.17,1675.508-5087.844,1678.015Zm-14.317,8.282c1.528.885,4.261.256,8.05-1.947,3.69-2.142,4.837-3.731,3.249-4.648-1.429-.827-4.224-.346-8.082,1.924-3.83,2.2-4.726,3.8-3.217,4.672Z" transform="translate(5107.605 -1676.591)" fill="#a6bfda"/>
      </g>
      <g id="Group_129959" data-name="Group 129959" transform="translate(216.825 119.823)" style="isolation: isolate">
        <g id="Group_129956" data-name="Group 129956">
          <path id="Path_191840" data-name="Path 191840" d="M-5141.886,1646.789c4.49,2.592,2.252,5.91-2.3,8.561-5.148,2.993-10.775,3.843-15.051,1.375-4.336-2.507-2.363-5.845,2.3-8.608C-5152.109,1645.311-5146.217,1644.282-5141.886,1646.789Zm-14.3,8.292c1.514.871,4.243.244,8.032-1.954,3.686-2.149,4.836-3.736,3.254-4.654-1.434-.824-4.229-.343-8.091,1.924-3.825,2.2-4.722,3.8-3.194,4.684Z" transform="translate(5161.649 -1645.365)" fill="#a6bfda"/>
        </g>
        <g id="Group_129957" data-name="Group 129957" transform="translate(16.007 8.152)">
          <path id="Path_191841" data-name="Path 191841" d="M-5121.073,1658.865l-16.643,9.679-3.788-2.193,13.18-7.665-4.768-1,2.284-2.066,6.49,1.364Z" transform="translate(5141.504 -1655.624)" fill="#a6bfda"/>
        </g>
        <g id="Group_129958" data-name="Group 129958" transform="translate(28.629 16.543)">
          <path id="Path_191842" data-name="Path 191842" d="M-5105.856,1667.606c4.484,2.6,2.247,5.911-2.307,8.561-5.148,3-10.775,3.845-15.046,1.379-4.336-2.505-2.368-5.851,2.3-8.61C-5116.089,1666.131-5110.193,1665.1-5105.856,1667.606Zm-14.317,8.282c1.527.884,4.262.261,8.045-1.942,3.69-2.149,4.837-3.736,3.25-4.651-1.426-.829-4.215-.349-8.083,1.921-3.825,2.205-4.721,3.8-3.212,4.671Z" transform="translate(5125.62 -1666.184)" fill="#a6bfda"/>
        </g>
      </g>
      <g id="Group_129960" data-name="Group 129960" transform="translate(0 30.182)">
        <path id="Path_191843" data-name="Path 191843" d="M-5414.76,1533.972c4.485,2.59,2.27,5.924-2.283,8.573-5.154,2.995-10.775,3.843-15.069,1.361-4.332-2.5-2.368-5.848,2.326-8.594C-5424.968,1532.506-5419.09,1531.468-5414.76,1533.972Zm-14.293,8.294c1.5.871,4.238.246,8.022-1.959,3.69-2.146,4.837-3.733,3.254-4.651-1.434-.825-4.224-.344-8.087,1.925-3.825,2.2-4.721,3.8-3.189,4.684Z" transform="translate(5434.52 -1532.553)" fill="#a6bfda"/>
      </g>
      <g id="Group_129961" data-name="Group 129961" transform="translate(44.629 54.871)">
        <path id="Path_191844" data-name="Path 191844" d="M-5357.923,1566.865l-16.643,9.683-3.789-2.193,13.185-7.669-4.768-.995,2.279-2.068,6.485,1.366Z" transform="translate(5378.354 -1563.623)" fill="#a6bfda"/>
      </g>
      <g id="Group_129962" data-name="Group 129962" transform="translate(28.626 46.724)">
        <path id="Path_191845" data-name="Path 191845" d="M-5378.735,1554.789c4.494,2.593,2.274,5.925-2.279,8.573-5.153,3-10.78,3.845-15.074,1.364-4.331-2.5-2.363-5.847,2.326-8.6C-5388.939,1553.324-5383.062,1552.285-5378.735,1554.789Zm-14.294,8.3c1.508.871,4.244.244,8.026-1.959,3.691-2.146,4.838-3.731,3.255-4.653-1.435-.823-4.225-.344-8.087,1.926-3.825,2.2-4.721,3.8-3.194,4.686Z" transform="translate(5398.493 -1553.37)" fill="#a6bfda"/>
      </g>
      <g id="Group_129963" data-name="Group 129963" transform="translate(16 38.329)">
        <path id="Path_191846" data-name="Path 191846" d="M-5393.948,1546.047l-16.643,9.681-3.793-2.191,13.188-7.669-4.772-1,2.284-2.065,6.485,1.364Z" transform="translate(5414.384 -1542.806)" fill="#a6bfda"/>
      </g>
      <g id="Group_129964" data-name="Group 129964" transform="translate(58.942 63.146)">
        <path id="Path_191847" data-name="Path 191847" d="M-5339.906,1577.281l-16.643,9.674-3.792-2.191,13.184-7.669-4.768-.99,2.285-2.068,6.485,1.361Z" transform="translate(5360.342 -1574.038)" fill="#a6bfda"/>
      </g>
      <g id="Group_129967" data-name="Group 129967" transform="translate(71.568 71.539)" style="isolation: isolate">
        <g id="Group_129965" data-name="Group 129965">
          <path id="Path_191848" data-name="Path 191848" d="M-5324.688,1586.019c4.484,2.6,2.265,5.924-2.289,8.571-5.148,3-10.775,3.849-15.068,1.366-4.332-2.5-2.364-5.848,2.325-8.6C-5334.9,1584.556-5329.025,1583.514-5324.688,1586.019Zm-14.3,8.295c1.508.869,4.243.241,8.026-1.959,3.691-2.141,4.838-3.731,3.25-4.648-1.431-.825-4.22-.348-8.088,1.924-3.825,2.2-4.717,3.8-3.188,4.684Z" transform="translate(5344.452 -1584.6)" fill="#a6bfda"/>
        </g>
        <g id="Group_129966" data-name="Group 129966" transform="translate(16.003 8.147)">
          <path id="Path_191849" data-name="Path 191849" d="M-5303.881,1598.1l-16.643,9.676-3.788-2.191,13.185-7.667-4.768-.994,2.284-2.07,6.481,1.366Z" transform="translate(5324.312 -1594.853)" fill="#a6bfda"/>
        </g>
      </g>
      <g id="Group_129968" data-name="Group 129968" transform="translate(101.888 87.961)">
        <path id="Path_191850" data-name="Path 191850" d="M-5285.863,1608.506l-16.643,9.681-3.788-2.191,13.179-7.672-4.768-.992,2.284-2.066,6.485,1.359Z" transform="translate(5306.294 -1605.267)" fill="#a6bfda"/>
      </g>
      <g id="Group_129969" data-name="Group 129969" transform="translate(114.509 96.351)">
        <path id="Path_191851" data-name="Path 191851" d="M-5270.651,1617.249c4.489,2.589,2.252,5.913-2.3,8.56-5.148,3-10.775,3.847-15.051,1.375-4.332-2.5-2.363-5.848,2.308-8.608C-5280.874,1615.772-5274.983,1614.743-5270.651,1617.249Zm-14.3,8.292c1.514.873,4.248.244,8.032-1.959,3.69-2.145,4.838-3.734,3.25-4.647-1.436-.829-4.226-.348-8.087,1.921-3.825,2.2-4.721,3.8-3.194,4.684Z" transform="translate(5290.412 -1615.825)" fill="#a6bfda"/>
      </g>
      <g id="Group_129970" data-name="Group 129970" transform="translate(157.451 121.165)">
        <path id="Path_191852" data-name="Path 191852" d="M-5216.61,1648.476c4.489,2.6,2.251,5.91-2.3,8.561-5.148,3-10.78,3.845-15.051,1.373-4.332-2.5-2.363-5.844,2.3-8.608C-5226.833,1647-5220.941,1645.972-5216.61,1648.476Zm-14.3,8.294c1.508.871,4.247.246,8.031-1.959,3.69-2.145,4.837-3.729,3.25-4.648-1.43-.826-4.224-.349-8.087,1.924-3.82,2.2-4.721,3.8-3.193,4.683Z" transform="translate(5236.371 -1647.054)" fill="#a6bfda"/>
      </g>
      <g id="Group_129971" data-name="Group 129971" transform="translate(144.826 112.769)">
        <path id="Path_191853" data-name="Path 191853" d="M-5231.827,1639.733l-16.638,9.679-3.793-2.191,13.185-7.667-4.768-.994,2.284-2.072,6.485,1.371Z" transform="translate(5252.258 -1636.488)" fill="#a6bfda"/>
      </g>
      <g id="Group_129972" data-name="Group 129972" transform="translate(130.513 104.503)">
        <path id="Path_191854" data-name="Path 191854" d="M-5249.839,1629.323l-16.643,9.684-3.789-2.193,13.185-7.669-4.768-.994,2.28-2.065,6.484,1.361Z" transform="translate(5270.271 -1626.085)" fill="#a6bfda"/>
      </g>
      <g id="Group_129973" data-name="Group 129973" transform="translate(173.456 129.315)">
        <path id="Path_191855" data-name="Path 191855" d="M-5195.8,1660.554l-16.644,9.677-3.787-2.186,13.179-7.669-4.767-.994,2.284-2.07,6.485,1.364Z" transform="translate(5216.228 -1657.311)" fill="#a6bfda"/>
      </g>
      <g id="Group_129974" data-name="Group 129974" transform="translate(187.773 137.589)">
        <path id="Path_191856" data-name="Path 191856" d="M-5177.784,1670.963l-16.638,9.681-3.788-2.191,13.179-7.671-4.768-.994,2.285-2.065,6.485,1.364Z" transform="translate(5198.21 -1667.723)" fill="#a6bfda"/>
      </g>
      <g id="Group_129975" data-name="Group 129975" transform="translate(214.705 154.253)">
        <path id="Path_191857" data-name="Path 191857" d="M-5144.556,1690.117c4.489,2.59,2.252,5.91-2.3,8.559-5.154,3-10.78,3.848-15.056,1.376-4.331-2.507-2.363-5.848,2.308-8.606C-5154.778,1688.639-5148.887,1687.613-5144.556,1690.117Zm-14.312,8.28c1.527.883,4.261.258,8.045-1.944,3.69-2.149,4.838-3.735,3.254-4.648-1.434-.828-4.224-.347-8.091,1.921-3.821,2.2-4.717,3.8-3.208,4.672Z" transform="translate(5164.316 -1688.694)" fill="#a6bfda"/>
      </g>
      <g id="Group_129976" data-name="Group 129976" transform="translate(202.08 145.859)">
        <path id="Path_191858" data-name="Path 191858" d="M-5159.769,1681.372l-16.643,9.681-3.792-2.191,13.185-7.667-4.769-1,2.284-2.068,6.486,1.364Z" transform="translate(5180.204 -1678.132)" fill="#a6bfda"/>
      </g>
      <g id="Group_129977" data-name="Group 129977" transform="translate(229.019 162.523)">
        <path id="Path_191859" data-name="Path 191859" d="M-5126.539,1700.525c4.489,2.59,2.251,5.913-2.3,8.562-5.152,2.995-10.779,3.843-15.051,1.372-4.336-2.5-2.367-5.847,2.3-8.606C-5136.766,1699.05-5130.87,1698.019-5126.539,1700.525Zm-14.316,8.283c1.527.885,4.261.255,8.049-1.944,3.691-2.149,4.837-3.734,3.25-4.649-1.435-.83-4.229-.349-8.082,1.921-3.831,2.2-4.73,3.8-3.217,4.672Z" transform="translate(5146.303 -1699.102)" fill="#a6bfda"/>
      </g>
    </g>
    <g id="Group_130037" data-name="Group 130037" transform="translate(-5446.318 1144.215)">
      <g id="Group_129979" data-name="Group 129979" transform="translate(135.372 157.028)" opacity="0.5">
        <path id="Path_191860" data-name="Path 191860" d="M-5275.955,1352.429l.023,7.964,18.328-10.59-.023-7.971Z" transform="translate(5275.955 -1341.833)" fill="#a6bfda"/>
      </g>
      <g id="Group_129980" data-name="Group 129980" transform="translate(117.118 183.172)">
        <path id="Path_191861" data-name="Path 191861" d="M-5298.927,1395.92l.019,8.009,36.657-21.186-.023-8.008Z" transform="translate(5298.927 -1374.734)" fill="#a6bfda"/>
      </g>
      <g id="Group_129981" data-name="Group 129981" transform="translate(104.282 196.28)">
        <path id="Path_191862" data-name="Path 191862" d="M-5315.081,1419.85l.027,7.971,49.524-28.62-.027-7.971Z" transform="translate(5315.081 -1391.23)" fill="#a6bfda"/>
      </g>
      <g id="Group_129982" data-name="Group 129982" transform="translate(96.432 207.278)">
        <path id="Path_191863" data-name="Path 191863" d="M-5324.96,1414.1l.014,8.008,15.64-9.031-.023-8.006Z" transform="translate(5324.96 -1405.071)" fill="#a6bfda"/>
      </g>
      <g id="Group_129983" data-name="Group 129983" transform="translate(117.002 143.915)">
        <path id="Path_191864" data-name="Path 191864" d="M-5299.073,1346.51l.028,8.013,36.656-21.182-.028-8.011Z" transform="translate(5299.073 -1325.331)" fill="#a6bfda"/>
      </g>
      <g id="Group_129984" data-name="Group 129984" transform="translate(94.068 170.094)">
        <path id="Path_191865" data-name="Path 191865" d="M-5327.934,1392.756l.028,7.971,59.668-34.479-.028-7.971Z" transform="translate(5327.934 -1358.276)" fill="#a6bfda"/>
      </g>
      <g id="Group_129985" data-name="Group 129985" transform="translate(96.315 168.017)">
        <path id="Path_191866" data-name="Path 191866" d="M-5325.107,1364.7l.028,8.006,15.631-9.026-.023-8.015Z" transform="translate(5325.107 -1355.662)" fill="#a6bfda"/>
      </g>
      <g id="Group_129986" data-name="Group 129986" transform="translate(76.084 170.968)">
        <path id="Path_191867" data-name="Path 191867" d="M-5350.568,1390.287l.019,7.966,53.489-30.906-.023-7.971Z" transform="translate(5350.568 -1359.376)" fill="#a6bfda"/>
      </g>
      <g id="Group_129987" data-name="Group 129987" transform="translate(96.283 130.847)">
        <path id="Path_191868" data-name="Path 191868" d="M-5325.147,1342.016l.019,7.969,57.342-33.137-.022-7.964Z" transform="translate(5325.147 -1308.884)" fill="#a6bfda"/>
      </g>
      <g id="Group_129988" data-name="Group 129988" transform="translate(71.47 181.176)">
        <path id="Path_191869" data-name="Path 191869" d="M-5356.375,1382.457l.028,8.006,17.711-10.236-.023-8Z" transform="translate(5356.375 -1372.223)" fill="#a6bfda"/>
      </g>
      <g id="Group_129989" data-name="Group 129989" transform="translate(82.114 128.359)">
        <path id="Path_191870" data-name="Path 191870" d="M-5342.979,1336.467l.023,7.971,53.141-30.716-.023-7.969Z" transform="translate(5342.979 -1305.753)" fill="#a6bfda"/>
      </g>
      <g id="Group_129990" data-name="Group 129990" transform="translate(62.9 168.1)">
        <path id="Path_191871" data-name="Path 191871" d="M-5367.16,1370.941l.023,7.967,26.248-15.169-.023-7.971Z" transform="translate(5367.16 -1355.767)" fill="#a6bfda"/>
      </g>
      <g id="Group_129991" data-name="Group 129991" transform="translate(53.68 141.922)">
        <path id="Path_191872" data-name="Path 191872" d="M-5378.762,1343.279l.023,8,35.394-20.449-.023-8.006Z" transform="translate(5378.762 -1322.822)" fill="#a6bfda"/>
      </g>
      <g id="Group_129992" data-name="Group 129992" transform="translate(62.751 115.776)">
        <path id="Path_191873" data-name="Path 191873" d="M-5367.348,1305.086l.028,7.964,26.244-15.169-.019-7.964Z" transform="translate(5367.348 -1289.918)" fill="#a6bfda"/>
      </g>
      <g id="Group_129993" data-name="Group 129993" transform="translate(50.467 128.844)">
        <path id="Path_191874" data-name="Path 191874" d="M-5382.807,1328.653l.023,8.011,38.564-22.289-.014-8.011Z" transform="translate(5382.807 -1306.364)" fill="#a6bfda"/>
      </g>
      <g id="Group_129994" data-name="Group 129994" transform="translate(53.568 102.666)">
        <path id="Path_191875" data-name="Path 191875" d="M-5378.9,1293.868l.023,8.008,35.4-20.454-.027-8Z" transform="translate(5378.903 -1273.419)" fill="#a6bfda"/>
      </g>
      <g id="Group_129998" data-name="Group 129998" transform="translate(103.989 91.588)" opacity="0.5" style="isolation: isolate">
        <g id="Group_129995" data-name="Group 129995" transform="translate(35.672 26.183)">
          <path id="Path_191876" data-name="Path 191876" d="M-5270.557,1300.472l.019,7.971,13.932-8.048-.023-7.966Z" transform="translate(5270.557 -1292.429)" fill="#a6bfda"/>
        </g>
        <g id="Group_129996" data-name="Group 129996" transform="translate(12.906 13.073)">
          <path id="Path_191877" data-name="Path 191877" d="M-5299.208,1297.116l.014,8.006,36.665-21.182-.023-8.011Z" transform="translate(5299.208 -1275.93)" fill="#a6bfda"/>
        </g>
        <g id="Group_129997" data-name="Group 129997">
          <path id="Path_191878" data-name="Path 191878" d="M-5315.449,1288.1l.019,8.008,49.529-28.625-.022-8.006Z" transform="translate(5315.449 -1259.478)" fill="#a6bfda"/>
        </g>
      </g>
      <g id="Group_129999" data-name="Group 129999" transform="translate(116.816 78.518)" opacity="0.5">
        <path id="Path_191879" data-name="Path 191879" d="M-5299.307,1264.21l.027,7.969,36.652-21.186-.015-7.964Z" transform="translate(5299.307 -1243.029)" fill="#a6bfda"/>
      </g>
      <g id="Group_130000" data-name="Group 130000" transform="translate(96.135 102.617)" opacity="0.5">
        <path id="Path_191880" data-name="Path 191880" d="M-5325.334,1282.392l.018,7.971,15.635-9.036-.023-7.971Z" transform="translate(5325.334 -1273.357)" fill="#a6bfda"/>
      </g>
      <g id="Group_130001" data-name="Group 130001" transform="translate(135.075 52.332)">
        <path id="Path_191881" data-name="Path 191881" d="M-5276.328,1220.666l.022,8,18.328-10.585-.023-8.011Z" transform="translate(5276.328 -1210.074)" fill="#a6bfda"/>
      </g>
      <g id="Group_130002" data-name="Group 130002" transform="translate(116.709 39.256)">
        <path id="Path_191882" data-name="Path 191882" d="M-5299.442,1214.805l.019,7.971,36.661-21.186-.028-7.971Z" transform="translate(5299.442 -1193.619)" fill="#a6bfda"/>
      </g>
      <g id="Group_130003" data-name="Group 130003" transform="translate(93.776 65.407)">
        <path id="Path_191883" data-name="Path 191883" d="M-5328.3,1261l.023,8,59.664-34.473-.023-8.006Z" transform="translate(5328.303 -1226.53)" fill="#a6bfda"/>
      </g>
      <g id="Group_130004" data-name="Group 130004" transform="translate(139.364 13.078)">
        <path id="Path_191884" data-name="Path 191884" d="M-5270.931,1168.719l.023,8.006,13.923-8.041-.019-8.011Z" transform="translate(5270.931 -1160.674)" fill="#a6bfda"/>
      </g>
      <g id="Group_130005" data-name="Group 130005" transform="translate(96.023 63.363)">
        <path id="Path_191885" data-name="Path 191885" d="M-5325.475,1232.992l.019,7.971,15.64-9.036-.027-7.971Z" transform="translate(5325.475 -1223.956)" fill="#a6bfda"/>
      </g>
      <g id="Group_130006" data-name="Group 130006" transform="translate(75.782 66.274)">
        <path id="Path_191886" data-name="Path 191886" d="M-5350.948,1258.531l.023,8.008,53.489-30.909-.023-8.01Z" transform="translate(5350.948 -1227.62)" fill="#a6bfda"/>
      </g>
      <g id="Group_130007" data-name="Group 130007" transform="translate(95.981 26.151)">
        <path id="Path_191887" data-name="Path 191887" d="M-5325.527,1210.258l.028,8.011,57.343-33.139-.024-8Z" transform="translate(5325.527 -1177.126)" fill="#a6bfda"/>
      </g>
      <g id="Group_130008" data-name="Group 130008" transform="translate(116.593)">
        <path id="Path_191888" data-name="Path 191888" d="M-5299.587,1165.4l.022,7.969,36.662-21.189-.023-7.969Z" transform="translate(5299.587 -1144.216)" fill="#a6bfda"/>
      </g>
      <g id="Group_130009" data-name="Group 130009" transform="translate(71.177 76.517)">
        <path id="Path_191889" data-name="Path 191889" d="M-5356.743,1250.75l.019,7.969,17.715-10.238-.019-7.969Z" transform="translate(5356.743 -1240.511)" fill="#a6bfda"/>
      </g>
      <g id="Group_130010" data-name="Group 130010" transform="translate(81.817 23.669)">
        <path id="Path_191890" data-name="Path 191890" d="M-5343.353,1204.713l.019,8.006,53.151-30.709-.023-8.006Z" transform="translate(5343.353 -1174.003)" fill="#a6bfda"/>
      </g>
      <g id="Group_130011" data-name="Group 130011" transform="translate(62.602 63.404)">
        <path id="Path_191891" data-name="Path 191891" d="M-5367.534,1239.178l.023,8.013,26.248-15.164-.019-8.018Z" transform="translate(5367.534 -1224.009)" fill="#a6bfda"/>
      </g>
      <g id="Group_130012" data-name="Group 130012" transform="translate(53.383 37.261)">
        <path id="Path_191892" data-name="Path 191892" d="M-5379.137,1211.564l.023,7.966,35.394-20.452-.023-7.971Z" transform="translate(5379.137 -1191.108)" fill="#a6bfda"/>
      </g>
      <g id="Group_130013" data-name="Group 130013" transform="translate(95.911 24.109)" opacity="0.5">
        <path id="Path_191893" data-name="Path 191893" d="M-5325.615,1183.591l.023,7.964,15.631-9.033-.019-7.967Z" transform="translate(5325.615 -1174.556)" fill="#a6bfda"/>
      </g>
      <g id="Group_130014" data-name="Group 130014" transform="translate(0.074 98.103)" opacity="0.5">
        <path id="Path_191894" data-name="Path 191894" d="M-5446.225,1284.279l.023,8.011,28.736-16.607-.019-8.006Z" transform="translate(5446.225 -1267.676)" fill="#a6bfda"/>
      </g>
      <g id="Group_130015" data-name="Group 130015" transform="translate(0.149 128.803)" opacity="0.5">
        <path id="Path_191895" data-name="Path 191895" d="M-5446.131,1318.4l.019,8.011,20.923-12.1-.023-8Z" transform="translate(5446.131 -1306.312)" fill="#a6bfda"/>
      </g>
      <g id="Group_130016" data-name="Group 130016" transform="translate(0.111 96.974)" opacity="0.5">
        <path id="Path_191896" data-name="Path 191896" d="M-5446.178,1297.1l.023,7.971,53.383-30.849-.029-7.969Z" transform="translate(5446.178 -1266.255)" fill="#a6bfda"/>
      </g>
      <g id="Group_130017" data-name="Group 130017" transform="translate(0.033 91.049)" opacity="0.5">
        <path id="Path_191897" data-name="Path 191897" d="M-5446.277,1269.389l.023,8.006,18.333-10.59-.023-8.006Z" transform="translate(5446.277 -1258.8)" fill="#a6bfda"/>
      </g>
      <g id="Group_130018" data-name="Group 130018" transform="translate(0 67.382)" opacity="0.5">
        <path id="Path_191898" data-name="Path 191898" d="M-5446.318,1250.2l.023,7.969,36.656-21.183-.023-7.969Z" transform="translate(5446.318 -1229.015)" fill="#a6bfda"/>
      </g>
      <g id="Group_130022" data-name="Group 130022" transform="translate(50.764 207.362)" opacity="0.5" style="isolation: isolate">
        <g id="Group_130019" data-name="Group 130019" transform="translate(12.284 13.066)">
          <path id="Path_191899" data-name="Path 191899" d="M-5366.974,1436.794l.028,8.006,26.243-15.169-.023-8.011Z" transform="translate(5366.974 -1421.62)" fill="#a6bfda"/>
        </g>
        <g id="Group_130020" data-name="Group 130020" transform="translate(0 26.178)">
          <path id="Path_191900" data-name="Path 191900" d="M-5382.433,1460.416l.019,7.964,38.574-22.285-.023-7.974Z" transform="translate(5382.433 -1438.122)" fill="#a6bfda"/>
        </g>
        <g id="Group_130021" data-name="Group 130021" transform="translate(3.101)">
          <path id="Path_191901" data-name="Path 191901" d="M-5378.53,1425.626l.023,7.971,35.4-20.452-.028-7.969Z" transform="translate(5378.53 -1405.177)" fill="#a6bfda"/>
        </g>
      </g>
      <g id="Group_130023" data-name="Group 130023" transform="translate(0.409 201.628)" opacity="0.5">
        <path id="Path_191902" data-name="Path 191902" d="M-5445.8,1428.812l.018,8,53.388-30.844-.028-8.011Z" transform="translate(5445.804 -1397.961)" fill="#a6bfda"/>
      </g>
      <g id="Group_130024" data-name="Group 130024" transform="translate(0.334 195.733)" opacity="0.5">
        <path id="Path_191903" data-name="Path 191903" d="M-5445.9,1401.139l.023,7.969,18.323-10.585-.018-7.981Z" transform="translate(5445.897 -1390.543)" fill="#a6bfda"/>
      </g>
      <g id="Group_130028" data-name="Group 130028" transform="translate(0.223 158.775)" opacity="0.5" style="isolation: isolate">
        <g id="Group_130025" data-name="Group 130025" transform="translate(0.074 13.264)">
          <path id="Path_191904" data-name="Path 191904" d="M-5445.944,1381.9l.019,8.013,36.661-21.186-.018-8.008Z" transform="translate(5445.944 -1360.724)" fill="#a6bfda"/>
        </g>
        <g id="Group_130026" data-name="Group 130026" transform="translate(0.037 0.188)">
          <path id="Path_191905" data-name="Path 191905" d="M-5445.991,1365.452l.023,8.011,36.656-21.186-.023-8.008Z" transform="translate(5445.991 -1344.268)" fill="#a6bfda"/>
        </g>
        <g id="Group_130027" data-name="Group 130027">
          <path id="Path_191906" data-name="Path 191906" d="M-5446.038,1352.33l.023,7.969,14.368-8.294-.023-7.973Z" transform="translate(5446.038 -1344.031)" fill="#a6bfda"/>
        </g>
      </g>
      <g id="Group_130029" data-name="Group 130029" transform="translate(0.181 126.883)">
        <path id="Path_191907" data-name="Path 191907" d="M-5446.09,1330.979l.027,8,46.866-27.083-.019-8Z" transform="translate(5446.09 -1303.896)" fill="#a6bfda"/>
      </g>
      <g id="Group_130030" data-name="Group 130030" transform="translate(96.209 128.761)" opacity="0.5">
        <path id="Path_191908" data-name="Path 191908" d="M-5325.241,1315.3l.023,8.006,15.631-9.035-.023-8.008Z" transform="translate(5325.241 -1306.259)" fill="#a6bfda"/>
      </g>
      <g id="Group_130031" data-name="Group 130031" transform="translate(0.371 202.799)" opacity="0.5">
        <path id="Path_191909" data-name="Path 191909" d="M-5445.851,1416.041l.023,7.969,28.736-16.607-.023-7.969Z" transform="translate(5445.851 -1399.434)" fill="#a6bfda"/>
      </g>
      <g id="Group_130032" data-name="Group 130032" transform="translate(0.441 233.496)">
        <path id="Path_191910" data-name="Path 191910" d="M-5445.763,1450.16l.023,7.966,20.923-12.088-.023-7.971Z" transform="translate(5445.763 -1438.067)" fill="#a6bfda"/>
      </g>
      <g id="Group_130036" data-name="Group 130036" transform="translate(0.483 231.579)" opacity="0.5" style="isolation: isolate">
        <g id="Group_130033" data-name="Group 130033" transform="translate(0.069 32.075)">
          <path id="Path_191911" data-name="Path 191911" d="M-5445.623,1497.2l.023,7.98,36.66-21.188-.023-7.976Z" transform="translate(5445.623 -1476.02)" fill="#a6bfda"/>
        </g>
        <g id="Group_130034" data-name="Group 130034" transform="translate(0.037 31.85)">
          <path id="Path_191912" data-name="Path 191912" d="M-5445.664,1484.04l.019,8.013,14.377-8.308-.028-8.008Z" transform="translate(5445.664 -1475.737)" fill="#a6bfda"/>
        </g>
        <g id="Group_130035" data-name="Group 130035">
          <path id="Path_191913" data-name="Path 191913" d="M-5445.71,1462.734l.023,7.973,46.865-27.085-.023-7.969Z" transform="translate(5445.71 -1435.654)" fill="#a6bfda"/>
        </g>
      </g>
    </g>
    <g id="Group_130038" data-name="Group 130038" transform="translate(-5360.135 1387.918)" opacity="0.1">
      <path id="Path_191914" data-name="Path 191914" d="M-5183.39,1466.294c35.486,20.514,35.649,53.772.385,74.276s-92.61,20.519-128.1,0-35.7-53.768-.45-74.281S-5218.89,1445.781-5183.39,1466.294Z" transform="translate(5337.859 -1450.911)"/>
    </g>
    <g id="Group_130042" data-name="Group 130042" transform="translate(-5371.409 1216.829)">
      <path id="Path_191915" data-name="Path 191915" d="M-5171.166,1473.013c-.033.214-.065.435-.1.656-.147.838-.413,1.68-.635,2.518-.233.914-.459,1.826-.78,2.733a34.2,34.2,0,0,1-1.685,3.984c-.107.225-.224.448-.344.667a39.366,39.366,0,0,1-2.54,4.223c-.135.193-.283.379-.413.572a47.15,47.15,0,0,1-3,3.74c-.2.233-.39.474-.6.7-1.155,1.275-2.446,2.523-3.8,3.743-.887.791-1.852,1.561-2.818,2.326-.821.658-1.61,1.331-2.493,1.975-1.044.757-2.191,1.48-3.319,2.212s-2.182,1.482-3.384,2.181c-1.963,1.141-4.016,2.2-6.1,3.209-.562.269-1.128.529-1.686.8-1.88.861-3.8,1.687-5.752,2.455-.279.1-.547.226-.821.332-2.114.806-4.276,1.526-6.476,2.221-1.551.486-3.135.919-4.727,1.35-1.16.318-2.316.658-3.5.944-1.722.417-3.473.766-5.223,1.117-1.142.23-2.266.49-3.4.69-.562.1-1.133.179-1.7.269-2.03.335-4.067.621-6.129.872-.639.074-1.281.161-1.921.223-1.174.127-2.358.2-3.533.3-2.056.172-4.118.321-6.188.416-1.318.053-2.646.086-3.969.109-1.635.03-3.278.042-4.912.024-1.406-.019-2.8-.06-4.207-.119-1.513-.06-3.021-.135-4.531-.24q-2.136-.149-4.252-.355-2.249-.223-4.479-.5c-1.375-.174-2.734-.369-4.094-.581-1.579-.248-3.144-.525-4.7-.82-1.3-.244-2.6-.5-3.886-.785-1.87-.409-3.7-.876-5.538-1.361-1.221-.319-2.446-.623-3.645-.978-.641-.188-1.268-.393-1.894-.588q-2.793-.879-5.493-1.879c-.538-.2-1.085-.384-1.615-.588-1.615-.625-3.175-1.325-4.735-2.014-.8-.358-1.625-.679-2.41-1.051-2.279-1.082-4.5-2.237-6.638-3.468-17.85-10.318-26.768-23.862-26.73-37.383l-.06,22.87c-.038,13.527,8.88,27.071,26.73,37.386,2.135,1.232,4.354,2.381,6.63,3.469.8.377,1.634.706,2.446,1.066,1.323.583,2.623,1.2,3.983,1.735.237.088.487.165.719.263.529.2,1.073.388,1.61.588q2.7,1,5.5,1.877c.635.2,1.262.4,1.9.594.428.125.846.273,1.282.395.752.215,1.551.363,2.312.567,1.862.493,3.742.966,5.649,1.385.5.111.98.262,1.486.365.733.153,1.5.25,2.247.393,1.592.3,3.188.585,4.809.836.65.1,1.281.249,1.932.335.71.1,1.439.151,2.154.244,1.486.191,2.971.358,4.475.5.729.07,1.449.188,2.182.246.688.056,1.375.06,2.061.109q2.271.157,4.541.242c.775.033,1.551.107,2.331.128.622.014,1.249-.017,1.861-.01,1.644.019,3.278,0,4.921-.023.84-.016,1.667.016,2.5-.011.492-.017.99-.079,1.481-.1,2.01-.088,4-.23,6-.4.854-.075,1.723-.093,2.578-.176.264-.026.523-.082.789-.107q5.174-.547,10.246-1.431c.171-.03.353-.04.534-.075,1.008-.184,1.978-.429,2.975-.637,1.662-.334,3.32-.664,4.954-1.062,1.179-.286,2.331-.625,3.5-.941,1.6-.432,3.184-.865,4.74-1.356.32-.1.664-.176.988-.281q2.786-.907,5.474-1.936c.283-.106.548-.225.821-.337,1.973-.764,3.882-1.593,5.767-2.458.552-.258,1.118-.523,1.666-.79,2.094-1.013,4.142-2.068,6.108-3.211.377-.211.74-.435,1.1-.653.822-.492,1.527-1.029,2.307-1.537,1.114-.73,2.251-1.438,3.3-2.2.882-.644,1.671-1.318,2.5-1.982.96-.769,1.94-1.534,2.822-2.333.163-.15.371-.29.539-.448,1.165-1.069,2.238-2.172,3.254-3.283.213-.235.4-.467.6-.7.6-.681,1.211-1.362,1.759-2.054.431-.558.822-1.108,1.212-1.668.148-.2.306-.4.446-.609.719-1.039,1.392-2.084,1.986-3.144.2-.351.367-.706.547-1.064.117-.223.237-.441.344-.667a36.363,36.363,0,0,0,1.527-3.42c.07-.193.093-.385.167-.583.306-.878.52-1.766.756-2.653.162-.625.413-1.243.538-1.868.029-.167.024-.332.056-.5.167-.941.233-1.878.316-2.823.065-.629.2-1.255.222-1.889.01-.264.01-.525.01-.792l.061-22.873A29.963,29.963,0,0,1-5171.166,1473.013Z" transform="translate(5352.042 -1283.304)" fill="#c0c0f6"/>
      <g id="Group_130039" data-name="Group 130039" transform="translate(0.078 132.278)">
        <path id="Path_191916" data-name="Path 191916" d="M-5197.509,1417.454c35.5,20.508,35.705,53.768.445,74.277s-92.661,20.507-128.157,0-35.653-53.769-.395-74.277S-5233,1396.941-5197.509,1417.454Z" transform="translate(5351.948 -1402.069)" fill="#e9f0f4"/>
      </g>
      <path id="Path_191917" data-name="Path 191917" d="M-5202.66,1370.5c-30.969-17.9-81.05-17.908-111.839,0-15.337,8.922-22.979,20.617-22.96,32.317,0-.046-.009-.081-.009-.123l-.088,32.675c-.041,11.809,7.743,23.641,23.323,32.649q2.792,1.607,5.78,3.018c.7.332,1.434.618,2.145.932,1.152.516,2.293,1.047,3.482,1.521.144.059.3.093.446.153q4.129,1.6,8.51,2.868c.218.069.422.152.649.222.637.179,1.3.307,1.946.476,1.662.442,3.328.864,5.032,1.232.428.1.835.226,1.267.316.641.13,1.3.215,1.951.338,1.392.263,2.79.512,4.206.732.562.087,1.114.212,1.68.293.631.091,1.272.135,1.9.216,1.281.161,2.562.3,3.853.432.646.063,1.291.163,1.94.211.6.053,1.217.058,1.83.1,1.309.094,2.619.161,3.942.216.673.021,1.341.089,2.019.1.535.012,1.068-.016,1.6-.007,1.472.019,2.934,0,4.4-.021.7-.017,1.4.012,2.1-.012.412-.013.825-.065,1.243-.083,1.8-.076,3.584-.207,5.372-.358.719-.056,1.443-.07,2.163-.144.228-.021.44-.067.668-.091q4.527-.477,8.956-1.248c.157-.029.315-.036.469-.065.9-.164,1.782-.393,2.674-.576,1.425-.288,2.837-.569,4.233-.9,1.073-.262,2.117-.567,3.181-.86,1.332-.362,2.669-.72,3.973-1.131.3-.1.613-.165.91-.26.5-.165.952-.383,1.454-.553q3.133-1.073,6.124-2.319c.775-.325,1.549-.641,2.3-.988a82.3,82.3,0,0,0,7.437-3.763c.329-.191.649-.381.976-.571.751-.46,1.4-.955,2.121-1.424.934-.607,1.881-1.2,2.743-1.827.8-.583,1.514-1.192,2.256-1.789.823-.656,1.654-1.3,2.4-1.984.149-.134.336-.269.492-.406,1.018-.944,1.955-1.9,2.846-2.877.172-.186.316-.384.492-.571.529-.607,1.082-1.211,1.564-1.828.386-.486.72-.977,1.064-1.469.125-.163.25-.328.366-.5.637-.908,1.23-1.833,1.756-2.758.105-.2.171-.409.283-.611.436-.813.794-1.64,1.146-2.463.209-.481.493-.95.674-1.431.055-.161.079-.323.134-.479.283-.795.479-1.584.687-2.377.135-.535.354-1.062.456-1.6.033-.144.022-.29.05-.434.145-.8.2-1.6.274-2.4.056-.563.172-1.134.2-1.7,0-.232,0-.465,0-.7l.1-32.675c-.009.739-.129,1.476-.19,2.21C-5178.425,1392.822-5186.09,1380.074-5202.66,1370.5Zm15.637,52.2c.613-.741,1.244-1.475,1.778-2.228a1.716,1.716,0,0,0-.112.149C-5185.858,1421.319-5186.453,1422-5187.023,1422.7Zm2.989-4.165c.39-.628.79-1.248,1.124-1.884a.525.525,0,0,0-.033.081C-5183.268,1417.334-5183.658,1417.934-5184.034,1418.534Zm2.256-4.294c.284-.662.59-1.314.826-1.982-.018.031-.018.06-.032.087C-5181.2,1412.983-5181.508,1413.6-5181.778,1414.239Zm1.523-4.432c.162-.656.357-1.306.474-1.963a.675.675,0,0,1-.014.1C-5179.9,1408.571-5180.1,1409.191-5180.255,1409.807Zm-8.17,14.611a.508.508,0,0,0-.042.051c-.715.778-1.536,1.531-2.334,2.291C-5189.986,1425.981-5189.15,1425.213-5188.425,1424.418Zm-7.061,6.326c.455-.346.882-.692,1.313-1.041a.545.545,0,0,0-.06.049C-5194.646,1430.085-5195.055,1430.417-5195.486,1430.744Zm-3.747,2.623a.512.512,0,0,0-.065.035c-.989.644-1.927,1.31-3,1.93C-5201.21,1434.7-5200.249,1434.024-5199.233,1433.367Zm-130.418-10.794c.445.542.831,1.094,1.3,1.624C-5328.82,1423.667-5329.206,1423.115-5329.651,1422.573Zm-7.632-17.566c.06.739.07,1.473.195,2.21C-5337.213,1406.48-5337.223,1405.746-5337.283,1405.007Zm.766,4.513c.171.692.293,1.384.525,2.072C-5336.224,1410.9-5336.346,1410.212-5336.518,1409.52Zm1.528,4.463c.279.641.5,1.282.817,1.917C-5334.493,1415.265-5334.71,1414.623-5334.99,1413.982Zm2.284,4.351c.372.588.678,1.2,1.083,1.782C-5332.028,1419.53-5332.334,1418.921-5332.706,1418.333Zm13.1,13.506c-.492-.351-.9-.728-1.383-1.083C-5320.505,1431.111-5320.093,1431.488-5319.6,1431.839Zm-4.73-3.718c-.539-.469-.975-.964-1.476-1.442C-5325.306,1427.157-5324.87,1427.652-5324.331,1428.121Z" transform="translate(5349.07 -1260.548)" fill="#ffb30b"/>
      <path id="Path_191918" data-name="Path 191918" d="M-5171.17,1392.294c-.033.209-.065.42-.1.636-.148.855-.413,1.7-.645,2.548-.232.908-.45,1.819-.771,2.726a37.35,37.35,0,0,1-1.675,3.968c-.117.227-.242.462-.358.69a40.363,40.363,0,0,1-2.531,4.192c-.143.209-.311.418-.458.627a46.615,46.615,0,0,1-2.962,3.712c-.2.228-.385.463-.6.695-1.166,1.274-2.452,2.516-3.807,3.746-.877.787-1.857,1.552-2.809,2.319-.827.667-1.63,1.348-2.525,2-1.012.737-2.126,1.443-3.222,2.154-1.152.748-2.238,1.519-3.477,2.237-1.969,1.146-4.025,2.2-6.128,3.22-.534.258-1.082.518-1.625.766-1.9.879-3.844,1.713-5.841,2.491-.25.1-.5.211-.747.314-2.127.8-4.294,1.533-6.5,2.223-1.546.488-3.124.913-4.7,1.345-1.175.32-2.326.659-3.515.949-1.671.4-3.371.739-5.075,1.083-1.118.221-2.224.48-3.356.678-3.379.6-6.818,1.07-10.282,1.438-1.1.113-2.219.183-3.334.274-1.991.167-4,.313-6.007.4-1.337.057-2.665.084-4.006.112-1.625.024-3.255.039-4.88.021-1.416-.018-2.832-.065-4.248-.121-1.495-.058-2.985-.134-4.476-.237-1.439-.1-2.883-.223-4.312-.361q-2.221-.223-4.406-.494c-1.388-.177-2.762-.372-4.136-.586-1.6-.249-3.19-.532-4.768-.829-1.262-.244-2.517-.493-3.756-.762-1.88-.412-3.727-.88-5.562-1.368-1.244-.327-2.5-.634-3.719-.992-.622-.191-1.23-.386-1.847-.577q-2.793-.879-5.5-1.884c-.543-.2-1.086-.383-1.611-.59-1.6-.614-3.134-1.3-4.666-1.984-.832-.37-1.685-.7-2.5-1.089-2.274-1.078-4.493-2.231-6.625-3.46-17.859-10.323-26.777-23.868-26.74-37.391l-.065,22.873c-.032,13.523,8.886,27.073,26.745,37.393,2.14,1.234,4.369,2.389,6.658,3.481.747.35,1.536.659,2.292,1,1.37.6,2.711,1.236,4.118,1.79.237.09.479.17.71.257.53.21,1.091.4,1.63.6q2.673.989,5.426,1.856c.664.211,1.324.423,2,.618.418.125.826.267,1.239.39.738.209,1.513.354,2.251.548,1.885.5,3.779.978,5.71,1.4.507.111.99.26,1.5.367.737.157,1.508.253,2.256.39,1.587.3,3.175.583,4.777.837.658.1,1.295.245,1.958.339.692.1,1.416.149,2.122.237,1.518.2,3.041.363,4.583.509.7.07,1.4.179,2.107.239.65.053,1.3.056,1.955.1,1.551.111,3.1.193,4.657.254.771.029,1.541.109,2.312.125.617.016,1.239-.014,1.856-.007,1.644.023,3.282.007,4.921-.026.835-.014,1.671.019,2.5-.009.487-.021.966-.075,1.449-.1,2.1-.093,4.178-.244,6.253-.42.784-.065,1.578-.076,2.354-.158.371-.035.733-.086,1.1-.128.646-.069,1.286-.156,1.936-.234,2.108-.249,4.206-.548,6.286-.883.479-.078.962-.151,1.439-.233.256-.041.524-.078.79-.125,1.017-.183,2-.442,3.008-.646,1.647-.337,3.3-.658,4.907-1.051,1.193-.288,2.345-.629,3.519-.948,1.587-.434,3.18-.86,4.727-1.349.324-.1.668-.175.983-.284q2.785-.9,5.469-1.926c.3-.121.581-.244.878-.36,1.94-.76,3.829-1.576,5.691-2.435.576-.265,1.146-.53,1.708-.8,2.089-1.013,4.137-2.063,6.091-3.2.376-.221.747-.439,1.109-.657.808-.486,1.5-1.013,2.266-1.513,1.132-.734,2.288-1.466,3.338-2.232.891-.649,1.7-1.325,2.525-1.991.947-.769,1.917-1.519,2.786-2.3.171-.161.39-.308.562-.466,1.165-1.078,2.242-2.177,3.264-3.292.2-.226.376-.453.571-.669.613-.694,1.235-1.383,1.792-2.089.436-.558.826-1.127,1.234-1.694.13-.185.274-.369.4-.552.729-1.05,1.406-2.1,2.009-3.171.2-.356.367-.725.557-1.083.107-.211.219-.416.321-.627a34.527,34.527,0,0,0,1.531-3.443c.079-.193.1-.392.177-.588.3-.878.52-1.757.747-2.641.172-.623.413-1.245.539-1.88.033-.164.033-.327.056-.492.172-.937.242-1.878.325-2.816.061-.632.2-1.262.214-1.891.008-.267.018-.53.018-.795l.061-22.877A30.086,30.086,0,0,1-5171.17,1392.294Z" transform="translate(5352.046 -1266.723)" fill="#c0c0f6"/>
      <g id="Group_130040" data-name="Group 130040" transform="translate(0.066 68.139)">
        <path id="Path_191919" data-name="Path 191919" d="M-5197.512,1336.734c35.5,20.512,35.7,53.766.418,74.293-35.26,20.513-92.634,20.5-128.13-.014s-35.677-53.754-.417-74.266C-5290.355,1316.221-5233,1316.221-5197.512,1336.734Z" transform="translate(5351.963 -1321.351)" fill="#e9f0f4"/>
      </g>
      <path id="Path_191920" data-name="Path 191920" d="M-5202.66,1289.786c-30.969-17.9-81.05-17.91-111.839,0-15.337,8.921-22.979,20.614-22.96,32.314,0-.044-.009-.084-.009-.121l-.088,32.674c-.041,11.81,7.743,23.64,23.323,32.642,1.861,1.078,3.8,2.084,5.8,3.03.683.323,1.408.606,2.113.918,1.156.516,2.3,1.054,3.5,1.529.139.051.3.091.432.146,2.754,1.073,5.59,2.019,8.491,2.869.236.069.446.161.682.23.659.186,1.341.314,2.01.494,1.64.431,3.282.848,4.967,1.212.432.1.835.228,1.267.314.637.135,1.291.211,1.932.338,1.411.266,2.817.517,4.249.741.557.086,1.1.207,1.657.291.618.085,1.244.125,1.861.207q1.985.25,3.974.446c.624.058,1.235.158,1.861.2.577.049,1.161.056,1.742.1,1.36.093,2.721.165,4.091.221.659.025,1.3.088,1.958.1.525.012,1.05-.013,1.58-.009,1.471.021,2.939.009,4.414-.018.7-.017,1.407.013,2.109-.01.417-.014.835-.065,1.247-.084,1.821-.081,3.617-.208,5.418-.36.7-.06,1.407-.069,2.113-.141.218-.023.427-.067.65-.091,3.021-.316,6.03-.732,8.987-1.25.153-.03.307-.035.456-.065.877-.16,1.721-.377,2.585-.555,1.458-.292,2.906-.578,4.326-.924,1.068-.256,2.089-.558,3.139-.844,1.351-.373,2.707-.731,4.03-1.152.288-.091.6-.161.891-.255.493-.158.939-.374,1.43-.544,2.109-.715,4.155-1.5,6.161-2.337.771-.321,1.535-.634,2.289-.978a80.714,80.714,0,0,0,7.437-3.766c.329-.188.649-.378.976-.569.751-.455,1.4-.948,2.116-1.419.929-.6,1.885-1.206,2.752-1.836.789-.576,1.5-1.178,2.238-1.773.822-.657,1.667-1.315,2.418-2,.154-.139.344-.267.492-.406,1.018-.931,1.955-1.9,2.838-2.867.18-.2.348-.409.516-.606.528-.6,1.071-1.2,1.549-1.805.377-.478.711-.962,1.055-1.453.125-.169.259-.341.375-.513.637-.915,1.23-1.831,1.756-2.765.105-.2.171-.4.283-.593.436-.817.785-1.646,1.146-2.476.209-.477.493-.948.674-1.425.06-.162.079-.328.139-.49.278-.783.474-1.566.674-2.356.143-.534.352-1.069.464-1.607.033-.149.022-.293.05-.437.145-.8.2-1.6.274-2.4.056-.572.172-1.136.2-1.708,0-.232,0-.46,0-.695l.1-32.677c-.009.741-.129,1.476-.19,2.212C-5178.425,1312.108-5186.09,1299.363-5202.66,1289.786Zm15.637,52.2c.613-.739,1.244-1.476,1.778-2.226-.042.046-.074.1-.112.149C-5185.858,1340.61-5186.453,1341.292-5187.023,1341.985Zm2.989-4.164c.39-.628.79-1.25,1.124-1.884a.52.52,0,0,0-.033.076C-5183.268,1336.625-5183.658,1337.222-5184.034,1337.822Zm2.256-4.293c.284-.662.59-1.318.826-1.984a.912.912,0,0,0-.032.088C-5181.2,1332.269-5181.508,1332.892-5181.778,1333.528Zm1.523-4.436c.162-.652.357-1.306.474-1.96a.764.764,0,0,1-.014.1C-5179.9,1327.857-5180.1,1328.475-5180.255,1329.093Zm-8.17,14.609c-.015.019-.028.033-.042.053-.715.779-1.536,1.529-2.334,2.288C-5189.986,1345.265-5189.15,1344.494-5188.425,1343.7Zm-7.061,6.332c.455-.351.892-.7,1.328-1.053-.02.019-.047.033-.061.049C-5194.632,1349.364-5195.045,1349.7-5195.486,1350.033Zm-3.737,2.611c-.018.012-.042.023-.06.037-1,.65-1.941,1.32-3.013,1.94C-5201.206,1353.985-5200.241,1353.308-5199.224,1352.644Zm-130.427-10.784c.445.541.831,1.094,1.3,1.623C-5328.82,1342.954-5329.206,1342.4-5329.651,1341.86Zm-7.632-17.564c.06.734.07,1.473.195,2.208C-5337.213,1325.769-5337.223,1325.03-5337.283,1324.3Zm.766,4.507c.171.695.293,1.387.525,2.072C-5336.224,1330.19-5336.346,1329.5-5336.518,1328.8Zm1.528,4.465c.279.641.5,1.283.817,1.92C-5334.493,1334.551-5334.71,1333.909-5334.99,1333.268Zm2.284,4.35c.372.59.678,1.194,1.083,1.784C-5332.028,1338.812-5332.334,1338.207-5332.706,1337.617Zm13.1,13.507c-.492-.351-.9-.728-1.383-1.081C-5320.505,1350.4-5320.093,1350.774-5319.6,1351.125Zm-4.73-3.717c-.539-.467-.975-.965-1.476-1.441C-5325.306,1346.443-5324.87,1346.94-5324.331,1347.408Z" transform="translate(5349.07 -1243.971)" fill="#ffb30b"/>
      <path id="Path_191921" data-name="Path 191921" d="M-5171.174,1306.51c-.047.216-.075.435-.108.651-.153.855-.413,1.7-.64,2.549-.232.9-.455,1.8-.775,2.7a35.2,35.2,0,0,1-1.681,3.991c-.116.228-.237.455-.353.683a39.638,39.638,0,0,1-2.544,4.211c-.135.2-.288.4-.427.6a46.691,46.691,0,0,1-2.971,3.712c-.213.242-.4.484-.617.726-1.17,1.271-2.451,2.513-3.8,3.733-.887.8-1.862,1.561-2.818,2.331-.831.659-1.62,1.336-2.5,1.977-1.041.76-2.192,1.477-3.311,2.209s-2.186,1.487-3.4,2.186c-1.955,1.141-4.011,2.2-6.1,3.206-.557.277-1.109.535-1.677.793-1.907.884-3.852,1.721-5.849,2.5-.236.1-.459.2-.7.288-2.14.815-4.327,1.552-6.55,2.251-1.509.474-3.056.89-4.6,1.31-1.193.331-2.387.674-3.594.973-1.67.4-3.365.737-5.064,1.081-1.119.227-2.219.481-3.352.68q-5.112.9-10.357,1.443c-1.026.107-2.062.17-3.1.258-2.057.174-4.114.327-6.189.416-1.327.061-2.655.088-3.987.11-1.629.028-3.254.044-4.879.023-1.4-.019-2.794-.056-4.2-.116q-2.318-.087-4.637-.249c-1.355-.1-2.707-.209-4.062-.344-1.541-.149-3.083-.32-4.61-.511-1.341-.172-2.679-.358-4.006-.567q-2.465-.383-4.894-.855c-1.211-.227-2.422-.469-3.62-.732-1.959-.427-3.886-.913-5.8-1.422-1.142-.3-2.3-.587-3.425-.924-.687-.2-1.36-.419-2.043-.632q-2.744-.868-5.408-1.847c-.534-.2-1.077-.384-1.6-.588-1.629-.629-3.2-1.329-4.777-2.028-.789-.349-1.606-.672-2.381-1.038-2.28-1.093-4.5-2.235-6.639-3.474-17.863-10.322-26.791-23.874-26.753-37.414l-.065,22.875c-.032,13.531,8.895,27.087,26.758,37.414,2.126,1.232,4.346,2.382,6.634,3.464.771.37,1.592.69,2.386,1.041,1.342.6,2.66,1.217,4.039,1.768.247.1.5.176.743.267.519.2,1.054.383,1.573.576,1.783.662,3.6,1.28,5.437,1.859.673.211,1.341.427,2.024.629.408.125.812.265,1.23.381.725.209,1.491.353,2.219.548,1.908.5,3.825.987,5.78,1.419.492.1.957.249,1.444.354.724.144,1.472.242,2.2.383,1.615.3,3.24.594,4.875.848.64.1,1.267.237,1.908.335.71.1,1.434.148,2.145.234,1.485.192,2.971.358,4.475.5.733.075,1.453.186,2.191.246.688.058,1.384.065,2.071.111,1.494.107,2.995.179,4.5.241.78.033,1.564.1,2.345.126.631.017,1.262-.016,1.889-.009,1.625.021,3.245.009,4.87-.024.84-.013,1.681.017,2.521-.009.5-.021.989-.082,1.49-.1,2-.091,3.993-.237,5.984-.4.854-.071,1.717-.088,2.567-.172.265-.028.525-.081.785-.112q5.194-.543,10.278-1.433c.167-.031.33-.038.492-.07.985-.18,1.936-.423,2.911-.623,1.681-.342,3.362-.671,5.014-1.073,1.22-.292,2.4-.644,3.6-.969,1.546-.418,3.087-.838,4.6-1.31.329-.109.691-.191,1.021-.295,1.875-.606,3.723-1.264,5.534-1.959.223-.083.431-.184.655-.269,2.014-.785,3.983-1.638,5.919-2.528.548-.25,1.086-.506,1.625-.768,2.1-1.017,4.155-2.075,6.128-3.218.367-.214.733-.427,1.1-.648.891-.535,1.653-1.111,2.488-1.659,1.049-.687,2.121-1.357,3.087-2.068.923-.669,1.746-1.364,2.608-2.049.924-.755,1.876-1.489,2.726-2.26.176-.161.4-.312.566-.472,1.165-1.073,2.237-2.17,3.254-3.283.218-.237.408-.483.617-.729.6-.669,1.212-1.349,1.75-2.04.432-.539.808-1.1,1.207-1.652.149-.207.307-.408.454-.615.71-1.039,1.389-2.087,1.983-3.151.209-.355.371-.714.562-1.076.116-.214.223-.43.335-.643.561-1.141,1.095-2.287,1.527-3.441.064-.184.088-.374.153-.558.321-.9.539-1.8.785-2.709.153-.609.4-1.221.524-1.837.027-.165.027-.335.051-.5.172-.934.247-1.87.33-2.807.055-.634.195-1.264.213-1.9,0-.265.013-.532.013-.8l.061-22.873A32.437,32.437,0,0,1-5171.174,1306.51Z" transform="translate(5352.046 -1249.104)" fill="#c0c0f6"/>
      <g id="Group_130041" data-name="Group 130041" transform="translate(0.068 0)">
        <path id="Path_191922" data-name="Path 191922" d="M-5197.5,1250.982c35.491,20.512,35.653,53.769.39,74.276s-92.611,20.513-128.1,0-35.7-53.767-.445-74.279S-5233,1230.469-5197.5,1250.982Z" transform="translate(5351.961 -1235.599)" fill="#e9f0f4"/>
      </g>
    </g>
    <g id="Group_130085" data-name="Group 130085" transform="translate(-5165.218 1265.8)">
      <g id="Group_130043" data-name="Group 130043" transform="translate(65.145 150.743)" opacity="0.1">
        <path id="Path_191923" data-name="Path 191923" d="M-4961.785,1505.175l-22.158,12.889a2.866,2.866,0,0,1-2.869,0l-22.33-12.905a2.864,2.864,0,0,1-.01-4.954l22.164-12.888a2.849,2.849,0,0,1,2.863,0l22.334,12.9A2.864,2.864,0,0,1-4961.785,1505.175Z" transform="translate(5010.573 -1486.935)"/>
      </g>
      <g id="Group_130056" data-name="Group 130056" transform="translate(65.144 53.758)">
        <g id="Group_130055" data-name="Group 130055">
          <g id="Group_130044" data-name="Group 130044" transform="translate(0 95.917)" opacity="0">
            <path id="Path_191924" data-name="Path 191924" d="M-4961.785,1503.835l-22.158,12.892a2.865,2.865,0,0,1-2.869,0l-22.33-12.906a2.861,2.861,0,0,1-.01-4.953l22.164-12.893a2.853,2.853,0,0,1,2.863,0l22.334,12.908A2.862,2.862,0,0,1-4961.785,1503.835Z" transform="translate(5010.575 -1485.591)" fill="#ffb30b"/>
          </g>
          <g id="Group_130045" data-name="Group 130045" transform="translate(2.119 87.202)" opacity="0.091">
            <path id="Path_191925" data-name="Path 191925" d="M-4986.3,1474.97a2.628,2.628,0,0,1,2.621.006l20.466,11.828a2.617,2.617,0,0,1-.025,4.521l-20.277,11.8a2.633,2.633,0,0,1-2.623.011l-20.48-11.837a2.618,2.618,0,0,1,.025-4.522Z" transform="translate(5007.907 -1474.623)" fill="#ffb30b"/>
          </g>
          <g id="Group_130046" data-name="Group 130046" transform="translate(4.238 78.487)" opacity="0.182">
            <path id="Path_191926" data-name="Path 191926" d="M-4985.618,1463.963a2.4,2.4,0,0,1,2.38.017l18.6,10.749a2.372,2.372,0,0,1-.055,4.087l-18.4,10.7a2.4,2.4,0,0,1-2.377.02l-18.631-10.768a2.376,2.376,0,0,1,.059-4.091Z" transform="translate(5005.241 -1463.656)" fill="#ffb30b"/>
          </g>
          <g id="Group_130047" data-name="Group 130047" transform="translate(6.357 69.772)" opacity="0.273">
            <path id="Path_191927" data-name="Path 191927" d="M-4984.932,1452.955a2.177,2.177,0,0,1,2.137.029l16.729,9.669a2.127,2.127,0,0,1-.085,3.654l-16.517,9.611a2.167,2.167,0,0,1-2.131.028l-16.782-9.7a2.134,2.134,0,0,1,.093-3.661Z" transform="translate(5002.574 -1452.688)" fill="#ffb30b"/>
          </g>
          <g id="Group_130048" data-name="Group 130048" transform="translate(8.475 61.058)" opacity="0.364">
            <path id="Path_191928" data-name="Path 191928" d="M-4984.247,1441.948a1.954,1.954,0,0,1,1.895.038l14.861,8.59a1.884,1.884,0,0,1-.114,3.22l-14.637,8.517a1.938,1.938,0,0,1-1.886.036l-14.933-8.629a1.892,1.892,0,0,1,.127-3.229Z" transform="translate(4999.909 -1441.721)" fill="#ffb30b"/>
          </g>
          <g id="Group_130049" data-name="Group 130049" transform="translate(10.592 52.343)" opacity="0.455">
            <path id="Path_191929" data-name="Path 191929" d="M-4983.561,1430.941a1.73,1.73,0,0,1,1.652.049l12.992,7.51a1.64,1.64,0,0,1-.144,2.787l-12.758,7.423a1.707,1.707,0,0,1-1.64.045l-13.083-7.561a1.651,1.651,0,0,1,.161-2.8Z" transform="translate(4997.245 -1430.753)" fill="#ffb30b"/>
          </g>
          <g id="Group_130050" data-name="Group 130050" transform="translate(12.708 43.627)" opacity="0.545">
            <path id="Path_191930" data-name="Path 191930" d="M-4982.875,1419.933a1.509,1.509,0,0,1,1.409.06l11.124,6.43a1.4,1.4,0,0,1-.174,2.354l-10.877,6.329a1.48,1.48,0,0,1-1.394.054l-11.233-6.491a1.413,1.413,0,0,1,.195-2.367Z" transform="translate(4994.582 -1419.785)" fill="#ffb30b"/>
          </g>
          <g id="Group_130051" data-name="Group 130051" transform="translate(14.822 34.91)" opacity="0.636">
            <path id="Path_191931" data-name="Path 191931" d="M-4982.191,1408.925a1.291,1.291,0,0,1,1.167.071l9.255,5.35c.692.4.489,1.519-.2,1.921l-9,5.236a1.251,1.251,0,0,1-1.148.062l-9.384-5.422c-.694-.4-.462-1.534.229-1.936Z" transform="translate(4991.922 -1408.815)" fill="#ffb30b"/>
          </g>
          <g id="Group_130052" data-name="Group 130052" transform="translate(16.931 26.192)" opacity="0.727">
            <path id="Path_191932" data-name="Path 191932" d="M-4981.509,1397.916a1.083,1.083,0,0,1,.925.081l7.386,4.271c.519.3.285,1.186-.233,1.488l-7.117,4.142a1.031,1.031,0,0,1-.9.071l-7.535-4.353c-.52-.3-.255-1.2.264-1.505Z" transform="translate(4989.267 -1397.843)" fill="#ffb30b"/>
          </g>
          <g id="Group_130053" data-name="Group 130053" transform="translate(19.031 17.471)" opacity="0.818">
            <path id="Path_191933" data-name="Path 191933" d="M-4980.828,1386.907a.883.883,0,0,1,.681.092l5.519,3.191c.346.2.083.854-.263,1.055l-5.237,3.048a.821.821,0,0,1-.656.08l-5.686-3.284c-.347-.2-.049-.873.3-1.073Z" transform="translate(4986.625 -1386.868)" fill="#ffb30b"/>
          </g>
          <g id="Group_130054" data-name="Group 130054" transform="translate(21.11 8.743)" opacity="0.909">
            <path id="Path_191934" data-name="Path 191934" d="M-4980.152,1375.9c.081-.047.358.056.439.1l3.65,2.11c.173.1-.121.521-.293.621l-3.356,1.955c-.081.046-.33.133-.411.087l-3.835-2.215c-.173-.1.158-.543.331-.643Z" transform="translate(4984.008 -1375.884)" fill="#ffb30b"/>
          </g>
          <path id="Path_191935" data-name="Path 191935" d="M-4977.514,1366.026l-1.963,1.145-1.987-1.145,1.973-1.145Z" transform="translate(5004.596 -1364.881)" fill="#ffb30b"/>
        </g>
      </g>
      <g id="Group_130057" data-name="Group 130057" transform="translate(0 111.5)" opacity="0.1">
        <path id="Path_191936" data-name="Path 191936" d="M-5035.354,1458.226l-26.354,15.331a2.864,2.864,0,0,1-2.869,0l-26.55-15.348a2.862,2.862,0,0,1,0-4.953l26.345-15.324a2.856,2.856,0,0,1,2.869,0l26.555,15.34A2.865,2.865,0,0,1-5035.354,1458.226Z" transform="translate(5092.557 -1437.549)"/>
      </g>
      <g id="Group_130070" data-name="Group 130070">
        <g id="Group_130069" data-name="Group 130069">
          <g id="Group_130058" data-name="Group 130058" transform="translate(0 110.276)" opacity="0">
            <path id="Path_191937" data-name="Path 191937" d="M-5035.354,1456.685l-26.354,15.331a2.861,2.861,0,0,1-2.869,0l-26.55-15.349a2.863,2.863,0,0,1,0-4.953l26.345-15.322a2.86,2.86,0,0,1,2.869,0l26.555,15.338A2.866,2.866,0,0,1-5035.354,1456.685Z" transform="translate(5092.557 -1436.008)" fill="#084a93"/>
          </g>
          <g id="Group_130059" data-name="Group 130059" transform="translate(2.474 100.256)" opacity="0.091">
            <path id="Path_191938" data-name="Path 191938" d="M-5064.008,1423.746a2.633,2.633,0,0,1,2.626.005l24.33,14.054a2.619,2.619,0,0,1-.02,4.521l-24.121,14.032a2.632,2.632,0,0,1-2.623.014l-24.343-14.075a2.617,2.617,0,0,1,.027-4.521Z" transform="translate(5089.444 -1423.398)" fill="#084a93"/>
          </g>
          <g id="Group_130060" data-name="Group 130060" transform="translate(4.948 90.236)" opacity="0.182">
            <path id="Path_191939" data-name="Path 191939" d="M-5063.229,1411.1a2.4,2.4,0,0,1,2.381.016l22.106,12.769a2.374,2.374,0,0,1-.049,4.087l-21.887,12.733a2.4,2.4,0,0,1-2.377.021l-22.136-12.8a2.373,2.373,0,0,1,.059-4.089Z" transform="translate(5086.33 -1410.787)" fill="#084a93"/>
          </g>
          <g id="Group_130061" data-name="Group 130061" transform="translate(7.422 80.215)" opacity="0.273">
            <path id="Path_191940" data-name="Path 191940" d="M-5062.449,1398.445a2.176,2.176,0,0,1,2.138.026l19.882,11.484a2.128,2.128,0,0,1-.078,3.653l-19.656,11.434a2.163,2.163,0,0,1-2.13.029l-19.93-11.523a2.131,2.131,0,0,1,.091-3.658Z" transform="translate(5083.216 -1398.177)" fill="#084a93"/>
          </g>
          <g id="Group_130062" data-name="Group 130062" transform="translate(9.895 70.195)" opacity="0.364">
            <path id="Path_191941" data-name="Path 191941" d="M-5061.669,1385.794a1.949,1.949,0,0,1,1.894.037l17.658,10.2a1.883,1.883,0,0,1-.107,3.219l-17.421,10.135a1.932,1.932,0,0,1-1.884.037l-17.723-10.247a1.887,1.887,0,0,1,.124-3.224Z" transform="translate(5080.104 -1385.566)" fill="#084a93"/>
          </g>
          <g id="Group_130063" data-name="Group 130063" transform="translate(12.368 60.174)" opacity="0.455">
            <path id="Path_191942" data-name="Path 191942" d="M-5060.891,1373.144a1.723,1.723,0,0,1,1.65.046l15.433,8.914a1.639,1.639,0,0,1-.136,2.785l-15.188,8.836a1.7,1.7,0,0,1-1.639.046l-15.515-8.972a1.646,1.646,0,0,1,.155-2.793Z" transform="translate(5076.992 -1372.955)" fill="#084a93"/>
          </g>
          <g id="Group_130064" data-name="Group 130064" transform="translate(14.84 50.152)" opacity="0.545">
            <path id="Path_191943" data-name="Path 191943" d="M-5060.113,1360.493a1.5,1.5,0,0,1,1.406.057l13.209,7.629a1.4,1.4,0,0,1-.165,2.351l-12.954,7.537a1.473,1.473,0,0,1-1.392.054l-13.309-7.7a1.407,1.407,0,0,1,.187-2.361Z" transform="translate(5073.881 -1360.344)" fill="#084a93"/>
          </g>
          <g id="Group_130065" data-name="Group 130065" transform="translate(17.309 40.13)" opacity="0.636">
            <path id="Path_191944" data-name="Path 191944" d="M-5059.335,1347.842a1.279,1.279,0,0,1,1.162.067l10.985,6.344c.691.4.5,1.515-.194,1.917l-10.723,6.239a1.243,1.243,0,0,1-1.145.062l-11.1-6.42c-.693-.4-.473-1.527.219-1.929Z" transform="translate(5070.774 -1347.731)" fill="#084a93"/>
          </g>
          <g id="Group_130066" data-name="Group 130066" transform="translate(19.774 30.107)" opacity="0.727">
            <path id="Path_191945" data-name="Path 191945" d="M-5058.558,1335.191a1.065,1.065,0,0,1,.918.077l8.761,5.059c.519.3.294,1.182-.223,1.483l-8.489,4.939a1.023,1.023,0,0,1-.9.07l-8.9-5.144c-.519-.3-.268-1.2.251-1.5Z" transform="translate(5067.671 -1335.116)" fill="#084a93"/>
          </g>
          <g id="Group_130067" data-name="Group 130067" transform="translate(22.231 20.081)" opacity="0.818">
            <path id="Path_191946" data-name="Path 191946" d="M-5057.783,1322.539a.868.868,0,0,1,.675.087l6.536,3.774c.345.2.092.848-.252,1.049l-6.255,3.64a.814.814,0,0,1-.654.078l-6.688-3.869c-.346-.2-.063-.864.282-1.065Z" transform="translate(5064.58 -1322.499)" fill="#084a93"/>
          </g>
          <g id="Group_130068" data-name="Group 130068" transform="translate(24.667 10.048)" opacity="0.909">
            <path id="Path_191947" data-name="Path 191947" d="M-5057.013,1309.885c.08-.047.35.051.431.1l4.313,2.49c.172.1-.11.514-.282.615l-4.022,2.341c-.08.047-.327.133-.408.087l-4.481-2.594c-.173-.1.142-.532.314-.633Z" transform="translate(5061.514 -1309.872)" fill="#084a93"/>
          </g>
          <path id="Path_191948" data-name="Path 191948" d="M-5053.984,1298.54l-2.261,1.318-2.274-1.318,2.261-1.312Z" transform="translate(5085.566 -1297.227)" fill="#084a93"/>
        </g>
      </g>
      <g id="Group_130071" data-name="Group 130071" transform="translate(115.363 180.013)" opacity="0.1">
        <path id="Path_191949" data-name="Path 191949" d="M-4905.515,1540l-18.7,10.88a2.86,2.86,0,0,1-2.87,0l-18.861-10.9a2.861,2.861,0,0,1,0-4.953l18.7-10.878a2.859,2.859,0,0,1,2.869,0l18.857,10.894A2.864,2.864,0,0,1-4905.515,1540Z" transform="translate(4947.375 -1523.771)"/>
      </g>
      <g id="Group_130084" data-name="Group 130084" transform="translate(117.734 106.794)">
        <g id="Group_130083" data-name="Group 130083">
          <g id="Group_130072" data-name="Group 130072" transform="translate(0 75.969)" opacity="0">
            <path id="Path_191950" data-name="Path 191950" d="M-4907.274,1542.089l-16.336,9.507a2.87,2.87,0,0,1-2.869,0l-16.481-9.524a2.865,2.865,0,0,1-.009-4.955l16.336-9.5a2.862,2.862,0,0,1,2.868,0l16.486,9.52A2.862,2.862,0,0,1-4907.274,1542.089Z" transform="translate(4944.39 -1527.232)" fill="#b9ddfc"/>
          </g>
          <g id="Group_130073" data-name="Group 130073" transform="translate(1.627 69.067)" opacity="0.091">
            <path id="Path_191951" data-name="Path 191951" d="M-4926.075,1518.893a2.632,2.632,0,0,1,2.625.006l15.113,8.727a2.617,2.617,0,0,1-.026,4.521l-14.949,8.7a2.637,2.637,0,0,1-2.622.012l-15.125-8.741a2.623,2.623,0,0,1,.027-4.525Z" transform="translate(4942.343 -1518.546)" fill="#b9ddfc"/>
          </g>
          <g id="Group_130074" data-name="Group 130074" transform="translate(3.254 62.166)" opacity="0.182">
            <path id="Path_191952" data-name="Path 191952" d="M-4925.519,1510.168a2.4,2.4,0,0,1,2.381.015l13.739,7.934a2.374,2.374,0,0,1-.057,4.089l-13.561,7.892a2.4,2.4,0,0,1-2.374.019l-13.771-7.957a2.381,2.381,0,0,1,.063-4.1Z" transform="translate(4940.296 -1509.86)" fill="#b9ddfc"/>
          </g>
          <g id="Group_130075" data-name="Group 130075" transform="translate(4.88 55.264)" opacity="0.273">
            <path id="Path_191953" data-name="Path 191953" d="M-4924.96,1501.443a2.179,2.179,0,0,1,2.137.025l12.366,7.141a2.129,2.129,0,0,1-.088,3.656l-12.173,7.085a2.161,2.161,0,0,1-2.125.026l-12.416-7.174a2.139,2.139,0,0,1,.1-3.666Z" transform="translate(4938.249 -1501.175)" fill="#b9ddfc"/>
          </g>
          <g id="Group_130076" data-name="Group 130076" transform="translate(6.506 48.363)" opacity="0.364">
            <path id="Path_191954" data-name="Path 191954" d="M-4924.4,1492.717a1.952,1.952,0,0,1,1.893.036l10.993,6.347a1.887,1.887,0,0,1-.119,3.224l-10.785,6.277a1.928,1.928,0,0,1-1.878.034l-11.06-6.391a1.9,1.9,0,0,1,.134-3.235Z" transform="translate(4936.203 -1492.489)" fill="#b9ddfc"/>
          </g>
          <g id="Group_130077" data-name="Group 130077" transform="translate(8.131 41.46)" opacity="0.455">
            <path id="Path_191955" data-name="Path 191955" d="M-4923.847,1483.991a1.725,1.725,0,0,1,1.649.046l9.622,5.554a1.645,1.645,0,0,1-.151,2.792l-9.4,5.471a1.692,1.692,0,0,1-1.63.041l-9.7-5.608a1.658,1.658,0,0,1,.169-2.8Z" transform="translate(4934.158 -1483.803)" fill="#b9ddfc"/>
          </g>
          <g id="Group_130078" data-name="Group 130078" transform="translate(9.754 34.558)" opacity="0.545">
            <path id="Path_191956" data-name="Path 191956" d="M-4923.291,1475.265a1.5,1.5,0,0,1,1.4.056l8.249,4.761a1.4,1.4,0,0,1-.181,2.359l-8.01,4.664a1.46,1.46,0,0,1-1.383.048l-8.35-4.824a1.422,1.422,0,0,1,.207-2.375Z" transform="translate(4932.114 -1475.116)" fill="#b9ddfc"/>
          </g>
          <g id="Group_130079" data-name="Group 130079" transform="translate(11.375 27.655)" opacity="0.636">
            <path id="Path_191957" data-name="Path 191957" d="M-4922.735,1466.54a1.281,1.281,0,0,1,1.162.066l6.875,3.968c.692.4.48,1.526-.212,1.927l-6.622,3.856a1.227,1.227,0,0,1-1.135.056l-6.995-4.042c-.691-.4-.448-1.542.243-1.944Z" transform="translate(4930.075 -1466.429)" fill="#b9ddfc"/>
          </g>
          <g id="Group_130080" data-name="Group 130080" transform="translate(12.991 20.75)" opacity="0.727">
            <path id="Path_191958" data-name="Path 191958" d="M-4922.18,1457.814a1.061,1.061,0,0,1,.917.076l5.5,3.174c.519.3.276,1.193-.243,1.494l-5.234,3.049a1,1,0,0,1-.888.063l-5.639-3.258c-.519-.3-.24-1.213.278-1.515Z" transform="translate(4928.041 -1457.739)" fill="#b9ddfc"/>
          </g>
          <g id="Group_130081" data-name="Group 130081" transform="translate(14.597 13.843)" opacity="0.818">
            <path id="Path_191959" data-name="Path 191959" d="M-4921.628,1449.087a.864.864,0,0,1,.673.087l4.129,2.381c.346.2.073.861-.274,1.062l-3.846,2.242a.781.781,0,0,1-.64.07l-4.285-2.475c-.346-.2-.031-.883.313-1.084Z" transform="translate(4926.02 -1449.047)" fill="#b9ddfc"/>
          </g>
          <g id="Group_130082" data-name="Group 130082" transform="translate(16.18 6.929)" opacity="0.909">
            <path id="Path_191960" data-name="Path 191960" d="M-4921.083,1440.358c.08-.047.348.05.429.1l2.756,1.588c.173.1-.132.529-.3.629l-2.458,1.434c-.081.047-.312.124-.393.078l-2.929-1.692c-.173-.1.177-.554.351-.654Z" transform="translate(4924.028 -1440.345)" fill="#b9ddfc"/>
          </g>
          <path id="Path_191961" data-name="Path 191961" d="M-4918.982,1432.527l-1.551.909-1.574-.909,1.555-.9Z" transform="translate(4939.813 -1431.626)" fill="#b9ddfc"/>
        </g>
      </g>
    </g>
    <g id="Group_130102" data-name="Group 130102" transform="translate(-5222.853 1331.915)">
      <g id="Group_130088" data-name="Group 130088" transform="translate(20.041 142.025)" style="isolation: isolate">
        <g id="Group_130087" data-name="Group 130087" clip-path="url(#clip-path)">
          <g id="Group_130086" data-name="Group 130086" transform="translate(-1.202 -0.528)" style="isolation: isolate">
            <path id="Path_191962" data-name="Path 191962" d="M-5141.382,1558.5l.019,4.393a6.863,6.863,0,0,1,1.2.532.249.249,0,0,1,.075.054l-.01-4.405c-.023-.017-.056-.025-.083-.046a6.112,6.112,0,0,0-1.2-.527Z" transform="translate(5141.382 -1558.504)" fill="#b8387b"/>
          </g>
        </g>
      </g>
      <path id="Path_191964" data-name="Path 191964" d="M-4963.993,1581.887s-7.27,6.108-5.743,12.493c0,0,2.432,2.586,4.712-1.977S-4960.339,1581.742-4963.993,1581.887Z" transform="translate(5125.009 -1421.809)" fill="#0a1014"/>
      <path id="Path_191965" data-name="Path 191965" d="M-4969.681,1591.348s11,3.787,12.841.2a33.758,33.758,0,0,1,5.213-7.743c1.36-1.3,10.427-16.567,7.451-19-3-2.42-7.335,1.9-8.635,2.96s-15.124,11.8-15.124,11.8Z" transform="translate(5124.954 -1418.15)" fill="#111114"/>
      <path id="Path_191966" data-name="Path 191966" d="M-5094.455,1510.459s38.5,22.09,47.223,29.6c7.233,6.215,47.278,25.4,47.278,25.4s-1.889,3.794-3.245,12.4c0,0-36.59-.53-59.617-21.69,0,0-77.263-16.11-70.671-56.01C-5133.487,1500.163-5108.01,1504.765-5094.455,1510.459Z" transform="translate(5158.681 -1405.024)" fill="#003a78"/>
      <path id="Path_191967" data-name="Path 191967" d="M-4949.579,1584.3c1.207-1.164,8.5-13.375,7.943-17.745-1.3-.186-3.37.044-4.559,2.892a136.388,136.388,0,0,1-8.383,15.755c-.873,1.094-5.85,5.912-5.047,8.351,2.191.14,4.137-.169,4.833-1.51A33.728,33.728,0,0,1-4949.579,1584.3Z" transform="translate(5122.907 -1418.651)" fill="#1d1d21"/>
      <path id="Path_191968" data-name="Path 191968" d="M-4990.632,1615.827s12.451,1.954,13.76-1.3a29.53,29.53,0,0,1,3.9-7.151c1.068-1.221,7.687-15.163,4.9-17.034s-6.184,2.226-7.228,3.257-12.414,11.286-12.414,11.286Z" transform="translate(5129.257 -1423.446)" fill="#161619"/>
      <path id="Path_191969" data-name="Path 191969" d="M-4970.493,1607.767c.943-1.092,6.28-12.259,5.446-15.988-1.143-.052-2.916.316-3.709,2.872a118.1,118.1,0,0,1-6.017,14.323c-.66,1.008-4.577,5.6-3.681,7.643,1.9-.065,3.57-.5,4.057-1.7A29.528,29.528,0,0,1-4970.493,1607.767Z" transform="translate(5126.783 -1423.841)" fill="#1d1d21"/>
      <path id="Path_191970" data-name="Path 191970" d="M-5107,1423.015s-7.3.894-7,9.2,7.952,44.147,16.759,51.263c8.788,7.111,8.6-9.828,8.6-9.828S-5094.039,1421.191-5107,1423.015Z" transform="translate(5154.599 -1389.169)" fill="#996b00"/>
      <path id="Path_191971" data-name="Path 191971" d="M-5105.076,1508.7s-6.4,18.985-9.708,23.123c0,0,38.485,22.095,47.213,29.609,7.228,6.216,48.146,25.035,48.146,25.035s-2.749,4.153-4.127,12.76c0,0-36.585-.527-59.616-21.686,0,0-77.25-16.109-70.663-56.012C-5153.831,1521.529-5128.26,1531.714-5105.076,1508.7Z" transform="translate(5162.86 -1406.778)" fill="#084a93"/>
      <path id="Path_191972" data-name="Path 191972" d="M-5137.167,1425.657s-20.891,11.737-21.355,13.171-2.875,2.555,3.988,18.821a52.381,52.381,0,0,1,1.856,32.033c-2.669,10.235-2.246,13.691-2.246,13.691s8.114,17.406,31.2,8.91c4.656-1.721,17.668-14.149,20.04-19.262,0,0-7.334-9.036-4.456-26.68s4.517-40.555-5.487-43.608C-5113.625,1422.732-5116.169,1419.659-5137.167,1425.657Z" transform="translate(5163.902 -1388.959)" fill="#cc8f00"/>
      <path id="Path_191973" data-name="Path 191973" d="M-5123.265,1419.477s13.454,7.084,7.451,17.239l6.337,3.489S-5103.28,1422.439-5123.265,1419.477Z" transform="translate(5156.5 -1388.452)" fill="#feffff"/>
      <path id="Path_191974" data-name="Path 191974" d="M-5134.132,1410.48s5.664,8.606,1.184,14.407c-2.512,3.256,3.389,10.945,13.463,10.334,0,0,4.508-1.111,4.048-2.737-1.049-3.717.442-5.81,2.056-8.647C-5111.793,1420.993-5134.132,1410.48-5134.132,1410.48Z" transform="translate(5158.731 -1386.604)" fill="#efb185"/>
      <path id="Path_191975" data-name="Path 191975" d="M-5132.781,1425.025a2.736,2.736,0,0,0-.538,1.338c3.773-3.845,11.034-4.137,11.034-4.137l-9.581-10.6c-.371-.179-.682-.335-.965-.474l-.3.951C-5131.741,1414.814-5129.447,1420.708-5132.781,1425.025Z" transform="translate(5158.565 -1386.742)" fill="#dd9569"/>
      <path id="Path_191976" data-name="Path 191976" d="M-5112.249,1434.979c-.951-5.9.442-5.81,2.057-8.647.428-.784-.941-2.134-3.143-3.706a7.042,7.042,0,0,0-1.644,1.851c-3.9,6.03-3.88,10.729-3.416,13.238a9.527,9.527,0,0,0,2.1,0C-5115.089,1437.53-5111.96,1436.8-5112.249,1434.979Z" transform="translate(5155.542 -1389.098)" fill="#f2b78f"/>
      <g id="Group_130089" data-name="Group 130089" transform="translate(20.917 0.199)">
        <path id="Path_191977" data-name="Path 191977" d="M-5136.941,1399.675s2.451,11.377,10.273,16.551c6.932,4.579,15.01,7.585,16.485-.7,1.185-6.586,4.42-23.346-1.393-26.725-7.488-4.33-10.235-9.681-18.894-6.486C-5130.469,1382.313-5140.367,1386.865-5136.941,1399.675Z" transform="translate(5138.54 -1380.818)" fill="#efb185"/>
        <path id="Path_191978" data-name="Path 191978" d="M-5136.94,1400.618a25.607,25.607,0,0,0,10.241,16.707,32.175,32.175,0,0,0,6.561,3.482c-3.646-2.683-4.017-3.517-6.843-6.809s4.205-2.024-.608-10.441c-1.625-2.877,6.388.829,8.185.771,10.678-.26,9.87-6.37,10.078-8.958a19.65,19.65,0,0,0-.873-3.162l-1.016-1.94c-.113-.186-.242-.36-.358-.525a37.206,37.206,0,0,0-3.458-3.81c-4.574.1-17.562.384-17.822.455-.182.042-2.415,3.074-4.486,5.957A17.625,17.625,0,0,0-5136.94,1400.618Z" transform="translate(5138.539 -1381.761)" fill="#e6a376"/>
        <path id="Path_191979" data-name="Path 191979" d="M-5132.5,1410.568s-8.635-7.945-5.636-19.334a13.3,13.3,0,0,1,11.778-10.373c4.852-.582,14.183-.284,17.892,9.522,1.151,3.067.376,9.776-11.633,6.649-1.723-.451-6.291-1.06-7.9.411s-1.792,4.2-1.017,6.524c.682,2.042-1.11,2.258-1.361,1.827s-2.562-6.254-4.734-3.978C-5137.065,1403.875-5132.7,1410.173-5132.5,1410.568Z" transform="translate(5138.767 -1380.683)" fill="#131c24"/>
        <path id="Path_191980" data-name="Path 191980" d="M-5132.5,1411.6c-.2-.395-4.568-6.693-2.613-8.752,2.172-2.277,4.483,3.545,4.734,3.978s2.043.215,1.361-1.827c-.775-2.326-.6-5.053,1.017-6.524,1.458-1.331,5.465-.652,7.9-.411-1.992-1.28-5.966-1.724-7.382-5.051-1.894-4.445-4.573-6.528-7.079-7.31a13.8,13.8,0,0,0-3.575,6.561C-5141.133,1403.654-5132.5,1411.6-5132.5,1411.6Z" transform="translate(5138.767 -1381.714)" fill="#131c24"/>
      </g>
      <path id="Path_191981" data-name="Path 191981" d="M-5131.648,1425.117a17.535,17.535,0,0,0,13.514,12.757l-3.281,8.026S-5142,1435.568-5131.648,1425.117Z" transform="translate(5158.82 -1389.61)" fill="#feffff"/>
      <path id="Path_191982" data-name="Path 191982" d="M-5107.483,1390.332s1.773,10.968-12.168,6.993c0,0-6.967-1.857-9.771-8.329-.594-1.378-2.21-3.666-4.569-3.915,0,0,3.709-5.271,13.306-4.588,4.522.319,9.211,4.718,10.372,5.432C-5109.173,1386.643-5111.04,1391.215-5107.483,1390.332Z" transform="translate(5158.703 -1380.432)" fill="#131c24"/>
      <path id="Path_191983" data-name="Path 191983" d="M-5042.675,1491.585s10.041,1.882,16.9-.977,5.2-3.082,4.674-4.121c-1.146-2.263-10.2-1.638-11.875-2.084s1.394-1.768,2.08-2.916,2.271-2.5,1.714-2.88c-.534-.373-1.932-.76-4.476,1.267-2.549,2.042-8.979,4.79-8.979,4.79Z" transform="translate(5139.947 -1400.535)" fill="#efb185"/>
      <path id="Path_191984" data-name="Path 191984" d="M-5051.913,1484.121a16.9,16.9,0,0,0-.542,4.473,10.032,10.032,0,0,0,1.449,5.159s-32.775,6.579-41.1,2.356c0,0-8.055-12.427,4.256-15.726Z" transform="translate(5150.632 -1400.961)" fill="#996b00"/>
      <path id="Path_191985" data-name="Path 191985" d="M-5145.042,1490.36l35.277,14.765a12.561,12.561,0,0,0-1.853,3.861c-8.017-2.548-37.617-6.954-36.925-13.337,3.547-32.882,3.881-50.086,3.881-50.086l1.319,3.92C-5140.07,1463.383-5145.042,1490.36-5145.042,1490.36Z" transform="translate(5161.693 -1393.81)" fill="#ea49bd"/>
      <g id="Group_130101" data-name="Group 130101" transform="translate(37.589 82.56)">
        <g id="Group_130094" data-name="Group 130094" transform="translate(0 14.3)">
          <g id="Group_130093" data-name="Group 130093" style="isolation: isolate">
            <g id="Group_130090" data-name="Group 130090" transform="translate(0 21.202)">
              <path id="Path_191986" data-name="Path 191986" d="M-5117.641,1529.012l-.144,1.7,24.669,17.6.144-1.705Z" transform="translate(5117.785 -1529.012)" fill="#b4b9bc"/>
            </g>
            <g id="Group_130091" data-name="Group 130091" transform="translate(24.67 17.601)">
              <path id="Path_191987" data-name="Path 191987" d="M-5086.595,1545.67l-.144,1.705,46.07-21.193.158-1.7Z" transform="translate(5086.738 -1524.48)" fill="#7d8183"/>
            </g>
            <g id="Group_130092" data-name="Group 130092" transform="translate(0.144)">
              <path id="Path_191988" data-name="Path 191988" d="M-5117.6,1523.531l24.67,17.589,46.084-21.191-24.67-17.6Z" transform="translate(5117.604 -1502.329)" fill="#e3e5e5"/>
            </g>
          </g>
        </g>
        <g id="Group_130100" data-name="Group 130100" transform="translate(22.696)">
          <g id="Group_130099" data-name="Group 130099" style="isolation: isolate">
            <g id="Group_130095" data-name="Group 130095" transform="translate(0 22.145)">
              <path id="Path_191989" data-name="Path 191989" d="M-5079.7,1513.908l-1.834-1.705-7.687,30.853,1.834,1.705Z" transform="translate(5089.222 -1512.203)" fill="#bdbbbb"/>
            </g>
            <g id="Group_130096" data-name="Group 130096" transform="translate(7.688)">
              <path id="Path_191990" data-name="Path 191990" d="M-5029.553,1486.04l-1.837-1.708-48.156,22.145,1.834,1.705Z" transform="translate(5079.547 -1484.333)" fill="#d2d0d0"/>
            </g>
            <g id="Group_130097" data-name="Group 130097" transform="translate(1.834 1.708)">
              <path id="Path_191991" data-name="Path 191991" d="M-5079.226,1508.625l-7.687,30.853,48.16-22.157,7.688-30.839Z" transform="translate(5086.913 -1486.482)" fill="#d5dfe6"/>
            </g>
            <g id="Group_130098" data-name="Group 130098" transform="translate(9.522 1.708)">
              <path id="Path_191992" data-name="Path 191992" d="M-5077.239,1508.625h0l40.472,8.7,7.688-30.839Z" transform="translate(5077.239 -1486.482)" fill="#e9f0f4"/>
            </g>
          </g>
        </g>
      </g>
      <path id="Path_191993" data-name="Path 191993" d="M-5102.557,1530.075s11.082,9.161,21.935,7.014c0,0-.014-2.827-4.842-3.877s-6.657-4.747-6.62-5.311,3.812-.887,5.51-.969,3.723-2.4-.4-2.663-11.156-1.824-15.157-.943C-5102.13,1523.326-5106.127,1527.594-5102.557,1530.075Z" transform="translate(5152.551 -1409.727)" fill="#efb185"/>
      <path id="Path_191994" data-name="Path 191994" d="M-5152.719,1440.4s-7.237-1.338-9.447,6.673-5.613,44.507.66,53.936c6.257,9.429,47.105,14.377,47.105,14.377a11.179,11.179,0,0,1,1.24-11.34l-35.277-14.765S-5139.817,1442.546-5152.719,1440.4Z" transform="translate(5165.091 -1392.732)" fill="#996b00"/>
    </g>
  </g>
</svg>
