<svg xmlns="http://www.w3.org/2000/svg" xmlns:xlink="http://www.w3.org/1999/xlink" width="420" height="403" viewBox="0 0 420 403">
  <defs>
    <clipPath id="clip-path">
      <path id="Path_191417" data-name="Path 191417" d="M-4597.159,1318.257c-1.687.984-2.519,2.283-2.515,3.571l-.019-8.652c0-1.284.84-2.576,2.523-3.555q.012,4.3.011,8.636,0-4.328-.011-8.636a13.64,13.64,0,0,1,12.377-.049c0,2.87,0,5.763.011,8.633-.011-2.87,0-5.763-.011-8.633,1.733.983,2.591,2.286,2.595,3.585l.023,8.652c0-1.31-.878-2.617-2.607-3.6A13.689,13.689,0,0,0-4597.159,1318.257Z" fill="none"/>
    </clipPath>
    <clipPath id="clip-path-2">
      <path id="Path_191436" data-name="Path 191436" d="M-4582.2,1313.157l.023,8.637c-.008,1.3-.848,2.592-2.532,3.578a13.578,13.578,0,0,1-12.365.057c-1.725-.991-2.606-2.3-2.6-3.6-.012-2.881-.012-5.766-.019-8.652.007,1.311.874,2.611,2.61,3.612a13.633,13.633,0,0,0,12.369-.056C-4583.038,1315.73-4582.19,1314.438-4582.2,1313.157Z" fill="none"/>
    </clipPath>
  </defs>
  <g id="_1" data-name="1" transform="translate(-1000 -489)">
    <rect id="BG" width="420" height="403" transform="translate(1000 489)" fill="#fff" opacity="0.15"/>
    <g id="Group_129820" data-name="Group 129820" transform="translate(5690.484 -518.656)">
      <g id="Group_129691" data-name="Group 129691">
        <g id="Group_129649" data-name="Group 129649" opacity="0.1">
          <path id="Path_191357" data-name="Path 191357" d="M-4322.674,1219.91l-18.147,10.55-18.271-10.55,18.155-10.542Z"/>
        </g>
        <g id="Group_129662" data-name="Group 129662">
          <g id="Group_129661" data-name="Group 129661">
            <g id="Group_129650" data-name="Group 129650" opacity="0">
              <path id="Path_191358" data-name="Path 191358" d="M-4322.674,1219.217l-18.147,10.55-18.271-10.55,18.155-10.542Z" fill="#ffdf75"/>
            </g>
            <g id="Group_129651" data-name="Group 129651" opacity="0.091">
              <path id="Path_191359" data-name="Path 191359" d="M-4324.212,1212.677l-16.614,9.658-16.728-9.658,16.622-9.652Z" fill="#ffdf75"/>
            </g>
            <g id="Group_129652" data-name="Group 129652" opacity="0.182">
              <path id="Path_191360" data-name="Path 191360" d="M-4325.751,1206.138l-15.081,8.767-15.185-8.767,15.088-8.762Z" fill="#ffdf75"/>
            </g>
            <g id="Group_129653" data-name="Group 129653" opacity="0.273">
              <path id="Path_191361" data-name="Path 191361" d="M-4327.29,1199.6l-13.547,7.875-13.641-7.875,13.554-7.872Z" fill="#ffdf75"/>
            </g>
            <g id="Group_129654" data-name="Group 129654" opacity="0.364">
              <path id="Path_191362" data-name="Path 191362" d="M-4328.829,1193.058l-12.014,6.983-12.1-6.983,12.021-6.981Z" fill="#ffdf75"/>
            </g>
            <g id="Group_129655" data-name="Group 129655" opacity="0.455">
              <path id="Path_191363" data-name="Path 191363" d="M-4330.368,1186.518l-10.48,6.092-10.554-6.092,10.487-6.091Z" fill="#ffdf75"/>
            </g>
            <g id="Group_129656" data-name="Group 129656" opacity="0.545">
              <path id="Path_191364" data-name="Path 191364" d="M-4331.906,1179.979l-8.947,5.2-9.01-5.2,8.953-5.2Z" fill="#ffdf75"/>
            </g>
            <g id="Group_129657" data-name="Group 129657" opacity="0.636">
              <path id="Path_191365" data-name="Path 191365" d="M-4333.445,1173.439l-7.414,4.309-7.467-4.309,7.419-4.311Z" fill="#ffdf75"/>
            </g>
            <g id="Group_129658" data-name="Group 129658" opacity="0.727">
              <path id="Path_191366" data-name="Path 191366" d="M-4334.984,1166.9l-5.881,3.417-5.922-3.417,5.885-3.42Z" fill="#ffdf75"/>
            </g>
            <g id="Group_129659" data-name="Group 129659" opacity="0.818">
              <path id="Path_191367" data-name="Path 191367" d="M-4336.523,1160.359l-4.347,2.525-4.379-2.525,4.352-2.53Z" fill="#ffdf75"/>
            </g>
            <g id="Group_129660" data-name="Group 129660" opacity="0.909">
              <path id="Path_191368" data-name="Path 191368" d="M-4338.062,1153.82l-2.814,1.634-2.835-1.634,2.818-1.64Z" fill="#ffdf75"/>
            </g>
            <path id="Path_191369" data-name="Path 191369" d="M-4339.6,1147.28l-1.28.742-1.292-.742,1.285-.749Z" fill="#ffdf75"/>
          </g>
        </g>
        <g id="Group_129663" data-name="Group 129663" opacity="0.1">
          <path id="Path_191370" data-name="Path 191370" d="M-4359.638,1195.959l-20.878,12.132-21.013-12.132,20.878-12.128Z"/>
        </g>
        <g id="Group_129676" data-name="Group 129676">
          <g id="Group_129675" data-name="Group 129675">
            <g id="Group_129664" data-name="Group 129664" opacity="0">
              <path id="Path_191371" data-name="Path 191371" d="M-4359.638,1195.16l-20.878,12.136-21.013-12.136,20.878-12.136Z" fill="#aadefd"/>
            </g>
            <g id="Group_129665" data-name="Group 129665" opacity="0.091">
              <path id="Path_191372" data-name="Path 191372" d="M-4361.408,1187.637l-19.114,11.11-19.238-11.11,19.114-11.111Z" fill="#aadefd"/>
            </g>
            <g id="Group_129666" data-name="Group 129666" opacity="0.182">
              <path id="Path_191373" data-name="Path 191373" d="M-4363.177,1180.115l-17.349,10.084-17.464-10.084,17.351-10.085Z" fill="#aadefd"/>
            </g>
            <g id="Group_129667" data-name="Group 129667" opacity="0.273">
              <path id="Path_191374" data-name="Path 191374" d="M-4364.947,1172.592l-15.585,9.058-15.689-9.058,15.586-9.06Z" fill="#aadefd"/>
            </g>
            <g id="Group_129668" data-name="Group 129668" opacity="0.364">
              <path id="Path_191375" data-name="Path 191375" d="M-4366.717,1165.069l-13.82,8.032-13.915-8.032,13.823-8.035Z" fill="#aadefd"/>
            </g>
            <g id="Group_129669" data-name="Group 129669" opacity="0.455">
              <path id="Path_191376" data-name="Path 191376" d="M-4368.486,1157.546l-12.055,7.006-12.14-7.006,12.059-7.01Z" fill="#aadefd"/>
            </g>
            <g id="Group_129670" data-name="Group 129670" opacity="0.545">
              <path id="Path_191377" data-name="Path 191377" d="M-4370.256,1150.024l-10.291,5.98-10.365-5.98,10.295-5.985Z" fill="#aadefd"/>
            </g>
            <g id="Group_129671" data-name="Group 129671" opacity="0.636">
              <path id="Path_191378" data-name="Path 191378" d="M-4372.025,1142.5l-8.526,4.955-8.59-4.955,8.531-4.959Z" fill="#aadefd"/>
            </g>
            <g id="Group_129672" data-name="Group 129672" opacity="0.727">
              <path id="Path_191379" data-name="Path 191379" d="M-4373.795,1134.978l-6.762,3.929-6.815-3.929,6.768-3.934Z" fill="#aadefd"/>
            </g>
            <g id="Group_129673" data-name="Group 129673" opacity="0.818">
              <path id="Path_191380" data-name="Path 191380" d="M-4375.564,1127.455l-5,2.9-5.041-2.9,5-2.909Z" fill="#aadefd"/>
            </g>
            <g id="Group_129674" data-name="Group 129674" opacity="0.909">
              <path id="Path_191381" data-name="Path 191381" d="M-4377.334,1119.932l-3.233,1.877-3.266-1.877,3.24-1.884Z" fill="#aadefd"/>
            </g>
            <path id="Path_191382" data-name="Path 191382" d="M-4379.1,1112.41l-1.469.851-1.492-.851,1.477-.859Z" fill="#aadefd"/>
          </g>
        </g>
        <g id="Group_129677" data-name="Group 129677" opacity="0.1">
          <path id="Path_191383" data-name="Path 191383" d="M-4294.485,1237.654l-15.9,9.239-16-9.239,15.9-9.236Z"/>
        </g>
        <g id="Group_129690" data-name="Group 129690">
          <g id="Group_129689" data-name="Group 129689">
            <g id="Group_129678" data-name="Group 129678" opacity="0">
              <path id="Path_191384" data-name="Path 191384" d="M-4296.025,1238.547l-14.358,8.347-14.452-8.347,14.358-8.343Z" fill="#a1f7f6"/>
            </g>
            <g id="Group_129679" data-name="Group 129679" opacity="0.091">
              <path id="Path_191385" data-name="Path 191385" d="M-4297.242,1233.374l-13.145,7.641-13.231-7.641,13.144-7.638Z" fill="#a1f7f6"/>
            </g>
            <g id="Group_129680" data-name="Group 129680" opacity="0.182">
              <path id="Path_191386" data-name="Path 191386" d="M-4298.459,1228.2l-11.931,6.935-12.01-6.935,11.93-6.933Z" fill="#a1f7f6"/>
            </g>
            <g id="Group_129681" data-name="Group 129681" opacity="0.273">
              <path id="Path_191387" data-name="Path 191387" d="M-4299.676,1223.028l-10.717,6.23-10.79-6.23,10.716-6.229Z" fill="#a1f7f6"/>
            </g>
            <g id="Group_129682" data-name="Group 129682" opacity="0.364">
              <path id="Path_191388" data-name="Path 191388" d="M-4300.893,1217.855l-9.5,5.524-9.569-5.524,9.5-5.524Z" fill="#a1f7f6"/>
            </g>
            <g id="Group_129683" data-name="Group 129683" opacity="0.455">
              <path id="Path_191389" data-name="Path 191389" d="M-4302.11,1212.683l-8.291,4.818-8.349-4.818,8.289-4.819Z" fill="#a1f7f6"/>
            </g>
            <g id="Group_129684" data-name="Group 129684" opacity="0.545">
              <path id="Path_191390" data-name="Path 191390" d="M-4303.327,1207.51l-7.077,4.113-7.128-4.113,7.075-4.115Z" fill="#a1f7f6"/>
            </g>
            <g id="Group_129685" data-name="Group 129685" opacity="0.636">
              <path id="Path_191391" data-name="Path 191391" d="M-4304.544,1202.337l-5.863,3.407-5.908-3.407,5.861-3.41Z" fill="#a1f7f6"/>
            </g>
            <g id="Group_129686" data-name="Group 129686" opacity="0.727">
              <path id="Path_191392" data-name="Path 191392" d="M-4305.761,1197.164l-4.65,2.7-4.687-2.7,4.647-2.705Z" fill="#a1f7f6"/>
            </g>
            <g id="Group_129687" data-name="Group 129687" opacity="0.818">
              <path id="Path_191393" data-name="Path 191393" d="M-4306.978,1191.992l-3.436,2-3.466-2,3.434-2Z" fill="#a1f7f6"/>
            </g>
            <g id="Group_129688" data-name="Group 129688" opacity="0.909">
              <path id="Path_191394" data-name="Path 191394" d="M-4308.195,1186.819l-2.223,1.29-2.246-1.29,2.22-1.3Z" fill="#a1f7f6"/>
            </g>
            <path id="Path_191395" data-name="Path 191395" d="M-4309.412,1181.646l-1.009.584-1.025-.584,1.006-.591Z" fill="#a1f7f6"/>
          </g>
        </g>
      </g>
      <g id="Group_129704" data-name="Group 129704">
        <path id="Path_191396" data-name="Path 191396" d="M-4356.5,1273.3l-125.989-71.975a13.26,13.26,0,0,0-12.012.053l-168.487,98.954c-3.3,1.947-3.27,5.054.075,6.961l125.979,71.97a13.236,13.236,0,0,0,12.015-.053l168.48-98.954C-4353.137,1278.31-4353.175,1275.2-4356.5,1273.3Z" opacity="0.1"/>
        <g id="Group_129692" data-name="Group 129692">
          <path id="Path_191397" data-name="Path 191397" d="M-4371.744,1257.647l.011,8.651-119.967-68.535-.015-8.644Z" fill="#778489"/>
        </g>
        <g id="Group_129693" data-name="Group 129693">
          <path id="Path_191398" data-name="Path 191398" d="M-4491.715,1189.119l.015,8.644-143.15,84.072,0-8.648Z" fill="#abbec5"/>
        </g>
        <g id="Group_129696" data-name="Group 129696" style="isolation: isolate">
          <g id="Group_129695" data-name="Group 129695" clip-path="url(#clip-path)">
            <g id="Group_129694" data-name="Group 129694" style="isolation: isolate">
              <path id="Path_191399" data-name="Path 191399" d="M-4582.2,1313.157l.023,8.637c0-1.295-.878-2.6-2.607-3.589a8.5,8.5,0,0,0-1.265-.592l-.012-8.651a8.242,8.242,0,0,1,1.266.61c1.733.983,2.591,2.286,2.595,3.585Z" fill="#738085"/>
              <path id="Path_191400" data-name="Path 191400" d="M-4586.059,1308.962l.012,8.651c-.347-.132-.7-.26-1.062-.358l-.019-8.644a8.5,8.5,0,0,1,1.069.351Z" fill="#78858a"/>
              <path id="Path_191401" data-name="Path 191401" d="M-4587.128,1308.611l.019,8.644c-.3-.082-.607-.158-.919-.226l-.016-8.632a7.62,7.62,0,0,1,.916.214Z" fill="#7c8a8f"/>
              <path id="Path_191402" data-name="Path 191402" d="M-4588.044,1308.4l.016,8.632c-.29-.056-.581-.1-.878-.143l-.015-8.647a8.672,8.672,0,0,1,.877.158Z" fill="#818f94"/>
              <path id="Path_191403" data-name="Path 191403" d="M-4588.921,1308.239l.015,8.647c-.275-.037-.561-.071-.851-.09l-.008-8.648c.283.03.569.057.844.091Z" fill="#859499"/>
              <path id="Path_191404" data-name="Path 191404" d="M-4589.765,1308.148l.008,8.648c-.279-.023-.573-.034-.863-.041l-.011-8.652c.282,0,.569.026.866.045Z" fill="#8a999e"/>
              <path id="Path_191405" data-name="Path 191405" d="M-4590.631,1308.1l.011,8.652c-.3,0-.595,0-.9.007l-.019-8.648c.305-.011.6-.011.9-.011Z" fill="#8e9da3"/>
              <path id="Path_191406" data-name="Path 191406" d="M-4591.535,1308.114l.019,8.648c-.324.008-.652.042-.976.068l-.011-8.64c.316-.034.648-.061.968-.076Z" fill="#93a2a8"/>
              <path id="Path_191407" data-name="Path 191407" d="M-4592.5,1308.19l.011,8.64c-.373.034-.738.1-1.111.151l-.019-8.633a9.466,9.466,0,0,1,1.119-.158Z" fill="#97a7ad"/>
              <path id="Path_191408" data-name="Path 191408" d="M-4593.622,1308.348l.019,8.633a14.273,14.273,0,0,0-1.642.433l-.019-8.648a12.118,12.118,0,0,1,1.642-.418Z" fill="#9bacb3"/>
              <path id="Path_191409" data-name="Path 191409" d="M-4595.264,1308.766l.019,8.648a9.675,9.675,0,0,0-1.914.843,1.013,1.013,0,0,0-.109.064l-.007-8.655c.03-.011.067-.034.1-.045a8.989,8.989,0,0,1,1.906-.855Z" fill="#a0b1b8"/>
              <path id="Path_191410" data-name="Path 191410" d="M-4597.275,1309.666l.007,8.655a6.576,6.576,0,0,0-1.1.822l-.015-8.637a6.55,6.55,0,0,1,1.1-.84Z" fill="#9bacb3"/>
              <path id="Path_191411" data-name="Path 191411" d="M-4598.379,1310.506l.015,8.637a5.772,5.772,0,0,0-.538.58l-.012-8.641a3.52,3.52,0,0,1,.535-.576Z" fill="#97a7ad"/>
              <path id="Path_191412" data-name="Path 191412" d="M-4598.914,1311.082l.012,8.641c-.136.192-.245.361-.351.527l-.015-8.64a3.444,3.444,0,0,1,.354-.528Z" fill="#93a2a8"/>
              <path id="Path_191413" data-name="Path 191413" d="M-4599.268,1311.61l.015,8.64a4.82,4.82,0,0,0-.229.5l-.015-8.644a2.945,2.945,0,0,1,.229-.5Z" fill="#8e9da3"/>
              <path id="Path_191414" data-name="Path 191414" d="M-4599.5,1312.107l.015,8.644a2.634,2.634,0,0,0-.136.489l-.019-8.64a3.255,3.255,0,0,1,.14-.493Z" fill="#8a999e"/>
              <path id="Path_191415" data-name="Path 191415" d="M-4599.637,1312.6l.019,8.64a2.382,2.382,0,0,0-.056.513l-.019-8.652a4.3,4.3,0,0,1,.056-.5Z" fill="#859499"/>
              <path id="Path_191416" data-name="Path 191416" d="M-4599.693,1313.1l.019,8.652v.075l-.019-8.652v-.075Z" fill="#818f94"/>
            </g>
          </g>
        </g>
        <g id="Group_129699" data-name="Group 129699" style="isolation: isolate">
          <g id="Group_129698" data-name="Group 129698" clip-path="url(#clip-path-2)">
            <g id="Group_129697" data-name="Group 129697" style="isolation: isolate">
              <path id="Path_191418" data-name="Path 191418" d="M-4582.2,1313.157l.023,8.637a.265.265,0,0,1-.011.091l-.012-8.652v-.076Z" fill="#376a80"/>
              <path id="Path_191419" data-name="Path 191419" d="M-4582.2,1313.233l.012,8.652a2.67,2.67,0,0,1-.049.5l-.015-8.652a2.229,2.229,0,0,0,.052-.5Z" fill="#396e85"/>
              <path id="Path_191420" data-name="Path 191420" d="M-4582.25,1313.734l.015,8.652a3.715,3.715,0,0,1-.14.485l-.019-8.644a2.968,2.968,0,0,0,.144-.493Z" fill="#3b7189"/>
              <path id="Path_191421" data-name="Path 191421" d="M-4582.394,1314.227l.019,8.644a2.942,2.942,0,0,1-.229.505l-.023-8.648a2.578,2.578,0,0,0,.233-.5Z" fill="#3d758d"/>
              <path id="Path_191422" data-name="Path 191422" d="M-4582.627,1314.728l.023,8.648a3.652,3.652,0,0,1-.347.52l-.023-8.644a2.7,2.7,0,0,0,.347-.524Z" fill="#3f7992"/>
              <path id="Path_191423" data-name="Path 191423" d="M-4582.974,1315.252l.023,8.644a4.67,4.67,0,0,1-.546.591l-.012-8.64a5.44,5.44,0,0,0,.535-.6Z" fill="#417c96"/>
              <path id="Path_191424" data-name="Path 191424" d="M-4583.509,1315.847l.012,8.64a6.754,6.754,0,0,1-1.108.818l-.007-8.641a8.2,8.2,0,0,0,1.1-.817Z" fill="#43809b"/>
              <path id="Path_191425" data-name="Path 191425" d="M-4584.612,1316.664l.007,8.641a.33.33,0,0,1-.1.067,10.223,10.223,0,0,1-1.909.852l-.011-8.645a11.467,11.467,0,0,0,1.913-.847,1.03,1.03,0,0,1,.1-.068Z" fill="#44849f"/>
              <path id="Path_191426" data-name="Path 191426" d="M-4586.627,1317.579l.011,8.645a11.624,11.624,0,0,1-1.657.414l-.008-8.648a12.127,12.127,0,0,0,1.654-.411Z" fill="#43809b"/>
              <path id="Path_191427" data-name="Path 191427" d="M-4588.281,1317.99l.008,8.648a8.467,8.467,0,0,1-1.115.162l-.012-8.644c.373-.042.75-.1,1.119-.166Z" fill="#417c96"/>
              <path id="Path_191428" data-name="Path 191428" d="M-4589.4,1318.156l.012,8.644c-.324.03-.641.064-.968.071l-.015-8.64c.327-.023.655-.034.971-.075Z" fill="#3f7992"/>
              <path id="Path_191429" data-name="Path 191429" d="M-4590.371,1318.231l.015,8.64c-.3.019-.6.019-.9.012l-.019-8.652c.3.008.6.008.9,0Z" fill="#3d758d"/>
              <path id="Path_191430" data-name="Path 191430" d="M-4591.271,1318.231l.019,8.652c-.283-.008-.569-.027-.856-.049l-.015-8.644c.275.018.569.041.852.041Z" fill="#3b7189"/>
              <path id="Path_191431" data-name="Path 191431" d="M-4592.123,1318.19l.015,8.644c-.282-.019-.576-.053-.855-.087l-.011-8.64c.279.034.561.064.851.083Z" fill="#396e85"/>
              <path id="Path_191432" data-name="Path 191432" d="M-4592.974,1318.107l.011,8.64c-.29-.041-.58-.1-.87-.147l-.011-8.636c.29.041.572.094.87.143Z" fill="#376a80"/>
              <path id="Path_191433" data-name="Path 191433" d="M-4593.844,1317.964l.011,8.636c-.3-.068-.614-.135-.907-.218l-.019-8.644c.3.082.6.158.915.226Z" fill="#35667c"/>
              <path id="Path_191434" data-name="Path 191434" d="M-4594.759,1317.738l.019,8.644c-.366-.1-.723-.219-1.066-.351l-.023-8.651c.343.135.708.252,1.07.358Z" fill="#336377"/>
              <path id="Path_191435" data-name="Path 191435" d="M-4595.829,1317.38l.023,8.651a10.512,10.512,0,0,1-1.266-.6c-1.725-.991-2.606-2.3-2.6-3.6l-.019-8.652c.007,1.311.874,2.611,2.61,3.612a11.635,11.635,0,0,0,1.254.592Z" fill="#315f73"/>
            </g>
          </g>
        </g>
        <g id="Group_129700" data-name="Group 129700">
          <path id="Path_191437" data-name="Path 191437" d="M-4514.9,1341.712l.019,8.651-119.967-68.528,0-8.648Z" fill="#336277"/>
        </g>
        <g id="Group_129701" data-name="Group 129701">
          <path id="Path_191438" data-name="Path 191438" d="M-4584.8,1309.572c3.439,1.962,3.473,5.164.083,7.16a13.633,13.633,0,0,1-12.369.056c-3.435-1.962-3.492-5.186-.087-7.167A13.632,13.632,0,0,1-4584.8,1309.572Z" fill="#c0c0f6"/>
        </g>
        <g id="Group_129702" data-name="Group 129702">
          <path id="Path_191439" data-name="Path 191439" d="M-4371.744,1257.647l.011,8.651-143.15,84.065-.019-8.651Z" fill="#498dab"/>
        </g>
        <g id="Group_129703" data-name="Group 129703">
          <path id="Path_191440" data-name="Path 191440" d="M-4371.744,1257.647l-143.158,84.065-119.952-68.524,143.139-84.069Z" fill="#004996" opacity="0.35"/>
        </g>
        <path id="Path_191441" data-name="Path 191441" d="M-4355.156,1258.038c-.015.027-.015.061-.026.076a2.884,2.884,0,0,1-.407.8c-.026.049-.057.083-.079.132a4.634,4.634,0,0,1-.678.749c-.181.162-.411.321-.626.479-.165.109-.312.233-.489.35l-168.507,98.954.023,8.64,168.491-98.953c.03-.019.068-.042.1-.061h0a3.7,3.7,0,0,0,.4-.29,5.717,5.717,0,0,0,.626-.467c.015-.019.041-.034.052-.049a4.473,4.473,0,0,0,.524-.561.581.581,0,0,0,.083-.139.521.521,0,0,0,.1-.136c.049-.083.114-.166.159-.241a3.942,3.942,0,0,0,.218-.475.317.317,0,0,1,.019-.075.327.327,0,0,0,.026-.094,1.659,1.659,0,0,0,.087-.309,3.364,3.364,0,0,0,.056-.5l-.011-8.637v-.075A3.123,3.123,0,0,1-4355.156,1258.038Z" fill="#c0c0f6"/>
        <path id="Path_191442" data-name="Path 191442" d="M-4357.537,1253.665c3.338,1.906,3.368,5.017.076,6.961l-168.507,98.954a13.258,13.258,0,0,1-12.011.052l-125.975-71.974c-3.344-1.9-3.378-5.013-.075-6.949l168.491-98.954a13.231,13.231,0,0,1,12.008-.056Zm-157.364,88.047,143.157-84.065-119.971-68.528-143.139,84.068,119.953,68.525Zm-82.182-24.924a13.633,13.633,0,0,0,12.369-.056c3.39-2,3.356-5.2-.079-7.16a13.64,13.64,0,0,0-12.377.049c-3.405,1.981-3.348,5.205.087,7.167Z" fill="#e9f0f4"/>
        <path id="Path_191443" data-name="Path 191443" d="M-4525.968,1359.58a8.852,8.852,0,0,1-1.664.734c-.211.076-.43.136-.637.208-.282.075-.565.15-.847.2-.343.083-.69.139-1.033.192-.094.015-.173.023-.252.03a13.749,13.749,0,0,1-1.416.087h-.248a10.337,10.337,0,0,1-1.406-.076,1.781,1.781,0,0,1-.207-.011c-.452-.056-.908-.132-1.352-.226-.09-.022-.188-.041-.279-.071a11.4,11.4,0,0,1-1.129-.336c-.079-.026-.166-.056-.245-.075a11.107,11.107,0,0,1-1.3-.607l-125.975-71.974c-1.684-.949-2.531-2.218-2.531-3.484.008,2.87.015,5.771.019,8.648,0,1.262.836,2.535,2.523,3.488l125.987,71.963a9.341,9.341,0,0,0,1.231.591.174.174,0,0,0,.057.015c.079.027.151.046.23.076.245.083.482.177.738.245.139.041.279.067.422.1a1.336,1.336,0,0,0,.252.06,2.161,2.161,0,0,0,.218.056c.275.061.558.1.84.143.1.016.207.023.3.034a1.748,1.748,0,0,1,.211.023c.1.011.211.026.309.034.283.019.558.041.84.049a2.187,2.187,0,0,0,.268-.015c.068.007.147,0,.214,0,.125,0,.257.007.385,0,.316-.023.632-.034.941-.068a.786.786,0,0,0,.117-.015c.079-.019.15-.019.233-.034.241-.026.486-.068.731-.1.109-.022.2-.056.305-.083.286-.064.565-.139.848-.214.15-.042.309-.061.452-.11a2.163,2.163,0,0,0,.2-.1,8.871,8.871,0,0,0,1.668-.738Z" fill="#c0c0f6"/>
      </g>
      <g id="Group_129790" data-name="Group 129790">
        <g id="Group_129705" data-name="Group 129705">
          <path id="Path_191444" data-name="Path 191444" d="M-4496.559,1172.629c2.468-1.428,3.451.55,3.454,3.446.008,3.277-1.137,6.188-3.491,7.548-2.384,1.375-3.451-.474-3.462-3.468C-4500.073,1177.092-4498.95,1174-4496.559,1172.629Zm.008,9.092c.847-.489,1.292-1.943,1.281-4.376,0-2.332-.441-3.33-1.308-2.829-.8.459-1.336,1.932-1.306,4.384-.019,2.445.5,3.3,1.333,2.821Z" fill="#004996"/>
        </g>
        <g id="Group_129706" data-name="Group 129706">
          <path id="Path_191445" data-name="Path 191445" d="M-4487.218,1167.416l.03,10.6-2.076,1.209-.026-8.4-.03.026-1.755,1.962-.369-1.646,2.445-2.716Z" fill="#004996"/>
        </g>
        <g id="Group_129707" data-name="Group 129707">
          <path id="Path_191446" data-name="Path 191446" d="M-4480.792,1163.529c2.463-1.435,3.45.542,3.454,3.439.011,3.284-1.138,6.2-3.488,7.548-2.388,1.382-3.45-.475-3.469-3.465C-4484.306,1167.992-4483.18,1164.9-4480.792,1163.529Zm.011,9.085c.836-.478,1.288-1.944,1.277-4.365,0-2.343-.441-3.338-1.31-2.837-.795.46-1.334,1.944-1.308,4.388-.011,2.445.5,3.3,1.341,2.814Z" fill="#004996"/>
        </g>
        <g id="Group_129708" data-name="Group 129708">
          <path id="Path_191447" data-name="Path 191447" d="M-4472.908,1158.975c2.466-1.435,3.446.55,3.453,3.447.012,3.276-1.134,6.188-3.491,7.54-2.388,1.383-3.443-.471-3.469-3.465C-4476.426,1163.439-4475.3,1160.35-4472.908,1158.975Zm.011,9.085c.843-.486,1.288-1.936,1.28-4.365,0-2.336-.448-3.337-1.31-2.837-.8.46-1.338,1.944-1.311,4.388-.012,2.445.5,3.3,1.341,2.814Z" fill="#004996"/>
        </g>
        <g id="Group_129709" data-name="Group 129709">
          <path id="Path_191448" data-name="Path 191448" d="M-4465.029,1154.422c2.471-1.428,3.45.55,3.458,3.45.007,3.28-1.138,6.184-3.492,7.544-2.384,1.375-3.45-.478-3.469-3.473C-4468.536,1158.885-4467.41,1155.8-4465.029,1154.422Zm.015,9.092c.84-.486,1.288-1.947,1.277-4.373-.008-2.335-.444-3.33-1.307-2.829-.8.46-1.334,1.929-1.311,4.381-.011,2.444.5,3.3,1.341,2.821Z" fill="#004996"/>
        </g>
        <g id="Group_129710" data-name="Group 129710">
          <path id="Path_191449" data-name="Path 191449" d="M-4455.681,1149.212l.026,10.6-2.075,1.2-.034-8.4-.022.022-1.755,1.97-.369-1.65,2.448-2.712Z" fill="#004996"/>
        </g>
        <g id="Group_129711" data-name="Group 129711">
          <path id="Path_191450" data-name="Path 191450" d="M-4447.8,1144.662l.03,10.6-2.075,1.194-.03-8.391-.026.019-1.755,1.966-.369-1.653,2.449-2.708Z" fill="#004996"/>
        </g>
        <g id="Group_129712" data-name="Group 129712">
          <path id="Path_191451" data-name="Path 191451" d="M-4441.379,1140.764c2.475-1.424,3.45.558,3.457,3.454.008,3.284-1.129,6.181-3.487,7.541-2.388,1.378-3.447-.475-3.473-3.47C-4444.886,1145.235-4443.763,1142.143-4441.379,1140.764Zm.011,9.093c.836-.483,1.288-1.944,1.281-4.37,0-2.335-.445-3.329-1.307-2.836-.795.46-1.337,1.936-1.311,4.388-.015,2.445.5,3.3,1.337,2.818Z" fill="#004996"/>
        </g>
        <g id="Group_129713" data-name="Group 129713">
          <path id="Path_191452" data-name="Path 191452" d="M-4567.456,1233.179c2.471-1.431,3.443.543,3.454,3.447.011,3.281-1.133,6.188-3.488,7.548-2.387,1.371-3.446-.482-3.472-3.469C-4570.966,1237.65-4569.844,1234.558-4567.456,1233.179Zm.019,9.085c.836-.482,1.281-1.936,1.277-4.369-.011-2.335-.452-3.329-1.315-2.836-.8.467-1.337,1.943-1.314,4.388-.008,2.452.5,3.3,1.352,2.817Z" fill="#004996"/>
        </g>
        <g id="Group_129714" data-name="Group 129714">
          <path id="Path_191453" data-name="Path 191453" d="M-4520.16,1205.872c2.471-1.427,3.45.543,3.458,3.443.011,3.28-1.13,6.188-3.488,7.548-2.388,1.379-3.446-.475-3.469-3.469C-4523.666,1210.336-4522.544,1207.247-4520.16,1205.872Zm.019,9.089c.84-.49,1.281-1.944,1.281-4.369-.008-2.343-.452-3.33-1.315-2.837-.794.46-1.333,1.937-1.311,4.381-.015,2.452.5,3.311,1.345,2.825Z" fill="#004996"/>
        </g>
        <g id="Group_129715" data-name="Group 129715">
          <path id="Path_191454" data-name="Path 191454" d="M-4510.815,1200.659l.034,10.607-2.079,1.194-.023-8.4-.034.019-1.755,1.966-.369-1.65,2.444-2.712Z" fill="#004996"/>
        </g>
        <g id="Group_129716" data-name="Group 129716">
          <path id="Path_191455" data-name="Path 191455" d="M-4502.92,1196.1l.034,10.6-2.094,1.209-.022-8.4-.03.023-1.751,1.97-.373-1.657,2.444-2.712Z" fill="#004996"/>
        </g>
        <g id="Group_129717" data-name="Group 129717">
          <path id="Path_191456" data-name="Path 191456" d="M-4495.037,1191.548l.033,10.6-2.09,1.2-.023-8.4-.034.022-1.759,1.97-.365-1.646,2.448-2.716Z" fill="#004996"/>
        </g>
        <g id="Group_129718" data-name="Group 129718">
          <path id="Path_191457" data-name="Path 191457" d="M-4488.623,1187.669c2.471-1.428,3.451.542,3.454,3.438.016,3.285-1.13,6.189-3.487,7.548-2.381,1.375-3.447-.474-3.47-3.469C-4492.133,1192.132-4491.007,1189.04-4488.623,1187.669Zm.019,9.085c.84-.486,1.285-1.944,1.277-4.373-.011-2.328-.444-3.334-1.311-2.833-.794.463-1.34,1.94-1.31,4.388-.015,2.448.5,3.3,1.344,2.818Z" fill="#004996"/>
        </g>
        <g id="Group_129719" data-name="Group 129719">
          <path id="Path_191458" data-name="Path 191458" d="M-4480.735,1183.107c2.47-1.42,3.446.55,3.454,3.454.007,3.285-1.134,6.181-3.5,7.541-2.377,1.382-3.446-.475-3.458-3.466C-4484.242,1187.571-4483.124,1184.49-4480.735,1183.107Zm.011,9.093c.832-.479,1.284-1.944,1.276-4.366-.007-2.335-.444-3.333-1.3-2.836-.8.46-1.345,1.936-1.311,4.388-.019,2.445.5,3.3,1.337,2.814Z" fill="#004996"/>
        </g>
        <g id="Group_129720" data-name="Group 129720">
          <path id="Path_191459" data-name="Path 191459" d="M-4472.856,1178.561c2.467-1.427,3.45.543,3.458,3.446.011,3.277-1.138,6.189-3.488,7.541-2.388,1.382-3.45-.471-3.465-3.461C-4476.362,1183.017-4475.24,1179.936-4472.856,1178.561Zm.015,9.085c.844-.486,1.288-1.944,1.277-4.365-.008-2.336-.444-3.334-1.307-2.836-.795.459-1.337,1.935-1.315,4.388-.018,2.451.5,3.3,1.345,2.813Z" fill="#004996"/>
        </g>
        <g id="Group_129721" data-name="Group 129721">
          <path id="Path_191460" data-name="Path 191460" d="M-4463.511,1173.348l.026,10.6-2.076,1.2-.022-8.392-.03.011-1.759,1.974-.369-1.657,2.449-2.7Z" fill="#004996"/>
        </g>
        <g id="Group_129722" data-name="Group 129722">
          <path id="Path_191461" data-name="Path 191461" d="M-4457.086,1169.457c2.467-1.431,3.45.547,3.45,3.447.016,3.281-1.133,6.188-3.483,7.548-2.388,1.378-3.45-.475-3.469-3.469C-4460.6,1173.924-4459.477,1170.836-4457.086,1169.457Zm.012,9.093c.836-.482,1.284-1.944,1.284-4.377-.015-2.335-.448-3.329-1.318-2.828-.795.459-1.337,1.935-1.311,4.38-.011,2.452.5,3.311,1.345,2.825Z" fill="#004996"/>
        </g>
        <g id="Group_129723" data-name="Group 129723">
          <path id="Path_191462" data-name="Path 191462" d="M-4449.2,1164.9c2.471-1.424,3.442.55,3.454,3.446.011,3.288-1.134,6.188-3.492,7.548-2.384,1.379-3.446-.474-3.461-3.461C-4452.713,1169.374-4451.594,1166.282-4449.2,1164.9Zm.011,9.092c.833-.482,1.288-1.943,1.281-4.369,0-2.335-.448-3.33-1.322-2.829-.784.452-1.326,1.929-1.3,4.381-.019,2.444.493,3.3,1.337,2.817Z" fill="#004996"/>
        </g>
        <g id="Group_129724" data-name="Group 129724">
          <path id="Path_191463" data-name="Path 191463" d="M-4441.319,1160.358c2.464-1.432,3.443.542,3.458,3.446,0,3.281-1.138,6.188-3.5,7.541-2.384,1.378-3.446-.475-3.465-3.469C-4444.833,1164.821-4443.707,1161.729-4441.319,1160.358Zm.007,9.084c.833-.482,1.293-1.943,1.285-4.369,0-2.335-.452-3.329-1.315-2.836-.794.46-1.34,1.936-1.306,4.388-.015,2.444.5,3.3,1.336,2.817Z" fill="#004996"/>
        </g>
        <g id="Group_129725" data-name="Group 129725">
          <path id="Path_191464" data-name="Path 191464" d="M-4567.4,1252.765c2.467-1.431,3.446.535,3.457,3.447.008,3.28-1.141,6.188-3.491,7.548-2.388,1.378-3.454-.475-3.465-3.469C-4570.91,1257.236-4569.791,1254.144-4567.4,1252.765Zm.011,9.085c.844-.489,1.285-1.936,1.277-4.362,0-2.342-.441-3.337-1.307-2.836-.8.46-1.337,1.936-1.311,4.381-.015,2.452.5,3.31,1.341,2.817Z" fill="#004996"/>
        </g>
        <g id="Group_129726" data-name="Group 129726">
          <path id="Path_191465" data-name="Path 191465" d="M-4559.516,1248.219c2.467-1.431,3.446.527,3.458,3.447.007,3.276-1.138,6.18-3.492,7.54-2.388,1.379-3.45-.475-3.473-3.469C-4563.023,1252.683-4561.911,1249.59-4559.516,1248.219Zm.011,9.085c.844-.49,1.285-1.944,1.277-4.369,0-2.343-.44-3.338-1.307-2.837-.8.46-1.337,1.937-1.31,4.381-.012,2.452.5,3.3,1.34,2.825Z" fill="#004996"/>
        </g>
        <g id="Group_129727" data-name="Group 129727">
          <path id="Path_191466" data-name="Path 191466" d="M-4551.633,1243.666c2.468-1.428,3.447.527,3.454,3.446.012,3.277-1.137,6.181-3.488,7.54-2.387,1.383-3.446-.474-3.472-3.469C-4555.147,1248.129-4554.024,1245.036-4551.633,1243.666Zm.015,9.084c.84-.482,1.285-1.943,1.277-4.369-.011-2.339-.448-3.337-1.311-2.836-.794.463-1.336,1.94-1.31,4.388-.015,2.452.5,3.3,1.344,2.817Z" fill="#004996"/>
        </g>
        <g id="Group_129728" data-name="Group 129728">
          <path id="Path_191467" data-name="Path 191467" d="M-4542.28,1238.445l.03,10.6-2.09,1.2-.027-8.4-.026.022-1.759,1.97-.365-1.653,2.448-2.708Z" fill="#004996"/>
        </g>
        <g id="Group_129729" data-name="Group 129729">
          <path id="Path_191468" data-name="Path 191468" d="M-4535.87,1234.558c2.479-1.428,3.451.535,3.458,3.446.015,3.285-1.134,6.189-3.488,7.548-2.388,1.383-3.45-.474-3.469-3.469C-4539.376,1239.029-4538.25,1235.94-4535.87,1234.558Zm.015,9.085c.84-.486,1.288-1.944,1.281-4.358-.008-2.335-.448-3.341-1.311-2.844-.8.467-1.337,1.944-1.311,4.4-.015,2.444.5,3.3,1.341,2.806Z" fill="#004996"/>
        </g>
        <g id="Group_129730" data-name="Group 129730">
          <path id="Path_191469" data-name="Path 191469" d="M-4520.1,1225.458c2.474-1.428,3.454.539,3.458,3.45.011,3.273-1.138,6.181-3.488,7.541-2.388,1.378-3.45-.475-3.469-3.469C-4523.61,1229.918-4522.487,1226.833-4520.1,1225.458Zm.011,9.089c.844-.49,1.3-1.944,1.281-4.369-.008-2.343-.441-3.337-1.307-2.837-.8.46-1.337,1.944-1.307,4.388-.019,2.445.5,3.3,1.333,2.818Z" fill="#004996"/>
        </g>
        <g id="Group_129731" data-name="Group 129731">
          <path id="Path_191470" data-name="Path 191470" d="M-4512.216,1220.9c2.467-1.427,3.446.531,3.458,3.45.007,3.274-1.138,6.189-3.5,7.549-2.384,1.37-3.446-.482-3.461-3.477C-4515.726,1225.371-4514.6,1222.279-4512.216,1220.9Zm.011,9.089c.844-.49,1.289-1.944,1.277-4.369,0-2.343-.444-3.33-1.307-2.836-.8.459-1.337,1.935-1.307,4.388-.015,2.444.5,3.3,1.337,2.817Z" fill="#004996"/>
        </g>
        <g id="Group_129732" data-name="Group 129732">
          <path id="Path_191471" data-name="Path 191471" d="M-4504.337,1216.354c2.471-1.431,3.451.535,3.462,3.447.007,3.28-1.137,6.188-3.488,7.548-2.4,1.371-3.454-.475-3.473-3.469C-4507.847,1220.825-4506.721,1217.725-4504.337,1216.354Zm.015,9.085c.844-.482,1.289-1.943,1.281-4.361-.007-2.343-.448-3.337-1.311-2.844-.794.467-1.337,1.936-1.307,4.388-.018,2.452.5,3.3,1.337,2.817Z" fill="#004996"/>
        </g>
        <g id="Group_129733" data-name="Group 129733">
          <path id="Path_191472" data-name="Path 191472" d="M-4496.45,1211.8c2.468-1.423,3.451.535,3.455,3.447.011,3.285-1.134,6.188-3.488,7.548-2.388,1.375-3.45-.474-3.466-3.469C-4499.96,1216.271-4498.837,1213.179-4496.45,1211.8Zm.016,9.093c.843-.49,1.284-1.943,1.273-4.369,0-2.339-.441-3.337-1.307-2.836-.8.459-1.333,1.932-1.311,4.38-.011,2.452.5,3.3,1.345,2.825Z" fill="#004996"/>
        </g>
        <g id="Group_129734" data-name="Group 129734">
          <path id="Path_191473" data-name="Path 191473" d="M-4487.108,1206.6l.034,10.588-2.079,1.209-.026-8.4-.03.023-1.755,1.97-.365-1.653,2.444-2.716Z" fill="#004996"/>
        </g>
        <g id="Group_129735" data-name="Group 129735">
          <path id="Path_191474" data-name="Path 191474" d="M-4479.222,1202.034l.031,10.6-2.08,1.2-.026-8.4-.027.023-1.755,1.962-.373-1.646,2.445-2.712Z" fill="#004996"/>
        </g>
        <g id="Group_129736" data-name="Group 129736">
          <path id="Path_191475" data-name="Path 191475" d="M-4471.342,1197.481l.034,10.6-2.079,1.205-.026-8.4-.026.019-1.763,1.97-.365-1.653,2.448-2.712Z" fill="#004996"/>
        </g>
        <g id="Group_129737" data-name="Group 129737">
          <path id="Path_191476" data-name="Path 191476" d="M-4464.92,1193.593c2.475-1.427,3.45.539,3.458,3.451.007,3.28-1.127,6.184-3.5,7.544-2.374,1.382-3.439-.479-3.462-3.465C-4468.426,1198.064-4467.3,1194.975-4464.92,1193.593Zm.019,9.093c.844-.494,1.281-1.944,1.281-4.366-.008-2.335-.448-3.337-1.315-2.836-.8.46-1.333,1.936-1.311,4.381-.011,2.452.5,3.31,1.345,2.821Z" fill="#004996"/>
        </g>
        <g id="Group_129738" data-name="Group 129738">
          <path id="Path_191477" data-name="Path 191477" d="M-4457.033,1189.04c2.471-1.428,3.446.546,3.458,3.45.007,3.28-1.138,6.192-3.488,7.548-2.392,1.379-3.454-.467-3.469-3.469C-4460.543,1193.511-4459.417,1190.422-4457.033,1189.04Zm.015,9.1c.833-.482,1.285-1.944,1.281-4.369-.011-2.343-.448-3.338-1.311-2.837-.8.46-1.337,1.937-1.315,4.381-.011,2.452.5,3.311,1.345,2.825Z" fill="#004996"/>
        </g>
        <g id="Group_129739" data-name="Group 129739">
          <path id="Path_191478" data-name="Path 191478" d="M-4449.146,1184.494c2.46-1.428,3.45.538,3.454,3.45,0,3.273-1.133,6.18-3.491,7.54-2.384,1.379-3.447-.475-3.466-3.469C-4452.66,1188.961-4451.537,1185.868-4449.146,1184.494Zm.012,9.088c.828-.482,1.288-1.944,1.28-4.361-.007-2.351-.452-3.345-1.322-2.837-.787.452-1.329,1.936-1.3,4.381-.015,2.444.5,3.3,1.341,2.817Z" fill="#004996"/>
        </g>
        <g id="Group_129740" data-name="Group 129740">
          <path id="Path_191479" data-name="Path 191479" d="M-4441.27,1179.944c2.471-1.432,3.446.535,3.458,3.446.015,3.28-1.13,6.188-3.488,7.548-2.388,1.371-3.45-.475-3.465-3.469C-4444.78,1184.407-4443.654,1181.314-4441.27,1179.944Zm.015,9.084c.833-.482,1.292-1.936,1.281-4.369,0-2.335-.448-3.329-1.307-2.836-.8.459-1.337,1.936-1.318,4.388-.012,2.445.5,3.3,1.344,2.817Z" fill="#004996"/>
        </g>
        <g id="Group_129741" data-name="Group 129741">
          <path id="Path_191480" data-name="Path 191480" d="M-4567.35,1272.355c2.474-1.435,3.45.542,3.457,3.45.012,3.273-1.13,6.189-3.487,7.552-2.388,1.375-3.443-.486-3.473-3.48C-4570.857,1276.815-4569.731,1273.722-4567.35,1272.355Zm.022,9.081c.837-.482,1.285-1.936,1.277-4.361-.011-2.343-.452-3.338-1.311-2.844-.8.467-1.341,1.943-1.314,4.388-.011,2.452.5,3.3,1.348,2.817Z" fill="#004996"/>
        </g>
        <g id="Group_129742" data-name="Group 129742">
          <path id="Path_191481" data-name="Path 191481" d="M-4559.467,1267.8c2.479-1.423,3.45.55,3.461,3.454,0,3.277-1.133,6.2-3.491,7.556-2.38,1.371-3.45-.49-3.465-3.484C-4562.97,1272.261-4561.847,1269.176-4559.467,1267.8Zm.022,9.093c.837-.49,1.281-1.944,1.274-4.369,0-2.343-.445-3.337-1.307-2.836-.8.459-1.345,1.935-1.311,4.38-.019,2.452.5,3.311,1.344,2.825Z" fill="#004996"/>
        </g>
        <g id="Group_129743" data-name="Group 129743">
          <path id="Path_191482" data-name="Path 191482" d="M-4550.107,1262.584l.03,10.6-2.086,1.209-.026-8.4-.034.023-1.755,1.962-.361-1.646,2.445-2.716Z" fill="#004996"/>
        </g>
        <g id="Group_129744" data-name="Group 129744">
          <path id="Path_191483" data-name="Path 191483" d="M-4543.7,1258.69c2.475-1.42,3.451.557,3.462,3.454,0,3.284-1.141,6.2-3.492,7.556-2.388,1.378-3.45-.482-3.469-3.477C-4547.2,1263.161-4546.085,1260.076-4543.7,1258.69Zm.019,9.092c.844-.478,1.281-1.943,1.273-4.365,0-2.335-.444-3.333-1.31-2.836-.8.459-1.337,1.943-1.3,4.392-.023,2.448.5,3.3,1.34,2.809Z" fill="#004996"/>
        </g>
        <g id="Group_129745" data-name="Group 129745">
          <path id="Path_191484" data-name="Path 191484" d="M-4535.809,1254.144c2.467-1.428,3.442.55,3.45,3.454.011,3.277-1.134,6.188-3.484,7.556-2.392,1.37-3.451-.49-3.469-3.485C-4539.324,1258.607-4538.2,1255.526-4535.809,1254.144Zm.011,9.092c.843-.486,1.284-1.943,1.28-4.373-.007-2.335-.448-3.333-1.31-2.828-.8.459-1.341,1.928-1.311,4.388-.015,2.444.5,3.3,1.341,2.813Z" fill="#004996"/>
        </g>
        <g id="Group_129746" data-name="Group 129746">
          <path id="Path_191485" data-name="Path 191485" d="M-4527.93,1249.59c2.471-1.427,3.45.55,3.458,3.454,0,3.277-1.138,6.2-3.492,7.556-2.384,1.378-3.446-.486-3.461-3.481C-4531.436,1254.053-4530.318,1250.972-4527.93,1249.59Zm.015,9.092c.844-.486,1.284-1.943,1.284-4.365-.011-2.343-.451-3.337-1.314-2.836-.8.46-1.341,1.936-1.315,4.388-.011,2.444.5,3.3,1.345,2.813Z" fill="#004996"/>
        </g>
        <g id="Group_129747" data-name="Group 129747">
          <path id="Path_191486" data-name="Path 191486" d="M-4518.578,1244.377l.03,10.606-2.087,1.2-.022-8.4-.034.012-1.751,1.981-.369-1.657,2.448-2.712Z" fill="#004996"/>
        </g>
        <g id="Group_129748" data-name="Group 129748">
          <path id="Path_191487" data-name="Path 191487" d="M-4512.163,1240.49c2.474-1.427,3.446.542,3.461,3.451,0,3.28-1.141,6.191-3.495,7.551-2.384,1.383-3.446-.486-3.462-3.472C-4515.67,1244.957-4514.547,1241.872-4512.163,1240.49Zm.015,9.089c.847-.482,1.292-1.944,1.281-4.369-.008-2.336-.449-3.33-1.308-2.837-.8.46-1.344,1.944-1.318,4.388-.011,2.452.505,3.3,1.345,2.818Z" fill="#004996"/>
        </g>
        <g id="Group_129749" data-name="Group 129749">
          <path id="Path_191488" data-name="Path 191488" d="M-4504.284,1235.94c2.475-1.431,3.454.543,3.458,3.454.011,3.273-1.13,6.188-3.488,7.552-2.384,1.375-3.442-.493-3.465-3.48C-4507.787,1240.4-4506.664,1237.319-4504.284,1235.94Zm.019,9.085c.844-.49,1.288-1.936,1.285-4.362-.015-2.335-.452-3.337-1.311-2.843-.806.467-1.345,1.943-1.319,4.388-.007,2.452.5,3.3,1.345,2.817Z" fill="#004996"/>
        </g>
        <g id="Group_129750" data-name="Group 129750">
          <path id="Path_191489" data-name="Path 191489" d="M-4496.4,1231.387c2.471-1.428,3.45.549,3.458,3.454.008,3.276-1.134,6.191-3.492,7.555-2.38,1.371-3.446-.49-3.465-3.484C-4499.9,1235.857-4498.781,1232.765-4496.4,1231.387Zm.015,9.084c.844-.482,1.289-1.936,1.281-4.361-.007-2.343-.444-3.338-1.311-2.844-.8.467-1.34,1.944-1.307,4.388-.018,2.452.5,3.3,1.337,2.817Z" fill="#004996"/>
        </g>
        <g id="Group_129751" data-name="Group 129751">
          <path id="Path_191490" data-name="Path 191490" d="M-4487.052,1226.181l.034,10.595-2.083,1.2-.022-8.4-.03.015-1.755,1.97-.373-1.646,2.452-2.716Z" fill="#004996"/>
        </g>
        <g id="Group_129752" data-name="Group 129752">
          <path id="Path_191491" data-name="Path 191491" d="M-4480.626,1222.287c2.471-1.428,3.45.542,3.458,3.446.007,3.284-1.138,6.2-3.5,7.556-2.38,1.371-3.446-.483-3.458-3.477C-4484.137,1226.743-4483.014,1223.661-4480.626,1222.287Zm.011,9.085c.84-.479,1.288-1.944,1.277-4.366,0-2.335-.437-3.333-1.3-2.836-.8.459-1.341,1.944-1.315,4.388-.011,2.445.5,3.3,1.341,2.814Z" fill="#004996"/>
        </g>
        <g id="Group_129753" data-name="Group 129753">
          <path id="Path_191492" data-name="Path 191492" d="M-4472.739,1217.733c2.467-1.428,3.443.542,3.454,3.446.011,3.285-1.134,6.2-3.492,7.556-2.392,1.382-3.45-.482-3.465-3.477C-4476.25,1222.2-4475.135,1219.108-4472.739,1217.733Zm.008,9.085c.847-.486,1.287-1.944,1.28-4.365,0-2.336-.448-3.334-1.307-2.837-.8.46-1.337,1.936-1.311,4.388-.019,2.452.5,3.3,1.338,2.814Z" fill="#004996"/>
        </g>
        <g id="Group_129754" data-name="Group 129754">
          <path id="Path_191493" data-name="Path 191493" d="M-4464.86,1213.179c2.467-1.427,3.447.55,3.462,3.45,0,3.281-1.149,6.193-3.5,7.552-2.385,1.383-3.45-.478-3.466-3.473C-4468.37,1217.65-4467.248,1214.562-4464.86,1213.179Zm.016,9.093c.843-.486,1.284-1.948,1.28-4.373-.007-2.328-.448-3.33-1.318-2.837-.795.46-1.337,1.944-1.3,4.388-.016,2.453.5,3.3,1.341,2.822Z" fill="#004996"/>
        </g>
        <g id="Group_129755" data-name="Group 129755">
          <path id="Path_191494" data-name="Path 191494" d="M-4455.519,1207.974l.034,10.6-2.079,1.2-.026-8.4-.026.011-1.759,1.974-.372-1.65,2.448-2.719Z" fill="#004996"/>
        </g>
        <g id="Group_129756" data-name="Group 129756">
          <path id="Path_191495" data-name="Path 191495" d="M-4449.093,1204.079c2.471-1.427,3.446.546,3.454,3.45.007,3.281-1.134,6.193-3.492,7.552-2.384,1.383-3.446-.478-3.465-3.473C-4452.6,1208.546-4451.481,1205.454-4449.093,1204.079Zm.015,9.089c.829-.475,1.288-1.944,1.277-4.369,0-2.343-.448-3.33-1.318-2.829-.791.452-1.33,1.928-1.3,4.381-.015,2.444.5,3.3,1.341,2.817Z" fill="#004996"/>
        </g>
        <g id="Group_129757" data-name="Group 129757">
          <path id="Path_191496" data-name="Path 191496" d="M-4441.217,1199.529c2.478-1.431,3.454.543,3.465,3.447,0,3.28-1.134,6.2-3.492,7.555-2.387,1.379-3.45-.489-3.469-3.476C-4444.72,1203.993-4443.594,1200.9-4441.217,1199.529Zm.022,9.085c.833-.474,1.281-1.943,1.281-4.369-.011-2.335-.448-3.329-1.307-2.836-.806.467-1.345,1.943-1.318,4.388-.008,2.452.5,3.311,1.344,2.817Z" fill="#004996"/>
        </g>
        <g id="Group_129758" data-name="Group 129758">
          <path id="Path_191497" data-name="Path 191497" d="M-4567.29,1291.937c2.471-1.431,3.446.546,3.454,3.454.011,3.273-1.134,6.181-3.488,7.541-2.388,1.378-3.45-.475-3.469-3.469C-4570.8,1296.408-4569.678,1293.308-4567.29,1291.937Zm.015,9.092c.84-.489,1.281-1.943,1.277-4.369-.007-2.342-.444-3.337-1.311-2.836-.8.46-1.337,1.936-1.307,4.381-.015,2.451.5,3.31,1.341,2.824Z" fill="#004996"/>
        </g>
        <g id="Group_129759" data-name="Group 129759">
          <path id="Path_191498" data-name="Path 191498" d="M-4557.934,1286.724l.026,10.6-2.086,1.209-.026-8.4-.026.023-1.755,1.962-.361-1.653,2.437-2.708Z" fill="#004996"/>
        </g>
        <g id="Group_129760" data-name="Group 129760">
          <path id="Path_191499" data-name="Path 191499" d="M-4551.527,1282.837c2.475-1.427,3.45.542,3.458,3.447.015,3.276-1.134,6.18-3.485,7.548-2.391,1.371-3.45-.475-3.476-3.477C-4555.034,1287.3-4553.911,1284.208-4551.527,1282.837Zm.015,9.085c.844-.482,1.292-1.943,1.281-4.369-.008-2.335-.449-3.337-1.311-2.836-.8.467-1.337,1.939-1.311,4.388-.007,2.452.5,3.3,1.341,2.817Z" fill="#004996"/>
        </g>
        <g id="Group_129761" data-name="Group 129761">
          <path id="Path_191500" data-name="Path 191500" d="M-4542.167,1277.609l.027,10.61-2.087,1.2-.022-8.4-.034.023-1.755,1.97-.365-1.653,2.445-2.712Z" fill="#004996"/>
        </g>
        <g id="Group_129762" data-name="Group 129762">
          <path id="Path_191501" data-name="Path 191501" d="M-4534.288,1273.063l.03,10.6-2.086,1.2-.023-8.392-.03.023-1.759,1.962-.366-1.646,2.448-2.712Z" fill="#004996"/>
        </g>
        <g id="Group_129763" data-name="Group 129763">
          <path id="Path_191502" data-name="Path 191502" d="M-4527.873,1269.184c2.467-1.428,3.45.542,3.457,3.446.008,3.277-1.137,6.188-3.5,7.54-2.384,1.383-3.443-.47-3.461-3.465C-4531.384,1273.647-4530.258,1270.551-4527.873,1269.184Zm.019,9.084c.836-.485,1.28-1.943,1.272-4.365-.007-2.343-.444-3.337-1.31-2.836-.8.459-1.341,1.936-1.307,4.388-.015,2.444.5,3.3,1.345,2.813Z" fill="#004996"/>
        </g>
        <g id="Group_129764" data-name="Group 129764">
          <path id="Path_191503" data-name="Path 191503" d="M-4518.521,1263.963l.034,10.607-2.09,1.2-.026-8.4-.03.019-1.755,1.974-.366-1.657,2.444-2.7Z" fill="#004996"/>
        </g>
        <g id="Group_129765" data-name="Group 129765">
          <path id="Path_191504" data-name="Path 191504" d="M-4510.646,1259.413l.026,10.6-2.075,1.209-.022-8.407-.03.026-1.759,1.966-.361-1.657,2.44-2.7Z" fill="#004996"/>
        </g>
        <g id="Group_129766" data-name="Group 129766">
          <path id="Path_191505" data-name="Path 191505" d="M-4504.224,1255.526c2.471-1.431,3.447.546,3.454,3.446.012,3.281-1.129,6.189-3.484,7.548-2.391,1.372-3.45-.474-3.472-3.468C-4507.738,1260-4506.611,1256.905-4504.224,1255.526Zm.016,9.085c.84-.482,1.284-1.936,1.28-4.362-.007-2.343-.452-3.337-1.311-2.843-.8.467-1.337,1.943-1.314,4.388-.011,2.452.5,3.3,1.345,2.817Z" fill="#004996"/>
        </g>
        <g id="Group_129767" data-name="Group 129767">
          <path id="Path_191506" data-name="Path 191506" d="M-4494.868,1250.306l.026,10.6-2.086,1.209-.026-8.4-.03.015-1.751,1.97-.366-1.65,2.441-2.712Z" fill="#004996"/>
        </g>
        <g id="Group_129768" data-name="Group 129768">
          <path id="Path_191507" data-name="Path 191507" d="M-4487,1245.767l.034,10.6-2.083,1.2-.015-8.4-.038.023-1.755,1.97-.365-1.653,2.445-2.716Z" fill="#004996"/>
        </g>
        <g id="Group_129769" data-name="Group 129769">
          <path id="Path_191508" data-name="Path 191508" d="M-4480.573,1241.872c2.474-1.427,3.45.543,3.457,3.447.008,3.277-1.134,6.188-3.488,7.541-2.388,1.382-3.45-.467-3.469-3.462C-4484.08,1246.336-4482.962,1243.247-4480.573,1241.872Zm.018,9.093c.829-.486,1.281-1.951,1.273-4.373,0-2.335-.444-3.341-1.3-2.836-.809.463-1.344,1.936-1.314,4.388-.015,2.448.5,3.3,1.344,2.821Z" fill="#004996"/>
        </g>
        <g id="Group_129770" data-name="Group 129770">
          <path id="Path_191509" data-name="Path 191509" d="M-4471.229,1236.66l.026,10.6-2.075,1.194-.022-8.392-.026.022-1.763,1.962-.365-1.646,2.448-2.712Z" fill="#004996"/>
        </g>
        <g id="Group_129771" data-name="Group 129771">
          <path id="Path_191510" data-name="Path 191510" d="M-4463.349,1232.106l.034,10.6-2.075,1.205-.023-8.4-.037.019-1.755,1.966-.362-1.65,2.444-2.712Z" fill="#004996"/>
        </g>
        <g id="Group_129772" data-name="Group 129772">
          <path id="Path_191511" data-name="Path 191511" d="M-4455.462,1227.56l.026,10.6-2.071,1.2-.026-8.4-.03.011-1.759,1.974-.365-1.65,2.452-2.712Z" fill="#004996"/>
        </g>
        <g id="Group_129773" data-name="Group 129773">
          <path id="Path_191512" data-name="Path 191512" d="M-4449.037,1223.665c2.471-1.427,3.447.542,3.454,3.45.012,3.281-1.129,6.181-3.491,7.541-2.38,1.378-3.446-.475-3.458-3.469C-4452.547,1228.132-4451.428,1225.04-4449.037,1223.665Zm.016,9.089c.825-.475,1.284-1.944,1.277-4.37-.008-2.342-.445-3.329-1.323-2.828-.787.452-1.325,1.929-1.3,4.38-.015,2.452.5,3.3,1.345,2.818Z" fill="#004996"/>
        </g>
        <g id="Group_129774" data-name="Group 129774">
          <path id="Path_191513" data-name="Path 191513" d="M-4441.153,1219.115c2.467-1.431,3.442.546,3.457,3.447,0,3.28-1.137,6.188-3.5,7.548-2.384,1.371-3.446-.475-3.465-3.469C-4444.664,1223.579-4443.541,1220.494-4441.153,1219.115Zm.015,9.093c.825-.49,1.284-1.944,1.277-4.377,0-2.335-.448-3.33-1.311-2.836-.8.467-1.345,1.936-1.311,4.4-.019,2.445.5,3.3,1.345,2.818Z" fill="#004996"/>
        </g>
        <g id="Group_129775" data-name="Group 129775">
          <path id="Path_191514" data-name="Path 191514" d="M-4479.222,1107.1l.031,10.6-2.08,1.2-.026-8.4-.027.019-1.755,1.962-.373-1.646,2.445-2.712Z" fill="#004996"/>
        </g>
        <g id="Group_129776" data-name="Group 129776">
          <path id="Path_191515" data-name="Path 191515" d="M-4471.342,1102.545l.034,10.6-2.079,1.205-.026-8.4-.026.019-1.763,1.97-.365-1.653,2.448-2.712Z" fill="#004996"/>
        </g>
        <g id="Group_129777" data-name="Group 129777">
          <path id="Path_191516" data-name="Path 191516" d="M-4464.92,1098.658c2.475-1.427,3.45.539,3.458,3.45.007,3.281-1.127,6.185-3.5,7.545-2.374,1.382-3.439-.479-3.462-3.466C-4468.426,1103.129-4467.3,1100.041-4464.92,1098.658Zm.019,9.093c.844-.494,1.281-1.944,1.281-4.366-.008-2.335-.448-3.337-1.315-2.836-.8.46-1.333,1.936-1.311,4.381-.011,2.452.5,3.31,1.345,2.821Z" fill="#004996"/>
        </g>
        <g id="Group_129778" data-name="Group 129778">
          <path id="Path_191517" data-name="Path 191517" d="M-4457.033,1094.108c2.471-1.431,3.446.543,3.458,3.447.007,3.28-1.138,6.192-3.488,7.548-2.392,1.378-3.454-.467-3.469-3.469C-4460.543,1098.575-4459.417,1095.487-4457.033,1094.108Zm.015,9.093c.833-.482,1.285-1.944,1.281-4.369-.011-2.343-.448-3.337-1.311-2.836-.8.459-1.337,1.935-1.315,4.38-.011,2.452.5,3.311,1.345,2.825Z" fill="#004996"/>
        </g>
        <g id="Group_129779" data-name="Group 129779">
          <path id="Path_191518" data-name="Path 191518" d="M-4449.146,1089.562c2.46-1.431,3.45.535,3.454,3.446,0,3.277-1.133,6.181-3.491,7.541-2.384,1.378-3.447-.474-3.466-3.469C-4452.66,1094.025-4451.537,1090.933-4449.146,1089.562Zm.012,9.085c.828-.482,1.288-1.944,1.28-4.362-.007-2.35-.452-3.344-1.322-2.836-.787.452-1.329,1.936-1.3,4.381-.015,2.444.5,3.3,1.341,2.817Z" fill="#004996"/>
        </g>
        <g id="Group_129780" data-name="Group 129780">
          <path id="Path_191519" data-name="Path 191519" d="M-4441.27,1085.008c2.471-1.431,3.446.535,3.458,3.447.015,3.284-1.13,6.188-3.488,7.548-2.388,1.371-3.45-.475-3.465-3.469C-4444.78,1089.472-4443.654,1086.379-4441.27,1085.008Zm.015,9.085c.833-.482,1.292-1.936,1.281-4.369,0-2.335-.448-3.329-1.307-2.836-.8.46-1.337,1.936-1.318,4.388-.012,2.444.5,3.3,1.344,2.817Z" fill="#004996"/>
        </g>
        <g id="Group_129781" data-name="Group 129781">
          <path id="Path_191520" data-name="Path 191520" d="M-4455.519,1113.039l.034,10.6-2.079,1.2-.026-8.4-.026.012-1.759,1.974-.372-1.65,2.448-2.719Z" fill="#004996"/>
        </g>
        <g id="Group_129782" data-name="Group 129782">
          <path id="Path_191521" data-name="Path 191521" d="M-4449.093,1109.148c2.471-1.431,3.446.542,3.454,3.447.007,3.28-1.134,6.191-3.492,7.551-2.384,1.383-3.446-.478-3.465-3.472C-4452.6,1113.611-4451.481,1110.519-4449.093,1109.148Zm.015,9.085c.829-.475,1.288-1.944,1.277-4.369,0-2.343-.448-3.33-1.318-2.829-.791.452-1.33,1.929-1.3,4.38-.015,2.445.5,3.3,1.341,2.818Z" fill="#004996"/>
        </g>
        <g id="Group_129783" data-name="Group 129783">
          <path id="Path_191522" data-name="Path 191522" d="M-4441.217,1104.594c2.478-1.431,3.454.543,3.465,3.447,0,3.28-1.134,6.195-3.492,7.555-2.387,1.379-3.45-.489-3.469-3.476C-4444.72,1109.058-4443.594,1105.965-4441.217,1104.594Zm.022,9.085c.833-.474,1.281-1.943,1.281-4.369-.011-2.335-.448-3.33-1.307-2.836-.806.467-1.345,1.943-1.318,4.388-.008,2.452.5,3.31,1.344,2.817Z" fill="#004996"/>
        </g>
        <g id="Group_129784" data-name="Group 129784">
          <path id="Path_191523" data-name="Path 191523" d="M-4487,1150.832l.034,10.6-2.083,1.2-.015-8.4-.038.022-1.755,1.97-.365-1.653,2.445-2.716Z" fill="#004996"/>
        </g>
        <g id="Group_129785" data-name="Group 129785">
          <path id="Path_191524" data-name="Path 191524" d="M-4480.573,1146.938c2.474-1.428,3.45.542,3.457,3.446.008,3.277-1.134,6.188-3.488,7.54-2.388,1.383-3.45-.467-3.469-3.461C-4484.08,1151.4-4482.962,1148.312-4480.573,1146.938Zm.018,9.092c.829-.486,1.281-1.951,1.273-4.373,0-2.335-.444-3.341-1.3-2.836-.809.467-1.344,1.936-1.314,4.388-.015,2.452.5,3.3,1.344,2.821Z" fill="#004996"/>
        </g>
        <g id="Group_129786" data-name="Group 129786">
          <path id="Path_191525" data-name="Path 191525" d="M-4463.349,1137.171l.034,10.6-2.075,1.209-.023-8.4-.037.019-1.755,1.966-.362-1.65,2.444-2.712Z" fill="#004996"/>
        </g>
        <g id="Group_129787" data-name="Group 129787">
          <path id="Path_191526" data-name="Path 191526" d="M-4455.462,1132.625l.026,10.6-2.071,1.2-.026-8.4-.03.011-1.759,1.974-.365-1.65,2.452-2.712Z" fill="#004996"/>
        </g>
        <g id="Group_129788" data-name="Group 129788">
          <path id="Path_191527" data-name="Path 191527" d="M-4449.037,1128.73c2.471-1.428,3.447.546,3.454,3.45.012,3.281-1.129,6.181-3.491,7.541-2.38,1.378-3.446-.475-3.458-3.469C-4452.547,1133.2-4451.428,1130.1-4449.037,1128.73Zm.016,9.089c.825-.475,1.284-1.944,1.277-4.369-.008-2.343-.445-3.33-1.323-2.829-.787.452-1.325,1.928-1.3,4.38-.015,2.452.5,3.3,1.345,2.818Z" fill="#004996"/>
        </g>
        <g id="Group_129789" data-name="Group 129789">
          <path id="Path_191528" data-name="Path 191528" d="M-4441.153,1124.18c2.467-1.431,3.442.55,3.457,3.446,0,3.281-1.137,6.189-3.5,7.549-2.384,1.371-3.446-.475-3.465-3.469C-4444.664,1128.644-4443.541,1125.559-4441.153,1124.18Zm.015,9.093c.825-.49,1.284-1.944,1.277-4.377,0-2.335-.448-3.33-1.311-2.836-.8.467-1.345,1.936-1.311,4.395-.019,2.445.5,3.3,1.345,2.818Z" fill="#004996"/>
        </g>
      </g>
      <g id="Group_129791" data-name="Group 129791" opacity="0.6">
        <path id="Path_191529" data-name="Path 191529" d="M-4472.607,1056.04v2.475l-2.517,1.454v-2.637c0-2.471-.847-3.476-2.786-2.354-1.9,1.1-2.788,3.1-2.788,5.574v14.532c0,2.47.885,3.454,2.788,2.354,1.939-1.119,2.786-3.1,2.786-5.575v-3.571l2.517-1.457v3.416c0,4.166-1.7,7.9-5.371,10.012-3.639,2.1-5.338.335-5.338-3.827v-14.215c0-4.162,1.7-7.891,5.338-9.993C-4474.306,1050.108-4472.607,1051.878-4472.607,1056.04Z" fill="#004996" opacity="0.35"/>
        <path id="Path_191530" data-name="Path 191530" d="M-4459.884,1048.65v.75l-2.512,1.45v-.9c0-2.471-.818-3.454-2.723-2.354s-2.72,3.02-2.72,5.457c0,6.162,7.993,2.136,7.993,9.876a11.013,11.013,0,0,1-5.375,9.97c-3.639,2.1-5.337.373-5.337-3.789v-1.575l2.482-1.427v1.725c0,2.471.885,3.42,2.787,2.313s2.787-3.055,2.787-5.533c0-6.128-7.955-2.117-7.955-9.857,0-4.238,1.7-7.85,5.27-9.91C-4461.583,1042.767-4459.884,1044.488-4459.884,1048.65Z" fill="#004996" opacity="0.35"/>
        <path id="Path_191531" data-name="Path 191531" d="M-4447.228,1041.343v.75l-2.513,1.45v-.9c0-2.47-.817-3.453-2.723-2.353s-2.716,3.02-2.716,5.457c0,6.162,7.989,2.136,7.989,9.876a11.012,11.012,0,0,1-5.375,9.97c-3.638,2.1-5.337.373-5.337-3.789v-1.575l2.482-1.427v1.725c0,2.471.882,3.42,2.788,2.32s2.79-3.062,2.79-5.54c0-6.129-7.958-2.117-7.958-9.857,0-4.238,1.7-7.85,5.273-9.91C-4448.927,1035.46-4447.228,1037.181-4447.228,1041.343Z" fill="#004996" opacity="0.35"/>
      </g>
      <g id="Group_129792" data-name="Group 129792" opacity="0.6">
        <path id="Path_191532" data-name="Path 191532" d="M-4631.792,1205.563l-2.968,10.558-1.875,1.085,3.574-12.629-3.345-8,2.053-1.186,2.738,6.614,2.761-9.786,1.85-1.073-3.319,11.842,3.552,8.519-2.083,1.2Z" fill="#004996" opacity="0.35"/>
        <path id="Path_191533" data-name="Path 191533" d="M-4618.632,1206.78l-1.9,1.092-2.941-14.606V1209.6l-1.725,1v-20.486l2.764-1.6,2.915,14.682,2.81-17.992,2.765-1.594V1204.1l-1.872,1.077V1188.7Z" fill="#004996" opacity="0.35"/>
        <path id="Path_191534" data-name="Path 191534" d="M-4611.9,1202.927v-20.494l1.977-1.137v18.41l5.07-2.926v2.075Z" fill="#004996" opacity="0.35"/>
      </g>
      <g id="Group_129793" data-name="Group 129793" opacity="0.6">
        <path id="Path_191535" data-name="Path 191535" d="M-4615.046,1125.642v12.369l-2.651,1.529v-27.48l2.651-1.534v12.37l5.85-3.379v-12.369l2.651-1.533V1133.1l-2.651,1.533v-12.369Z" fill="#004996" opacity="0.35"/>
        <path id="Path_191536" data-name="Path 191536" d="M-4600.349,1129.529v-24.7l-4.388,2.531v-2.787l11.424-6.592v2.788l-4.384,2.527V1128Z" fill="#004996" opacity="0.35"/>
        <path id="Path_191537" data-name="Path 191537" d="M-4582.695,1119.291l-2.546,1.477-3.948-19.594v21.906l-2.312,1.338v-27.489l3.706-2.135,3.913,19.687,3.774-24.124,3.7-2.143V1115.7l-2.516,1.454v-22.106Z" fill="#004996" opacity="0.35"/>
        <path id="Path_191538" data-name="Path 191538" d="M-4573.674,1114.123l0-27.48,2.655-1.533v24.7l6.8-3.928v2.787Z" fill="#004996" opacity="0.35"/>
      </g>
      <g id="Group_129794" data-name="Group 129794" opacity="0.6">
        <path id="Path_191539" data-name="Path 191539" d="M-4560.164,1197.16l-8.215.859v-1.71l8.215-8.633v1.744l-6.278,6.618,6.278-.626Z" fill="#004996" opacity="0.35"/>
        <path id="Path_191540" data-name="Path 191540" d="M-4549.565,1175.6l-7.31,25.627-1.805,1.036,7.311-25.627Z" fill="#004996" opacity="0.35"/>
        <path id="Path_191541" data-name="Path 191541" d="M-4548.081,1188.437l6.279-6.622-6.279.626V1180.7l8.211-.851v1.709l-8.211,8.626Z" fill="#004996" opacity="0.35"/>
      </g>
      <g id="Group_129819" data-name="Group 129819">
        <g id="Group_129795" data-name="Group 129795" opacity="0.1">
          <path id="Path_191542" data-name="Path 191542" d="M-4387.71,1314.977c14.4,8.309,14.475,21.789.166,30.106-14.287,8.3-37.549,8.3-51.952-.008-14.388-8.309-14.463-21.789-.169-30.087C-4425.364,1306.672-4402.094,1306.672-4387.71,1314.977Z"/>
        </g>
        <g id="Group_129799" data-name="Group 129799">
          <g id="Group_129796" data-name="Group 129796">
            <path id="Path_191543" data-name="Path 191543" d="M-4383.627,1188.595s.309-6.682-9.134-7.458a165.4,165.4,0,0,0-18.983-.316l-13.42-17.175s-4.162.309-5.251,2.934c0,0,8.211,19.74,15.484,23.71C-4414.931,1190.29-4382.362,1203.492-4383.627,1188.595Z" fill="#cadfe8"/>
          </g>
          <g id="Group_129797" data-name="Group 129797">
            <path id="Path_191544" data-name="Path 191544" d="M-4430.174,1166.305s-3.808-2.987-4.662-4.972a8.523,8.523,0,0,1-.81-4.121c.1-.583,1.472,1.53,1.9,2.23s2.267,1.469,1.254-3.487-.279-3.895.109-3.722,6.29,6.381,6.561,12.1A6.976,6.976,0,0,0-4430.174,1166.305Z" fill="#efb185"/>
          </g>
          <g id="Group_129798" data-name="Group 129798">
            <path id="Path_191545" data-name="Path 191545" d="M-4414.931,1190.29c-7.273-3.97-15.484-23.71-15.484-23.71a3.909,3.909,0,0,1,1.48-1.691c2.1,3.826,8.279,14.923,12.441,20.855,5.074,7.232,32.543,5.672,32.671,5.469C-4386.592,1201.759-4414.931,1190.29-4414.931,1190.29Z" fill="#afced8"/>
          </g>
        </g>
        <g id="Group_129800" data-name="Group 129800">
          <path id="Path_191546" data-name="Path 191546" d="M-4399.752,1317.429s-3.8.561-2.877,2.753,5.3,5.507,5.857,6.893c.584,1.375,4.136,6.313,5.277,5.853,1.16-.459,4.139.226,3.8-5.4S-4394.7,1317.195-4399.752,1317.429Z" fill="#111114"/>
        </g>
        <g id="Group_129801" data-name="Group 129801">
          <path id="Path_191547" data-name="Path 191547" d="M-4406.983,1338.1s1.83,5.405-2.761,6.66-3.213-1.612-13.209.908-11.134-2.63-10.9-3.786,6.892-3.2,9.073-3.782,6.317-1.608,6.317-1.608h11.838Z" fill="#111114"/>
        </g>
        <g id="Group_129802" data-name="Group 129802">
          <path id="Path_191548" data-name="Path 191548" d="M-4388.113,1243.315s.064,32.607.064,36.272,4.1,32.614,1.631,45.251c0,0-7.108,7.122-13.386,0,0,0-2.015-36.227-3.839-44.4s-1.2-33.164-1.2-33.164Z" fill="#511dd8"/>
        </g>
        <g id="Group_129803" data-name="Group 129803">
          <path id="Path_191549" data-name="Path 191549" d="M-4400.588,1247.952s-1.612,21.047-3.284,41.929c0,0-1.047,41.431-2.034,47.4,0,0-13.356,3.311-14.69-2.983,0,0,.324-36.464,0-44.072-.346-7.631-2.158-31.515.848-43.789C-4416.742,1234.181-4400.588,1247.952-4400.588,1247.952Z" fill="#511dd8"/>
        </g>
        <g id="Group_129804" data-name="Group 129804">
          <path id="Path_191550" data-name="Path 191550" d="M-4405.906,1337.282c.987-5.97,2.034-47.4,2.034-47.4,1.122-14.057,2.407-30.517,3-38.249l-9.066,1.751a144.606,144.606,0,0,0-4.415,41.65c.705,18.124,1,35.963,1.1,43.108A33.442,33.442,0,0,0-4405.906,1337.282Z" fill="#632bee"/>
        </g>
        <g id="Group_129805" data-name="Group 129805">
          <path id="Path_191551" data-name="Path 191551" d="M-4386.418,1324.838c2.471-12.637-1.631-41.575-1.631-45.251,0-3.5-.053-33.217-.056-36.027l-7.18,5.51s-2.274,23.315,0,36.581c2.08,12.087.739,35.608,1.752,42.351C-4389.574,1328-4386.418,1324.838-4386.418,1324.838Z" fill="#632bee"/>
        </g>
        <g id="Group_129806" data-name="Group 129806">
          <path id="Path_191552" data-name="Path 191552" d="M-4386.117,1184.109s6.893,3.45,2.987,15.164-6.659,19.293-6.422,23.654c.222,4.358,1.33,20.513,2.245,23.507,0,0,.523,5.006-18.2,7.533,0,0-16.881,1.977-13.906-9.966,2.991-11.944.69-24.976.237-29.564-.467-4.606-3.227-13.789,8.268-19.993S-4393.461,1183.65-4386.117,1184.109Z" fill="#cadfe8"/>
        </g>
        <g id="Group_129813" data-name="Group 129813">
          <g id="Group_129807" data-name="Group 129807">
            <path id="Path_191553" data-name="Path 191553" d="M-4394.271,1178.328s-.727,6.12,1.375,9.943c1.9,3.477-12.509,6.648-12.855,3.435a13.867,13.867,0,0,0-.75-11.868C-4408.32,1176.576-4394.271,1178.328-4394.271,1178.328Z" fill="#efb185"/>
          </g>
          <g id="Group_129808" data-name="Group 129808">
            <path id="Path_191554" data-name="Path 191554" d="M-4392.972,1188.486c-1.563-2.851-1.563-6.957-1.454-8.881l-10.523,5.228v.026c.388.09,7.5,1.894,9.036,7.005C-4393.752,1190.983-4392.286,1189.748-4392.972,1188.486Z" fill="#dd9569"/>
          </g>
          <g id="Group_129809" data-name="Group 129809">
            <path id="Path_191555" data-name="Path 191555" d="M-4409.45,1162.071s-2.249,5.552-1.793,10.34c.482,5.141-.3,6.192.034,8.478.139.983.214,2.467,1.164,3.375,1.589,1.536,4.866,2.1,9.318.478,5.363-1.962,11.017-9.352,8.719-15.981S-4401.379,1156.662-4409.45,1162.071Z" fill="#efb185"/>
          </g>
          <g id="Group_129810" data-name="Group 129810">
            <path id="Path_191556" data-name="Path 191556" d="M-4392.245,1175.932c-2.166-5.974-7.492-13.13-7.443-13.51.019-.234-1.747-1.353-3.763-2.531a12.11,12.11,0,0,0-6,2.18,28.194,28.194,0,0,0-1.111,3.575c1.273,1.435,3.875,3.069,4.267,4.275a15.446,15.446,0,0,1-.445,9.1c-.851,1.924,2.592,4.734,1.865,6.422a.383.383,0,0,0-.011.233,15.326,15.326,0,0,0,4.158-.934A15.583,15.583,0,0,0-4392.245,1175.932Z" fill="#e6a376"/>
          </g>
          <g id="Group_129811" data-name="Group 129811">
            <path id="Path_191557" data-name="Path 191557" d="M-4411.04,1159.793a6.865,6.865,0,0,0,3.91,7.062c2.832,1.378,2.569,5.925,2.441,6.761s-.968,4.678-.622,5.171c.663.949,2.866-2.011,3.917-1.8,2.667.52,1.62,3-.8,5.616-2.58,2.776,4.215,3.917,7.352,1.623,1.673-1.216,2.275-1.943,4.467-6.305,3.19-6.354,3.352-13.981-4.158-18.049S-4406.384,1161.634-4411.04,1159.793Z" fill="#221101"/>
          </g>
          <g id="Group_129812" data-name="Group 129812">
            <path id="Path_191558" data-name="Path 191558" d="M-4394.844,1184.222c1.673-1.216,2.275-1.943,4.467-6.305,3.19-6.354,3.352-13.981-4.158-18.049s-11.849,1.766-16.5-.075a6.4,6.4,0,0,0,.038,1.909c2.38.384,8.889,1.669,10.573,4.479,2.067,3.438,4.365,2.327,4.18,6.614-.162,4.124.908,9.529-6.026,11.864C-4399.688,1186.516-4396.064,1185.115-4394.844,1184.222Z" fill="#341c09"/>
          </g>
        </g>
        <g id="Group_129814" data-name="Group 129814">
          <path id="Path_191559" data-name="Path 191559" d="M-4404.945,1189.8l-4.69,3.955s14.618,4.184,18.9-2.98c.614-1.024-.124-4.414-2.678-5.047C-4393.413,1185.725-4393.906,1191.556-4404.945,1189.8Z" fill="#def0f9"/>
        </g>
        <g id="Group_129815" data-name="Group 129815">
          <path id="Path_191560" data-name="Path 191560" d="M-4419.413,1244c2.991-11.944.69-24.976.237-29.564-.467-4.561-3.144-13.6,7.944-19.8,3.861,2.344,9.447,7.4,6.283,15.929-3.921,10.562-5.213,33.462-5.982,43.368C-4415.571,1253.417-4421.24,1251.33-4419.413,1244Z" fill="#afced8"/>
        </g>
        <g id="Group_129816" data-name="Group 129816">
          <path id="Path_191561" data-name="Path 191561" d="M-4402.991,1199.322s-.508-6-9.055-5.582a149.9,149.9,0,0,0-17.051,1.97l-14.056-13.8s-3.68.784-4.35,3.277c0,0,9.694,16.678,16.682,19.371C-4430.821,1204.561-4400.087,1212.509-4402.991,1199.322Z" fill="#cadfe8"/>
        </g>
        <g id="Group_129817" data-name="Group 129817">
          <path id="Path_191562" data-name="Path 191562" d="M-4443.673,1182.433s-.569-4.347-1.725-5.909a7.638,7.638,0,0,0-2.832-2.52c-.494-.2.519,1.845.859,2.5s.109,2.437-3.285-.633-2.9-2-2.946-1.62,2.072,7.831,6.392,10.679A6.3,6.3,0,0,1-4443.673,1182.433Z" fill="#efb185"/>
        </g>
        <g id="Group_129818" data-name="Group 129818">
          <path id="Path_191563" data-name="Path 191563" d="M-4430.821,1204.561c-6.988-2.693-16.682-19.371-16.682-19.371a3.477,3.477,0,0,1,1.122-1.706c2.331,3.183,9.183,12.369,13.623,17.2,5.413,5.872,29.812,1.217,29.91,1.017C-4404.079,1211.477-4430.821,1204.561-4430.821,1204.561Z" fill="#afced8"/>
        </g>
      </g>
    </g>
  </g>
</svg>
