<svg xmlns="http://www.w3.org/2000/svg" width="505" height="283" viewBox="0 0 505 283">
  <g id="_10" data-name="10" transform="translate(-915 -3895)">
    <path id="Rectángulo_41251" data-name="Rectángulo 41251" d="M20,0H485a20,20,0,0,1,20,20V263a20,20,0,0,1-20,20H20A20,20,0,0,1,0,263V20A20,20,0,0,1,20,0Z" transform="translate(915 3895)" fill="#084a93" opacity="0.15"/>
    <path id="Trazado_192359" data-name="Trazado 192359" d="M0,0H194.6V42.461H0Z" transform="translate(1203 3971.579)" fill="#ffb30b" stroke="#000" stroke-linecap="round" stroke-width="4"/>
    <path id="Trazado_192360" data-name="Trazado 192360" d="M0,0H194.6V42.461H0Z" transform="translate(1203 4014.039)" fill="#ffb30b" stroke="#000" stroke-linecap="round" stroke-width="4"/>
    <path id="Trazado_192361" data-name="Trazado 192361" d="M0,0H194.6V42.461H0Z" transform="translate(1203 4056.5)" fill="#ffb30b" stroke="#000" stroke-linecap="round" stroke-width="4"/>
    <path id="Trazado_192362" data-name="Trazado 192362" d="M0,0H194.6V42.461H0Z" transform="translate(1203 4098.961)" fill="#ffb30b" stroke="#000" stroke-linecap="round" stroke-width="4"/>
    <path id="Trazado_192363" data-name="Trazado 192363" d="M0,0H3.947V118.082H0Z" transform="translate(972.647 3996.087)"/>
    <path id="Trazado_189877" data-name="Trazado 189877" d="M-890.463,659.737v-6.456l-.015-3.355v-6.54h-1.258q-12.042,0-24.084-.006a23.906,23.906,0,0,1-2.481-.135,13.09,13.09,0,0,1-11.55-12.965A13.1,13.1,0,0,1-918.432,617.2a1.6,1.6,0,0,0,1.484-1.008,13,13,0,0,1,14.81-6.922,1.371,1.371,0,0,0,1.662-.587A19.056,19.056,0,0,1-892,602.309a65.04,65.04,0,0,1,6.405-1.682h3.782a3.415,3.415,0,0,0,.548.182c8.46,1.308,14.264,5.955,17.447,13.886.327.815.557,1.67.834,2.512.581-.029,1.077-.052,1.573-.079a13.118,13.118,0,0,1,13.01,17.353,13.227,13.227,0,0,1-12.841,8.9c-8.228.021-16.455.006-24.683.006h-1.166v6.577l.016,3.308v6.515Zm24.8-38.367c-1.017-8.595-5.307-14.677-13.747-16.8-8.9-2.237-15.7,1.375-20.529,8.974-.355-.151-.658-.277-.959-.408-5.847-2.534-11.806.112-13.763,6.181-.3.926-.717,1.09-1.608,1.065a9.489,9.489,0,0,0-8.681,4.487,9.231,9.231,0,0,0-.257,10.25,9.456,9.456,0,0,0,8.626,4.933q27.813.033,55.625.014a10.09,10.09,0,0,0,4.939-1.291,9.819,9.819,0,0,0,4.3-12.259,9.883,9.883,0,0,0-11.252-5.9C-863.835,620.821-864.686,621.094-865.667,621.37Z" transform="translate(1863.424 3455.131)"/>
    <path id="Trazado_189878" data-name="Trazado 189878" d="M-865.667,621.37c.981-.276,1.832-.549,2.7-.754a9.883,9.883,0,0,1,11.252,5.9,9.819,9.819,0,0,1-4.3,12.259,10.09,10.09,0,0,1-4.939,1.291q-27.813-.01-55.625-.014a9.456,9.456,0,0,1-8.626-4.933,9.231,9.231,0,0,1,.257-10.25,9.489,9.489,0,0,1,8.681-4.487c.891.025,1.309-.139,1.608-1.065,1.957-6.069,7.916-8.715,13.763-6.181.3.131.6.257.959.408,4.834-7.6,11.632-11.211,20.529-8.974C-870.974,606.693-866.684,612.775-865.667,621.37Zm-7.847-9.833c-5.222-5.636-15.136-5.856-20.664-.014l2.2,2.2c5.444-4.364,10.885-4.34,16.261,0Zm12.7,15.294c2.239.61,3.28,1.722,3.266,3.408s-1.1,2.825-3.232,3.335v3.181a6.319,6.319,0,0,0,5.837-3.721,6.213,6.213,0,0,0-.669-6.744,6.031,6.031,0,0,0-5.2-2.566Z" transform="translate(1863.424 3455.131)" fill="#084a93"/>
    <path id="Trazado_189879" data-name="Trazado 189879" d="M-873.514,611.537l-2.2,2.182c-5.376-4.338-10.817-4.362-16.261,0l-2.2-2.2C-888.65,605.681-878.736,605.9-873.514,611.537Z" transform="translate(1863.424 3455.131)"/>
    <path id="Trazado_189880" data-name="Trazado 189880" d="M-860.812,626.831v-3.107a6.031,6.031,0,0,1,5.2,2.566,6.213,6.213,0,0,1,.669,6.744,6.319,6.319,0,0,1-5.837,3.721v-3.181c2.129-.51,3.218-1.64,3.232-3.335S-858.573,627.441-860.812,626.831Z" transform="translate(1863.424 3455.131)"/>
    <path id="Trazado_189881" data-name="Trazado 189881" d="M-869.151,468.079a7.338,7.338,0,0,1,4.458,2.459,6.805,6.805,0,0,1,1.547,4.054c.017.315.015.632.015.948q0,31.7.015,63.392a4.345,4.345,0,0,1-2.4,4.344.823.823,0,0,0-.3.623c-.029,1.159-.006,2.319-.016,3.478s-.495,1.657-1.629,1.658q-21.306.008-42.611,0c-1.135,0-1.619-.507-1.63-1.658-.01-1.133.026-2.267-.022-3.4a1.067,1.067,0,0,0-.435-.768,4.093,4.093,0,0,1-2.24-3.8q0-32.171-.007-64.34a6.8,6.8,0,0,1,5.813-6.892.838.838,0,0,0,.216-.1Zm-42.548,38.9q0,16.008,0,32.017c0,1.544.42,1.961,1.975,1.962h41.906c1.589,0,1.992-.411,1.992-2.026V475.45c0-3.092-1.581-4.677-4.664-4.677q-18.266,0-36.53,0c-3.093,0-4.679,1.58-4.679,4.661Q-911.7,491.207-911.7,506.977Zm43.141,36.728h-40.384v2.6h40.384Z" transform="translate(1863.424 3455.131)"/>
    <path id="Trazado_189882" data-name="Trazado 189882" d="M-911.7,506.977q0-15.771,0-31.543c0-3.081,1.586-4.661,4.679-4.661q18.266,0,36.53,0c3.083,0,4.663,1.585,4.664,4.677v63.48c0,1.615-.4,2.026-1.992,2.026h-41.906c-1.555,0-1.975-.418-1.975-1.962Q-911.7,522.986-911.7,506.977Zm22.934.228h-11.459q-3.4,0-6.8,0c-1.577,0-1.984.4-1.985,1.947,0,2.4-.007,4.793,0,7.19.005,1.134.5,1.631,1.633,1.669.474.016.948,0,1.422,0h35.483c1.5,0,1.943-.436,1.945-1.915q0-3.4,0-6.795c0-1.732-.359-2.1-2.07-2.1Zm.009-26.968q-9.245,0-18.491,0c-1.3,0-1.754.46-1.757,1.762q-.006,3.635,0,7.269c0,1.255.472,1.741,1.7,1.741q18.531.006,37.062,0c1.24,0,1.713-.481,1.716-1.73.007-2.37,0-4.74,0-7.111,0-1.523-.4-1.932-1.9-1.933Q-879.589,480.235-888.756,480.237Zm-.092,24.265q9.246,0,18.492,0c1.408,0,1.835-.438,1.837-1.845q0-3.594,0-7.19c0-1.243-.487-1.755-1.7-1.755q-18.531-.009-37.062,0c-1.228,0-1.714.5-1.717,1.742-.007,2.292,0,4.583,0,6.874,0,1.85.32,2.177,2.14,2.177Zm8.166,24.278a8.1,8.1,0,0,0-8.1-8.06,8.088,8.088,0,0,0-8.059,8.1,8.088,8.088,0,0,0,8.1,8.058A8.088,8.088,0,0,0-880.682,528.78Zm-14.9-51.276c.024-.206.053-.334.053-.463,0-.71.022-1.421-.007-2.13a1.332,1.332,0,0,0-1.442-1.432c-2.63-.027-5.26-.022-7.89,0a1.229,1.229,0,0,0-1.364,1.068c-.092.974-.022,1.964-.022,2.941h2.591l.091-1.267h5.308l.094,1.283Zm22.995,0c0-.913.026-1.751-.007-2.587a1.327,1.327,0,0,0-1.434-1.439c-2.628-.029-5.258-.022-7.886,0a1.223,1.223,0,0,0-1.369,1.057c-.091.975-.023,1.964-.023,2.956h2.576l.1-1.274h5.308l.1,1.289Z" transform="translate(1863.424 3455.131)" fill="#b9ddfc"/>
    <path id="Trazado_189883" data-name="Trazado 189883" d="M-868.558,543.705v2.6h-40.384v-2.6Z" transform="translate(1863.424 3455.131)" fill="#084a93"/>
    <path id="Trazado_189884" data-name="Trazado 189884" d="M-888.765,507.2h18.176c1.711,0,2.07.368,2.07,2.1q0,3.4,0,6.795c0,1.479-.441,1.915-1.945,1.915h-35.483c-.474,0-.948.012-1.422,0-1.132-.038-1.628-.535-1.633-1.669-.01-2.4,0-4.793,0-7.19,0-1.544.408-1.945,1.985-1.947q3.4-.006,6.8,0Zm-17.522,8.044h35.028v-5.265h-35.028Z" transform="translate(1863.424 3455.131)"/>
    <path id="Trazado_189885" data-name="Trazado 189885" d="M-888.756,480.237q9.168,0,18.334,0c1.5,0,1.9.41,1.9,1.933,0,2.371.005,4.741,0,7.111,0,1.249-.476,1.729-1.716,1.73q-18.531,0-37.062,0c-1.232,0-1.7-.486-1.7-1.741q-.009-3.635,0-7.269c0-1.3.457-1.761,1.757-1.762Q-898,480.233-888.756,480.237Zm-17.506,2.712v5.314h34.987v-5.314Z" transform="translate(1863.424 3455.131)"/>
    <path id="Trazado_189886" data-name="Trazado 189886" d="M-888.848,504.5h-18.017c-1.82,0-2.14-.327-2.14-2.177,0-2.291-.005-4.582,0-6.874,0-1.237.489-1.741,1.717-1.742q18.531-.008,37.062,0c1.217,0,1.7.512,1.7,1.755q.008,3.6,0,7.19c0,1.407-.429,1.844-1.837,1.845Q-879.6,504.506-888.848,504.5Zm-17.424-2.763h34.993v-5.291h-34.993Z" transform="translate(1863.424 3455.131)"/>
    <path id="Trazado_189887" data-name="Trazado 189887" d="M-880.682,528.78a8.088,8.088,0,0,1-8.061,8.1,8.088,8.088,0,0,1-8.1-8.058,8.088,8.088,0,0,1,8.059-8.1A8.1,8.1,0,0,1-880.682,528.78Zm-2.7,0a5.4,5.4,0,0,0-5.4-5.36,5.4,5.4,0,0,0-5.362,5.4,5.4,5.4,0,0,0,5.4,5.36A5.4,5.4,0,0,0-883.38,528.778Z" transform="translate(1863.424 3455.131)"/>
    <path id="Trazado_189888" data-name="Trazado 189888" d="M-895.578,477.5h-2.588l-.094-1.283h-5.308l-.091,1.267h-2.591c0-.977-.07-1.967.022-2.941a1.229,1.229,0,0,1,1.364-1.068c2.63-.022,5.26-.027,7.89,0a1.332,1.332,0,0,1,1.442,1.432c.029.709.011,1.42.007,2.13C-895.525,477.17-895.554,477.3-895.578,477.5Z" transform="translate(1863.424 3455.131)"/>
    <path id="Trazado_189889" data-name="Trazado 189889" d="M-872.583,477.506h-2.642l-.1-1.289h-5.308l-.1,1.274H-883.3c0-.992-.068-1.981.023-2.956a1.223,1.223,0,0,1,1.369-1.057c2.628-.02,5.258-.027,7.886,0a1.327,1.327,0,0,1,1.434,1.439C-872.557,475.755-872.583,476.593-872.583,477.506Z" transform="translate(1863.424 3455.131)"/>
    <path id="Trazado_189890" data-name="Trazado 189890" d="M-906.287,515.249v-5.265h35.028v5.265Z" transform="translate(1863.424 3455.131)" fill="#084a93"/>
    <path id="Trazado_189891" data-name="Trazado 189891" d="M-906.262,482.949h34.987v5.314h-34.987Z" transform="translate(1863.424 3455.131)" fill="#084a93"/>
    <path id="Trazado_189892" data-name="Trazado 189892" d="M-906.272,501.739v-5.291h34.993v5.291Z" transform="translate(1863.424 3455.131)" fill="#084a93"/>
    <path id="Trazado_189893" data-name="Trazado 189893" d="M-883.38,528.778a5.4,5.4,0,0,1-5.362,5.4,5.4,5.4,0,0,1-5.4-5.36,5.4,5.4,0,0,1,5.362-5.4A5.4,5.4,0,0,1-883.38,528.778Z" transform="translate(1863.424 3455.131)" fill="#ffb30b"/>
    <path id="Trazado_189894" data-name="Trazado 189894" d="M-889.839,591.46h-17.314c-1.613,0-2.064-.454-2.064-2.086q0-11.366,0-22.73c0-1.616.461-2.071,2.089-2.071q17.313,0,34.628,0c1.607,0,2.069.467,2.069,2.1q0,11.365,0,22.731c0,1.61-.464,2.06-2.094,2.061Zm14.021-23.823h-28.01l14.005,12.837ZM-903.2,588.432h26.762l-9.7-7.274c-.858.785-1.647,1.518-2.449,2.236a1.563,1.563,0,0,1-2.459.006c-.819-.735-1.624-1.484-2.453-2.243Zm-2.96-18.884v17.367l10.422-7.814Zm32.7-.021L-883.9,579.1l10.443,7.826Z" transform="translate(1863.424 3455.131)"/>
    <path id="Trazado_189895" data-name="Trazado 189895" d="M-912.263,573.627v2.855h-14.826v-2.855Z" transform="translate(1863.424 3455.131)" fill="#084a93"/>
    <path id="Trazado_189896" data-name="Trazado 189896" d="M-912.266,567.563v2.93h-8.915c0-.863-.026-1.671.022-2.474a.652.652,0,0,1,.465-.436C-917.91,567.556-915.126,567.563-912.266,567.563Z" transform="translate(1863.424 3455.131)" fill="#084a93"/>
    <path id="Trazado_189897" data-name="Trazado 189897" d="M-921.136,582.439v-2.857h8.871v2.857Z" transform="translate(1863.424 3455.131)" fill="#084a93"/>
    <path id="Trazado_189898" data-name="Trazado 189898" d="M-875.818,567.637l-14.005,12.837-14.005-12.837Z" transform="translate(1863.424 3455.131)" fill="#ffb30b"/>
    <path id="Trazado_189899" data-name="Trazado 189899" d="M-903.2,588.432l9.7-7.275c.829.759,1.634,1.508,2.453,2.243a1.563,1.563,0,0,0,2.459-.006c.8-.718,1.591-1.451,2.449-2.236l9.7,7.274Z" transform="translate(1863.424 3455.131)" fill="#ffb30b"/>
    <path id="Trazado_189900" data-name="Trazado 189900" d="M-906.163,569.548l10.422,9.553-10.422,7.814Z" transform="translate(1863.424 3455.131)" fill="#ffb30b"/>
    <path id="Trazado_189901" data-name="Trazado 189901" d="M-873.46,569.527v17.4L-883.9,579.1Z" transform="translate(1863.424 3455.131)" fill="#ffb30b"/>
    <path id="Trazado_189902" data-name="Trazado 189902" d="M-899.081,696.066V691.98h4.06v-4.115c-1.8,0-3.589.07-5.372-.026a9.573,9.573,0,0,1-3.268-.614,5.73,5.73,0,0,1-3.583-5.518c-.057-5.494-.068-10.99,0-16.484a6,6,0,0,1,6.256-6.111q12.213-.145,24.429,0c3.8.049,6.2,2.537,6.261,6.354q.14,8,0,16c-.071,3.947-2.665,6.353-6.624,6.39-1.842.017-3.684,0-5.615,0v4.08h3.922v4.121Zm24.546-18.563a1.518,1.518,0,0,0,.123-.385c.008-3.891.048-7.783-.005-11.674-.021-1.584-.849-2.242-2.633-2.245q-11.738-.02-23.475,0c-1.948,0-2.632.749-2.639,2.749-.008,2.407,0,4.814,0,7.221V677.5Zm-.03,4.215h-28.461c.171,1.5.829,2.037,2.557,2.039q10.774.013,21.549,0c.8,0,1.609.042,2.407-.023A1.861,1.861,0,0,0-874.565,681.718Zm-16.211,6.2v3.968h3.947v-3.968Z" transform="translate(1863.424 3455.131)"/>
    <path id="Trazado_189903" data-name="Trazado 189903" d="M-874.535,677.5h-28.631V673.17c0-2.407-.006-4.814,0-7.221.007-2,.691-2.745,2.639-2.749q11.738-.024,23.475,0c1.784,0,2.612.661,2.633,2.245.053,3.891.013,7.783.005,11.674A1.518,1.518,0,0,1-874.535,677.5Z" transform="translate(1863.424 3455.131)" fill="#b9ddfc"/>
    <path id="Trazado_189904" data-name="Trazado 189904" d="M-874.565,681.718a1.861,1.861,0,0,1-1.948,2.02c-.8.065-1.6.022-2.407.023q-10.775,0-21.549,0c-1.728,0-2.386-.535-2.557-2.039Z" transform="translate(1863.424 3455.131)" fill="#084a93"/>
    <path id="Trazado_189905" data-name="Trazado 189905" d="M-890.776,687.921h3.947v3.968h-3.947Z" transform="translate(1863.424 3455.131)" fill="#084a93"/>
    <path id="Trazado_189906" data-name="Trazado 189906" d="M-761.888,648.491l-6.418-9.72-1.658,2.872-92.8-53.581-1.893,3.278,92.8,53.581-1.658,2.872Z" transform="translate(1972.836 3659.242) rotate(13)"/>
    <path id="Trazado_189907" data-name="Trazado 189907" d="M-777.384,515.3l-9.874.593,1.408,2.439-78.811,45.5,1.607,2.784,78.811-45.5,1.408,2.439Z" transform="translate(1923.23 3574.22) rotate(7)"/>
    <path id="Trazado_192364" data-name="Trazado 192364" d="M-59.332-4.008V0h-2.344V-11.375h4.438a5.134,5.134,0,0,1,2.254.469,3.454,3.454,0,0,1,1.5,1.332,3.714,3.714,0,0,1,.523,1.965,3.266,3.266,0,0,1-1.145,2.637,4.767,4.767,0,0,1-3.168.965Zm0-1.9h2.094a2.059,2.059,0,0,0,1.418-.437,1.591,1.591,0,0,0,.488-1.25,1.876,1.876,0,0,0-.492-1.352,1.839,1.839,0,0,0-1.359-.531h-2.148ZM-49.121,0h-2.266V-8.453h2.266Zm-2.4-10.641a1.112,1.112,0,0,1,.34-.836,1.277,1.277,0,0,1,.926-.328,1.28,1.28,0,0,1,.922.328,1.105,1.105,0,0,1,.344.836,1.108,1.108,0,0,1-.348.844,1.283,1.283,0,0,1-.918.328,1.283,1.283,0,0,1-.918-.328A1.108,1.108,0,0,1-51.52-10.641ZM-44.879,0h-2.266V-12h2.266Zm6.758,0a2.507,2.507,0,0,1-.227-.758A2.732,2.732,0,0,1-40.48.156a3,3,0,0,1-2.059-.719,2.312,2.312,0,0,1-.816-1.812,2.389,2.389,0,0,1,1-2.062,4.915,4.915,0,0,1,2.879-.727h1.039v-.484a1.393,1.393,0,0,0-.3-.937,1.183,1.183,0,0,0-.949-.352,1.345,1.345,0,0,0-.895.273.929.929,0,0,0-.324.75h-2.258a2.268,2.268,0,0,1,.453-1.359,3,3,0,0,1,1.281-.98,4.669,4.669,0,0,1,1.859-.355,3.689,3.689,0,0,1,2.48.785,2.747,2.747,0,0,1,.918,2.207v3.664a4.041,4.041,0,0,0,.336,1.82V0Zm-1.867-1.57a1.945,1.945,0,0,0,.922-.223,1.462,1.462,0,0,0,.625-.6V-3.844h-.844q-1.7,0-1.8,1.172l-.008.133a.9.9,0,0,0,.3.7A1.153,1.153,0,0,0-39.988-1.57Zm9.18-2.719a5.094,5.094,0,0,1,.887-3.148A2.877,2.877,0,0,1-27.5-8.609a2.589,2.589,0,0,1,2.039.922V-12h2.266V0H-25.23l-.109-.9A2.657,2.657,0,0,1-27.512.156,2.869,2.869,0,0,1-29.906-1.02,5.258,5.258,0,0,1-30.809-4.289Zm2.258.168A3.337,3.337,0,0,0-28.137-2.3a1.349,1.349,0,0,0,1.2.634,1.511,1.511,0,0,0,1.477-.884V-5.889a1.489,1.489,0,0,0-1.461-.884Q-28.551-6.773-28.551-4.121Zm11,4.277A4.15,4.15,0,0,1-20.578-.984a4.054,4.054,0,0,1-1.168-3.039v-.219a5.106,5.106,0,0,1,.492-2.277,3.612,3.612,0,0,1,1.395-1.547A3.914,3.914,0,0,1-17.8-8.609a3.508,3.508,0,0,1,2.73,1.094,4.444,4.444,0,0,1,1,3.1v.922h-5.383a2.1,2.1,0,0,0,.66,1.328,2,2,0,0,0,1.395.5,2.437,2.437,0,0,0,2.039-.945l1.109,1.242A3.389,3.389,0,0,1-15.629-.246,4.511,4.511,0,0,1-17.551.156Zm-.258-6.945a1.411,1.411,0,0,0-1.09.455,2.357,2.357,0,0,0-.535,1.3h3.141v-.181A1.681,1.681,0,0,0-16.7-6.377,1.456,1.456,0,0,0-17.809-6.789ZM-1.2-4.148A5.07,5.07,0,0,1-2.086-1.02,2.843,2.843,0,0,1-4.48.156a2.633,2.633,0,0,1-2.07-.891V3.25H-8.809v-11.7h2.094l.078.828A2.654,2.654,0,0,1-4.5-8.609a2.862,2.862,0,0,1,2.43,1.156A5.207,5.207,0,0,1-1.2-4.266Zm-2.258-.164a3.327,3.327,0,0,0-.418-1.82A1.361,1.361,0,0,0-5.09-6.773a1.478,1.478,0,0,0-1.461.813V-2.5a1.5,1.5,0,0,0,1.477.836Q-3.457-1.664-3.457-4.312ZM4.949-6.336A6.134,6.134,0,0,0,4.137-6.4a1.654,1.654,0,0,0-1.68.867V0H.2V-8.453H2.332l.063,1.008A2.092,2.092,0,0,1,4.277-8.609a2.366,2.366,0,0,1,.7.1ZM5.4-4.3a5.013,5.013,0,0,1,.484-2.242A3.546,3.546,0,0,1,7.281-8.07a4.069,4.069,0,0,1,2.113-.539,3.849,3.849,0,0,1,2.793,1.047,4.2,4.2,0,0,1,1.207,2.844l.016.578A4.418,4.418,0,0,1,12.324-1.02,3.775,3.775,0,0,1,9.41.156,3.793,3.793,0,0,1,6.492-1.016,4.5,4.5,0,0,1,5.4-4.2Zm2.258.16A3.16,3.16,0,0,0,8.113-2.3a1.5,1.5,0,0,0,1.3.638,1.5,1.5,0,0,0,1.281-.63,3.457,3.457,0,0,0,.461-2.015,3.128,3.128,0,0,0-.461-1.831,1.5,1.5,0,0,0-1.3-.649,1.474,1.474,0,0,0-1.281.646A3.516,3.516,0,0,0,7.66-4.144Zm6.789-.145a5.094,5.094,0,0,1,.887-3.148,2.877,2.877,0,0,1,2.426-1.172,2.589,2.589,0,0,1,2.039.922V-12h2.266V0H20.027l-.109-.9A2.657,2.657,0,0,1,17.746.156,2.869,2.869,0,0,1,15.352-1.02,5.258,5.258,0,0,1,14.449-4.289Zm2.258.168A3.337,3.337,0,0,0,17.121-2.3a1.349,1.349,0,0,0,1.2.634A1.511,1.511,0,0,0,19.8-2.548V-5.889a1.489,1.489,0,0,0-1.461-.884Q16.707-6.773,16.707-4.121ZM28.879-.859A2.831,2.831,0,0,1,26.566.156a2.67,2.67,0,0,1-2.074-.781,3.335,3.335,0,0,1-.73-2.289V-8.453H26.02v5.467q0,1.322,1.2,1.322a1.63,1.63,0,0,0,1.578-.8V-8.453h2.266V0H28.941Zm7.406-.8A1.481,1.481,0,0,0,37.3-2.008a1.2,1.2,0,0,0,.406-.914h2.117a2.9,2.9,0,0,1-.469,1.574A3.093,3.093,0,0,1,38.094-.238a3.949,3.949,0,0,1-1.77.395A3.67,3.67,0,0,1,33.465-1,4.56,4.56,0,0,1,32.418-4.18v-.148a4.508,4.508,0,0,1,1.039-3.117,3.627,3.627,0,0,1,2.852-1.164,3.555,3.555,0,0,1,2.543.9,3.2,3.2,0,0,1,.973,2.4H37.707A1.551,1.551,0,0,0,37.3-6.377a1.354,1.354,0,0,0-1.031-.412,1.36,1.36,0,0,0-1.191.575,3.333,3.333,0,0,0-.4,1.866v.235a3.375,3.375,0,0,0,.4,1.878A1.377,1.377,0,0,0,36.285-1.664Zm7.531-8.867v2.078h1.445V-6.8H43.816v4.219a1.007,1.007,0,0,0,.18.672.9.9,0,0,0,.688.2,3.6,3.6,0,0,0,.664-.055V-.047a4.648,4.648,0,0,1-1.367.2,2.156,2.156,0,0,1-2.422-2.4V-6.8H40.324V-8.453h1.234v-2.078ZM45.934-4.3a5.013,5.013,0,0,1,.484-2.242A3.546,3.546,0,0,1,47.813-8.07a4.069,4.069,0,0,1,2.113-.539,3.849,3.849,0,0,1,2.793,1.047,4.2,4.2,0,0,1,1.207,2.844l.016.578A4.418,4.418,0,0,1,52.855-1.02,3.775,3.775,0,0,1,49.941.156a3.793,3.793,0,0,1-2.918-1.172A4.5,4.5,0,0,1,45.934-4.2Zm2.258.16A3.16,3.16,0,0,0,48.645-2.3a1.5,1.5,0,0,0,1.3.638,1.5,1.5,0,0,0,1.281-.63,3.457,3.457,0,0,0,.461-2.015,3.128,3.128,0,0,0-.461-1.831,1.5,1.5,0,0,0-1.3-.649,1.474,1.474,0,0,0-1.281.646A3.516,3.516,0,0,0,48.191-4.144ZM59.91-2.336a.727.727,0,0,0-.41-.652,4.659,4.659,0,0,0-1.316-.426q-3.016-.633-3.016-2.562A2.323,2.323,0,0,1,56.1-7.855a3.766,3.766,0,0,1,2.441-.754,4.053,4.053,0,0,1,2.574.758,2.388,2.388,0,0,1,.965,1.969H59.824a1.092,1.092,0,0,0-.312-.8A1.322,1.322,0,0,0,58.535-7a1.351,1.351,0,0,0-.883.258.814.814,0,0,0-.312.656.7.7,0,0,0,.355.605,3.657,3.657,0,0,0,1.2.4,9.8,9.8,0,0,1,1.422.379A2.336,2.336,0,0,1,62.105-2.43a2.2,2.2,0,0,1-.992,1.871,4.28,4.28,0,0,1-2.562.715,4.47,4.47,0,0,1-1.887-.379,3.166,3.166,0,0,1-1.293-1.039A2.414,2.414,0,0,1,54.9-2.687h2.141a1.179,1.179,0,0,0,.445.922,1.766,1.766,0,0,0,1.109.32,1.635,1.635,0,0,0,.98-.246A.766.766,0,0,0,59.91-2.336Z" transform="translate(1300 3935.367)" fill="#12263f"/>
    <path id="Trazado_192365" data-name="Trazado 192365" d="M-56.977,0H-59.32l-4.562-7.484V0h-2.344V-11.375h2.344l4.57,7.5v-7.5h2.336Zm1.547-4.3a5.013,5.013,0,0,1,.484-2.242A3.546,3.546,0,0,1-53.551-8.07a4.069,4.069,0,0,1,2.113-.539,3.849,3.849,0,0,1,2.793,1.047,4.2,4.2,0,0,1,1.207,2.844l.016.578A4.418,4.418,0,0,1-48.508-1.02,3.775,3.775,0,0,1-51.422.156,3.793,3.793,0,0,1-54.34-1.016,4.5,4.5,0,0,1-55.43-4.2Zm2.258.16A3.16,3.16,0,0,0-52.719-2.3a1.5,1.5,0,0,0,1.3.638,1.5,1.5,0,0,0,1.281-.63,3.457,3.457,0,0,0,.461-2.015,3.128,3.128,0,0,0-.461-1.831,1.5,1.5,0,0,0-1.3-.649,1.474,1.474,0,0,0-1.281.646A3.516,3.516,0,0,0-53.172-4.144Zm9.258-4.309.07.945a2.971,2.971,0,0,1,2.43-1.1A2.255,2.255,0,0,1-39.172-7.32a2.9,2.9,0,0,1,2.539-1.289,2.521,2.521,0,0,1,2.047.8,3.681,3.681,0,0,1,.672,2.41V0H-36.18V-5.391a1.61,1.61,0,0,0-.281-1.051,1.246,1.246,0,0,0-.992-.332,1.409,1.409,0,0,0-1.406.969l.008,5.8h-2.258V-5.383A1.59,1.59,0,0,0-41.4-6.445a1.259,1.259,0,0,0-.984-.328,1.463,1.463,0,0,0-1.391.8V0h-2.258V-8.453Zm19.352,4.3A5.119,5.119,0,0,1-25.43-.98,2.872,2.872,0,0,1-27.852.156,2.639,2.639,0,0,1-30.047-.9l-.1.9H-32.18V-12h2.258v4.3a2.571,2.571,0,0,1,2.055-.914,2.9,2.9,0,0,1,2.426,1.137,5.126,5.126,0,0,1,.879,3.2Zm-2.258-.164a3.363,3.363,0,0,0-.406-1.871,1.374,1.374,0,0,0-1.211-.59,1.489,1.489,0,0,0-1.484.883v3.336a1.509,1.509,0,0,0,1.5.891,1.394,1.394,0,0,0,1.438-1.078A5.562,5.562,0,0,0-26.82-4.312Zm8.4-2.023a6.134,6.134,0,0,0-.812-.062,1.654,1.654,0,0,0-1.68.867V0h-2.258V-8.453h2.133l.063,1.008a2.092,2.092,0,0,1,1.883-1.164,2.366,2.366,0,0,1,.7.1ZM-13.594.156A4.15,4.15,0,0,1-16.621-.984a4.054,4.054,0,0,1-1.168-3.039v-.219A5.106,5.106,0,0,1-17.3-6.52,3.612,3.612,0,0,1-15.9-8.066a3.914,3.914,0,0,1,2.059-.543,3.508,3.508,0,0,1,2.73,1.094,4.444,4.444,0,0,1,1,3.1v.922H-15.5a2.1,2.1,0,0,0,.66,1.328,2,2,0,0,0,1.395.5,2.437,2.437,0,0,0,2.039-.945L-10.3-1.367A3.389,3.389,0,0,1-11.672-.246,4.511,4.511,0,0,1-13.594.156Zm-.258-6.945a1.411,1.411,0,0,0-1.09.455,2.357,2.357,0,0,0-.535,1.3h3.141v-.181a1.681,1.681,0,0,0-.406-1.165A1.456,1.456,0,0,0-13.852-6.789Zm8.648,2.5a5.094,5.094,0,0,1,.887-3.148A2.877,2.877,0,0,1-1.891-8.609a2.589,2.589,0,0,1,2.039.922V-12H2.414V0H.375L.266-.9A2.657,2.657,0,0,1-1.906.156,2.869,2.869,0,0,1-4.3-1.02,5.258,5.258,0,0,1-5.2-4.289Zm2.258.168A3.337,3.337,0,0,0-2.531-2.3a1.349,1.349,0,0,0,1.2.634A1.511,1.511,0,0,0,.148-2.548V-5.889a1.489,1.489,0,0,0-1.461-.884Q-2.945-6.773-2.945-4.121Zm11,4.277A4.15,4.15,0,0,1,5.027-.984,4.054,4.054,0,0,1,3.859-4.023v-.219A5.106,5.106,0,0,1,4.352-6.52,3.612,3.612,0,0,1,5.746-8.066,3.914,3.914,0,0,1,7.8-8.609a3.508,3.508,0,0,1,2.73,1.094,4.444,4.444,0,0,1,1,3.1v.922H6.148a2.1,2.1,0,0,0,.66,1.328,2,2,0,0,0,1.395.5,2.437,2.437,0,0,0,2.039-.945l1.109,1.242A3.389,3.389,0,0,1,9.977-.246,4.511,4.511,0,0,1,8.055.156ZM7.8-6.789a1.411,1.411,0,0,0-1.09.455,2.357,2.357,0,0,0-.535,1.3H9.313v-.181a1.681,1.681,0,0,0-.406-1.165A1.456,1.456,0,0,0,7.8-6.789ZM19.18,0H16.914V-12H19.18Zm6.758,0a2.507,2.507,0,0,1-.227-.758,2.732,2.732,0,0,1-2.133.914A3,3,0,0,1,21.52-.562,2.312,2.312,0,0,1,20.7-2.375a2.389,2.389,0,0,1,1-2.062,4.915,4.915,0,0,1,2.879-.727h1.039v-.484a1.393,1.393,0,0,0-.3-.937,1.183,1.183,0,0,0-.949-.352,1.345,1.345,0,0,0-.895.273.929.929,0,0,0-.324.75H20.891a2.268,2.268,0,0,1,.453-1.359,3,3,0,0,1,1.281-.98,4.669,4.669,0,0,1,1.859-.355,3.689,3.689,0,0,1,2.48.785,2.747,2.747,0,0,1,.918,2.207v3.664a4.041,4.041,0,0,0,.336,1.82V0ZM24.07-1.57a1.945,1.945,0,0,0,.922-.223,1.462,1.462,0,0,0,.625-.6V-3.844h-.844q-1.7,0-1.8,1.172l-.008.133a.9.9,0,0,0,.3.7A1.153,1.153,0,0,0,24.07-1.57Zm13.047-.094a1.481,1.481,0,0,0,1.016-.344,1.2,1.2,0,0,0,.406-.914h2.117a2.9,2.9,0,0,1-.469,1.574A3.093,3.093,0,0,1,38.926-.238a3.949,3.949,0,0,1-1.77.395A3.67,3.67,0,0,1,34.3-1,4.56,4.56,0,0,1,33.25-4.18v-.148a4.508,4.508,0,0,1,1.039-3.117,3.627,3.627,0,0,1,2.852-1.164,3.555,3.555,0,0,1,2.543.9,3.2,3.2,0,0,1,.973,2.4H38.539a1.551,1.551,0,0,0-.406-1.072A1.354,1.354,0,0,0,37.1-6.789a1.36,1.36,0,0,0-1.191.575,3.333,3.333,0,0,0-.4,1.866v.235a3.375,3.375,0,0,0,.4,1.878A1.377,1.377,0,0,0,37.117-1.664ZM46.844,0a2.507,2.507,0,0,1-.227-.758,2.732,2.732,0,0,1-2.133.914,3,3,0,0,1-2.059-.719,2.312,2.312,0,0,1-.816-1.812,2.389,2.389,0,0,1,1-2.062,4.915,4.915,0,0,1,2.879-.727h1.039v-.484a1.393,1.393,0,0,0-.3-.937,1.183,1.183,0,0,0-.949-.352,1.345,1.345,0,0,0-.895.273.929.929,0,0,0-.324.75H41.8a2.268,2.268,0,0,1,.453-1.359,3,3,0,0,1,1.281-.98,4.669,4.669,0,0,1,1.859-.355,3.689,3.689,0,0,1,2.48.785,2.747,2.747,0,0,1,.918,2.207v3.664a4.041,4.041,0,0,0,.336,1.82V0ZM44.977-1.57a1.945,1.945,0,0,0,.922-.223,1.462,1.462,0,0,0,.625-.6V-3.844H45.68q-1.7,0-1.8,1.172l-.008.133a.9.9,0,0,0,.3.7A1.153,1.153,0,0,0,44.977-1.57ZM58.133-4.148a5.07,5.07,0,0,1-.887,3.129A2.843,2.843,0,0,1,54.852.156a2.633,2.633,0,0,1-2.07-.891V3.25H50.523v-11.7h2.094l.078.828a2.654,2.654,0,0,1,2.141-.984,2.862,2.862,0,0,1,2.43,1.156,5.207,5.207,0,0,1,.867,3.188Zm-2.258-.164a3.327,3.327,0,0,0-.418-1.82,1.361,1.361,0,0,0-1.215-.641,1.479,1.479,0,0,0-1.461.813V-2.5a1.5,1.5,0,0,0,1.477.836Q55.875-1.664,55.875-4.312ZM64.43,0A2.507,2.507,0,0,1,64.2-.758,2.732,2.732,0,0,1,62.07.156a3,3,0,0,1-2.059-.719A2.312,2.312,0,0,1,59.2-2.375a2.389,2.389,0,0,1,1-2.062,4.915,4.915,0,0,1,2.879-.727h1.039v-.484a1.393,1.393,0,0,0-.3-.937,1.183,1.183,0,0,0-.949-.352,1.345,1.345,0,0,0-.895.273.929.929,0,0,0-.324.75H59.383a2.268,2.268,0,0,1,.453-1.359,3,3,0,0,1,1.281-.98,4.669,4.669,0,0,1,1.859-.355,3.689,3.689,0,0,1,2.48.785,2.747,2.747,0,0,1,.918,2.207v3.664a4.041,4.041,0,0,0,.336,1.82V0ZM62.563-1.57a1.945,1.945,0,0,0,.922-.223,1.462,1.462,0,0,0,.625-.6V-3.844h-.844q-1.7,0-1.8,1.172l-.008.133a.9.9,0,0,0,.3.7A1.153,1.153,0,0,0,62.563-1.57Z" transform="translate(1129.082 3935.367)" fill="#12263f"/>
    <path id="Trazado_192366" data-name="Trazado 192366" d="M6.651-2.6H2.481L1.545,0H.191l3.8-9.953H5.141L8.948,0H7.6ZM2.878-3.678H6.262l-1.7-4.655Zm13.46.062A4.429,4.429,0,0,1,15.565-.9,2.476,2.476,0,0,1,13.474.137a2.713,2.713,0,0,1-2.119-.854V2.844H10.09V-7.4h1.155l.062.82a2.605,2.605,0,0,1,2.146-.957,2.522,2.522,0,0,1,2.109,1,4.477,4.477,0,0,1,.776,2.8ZM15.073-3.76a3.268,3.268,0,0,0-.533-1.976,1.718,1.718,0,0,0-1.463-.725,1.859,1.859,0,0,0-1.723,1.019v3.534A1.863,1.863,0,0,0,13.091-.9a1.71,1.71,0,0,0,1.446-.721A3.567,3.567,0,0,0,15.073-3.76ZM19.318,0H18.054V-10.5h1.265Zm3.4,0H21.451V-7.4h1.265ZM21.349-9.358a.755.755,0,0,1,.188-.52.706.706,0,0,1,.557-.212.717.717,0,0,1,.561.212.747.747,0,0,1,.191.52.722.722,0,0,1-.191.513.73.73,0,0,1-.561.205.718.718,0,0,1-.557-.205A.73.73,0,0,1,21.349-9.358ZM27.706-.9a1.822,1.822,0,0,0,1.183-.41,1.443,1.443,0,0,0,.561-1.025h1.2a2.293,2.293,0,0,1-.437,1.21,2.881,2.881,0,0,1-1.077.916,3.107,3.107,0,0,1-1.425.342A3.047,3.047,0,0,1,25.3-.872a4.016,4.016,0,0,1-.892-2.758v-.212a4.453,4.453,0,0,1,.4-1.921,3.02,3.02,0,0,1,1.138-1.306A3.233,3.233,0,0,1,27.7-7.533a2.966,2.966,0,0,1,2.068.745,2.663,2.663,0,0,1,.878,1.935h-1.2a1.743,1.743,0,0,0-.543-1.179A1.691,1.691,0,0,0,27.7-6.494a1.77,1.77,0,0,0-1.494.694,3.259,3.259,0,0,0-.53,2.006v.239A3.194,3.194,0,0,0,26.2-1.586,1.779,1.779,0,0,0,27.706-.9Zm8.928.9a2.657,2.657,0,0,1-.178-.779,2.822,2.822,0,0,1-2.105.916,2.611,2.611,0,0,1-1.794-.619,2,2,0,0,1-.7-1.569,2.091,2.091,0,0,1,.878-1.794,4.142,4.142,0,0,1,2.471-.639h1.23v-.581a1.42,1.42,0,0,0-.4-1.056,1.593,1.593,0,0,0-1.169-.393,1.844,1.844,0,0,0-1.135.342,1.007,1.007,0,0,0-.458.827H32.006a1.745,1.745,0,0,1,.393-1.07,2.683,2.683,0,0,1,1.066-.817,3.588,3.588,0,0,1,1.48-.3,2.924,2.924,0,0,1,2,.639,2.306,2.306,0,0,1,.752,1.76v3.4a4.162,4.162,0,0,0,.26,1.62V0Zm-2.1-.964a2.223,2.223,0,0,0,1.128-.308,1.861,1.861,0,0,0,.772-.8V-3.589h-.991q-2.324,0-2.324,1.36a1.151,1.151,0,0,0,.4.93A1.524,1.524,0,0,0,34.535-.964ZM42.649-.9a1.822,1.822,0,0,0,1.183-.41,1.443,1.443,0,0,0,.561-1.025h1.2a2.293,2.293,0,0,1-.437,1.21,2.881,2.881,0,0,1-1.077.916,3.107,3.107,0,0,1-1.425.342,3.047,3.047,0,0,1-2.4-1.008,4.016,4.016,0,0,1-.892-2.758v-.212a4.453,4.453,0,0,1,.4-1.921,3.02,3.02,0,0,1,1.138-1.306,3.233,3.233,0,0,1,1.753-.465,2.966,2.966,0,0,1,2.068.745,2.663,2.663,0,0,1,.878,1.935h-1.2a1.743,1.743,0,0,0-.543-1.179,1.691,1.691,0,0,0-1.207-.461,1.77,1.77,0,0,0-1.494.694,3.259,3.259,0,0,0-.53,2.006v.239a3.194,3.194,0,0,0,.526,1.969A1.779,1.779,0,0,0,42.649-.9Zm5.735.9H47.12V-7.4h1.265ZM47.018-9.358a.755.755,0,0,1,.188-.52.706.706,0,0,1,.557-.212.717.717,0,0,1,.561.212.747.747,0,0,1,.191.52.722.722,0,0,1-.191.513.73.73,0,0,1-.561.205.718.718,0,0,1-.557-.205A.73.73,0,0,1,47.018-9.358Zm3.056,5.592A4.369,4.369,0,0,1,50.5-5.722a3.187,3.187,0,0,1,1.189-1.34,3.238,3.238,0,0,1,1.74-.472,3.119,3.119,0,0,1,2.444,1.046,4.024,4.024,0,0,1,.933,2.782v.089a4.407,4.407,0,0,1-.414,1.938A3.14,3.14,0,0,1,55.21-.342a3.275,3.275,0,0,1-1.767.479A3.111,3.111,0,0,1,51.006-.909a4,4,0,0,1-.933-2.769Zm1.271.15a3.164,3.164,0,0,0,.571,1.976A1.827,1.827,0,0,0,53.443-.9a1.816,1.816,0,0,0,1.531-.755,3.46,3.46,0,0,0,.567-2.116,3.159,3.159,0,0,0-.578-1.972,1.836,1.836,0,0,0-1.535-.755,1.816,1.816,0,0,0-1.511.745A3.434,3.434,0,0,0,51.345-3.616ZM54-10.5h1.531L53.7-8.49l-1.019,0Zm5.585,3.1.041.93a2.7,2.7,0,0,1,2.215-1.066q2.345,0,2.365,2.646V0H62.945V-4.895a1.7,1.7,0,0,0-.366-1.183,1.466,1.466,0,0,0-1.118-.383,1.825,1.825,0,0,0-1.08.328,2.228,2.228,0,0,0-.725.861V0H58.393V-7.4Z" transform="translate(1090.792 3996.9)" fill="#12263f"/>
    <path id="Trazado_192367" data-name="Trazado 192367" d="M8.032-8.88h-3.2V0H3.527V-8.88H.335V-9.953h7.7Zm4.341,2.618a3.79,3.79,0,0,0-.622-.048,1.667,1.667,0,0,0-1.688,1.06V0H8.8V-7.4h1.23l.021.854a1.969,1.969,0,0,1,1.764-.991,1.292,1.292,0,0,1,.561.1ZM17.828,0a2.657,2.657,0,0,1-.178-.779,2.822,2.822,0,0,1-2.105.916A2.611,2.611,0,0,1,13.75-.482a2,2,0,0,1-.7-1.569,2.091,2.091,0,0,1,.878-1.794A4.142,4.142,0,0,1,16.4-4.484h1.23v-.581a1.42,1.42,0,0,0-.4-1.056,1.593,1.593,0,0,0-1.169-.393,1.844,1.844,0,0,0-1.135.342,1.007,1.007,0,0,0-.458.827H13.2a1.745,1.745,0,0,1,.393-1.07,2.683,2.683,0,0,1,1.066-.817,3.588,3.588,0,0,1,1.48-.3,2.924,2.924,0,0,1,2,.639,2.306,2.306,0,0,1,.752,1.76v3.4a4.162,4.162,0,0,0,.26,1.62V0Zm-2.1-.964a2.223,2.223,0,0,0,1.128-.308,1.861,1.861,0,0,0,.772-.8V-3.589h-.991q-2.324,0-2.324,1.36a1.151,1.151,0,0,0,.4.93A1.524,1.524,0,0,0,15.729-.964ZM22.073-7.4l.041.93a2.7,2.7,0,0,1,2.215-1.066q2.345,0,2.365,2.646V0H25.43V-4.895a1.7,1.7,0,0,0-.366-1.183,1.466,1.466,0,0,0-1.118-.383,1.825,1.825,0,0,0-1.08.328,2.228,2.228,0,0,0-.725.861V0H20.877V-7.4ZM32.908-1.962a.931.931,0,0,0-.386-.8,3.718,3.718,0,0,0-1.347-.489,6.367,6.367,0,0,1-1.524-.492,2.169,2.169,0,0,1-.834-.684,1.635,1.635,0,0,1-.27-.943A1.919,1.919,0,0,1,29.316-6.9a3,3,0,0,1,1.965-.629,3.091,3.091,0,0,1,2.041.649A2.063,2.063,0,0,1,34.1-5.223H32.833a1.142,1.142,0,0,0-.441-.9,1.652,1.652,0,0,0-1.111-.376,1.729,1.729,0,0,0-1.08.3.947.947,0,0,0-.39.786.767.767,0,0,0,.362.69,4.458,4.458,0,0,0,1.309.444,6.821,6.821,0,0,1,1.535.506,2.239,2.239,0,0,1,.872.708,1.74,1.74,0,0,1,.284,1.008A1.893,1.893,0,0,1,33.38-.461a3.326,3.326,0,0,1-2.058.6A3.725,3.725,0,0,1,29.75-.178a2.557,2.557,0,0,1-1.07-.878,2.117,2.117,0,0,1-.386-1.22h1.265a1.309,1.309,0,0,0,.509,1.008A1.976,1.976,0,0,0,31.322-.9a2.039,2.039,0,0,0,1.152-.291A.893.893,0,0,0,32.908-1.962Zm9.16-1.654A4.429,4.429,0,0,1,41.3-.9,2.476,2.476,0,0,1,39.2.137a2.713,2.713,0,0,1-2.119-.854V2.844H35.82V-7.4h1.155l.062.82a2.605,2.605,0,0,1,2.146-.957,2.522,2.522,0,0,1,2.109,1,4.477,4.477,0,0,1,.776,2.8ZM40.8-3.76a3.268,3.268,0,0,0-.533-1.976,1.718,1.718,0,0,0-1.463-.725,1.859,1.859,0,0,0-1.723,1.019v3.534A1.863,1.863,0,0,0,38.821-.9a1.71,1.71,0,0,0,1.446-.721A3.567,3.567,0,0,0,40.8-3.76Zm2.536-.007a4.369,4.369,0,0,1,.427-1.955,3.187,3.187,0,0,1,1.189-1.34,3.238,3.238,0,0,1,1.74-.472A3.119,3.119,0,0,1,49.14-6.487a4.024,4.024,0,0,1,.933,2.782v.089a4.407,4.407,0,0,1-.414,1.938A3.14,3.14,0,0,1,48.477-.342,3.275,3.275,0,0,1,46.71.137,3.111,3.111,0,0,1,44.273-.909a4,4,0,0,1-.933-2.769Zm1.271.15a3.164,3.164,0,0,0,.571,1.976A1.827,1.827,0,0,0,46.71-.9a1.816,1.816,0,0,0,1.531-.755,3.46,3.46,0,0,0,.567-2.116,3.159,3.159,0,0,0-.578-1.972A1.836,1.836,0,0,0,46.7-6.494a1.816,1.816,0,0,0-1.511.745A3.434,3.434,0,0,0,44.611-3.616ZM55.234-6.262a3.79,3.79,0,0,0-.622-.048,1.667,1.667,0,0,0-1.688,1.06V0H51.659V-7.4h1.23l.021.854a1.969,1.969,0,0,1,1.764-.991,1.292,1.292,0,0,1,.561.1Zm3.22-2.926V-7.4h1.381v.978H58.454v4.593a1.027,1.027,0,0,0,.185.667.777.777,0,0,0,.629.222,3.062,3.062,0,0,0,.6-.082V0A3.688,3.688,0,0,1,58.9.137,1.575,1.575,0,0,1,57.62-.376a2.2,2.2,0,0,1-.431-1.456V-6.419H55.843V-7.4h1.347V-9.187ZM64.381.137a3.232,3.232,0,0,1-2.447-.988,3.666,3.666,0,0,1-.943-2.642v-.232a4.438,4.438,0,0,1,.42-1.965,3.28,3.28,0,0,1,1.176-1.354,2.956,2.956,0,0,1,1.637-.489,2.77,2.77,0,0,1,2.242.95,4.114,4.114,0,0,1,.8,2.721v.526H62.255a2.629,2.629,0,0,0,.639,1.767A2.009,2.009,0,0,0,64.449-.9a2.2,2.2,0,0,0,1.135-.273,2.851,2.851,0,0,0,.813-.725l.772.6A3.106,3.106,0,0,1,64.381.137Zm-.157-6.631a1.687,1.687,0,0,0-1.285.557A2.708,2.708,0,0,0,62.3-4.375H66v-.1a2.409,2.409,0,0,0-.52-1.494A1.588,1.588,0,0,0,64.224-6.494Z" transform="translate(1090.792 4039.361)" fill="#12263f"/>
    <path id="Trazado_192368" data-name="Trazado 192368" d="M2.563,0H1.251V-9.953H2.563Zm3.4-7.4L6-6.467A2.7,2.7,0,0,1,8.217-7.533q2.345,0,2.365,2.646V0H9.317V-4.895a1.7,1.7,0,0,0-.366-1.183A1.466,1.466,0,0,0,7.834-6.46a1.825,1.825,0,0,0-1.08.328,2.228,2.228,0,0,0-.725.861V0H4.765V-7.4Zm8.244-1.791V-7.4h1.381v.978H14.205v4.593a1.027,1.027,0,0,0,.185.667.777.777,0,0,0,.629.222,3.062,3.062,0,0,0,.6-.082V0a3.688,3.688,0,0,1-.971.136,1.575,1.575,0,0,1-1.278-.513,2.2,2.2,0,0,1-.431-1.456V-6.419H11.594V-7.4H12.94V-9.187ZM20.132.137a3.232,3.232,0,0,1-2.447-.988,3.666,3.666,0,0,1-.943-2.642v-.232a4.438,4.438,0,0,1,.42-1.965,3.28,3.28,0,0,1,1.176-1.354,2.956,2.956,0,0,1,1.637-.489,2.77,2.77,0,0,1,2.242.95,4.114,4.114,0,0,1,.8,2.721v.526H18.006a2.629,2.629,0,0,0,.639,1.767A2.009,2.009,0,0,0,20.2-.9a2.2,2.2,0,0,0,1.135-.273,2.851,2.851,0,0,0,.813-.725l.772.6A3.106,3.106,0,0,1,20.132.137Zm-.157-6.631a1.687,1.687,0,0,0-1.285.557,2.708,2.708,0,0,0-.643,1.562h3.705v-.1a2.409,2.409,0,0,0-.52-1.494A1.588,1.588,0,0,0,19.975-6.494Zm8.08.232a3.79,3.79,0,0,0-.622-.048,1.667,1.667,0,0,0-1.688,1.06V0H24.479V-7.4h1.23l.021.854a1.969,1.969,0,0,1,1.764-.991,1.292,1.292,0,0,1,.561.1ZM30.413-7.4l.041.93a2.7,2.7,0,0,1,2.215-1.066q2.345,0,2.365,2.646V0H33.77V-4.895A1.7,1.7,0,0,0,33.4-6.077a1.466,1.466,0,0,0-1.118-.383,1.825,1.825,0,0,0-1.08.328,2.228,2.228,0,0,0-.725.861V0H29.217V-7.4Zm9.6,7.533a3.232,3.232,0,0,1-2.447-.988,3.666,3.666,0,0,1-.943-2.642v-.232a4.438,4.438,0,0,1,.42-1.965,3.28,3.28,0,0,1,1.176-1.354,2.956,2.956,0,0,1,1.637-.489,2.77,2.77,0,0,1,2.242.95,4.114,4.114,0,0,1,.8,2.721v.526H37.885a2.629,2.629,0,0,0,.639,1.767A2.009,2.009,0,0,0,40.079-.9a2.2,2.2,0,0,0,1.135-.273,2.851,2.851,0,0,0,.813-.725l.772.6A3.106,3.106,0,0,1,40.011.137Zm-.157-6.631a1.687,1.687,0,0,0-1.285.557,2.708,2.708,0,0,0-.643,1.562h3.705v-.1a2.409,2.409,0,0,0-.52-1.494A1.588,1.588,0,0,0,39.854-6.494Zm6.221-2.693V-7.4h1.381v.978H46.074v4.593a1.027,1.027,0,0,0,.185.667.777.777,0,0,0,.629.222,3.062,3.062,0,0,0,.6-.082V0a3.688,3.688,0,0,1-.971.136A1.575,1.575,0,0,1,45.24-.376a2.2,2.2,0,0,1-.431-1.456V-6.419H43.463V-7.4H44.81V-9.187Z" transform="translate(1090.792 4081.822)" fill="#12263f"/>
    <path id="Trazado_192369" data-name="Trazado 192369" d="M6.651-2.6H2.481L1.545,0H.191l3.8-9.953H5.141L8.948,0H7.6ZM2.878-3.678H6.262l-1.7-4.655ZM13.057-.9a1.822,1.822,0,0,0,1.183-.41A1.443,1.443,0,0,0,14.8-2.331H16a2.293,2.293,0,0,1-.437,1.21,2.881,2.881,0,0,1-1.077.916,3.107,3.107,0,0,1-1.425.342,3.047,3.047,0,0,1-2.4-1.008A4.016,4.016,0,0,1,9.762-3.63v-.212a4.453,4.453,0,0,1,.4-1.921A3.02,3.02,0,0,1,11.3-7.068a3.233,3.233,0,0,1,1.753-.465,2.966,2.966,0,0,1,2.068.745A2.663,2.663,0,0,1,16-4.854H14.8a1.743,1.743,0,0,0-.543-1.179,1.691,1.691,0,0,0-1.207-.461,1.77,1.77,0,0,0-1.494.694,3.259,3.259,0,0,0-.53,2.006v.239a3.194,3.194,0,0,0,.526,1.969A1.779,1.779,0,0,0,13.057-.9Zm7.328,0a1.822,1.822,0,0,0,1.183-.41,1.443,1.443,0,0,0,.561-1.025h1.2a2.293,2.293,0,0,1-.437,1.21,2.881,2.881,0,0,1-1.077.916,3.107,3.107,0,0,1-1.425.342,3.047,3.047,0,0,1-2.4-1.008A4.016,4.016,0,0,1,17.09-3.63v-.212a4.453,4.453,0,0,1,.4-1.921,3.02,3.02,0,0,1,1.138-1.306,3.233,3.233,0,0,1,1.753-.465,2.966,2.966,0,0,1,2.068.745,2.663,2.663,0,0,1,.878,1.935h-1.2a1.743,1.743,0,0,0-.543-1.179,1.691,1.691,0,0,0-1.207-.461,1.77,1.77,0,0,0-1.494.694,3.259,3.259,0,0,0-.53,2.006v.239a3.194,3.194,0,0,0,.526,1.969A1.779,1.779,0,0,0,20.385-.9ZM27.815.137a3.232,3.232,0,0,1-2.447-.988,3.666,3.666,0,0,1-.943-2.642v-.232a4.438,4.438,0,0,1,.42-1.965,3.28,3.28,0,0,1,1.176-1.354,2.956,2.956,0,0,1,1.637-.489,2.77,2.77,0,0,1,2.242.95,4.114,4.114,0,0,1,.8,2.721v.526H25.689a2.629,2.629,0,0,0,.639,1.767A2.009,2.009,0,0,0,27.884-.9a2.2,2.2,0,0,0,1.135-.273,2.851,2.851,0,0,0,.813-.725l.772.6A3.106,3.106,0,0,1,27.815.137Zm-.157-6.631a1.687,1.687,0,0,0-1.285.557,2.708,2.708,0,0,0-.643,1.562h3.705v-.1a2.409,2.409,0,0,0-.52-1.494A1.588,1.588,0,0,0,27.658-6.494ZM36.47-1.962a.931.931,0,0,0-.386-.8,3.718,3.718,0,0,0-1.347-.489,6.367,6.367,0,0,1-1.524-.492,2.169,2.169,0,0,1-.834-.684,1.635,1.635,0,0,1-.27-.943A1.919,1.919,0,0,1,32.877-6.9a3,3,0,0,1,1.965-.629,3.091,3.091,0,0,1,2.041.649,2.063,2.063,0,0,1,.783,1.661H36.395a1.142,1.142,0,0,0-.441-.9,1.652,1.652,0,0,0-1.111-.376,1.729,1.729,0,0,0-1.08.3.947.947,0,0,0-.39.786.767.767,0,0,0,.362.69,4.458,4.458,0,0,0,1.309.444,6.821,6.821,0,0,1,1.535.506,2.239,2.239,0,0,1,.872.708,1.74,1.74,0,0,1,.284,1.008,1.893,1.893,0,0,1-.793,1.589,3.326,3.326,0,0,1-2.058.6,3.725,3.725,0,0,1-1.572-.314,2.557,2.557,0,0,1-1.07-.878,2.117,2.117,0,0,1-.386-1.22H33.12a1.309,1.309,0,0,0,.509,1.008A1.976,1.976,0,0,0,34.884-.9a2.039,2.039,0,0,0,1.152-.291A.893.893,0,0,0,36.47-1.962Zm2.577-1.8a4.369,4.369,0,0,1,.427-1.955,3.187,3.187,0,0,1,1.189-1.34,3.238,3.238,0,0,1,1.74-.472,3.119,3.119,0,0,1,2.444,1.046,4.024,4.024,0,0,1,.933,2.782v.089a4.407,4.407,0,0,1-.414,1.938A3.14,3.14,0,0,1,44.184-.342a3.275,3.275,0,0,1-1.767.479A3.111,3.111,0,0,1,39.98-.909a4,4,0,0,1-.933-2.769Zm1.271.15a3.164,3.164,0,0,0,.571,1.976A1.827,1.827,0,0,0,42.417-.9a1.816,1.816,0,0,0,1.531-.755,3.46,3.46,0,0,0,.567-2.116,3.159,3.159,0,0,0-.578-1.972A1.836,1.836,0,0,0,42.4-6.494a1.816,1.816,0,0,0-1.511.745A3.434,3.434,0,0,0,40.318-3.616ZM55.4,0a2.657,2.657,0,0,1-.178-.779,2.822,2.822,0,0,1-2.105.916,2.611,2.611,0,0,1-1.794-.619,2,2,0,0,1-.7-1.569A2.091,2.091,0,0,1,51.5-3.845a4.142,4.142,0,0,1,2.471-.639H55.2v-.581a1.42,1.42,0,0,0-.4-1.056,1.593,1.593,0,0,0-1.169-.393,1.844,1.844,0,0,0-1.135.342,1.007,1.007,0,0,0-.458.827H50.771a1.745,1.745,0,0,1,.393-1.07,2.683,2.683,0,0,1,1.066-.817,3.588,3.588,0,0,1,1.48-.3,2.924,2.924,0,0,1,2,.639,2.306,2.306,0,0,1,.752,1.76v3.4a4.162,4.162,0,0,0,.26,1.62V0ZM53.3-.964a2.223,2.223,0,0,0,1.128-.308,1.861,1.861,0,0,0,.772-.8V-3.589h-.991q-2.324,0-2.324,1.36a1.151,1.151,0,0,0,.4.93A1.524,1.524,0,0,0,53.3-.964ZM63.287,0H62.022V-10.5h1.265Zm6.59,0A2.657,2.657,0,0,1,69.7-.779a2.822,2.822,0,0,1-2.105.916A2.611,2.611,0,0,1,65.8-.482a2,2,0,0,1-.7-1.569,2.091,2.091,0,0,1,.878-1.794,4.141,4.141,0,0,1,2.471-.639h1.23v-.581a1.42,1.42,0,0,0-.4-1.056,1.593,1.593,0,0,0-1.169-.393,1.844,1.844,0,0,0-1.135.342,1.007,1.007,0,0,0-.458.827H65.249a1.745,1.745,0,0,1,.393-1.07,2.683,2.683,0,0,1,1.066-.817,3.588,3.588,0,0,1,1.48-.3,2.924,2.924,0,0,1,2,.639,2.306,2.306,0,0,1,.752,1.76v3.4a4.162,4.162,0,0,0,.26,1.62V0Zm-2.1-.964a2.223,2.223,0,0,0,1.128-.308,1.861,1.861,0,0,0,.772-.8V-3.589h-.991q-2.324,0-2.324,1.36a1.151,1.151,0,0,0,.4.93A1.524,1.524,0,0,0,67.778-.964Zm12.188-5.3a3.79,3.79,0,0,0-.622-.048,1.667,1.667,0,0,0-1.688,1.06V0H76.392V-7.4h1.23l.021.854a1.969,1.969,0,0,1,1.764-.991,1.292,1.292,0,0,1,.561.1Zm4.1,6.4a3.232,3.232,0,0,1-2.447-.988,3.666,3.666,0,0,1-.943-2.642v-.232a4.438,4.438,0,0,1,.42-1.965,3.28,3.28,0,0,1,1.176-1.354,2.956,2.956,0,0,1,1.637-.489,2.77,2.77,0,0,1,2.242.95,4.114,4.114,0,0,1,.8,2.721v.526H81.942a2.629,2.629,0,0,0,.639,1.767A2.009,2.009,0,0,0,84.137-.9a2.2,2.2,0,0,0,1.135-.273,2.851,2.851,0,0,0,.813-.725l.772.6A3.106,3.106,0,0,1,84.068.137Zm-.157-6.631a1.687,1.687,0,0,0-1.285.557,2.708,2.708,0,0,0-.643,1.562h3.705v-.1a2.409,2.409,0,0,0-.52-1.494A1.588,1.588,0,0,0,83.911-6.494Zm4.2,2.734A4.333,4.333,0,0,1,88.915-6.5a2.551,2.551,0,0,1,2.112-1.036,2.565,2.565,0,0,1,2.058.889V-10.5H94.35V0H93.188l-.062-.793a2.575,2.575,0,0,1-2.112.93,2.526,2.526,0,0,1-2.1-1.053,4.382,4.382,0,0,1-.81-2.748Zm1.265.144a3.281,3.281,0,0,0,.52,1.969,1.68,1.68,0,0,0,1.436.711,1.845,1.845,0,0,0,1.757-1.08v-3.4A1.859,1.859,0,0,0,91.342-6.46a1.687,1.687,0,0,0-1.449.718A3.612,3.612,0,0,0,89.373-3.616Z" transform="translate(1090.792 4124.282)" fill="#12263f"/>
    <path id="Trazado_192370" data-name="Trazado 192370" d="M-80.572-3.507V0h-2.051V-9.953h3.883a4.492,4.492,0,0,1,1.972.41,3.022,3.022,0,0,1,1.309,1.166A3.25,3.25,0,0,1-75-6.658a2.858,2.858,0,0,1-1,2.307,4.171,4.171,0,0,1-2.772.844Zm0-1.661h1.832A1.8,1.8,0,0,0-77.5-5.551a1.392,1.392,0,0,0,.427-1.094A1.642,1.642,0,0,0-77.5-7.827a1.609,1.609,0,0,0-1.189-.465h-1.88Zm11.006-.376a5.367,5.367,0,0,0-.711-.055,1.447,1.447,0,0,0-1.47.759V0h-1.976V-7.4h1.866l.055.882a1.831,1.831,0,0,1,1.647-1.019,2.07,2.07,0,0,1,.615.089Zm.4,1.777a4.387,4.387,0,0,1,.424-1.962,3.1,3.1,0,0,1,1.22-1.333,3.56,3.56,0,0,1,1.849-.472,3.368,3.368,0,0,1,2.444.916,3.676,3.676,0,0,1,1.056,2.488l.014.506a3.866,3.866,0,0,1-.95,2.731A3.3,3.3,0,0,1-65.663.137,3.319,3.319,0,0,1-68.216-.889a3.934,3.934,0,0,1-.954-2.789Zm1.976.14a2.765,2.765,0,0,0,.4,1.612,1.308,1.308,0,0,0,1.135.558,1.311,1.311,0,0,0,1.121-.551,3.025,3.025,0,0,0,.4-1.763,2.737,2.737,0,0,0-.4-1.6,1.311,1.311,0,0,0-1.135-.568,1.29,1.29,0,0,0-1.121.565A3.076,3.076,0,0,0-67.194-3.626Zm8.613-5.588V-7.4h1.265v1.449h-1.265v3.691a.881.881,0,0,0,.157.588.79.79,0,0,0,.6.178,3.151,3.151,0,0,0,.581-.048v1.5a4.067,4.067,0,0,1-1.2.178,1.886,1.886,0,0,1-2.119-2.1V-5.947h-1.08V-7.4h1.08V-9.215Zm1.853,5.448A4.387,4.387,0,0,1-56.3-5.729a3.1,3.1,0,0,1,1.22-1.333,3.56,3.56,0,0,1,1.849-.472,3.368,3.368,0,0,1,2.444.916,3.676,3.676,0,0,1,1.056,2.488l.014.506a3.866,3.866,0,0,1-.95,2.731A3.3,3.3,0,0,1-53.221.137,3.319,3.319,0,0,1-55.774-.889a3.934,3.934,0,0,1-.954-2.789Zm1.976.14a2.765,2.765,0,0,0,.4,1.612,1.308,1.308,0,0,0,1.135.558A1.311,1.311,0,0,0-52.1-2.007a3.025,3.025,0,0,0,.4-1.763,2.737,2.737,0,0,0-.4-1.6,1.311,1.311,0,0,0-1.135-.568,1.29,1.29,0,0,0-1.121.565A3.076,3.076,0,0,0-54.752-3.626Zm9.324,2.17a1.3,1.3,0,0,0,.889-.3,1.054,1.054,0,0,0,.355-.8h1.853a2.534,2.534,0,0,1-.41,1.377,2.706,2.706,0,0,1-1.1.971,3.455,3.455,0,0,1-1.548.345A3.211,3.211,0,0,1-47.9-.872a3.99,3.99,0,0,1-.916-2.786v-.13A3.944,3.944,0,0,1-47.9-6.515a3.174,3.174,0,0,1,2.5-1.019,3.111,3.111,0,0,1,2.225.79,2.8,2.8,0,0,1,.851,2.1h-1.853a1.358,1.358,0,0,0-.355-.938,1.185,1.185,0,0,0-.9-.361,1.19,1.19,0,0,0-1.042.5A2.916,2.916,0,0,0-46.836-3.8V-3.6a2.953,2.953,0,0,0,.349,1.643A1.2,1.2,0,0,0-45.428-1.456Zm3.917-2.311a4.387,4.387,0,0,1,.424-1.962,3.1,3.1,0,0,1,1.22-1.333,3.56,3.56,0,0,1,1.849-.472,3.368,3.368,0,0,1,2.444.916,3.676,3.676,0,0,1,1.056,2.488l.014.506a3.866,3.866,0,0,1-.95,2.731A3.3,3.3,0,0,1-38,.137,3.319,3.319,0,0,1-40.558-.889a3.934,3.934,0,0,1-.954-2.789Zm1.976.14a2.765,2.765,0,0,0,.4,1.612A1.308,1.308,0,0,0-38-1.456a1.311,1.311,0,0,0,1.121-.551,3.025,3.025,0,0,0,.4-1.763,2.737,2.737,0,0,0-.4-1.6,1.311,1.311,0,0,0-1.135-.568,1.29,1.29,0,0,0-1.121.565A3.076,3.076,0,0,0-39.536-3.626ZM-31.2,0h-1.982V-10.5H-31.2Zm1.319-3.767a4.387,4.387,0,0,1,.424-1.962,3.1,3.1,0,0,1,1.22-1.333,3.56,3.56,0,0,1,1.849-.472,3.368,3.368,0,0,1,2.444.916A3.676,3.676,0,0,1-22.89-4.129l.014.506a3.866,3.866,0,0,1-.95,2.731A3.3,3.3,0,0,1-26.376.137,3.319,3.319,0,0,1-28.93-.889a3.934,3.934,0,0,1-.954-2.789Zm1.976.14a2.765,2.765,0,0,0,.4,1.612,1.308,1.308,0,0,0,1.135.558,1.311,1.311,0,0,0,1.121-.551,3.025,3.025,0,0,0,.4-1.763,2.737,2.737,0,0,0-.4-1.6A1.311,1.311,0,0,0-26.39-5.94a1.29,1.29,0,0,0-1.121.565A3.076,3.076,0,0,0-27.908-3.626Zm9.427-.127a4.457,4.457,0,0,1,.776-2.755,2.517,2.517,0,0,1,2.123-1.025,2.265,2.265,0,0,1,1.784.807V-10.5h1.982V0H-13.6l-.1-.786a2.325,2.325,0,0,1-1.9.923,2.511,2.511,0,0,1-2.1-1.029A4.6,4.6,0,0,1-18.481-3.753Zm1.976.147a2.92,2.92,0,0,0,.362,1.6,1.18,1.18,0,0,0,1.053.555A1.322,1.322,0,0,0-13.8-2.23V-5.153a1.3,1.3,0,0,0-1.278-.774Q-16.505-5.927-16.505-3.606ZM-6.88.137a3.631,3.631,0,0,1-2.649-1,3.548,3.548,0,0,1-1.022-2.659v-.191A4.468,4.468,0,0,1-10.121-5.7,3.161,3.161,0,0,1-8.9-7.058a3.425,3.425,0,0,1,1.8-.475,3.07,3.07,0,0,1,2.389.957,3.889,3.889,0,0,1,.872,2.714v.807h-4.71a1.835,1.835,0,0,0,.578,1.162,1.746,1.746,0,0,0,1.22.438,2.132,2.132,0,0,0,1.784-.827L-4-1.2a2.966,2.966,0,0,1-1.2.981A3.947,3.947,0,0,1-6.88.137ZM-7.106-5.94a1.234,1.234,0,0,0-.954.4A2.062,2.062,0,0,0-8.528-4.4H-5.78V-4.56a1.471,1.471,0,0,0-.355-1.02A1.274,1.274,0,0,0-7.106-5.94ZM3.134-9.215V-7.4H4.4v1.449H3.134v3.691a.881.881,0,0,0,.157.588.79.79,0,0,0,.6.178,3.151,3.151,0,0,0,.581-.048v1.5a4.067,4.067,0,0,1-1.2.178,1.886,1.886,0,0,1-2.119-2.1V-5.947H.079V-7.4h1.08V-9.215ZM9.656-5.544A5.367,5.367,0,0,0,8.945-5.6a1.447,1.447,0,0,0-1.47.759V0H5.5V-7.4H7.366l.055.882A1.831,1.831,0,0,1,9.068-7.533a2.07,2.07,0,0,1,.615.089ZM14.687,0a2.194,2.194,0,0,1-.2-.663,2.39,2.39,0,0,1-1.866.8,2.626,2.626,0,0,1-1.8-.629,2.023,2.023,0,0,1-.714-1.586,2.09,2.09,0,0,1,.872-1.8A4.3,4.3,0,0,1,13.5-4.519h.909v-.424a1.219,1.219,0,0,0-.263-.82,1.035,1.035,0,0,0-.831-.308,1.177,1.177,0,0,0-.783.239.813.813,0,0,0-.284.656H10.271a1.984,1.984,0,0,1,.4-1.189,2.621,2.621,0,0,1,1.121-.858,4.086,4.086,0,0,1,1.627-.311,3.228,3.228,0,0,1,2.17.687,2.4,2.4,0,0,1,.8,1.931v3.206a3.536,3.536,0,0,0,.294,1.593V0ZM13.053-1.374a1.7,1.7,0,0,0,.807-.195,1.28,1.28,0,0,0,.547-.523V-3.363h-.738q-1.483,0-1.579,1.025l-.007.116a.791.791,0,0,0,.26.608A1.009,1.009,0,0,0,13.053-1.374ZM19.725-7.4l.062.854a2.582,2.582,0,0,1,2.126-.991,2.146,2.146,0,0,1,1.75.69,3.221,3.221,0,0,1,.588,2.064V0H22.275V-4.73A1.282,1.282,0,0,0,22-5.643a1.224,1.224,0,0,0-.909-.284,1.359,1.359,0,0,0-1.251.711V0H17.866V-7.4ZM29.753-2.044a.637.637,0,0,0-.359-.571,4.077,4.077,0,0,0-1.152-.373Q25.6-3.541,25.6-5.229a2.032,2.032,0,0,1,.817-1.644,3.3,3.3,0,0,1,2.136-.66,3.547,3.547,0,0,1,2.252.663,2.09,2.09,0,0,1,.844,1.723H29.678a.956.956,0,0,0-.273-.7,1.157,1.157,0,0,0-.854-.277,1.182,1.182,0,0,0-.772.226.712.712,0,0,0-.273.574.609.609,0,0,0,.311.53,3.2,3.2,0,0,0,1.049.349,8.571,8.571,0,0,1,1.244.332,2.044,2.044,0,0,1,1.565,1.989,1.929,1.929,0,0,1-.868,1.637,3.745,3.745,0,0,1-2.242.625,3.912,3.912,0,0,1-1.651-.332A2.77,2.77,0,0,1,25.782-1.1a2.113,2.113,0,0,1-.41-1.248h1.873a1.031,1.031,0,0,0,.39.807,1.546,1.546,0,0,0,.971.28,1.43,1.43,0,0,0,.858-.215A.67.67,0,0,0,29.753-2.044ZM33.486,0V-5.947h-1.1V-7.4h1.1v-.629A2.553,2.553,0,0,1,34.2-9.957a2.767,2.767,0,0,1,2-.687,4.618,4.618,0,0,1,1,.137l-.021,1.531a2.519,2.519,0,0,0-.6-.062q-1.114,0-1.114,1.046V-7.4h1.47v1.449h-1.47V0ZM41.2.137a3.631,3.631,0,0,1-2.649-1,3.548,3.548,0,0,1-1.022-2.659v-.191A4.468,4.468,0,0,1,37.963-5.7a3.161,3.161,0,0,1,1.22-1.354,3.425,3.425,0,0,1,1.8-.475,3.07,3.07,0,0,1,2.389.957,3.889,3.889,0,0,1,.872,2.714v.807h-4.71a1.835,1.835,0,0,0,.578,1.162,1.746,1.746,0,0,0,1.22.438,2.132,2.132,0,0,0,1.784-.827L44.088-1.2a2.966,2.966,0,0,1-1.2.981A3.947,3.947,0,0,1,41.2.137ZM40.978-5.94a1.234,1.234,0,0,0-.954.4,2.062,2.062,0,0,0-.468,1.14H42.3V-4.56a1.471,1.471,0,0,0-.355-1.02A1.274,1.274,0,0,0,40.978-5.94Zm8.545.4a5.367,5.367,0,0,0-.711-.055,1.447,1.447,0,0,0-1.47.759V0H45.367V-7.4h1.866l.055.882a1.831,1.831,0,0,1,1.647-1.019,2.07,2.07,0,0,1,.615.089ZM53.748.137a3.631,3.631,0,0,1-2.649-1,3.548,3.548,0,0,1-1.022-2.659v-.191A4.468,4.468,0,0,1,50.507-5.7a3.161,3.161,0,0,1,1.22-1.354,3.425,3.425,0,0,1,1.8-.475,3.07,3.07,0,0,1,2.389.957,3.889,3.889,0,0,1,.872,2.714v.807H52.08a1.835,1.835,0,0,0,.578,1.162,1.746,1.746,0,0,0,1.22.438,2.132,2.132,0,0,0,1.784-.827L56.632-1.2a2.966,2.966,0,0,1-1.2.981A3.947,3.947,0,0,1,53.748.137ZM53.522-5.94a1.234,1.234,0,0,0-.954.4A2.062,2.062,0,0,0,52.1-4.4h2.748V-4.56a1.471,1.471,0,0,0-.355-1.02A1.274,1.274,0,0,0,53.522-5.94ZM59.729-7.4l.062.854a2.582,2.582,0,0,1,2.126-.991,2.146,2.146,0,0,1,1.75.69,3.221,3.221,0,0,1,.588,2.064V0H62.279V-4.73a1.282,1.282,0,0,0-.273-.913,1.224,1.224,0,0,0-.909-.284,1.359,1.359,0,0,0-1.251.711V0H57.87V-7.4Zm9.1,5.94a1.3,1.3,0,0,0,.889-.3,1.054,1.054,0,0,0,.355-.8h1.853a2.534,2.534,0,0,1-.41,1.377,2.706,2.706,0,0,1-1.1.971,3.455,3.455,0,0,1-1.548.345,3.211,3.211,0,0,1-2.5-1.008,3.99,3.99,0,0,1-.916-2.786v-.13a3.944,3.944,0,0,1,.909-2.728,3.174,3.174,0,0,1,2.5-1.019,3.111,3.111,0,0,1,2.225.79,2.8,2.8,0,0,1,.851,2.1H70.072a1.358,1.358,0,0,0-.355-.938,1.185,1.185,0,0,0-.9-.361,1.19,1.19,0,0,0-1.042.5A2.916,2.916,0,0,0,67.419-3.8V-3.6a2.953,2.953,0,0,0,.349,1.643A1.2,1.2,0,0,0,68.828-1.456ZM75.137,0H73.155V-7.4h1.982Zm-2.1-9.311a.973.973,0,0,1,.3-.731,1.117,1.117,0,0,1,.81-.287,1.12,1.12,0,0,1,.807.287.967.967,0,0,1,.3.731.97.97,0,0,1-.3.738,1.122,1.122,0,0,1-.8.287,1.122,1.122,0,0,1-.8-.287A.97.97,0,0,1,73.039-9.311ZM81.05,0a2.194,2.194,0,0,1-.2-.663,2.39,2.39,0,0,1-1.866.8,2.626,2.626,0,0,1-1.8-.629,2.023,2.023,0,0,1-.714-1.586,2.09,2.09,0,0,1,.872-1.8,4.3,4.3,0,0,1,2.519-.636h.909v-.424a1.219,1.219,0,0,0-.263-.82,1.035,1.035,0,0,0-.831-.308,1.177,1.177,0,0,0-.783.239.813.813,0,0,0-.284.656H76.634a1.985,1.985,0,0,1,.4-1.189,2.621,2.621,0,0,1,1.121-.858,4.086,4.086,0,0,1,1.627-.311,3.228,3.228,0,0,1,2.17.687,2.4,2.4,0,0,1,.8,1.931v3.206a3.536,3.536,0,0,0,.294,1.593V0ZM79.417-1.374a1.7,1.7,0,0,0,.807-.195,1.28,1.28,0,0,0,.547-.523V-3.363h-.738q-1.483,0-1.579,1.025l-.007.116a.791.791,0,0,0,.26.608A1.009,1.009,0,0,0,79.417-1.374ZM-65.919,12.247a4.457,4.457,0,0,1,.776-2.755,2.517,2.517,0,0,1,2.123-1.025,2.265,2.265,0,0,1,1.784.807V5.5h1.982V16h-1.784l-.1-.786a2.325,2.325,0,0,1-1.9.923,2.511,2.511,0,0,1-2.1-1.029A4.6,4.6,0,0,1-65.919,12.247Zm1.976.147a2.92,2.92,0,0,0,.362,1.6,1.18,1.18,0,0,0,1.053.555,1.322,1.322,0,0,0,1.292-.774V10.847a1.3,1.3,0,0,0-1.278-.774Q-63.943,10.073-63.943,12.394Zm9.625,3.743a3.631,3.631,0,0,1-2.649-1,3.548,3.548,0,0,1-1.022-2.659v-.191a4.468,4.468,0,0,1,.431-1.993,3.161,3.161,0,0,1,1.22-1.354,3.425,3.425,0,0,1,1.8-.475,3.07,3.07,0,0,1,2.389.957,3.889,3.889,0,0,1,.872,2.714v.807h-4.71a1.835,1.835,0,0,0,.578,1.162,1.746,1.746,0,0,0,1.22.438,2.132,2.132,0,0,0,1.784-.827l.971,1.087a2.966,2.966,0,0,1-1.2.981A3.947,3.947,0,0,1-54.318,16.137Zm-.226-6.077a1.234,1.234,0,0,0-.954.4,2.062,2.062,0,0,0-.468,1.14h2.748V11.44a1.471,1.471,0,0,0-.355-1.02A1.274,1.274,0,0,0-54.544,10.06Zm9.8-.649a2.466,2.466,0,0,1,1.976-.943q2.406,0,2.44,2.8V16H-42.3V11.317a1.374,1.374,0,0,0-.273-.94,1.172,1.172,0,0,0-.909-.3,1.345,1.345,0,0,0-1.258.67V16h-1.976V5.5h1.976ZM-36.75,16h-1.982V8.6h1.982Zm-2.1-9.311a.973.973,0,0,1,.3-.731,1.117,1.117,0,0,1,.81-.287,1.12,1.12,0,0,1,.807.287.967.967,0,0,1,.3.731.97.97,0,0,1-.3.738,1.122,1.122,0,0,1-.8.287,1.122,1.122,0,0,1-.8-.287A.97.97,0,0,1-38.849,6.689Zm10.384,5.681a4.436,4.436,0,0,1-.776,2.738,2.488,2.488,0,0,1-2.1,1.029,2.3,2.3,0,0,1-1.812-.779v3.486h-1.976V8.6h1.832l.068.725a2.322,2.322,0,0,1,1.873-.861,2.5,2.5,0,0,1,2.126,1.012,4.556,4.556,0,0,1,.759,2.789Zm-1.976-.144a2.911,2.911,0,0,0-.366-1.593,1.191,1.191,0,0,0-1.063-.561,1.294,1.294,0,0,0-1.278.711v3.028a1.316,1.316,0,0,0,1.292.731Q-30.44,14.544-30.44,12.227Zm6.6,3.91a3.631,3.631,0,0,1-2.649-1,3.548,3.548,0,0,1-1.022-2.659v-.191a4.468,4.468,0,0,1,.431-1.993,3.161,3.161,0,0,1,1.22-1.354,3.425,3.425,0,0,1,1.8-.475,3.07,3.07,0,0,1,2.389.957,3.889,3.889,0,0,1,.872,2.714v.807H-25.5a1.835,1.835,0,0,0,.578,1.162,1.746,1.746,0,0,0,1.22.438,2.132,2.132,0,0,0,1.784-.827l.971,1.087a2.966,2.966,0,0,1-1.2.981A3.947,3.947,0,0,1-23.837,16.137Zm-.226-6.077a1.234,1.234,0,0,0-.954.4,2.062,2.062,0,0,0-.468,1.14h2.748V11.44a1.471,1.471,0,0,0-.355-1.02A1.274,1.274,0,0,0-24.062,10.06Zm8.545.4a5.367,5.367,0,0,0-.711-.055,1.447,1.447,0,0,0-1.47.759V16h-1.976V8.6h1.866l.055.882a1.831,1.831,0,0,1,1.647-1.019,2.07,2.07,0,0,1,.615.089Zm3.657-3.671V8.6H-10.6v1.449H-11.86v3.691a.881.881,0,0,0,.157.588.79.79,0,0,0,.6.178,3.15,3.15,0,0,0,.581-.048v1.5a4.067,4.067,0,0,1-1.2.178,1.886,1.886,0,0,1-2.119-2.1V10.053h-1.08V8.6h1.08V6.785Zm5.77,9.352a3.631,3.631,0,0,1-2.649-1,3.548,3.548,0,0,1-1.022-2.659v-.191A4.468,4.468,0,0,1-9.331,10.3a3.161,3.161,0,0,1,1.22-1.354,3.425,3.425,0,0,1,1.8-.475,3.07,3.07,0,0,1,2.389.957,3.889,3.889,0,0,1,.872,2.714v.807h-4.71a1.835,1.835,0,0,0,.578,1.162,1.746,1.746,0,0,0,1.22.438,2.132,2.132,0,0,0,1.784-.827l.971,1.087a2.966,2.966,0,0,1-1.2.981A3.947,3.947,0,0,1-6.091,16.137Zm-.226-6.077a1.234,1.234,0,0,0-.954.4,2.062,2.062,0,0,0-.468,1.14H-4.99V11.44a1.471,1.471,0,0,0-.355-1.02A1.274,1.274,0,0,0-6.316,10.06Zm7.205.752L2.133,8.6H4.245L2.14,12.227,4.334,16H2.215L.9,13.676-.417,16H-2.543l2.194-3.773L-2.447,8.6H-.328ZM7.561,6.785V8.6H8.825v1.449H7.561v3.691a.881.881,0,0,0,.157.588.79.79,0,0,0,.6.178,3.15,3.15,0,0,0,.581-.048v1.5a4.067,4.067,0,0,1-1.2.178,1.886,1.886,0,0,1-2.119-2.1V10.053H4.5V8.6h1.08V6.785Zm1.853,5.448a4.387,4.387,0,0,1,.424-1.962,3.1,3.1,0,0,1,1.22-1.333,3.56,3.56,0,0,1,1.849-.472,3.368,3.368,0,0,1,2.444.916,3.676,3.676,0,0,1,1.056,2.488l.014.506a3.866,3.866,0,0,1-.95,2.731,3.3,3.3,0,0,1-2.55,1.029,3.319,3.319,0,0,1-2.553-1.025,3.934,3.934,0,0,1-.954-2.789Zm1.976.14a2.765,2.765,0,0,0,.4,1.612,1.424,1.424,0,0,0,2.256.007,3.025,3.025,0,0,0,.4-1.763,2.737,2.737,0,0,0-.4-1.6,1.311,1.311,0,0,0-1.135-.568,1.29,1.29,0,0,0-1.121.565A3.076,3.076,0,0,0,11.389,12.374Zm9.823-.421a10.491,10.491,0,0,1,.417-2.98,7.865,7.865,0,0,1,1.23-2.505,4.6,4.6,0,0,1,1.764-1.514l.383,1.066A4.758,4.758,0,0,0,23.447,8.3a10.572,10.572,0,0,0-.561,3.609v.212a10.774,10.774,0,0,0,.554,3.623,4.851,4.851,0,0,0,1.565,2.317l-.383,1.046a4.6,4.6,0,0,1-1.733-1.473A7.734,7.734,0,0,1,21.663,15.2a10.428,10.428,0,0,1-.451-2.885ZM34.269,16H32.218V11.734h-4V16H26.168V6.047h2.051V10.08h4V6.047h2.051Zm9.085-8.292H40.3V16H38.254V7.708H35.246V6.047h8.107Zm8.771,0H49.075V16H47.024V7.708H44.017V6.047h8.107Zm3.22,4.785V16H53.293V6.047h3.883a4.492,4.492,0,0,1,1.972.41,3.022,3.022,0,0,1,1.309,1.166,3.25,3.25,0,0,1,.458,1.719,2.858,2.858,0,0,1-1,2.307,4.171,4.171,0,0,1-2.772.844Zm0-1.661h1.832a1.8,1.8,0,0,0,1.241-.383,1.392,1.392,0,0,0,.427-1.094,1.642,1.642,0,0,0-.431-1.183,1.609,1.609,0,0,0-1.189-.465h-1.88ZM65.6,12.11a9.955,9.955,0,0,1-.444,2.974,8.072,8.072,0,0,1-1.278,2.522,4.606,4.606,0,0,1-1.784,1.5l-.383-1.046a4.807,4.807,0,0,0,1.531-2.256A10.446,10.446,0,0,0,63.82,12.3v-.362a10.682,10.682,0,0,0-.557-3.6A5.011,5.011,0,0,0,61.708,6l.383-1.046a4.607,4.607,0,0,1,1.753,1.463,7.968,7.968,0,0,1,1.278,2.468A9.884,9.884,0,0,1,65.6,11.8Z" transform="translate(1299.978 3989.115)" fill="#12263f"/>
    <path id="Trazado_192371" data-name="Trazado 192371" d="M-60.959-3.507V0H-63.01V-9.953h3.883a4.492,4.492,0,0,1,1.972.41,3.022,3.022,0,0,1,1.309,1.166,3.25,3.25,0,0,1,.458,1.719,2.858,2.858,0,0,1-1,2.307,4.171,4.171,0,0,1-2.772.844Zm0-1.661h1.832a1.8,1.8,0,0,0,1.241-.383,1.392,1.392,0,0,0,.427-1.094,1.642,1.642,0,0,0-.431-1.183,1.609,1.609,0,0,0-1.189-.465h-1.88Zm11.006-.376a5.367,5.367,0,0,0-.711-.055,1.447,1.447,0,0,0-1.47.759V0H-54.11V-7.4h1.866l.055.882a1.831,1.831,0,0,1,1.647-1.019,2.07,2.07,0,0,1,.615.089Zm.4,1.777a4.387,4.387,0,0,1,.424-1.962,3.1,3.1,0,0,1,1.22-1.333,3.56,3.56,0,0,1,1.849-.472,3.368,3.368,0,0,1,2.444.916,3.676,3.676,0,0,1,1.056,2.488l.014.506A3.866,3.866,0,0,1-43.5-.892,3.3,3.3,0,0,1-46.05.137,3.319,3.319,0,0,1-48.6-.889a3.934,3.934,0,0,1-.954-2.789Zm1.976.14a2.765,2.765,0,0,0,.4,1.612,1.308,1.308,0,0,0,1.135.558,1.311,1.311,0,0,0,1.121-.551,3.025,3.025,0,0,0,.4-1.763,2.737,2.737,0,0,0-.4-1.6,1.311,1.311,0,0,0-1.135-.568,1.29,1.29,0,0,0-1.121.565A3.076,3.076,0,0,0-47.582-3.626Zm8.613-5.588V-7.4H-37.7v1.449h-1.265v3.691a.881.881,0,0,0,.157.588.79.79,0,0,0,.6.178,3.151,3.151,0,0,0,.581-.048v1.5a4.067,4.067,0,0,1-1.2.178,1.886,1.886,0,0,1-2.119-2.1V-5.947h-1.08V-7.4h1.08V-9.215Zm1.853,5.448a4.387,4.387,0,0,1,.424-1.962,3.1,3.1,0,0,1,1.22-1.333,3.56,3.56,0,0,1,1.849-.472,3.368,3.368,0,0,1,2.444.916,3.676,3.676,0,0,1,1.056,2.488l.014.506a3.866,3.866,0,0,1-.95,2.731A3.3,3.3,0,0,1-33.609.137,3.319,3.319,0,0,1-36.162-.889a3.934,3.934,0,0,1-.954-2.789Zm1.976.14a2.765,2.765,0,0,0,.4,1.612,1.308,1.308,0,0,0,1.135.558,1.311,1.311,0,0,0,1.121-.551,3.025,3.025,0,0,0,.4-1.763,2.737,2.737,0,0,0-.4-1.6,1.311,1.311,0,0,0-1.135-.568,1.29,1.29,0,0,0-1.121.565A3.076,3.076,0,0,0-35.14-3.626Zm9.324,2.17a1.3,1.3,0,0,0,.889-.3,1.054,1.054,0,0,0,.355-.8h1.853a2.534,2.534,0,0,1-.41,1.377,2.706,2.706,0,0,1-1.1.971,3.455,3.455,0,0,1-1.548.345,3.211,3.211,0,0,1-2.5-1.008A3.99,3.99,0,0,1-29.2-3.657v-.13a3.944,3.944,0,0,1,.909-2.728,3.174,3.174,0,0,1,2.5-1.019,3.111,3.111,0,0,1,2.225.79,2.8,2.8,0,0,1,.851,2.1h-1.853a1.358,1.358,0,0,0-.355-.938,1.185,1.185,0,0,0-.9-.361,1.19,1.19,0,0,0-1.042.5A2.916,2.916,0,0,0-27.224-3.8V-3.6a2.953,2.953,0,0,0,.349,1.643A1.2,1.2,0,0,0-25.816-1.456ZM-21.9-3.767a4.387,4.387,0,0,1,.424-1.962,3.1,3.1,0,0,1,1.22-1.333,3.56,3.56,0,0,1,1.849-.472,3.368,3.368,0,0,1,2.444.916,3.676,3.676,0,0,1,1.056,2.488l.014.506a3.866,3.866,0,0,1-.95,2.731A3.3,3.3,0,0,1-18.392.137,3.319,3.319,0,0,1-20.945-.889,3.934,3.934,0,0,1-21.9-3.678Zm1.976.14a2.765,2.765,0,0,0,.4,1.612,1.308,1.308,0,0,0,1.135.558,1.311,1.311,0,0,0,1.121-.551,3.025,3.025,0,0,0,.4-1.763,2.737,2.737,0,0,0-.4-1.6,1.311,1.311,0,0,0-1.135-.568,1.29,1.29,0,0,0-1.121.565A3.076,3.076,0,0,0-19.923-3.626ZM-11.59,0h-1.982V-10.5h1.982Zm1.319-3.767a4.387,4.387,0,0,1,.424-1.962,3.1,3.1,0,0,1,1.22-1.333,3.56,3.56,0,0,1,1.849-.472,3.368,3.368,0,0,1,2.444.916A3.676,3.676,0,0,1-3.278-4.129l.014.506a3.866,3.866,0,0,1-.95,2.731A3.3,3.3,0,0,1-6.764.137,3.319,3.319,0,0,1-9.317-.889a3.934,3.934,0,0,1-.954-2.789Zm1.976.14a2.765,2.765,0,0,0,.4,1.612,1.308,1.308,0,0,0,1.135.558,1.311,1.311,0,0,0,1.121-.551,3.025,3.025,0,0,0,.4-1.763,2.737,2.737,0,0,0-.4-1.6A1.311,1.311,0,0,0-6.778-5.94,1.29,1.29,0,0,0-7.9-5.376,3.076,3.076,0,0,0-8.3-3.626Zm9.427-.127a4.457,4.457,0,0,1,.776-2.755A2.517,2.517,0,0,1,4.03-7.533a2.265,2.265,0,0,1,1.784.807V-10.5H7.8V0H6.012l-.1-.786a2.325,2.325,0,0,1-1.9.923,2.511,2.511,0,0,1-2.1-1.029A4.6,4.6,0,0,1,1.131-3.753Zm1.976.147a2.92,2.92,0,0,0,.362,1.6,1.18,1.18,0,0,0,1.053.555A1.322,1.322,0,0,0,5.814-2.23V-5.153a1.3,1.3,0,0,0-1.278-.774Q3.107-5.927,3.107-3.606ZM12.732.137a3.631,3.631,0,0,1-2.649-1A3.548,3.548,0,0,1,9.061-3.521v-.191A4.468,4.468,0,0,1,9.492-5.7a3.161,3.161,0,0,1,1.22-1.354,3.425,3.425,0,0,1,1.8-.475,3.07,3.07,0,0,1,2.389.957,3.889,3.889,0,0,1,.872,2.714v.807h-4.71a1.835,1.835,0,0,0,.578,1.162,1.746,1.746,0,0,0,1.22.438,2.132,2.132,0,0,0,1.784-.827L15.617-1.2a2.966,2.966,0,0,1-1.2.981A3.947,3.947,0,0,1,12.732.137ZM12.506-5.94a1.234,1.234,0,0,0-.954.4,2.062,2.062,0,0,0-.468,1.14h2.748V-4.56a1.471,1.471,0,0,0-.355-1.02A1.274,1.274,0,0,0,12.506-5.94ZM23.458-1.456a1.3,1.3,0,0,0,.889-.3,1.054,1.054,0,0,0,.355-.8h1.853a2.534,2.534,0,0,1-.41,1.377,2.706,2.706,0,0,1-1.1.971,3.455,3.455,0,0,1-1.548.345,3.211,3.211,0,0,1-2.5-1.008,3.99,3.99,0,0,1-.916-2.786v-.13a3.944,3.944,0,0,1,.909-2.728,3.174,3.174,0,0,1,2.5-1.019,3.111,3.111,0,0,1,2.225.79,2.8,2.8,0,0,1,.851,2.1H24.7a1.358,1.358,0,0,0-.355-.938,1.185,1.185,0,0,0-.9-.361,1.19,1.19,0,0,0-1.042.5A2.916,2.916,0,0,0,22.049-3.8V-3.6A2.953,2.953,0,0,0,22.4-1.956,1.2,1.2,0,0,0,23.458-1.456Zm3.917-2.311A4.387,4.387,0,0,1,27.8-5.729a3.1,3.1,0,0,1,1.22-1.333,3.56,3.56,0,0,1,1.849-.472,3.368,3.368,0,0,1,2.444.916,3.676,3.676,0,0,1,1.056,2.488l.014.506a3.866,3.866,0,0,1-.95,2.731A3.3,3.3,0,0,1,30.881.137,3.319,3.319,0,0,1,28.328-.889a3.934,3.934,0,0,1-.954-2.789Zm1.976.14a2.765,2.765,0,0,0,.4,1.612,1.308,1.308,0,0,0,1.135.558A1.311,1.311,0,0,0,32-2.007a3.025,3.025,0,0,0,.4-1.763,2.737,2.737,0,0,0-.4-1.6,1.311,1.311,0,0,0-1.135-.568,1.29,1.29,0,0,0-1.121.565A3.076,3.076,0,0,0,29.35-3.626ZM37.417-7.4l.062.854A2.582,2.582,0,0,1,39.6-7.533a2.146,2.146,0,0,1,1.75.69,3.221,3.221,0,0,1,.588,2.064V0H39.966V-4.73a1.282,1.282,0,0,0-.273-.913,1.224,1.224,0,0,0-.909-.284,1.359,1.359,0,0,0-1.251.711V0H35.557V-7.4ZM45.8-9.215V-7.4h1.265v1.449H45.8v3.691a.881.881,0,0,0,.157.588.79.79,0,0,0,.6.178,3.151,3.151,0,0,0,.581-.048v1.5a4.067,4.067,0,0,1-1.2.178,1.886,1.886,0,0,1-2.119-2.1V-5.947h-1.08V-7.4h1.08V-9.215Zm6.521,3.671a5.367,5.367,0,0,0-.711-.055,1.447,1.447,0,0,0-1.47.759V0H48.169V-7.4h1.866l.055.882a1.831,1.831,0,0,1,1.647-1.019,2.07,2.07,0,0,1,.615.089Zm.4,1.777a4.387,4.387,0,0,1,.424-1.962,3.1,3.1,0,0,1,1.22-1.333,3.56,3.56,0,0,1,1.849-.472,3.368,3.368,0,0,1,2.444.916,3.676,3.676,0,0,1,1.056,2.488l.014.506a3.866,3.866,0,0,1-.95,2.731A3.3,3.3,0,0,1,56.229.137,3.319,3.319,0,0,1,53.676-.889a3.934,3.934,0,0,1-.954-2.789Zm1.976.14a2.765,2.765,0,0,0,.4,1.612,1.308,1.308,0,0,0,1.135.558,1.311,1.311,0,0,0,1.121-.551,3.025,3.025,0,0,0,.4-1.763,2.737,2.737,0,0,0-.4-1.6,1.311,1.311,0,0,0-1.135-.568,1.29,1.29,0,0,0-1.121.565A3.076,3.076,0,0,0,54.7-3.626ZM63.031,0H61.048V-10.5h1.982ZM-66.356,12.247a4.457,4.457,0,0,1,.776-2.755,2.517,2.517,0,0,1,2.123-1.025,2.265,2.265,0,0,1,1.784.807V5.5h1.982V16h-1.784l-.1-.786a2.325,2.325,0,0,1-1.9.923,2.511,2.511,0,0,1-2.1-1.029A4.6,4.6,0,0,1-66.356,12.247Zm1.976.147a2.92,2.92,0,0,0,.362,1.6,1.18,1.18,0,0,0,1.053.555,1.322,1.322,0,0,0,1.292-.774V10.847a1.3,1.3,0,0,0-1.278-.774Q-64.381,10.073-64.381,12.394Zm9.625,3.743a3.631,3.631,0,0,1-2.649-1,3.548,3.548,0,0,1-1.022-2.659v-.191A4.468,4.468,0,0,1-58,10.3a3.161,3.161,0,0,1,1.22-1.354,3.425,3.425,0,0,1,1.8-.475,3.07,3.07,0,0,1,2.389.957,3.889,3.889,0,0,1,.872,2.714v.807h-4.71a1.835,1.835,0,0,0,.578,1.162,1.746,1.746,0,0,0,1.22.438,2.132,2.132,0,0,0,1.784-.827l.971,1.087a2.966,2.966,0,0,1-1.2.981A3.947,3.947,0,0,1-54.756,16.137Zm-.226-6.077a1.234,1.234,0,0,0-.954.4A2.062,2.062,0,0,0-56.4,11.6h2.748V11.44a1.471,1.471,0,0,0-.355-1.02A1.274,1.274,0,0,0-54.981,10.06Zm10.24-3.274V8.6h1.265v1.449h-1.265v3.691a.881.881,0,0,0,.157.588.79.79,0,0,0,.6.178,3.15,3.15,0,0,0,.581-.048v1.5a4.067,4.067,0,0,1-1.2.178,1.886,1.886,0,0,1-2.119-2.1V10.053H-47.8V8.6h1.08V6.785Zm6.521,3.671a5.367,5.367,0,0,0-.711-.055,1.447,1.447,0,0,0-1.47.759V16h-1.976V8.6h1.866l.055.882a1.831,1.831,0,0,1,1.647-1.019,2.07,2.07,0,0,1,.615.089ZM-33.188,16a2.194,2.194,0,0,1-.2-.663,2.39,2.39,0,0,1-1.866.8,2.626,2.626,0,0,1-1.8-.629,2.023,2.023,0,0,1-.714-1.586,2.09,2.09,0,0,1,.872-1.8,4.3,4.3,0,0,1,2.519-.636h.909v-.424a1.219,1.219,0,0,0-.263-.82,1.035,1.035,0,0,0-.831-.308,1.177,1.177,0,0,0-.783.239.813.813,0,0,0-.284.656H-37.6a1.984,1.984,0,0,1,.4-1.189,2.621,2.621,0,0,1,1.121-.858,4.086,4.086,0,0,1,1.627-.311,3.228,3.228,0,0,1,2.17.687,2.4,2.4,0,0,1,.8,1.931v3.206a3.536,3.536,0,0,0,.294,1.593V16Zm-1.634-1.374a1.7,1.7,0,0,0,.807-.195,1.28,1.28,0,0,0,.547-.523V12.637h-.738q-1.483,0-1.579,1.025l-.007.116a.791.791,0,0,0,.26.608A1.009,1.009,0,0,0-34.822,14.626ZM-28.15,8.6l.062.854a2.582,2.582,0,0,1,2.126-.991,2.146,2.146,0,0,1,1.75.69,3.221,3.221,0,0,1,.588,2.064V16H-25.6V11.27a1.282,1.282,0,0,0-.273-.913,1.224,1.224,0,0,0-.909-.284,1.359,1.359,0,0,0-1.251.711V16H-30.01V8.6Zm10.028,5.353a.637.637,0,0,0-.359-.571,4.077,4.077,0,0,0-1.152-.373q-2.639-.554-2.639-2.242a2.032,2.032,0,0,1,.817-1.644,3.3,3.3,0,0,1,2.136-.66,3.547,3.547,0,0,1,2.252.663,2.09,2.09,0,0,1,.844,1.723H-18.2a.956.956,0,0,0-.273-.7,1.157,1.157,0,0,0-.854-.277,1.182,1.182,0,0,0-.772.226.712.712,0,0,0-.273.574.609.609,0,0,0,.311.53,3.2,3.2,0,0,0,1.049.349,8.571,8.571,0,0,1,1.244.332A2.044,2.044,0,0,1-16.2,13.874a1.929,1.929,0,0,1-.868,1.637,3.745,3.745,0,0,1-2.242.625,3.912,3.912,0,0,1-1.651-.332,2.77,2.77,0,0,1-1.131-.909,2.113,2.113,0,0,1-.41-1.248h1.873a1.031,1.031,0,0,0,.39.807,1.546,1.546,0,0,0,.971.28,1.43,1.43,0,0,0,.858-.215A.67.67,0,0,0-18.122,13.956ZM-13.077,8.6l.062.827a2.6,2.6,0,0,1,2.126-.964A1.973,1.973,0,0,1-8.928,9.595,2.54,2.54,0,0,1-6.706,8.467a2.206,2.206,0,0,1,1.791.7,3.221,3.221,0,0,1,.588,2.109V16H-6.31V11.283a1.408,1.408,0,0,0-.246-.919,1.091,1.091,0,0,0-.868-.291,1.233,1.233,0,0,0-1.23.848L-8.647,16h-1.976V11.29a1.391,1.391,0,0,0-.253-.93,1.1,1.1,0,0,0-.861-.287,1.28,1.28,0,0,0-1.217.7V16H-14.93V8.6ZM-.725,16H-2.707V8.6H-.725Zm-2.1-9.311a.973.973,0,0,1,.3-.731,1.117,1.117,0,0,1,.81-.287,1.12,1.12,0,0,1,.807.287.967.967,0,0,1,.3.731.97.97,0,0,1-.3.738,1.122,1.122,0,0,1-.8.287,1.122,1.122,0,0,1-.8-.287A.97.97,0,0,1-2.823,6.689Zm7.731,7.267a.637.637,0,0,0-.359-.571A4.077,4.077,0,0,0,3.4,13.013Q.759,12.459.759,10.771a2.032,2.032,0,0,1,.817-1.644,3.3,3.3,0,0,1,2.136-.66,3.547,3.547,0,0,1,2.252.663,2.09,2.09,0,0,1,.844,1.723H4.833a.956.956,0,0,0-.273-.7,1.157,1.157,0,0,0-.854-.277,1.182,1.182,0,0,0-.772.226.712.712,0,0,0-.273.574.609.609,0,0,0,.311.53,3.2,3.2,0,0,0,1.049.349,8.571,8.571,0,0,1,1.244.332,2.044,2.044,0,0,1,1.565,1.989,1.929,1.929,0,0,1-.868,1.637,3.745,3.745,0,0,1-2.242.625,3.912,3.912,0,0,1-1.651-.332A2.77,2.77,0,0,1,.937,14.9a2.113,2.113,0,0,1-.41-1.248H2.4a1.031,1.031,0,0,0,.39.807,1.546,1.546,0,0,0,.971.28,1.43,1.43,0,0,0,.858-.215A.67.67,0,0,0,4.908,13.956ZM10.186,16H8.2V8.6h1.982Zm-2.1-9.311a.973.973,0,0,1,.3-.731,1.117,1.117,0,0,1,.81-.287A1.12,1.12,0,0,1,10,5.958a1.044,1.044,0,0,1,0,1.47,1.122,1.122,0,0,1-.8.287,1.122,1.122,0,0,1-.8-.287A.97.97,0,0,1,8.087,6.689ZM11.5,12.233a4.387,4.387,0,0,1,.424-1.962,3.1,3.1,0,0,1,1.22-1.333A3.56,3.56,0,0,1,15,8.467a3.368,3.368,0,0,1,2.444.916A3.676,3.676,0,0,1,18.5,11.871l.014.506a3.866,3.866,0,0,1-.95,2.731,3.3,3.3,0,0,1-2.55,1.029,3.319,3.319,0,0,1-2.553-1.025,3.934,3.934,0,0,1-.954-2.789Zm1.976.14a2.765,2.765,0,0,0,.4,1.612,1.424,1.424,0,0,0,2.256.007,3.025,3.025,0,0,0,.4-1.763,2.737,2.737,0,0,0-.4-1.6A1.311,1.311,0,0,0,15,10.06a1.29,1.29,0,0,0-1.121.565A3.076,3.076,0,0,0,13.48,12.374ZM15.388,5.5h2.153L15.647,7.619H14.041Zm6.159,3.1.062.854a2.582,2.582,0,0,1,2.126-.991,2.146,2.146,0,0,1,1.75.69,3.221,3.221,0,0,1,.588,2.064V16H24.1V11.27a1.282,1.282,0,0,0-.273-.913,1.224,1.224,0,0,0-.909-.284,1.359,1.359,0,0,0-1.251.711V16H19.688V8.6Zm9.6,3.35a10.491,10.491,0,0,1,.417-2.98,7.865,7.865,0,0,1,1.23-2.505,4.594,4.594,0,0,1,1.764-1.514l.383,1.066A4.758,4.758,0,0,0,33.38,8.3a10.572,10.572,0,0,0-.561,3.609v.212a10.774,10.774,0,0,0,.554,3.623,4.851,4.851,0,0,0,1.565,2.317l-.383,1.046a4.6,4.6,0,0,1-1.733-1.473A7.734,7.734,0,0,1,31.6,15.2a10.428,10.428,0,0,1-.451-2.885ZM43.593,7.708H40.544V16H38.493V7.708H35.485V6.047h8.107Zm8.791,4.977A3.522,3.522,0,0,1,51.2,15.214a4.165,4.165,0,0,1-2.82.923,3.745,3.745,0,0,1-3.011-1.289,5.284,5.284,0,0,1-1.1-3.538V10.7a5.966,5.966,0,0,1,.506-2.529,3.791,3.791,0,0,1,1.446-1.678,4.518,4.518,0,0,1,4.959.338A3.785,3.785,0,0,1,52.4,9.424H50.347a2.079,2.079,0,0,0-.537-1.4,1.987,1.987,0,0,0-1.4-.434,1.742,1.742,0,0,0-1.535.735,4.118,4.118,0,0,0-.523,2.28v.752a4.408,4.408,0,0,0,.489,2.358,1.71,1.71,0,0,0,1.542.745,2.025,2.025,0,0,0,1.418-.434,1.961,1.961,0,0,0,.537-1.343Zm3.4-.191V16H53.73V6.047h3.883a4.492,4.492,0,0,1,1.972.41,3.022,3.022,0,0,1,1.309,1.166,3.25,3.25,0,0,1,.458,1.719,2.858,2.858,0,0,1-1,2.307,4.171,4.171,0,0,1-2.772.844Zm0-1.661h1.832a1.8,1.8,0,0,0,1.241-.383,1.392,1.392,0,0,0,.427-1.094,1.642,1.642,0,0,0-.431-1.183,1.609,1.609,0,0,0-1.189-.465h-1.88ZM66.035,12.11a9.955,9.955,0,0,1-.444,2.974,8.072,8.072,0,0,1-1.278,2.522,4.606,4.606,0,0,1-1.784,1.5l-.383-1.046a4.807,4.807,0,0,0,1.531-2.256,10.446,10.446,0,0,0,.581-3.507v-.362a10.682,10.682,0,0,0-.557-3.6A5.011,5.011,0,0,0,62.146,6l.383-1.046a4.607,4.607,0,0,1,1.753,1.463A7.968,7.968,0,0,1,65.56,8.884a9.884,9.884,0,0,1,.475,2.919Z" transform="translate(1299.978 4031.576)" fill="#12263f"/>
    <path id="Trazado_192372" data-name="Trazado 192372" d="M-76.593-3.507V0h-2.051V-9.953h3.883a4.492,4.492,0,0,1,1.972.41A3.022,3.022,0,0,1-71.48-8.377a3.25,3.25,0,0,1,.458,1.719,2.858,2.858,0,0,1-1,2.307,4.171,4.171,0,0,1-2.772.844Zm0-1.661h1.832a1.8,1.8,0,0,0,1.241-.383,1.392,1.392,0,0,0,.427-1.094,1.642,1.642,0,0,0-.431-1.183,1.609,1.609,0,0,0-1.189-.465h-1.88Zm11.006-.376A5.367,5.367,0,0,0-66.3-5.6a1.447,1.447,0,0,0-1.47.759V0h-1.976V-7.4h1.866l.055.882a1.831,1.831,0,0,1,1.647-1.019,2.07,2.07,0,0,1,.615.089Zm.4,1.777a4.387,4.387,0,0,1,.424-1.962,3.1,3.1,0,0,1,1.22-1.333A3.56,3.56,0,0,1-61.7-7.533a3.368,3.368,0,0,1,2.444.916A3.676,3.676,0,0,1-58.2-4.129l.014.506a3.866,3.866,0,0,1-.95,2.731A3.3,3.3,0,0,1-61.684.137,3.319,3.319,0,0,1-64.237-.889a3.934,3.934,0,0,1-.954-2.789Zm1.976.14a2.765,2.765,0,0,0,.4,1.612,1.308,1.308,0,0,0,1.135.558,1.311,1.311,0,0,0,1.121-.551,3.025,3.025,0,0,0,.4-1.763,2.737,2.737,0,0,0-.4-1.6A1.311,1.311,0,0,0-61.7-5.94a1.29,1.29,0,0,0-1.121.565A3.076,3.076,0,0,0-63.215-3.626ZM-54.6-9.215V-7.4h1.265v1.449H-54.6v3.691a.881.881,0,0,0,.157.588.79.79,0,0,0,.6.178,3.151,3.151,0,0,0,.581-.048v1.5a4.067,4.067,0,0,1-1.2.178,1.886,1.886,0,0,1-2.119-2.1V-5.947h-1.08V-7.4h1.08V-9.215Zm1.853,5.448a4.387,4.387,0,0,1,.424-1.962,3.1,3.1,0,0,1,1.22-1.333,3.56,3.56,0,0,1,1.849-.472,3.368,3.368,0,0,1,2.444.916,3.676,3.676,0,0,1,1.056,2.488l.014.506a3.866,3.866,0,0,1-.95,2.731A3.3,3.3,0,0,1-49.243.137,3.319,3.319,0,0,1-51.8-.889a3.934,3.934,0,0,1-.954-2.789Zm1.976.14a2.765,2.765,0,0,0,.4,1.612,1.308,1.308,0,0,0,1.135.558,1.311,1.311,0,0,0,1.121-.551,3.025,3.025,0,0,0,.4-1.763,2.737,2.737,0,0,0-.4-1.6,1.311,1.311,0,0,0-1.135-.568,1.29,1.29,0,0,0-1.121.565A3.076,3.076,0,0,0-50.774-3.626Zm9.324,2.17a1.3,1.3,0,0,0,.889-.3,1.054,1.054,0,0,0,.355-.8h1.853a2.534,2.534,0,0,1-.41,1.377,2.706,2.706,0,0,1-1.1.971,3.455,3.455,0,0,1-1.548.345,3.211,3.211,0,0,1-2.5-1.008,3.99,3.99,0,0,1-.916-2.786v-.13a3.944,3.944,0,0,1,.909-2.728,3.174,3.174,0,0,1,2.5-1.019,3.111,3.111,0,0,1,2.225.79,2.8,2.8,0,0,1,.851,2.1h-1.853a1.358,1.358,0,0,0-.355-.938,1.185,1.185,0,0,0-.9-.361,1.19,1.19,0,0,0-1.042.5A2.916,2.916,0,0,0-42.858-3.8V-3.6a2.953,2.953,0,0,0,.349,1.643A1.2,1.2,0,0,0-41.45-1.456Zm3.917-2.311a4.387,4.387,0,0,1,.424-1.962,3.1,3.1,0,0,1,1.22-1.333,3.56,3.56,0,0,1,1.849-.472,3.368,3.368,0,0,1,2.444.916A3.676,3.676,0,0,1-30.54-4.129l.014.506a3.866,3.866,0,0,1-.95,2.731A3.3,3.3,0,0,1-34.026.137,3.319,3.319,0,0,1-36.579-.889a3.934,3.934,0,0,1-.954-2.789Zm1.976.14a2.765,2.765,0,0,0,.4,1.612,1.308,1.308,0,0,0,1.135.558A1.311,1.311,0,0,0-32.9-2.007a3.025,3.025,0,0,0,.4-1.763,2.737,2.737,0,0,0-.4-1.6A1.311,1.311,0,0,0-34.04-5.94a1.29,1.29,0,0,0-1.121.565A3.076,3.076,0,0,0-35.557-3.626ZM-27.224,0h-1.982V-10.5h1.982ZM-25.9-3.767a4.387,4.387,0,0,1,.424-1.962,3.1,3.1,0,0,1,1.22-1.333,3.56,3.56,0,0,1,1.849-.472,3.368,3.368,0,0,1,2.444.916,3.676,3.676,0,0,1,1.056,2.488l.014.506a3.866,3.866,0,0,1-.95,2.731A3.3,3.3,0,0,1-22.4.137,3.319,3.319,0,0,1-24.951-.889,3.934,3.934,0,0,1-25.9-3.678Zm1.976.14a2.765,2.765,0,0,0,.4,1.612,1.308,1.308,0,0,0,1.135.558,1.311,1.311,0,0,0,1.121-.551,3.025,3.025,0,0,0,.4-1.763,2.737,2.737,0,0,0-.4-1.6,1.311,1.311,0,0,0-1.135-.568,1.29,1.29,0,0,0-1.121.565A3.076,3.076,0,0,0-23.929-3.626Zm9.427-.127a4.457,4.457,0,0,1,.776-2.755A2.517,2.517,0,0,1-11.6-7.533a2.265,2.265,0,0,1,1.784.807V-10.5h1.982V0H-9.622l-.1-.786a2.325,2.325,0,0,1-1.9.923,2.511,2.511,0,0,1-2.1-1.029A4.6,4.6,0,0,1-14.5-3.753Zm1.976.147a2.92,2.92,0,0,0,.362,1.6,1.18,1.18,0,0,0,1.053.555A1.322,1.322,0,0,0-9.82-2.23V-5.153A1.3,1.3,0,0,0-11.1-5.927Q-12.527-5.927-12.527-3.606ZM-2.9.137a3.631,3.631,0,0,1-2.649-1A3.548,3.548,0,0,1-6.573-3.521v-.191A4.468,4.468,0,0,1-6.142-5.7a3.161,3.161,0,0,1,1.22-1.354,3.425,3.425,0,0,1,1.8-.475,3.07,3.07,0,0,1,2.389.957A3.889,3.889,0,0,1,.14-3.862v.807H-4.57a1.835,1.835,0,0,0,.578,1.162,1.746,1.746,0,0,0,1.22.438A2.132,2.132,0,0,0-.988-2.283L-.017-1.2a2.966,2.966,0,0,1-1.2.981A3.947,3.947,0,0,1-2.9.137ZM-3.127-5.94a1.234,1.234,0,0,0-.954.4A2.062,2.062,0,0,0-4.549-4.4H-1.8V-4.56a1.471,1.471,0,0,0-.355-1.02A1.274,1.274,0,0,0-3.127-5.94ZM6.833,0H4.85V-7.4H6.833Zm-2.1-9.311a.973.973,0,0,1,.3-.731,1.117,1.117,0,0,1,.81-.287,1.12,1.12,0,0,1,.807.287.967.967,0,0,1,.3.731.97.97,0,0,1-.3.738,1.122,1.122,0,0,1-.8.287,1.122,1.122,0,0,1-.8-.287A.97.97,0,0,1,4.734-9.311ZM10.278-7.4l.062.854a2.582,2.582,0,0,1,2.126-.991,2.146,2.146,0,0,1,1.75.69A3.221,3.221,0,0,1,14.8-4.778V0H12.828V-4.73a1.282,1.282,0,0,0-.273-.913,1.224,1.224,0,0,0-.909-.284,1.359,1.359,0,0,0-1.251.711V0H8.418V-7.4Zm8.388-1.818V-7.4H19.93v1.449H18.666v3.691a.881.881,0,0,0,.157.588.79.79,0,0,0,.6.178,3.151,3.151,0,0,0,.581-.048v1.5a4.067,4.067,0,0,1-1.2.178,1.886,1.886,0,0,1-2.119-2.1V-5.947H15.61V-7.4h1.08V-9.215ZM24.435.137a3.631,3.631,0,0,1-2.649-1,3.548,3.548,0,0,1-1.022-2.659v-.191A4.468,4.468,0,0,1,21.195-5.7a3.161,3.161,0,0,1,1.22-1.354,3.425,3.425,0,0,1,1.8-.475,3.07,3.07,0,0,1,2.389.957,3.889,3.889,0,0,1,.872,2.714v.807h-4.71a1.835,1.835,0,0,0,.578,1.162,1.746,1.746,0,0,0,1.22.438,2.132,2.132,0,0,0,1.784-.827L27.32-1.2a2.966,2.966,0,0,1-1.2.981A3.947,3.947,0,0,1,24.435.137ZM24.209-5.94a1.234,1.234,0,0,0-.954.4,2.062,2.062,0,0,0-.468,1.14h2.748V-4.56a1.471,1.471,0,0,0-.355-1.02A1.274,1.274,0,0,0,24.209-5.94Zm8.545.4a5.367,5.367,0,0,0-.711-.055,1.447,1.447,0,0,0-1.47.759V0H28.6V-7.4h1.866l.055.882a1.831,1.831,0,0,1,1.647-1.019,2.07,2.07,0,0,1,.615.089ZM35.523-7.4l.062.854a2.582,2.582,0,0,1,2.126-.991,2.146,2.146,0,0,1,1.75.69,3.221,3.221,0,0,1,.588,2.064V0H38.073V-4.73a1.282,1.282,0,0,0-.273-.913,1.224,1.224,0,0,0-.909-.284,1.359,1.359,0,0,0-1.251.711V0H33.664V-7.4ZM44.95.137a3.631,3.631,0,0,1-2.649-1,3.548,3.548,0,0,1-1.022-2.659v-.191A4.468,4.468,0,0,1,41.709-5.7a3.161,3.161,0,0,1,1.22-1.354,3.425,3.425,0,0,1,1.8-.475,3.07,3.07,0,0,1,2.389.957,3.889,3.889,0,0,1,.872,2.714v.807h-4.71a1.835,1.835,0,0,0,.578,1.162,1.746,1.746,0,0,0,1.22.438,2.132,2.132,0,0,0,1.784-.827L47.834-1.2a2.966,2.966,0,0,1-1.2.981A3.947,3.947,0,0,1,44.95.137ZM44.724-5.94a1.234,1.234,0,0,0-.954.4A2.062,2.062,0,0,0,43.3-4.4H46.05V-4.56a1.471,1.471,0,0,0-.355-1.02A1.274,1.274,0,0,0,44.724-5.94Zm6.754-3.274V-7.4h1.265v1.449H51.478v3.691a.881.881,0,0,0,.157.588.79.79,0,0,0,.6.178,3.151,3.151,0,0,0,.581-.048v1.5a4.067,4.067,0,0,1-1.2.178,1.886,1.886,0,0,1-2.119-2.1V-5.947h-1.08V-7.4H49.5V-9.215Zm5.94,5.168a10.491,10.491,0,0,1,.417-2.98,7.865,7.865,0,0,1,1.23-2.505,4.594,4.594,0,0,1,1.764-1.514l.383,1.066A4.758,4.758,0,0,0,59.654-7.7a10.572,10.572,0,0,0-.561,3.609v.212a10.774,10.774,0,0,0,.554,3.623,4.851,4.851,0,0,0,1.565,2.317L60.83,3.11A4.6,4.6,0,0,1,59.1,1.637,7.734,7.734,0,0,1,57.87-.8a10.429,10.429,0,0,1-.451-2.885ZM64.555,0H62.5V-9.953h2.051Zm3.951-3.507V0H66.456V-9.953h3.883a4.492,4.492,0,0,1,1.972.41A3.022,3.022,0,0,1,73.62-8.377a3.25,3.25,0,0,1,.458,1.719,2.858,2.858,0,0,1-1,2.307,4.171,4.171,0,0,1-2.772.844Zm0-1.661h1.832a1.8,1.8,0,0,0,1.241-.383,1.392,1.392,0,0,0,.427-1.094,1.642,1.642,0,0,0-.431-1.183,1.609,1.609,0,0,0-1.189-.465h-1.88ZM78.76-3.89a9.955,9.955,0,0,1-.444,2.974,8.072,8.072,0,0,1-1.278,2.522,4.606,4.606,0,0,1-1.784,1.5l-.383-1.046A4.807,4.807,0,0,0,76.4-.191,10.446,10.446,0,0,0,76.983-3.7v-.362a10.682,10.682,0,0,0-.557-3.6A5.011,5.011,0,0,0,74.871-10l.383-1.046a4.607,4.607,0,0,1,1.753,1.463,7.968,7.968,0,0,1,1.278,2.468A9.884,9.884,0,0,1,78.76-4.2Z" transform="translate(1299.978 4081.237)" fill="#12263f"/>
    <path id="Trazado_192373" data-name="Trazado 192373" d="M-19.749-4.313h-3.937v2.666h4.621V0h-6.672V-9.953h6.658v1.661h-4.607V-5.92h3.938Zm4.122-4.9V-7.4h1.265v1.449h-1.265v3.691a.881.881,0,0,0,.157.588.79.79,0,0,0,.6.178,3.151,3.151,0,0,0,.581-.048v1.5a4.067,4.067,0,0,1-1.2.178,1.886,1.886,0,0,1-2.119-2.1V-5.947h-1.08V-7.4h1.08V-9.215Zm4.293,2.625a2.466,2.466,0,0,1,1.976-.943q2.406,0,2.44,2.8V0H-8.894V-4.683a1.374,1.374,0,0,0-.273-.94,1.172,1.172,0,0,0-.909-.3,1.345,1.345,0,0,0-1.258.67V0H-13.31V-10.5h1.976ZM-2.023.137a3.631,3.631,0,0,1-2.649-1A3.548,3.548,0,0,1-5.694-3.521v-.191A4.468,4.468,0,0,1-5.264-5.7a3.161,3.161,0,0,1,1.22-1.354,3.425,3.425,0,0,1,1.8-.475,3.07,3.07,0,0,1,2.389.957,3.889,3.889,0,0,1,.872,2.714v.807h-4.71a1.835,1.835,0,0,0,.578,1.162,1.746,1.746,0,0,0,1.22.438A2.132,2.132,0,0,0-.109-2.283L.861-1.2a2.966,2.966,0,0,1-1.2.981A3.947,3.947,0,0,1-2.023.137ZM-2.249-5.94a1.234,1.234,0,0,0-.954.4A2.062,2.062,0,0,0-3.671-4.4H-.923V-4.56a1.471,1.471,0,0,0-.355-1.02A1.274,1.274,0,0,0-2.249-5.94Zm8.545.4A5.367,5.367,0,0,0,5.585-5.6a1.447,1.447,0,0,0-1.47.759V0H2.14V-7.4H4.006l.055.882A1.831,1.831,0,0,1,5.708-7.533a2.07,2.07,0,0,1,.615.089ZM9.064-7.4l.062.854a2.582,2.582,0,0,1,2.126-.991,2.146,2.146,0,0,1,1.75.69,3.221,3.221,0,0,1,.588,2.064V0H11.614V-4.73a1.282,1.282,0,0,0-.273-.913,1.224,1.224,0,0,0-.909-.284,1.359,1.359,0,0,0-1.251.711V0H7.205V-7.4ZM18.491.137a3.631,3.631,0,0,1-2.649-1A3.548,3.548,0,0,1,14.82-3.521v-.191A4.468,4.468,0,0,1,15.251-5.7a3.161,3.161,0,0,1,1.22-1.354,3.425,3.425,0,0,1,1.8-.475,3.07,3.07,0,0,1,2.389.957,3.889,3.889,0,0,1,.872,2.714v.807h-4.71A1.835,1.835,0,0,0,17.4-1.894a1.746,1.746,0,0,0,1.22.438,2.132,2.132,0,0,0,1.784-.827L21.376-1.2a2.966,2.966,0,0,1-1.2.981A3.947,3.947,0,0,1,18.491.137ZM18.266-5.94a1.234,1.234,0,0,0-.954.4,2.062,2.062,0,0,0-.468,1.14h2.748V-4.56a1.471,1.471,0,0,0-.355-1.02A1.274,1.274,0,0,0,18.266-5.94ZM25.02-9.215V-7.4h1.265v1.449H25.02v3.691a.881.881,0,0,0,.157.588.79.79,0,0,0,.6.178,3.151,3.151,0,0,0,.581-.048v1.5a4.067,4.067,0,0,1-1.2.178,1.886,1.886,0,0,1-2.119-2.1V-5.947h-1.08V-7.4h1.08V-9.215Z" transform="translate(1299.978 4123.698)" fill="#12263f"/>
  </g>
</svg>
