<svg xmlns="http://www.w3.org/2000/svg" xmlns:xlink="http://www.w3.org/1999/xlink" width="402" height="616" viewBox="0 0 402 616">
  <defs>
    <linearGradient id="linear-gradient" y1="0.5" x2="1" y2="0.5" gradientUnits="objectBoundingBox">
      <stop offset="0" stop-color="#1a6bb2"/>
      <stop offset="1" stop-color="#1b4b92"/>
    </linearGradient>
  </defs>
  <g id="_11" data-name="11" transform="translate(-1019 -6675.5)">
    <rect id="BG" width="400" height="614" transform="translate(1020 6676.5)" fill="none" stroke="#084a93" stroke-width="2" stroke-dasharray="10 10"/>
    <g id="Group_129426" data-name="Group 129426" transform="translate(4403.915 5508.081)">
      <g id="Group_129295" data-name="Group 129295" transform="translate(-3242.961 1561.693)" opacity="0.1">
        <path id="Path_190957" data-name="Path 190957" d="M-3092.833,1598.849c32.022,18.48,32.169,48.45.382,66.923-31.808,18.487-83.552,18.5-115.564.014s-32.189-48.457-.382-66.951C-3176.6,1580.358-3124.848,1580.358-3092.833,1598.849Z" transform="translate(3232.14 -1584.979)"/>
      </g>
      <g id="Group_129296" data-name="Group 129296" transform="translate(-3242.961 1561.693)" opacity="0.1">
        <path id="Path_190958" data-name="Path 190958" d="M-3092.833,1598.849c32.022,18.48,32.169,48.45.382,66.923-31.808,18.487-83.552,18.5-115.564.014s-32.189-48.457-.382-66.951C-3176.6,1580.358-3124.848,1580.358-3092.833,1598.849Z" transform="translate(3232.14 -1584.979)"/>
      </g>
      <g id="Group_129297" data-name="Group 129297" transform="translate(-3232.696 1559.074)">
        <path id="Path_190959" data-name="Path 190959" d="M-3092.074,1594.963c29.623,17.1,29.758,44.833.341,61.932s-77.3,17.112-106.927.006-29.786-44.843-.354-61.944S-3121.7,1577.858-3092.074,1594.963Z" transform="translate(3220.986 -1582.133)" fill="url(#linear-gradient)"/>
      </g>
      <g id="Group_129298" data-name="Group 129298" transform="translate(-3232.696 1539.681)">
        <path id="Path_190960" data-name="Path 190960" d="M-3092.074,1573.893c29.623,17.105,29.758,44.839.341,61.931s-77.3,17.112-106.927.014-29.786-44.853-.354-61.958S-3121.7,1556.787-3092.074,1573.893Z" transform="translate(3220.986 -1561.062)" fill="#1899e5"/>
      </g>
      <g id="Group_129300" data-name="Group 129300" transform="translate(-3215.051 1550.088)" opacity="0.8">
        <g id="Group_129299" data-name="Group 129299">
          <path id="Path_190961" data-name="Path 190961" d="M-3102.833,1581.8c22.748,12.579,22.85,32.976.266,45.548s-59.361,12.586-82.11.006-22.863-32.982-.265-45.554S-3125.581,1569.225-3102.833,1581.8Z" transform="translate(3201.815 -1572.37)" fill="#00e7ff"/>
        </g>
      </g>
      <g id="Group_129335" data-name="Group 129335" transform="translate(-3330.324 1292.659)">
        <g id="Group_129301" data-name="Group 129301" transform="translate(0 149.193)">
          <path id="Path_190962" data-name="Path 190962" d="M-3322.971,1455.319c2.89-1.66,4.03.626,4.037,4.037.014,3.832-1.327,7.228-4.077,8.814-2.791,1.613-4.03-.551-4.053-4.049C-3327.076,1460.54-3325.762,1456.932-3322.971,1455.319Zm.014,10.625c.98-.565,1.5-2.273,1.5-5.1-.006-2.737-.524-3.9-1.531-3.323-.933.545-1.566,2.267-1.538,5.133-.014,2.859.585,3.853,1.572,3.287Z" transform="translate(3327.065 -1454.766)" fill="#084a93" opacity="0.15"/>
        </g>
        <g id="Group_129302" data-name="Group 129302" transform="translate(9.213 143.873)">
          <path id="Path_190963" data-name="Path 190963" d="M-3312.964,1449.543c2.886-1.668,4.029.62,4.043,4.029.007,3.832-1.327,7.229-4.084,8.815-2.783,1.613-4.023-.551-4.049-4.05C-3317.062,1454.764-3315.755,1451.149-3312.964,1449.543Zm.014,10.625c.987-.572,1.511-2.273,1.5-5.105,0-2.736-.525-3.9-1.529-3.322-.936.544-1.562,2.273-1.535,5.132-.013,2.859.586,3.86,1.567,3.295Z" transform="translate(3317.055 -1448.985)" fill="#084a93" opacity="0.15"/>
        </g>
        <g id="Group_129303" data-name="Group 129303" transform="translate(18.429 138.551)">
          <path id="Path_190964" data-name="Path 190964" d="M-3302.95,1443.759c2.886-1.668,4.029.627,4.037,4.037.017,3.832-1.328,7.228-4.077,8.815-2.792,1.606-4.03-.551-4.05-4.05C-3307.055,1448.98-3305.741,1445.372-3302.95,1443.759Zm.021,10.625c.984-.565,1.5-2.273,1.491-5.105-.007-2.736-.524-3.9-1.525-3.314-.94.537-1.572,2.266-1.538,5.125-.021,2.865.584,3.866,1.572,3.294Z" transform="translate(3307.041 -1443.202)" fill="#084a93" opacity="0.15"/>
        </g>
        <g id="Group_129304" data-name="Group 129304" transform="translate(28.503 133.009)">
          <path id="Path_190965" data-name="Path 190965" d="M-3291.147,1437.181l.034,12.395-2.437,1.409-.028-9.815-.041.021-2.049,2.3-.429-1.926,2.862-3.179Z" transform="translate(3296.095 -1437.181)" fill="#084a93" opacity="0.15"/>
        </g>
        <g id="Group_129305" data-name="Group 129305" transform="translate(36.855 127.912)">
          <path id="Path_190966" data-name="Path 190966" d="M-3282.923,1432.2c2.886-1.667,4.023.627,4.037,4.03.014,3.832-1.328,7.228-4.078,8.822-2.791,1.613-4.029-.558-4.056-4.05C-3287.028,1437.42-3285.72,1433.812-3282.923,1432.2Zm.014,10.626c.987-.573,1.5-2.274,1.5-5.106-.007-2.735-.525-3.9-1.531-3.322-.933.545-1.565,2.273-1.539,5.133-.013,2.859.585,3.859,1.573,3.295Z" transform="translate(3287.02 -1431.642)" fill="#084a93" opacity="0.15"/>
        </g>
        <g id="Group_129306" data-name="Group 129306" transform="translate(46.074 122.589)">
          <path id="Path_190967" data-name="Path 190967" d="M-3272.916,1426.416c2.894-1.668,4.03.626,4.044,4.03.006,3.839-1.328,7.235-4.084,8.821-2.784,1.613-4.023-.551-4.047-4.057C-3277.013,1431.643-3275.706,1428.029-3272.916,1426.416Zm.021,10.625c.98-.565,1.5-2.267,1.49-5.105-.007-2.73-.518-3.893-1.524-3.315-.939.545-1.565,2.267-1.539,5.133-.014,2.859.592,3.859,1.573,3.287Z" transform="translate(3277.003 -1425.859)" fill="#084a93" opacity="0.15"/>
        </g>
        <g id="Group_129307" data-name="Group 129307" transform="translate(55.287 117.273)">
          <path id="Path_190968" data-name="Path 190968" d="M-3262.9,1420.64c2.885-1.668,4.029.626,4.043,4.029.007,3.832-1.327,7.229-4.084,8.815-2.79,1.612-4.029-.551-4.05-4.05C-3267.006,1425.861-3265.693,1422.246-3262.9,1420.64Zm.02,10.618c.98-.564,1.5-2.266,1.491-5.1-.007-2.736-.525-3.9-1.525-3.315-.94.537-1.573,2.26-1.539,5.125-.021,2.859.585,3.859,1.573,3.288Z" transform="translate(3266.993 -1420.083)" fill="#084a93" opacity="0.15"/>
        </g>
        <g id="Group_129308" data-name="Group 129308" transform="translate(64.496 111.95)">
          <path id="Path_190969" data-name="Path 190969" d="M-3252.888,1414.856c2.885-1.668,4.029.627,4.036,4.036.018,3.832-1.321,7.228-4.077,8.815-2.791,1.613-4.03-.551-4.057-4.05C-3256.992,1420.077-3255.679,1416.469-3252.888,1414.856Zm.017,10.625c.987-.572,1.5-2.273,1.494-5.105-.006-2.73-.524-3.9-1.531-3.314-.933.537-1.566,2.266-1.531,5.125-.02,2.865.585,3.866,1.569,3.294Z" transform="translate(3256.986 -1414.299)" fill="#084a93" opacity="0.15"/>
        </g>
        <g id="Group_129309" data-name="Group 129309" transform="translate(73.713 106.633)">
          <path id="Path_190970" data-name="Path 190970" d="M-3242.875,1409.08c2.886-1.668,4.023.619,4.037,4.029.014,3.832-1.327,7.229-4.077,8.822-2.79,1.606-4.029-.559-4.057-4.058C-3246.979,1414.3-3245.665,1410.686-3242.875,1409.08Zm.014,10.619c.98-.565,1.5-2.274,1.5-5.1-.006-2.736-.524-3.9-1.531-3.315-.932.538-1.565,2.26-1.538,5.125-.014,2.859.592,3.86,1.572,3.288Z" transform="translate(3246.972 -1408.522)" fill="#084a93" opacity="0.15"/>
        </g>
        <g id="Group_129310" data-name="Group 129310" transform="translate(82.929 101.311)">
          <path id="Path_190971" data-name="Path 190971" d="M-3232.863,1403.3c2.889-1.668,4.025.627,4.039,4.03.007,3.839-1.323,7.228-4.077,8.821-2.791,1.606-4.029-.558-4.057-4.057C-3236.964,1408.517-3235.658,1404.909-3232.863,1403.3Zm.017,10.626c.98-.565,1.5-2.274,1.491-5.106-.007-2.735-.523-3.9-1.531-3.314-.933.537-1.559,2.266-1.532,5.125-.014,2.859.585,3.859,1.572,3.295Z" transform="translate(3236.958 -1402.739)" fill="#084a93" opacity="0.15"/>
        </g>
        <g id="Group_129311" data-name="Group 129311" transform="translate(93.007 95.776)">
          <path id="Path_190972" data-name="Path 190972" d="M-3221.077,1396.725l.041,12.388-2.43,1.4-.027-9.808-.034.02-2.056,2.3-.425-1.933,2.855-3.172Z" transform="translate(3226.008 -1396.725)" fill="#084a93" opacity="0.15"/>
        </g>
        <g id="Group_129312" data-name="Group 129312" transform="translate(102.219 90.453)">
          <path id="Path_190973" data-name="Path 190973" d="M-3211.056,1390.941l.034,12.4-2.427,1.4-.031-9.815-.041.021-2.049,2.3-.429-1.926,2.859-3.172Z" transform="translate(3215.998 -1390.941)" fill="#084a93" opacity="0.15"/>
        </g>
        <g id="Group_129313" data-name="Group 129313" transform="translate(111.436 85.137)">
          <path id="Path_190974" data-name="Path 190974" d="M-3201.049,1385.166l.041,12.388-2.43,1.4-.034-9.815-.031.027-2.052,2.3-.428-1.933,2.859-3.172Z" transform="translate(3205.984 -1385.166)" fill="#084a93" opacity="0.15"/>
        </g>
        <g id="Group_129314" data-name="Group 129314" transform="translate(119.788 80.034)">
          <path id="Path_190975" data-name="Path 190975" d="M-3192.812,1380.177c2.883-1.668,4.023.627,4.037,4.029.007,3.832-1.327,7.229-4.083,8.822-2.785,1.606-4.023-.559-4.05-4.058C-3196.916,1385.4-3195.61,1381.783-3192.812,1380.177Zm.014,10.618c.987-.564,1.5-2.266,1.5-5.1-.014-2.73-.525-3.894-1.538-3.315-.933.545-1.559,2.267-1.531,5.132-.014,2.86.584,3.86,1.572,3.287Z" transform="translate(3196.909 -1379.62)" fill="#084a93" opacity="0.15"/>
        </g>
        <g id="Group_129315" data-name="Group 129315" transform="translate(129.004 74.71)">
          <path id="Path_190976" data-name="Path 190976" d="M-3182.8,1374.393c2.893-1.668,4.029.627,4.043,4.03.006,3.832-1.325,7.235-4.077,8.822-2.79,1.606-4.037-.558-4.057-4.057C-3186.909,1379.614-3185.6,1376.006-3182.8,1374.393Zm.02,10.625c.966-.558,1.5-2.273,1.494-5.105-.01-2.736-.52-3.9-1.535-3.314-.933.537-1.566,2.266-1.531,5.125-.014,2.865.585,3.859,1.572,3.294Z" transform="translate(3186.895 -1373.836)" fill="#084a93" opacity="0.15"/>
        </g>
        <g id="Group_129316" data-name="Group 129316" transform="translate(138.22 69.391)">
          <path id="Path_190977" data-name="Path 190977" d="M-3172.79,1368.617c2.886-1.674,4.029.619,4.036,4.023.014,3.84-1.32,7.236-4.077,8.822-2.783,1.613-4.029-.551-4.05-4.05C-3176.891,1373.838-3175.581,1370.223-3172.79,1368.617Zm.013,10.619c.974-.565,1.5-2.273,1.5-5.105-.007-2.73-.525-3.9-1.545-3.309-.916.531-1.552,2.26-1.519,5.119-.013,2.859.586,3.866,1.565,3.295Z" transform="translate(3176.881 -1368.056)" fill="#084a93" opacity="0.15"/>
        </g>
        <g id="Group_129317" data-name="Group 129317" transform="translate(147.437 64.072)">
          <path id="Path_190978" data-name="Path 190978" d="M-3162.783,1362.834c2.894-1.668,4.037.626,4.044,4.029.013,3.832-1.328,7.229-4.078,8.815-2.791,1.612-4.026-.551-4.049-4.043C-3166.881,1368.054-3165.567,1364.447-3162.783,1362.834Zm.021,10.625c.973-.565,1.5-2.273,1.5-5.105-.008-2.736-.525-3.9-1.531-3.323-.933.545-1.565,2.267-1.531,5.133-.021,2.859.578,3.859,1.565,3.295Z" transform="translate(3166.867 -1362.277)" fill="#084a93" opacity="0.15"/>
        </g>
        <g id="Group_129318" data-name="Group 129318" transform="translate(0.064 172.09)">
          <path id="Path_190979" data-name="Path 190979" d="M-3322.9,1480.2c2.893-1.668,4.029.64,4.037,4.029.013,3.832-1.324,7.242-4.078,8.835-2.79,1.613-4.029-.572-4.05-4.071C-3327.009,1485.419-3325.695,1481.8-3322.9,1480.2Zm.014,10.625c.987-.572,1.5-2.274,1.5-5.105,0-2.736-.517-3.9-1.529-3.322-.936.544-1.568,2.266-1.535,5.132-.013,2.859.586,3.86,1.567,3.295Z" transform="translate(3326.995 -1479.644)" fill="#084a93" opacity="0.15"/>
        </g>
        <g id="Group_129319" data-name="Group 129319" transform="translate(9.281 166.766)">
          <path id="Path_190980" data-name="Path 190980" d="M-3312.89,1474.415c2.886-1.668,4.029.64,4.037,4.029.016,3.84-1.328,7.25-4.077,8.835-2.792,1.607-4.03-.564-4.05-4.07C-3316.995,1479.636-3315.682,1476.021-3312.89,1474.415Zm.014,10.625c.987-.565,1.5-2.273,1.5-5.105-.008-2.729-.525-3.9-1.531-3.315-.933.538-1.565,2.267-1.531,5.126-.021,2.865.584,3.865,1.565,3.294Z" transform="translate(3316.981 -1473.86)" fill="#084a93" opacity="0.15"/>
        </g>
        <g id="Group_129320" data-name="Group 129320" transform="translate(19.348 161.223)">
          <path id="Path_190981" data-name="Path 190981" d="M-3301.087,1467.837l.034,12.395-2.44,1.409-.024-9.815-.041.021-2.049,2.3-.436-1.926,2.859-3.172Z" transform="translate(3306.043 -1467.837)" fill="#084a93" opacity="0.15"/>
        </g>
        <g id="Group_129321" data-name="Group 129321" transform="translate(27.707 156.127)">
          <path id="Path_190982" data-name="Path 190982" d="M-3292.866,1462.855c2.89-1.668,4.033.64,4.04,4.03.007,3.839-1.328,7.242-4.084,8.835-2.784,1.612-4.022-.565-4.049-4.064C-3296.967,1468.076-3295.661,1464.468-3292.866,1462.855Zm.018,10.625c.98-.564,1.5-2.273,1.49-5.105-.006-2.729-.517-3.9-1.531-3.314-.932.537-1.565,2.267-1.531,5.125-.013,2.859.585,3.859,1.573,3.294Z" transform="translate(3296.96 -1462.3)" fill="#084a93" opacity="0.15"/>
        </g>
        <g id="Group_129322" data-name="Group 129322" transform="translate(36.926 150.808)">
          <path id="Path_190983" data-name="Path 190983" d="M-3282.856,1457.079c2.886-1.674,4.03.633,4.037,4.03.014,3.831-1.327,7.242-4.077,8.835-2.791,1.606-4.029-.572-4.047-4.071C-3286.959,1462.293-3285.646,1458.686-3282.856,1457.079Zm.014,10.619c.987-.565,1.5-2.273,1.5-5.105-.006-2.73-.523-3.894-1.531-3.315-.933.537-1.558,2.267-1.531,5.125-.014,2.866.585,3.866,1.565,3.295Z" transform="translate(3286.943 -1456.52)" fill="#084a93" opacity="0.15"/>
        </g>
        <g id="Group_129323" data-name="Group 129323" transform="translate(46.138 145.489)">
          <path id="Path_190984" data-name="Path 190984" d="M-3272.841,1451.3c2.885-1.668,4.029.64,4.043,4.029.006,3.832-1.334,7.242-4.084,8.835-2.791,1.606-4.029-.571-4.051-4.071C-3276.946,1456.516-3275.633,1452.9-3272.841,1451.3Zm.013,10.625c.988-.572,1.5-2.273,1.5-5.1-.007-2.737-.525-3.9-1.529-3.315-.936.538-1.569,2.26-1.535,5.125-.02,2.859.585,3.86,1.566,3.294Z" transform="translate(3276.933 -1450.741)" fill="#084a93" opacity="0.15"/>
        </g>
        <g id="Group_129324" data-name="Group 129324" transform="translate(56.206 139.945)">
          <path id="Path_190985" data-name="Path 190985" d="M-3261.039,1444.717l.034,12.4-2.437,1.4-.027-9.815-.041.027-2.049,2.3-.436-1.933,2.859-3.165Z" transform="translate(3265.994 -1444.717)" fill="#084a93" opacity="0.15"/>
        </g>
        <g id="Group_129325" data-name="Group 129325" transform="translate(64.572 134.844)">
          <path id="Path_190986" data-name="Path 190986" d="M-3252.821,1439.728c2.893-1.667,4.029.647,4.043,4.037.008,3.832-1.327,7.243-4.084,8.829-2.783,1.612-4.022-.565-4.042-4.064C-3256.918,1444.956-3255.6,1441.349-3252.821,1439.728Zm.02,10.626c.98-.566,1.5-2.274,1.491-5.1-.007-2.736-.517-3.9-1.531-3.322-.926.537-1.565,2.267-1.531,5.132-.014,2.859.585,3.86,1.572,3.288Z" transform="translate(3256.904 -1439.174)" fill="#084a93" opacity="0.15"/>
        </g>
        <g id="Group_129326" data-name="Group 129326" transform="translate(73.781 129.526)">
          <path id="Path_190987" data-name="Path 190987" d="M-3242.8,1433.952c2.883-1.668,4.026.64,4.039,4.03.007,3.839-1.327,7.242-4.083,8.834-2.784,1.613-4.03-.572-4.05-4.063C-3246.912,1439.173-3245.6,1435.565-3242.8,1433.952Zm.01,10.625c.987-.564,1.5-2.273,1.5-5.105-.008-2.736-.525-3.9-1.525-3.315-.939.538-1.572,2.267-1.538,5.126-.014,2.859.585,3.865,1.565,3.294Z" transform="translate(3246.898 -1433.397)" fill="#084a93" opacity="0.15"/>
        </g>
        <g id="Group_129327" data-name="Group 129327" transform="translate(82.997 124.204)">
          <path id="Path_190988" data-name="Path 190988" d="M-3232.793,1428.169c2.886-1.668,4.029.64,4.037,4.037.013,3.831-1.327,7.242-4.077,8.828-2.792,1.613-4.03-.565-4.051-4.063C-3236.894,1433.389-3235.583,1429.782-3232.793,1428.169Zm.014,10.625c.98-.565,1.5-2.273,1.5-5.105-.006-2.73-.524-3.9-1.531-3.315-.932.545-1.566,2.267-1.531,5.133-.014,2.859.585,3.859,1.565,3.287Z" transform="translate(3236.884 -1427.614)" fill="#084a93" opacity="0.15"/>
        </g>
        <g id="Group_129328" data-name="Group 129328" transform="translate(93.071 118.674)">
          <path id="Path_190989" data-name="Path 190989" d="M-3221,1421.6l.034,12.388-2.43,1.4-.02-9.815-.041.021-2.056,2.3-.422-1.926,2.859-3.172Z" transform="translate(3225.938 -1421.605)" fill="#084a93" opacity="0.15"/>
        </g>
        <g id="Group_129329" data-name="Group 129329" transform="translate(101.423 113.565)">
          <path id="Path_190990" data-name="Path 190990" d="M-3212.772,1416.609c2.893-1.668,4.036.64,4.047,4.029,0,3.84-1.332,7.249-4.081,8.835-2.791,1.613-4.03-.564-4.057-4.063C-3216.87,1421.83-3215.556,1418.215-3212.772,1416.609Zm.024,10.625c.969-.559,1.494-2.267,1.486-5.105,0-2.73-.517-3.893-1.524-3.315-.94.538-1.572,2.267-1.539,5.125-.013,2.866.589,3.866,1.576,3.295Z" transform="translate(3216.863 -1416.054)" fill="#084a93" opacity="0.15"/>
        </g>
        <g id="Group_129330" data-name="Group 129330" transform="translate(110.639 108.248)">
          <path id="Path_190991" data-name="Path 190991" d="M-3202.758,1410.833c2.889-1.668,4.029.633,4.043,4.029.006,3.84-1.327,7.242-4.077,8.835-2.792,1.606-4.037-.571-4.057-4.071C-3206.856,1416.053-3205.549,1412.439-3202.758,1410.833Zm.02,10.618c.98-.565,1.5-2.266,1.491-5.1-.007-2.73-.525-3.894-1.532-3.309-.932.531-1.564,2.26-1.531,5.125-.014,2.86.584,3.86,1.572,3.287Z" transform="translate(3206.849 -1410.277)" fill="#084a93" opacity="0.15"/>
        </g>
        <g id="Group_129331" data-name="Group 129331" transform="translate(119.856 102.926)">
          <path id="Path_190992" data-name="Path 190992" d="M-3192.744,1405.049c2.885-1.668,4.029.64,4.043,4.03.007,3.839-1.327,7.249-4.084,8.834-2.791,1.607-4.029-.564-4.049-4.07C-3196.849,1410.27-3195.536,1406.662-3192.744,1405.049Zm.013,10.625c.988-.572,1.5-2.273,1.5-5.112-.01-2.722-.527-3.893-1.528-3.309-.939.538-1.573,2.267-1.539,5.126-.021,2.865.586,3.859,1.565,3.294Z" transform="translate(3196.835 -1404.494)" fill="#084a93" opacity="0.15"/>
        </g>
        <g id="Group_129332" data-name="Group 129332" transform="translate(129.923 97.389)">
          <path id="Path_190993" data-name="Path 190993" d="M-3180.948,1398.478l.027,12.395-2.423,1.4-.027-9.808-.041.02-2.049,2.3-.436-1.927,2.866-3.172Z" transform="translate(3185.897 -1398.478)" fill="#084a93" opacity="0.15"/>
        </g>
        <g id="Group_129333" data-name="Group 129333" transform="translate(138.281 92.288)">
          <path id="Path_190994" data-name="Path 190994" d="M-3172.724,1393.49c2.894-1.668,4.037.64,4.044,4.029.006,3.839-1.328,7.242-4.078,8.835-2.79,1.606-4.029-.572-4.057-4.071C-3176.822,1398.71-3175.508,1395.1-3172.724,1393.49Zm.021,10.625c.973-.564,1.5-2.273,1.5-5.1-.008-2.737-.525-3.9-1.542-3.309-.923.531-1.555,2.253-1.525,5.119-.018,2.859.582,3.859,1.569,3.294Z" transform="translate(3176.815 -1392.935)" fill="#084a93" opacity="0.15"/>
        </g>
        <g id="Group_129334" data-name="Group 129334" transform="translate(147.497 86.965)">
          <path id="Path_190995" data-name="Path 190995" d="M-3162.71,1387.706c2.893-1.668,4.03.64,4.043,4.037.007,3.832-1.327,7.242-4.077,8.828-2.787,1.613-4.036-.572-4.057-4.063C-3166.808,1392.927-3165.5,1389.319-3162.71,1387.706Zm.02,10.625c.967-.559,1.5-2.273,1.491-5.105-.006-2.736-.517-3.9-1.525-3.315-.939.538-1.572,2.267-1.538,5.125-.014,2.866.589,3.866,1.572,3.295Z" transform="translate(3166.801 -1387.151)" fill="#084a93" opacity="0.15"/>
        </g>
        <path id="Path_190996" data-name="Path 190996" d="M-3214.54,1321.332l.034,12.4-2.43,1.4-.034-9.815-.034.02-2.048,2.307-.429-1.933,2.859-3.172Z" transform="translate(3318.495 -1294.943)" fill="#084a93" opacity="0.15"/>
        <path id="Path_190997" data-name="Path 190997" d="M-3204.533,1315.555l.034,12.388-2.423,1.4-.034-9.815-.034.02-2.049,2.3-.436-1.927,2.865-3.172Z" transform="translate(3317.698 -1294.483)" fill="#084a93" opacity="0.15"/>
        <path id="Path_190998" data-name="Path 190998" d="M-3196.295,1310.56c2.879-1.668,4.026.626,4.036,4.029.007,3.839-1.327,7.229-4.083,8.822-2.784,1.606-4.023-.559-4.051-4.057C-3200.4,1315.78-3199.093,1312.173-3196.295,1310.56Zm.013,10.618c.981-.564,1.5-2.267,1.5-5.1-.014-2.736-.524-3.894-1.539-3.315-.932.537-1.559,2.267-1.531,5.125-.014,2.866.585,3.859,1.572,3.287Z" transform="translate(3316.974 -1294.041)" fill="#084a93" opacity="0.15"/>
        <path id="Path_190999" data-name="Path 190999" d="M-3186.288,1304.776c2.894-1.668,4.03.626,4.043,4.029.007,3.84-1.327,7.236-4.077,8.822-2.791,1.613-4.036-.551-4.056-4.05C-3190.393,1310-3189.075,1306.389-3186.288,1304.776Zm.014,10.625c.974-.558,1.5-2.267,1.5-5.105-.006-2.73-.517-3.893-1.531-3.314-.932.544-1.565,2.266-1.531,5.132-.014,2.859.586,3.853,1.566,3.287Z" transform="translate(3316.177 -1293.58)" fill="#084a93" opacity="0.15"/>
        <path id="Path_191000" data-name="Path 191000" d="M-3176.274,1299c2.886-1.668,4.03.627,4.036,4.029.014,3.832-1.327,7.229-4.077,8.822-2.791,1.613-4.03-.559-4.05-4.058C-3180.378,1304.221-3179.064,1300.613-3176.274,1299Zm.014,10.618c.974-.558,1.5-2.266,1.5-5.1-.006-2.736-.524-3.9-1.545-3.308-.919.531-1.552,2.253-1.514,5.118-.024,2.86.582,3.86,1.562,3.287Z" transform="translate(3315.379 -1293.12)" fill="#084a93" opacity="0.15"/>
        <path id="Path_191001" data-name="Path 191001" d="M-3166.267,1293.216c2.893-1.668,4.037.627,4.043,4.037.014,3.832-1.327,7.222-4.077,8.815-2.791,1.613-4.029-.559-4.051-4.05C-3170.364,1298.437-3169.051,1294.829-3166.267,1293.216Zm.02,10.625c.974-.558,1.5-2.273,1.5-5.105-.014-2.729-.524-3.9-1.531-3.314-.932.537-1.572,2.266-1.531,5.125-.02,2.865.579,3.859,1.565,3.294Z" transform="translate(3314.582 -1292.659)" fill="#084a93" opacity="0.15"/>
        <path id="Path_191002" data-name="Path 191002" d="M-3236.277,1358.559c2.885-1.668,4.03.64,4.036,4.029.014,3.84-1.327,7.243-4.077,8.835-2.791,1.613-4.029-.572-4.057-4.071C-3240.381,1363.779-3239.068,1360.172-3236.277,1358.559Zm.013,10.625c.988-.572,1.5-2.273,1.5-5.105-.007-2.736-.524-3.9-1.531-3.322-.932.544-1.565,2.266-1.528,5.132-.017,2.859.583,3.86,1.562,3.295Z" transform="translate(3320.159 -1297.865)" fill="#084a93" opacity="0.15"/>
        <path id="Path_191003" data-name="Path 191003" d="M-3224.487,1351.987l.034,12.388-2.43,1.409-.027-9.822-.034.02-2.052,2.307-.426-1.933,2.859-3.172Z" transform="translate(3319.287 -1297.385)" fill="#084a93" opacity="0.15"/>
        <path id="Path_191004" data-name="Path 191004" d="M-3216.256,1347c2.893-1.668,4.037.633,4.043,4.03.007,3.831-1.333,7.242-4.08,8.828-2.788,1.613-4.034-.565-4.054-4.063C-3220.354,1352.213-3219.047,1348.606-3216.256,1347Zm.021,10.625c.973-.565,1.5-2.273,1.49-5.112-.006-2.73-.517-3.894-1.531-3.315-.932.545-1.565,2.267-1.531,5.125-.01,2.866.585,3.866,1.573,3.3Z" transform="translate(3318.564 -1296.944)" fill="#084a93" opacity="0.15"/>
        <path id="Path_191005" data-name="Path 191005" d="M-3206.242,1341.216c2.886-1.668,4.033.64,4.043,4.029.008,3.839-1.333,7.242-4.083,8.835-2.792,1.613-4.029-.565-4.051-4.071C-3210.347,1346.436-3209.032,1342.828-3206.242,1341.216Zm.02,10.624c.981-.564,1.5-2.273,1.491-5.1-.006-2.737-.523-3.894-1.531-3.315-.933.537-1.566,2.267-1.531,5.125-.014,2.859.585,3.859,1.572,3.294Z" transform="translate(3317.766 -1296.483)" fill="#084a93" opacity="0.15"/>
        <path id="Path_191006" data-name="Path 191006" d="M-3196.228,1335.439c2.886-1.674,4.029.641,4.037,4.03.014,3.832-1.321,7.242-4.077,8.828-2.784,1.613-4.03-.564-4.05-4.063C-3200.333,1340.653-3199.015,1337.046-3196.228,1335.439Zm.014,10.619c.987-.565,1.5-2.273,1.5-5.105-.006-2.73-.524-3.893-1.532-3.315-.932.538-1.565,2.267-1.531,5.125-.02,2.866.585,3.866,1.565,3.295Z" transform="translate(3316.968 -1296.023)" fill="#084a93" opacity="0.15"/>
        <path id="Path_191007" data-name="Path 191007" d="M-3184.439,1328.868l.034,12.388-2.423,1.4-.034-9.815-.034.02-2.049,2.308-.436-1.933,2.866-3.172Z" transform="translate(3316.097 -1295.544)" fill="#084a93" opacity="0.15"/>
        <path id="Path_191008" data-name="Path 191008" d="M-3176.207,1323.872c2.893-1.668,4.037.64,4.043,4.03.01,3.839-1.327,7.249-4.083,8.834-2.785,1.613-4.03-.564-4.051-4.063C-3180.3,1329.093-3179,1325.485-3176.207,1323.872Zm.02,10.625c.973-.558,1.5-2.273,1.491-5.105-.007-2.736-.518-3.9-1.539-3.308-.925.531-1.552,2.26-1.524,5.118-.014,2.859.584,3.86,1.572,3.295Z" transform="translate(3315.374 -1295.101)" fill="#084a93" opacity="0.15"/>
        <path id="Path_191009" data-name="Path 191009" d="M-3166.193,1318.089c2.893-1.661,4.03.646,4.037,4.037.013,3.831-1.321,7.242-4.078,8.828-2.783,1.613-4.029-.565-4.049-4.063C-3170.3,1323.317-3168.985,1319.7-3166.193,1318.089Zm.021,10.625c.966-.559,1.5-2.273,1.491-5.1-.007-2.736-.517-3.9-1.532-3.322-.933.537-1.566,2.267-1.531,5.132-.014,2.859.585,3.86,1.572,3.288Z" transform="translate(3314.576 -1294.641)" fill="#084a93" opacity="0.15"/>
        <path id="Path_191010" data-name="Path 191010" d="M-3246.224,1389.215c2.893-1.667,4.03.64,4.043,4.029.014,3.832-1.327,7.229-4.077,8.821-2.79,1.613-4.029-.558-4.049-4.049C-3250.321,1394.429-3249.014,1390.828-3246.224,1389.215Zm.021,10.625c.98-.572,1.5-2.273,1.491-5.105,0-2.736-.517-3.9-1.525-3.315-.939.537-1.572,2.259-1.538,5.125-.014,2.859.592,3.859,1.572,3.295Z" transform="translate(3320.95 -1300.307)" fill="#084a93" opacity="0.15"/>
        <path id="Path_191011" data-name="Path 191011" d="M-3234.414,1382.636l.034,12.388-2.444,1.416-.027-9.815-.041.021-2.045,2.3-.432-1.933,2.859-3.165Z" transform="translate(3320.079 -1299.827)" fill="#084a93" opacity="0.15"/>
        <path id="Path_191012" data-name="Path 191012" d="M-3224.413,1376.867l.034,12.388-2.43,1.4-.028-9.815-.041.02-2.049,2.3-.429-1.933,2.862-3.165Z" transform="translate(3319.281 -1299.367)" fill="#084a93" opacity="0.15"/>
        <path id="Path_191013" data-name="Path 191013" d="M-3216.182,1371.871c2.886-1.667,4.033.641,4.043,4.03.007,3.832-1.334,7.229-4.084,8.822-2.791,1.606-4.029-.559-4.05-4.057C-3220.287,1377.092-3218.973,1373.478-3216.182,1371.871Zm.014,10.625c.974-.565,1.508-2.273,1.5-5.1-.006-2.737-.523-3.9-1.531-3.323-.932.545-1.565,2.267-1.531,5.133-.02,2.859.585,3.859,1.565,3.294Z" transform="translate(3318.558 -1298.925)" fill="#084a93" opacity="0.15"/>
        <path id="Path_191014" data-name="Path 191014" d="M-3204.392,1365.3l.034,12.395-2.423,1.4-.027-9.815-.041.021-2.049,2.3-.429-1.927,2.859-3.179Z" transform="translate(3317.686 -1298.446)" fill="#084a93" opacity="0.15"/>
        <path id="Path_191015" data-name="Path 191015" d="M-3194.379,1359.524l.034,12.388-2.43,1.4-.027-9.815-.041.021-2.049,2.307-.429-1.933,2.859-3.172Z" transform="translate(3316.889 -1297.986)" fill="#084a93" opacity="0.15"/>
        <path id="Path_191016" data-name="Path 191016" d="M-3184.365,1353.74l.034,12.4-2.43,1.4-.027-9.822-.034.027-2.056,2.3-.429-1.933,2.859-3.165Z" transform="translate(3316.091 -1297.525)" fill="#084a93" opacity="0.15"/>
        <path id="Path_191017" data-name="Path 191017" d="M-3176.133,1348.752c2.885-1.668,4.029.64,4.043,4.029.007,3.832-1.334,7.229-4.084,8.815-2.79,1.613-4.029-.551-4.05-4.05C-3180.238,1353.973-3178.925,1350.358-3176.133,1348.752Zm.013,10.618c.974-.558,1.5-2.266,1.5-5.1-.008-2.73-.525-3.894-1.545-3.3-.919.524-1.553,2.253-1.518,5.118-.021,2.859.585,3.86,1.565,3.287Z" transform="translate(3315.368 -1297.083)" fill="#084a93" opacity="0.15"/>
        <path id="Path_191018" data-name="Path 191018" d="M-3166.12,1342.968c2.886-1.667,4.029.641,4.037,4.036.014,3.832-1.324,7.229-4.078,8.815-2.791,1.613-4.029-.559-4.056-4.05C-3170.225,1348.189-3168.91,1344.581-3166.12,1342.968Zm.014,10.625c.973-.558,1.508-2.273,1.5-5.1-.007-2.737-.525-3.9-1.531-3.315-.933.537-1.565,2.26-1.532,5.125-.021,2.859.586,3.859,1.566,3.294Z" transform="translate(3314.571 -1296.623)" fill="#084a93" opacity="0.15"/>
      </g>
      <g id="Group_129386" data-name="Group 129386" transform="translate(-3120.298 1408.791)">
        <g id="Group_129336" data-name="Group 129336" transform="translate(0 101.434)" opacity="0.1">
          <path id="Path_191019" data-name="Path 191019" d="M-3093.079,1532.374c-7.678,4.431-7.705,11.605-.089,16.03s20,4.431,27.67,0,7.705-11.6.088-16.03S-3085.422,1527.95-3093.079,1532.374Z" transform="translate(3098.859 -1529.056)"/>
        </g>
        <g id="Group_129337" data-name="Group 129337" transform="translate(47.476 126.855)" opacity="0.1">
          <path id="Path_191020" data-name="Path 191020" d="M-3042.072,1559.664c-6.909,3.989-6.936,10.442-.082,14.431s18.011,3.989,24.913,0,6.937-10.442.082-14.431S-3035.17,1555.682-3042.072,1559.664Z" transform="translate(3047.274 -1556.677)"/>
        </g>
        <g id="Group_129338" data-name="Group 129338" transform="translate(89.205 147.639)" opacity="0.1">
          <path id="Path_191021" data-name="Path 191021" d="M-2997.314,1581.91c-6.133,3.541-6.16,9.271-.075,12.8s15.961,3.536,22.087,0,6.154-9.264.082-12.8S-2991.2,1578.378-2997.314,1581.91Z" transform="translate(3001.933 -1579.261)"/>
        </g>
        <g id="Group_129353" data-name="Group 129353" transform="translate(0.064)">
          <g id="Group_129351" data-name="Group 129351">
            <g id="Group_129350" data-name="Group 129350">
              <g id="Group_129339" data-name="Group 129339" transform="translate(0 101.324)" opacity="0">
                <path id="Path_191022" data-name="Path 191022" d="M-3093.013,1532.256c-7.671,4.424-7.705,11.605-.088,16.036s20.012,4.425,27.683,0,7.709-11.612.088-16.036S-3085.341,1527.831-3093.013,1532.256Z" transform="translate(3098.79 -1528.937)" fill="#ffb400"/>
              </g>
              <g id="Group_129340" data-name="Group 129340" transform="translate(0 92.113)" opacity="0.091">
                <path id="Path_191023" data-name="Path 191023" d="M-3093.013,1522.247c-7.671,4.425-7.705,11.606-.088,16.037s20.012,4.424,27.683,0,7.709-11.612.088-16.037S-3085.341,1517.823-3093.013,1522.247Z" transform="translate(3098.79 -1518.929)" fill="#ffb400"/>
              </g>
              <g id="Group_129341" data-name="Group 129341" transform="translate(0 82.902)" opacity="0.182">
                <path id="Path_191024" data-name="Path 191024" d="M-3093.013,1512.239c-7.671,4.425-7.705,11.606-.088,16.036s20.012,4.425,27.683,0,7.709-11.611.088-16.036S-3085.341,1507.814-3093.013,1512.239Z" transform="translate(3098.79 -1508.92)" fill="#ffb400"/>
              </g>
              <g id="Group_129342" data-name="Group 129342" transform="translate(0 73.691)" opacity="0.273">
                <path id="Path_191025" data-name="Path 191025" d="M-3093.013,1502.23c-7.671,4.426-7.705,11.607-.088,16.037s20.012,4.424,27.683,0,7.709-11.611.088-16.037S-3085.341,1497.806-3093.013,1502.23Z" transform="translate(3098.79 -1498.912)" fill="#ffb400"/>
              </g>
              <g id="Group_129343" data-name="Group 129343" transform="translate(0 64.479)" opacity="0.364">
                <path id="Path_191026" data-name="Path 191026" d="M-3093.013,1492.222c-7.671,4.426-7.705,11.607-.088,16.036s20.012,4.424,27.683,0,7.709-11.61.088-16.036S-3085.341,1487.8-3093.013,1492.222Z" transform="translate(3098.79 -1488.903)" fill="#ffb400"/>
              </g>
              <g id="Group_129344" data-name="Group 129344" transform="translate(0 55.268)" opacity="0.455">
                <path id="Path_191027" data-name="Path 191027" d="M-3093.013,1482.213c-7.671,4.427-7.705,11.608-.088,16.036s20.012,4.425,27.683,0,7.709-11.609.088-16.036S-3085.341,1477.788-3093.013,1482.213Z" transform="translate(3098.79 -1478.894)" fill="#ffb400"/>
              </g>
              <g id="Group_129345" data-name="Group 129345" transform="translate(0 46.057)" opacity="0.545">
                <path id="Path_191028" data-name="Path 191028" d="M-3093.013,1472.2c-7.671,4.428-7.705,11.609-.088,16.037s20.012,4.424,27.683,0,7.709-11.609.088-16.037S-3085.341,1467.78-3093.013,1472.2Z" transform="translate(3098.79 -1468.886)" fill="#ffb400"/>
              </g>
              <g id="Group_129346" data-name="Group 129346" transform="translate(0 36.845)" opacity="0.636">
                <path id="Path_191029" data-name="Path 191029" d="M-3093.013,1462.2c-7.671,4.428-7.705,11.609-.088,16.036s20.012,4.424,27.683,0,7.709-11.608.088-16.036S-3085.341,1457.771-3093.013,1462.2Z" transform="translate(3098.79 -1458.877)" fill="#ffb400"/>
              </g>
              <g id="Group_129347" data-name="Group 129347" transform="translate(0 27.633)" opacity="0.727">
                <path id="Path_191030" data-name="Path 191030" d="M-3093.013,1452.187c-7.671,4.429-7.705,11.61-.088,16.036s20.012,4.425,27.683,0,7.709-11.607.088-16.036S-3085.341,1447.762-3093.013,1452.187Z" transform="translate(3098.79 -1448.868)" fill="#ffb400"/>
              </g>
              <g id="Group_129348" data-name="Group 129348" transform="translate(0 18.422)" opacity="0.818">
                <path id="Path_191031" data-name="Path 191031" d="M-3093.013,1442.178c-7.671,4.431-7.705,11.611-.088,16.037s20.012,4.424,27.683,0,7.709-11.606.088-16.037S-3085.341,1437.754-3093.013,1442.178Z" transform="translate(3098.79 -1438.86)" fill="#ffb400"/>
              </g>
              <g id="Group_129349" data-name="Group 129349" transform="translate(0 9.211)" opacity="0.909">
                <path id="Path_191032" data-name="Path 191032" d="M-3093.013,1432.17c-7.671,4.431-7.705,11.611-.088,16.036s20.012,4.424,27.683,0,7.709-11.605.088-16.036S-3085.341,1427.745-3093.013,1432.17Z" transform="translate(3098.79 -1428.851)" fill="#ffb400"/>
              </g>
              <path id="Path_191033" data-name="Path 191033" d="M-3093.013,1422.161c-7.671,4.431-7.705,11.612-.088,16.037s20.012,4.424,27.683,0,7.709-11.606.088-16.037S-3085.341,1417.737-3093.013,1422.161Z" transform="translate(3098.79 -1418.843)" fill="#ffb400"/>
            </g>
          </g>
          <g id="Group_129352" data-name="Group 129352" transform="translate(0.078 0.044)">
            <path id="Path_191034" data-name="Path 191034" d="M-3092.952,1422.2c-7.643,4.41-7.671,11.558-.081,15.969s19.922,4.417,27.567,0,7.671-11.565.089-15.969S-3085.315,1417.787-3092.952,1422.2Z" transform="translate(3098.705 -1418.89)" fill="#ffb400"/>
          </g>
        </g>
        <g id="Group_129368" data-name="Group 129368" transform="translate(89.223 101.721)">
          <g id="Group_129366" data-name="Group 129366">
            <g id="Group_129365" data-name="Group 129365">
              <g id="Group_129354" data-name="Group 129354" transform="translate(0 45.922)" opacity="0">
                <path id="Path_191035" data-name="Path 191035" d="M-2997.306,1581.91c-6.118,3.541-6.146,9.264-.067,12.8s15.954,3.536,22.081,0,6.146-9.257.074-12.8S-2991.186,1578.384-2997.306,1581.91Z" transform="translate(3001.914 -1579.266)" fill="#ffdf75"/>
              </g>
              <g id="Group_129355" data-name="Group 129355" transform="translate(0 41.748)" opacity="0.091">
                <path id="Path_191036" data-name="Path 191036" d="M-2997.306,1577.375c-6.118,3.539-6.146,9.263-.067,12.8s15.954,3.536,22.081,0,6.146-9.257.074-12.8S-2991.186,1573.848-2997.306,1577.375Z" transform="translate(3001.914 -1574.73)" fill="#ffdf75"/>
              </g>
              <g id="Group_129356" data-name="Group 129356" transform="translate(0 37.573)" opacity="0.182">
                <path id="Path_191037" data-name="Path 191037" d="M-2997.306,1572.839c-6.118,3.538-6.146,9.263-.067,12.795s15.954,3.537,22.081,0,6.146-9.257.074-12.795S-2991.186,1569.312-2997.306,1572.839Z" transform="translate(3001.914 -1570.194)" fill="#ffdf75"/>
              </g>
              <g id="Group_129357" data-name="Group 129357" transform="translate(0 33.398)" opacity="0.273">
                <path id="Path_191038" data-name="Path 191038" d="M-2997.306,1568.3c-6.118,3.537-6.146,9.262-.067,12.794s15.954,3.537,22.081,0,6.146-9.257.074-12.794S-2991.186,1564.775-2997.306,1568.3Z" transform="translate(3001.914 -1565.657)" fill="#ffdf75"/>
              </g>
              <g id="Group_129358" data-name="Group 129358" transform="translate(0 29.224)" opacity="0.364">
                <path id="Path_191039" data-name="Path 191039" d="M-2997.306,1563.768c-6.118,3.534-6.146,9.261-.067,12.792s15.954,3.537,22.081,0,6.146-9.258.074-12.792S-2991.186,1560.239-2997.306,1563.768Z" transform="translate(3001.914 -1561.122)" fill="#ffdf75"/>
              </g>
              <g id="Group_129359" data-name="Group 129359" transform="translate(0 25.049)" opacity="0.455">
                <path id="Path_191040" data-name="Path 191040" d="M-2997.306,1559.232c-6.118,3.533-6.146,9.261-.067,12.791s15.954,3.538,22.081,0,6.146-9.258.074-12.791S-2991.186,1555.7-2997.306,1559.232Z" transform="translate(3001.914 -1556.586)" fill="#ffdf75"/>
              </g>
              <g id="Group_129360" data-name="Group 129360" transform="translate(0 20.873)" opacity="0.545">
                <path id="Path_191041" data-name="Path 191041" d="M-2997.306,1554.7c-6.118,3.532-6.146,9.26-.067,12.79s15.954,3.538,22.081,0,6.146-9.258.074-12.79S-2991.186,1551.166-2997.306,1554.7Z" transform="translate(3001.914 -1552.049)" fill="#ffdf75"/>
              </g>
              <g id="Group_129361" data-name="Group 129361" transform="translate(0 16.699)" opacity="0.636">
                <path id="Path_191042" data-name="Path 191042" d="M-2997.306,1550.161c-6.118,3.53-6.146,9.26-.067,12.788s15.954,3.538,22.081,0,6.146-9.258.074-12.788S-2991.186,1546.63-2997.306,1550.161Z" transform="translate(3001.914 -1547.513)" fill="#ffdf75"/>
              </g>
              <g id="Group_129362" data-name="Group 129362" transform="translate(0 12.524)" opacity="0.727">
                <path id="Path_191043" data-name="Path 191043" d="M-2997.306,1545.625c-6.118,3.529-6.146,9.259-.067,12.787s15.954,3.538,22.081,0,6.146-9.258.074-12.787S-2991.186,1542.094-2997.306,1545.625Z" transform="translate(3001.914 -1542.977)" fill="#ffdf75"/>
              </g>
              <g id="Group_129363" data-name="Group 129363" transform="translate(0 8.349)" opacity="0.818">
                <path id="Path_191044" data-name="Path 191044" d="M-2997.306,1541.089c-6.118,3.529-6.146,9.259-.067,12.786s15.954,3.539,22.081,0,6.146-9.258.074-12.786S-2991.186,1537.557-2997.306,1541.089Z" transform="translate(3001.914 -1538.44)" fill="#ffdf75"/>
              </g>
              <g id="Group_129364" data-name="Group 129364" transform="translate(0 4.175)" opacity="0.909">
                <path id="Path_191045" data-name="Path 191045" d="M-2997.306,1536.554c-6.118,3.527-6.146,9.258-.067,12.784s15.954,3.54,22.081,0,6.146-9.257.074-12.784S-2991.186,1533.021-2997.306,1536.554Z" transform="translate(3001.914 -1533.905)" fill="#ffdf75"/>
              </g>
              <path id="Path_191046" data-name="Path 191046" d="M-2997.306,1532.018c-6.118,3.526-6.146,9.257-.067,12.783s15.954,3.54,22.081,0,6.146-9.257.074-12.783S-2991.186,1528.486-2997.306,1532.018Z" transform="translate(3001.914 -1529.369)" fill="#ffdf75"/>
            </g>
          </g>
          <g id="Group_129367" data-name="Group 129367">
            <path id="Path_191047" data-name="Path 191047" d="M-2997.306,1532.018c-6.118,3.526-6.146,9.257-.067,12.783s15.954,3.54,22.081,0,6.146-9.257.074-12.783S-2991.186,1528.486-2997.306,1532.018Z" transform="translate(3001.914 -1529.369)" fill="#f5e981"/>
          </g>
        </g>
        <g id="Group_129385" data-name="Group 129385" transform="translate(47.494 54.146)">
          <g id="Group_129383" data-name="Group 129383" transform="translate(0.028 0.354)">
            <g id="Group_129381" data-name="Group 129381">
              <g id="Group_129380" data-name="Group 129380">
                <g id="Group_129369" data-name="Group 129369" transform="translate(0 73.478)" opacity="0">
                  <path id="Path_191048" data-name="Path 191048" d="M-3042.027,1560.884c-6.9,3.981-6.929,10.434-.082,14.416s17.984,3.982,24.883,0,6.926-10.441.077-14.416S-3035.139,1556.9-3042.027,1560.884Z" transform="translate(3047.224 -1557.898)" fill="#00dffd"/>
                </g>
                <g id="Group_129370" data-name="Group 129370" transform="translate(0 66.799)" opacity="0.091">
                  <path id="Path_191049" data-name="Path 191049" d="M-3042.027,1553.627c-6.9,3.981-6.929,10.434-.082,14.416s17.984,3.982,24.883,0,6.926-10.441.077-14.416S-3035.139,1549.644-3042.027,1553.627Z" transform="translate(3047.224 -1550.64)" fill="#00dffd"/>
                </g>
                <g id="Group_129371" data-name="Group 129371" transform="translate(0 60.119)" opacity="0.182">
                  <path id="Path_191050" data-name="Path 191050" d="M-3042.027,1546.368c-6.9,3.981-6.929,10.434-.082,14.416s17.984,3.982,24.883,0,6.926-10.44.077-14.416S-3035.139,1542.386-3042.027,1546.368Z" transform="translate(3047.224 -1543.382)" fill="#00dffd"/>
                </g>
                <g id="Group_129372" data-name="Group 129372" transform="translate(0 53.439)" opacity="0.273">
                  <path id="Path_191051" data-name="Path 191051" d="M-3042.027,1539.11c-6.9,3.981-6.929,10.434-.082,14.416s17.984,3.982,24.883,0,6.926-10.439.077-14.416S-3035.139,1535.128-3042.027,1539.11Z" transform="translate(3047.224 -1536.124)" fill="#00dffd"/>
                </g>
                <g id="Group_129373" data-name="Group 129373" transform="translate(0 46.759)" opacity="0.364">
                  <path id="Path_191052" data-name="Path 191052" d="M-3042.027,1531.853c-6.9,3.981-6.929,10.434-.082,14.416s17.984,3.982,24.883,0,6.926-10.439.077-14.416S-3035.139,1527.87-3042.027,1531.853Z" transform="translate(3047.224 -1528.866)" fill="#00dffd"/>
                </g>
                <g id="Group_129374" data-name="Group 129374" transform="translate(0 40.079)" opacity="0.455">
                  <path id="Path_191053" data-name="Path 191053" d="M-3042.027,1524.594c-6.9,3.982-6.929,10.435-.082,14.417s17.984,3.982,24.883,0,6.926-10.438.077-14.417S-3035.139,1520.612-3042.027,1524.594Z" transform="translate(3047.224 -1521.608)" fill="#00dffd"/>
                </g>
                <g id="Group_129375" data-name="Group 129375" transform="translate(0 33.399)" opacity="0.545">
                  <path id="Path_191054" data-name="Path 191054" d="M-3042.027,1517.336c-6.9,3.982-6.929,10.435-.082,14.417s17.984,3.981,24.883,0,6.926-10.438.077-14.417S-3035.139,1513.354-3042.027,1517.336Z" transform="translate(3047.224 -1514.349)" fill="#00dffd"/>
                </g>
                <g id="Group_129376" data-name="Group 129376" transform="translate(0 26.719)" opacity="0.636">
                  <path id="Path_191055" data-name="Path 191055" d="M-3042.027,1510.078c-6.9,3.982-6.929,10.435-.082,14.417s17.984,3.981,24.883,0,6.926-10.437.077-14.417S-3035.139,1506.1-3042.027,1510.078Z" transform="translate(3047.224 -1507.092)" fill="#00dffd"/>
                </g>
                <g id="Group_129377" data-name="Group 129377" transform="translate(0 20.039)" opacity="0.727">
                  <path id="Path_191056" data-name="Path 191056" d="M-3042.027,1502.82c-6.9,3.982-6.929,10.435-.082,14.417s17.984,3.981,24.883,0,6.926-10.437.077-14.417S-3035.139,1498.838-3042.027,1502.82Z" transform="translate(3047.224 -1499.833)" fill="#00dffd"/>
                </g>
                <g id="Group_129378" data-name="Group 129378" transform="translate(0 13.36)" opacity="0.818">
                  <path id="Path_191057" data-name="Path 191057" d="M-3042.027,1495.562c-6.9,3.982-6.929,10.435-.082,14.417s17.984,3.981,24.883,0,6.926-10.436.077-14.417S-3035.139,1491.58-3042.027,1495.562Z" transform="translate(3047.224 -1492.576)" fill="#00dffd"/>
                </g>
                <g id="Group_129379" data-name="Group 129379" transform="translate(0 6.68)" opacity="0.909">
                  <path id="Path_191058" data-name="Path 191058" d="M-3042.027,1488.3c-6.9,3.982-6.929,10.435-.082,14.417s17.984,3.981,24.883,0,6.926-10.436.077-14.417S-3035.139,1484.322-3042.027,1488.3Z" transform="translate(3047.224 -1485.318)" fill="#00dffd"/>
                </g>
                <path id="Path_191059" data-name="Path 191059" d="M-3042.027,1481.046c-6.9,3.982-6.929,10.435-.082,14.417s17.984,3.981,24.883,0,6.926-10.435.077-14.417S-3035.139,1477.064-3042.027,1481.046Z" transform="translate(3047.224 -1478.06)" fill="#00dffd"/>
              </g>
            </g>
            <g id="Group_129382" data-name="Group 129382">
              <path id="Path_191060" data-name="Path 191060" d="M-3042.027,1481.046c-6.9,3.982-6.929,10.435-.082,14.417s17.984,3.981,24.883,0,6.926-10.435.077-14.417S-3035.139,1477.064-3042.027,1481.046Z" transform="translate(3047.224 -1478.06)" fill="#a2f8f7"/>
            </g>
          </g>
          <g id="Group_129384" data-name="Group 129384">
            <path id="Path_191061" data-name="Path 191061" d="M-3042.061,1480.662c-6.9,3.981-6.926,10.435-.078,14.41s17.977,3.981,24.879,0,6.929-10.435.082-14.41S-3035.168,1476.679-3042.061,1480.662Z" transform="translate(3047.254 -1477.675)" fill="#77f3fe"/>
          </g>
        </g>
      </g>
      <g id="Group_129389" data-name="Group 129389" transform="translate(-3357.167 1473.145)">
        <g id="Group_129387" data-name="Group 129387" transform="translate(0 25.913)">
          <path id="Path_191062" data-name="Path 191062" d="M-3351.9,1619.272l-4.043-2.355-.286-99.994,4.04,2.348Z" transform="translate(3356.231 -1516.923)" fill="#a9ddfc" opacity="0.6" style="isolation: isolate"/>
        </g>
        <path id="Path_191063" data-name="Path 191063" d="M-3155.416,1490.482a.426.426,0,0,0-.116-.067,9.348,9.348,0,0,0-1.113-.538c-.088-.041-.2-.075-.307-.109-.146-.061-.306-.116-.466-.17-.184-.062-.357-.136-.558-.19-.306-.088-.65-.156-.977-.224-.16-.034-.3-.075-.466-.109-.072-.014-.13-.034-.2-.041a19.894,19.894,0,0,0-2.073-.238h-.123c-.275-.014-.6,0-.881,0-.572-.02-1.113-.041-1.735-.014-.1.007-.229.028-.331.035-.667.034-1.409.129-2.145.217-.459.054-.864.062-1.354.136-.1.02-.231.048-.34.062-.256.047-.545.109-.807.149-1,.184-2.073.409-3.192.675-.337.081-.67.163-1.021.251-.255.068-.487.116-.748.184-.807.218-1.716.525-2.583.79-.545.163-1.044.3-1.613.483-1.708.572-3.512,1.212-5.448,1.968l-5.66,2.238c-3.659,1.457-6.98,2.785-10.016,4-.2.075-.377.143-.582.224-1.266.5-2.5.988-3.679,1.443l-1.548.593c-.81.305-1.631.626-2.4.912-.589.217-1.126.408-1.7.612-.653.238-1.33.49-1.963.708-.565.2-1.1.367-1.651.551-.582.2-1.184.409-1.759.586-.545.169-1.048.319-1.566.469-.551.163-1.105.333-1.643.476-.146.048-.3.082-.457.116a56.579,56.579,0,0,1-5.8,1.253c-.2.034-.415.054-.622.082-1.355.2-2.7.333-4.061.408-.14,0-.283.021-.415.028-1.426.061-2.865.028-4.342-.048-.262-.013-.524-.034-.787-.048a58.06,58.06,0,0,1-5.861-.721c-.524-.089-1.021-.164-1.558-.259-1.409-.266-2.744-.613-4.043-.981-.327-.088-.641-.183-.939-.271-1.171-.347-2.308-.722-3.424-1.124-.074-.033-.156-.054-.235-.088-1.28-.463-2.533-.946-3.76-1.429-1.1-.435-2.2-.851-3.274-1.259-.231-.082-.467-.17-.69-.259-1.106-.409-2.212-.769-3.325-1.11-.136-.048-.27-.095-.4-.136s-.307-.068-.453-.109c-.939-.259-1.9-.483-2.872-.667-.188-.047-.364-.1-.551-.136-.076-.013-.154-.013-.229-.027-.673-.109-1.365-.184-2.048-.245-.269-.028-.525-.076-.8-.1a.6.6,0,0,0-.108,0c-.483-.028-1-.02-1.514-.02-.437,0-.864-.028-1.317-.007-.031,0-.071.007-.109.007-.449.02-.922.088-1.375.136-.524.047-1.031.075-1.562.156-.052.006-.1.02-.154.027-.881.136-1.8.354-2.722.579-.225.061-.443.082-.674.15a.1.1,0,0,1-.044.006,42.061,42.061,0,0,0-4.366,1.511c-.16.068-.3.088-.47.156-.561.238-1.167.531-1.749.8-.4.183-.79.347-1.2.551-1.252.613-2.54,1.287-3.888,2.063-2.117,1.225-4.35,2.654-6.741,4.329-1.375.966-2.686,1.81-3.951,2.538a36.472,36.472,0,0,1-4.292,2.138,26.831,26.831,0,0,1-3.628,1.211c-.231.062-.449.089-.676.143a21.523,21.523,0,0,1-2.649.429c-.2.014-.4.042-.6.054a18.578,18.578,0,0,1-2.77-.034c-.235-.02-.459-.054-.7-.081-.664-.082-1.311-.2-1.95-.34-.329-.075-.664-.144-1-.232-.422-.115-.837-.251-1.246-.394-.735-.232-1.466-.49-2.175-.777-.347-.149-.7-.285-1.051-.435-1.093-.477-2.172-.974-3.261-1.484-1.035-.491-2.087-.974-3.142-1.437-.184-.075-.344-.157-.517-.231s-.351-.116-.531-.191c-.705-.286-1.427-.545-2.155-.776-.251-.082-.487-.2-.742-.272-.2-.055-.409-.089-.62-.144-.347-.095-.691-.17-1.052-.245-.255-.054-.51-.136-.779-.177-.422-.082-.864-.109-1.3-.156-.2-.028-.392-.062-.6-.075-.088-.006-.18-.027-.262-.033-.684-.041-1.388-.048-2.1-.021-.16.006-.327.041-.487.048-.225.02-.456.041-.684.068-.347.04-.691.048-1.052.1-.541.088-1.116.231-1.694.367-.212.042-.4.074-.613.13-.079.02-.146.027-.231.047a28.718,28.718,0,0,0-3.448,1.184c-.017.014-.044.028-.057.042a37.1,37.1,0,0,0-4.476,2.225c-.844.49-1.726,1.028-2.627,1.627l4.039,2.348c.91-.592,1.788-1.137,2.642-1.633a39.885,39.885,0,0,1,4.458-2.226,27.675,27.675,0,0,1,3.751-1.266c.211-.054.4-.081.605-.129a22.118,22.118,0,0,1,2.75-.463c.225-.027.456-.054.678-.068a18.309,18.309,0,0,1,2.858,0c.194.014.385.048.578.075a19.229,19.229,0,0,1,2.118.34c.35.075.694.15,1.035.238.453.122.895.265,1.345.409.742.238,1.476.5,2.2.8.334.136.667.265.99.4,1.069.463,2.124.946,3.176,1.443q1.608.766,3.239,1.477c.208.082.4.19.6.28.167.067.34.109.493.169.691.28,1.4.531,2.118.763.269.088.53.211.807.293.16.047.329.074.489.109.32.1.647.163.974.232s.613.163.94.217.684.082,1.031.13c.232.027.453.061.684.075.13.014.262.041.392.054a20.392,20.392,0,0,0,2.045.014,2.982,2.982,0,0,0,.341-.034c.19-.014.387-.041.591-.054.392-.041.786-.054,1.2-.116.466-.082.97-.2,1.457-.307.225-.054.436-.088.667-.143.108-.028.211-.041.319-.068a28.45,28.45,0,0,0,3.288-1.137s.018-.014.024-.014a39.084,39.084,0,0,0,4.292-2.131c1.259-.735,2.577-1.579,3.952-2.546,2.385-1.674,4.618-3.1,6.735-4.322,1.357-.783,2.654-1.463,3.917-2.076.367-.184.715-.327,1.079-.5q1.211-.56,2.355-1.027a42.222,42.222,0,0,1,4.329-1.485c.276-.074.538-.109.807-.177.9-.218,1.784-.429,2.635-.558.6-.095,1.157-.136,1.739-.191.449-.047.916-.116,1.351-.136.484-.02.953,0,1.433.007.5,0,1.022-.02,1.515.013.306.021.6.069.888.1.691.068,1.389.136,2.059.245.27.042.531.109.8.156.96.19,1.913.416,2.849.681.286.074.582.156.875.245,1.113.333,2.205.7,3.3,1.1.269.1.541.211.81.307.994.381,1.984.756,2.988,1.15,1.3.511,2.617,1.027,3.979,1.518.037.014.075.027.123.04,1.129.416,2.3.79,3.5,1.158.184.054.351.122.535.17.129.041.269.061.405.1,1.3.368,2.634.715,4.043.974.409.075.8.15,1.2.218.126.02.232.02.358.048,2.059.34,4,.584,5.863.714.109.014.232.034.334.042.153.006.289,0,.442.006,1.491.081,2.948.109,4.381.048h.078c.068,0,.146-.021.217-.021,1.385-.068,2.768-.211,4.149-.408.143-.028.289-.028.429-.048a1.964,1.964,0,0,0,.2-.041,55.994,55.994,0,0,0,5.782-1.238c.092-.028.167-.035.256-.062s.159-.048.238-.068c.473-.129.973-.279,1.453-.422.583-.178,1.158-.34,1.756-.532.48-.149.981-.319,1.467-.482.65-.218,1.283-.422,1.958-.653.459-.157.946-.348,1.419-.511.748-.272,1.477-.531,2.256-.824.436-.156.909-.354,1.358-.517.857-.32,1.712-.641,2.627-1,.415-.164.888-.348,1.323-.525.988-.375,1.964-.755,3-1.171.153-.062.313-.122.459-.184,4.394-1.742,9.333-3.737,15.063-5.983,1.936-.762,3.74-1.4,5.458-1.967.559-.184,1.052-.32,1.583-.483,1.15-.354,2.287-.708,3.339-.974.351-.088.684-.17,1.028-.252,1.147-.279,2.246-.51,3.274-.694.225-.04.469-.088.684-.122.661-.1,1.229-.15,1.838-.225.691-.075,1.406-.164,2.039-.2.776-.04,1.484-.04,2.182-.028.245.007.51-.013.749.007a18.886,18.886,0,0,1,2.417.286,3.97,3.97,0,0,1,.422.095,14.476,14.476,0,0,1,1.613.443c.14.041.283.095.415.136a13,13,0,0,1,1.555.722Z" transform="translate(3356.231 -1488.767)" fill="#a9ddfc" opacity="0.6" style="isolation: isolate"/>
        <g id="Group_129388" data-name="Group 129388" transform="translate(4.039 2.33)" opacity="0.6" style="isolation: isolate">
          <path id="Path_191064" data-name="Path 191064" d="M-3349.2,1515.6c12.347-7.121,19.484-3.792,26.54-.45s14,6.711,25.984-.191c1.259-.735,2.577-1.579,3.952-2.546,2.385-1.674,4.618-3.1,6.735-4.322,23.173-13.375,31.488-1.348,48.311,1.81,18.368,3.485,26.5-1.212,58.068-13.614,31.569-12.368,32.583,2.07,32.642,2.832l-204.583,118.114-.29-100C-3350.933,1516.638-3350.055,1516.093-3349.2,1515.6Z" transform="translate(3351.842 -1491.299)" fill="#a9ddfc"/>
        </g>
      </g>
      <g id="Group_129392" data-name="Group 129392" transform="translate(-3367.983 1386.373)">
        <g id="Group_129391" data-name="Group 129391" transform="translate(9.72 9.557)">
          <g id="Group_129390" data-name="Group 129390">
            <path id="Path_191065" data-name="Path 191065" d="M-3357.422,1451c.2-.1.429-.231.619-.34a2.741,2.741,0,0,0,1.307-2.559V1438.3l1.226-.708v9.7a4.9,4.9,0,0,1-2.376,4.574,6.8,6.8,0,0,1-.776.435Z" transform="translate(3357.422 -1407.475)" fill="#e9f0f4"/>
            <path id="Path_191066" data-name="Path 191066" d="M-3351.427,1446.208l-.428,2.845-1.15.661,2.137-14.118,1.8-1.041,2.138,11.653-1.242.714-.433-2.341Zm.156-1.327,2.492-1.437-1.26-6.711Z" transform="translate(3357.07 -1407.233)" fill="#e9f0f4"/>
            <path id="Path_191067" data-name="Path 191067" d="M-3344.865,1432.025l1.817,10.161,1.8-12.252,1.15-.661-2.09,14.09-1.831,1.055-2.107-11.666Z" transform="translate(3356.522 -1406.812)" fill="#e9f0f4"/>
            <path id="Path_191068" data-name="Path 191068" d="M-3337.737,1438.3l-.429,2.845-1.147.66,2.135-14.116,1.8-1.042,2.137,11.653-1.246.714-.428-2.341Zm.16-1.328,2.488-1.436-1.259-6.7Z" transform="translate(3355.979 -1406.603)" fill="#e9f0f4"/>
            <path id="Path_191069" data-name="Path 191069" d="M-3326.84,1424.838v.347l-1.181.681v-.422c0-1.157-.381-1.62-1.273-1.1a2.727,2.727,0,0,0-1.273,2.559c0,2.886,3.743,1,3.743,4.628a5.164,5.164,0,0,1-2.518,4.676c-1.708.98-2.505.17-2.505-1.776v-.735l1.164-.674v.81c0,1.157.415,1.6,1.307,1.082a2.772,2.772,0,0,0,1.307-2.594c0-2.872-3.73-.994-3.73-4.622a5.084,5.084,0,0,1,2.471-4.649C-3327.636,1422.075-3326.84,1422.885-3326.84,1424.838Z" transform="translate(3355.385 -1406.284)" fill="#e9f0f4"/>
            <path id="Path_191070" data-name="Path 191070" d="M-3320.289,1421.074v1.163l-1.182.681v-1.239c0-1.157-.4-1.627-1.307-1.1a2.825,2.825,0,0,0-1.307,2.614V1430c0,1.157.415,1.62,1.307,1.1a2.792,2.792,0,0,0,1.307-2.614v-1.674l1.182-.681v1.6a5.171,5.171,0,0,1-2.519,4.7c-1.7.98-2.5.156-2.5-1.8v-6.664a5.156,5.156,0,0,1,2.5-4.683C-3321.085,1418.3-3320.289,1419.128-3320.289,1421.074Z" transform="translate(3354.864 -1405.983)" fill="#e9f0f4"/>
            <path id="Path_191071" data-name="Path 191071" d="M-3316.135,1415.572c1.753-1.014,2.488-.408,2.488,1.511v1.048a4.468,4.468,0,0,1-1.388,3.451c1.021-.238,1.4.5,1.4,1.878v2.008a2.887,2.887,0,0,0,.224,1.415l-1.259.728a3,3,0,0,1-.207-1.45v-2.021c0-1.457-.589-1.573-1.624-.98l-.877.51v5.5l-1.246.722v-12.885Zm-.316,6.256a2.753,2.753,0,0,0,1.576-2.675v-1.231c0-1.164-.365-1.559-1.29-1.022l-1.211.695v4.771Z" transform="translate(3354.332 -1405.682)" fill="#e9f0f4"/>
            <path id="Path_191072" data-name="Path 191072" d="M-3310.551,1412.449v12.885l-1.242.722v-12.885Z" transform="translate(3353.787 -1405.472)" fill="#e9f0f4"/>
            <path id="Path_191073" data-name="Path 191073" d="M-3306.616,1410.08c1.756-1.014,2.505-.245,2.505,1.7v1.552a4.953,4.953,0,0,1-2.6,4.609l-1.1.632v5.085l-1.242.715v-12.886Zm-.095,6.575a2.615,2.615,0,0,0,1.371-2.524v-1.709c0-1.184-.368-1.558-1.276-1.034l-1.195.694v5.207Z" transform="translate(3353.569 -1405.248)" fill="#e9f0f4"/>
            <path id="Path_191074" data-name="Path 191074" d="M-3301.055,1419.652v-11.579l-2.059,1.184v-1.307l5.344-3.083v1.307l-2.056,1.191v11.579Z" transform="translate(3353.096 -1404.868)" fill="#e9f0f4"/>
          </g>
        </g>
        <path id="Path_191075" data-name="Path 191075" d="M-3296.444,1417.13l-71.539,41.3v-22.646l71.539-41.3Z" transform="translate(3367.983 -1394.484)" fill="#084a93" opacity="0.15"/>
      </g>
      <g id="Group_129395" data-name="Group 129395" transform="translate(-3299.725 1323.819)">
        <g id="Group_129394" data-name="Group 129394" transform="translate(7.767 11.088)">
          <g id="Group_129393" data-name="Group 129393">
            <path id="Path_191076" data-name="Path 191076" d="M-3285.378,1362.912c.2-.1.428-.231.618-.34a2.735,2.735,0,0,0,1.307-2.559v-9.8l1.229-.708v9.7a4.908,4.908,0,0,1-2.375,4.574,8.314,8.314,0,0,1-.779.435Z" transform="translate(3285.378 -1339.436)" fill="#e9f0f4"/>
            <path id="Path_191077" data-name="Path 191077" d="M-3279.384,1358.123l-.429,2.838-1.151.667,2.137-14.117,1.8-1.042,2.133,11.653-1.241.714-.432-2.348Zm.159-1.327,2.489-1.437-1.26-6.711Z" transform="translate(3285.026 -1339.194)" fill="#e9f0f4"/>
            <path id="Path_191078" data-name="Path 191078" d="M-3272.818,1343.939-3271,1354.1l1.8-12.252,1.147-.66-2.09,14.09-1.831,1.056-2.1-11.667Z" transform="translate(3284.478 -1338.773)" fill="#e9f0f4"/>
            <path id="Path_191079" data-name="Path 191079" d="M-3265.694,1350.217l-.429,2.845-1.143.661,2.131-14.117,1.8-1.042,2.137,11.653-1.246.714-.428-2.341Zm.164-1.327,2.484-1.437-1.259-6.711Z" transform="translate(3283.935 -1338.564)" fill="#e9f0f4"/>
          </g>
        </g>
        <path id="Path_191080" data-name="Path 191080" d="M-3255.005,1326.516l-38.812,22.408v22.646l38.812-22.408Z" transform="translate(3293.817 -1326.516)" fill="#084a93" opacity="0.15"/>
      </g>
      <g id="Group_129398" data-name="Group 129398" transform="translate(-3359.638 1360.548)">
        <g id="Group_129397" data-name="Group 129397" transform="translate(10.278 15.622)">
          <g id="Group_129396" data-name="Group 129396">
            <path id="Path_191081" data-name="Path 191081" d="M-3342.725,1389.4v1.164l-1.181.68v-1.231c0-1.164-.4-1.634-1.311-1.11a2.827,2.827,0,0,0-1.307,2.614v6.813c0,1.158.416,1.621,1.307,1.1a2.79,2.79,0,0,0,1.311-2.614v-1.675l1.181-.68v1.6a5.173,5.173,0,0,1-2.518,4.7c-1.708.987-2.505.156-2.505-1.8V1392.3a5.169,5.169,0,0,1,2.505-4.684C-3343.525,1386.62-3342.725,1387.451-3342.725,1389.4Z" transform="translate(3347.748 -1383.7)" fill="#e9f0f4"/>
            <path id="Path_191082" data-name="Path 191082" d="M-3338.142,1390.912l0,2.593-.895.517v-2.6l-2.2,1.273v-1.034l2.2-1.266v-2.559l.892-.517v2.56l2.2-1.273v1.035Z" transform="translate(3347.229 -1383.71)" fill="#e9f0f4"/>
            <path id="Path_191083" data-name="Path 191083" d="M-3331.346,1386.986v2.6l-.892.51V1387.5l-2.2,1.272v-1.034l2.2-1.266v-2.559l.892-.517v2.559l2.2-1.273v1.035Z" transform="translate(3346.688 -1383.398)" fill="#e9f0f4"/>
          </g>
        </g>
        <path id="Path_191084" data-name="Path 191084" d="M-3320.1,1366.424l-38.819,22.408v22.646l38.819-22.408Z" transform="translate(3358.916 -1366.424)" fill="#084a93" opacity="0.15"/>
      </g>
      <g id="Group_129424" data-name="Group 129424" transform="translate(-3232.37 1402.986)">
        <g id="Group_129401" data-name="Group 129401" transform="translate(0 27.775)">
          <g id="Group_129399" data-name="Group 129399" transform="translate(0 4.505)">
            <path id="Path_191085" data-name="Path 191085" d="M-3205.2,1452.891s-5.047-4.921-8.375-5.221-8.219.525-6.8,2.076,6.255,2.73,6.085,4.1-3.049.116-1.862,1.266,3.808,2.273,9.733,1.231A2.838,2.838,0,0,0-3205.2,1452.891Z" transform="translate(3220.632 -1447.609)" fill="#efb185"/>
          </g>
          <g id="Group_129400" data-name="Group 129400" transform="translate(11.398)">
            <path id="Path_191086" data-name="Path 191086" d="M-3161.7,1442.754s5.3.626,2.652,5.779c0,0-4.189,6.418-14.714,13.539,0,0-10.115,7.14-12.987,6.276s-21.5-11.17-21.5-11.17a10.417,10.417,0,0,0,3.127-6.153s17.514,6.779,19.4,6.133S-3165.824,1441.855-3161.7,1442.754Z" transform="translate(3208.247 -1442.714)" fill="#ffb30b"/>
          </g>
          <path id="Path_191087" data-name="Path 191087" d="M-3186.752,1468.8c-2.257-.688-16.462-8.414-21.5-11.17a4.734,4.734,0,0,0,1.161-1.355s19.181,7.222,21.064,6.576,19.9-15.3,24.014-14.4a5.037,5.037,0,0,1,2.529,1.15c-1.311,1.756-5.677,7.106-14.285,12.926C-3173.765,1462.525-3183.879,1469.665-3186.752,1468.8Z" transform="translate(3219.646 -1443.167)" fill="#a96b00"/>
        </g>
        <g id="Group_129420" data-name="Group 129420" transform="translate(38.877)">
          <path id="Path_191088" data-name="Path 191088" d="M-3137,1419.761c14.083-3.369,16.091,24.382,5.371,32.557-1.865,1.423-7.6.122-8.005-1.94-1.694-8.481,10.714-17.37,4.39-25.416a5.18,5.18,0,0,1-1.191-1.191C-3137.463,1422.348-3140.425,1420.918-3137,1419.761Z" transform="translate(3175.316 -1413.088)" fill="#2b0d04"/>
          <g id="Group_129403" data-name="Group 129403" transform="translate(0 158.671)" opacity="0.1">
            <g id="Group_129402" data-name="Group 129402">
              <path id="Path_191089" data-name="Path 191089" d="M-3123.854,1590.361c12.531,7.238,12.592,18.98.136,26.209s-32.693,7.228-45.224,0-12.607-18.971-.15-26.2S-3136.393,1583.132-3123.854,1590.361Z" transform="translate(3178.39 -1584.94)"/>
            </g>
          </g>
          <g id="Group_129408" data-name="Group 129408" transform="translate(6.017 69.601)">
            <g id="Group_129404" data-name="Group 129404" transform="translate(0 90.707)">
              <path id="Path_191090" data-name="Path 191090" d="M-3160.26,1586.718s-.415,4.009-2.2,6.14-9.918,6.994-9.366,9.205,6.345,2.485,10.02-1.136,4.656-4.169,6.208-4.483,3.792-2.233,2.226-5.649C-3153.372,1590.8-3158.292,1589.338-3160.26,1586.718Z" transform="translate(3171.852 -1586.718)"/>
            </g>
            <g id="Group_129406" data-name="Group 129406" transform="translate(5.474)">
              <g id="Group_129405" data-name="Group 129405">
                <path id="Path_191091" data-name="Path 191091" d="M-3161.774,1488.16s-6.7,32.842-3.03,51.05c0,0,1.7,14.363,2.491,18.31s.688,25.423.688,25.423,6.038,2.58,9.073-.238c0,0,3.907-22.115-.367-36.205,0,0,5.036-26.913,5.152-35.681a138.559,138.559,0,0,1,1.212-16.316Z" transform="translate(3165.904 -1488.16)" fill="#5fb9e6"/>
              </g>
            </g>
            <g id="Group_129407" data-name="Group 129407" transform="translate(5.474)">
              <path id="Path_191092" data-name="Path 191092" d="M-3164.8,1539.21s1.7,14.363,2.491,18.31.688,25.423.688,25.423a16.453,16.453,0,0,0,2.4.728c.435-6.4,1.245-17.555,1.585-20.073.5-3.594-3.567-23.252-3.886-30.549s7.766-34.674,7.766-34.674l-2.239-7.806-5.771-2.41S-3168.478,1521-3164.8,1539.21Z" transform="translate(3165.904 -1488.16)" fill="#77d2ff"/>
            </g>
          </g>
          <g id="Group_129409" data-name="Group 129409" transform="translate(24.759 168.516)">
            <path id="Path_191093" data-name="Path 191093" d="M-3140.294,1595.637s-.306,4.013-2.035,6.191-9.727,7.242-9.128,9.447,6.4,2.307,9.986-1.4c3.593-3.724,4.561-4.3,6.106-4.65s3.723-2.328,2.062-5.7C-3133.3,1599.527-3138.258,1598.2-3140.294,1595.637Z" transform="translate(3151.489 -1595.637)"/>
          </g>
          <g id="Group_129410" data-name="Group 129410" transform="translate(17.362 80.404)">
            <path id="Path_191094" data-name="Path 191094" d="M-3133.954,1499.9s6.47,9.263,3.346,28.186l-1.386,22.6s4.285,7.242,1.208,29.2l-2.96,13.208s-3.656,2.689-7.705-2.78c0,0,.292-32.5-1.233-37.5-1.109-3.656-6.2-18.93-8.2-33.68-.734-5.378-9.052-14.281-8.624-18.943Z" transform="translate(3159.525 -1499.898)" fill="#77d2ff"/>
          </g>
          <g id="Group_129411" data-name="Group 129411" transform="translate(35.102 80.404)">
            <path id="Path_191095" data-name="Path 191095" d="M-3132.211,1593.092l2.96-13.208c3.077-21.959-1.208-29.2-1.208-29.2l1.386-22.6c3.124-18.923-3.346-28.186-3.346-28.186l-.745.013-7.087,4.581s7.019,35.783,6.508,44.877,2.056,19.705,1.709,25.368c-.218,3.642-1.845,12.844-2.975,18.981A4.231,4.231,0,0,0-3132.211,1593.092Z" transform="translate(3140.25 -1499.898)" fill="#5fb9e6"/>
          </g>
          <g id="Group_129412" data-name="Group 129412" transform="translate(31.127 34.295)">
            <path id="Path_191096" data-name="Path 191096" d="M-3128.444,1455.9c1.756,5.254-3.675,4.029-6.3,14.368s1.579,20.032,2.981,25.642-2.021,6.936-3.628,7.106a43.945,43.945,0,0,1-6.957.306c4.588-10.02-1.919-28.663-2.212-38.71-.307-10.652,9.332-14.811,9.332-14.811C-3130.125,1453-3128.444,1455.9-3128.444,1455.9Z" transform="translate(3144.569 -1449.798)" fill="#779f29"/>
          </g>
          <g id="Group_129414" data-name="Group 129414" transform="translate(9.869 27.212)">
            <g id="Group_129413" data-name="Group 129413">
              <path id="Path_191097" data-name="Path 191097" d="M-3130.284,1455.665s-5.737-10.816-29.221-13.5c0,0-3.724-1.553-3.369,10.53.048,1.736-1.756,4.717-2.982,6.3s-4.472,7.623,2.635,14.865c0,0,2.756,10.762-.531,17.725-2.934,6.214,12.422,12.293,25.5,11.027,1.606-.156,6.051-1.708,4.649-7.317s-5.609-14.928-2.981-25.267S-3128.528,1460.919-3130.284,1455.665Z" transform="translate(3167.667 -1442.102)" fill="#ffb30b"/>
            </g>
          </g>
          <g id="Group_129417" data-name="Group 129417" transform="translate(19.862 16.754)">
            <g id="Group_129415" data-name="Group 129415">
              <path id="Path_191098" data-name="Path 191098" d="M-3156.809,1436.252s3.778,5.2,1.423,10.286c-.64,1.4-2.409,7.208,6.725,5.486,0,0,9.666-3.989,7.092-7.018-1.708-2.016-3.3-4.86.178-14.267Z" transform="translate(3156.809 -1430.739)" fill="#e8a476"/>
            </g>
            <g id="Group_129416" data-name="Group 129416" transform="translate(1.545 0.85)">
              <path id="Path_191099" data-name="Path 191099" d="M-3141.435,1445.08a1.457,1.457,0,0,1,.395.973c-8.671,1.048-14.089-5.432-14.089-5.432l11.85-8.958h0s.531.422,1.327,1.124C-3144.494,1440.628-3143.021,1443.214-3141.435,1445.08Z" transform="translate(3155.13 -1431.663)" fill="#db9669"/>
            </g>
          </g>
          <g id="Group_129418" data-name="Group 129418" transform="translate(17.197 4.268)">
            <path id="Path_191100" data-name="Path 191100" d="M-3154.242,1418.237s-2.464.646-3.1,7.78c-.082.79-1.429,1.736-1.906,3.668-.483,1.96-1.538,9.877,3.009,11.082,3.295.858,11.7-.6,15.083-8.406S-3143.814,1413.717-3154.242,1418.237Z" transform="translate(3159.705 -1417.172)" fill="#f1b287"/>
          </g>
          <g id="Group_129419" data-name="Group 129419" transform="translate(30.046 17.737)">
            <path id="Path_191101" data-name="Path 191101" d="M-3144.22,1434.581s1.565-3.853,3.744-2.478c.68.449,1.389,1.321.149,3.274s-3.648,3.621-5.417,3.261Z" transform="translate(3145.744 -1431.807)" fill="#f1b287"/>
          </g>
          <path id="Path_191102" data-name="Path 191102" d="M-3136.9,1419.761a8.6,8.6,0,0,1,4.684.089c1.252,3.362.361,5.881-1.321,8.413a8.241,8.241,0,0,0-1.607-3.3,5.181,5.181,0,0,1-1.191-1.191C-3137.36,1422.348-3140.322,1420.919-3136.9,1419.761Z" transform="translate(3175.213 -1413.088)" fill="#eff3fc"/>
          <path id="Path_191103" data-name="Path 191103" d="M-3153.57,1414.607c3.424-2.913,7.59-2.281,11.619-.974,3.492,1.13,6.888,4.826,6.99,8.257.156,4.757-1.429,10.918-7.065,13.743-2.083,1.055,1.485-4.023-1.279-4.281-.882-.088-1.151-1.545-1.79-1.8-.463.225-3.955-1.674-7.733-2.968-.279-.095-.626-2.4-.9-2.484-.361-.122-.633,1.953-.966,1.838a15.063,15.063,0,0,1-3.363-1.675C-3158.873,1420.773-3156,1416.669-3153.57,1414.607Z" transform="translate(3176.782 -1412.535)" fill="#2b0d04"/>
          <path id="Path_191104" data-name="Path 191104" d="M-3142.92,1431.239c-1.28,1.164-1.756,2.73-1.055,3.5s2.3.429,3.587-.728c1.266-1.178,1.743-2.736,1.048-3.5S-3141.647,1430.068-3142.92,1431.239Z" transform="translate(3175.675 -1413.933)" fill="#f1b287"/>
        </g>
        <g id="Group_129423" data-name="Group 129423" transform="translate(33.181 39.699)">
          <g id="Group_129421" data-name="Group 129421" transform="translate(0 27.311)">
            <path id="Path_191105" data-name="Path 191105" d="M-3169.129,1486.541s-6.745-2.049-9.839-.782-7.055,4.247-5.082,4.969,10.646,3.083,15.428-.565A2.836,2.836,0,0,0-3169.129,1486.541Z" transform="translate(3184.579 -1485.345)" fill="#efb185"/>
          </g>
          <g id="Group_129422" data-name="Group 129422" transform="translate(13.97)">
            <path id="Path_191106" data-name="Path 191106" d="M-3134.655,1455.963s4.993-1.885,5.013,3.908c0,0-.77,7.623-6.833,18.792,0,0-5.7,10.994-8.645,11.545s-24.225-.028-24.225-.028a10.417,10.417,0,0,0-.054-6.9s18.671-2.042,20.045-3.478S-3138.729,1457.059-3134.655,1455.963Z" transform="translate(3169.4 -1455.67)" fill="#a96b00"/>
          </g>
          <path id="Path_191107" data-name="Path 191107" d="M-3145.116,1490.623c-2.321.429-18.487.1-24.225-.028a4.715,4.715,0,0,0,.409-1.736s20.352-2.416,21.726-3.853,10.625-22.741,14.7-23.837a5.022,5.022,0,0,1,2.77-.143c-.354,2.165-1.77,8.923-6.731,18.051C-3136.471,1479.078-3142.169,1490.072-3145.116,1490.623Z" transform="translate(3183.365 -1456.085)" fill="#a96b00"/>
        </g>
      </g>
      <g id="Group_129425" data-name="Group 129425" transform="translate(-3274.908 1377.308)">
        <path id="Path_191108" data-name="Path 191108" d="M-3255.137,1386.233l33.152,19.14,33.145,19.134c6.474,3.737,11.714,12.817,11.714,20.291v110.882c0,7.473-5.244,10.5-11.718,6.765l-33.145-19.134-33.148-19.147c-6.47-3.73-11.715-12.81-11.715-20.284V1393C-3266.852,1385.525-3261.607,1382.5-3255.137,1386.233Z" transform="translate(3266.852 -1384.635)" fill="#ffb30b" opacity="0.35"/>
        <path id="Path_191109" data-name="Path 191109" d="M-3244.225,1479.707v15.376l-8.727-5.037v7.454l18.814,10.856v-2.934l11.674,6.732v1.566l2.953-.266v5.909l-12.225-7.058v9.794l25.567,14.757v-9.794l-11.984-6.916V1508.5l11.367,6.562v-9.033l-11.367-6.561v-9.7l11.6-6.7c3.366,1.954,7.947,4.738,12.221,7.4l.7.435v-27.656l-9.145-5.282v-1.559l-3.509.314,3.509,4.37v-1.559l7.79,4.5v24.464c-1.388-.858-4.622-2.859-7.865-4.8-1.742-1.042-3.151-1.872-4.3-2.539l-11.01-19.066v-7.705l11.367,6.562v-9.033l-11.367-6.561v-6.929l14.342,8.283c3.073,1.771,5.561.334,5.561-3.212a12.315,12.315,0,0,0-5.561-9.639l-30.283-17.473c-3.073-1.776-5.561-.341-5.561,3.206a12.293,12.293,0,0,0,5.561,9.632l14.586,8.419v6.929l-11.615-6.7v9.033l11.612,6.7v7.425l-11.547,6.664-13.168-7.6v12.15l-8.727-5.031v7.446Zm1.358.782,8.729,5.037v-7.453l-8.729-5.044v-10.584l11.81,6.813,11.547,20.005v9.42l-11.612-6.7v9.032l11.612,6.7v5l-2.953-3.682v1.559l-11.674-6.732v-2.947l-8.729-5.044Z" transform="translate(3265.745 -1387.103)" fill="#fff" opacity="0.8"/>
      </g>
    </g>
  </g>
</svg>
