<svg xmlns="http://www.w3.org/2000/svg" width="669" height="314" viewBox="0 0 669 314">
  <g id="_2" data-name="2" transform="translate(-673.5 -1276.5)">
    <path id="Path_192348" data-name="Path 192348" d="M20,0H647a20,20,0,0,1,20,20V292a20,20,0,0,1-20,20H20A20,20,0,0,1,0,292V20A20,20,0,0,1,20,0Z" transform="translate(674.5 1277.5)" fill="none" stroke="#084a93" stroke-linecap="round" stroke-width="2" stroke-dasharray="10 10"/>
    <path id="Path_192349" data-name="Path 192349" d="M10,0H338.535a10,10,0,0,1,10,10V36.777a10,10,0,0,1-10,10H10a10,10,0,0,1-10-10V10A10,10,0,0,1,10,0Z" transform="translate(833 1409.787)" fill="#ffb30b"/>
    <path id="Path_192350" data-name="Path 192350" d="M-39.669-8.49a2.964,2.964,0,0,1,2.426-1.2,2.956,2.956,0,0,1,2.373.932A4.186,4.186,0,0,1-34.053-6V0h-2.971V-5.933a1.674,1.674,0,0,0-.308-1.112A1.322,1.322,0,0,0-38.377-7.4a1.424,1.424,0,0,0-1.292.58V0h-2.962V-13.5h2.962ZM-28.6-4.148l1.582-5.361h3.173l-3.876,11.1-.167.4A2.944,2.944,0,0,1-30.81,3.841a4.642,4.642,0,0,1-1.222-.175V1.556h.387a2.026,2.026,0,0,0,.954-.18A1.094,1.094,0,0,0-30.2.729L-29.966.1l-3.3-9.605h3.164Zm14.353-.536a5.735,5.735,0,0,1-1,3.538A3.2,3.2,0,0,1-17.943.176,2.742,2.742,0,0,1-20.1-.782V3.656h-2.962V-9.51h2.769l.088.879A2.742,2.742,0,0,1-17.96-9.686a3.224,3.224,0,0,1,2.733,1.3,5.805,5.805,0,0,1,.976,3.564Zm-2.962-.185q0-2.531-1.477-2.531a1.394,1.394,0,0,0-1.406.756V-2.9a1.439,1.439,0,0,0,1.424.791q1.415,0,1.459-2.443ZM-8.345.176a4.889,4.889,0,0,1-3.542-1.305,4.507,4.507,0,0,1-1.354-3.4v-.246A5.84,5.84,0,0,1-12.7-7.348a3.955,3.955,0,0,1,1.578-1.727,4.763,4.763,0,0,1,2.461-.611A4.117,4.117,0,0,1-5.5-8.442a4.887,4.887,0,0,1,1.16,3.467v1.151h-5.889a2.135,2.135,0,0,0,.694,1.257,2.066,2.066,0,0,0,1.389.457,2.662,2.662,0,0,0,2.2-.984l1.354,1.6A3.784,3.784,0,0,1-6.161-.277,5.3,5.3,0,0,1-8.345.176ZM-8.679-7.4q-1.3,0-1.547,1.723h2.988v-.229a1.467,1.467,0,0,0-.36-1.1A1.434,1.434,0,0,0-8.679-7.4Zm11.285.571L1.63-6.9a1.752,1.752,0,0,0-1.793.879V0H-3.125V-9.51H-.347l.1,1.222a2.294,2.294,0,0,1,2.083-1.4,2.888,2.888,0,0,1,.826.105Zm5.019,3.3,1.5-5.985h3.12L9.145,0H6.122l-3.1-9.51H6.148ZM16.255,0H13.285V-9.51h2.971ZM13.109-11.962A1.322,1.322,0,0,1,13.566-13a1.724,1.724,0,0,1,1.187-.4,1.724,1.724,0,0,1,1.187.4,1.322,1.322,0,0,1,.457,1.037,1.322,1.322,0,0,1-.457,1.037,1.724,1.724,0,0,1-1.187.4,1.724,1.724,0,0,1-1.187-.4A1.322,1.322,0,0,1,13.109-11.962Zm9.949,9.29a.684.684,0,0,0-.4-.606,6.016,6.016,0,0,0-1.5-.475A6.853,6.853,0,0,1,19.332-4.4a3.062,3.062,0,0,1-1.1-.971,2.319,2.319,0,0,1-.378-1.31,2.628,2.628,0,0,1,1.081-2.158,4.453,4.453,0,0,1,2.83-.848,4.934,4.934,0,0,1,3.023.853,2.666,2.666,0,0,1,1.143,2.241H22.961q0-1.143-1.2-1.143a1.194,1.194,0,0,0-.782.259.8.8,0,0,0-.316.646.737.737,0,0,0,.387.642,3.654,3.654,0,0,0,1.235.4,10.671,10.671,0,0,1,1.49.378A2.706,2.706,0,0,1,25.915-2.76,2.491,2.491,0,0,1,24.759-.642a5.068,5.068,0,0,1-2.993.817,5.172,5.172,0,0,1-2.18-.439,3.645,3.645,0,0,1-1.494-1.2,2.707,2.707,0,0,1-.536-1.591h2.769a1.145,1.145,0,0,0,.439.962,1.808,1.808,0,0,0,1.081.3,1.422,1.422,0,0,0,.91-.246A.787.787,0,0,0,23.058-2.672Zm3.867-2.171a5.613,5.613,0,0,1,.554-2.536A3.96,3.96,0,0,1,29.07-9.088a4.791,4.791,0,0,1,2.435-.6,4.373,4.373,0,0,1,3.366,1.323,5.076,5.076,0,0,1,1.23,3.6v.105a4.925,4.925,0,0,1-1.235,3.529A4.384,4.384,0,0,1,31.522.176a4.434,4.434,0,0,1-3.261-1.217,4.761,4.761,0,0,1-1.327-3.3Zm2.962.185A3.538,3.538,0,0,0,30.3-2.725a1.376,1.376,0,0,0,1.222.615q1.582,0,1.617-2.435v-.3Q33.139-7.4,31.5-7.4q-1.485,0-1.608,2.206ZM43.159-6.829l-.976-.07a1.752,1.752,0,0,0-1.793.879V0H37.428V-9.51h2.777l.1,1.222a2.294,2.294,0,0,1,2.083-1.4,2.888,2.888,0,0,1,.826.105Z" transform="translate(1007.268 1438.436)" fill="#12263f"/>
    <g id="Group_129168" data-name="Group 129168" transform="translate(2358.626 -2739.709)">
      <path id="Path_190185" data-name="Path 190185" d="M-1324.2,4082.6a27.229,27.229,0,0,1-27.168,27.161,27.278,27.278,0,0,1-27.153-27.2,27.1,27.1,0,0,1,27.158-27.129A27.223,27.223,0,0,1-1324.2,4082.6Zm-17.264-1.484a.979.979,0,0,0,.049-.219,31.994,31.994,0,0,0-3.512-12.162,1.092,1.092,0,0,0-.838-.414c-3.719-.028-7.438-.011-11.157-.029-.474,0-.774.095-.945.577-.913,2.569-1.937,5.1-2.735,7.707a33.8,33.8,0,0,0-.765,4.54Zm-19.778,2.964c0,.2-.009.34,0,.483a31.639,31.639,0,0,0,3.467,11.9,1.092,1.092,0,0,0,.835.415c3.719.027,7.437.009,11.156.029.477,0,.786-.1.958-.573.889-2.452,1.893-4.869,2.652-7.36a39.606,39.606,0,0,0,.866-4.893Zm34.119-2.962a23.735,23.735,0,0,0-4.4-12.473,1.277,1.277,0,0,0-.917-.328c-2.32-.027-4.64-.015-6.961-.015h-2.495a35.593,35.593,0,0,1,3.353,12.816Zm.005,2.953h-11.44a35.255,35.255,0,0,1-3.268,12.7c.122.066.17.114.218.114,3.153.006,6.307.02,9.459-.01a1.13,1.13,0,0,0,.751-.481A24.029,24.029,0,0,0-1327.123,4084.076Zm-33.682,12.823a35.561,35.561,0,0,1-3.337-12.811h-11.422a23.725,23.725,0,0,0,4.438,12.557.838.838,0,0,0,.607.244C-1367.337,4096.9-1364.155,4096.9-1360.805,4096.9Zm-.007-28.591c-3.334,0-6.516-.014-9.7.023a1.229,1.229,0,0,0-.813.517,22.561,22.561,0,0,0-3.642,8.166c-.3,1.339-.459,2.71-.69,4.116h11.513A35.139,35.139,0,0,1-1360.812,4068.308Zm13.021-9.711a1.6,1.6,0,0,0,.1.34c1.369,2.047,2.733,4.1,4.129,6.127a1,1,0,0,0,.708.367c2.763.024,5.527.014,8.291.007.068,0,.136-.076.252-.145A24.274,24.274,0,0,0-1347.791,4058.6Zm-.01,47.939c4.064-.132,12.186-4.259,13.383-6.777-2.124,0-4.244.131-6.339-.039a3.436,3.436,0,0,0-3.9,2.111A40.161,40.161,0,0,1-1347.8,4106.536Zm-7.136.067c-1.46-2.258-2.849-4.43-4.278-6.575a1.049,1.049,0,0,0-.764-.258c-2.59-.018-5.179-.012-7.769-.008-.189,0-.377.043-.7.083A24.314,24.314,0,0,0-1354.937,4106.6Zm-13.6-41.155c3.087,0,5.882.017,8.676-.026a1.308,1.308,0,0,0,.845-.577c1.124-1.643,2.2-3.319,3.3-4.976.256-.385.558-.74.995-1.315A24.691,24.691,0,0,0-1368.538,4065.448Zm17.207,40.925,4.707-6.542h-9.469Zm-.028-47.541-4.718,6.539h9.455Z" fill="#084a93"/>
      <path id="Path_190186" data-name="Path 190186" d="M-1385.639,4062.645a17.117,17.117,0,0,1-.214,2.387,4.224,4.224,0,0,1-4.588,3.255,4.3,4.3,0,0,1-3.826-4.146c-.029-1.04-.031-2.083,0-3.123a4.286,4.286,0,0,1,4.288-4.146,4.291,4.291,0,0,1,4.274,4.162c.018.535,0,1.071,0,1.607Zm-5.767-.084h0c0,.506-.03,1.014.007,1.517a1.412,1.412,0,0,0,1.387,1.363,1.383,1.383,0,0,0,1.434-1.308,25.623,25.623,0,0,0-.007-3.124,1.318,1.318,0,0,0-1.372-1.267,1.382,1.382,0,0,0-1.437,1.3C-1391.443,4061.545-1391.406,4062.054-1391.406,4062.561Z" fill="#084a93"/>
      <path id="Path_190187" data-name="Path 190187" d="M-1374.266,4045.45c0,.536.02,1.072,0,1.607a4.3,4.3,0,0,1-4.342,4.092,4.286,4.286,0,0,1-4.216-4.129c-.035-1.04-.03-2.083,0-3.123a4.283,4.283,0,0,1,4.254-4.18,4.288,4.288,0,0,1,4.307,4.127C-1374.247,4044.379-1374.265,4044.915-1374.266,4045.45Zm-2.856.051c0-.476.018-.954,0-1.429a1.428,1.428,0,0,0-1.445-1.491,1.407,1.407,0,0,0-1.4,1.443c-.033.952-.036,1.907,0,2.858a1.4,1.4,0,0,0,1.436,1.4,1.428,1.428,0,0,0,1.4-1.445C-1377.1,4046.4-1377.123,4045.948-1377.122,4045.5Z" fill="#084a93"/>
      <path id="Path_190188" data-name="Path 190188" d="M-1347.1,4119.8c0,.535.021,1.071,0,1.606a4.3,4.3,0,0,1-4.346,4.088,4.286,4.286,0,0,1-4.212-4.133c-.034-1.04-.031-2.083,0-3.123a4.284,4.284,0,0,1,4.258-4.176,4.29,4.29,0,0,1,4.3,4.131C-1347.084,4118.724-1347.1,4119.26-1347.1,4119.8Zm-2.86.035c0-.506.029-1.015-.006-1.518a1.412,1.412,0,0,0-1.45-1.391,1.389,1.389,0,0,0-1.38,1.365c-.042.981-.041,1.966,0,2.947a1.4,1.4,0,0,0,1.446,1.392,1.417,1.417,0,0,0,1.384-1.367C-1349.935,4120.786-1349.964,4120.307-1349.963,4119.831Z" fill="#084a93"/>
      <path id="Path_190189" data-name="Path 190189" d="M-1355.746,4045.446a17.782,17.782,0,0,1,.252-2.56,4.223,4.223,0,0,1,4.578-3.151,4.294,4.294,0,0,1,3.806,4.071c.04,1.069.038,2.143,0,3.212a4.282,4.282,0,0,1-4.3,4.131,4.3,4.3,0,0,1-4.259-4.179c-.016-.506,0-1.012,0-1.517Zm5.783.018h.005v-1.34a1.52,1.52,0,0,0-.007-.178,1.434,1.434,0,0,0-1.391-1.365,1.393,1.393,0,0,0-1.445,1.391c-.04.981-.04,1.966,0,2.947a1.394,1.394,0,0,0,1.38,1.366,1.417,1.417,0,0,0,1.45-1.393C-1349.935,4046.418-1349.963,4045.94-1349.963,4045.464Z" fill="#084a93"/>
      <path id="Path_190190" data-name="Path 190190" d="M-1319.943,4045.44c0,.566.028,1.132-.005,1.7a4.3,4.3,0,0,1-4.328,4.013,4.279,4.279,0,0,1-4.219-4.03c-.052-1.128-.054-2.262,0-3.39a4.275,4.275,0,0,1,4.234-4.012,4.292,4.292,0,0,1,4.313,4.028C-1319.916,4044.308-1319.943,4044.875-1319.943,4045.44Zm-5.7-.026h0c0,.506-.031,1.014.007,1.518a1.408,1.408,0,0,0,1.395,1.353,1.383,1.383,0,0,0,1.427-1.317c.051-1.009.048-2.025,0-3.035a1.383,1.383,0,0,0-1.392-1.352,1.411,1.411,0,0,0-1.437,1.4C-1325.674,4044.459-1325.648,4044.937-1325.648,4045.414Z" fill="#084a93"/>
      <path id="Path_190191" data-name="Path 190191" d="M-1374.265,4119.806c0,.5.016,1.012,0,1.517a4.293,4.293,0,0,1-4.27,4.167,4.287,4.287,0,0,1-4.292-4.143c-.033-1.04-.031-2.083,0-3.123a4.283,4.283,0,0,1,4.268-4.166,4.29,4.29,0,0,1,4.294,4.141C-1374.248,4118.734-1374.265,4119.27-1374.265,4119.806Zm-2.864-.033c0-.506.034-1.015-.008-1.517a1.4,1.4,0,0,0-1.413-1.334,1.381,1.381,0,0,0-1.409,1.333c-.047,1.01-.047,2.026,0,3.036a1.383,1.383,0,0,0,1.409,1.335,1.407,1.407,0,0,0,1.413-1.335C-1377.095,4120.789-1377.129,4120.28-1377.129,4119.773Z" fill="#084a93"/>
      <path id="Path_190192" data-name="Path 190192" d="M-1308.426,4062.578a17.9,17.9,0,0,1-.254,2.56,4.218,4.218,0,0,1-4.58,3.147,4.3,4.3,0,0,1-3.8-4.074c-.039-1.07-.037-2.143,0-3.213a4.285,4.285,0,0,1,4.307-4.126,4.29,4.29,0,0,1,4.251,4.093c.024.534,0,1.071,0,1.606Zm-2.937-.032c0-.476.029-.955-.006-1.428a1.416,1.416,0,0,0-1.46-1.382,1.393,1.393,0,0,0-1.371,1.376c-.04.981-.04,1.965,0,2.946a1.4,1.4,0,0,0,1.366,1.383,1.418,1.418,0,0,0,1.464-1.377C-1311.334,4063.56-1311.363,4063.052-1311.363,4062.546Z" fill="#084a93"/>
      <path id="Path_190193" data-name="Path 190193" d="M-1319.876,4119.83a17,17,0,0,1-.214,2.387,4.222,4.222,0,0,1-4.586,3.255,4.3,4.3,0,0,1-3.827-4.144c-.03-1.041-.032-2.083,0-3.124a4.284,4.284,0,0,1,4.287-4.146,4.29,4.29,0,0,1,4.275,4.161c.019.535,0,1.071,0,1.606Zm-5.768-.048c0,.506-.034,1.015.008,1.517a1.4,1.4,0,0,0,1.42,1.327,1.385,1.385,0,0,0,1.4-1.343c.047-1.01.048-2.026,0-3.036a1.382,1.382,0,0,0-1.417-1.325,1.4,1.4,0,0,0-1.4,1.342C-1325.677,4118.767-1325.645,4119.275-1325.644,4119.782Z" fill="#084a93"/>
      <path id="Path_190194" data-name="Path 190194" d="M-1385.7,4102.616c0,.535.019,1.072,0,1.606a4.293,4.293,0,0,1-4.323,4.112,4.284,4.284,0,0,1-4.235-4.108q-.057-1.605,0-3.213a4.283,4.283,0,0,1,4.231-4.111,4.29,4.29,0,0,1,4.327,4.108C-1385.683,4101.544-1385.7,4102.08-1385.7,4102.616Zm-2.859.02h0c0-.506.032-1.014-.007-1.517a1.406,1.406,0,0,0-1.4-1.353,1.379,1.379,0,0,0-1.425,1.315c-.051,1.01-.047,2.026,0,3.036a1.386,1.386,0,0,0,1.391,1.353,1.417,1.417,0,0,0,1.438-1.405C-1388.536,4103.591-1388.562,4103.113-1388.562,4102.636Z" fill="#084a93"/>
      <path id="Path_190195" data-name="Path 190195" d="M-1308.5,4102.651c0,.5.016,1.012,0,1.517a4.292,4.292,0,0,1-4.271,4.166,4.285,4.285,0,0,1-4.29-4.143c-.034-1.04-.032-2.083,0-3.124a4.284,4.284,0,0,1,4.268-4.165,4.29,4.29,0,0,1,4.293,4.142C-1308.485,4101.579-1308.5,4102.115-1308.5,4102.651Zm-5.7-.025c0,.506-.035,1.015.008,1.518a1.4,1.4,0,0,0,1.419,1.326,1.385,1.385,0,0,0,1.4-1.343c.047-1.01.048-2.026,0-3.035a1.382,1.382,0,0,0-1.417-1.326,1.4,1.4,0,0,0-1.4,1.342C-1314.24,4101.611-1314.207,4102.12-1314.206,4102.626Z" fill="#084a93"/>
      <path id="Path_190196" data-name="Path 190196" d="M-1391.416,4045.445c0-1.34-.007-2.68,0-4.02.008-1.057.548-1.7,1.413-1.7s1.436.633,1.44,1.679q.015,4.02,0,8.04c0,1.053-.553,1.7-1.415,1.7s-1.429-.631-1.438-1.679C-1391.425,4048.125-1391.416,4046.785-1391.416,4045.445Z" fill="#084a93"/>
      <path id="Path_190197" data-name="Path 190197" d="M-1367.112,4045.432c0-1.34-.008-2.68,0-4.02.008-1.051.559-1.69,1.425-1.691s1.424.641,1.428,1.691q.014,4.02,0,8.04c0,1.049-.564,1.692-1.427,1.692s-1.418-.642-1.426-1.692C-1367.12,4048.112-1367.112,4046.772-1367.112,4045.432Z" fill="#084a93"/>
      <path id="Path_190198" data-name="Path 190198" d="M-1311.357,4045.467c0,1.34.01,2.68,0,4.02-.011,1.033-.6,1.68-1.462,1.657a1.453,1.453,0,0,1-1.389-1.637q-.018-4.065,0-8.129c0-1.036.59-1.678,1.46-1.657a1.451,1.451,0,0,1,1.391,1.636C-1311.346,4042.727-1311.357,4044.1-1311.357,4045.467Z" fill="#084a93"/>
      <path id="Path_190199" data-name="Path 190199" d="M-1337.09,4045.433c0,1.34.008,2.68,0,4.02-.009,1.048-.565,1.692-1.428,1.691s-1.421-.643-1.425-1.693q-.013-4.02,0-8.04c0-1.051.56-1.69,1.427-1.69s1.417.641,1.426,1.692C-1337.082,4042.753-1337.09,4044.093-1337.09,4045.433Z" fill="#084a93"/>
      <path id="Path_190200" data-name="Path 190200" d="M-1377.12,4062.658c0,1.34.012,2.68,0,4.02a1.452,1.452,0,0,1-1.407,1.622,1.432,1.432,0,0,1-1.442-1.584q-.023-4.109,0-8.218a1.439,1.439,0,0,1,1.405-1.621c.869-.013,1.436.627,1.446,1.672C-1377.11,4059.918-1377.12,4061.288-1377.12,4062.658Z" fill="#084a93"/>
      <path id="Path_190201" data-name="Path 190201" d="M-1322.794,4062.678c0,1.31.009,2.621,0,3.931-.009,1.048-.565,1.692-1.428,1.691s-1.421-.643-1.425-1.693q-.014-4.02,0-8.04c0-1.051.56-1.69,1.427-1.69s1.418.641,1.426,1.692C-1322.785,4059.938-1322.794,4061.308-1322.794,4062.678Z" fill="#084a93"/>
      <path id="Path_190202" data-name="Path 190202" d="M-1377.12,4102.624c0,1.34.009,2.68,0,4.02-.009,1.046-.57,1.69-1.434,1.686s-1.415-.647-1.419-1.7q-.012-4.02,0-8.04c0-1.049.565-1.689,1.432-1.684s1.413.643,1.421,1.7C-1377.112,4099.944-1377.12,4101.284-1377.12,4102.624Z" fill="#084a93"/>
      <path id="Path_190203" data-name="Path 190203" d="M-1322.794,4102.653c0,1.34.01,2.68,0,4.02-.011,1.033-.6,1.679-1.462,1.657a1.455,1.455,0,0,1-1.39-1.638q-.016-4.065,0-8.13c0-1.035.591-1.678,1.46-1.655a1.45,1.45,0,0,1,1.391,1.636C-1322.783,4099.913-1322.794,4101.283-1322.794,4102.653Z" fill="#084a93"/>
      <path id="Path_190204" data-name="Path 190204" d="M-1388.557,4082.637c0,1.34.01,2.681,0,4.02-.011,1.034-.6,1.68-1.462,1.658a1.454,1.454,0,0,1-1.39-1.638q-.016-4.063,0-8.129c0-1.036.59-1.678,1.459-1.656.839.021,1.381.64,1.392,1.636C-1388.546,4079.9-1388.557,4081.268-1388.557,4082.637Z" fill="#084a93"/>
      <path id="Path_190205" data-name="Path 190205" d="M-1311.357,4082.663c0,1.34.011,2.68,0,4.02a1.457,1.457,0,0,1-1.4,1.632c-.865.018-1.45-.628-1.454-1.663q-.015-4.065,0-8.13a1.443,1.443,0,0,1,1.4-1.63c.869-.019,1.446.622,1.456,1.662C-1311.347,4079.923-1311.357,4081.293-1311.357,4082.663Z" fill="#084a93"/>
      <path id="Path_190206" data-name="Path 190206" d="M-1388.557,4119.805c0,1.34.01,2.68,0,4.02-.011,1.034-.594,1.681-1.459,1.66a1.452,1.452,0,0,1-1.393-1.634q-.016-4.065,0-8.129c0-1.039.587-1.68,1.456-1.66a1.45,1.45,0,0,1,1.4,1.633C-1388.546,4117.065-1388.557,4118.435-1388.557,4119.805Z" fill="#084a93"/>
      <path id="Path_190207" data-name="Path 190207" d="M-1367.112,4119.774c0-1.34-.008-2.68,0-4.02.008-1.052.558-1.691,1.425-1.692s1.424.64,1.428,1.69q.014,4.02,0,8.04c0,1.049-.563,1.693-1.427,1.693s-1.418-.641-1.426-1.691C-1367.12,4122.454-1367.112,4121.114-1367.112,4119.774Z" fill="#084a93"/>
      <path id="Path_190208" data-name="Path 190208" d="M-1339.949,4119.773c0-1.34-.008-2.68,0-4.02.008-1.051.559-1.69,1.425-1.691s1.424.641,1.428,1.691q.014,4.02,0,8.04c0,1.049-.564,1.692-1.427,1.692s-1.418-.642-1.426-1.692C-1339.957,4122.453-1339.949,4121.113-1339.949,4119.773Z" fill="#084a93"/>
      <path id="Path_190209" data-name="Path 190209" d="M-1311.357,4119.771c0,1.34.009,2.68,0,4.02-.008,1.05-.562,1.693-1.425,1.694s-1.424-.641-1.427-1.69q-.015-4.02,0-8.04c0-1.052.558-1.691,1.424-1.693s1.42.639,1.429,1.689C-1311.348,4117.091-1311.357,4118.431-1311.357,4119.771Z" fill="#084a93"/>
    </g>
    <g id="Group_129169" data-name="Group 129169" transform="translate(2358.626 -2739.709)">
      <path id="Path_190210" data-name="Path 190210" d="M-1324.2,4263.17a27.228,27.228,0,0,1-27.168,27.16,27.277,27.277,0,0,1-27.153-27.2,27.1,27.1,0,0,1,27.158-27.128A27.223,27.223,0,0,1-1324.2,4263.17Zm-17.264-1.484a.969.969,0,0,0,.049-.22,32,32,0,0,0-3.512-12.162,1.1,1.1,0,0,0-.838-.414c-3.719-.027-7.438-.01-11.157-.028-.474,0-.774.1-.945.577-.913,2.569-1.937,5.1-2.735,7.706a33.826,33.826,0,0,0-.765,4.541Zm-19.778,2.963c0,.2-.009.34,0,.483a31.632,31.632,0,0,0,3.467,11.9,1.089,1.089,0,0,0,.835.415c3.719.028,7.437.01,11.156.029.477,0,.786-.1.958-.572.889-2.453,1.893-4.869,2.652-7.361a39.542,39.542,0,0,0,.866-4.893Zm34.119-2.962a23.739,23.739,0,0,0-4.4-12.473,1.282,1.282,0,0,0-.917-.328c-2.32-.027-4.64-.014-6.961-.014h-2.495a35.593,35.593,0,0,1,3.353,12.815Zm.005,2.954h-11.44a35.251,35.251,0,0,1-3.268,12.7c.122.066.17.114.218.115,3.153.006,6.307.02,9.459-.011a1.128,1.128,0,0,0,.751-.48A24.032,24.032,0,0,0-1327.123,4264.641Zm-33.682,12.823a35.564,35.564,0,0,1-3.337-12.812h-11.422a23.731,23.731,0,0,0,4.438,12.558.834.834,0,0,0,.607.243C-1367.337,4277.469-1364.155,4277.464-1360.805,4277.464Zm-.007-28.592c-3.334,0-6.516-.013-9.7.023a1.229,1.229,0,0,0-.813.517,22.568,22.568,0,0,0-3.642,8.166c-.3,1.34-.459,2.71-.69,4.116h11.513A35.146,35.146,0,0,1-1360.812,4248.872Zm13.021-9.711a1.591,1.591,0,0,0,.1.34c1.369,2.048,2.733,4.1,4.129,6.128a.994.994,0,0,0,.708.367c2.763.024,5.527.014,8.291.006.068,0,.136-.075.252-.145A24.281,24.281,0,0,0-1347.791,4239.161Zm-.01,47.939c4.064-.132,12.186-4.259,13.383-6.776-2.124,0-4.244.131-6.339-.039a3.436,3.436,0,0,0-3.9,2.11A40.08,40.08,0,0,1-1347.8,4287.1Zm-7.136.068c-1.46-2.259-2.849-4.43-4.278-6.576a1.053,1.053,0,0,0-.764-.257c-2.59-.019-5.179-.013-7.769-.008-.189,0-.377.043-.7.082A24.316,24.316,0,0,0-1354.937,4287.168Zm-13.6-41.156c3.087,0,5.882.018,8.676-.026a1.3,1.3,0,0,0,.845-.576c1.124-1.643,2.2-3.319,3.3-4.977.256-.385.558-.74.995-1.314A24.694,24.694,0,0,0-1368.538,4246.012Zm17.207,40.926,4.707-6.542h-9.469Zm-.028-47.542-4.718,6.54h9.455Z" fill="#084a93"/>
      <path id="Path_190211" data-name="Path 190211" d="M-1385.639,4243.21a17.134,17.134,0,0,1-.214,2.387,4.223,4.223,0,0,1-4.588,3.254,4.3,4.3,0,0,1-3.826-4.145c-.029-1.041-.031-2.083,0-3.124a4.284,4.284,0,0,1,4.288-4.145,4.29,4.29,0,0,1,4.274,4.162c.018.535,0,1.071,0,1.606Zm-5.767-.085h0c0,.506-.03,1.014.007,1.518a1.412,1.412,0,0,0,1.387,1.362,1.382,1.382,0,0,0,1.434-1.308,25.6,25.6,0,0,0-.007-3.123,1.318,1.318,0,0,0-1.372-1.268,1.382,1.382,0,0,0-1.437,1.3C-1391.443,4242.11-1391.406,4242.619-1391.406,4243.125Z" fill="#084a93"/>
      <path id="Path_190212" data-name="Path 190212" d="M-1374.266,4226.015c0,.535.02,1.072,0,1.606a4.294,4.294,0,0,1-4.342,4.092,4.285,4.285,0,0,1-4.216-4.128c-.035-1.04-.03-2.083,0-3.123a4.284,4.284,0,0,1,4.254-4.181,4.289,4.289,0,0,1,4.307,4.128C-1374.247,4224.943-1374.265,4225.48-1374.266,4226.015Zm-2.856.05c0-.476.018-.953,0-1.428a1.428,1.428,0,0,0-1.445-1.492,1.408,1.408,0,0,0-1.4,1.444c-.033.951-.036,1.906,0,2.857a1.4,1.4,0,0,0,1.436,1.4,1.429,1.429,0,0,0,1.4-1.445C-1377.1,4226.96-1377.123,4226.512-1377.122,4226.065Z" fill="#084a93"/>
      <path id="Path_190213" data-name="Path 190213" d="M-1347.1,4300.36c0,.536.021,1.072,0,1.606a4.3,4.3,0,0,1-4.346,4.088,4.285,4.285,0,0,1-4.212-4.132c-.034-1.04-.031-2.083,0-3.124a4.284,4.284,0,0,1,4.258-4.176,4.29,4.29,0,0,1,4.3,4.132C-1347.084,4299.288-1347.1,4299.825-1347.1,4300.36Zm-2.86.035c0-.506.029-1.014-.006-1.518a1.413,1.413,0,0,0-1.45-1.391,1.391,1.391,0,0,0-1.38,1.366c-.042.98-.041,1.965,0,2.946a1.4,1.4,0,0,0,1.446,1.393,1.417,1.417,0,0,0,1.384-1.367C-1349.935,4301.35-1349.964,4300.871-1349.963,4300.4Z" fill="#084a93"/>
      <path id="Path_190214" data-name="Path 190214" d="M-1355.746,4226.011a17.785,17.785,0,0,1,.252-2.561,4.224,4.224,0,0,1,4.578-3.15,4.294,4.294,0,0,1,3.806,4.07c.04,1.07.038,2.143,0,3.213a4.28,4.28,0,0,1-4.3,4.13,4.3,4.3,0,0,1-4.259-4.179c-.016-.505,0-1.011,0-1.517Zm5.783.017h.005v-1.339a1.535,1.535,0,0,0-.007-.179,1.435,1.435,0,0,0-1.391-1.365,1.4,1.4,0,0,0-1.445,1.392c-.04.98-.04,1.966,0,2.946a1.4,1.4,0,0,0,1.38,1.367,1.418,1.418,0,0,0,1.45-1.393C-1349.935,4226.983-1349.963,4226.5-1349.963,4226.028Z" fill="#084a93"/>
      <path id="Path_190215" data-name="Path 190215" d="M-1319.943,4226c0,.565.028,1.132-.005,1.7a4.3,4.3,0,0,1-4.328,4.013,4.278,4.278,0,0,1-4.219-4.029c-.052-1.128-.054-2.263,0-3.39a4.277,4.277,0,0,1,4.234-4.013,4.292,4.292,0,0,1,4.313,4.029C-1319.916,4224.873-1319.943,4225.44-1319.943,4226Zm-5.7-.027h0c0,.506-.031,1.015.007,1.518a1.409,1.409,0,0,0,1.395,1.354,1.385,1.385,0,0,0,1.427-1.317c.051-1.01.048-2.025,0-3.035a1.384,1.384,0,0,0-1.392-1.353,1.411,1.411,0,0,0-1.437,1.4C-1325.674,4225.024-1325.648,4225.5-1325.648,4225.978Z" fill="#084a93"/>
      <path id="Path_190216" data-name="Path 190216" d="M-1374.265,4300.37c0,.506.016,1.012,0,1.517a4.292,4.292,0,0,1-4.27,4.167,4.285,4.285,0,0,1-4.292-4.142c-.033-1.041-.031-2.083,0-3.124a4.285,4.285,0,0,1,4.268-4.166,4.291,4.291,0,0,1,4.294,4.142C-1374.248,4299.3-1374.265,4299.835-1374.265,4300.37Zm-2.864-.032c0-.506.034-1.015-.008-1.518a1.4,1.4,0,0,0-1.413-1.334,1.381,1.381,0,0,0-1.409,1.334c-.047,1.01-.047,2.025,0,3.035a1.384,1.384,0,0,0,1.409,1.336,1.407,1.407,0,0,0,1.413-1.335C-1377.095,4301.353-1377.129,4300.844-1377.129,4300.338Z" fill="#084a93"/>
      <path id="Path_190217" data-name="Path 190217" d="M-1308.426,4243.142a17.908,17.908,0,0,1-.254,2.56,4.216,4.216,0,0,1-4.58,3.147,4.3,4.3,0,0,1-3.8-4.074c-.039-1.069-.037-2.143,0-3.212a4.284,4.284,0,0,1,4.307-4.126,4.29,4.29,0,0,1,4.251,4.093c.024.534,0,1.07,0,1.606Zm-2.937-.031c0-.477.029-.955-.006-1.429a1.416,1.416,0,0,0-1.46-1.381,1.393,1.393,0,0,0-1.371,1.375c-.04.981-.04,1.966,0,2.947a1.4,1.4,0,0,0,1.366,1.382,1.417,1.417,0,0,0,1.464-1.377C-1311.334,4244.125-1311.363,4243.617-1311.363,4243.111Z" fill="#084a93"/>
      <path id="Path_190218" data-name="Path 190218" d="M-1319.876,4300.394a17,17,0,0,1-.214,2.387,4.222,4.222,0,0,1-4.586,3.256,4.3,4.3,0,0,1-3.827-4.145c-.03-1.04-.032-2.083,0-3.123a4.285,4.285,0,0,1,4.287-4.147,4.29,4.29,0,0,1,4.275,4.161c.019.535,0,1.071,0,1.607Zm-5.768-.048c0,.506-.034,1.015.008,1.518a1.406,1.406,0,0,0,1.42,1.327,1.386,1.386,0,0,0,1.4-1.344c.047-1.01.048-2.025,0-3.035a1.383,1.383,0,0,0-1.417-1.326,1.4,1.4,0,0,0-1.4,1.342C-1325.677,4299.331-1325.645,4299.84-1325.644,4300.346Z" fill="#084a93"/>
      <path id="Path_190219" data-name="Path 190219" d="M-1385.7,4283.18c0,.536.019,1.072,0,1.607a4.293,4.293,0,0,1-4.323,4.112,4.284,4.284,0,0,1-4.235-4.109c-.038-1.07-.037-2.143,0-3.212a4.282,4.282,0,0,1,4.231-4.111,4.29,4.29,0,0,1,4.327,4.107C-1385.683,4282.109-1385.7,4282.645-1385.7,4283.18Zm-2.859.021h0c0-.506.032-1.015-.007-1.518a1.406,1.406,0,0,0-1.4-1.352,1.377,1.377,0,0,0-1.425,1.315c-.051,1.01-.047,2.025,0,3.035a1.388,1.388,0,0,0,1.391,1.354,1.417,1.417,0,0,0,1.438-1.406C-1388.536,4284.155-1388.562,4283.677-1388.562,4283.2Z" fill="#084a93"/>
      <path id="Path_190220" data-name="Path 190220" d="M-1308.5,4283.215c0,.506.016,1.012,0,1.517a4.293,4.293,0,0,1-4.271,4.167,4.285,4.285,0,0,1-4.29-4.144c-.034-1.04-.032-2.083,0-3.123a4.284,4.284,0,0,1,4.268-4.165,4.289,4.289,0,0,1,4.293,4.142C-1308.485,4282.144-1308.5,4282.68-1308.5,4283.215Zm-5.7-.025c0,.507-.035,1.016.008,1.518a1.4,1.4,0,0,0,1.419,1.327,1.386,1.386,0,0,0,1.4-1.343c.047-1.01.048-2.026,0-3.036a1.381,1.381,0,0,0-1.417-1.325,1.4,1.4,0,0,0-1.4,1.342C-1314.24,4282.176-1314.207,4282.684-1314.206,4283.19Z" fill="#084a93"/>
      <path id="Path_190221" data-name="Path 190221" d="M-1391.416,4226.009c0-1.34-.007-2.68,0-4.02.008-1.056.548-1.695,1.413-1.7s1.436.633,1.44,1.678q.015,4.02,0,8.04c0,1.054-.553,1.7-1.415,1.705s-1.429-.631-1.438-1.68C-1391.425,4228.689-1391.416,4227.349-1391.416,4226.009Z" fill="#084a93"/>
      <path id="Path_190222" data-name="Path 190222" d="M-1367.112,4226c0-1.34-.008-2.68,0-4.02.008-1.052.559-1.691,1.425-1.691s1.424.64,1.428,1.69q.014,4.022,0,8.041c0,1.048-.564,1.692-1.427,1.692s-1.418-.642-1.426-1.692C-1367.12,4228.677-1367.112,4227.337-1367.112,4226Z" fill="#084a93"/>
      <path id="Path_190223" data-name="Path 190223" d="M-1311.357,4226.031c0,1.34.01,2.68,0,4.02-.011,1.034-.6,1.68-1.462,1.658a1.454,1.454,0,0,1-1.389-1.638q-.018-4.063,0-8.129c0-1.036.59-1.678,1.46-1.656a1.45,1.45,0,0,1,1.391,1.636C-1311.346,4223.292-1311.357,4224.661-1311.357,4226.031Z" fill="#084a93"/>
      <path id="Path_190224" data-name="Path 190224" d="M-1337.09,4226c0,1.34.008,2.68,0,4.02-.009,1.048-.565,1.692-1.428,1.691s-1.421-.643-1.425-1.693q-.013-4.02,0-8.04c0-1.051.56-1.691,1.427-1.69s1.417.641,1.426,1.692C-1337.082,4223.318-1337.09,4224.658-1337.09,4226Z" fill="#084a93"/>
      <path id="Path_190225" data-name="Path 190225" d="M-1377.12,4243.222c0,1.34.012,2.681,0,4.02a1.451,1.451,0,0,1-1.407,1.622,1.431,1.431,0,0,1-1.442-1.583q-.023-4.11,0-8.219a1.438,1.438,0,0,1,1.405-1.62c.869-.013,1.436.626,1.446,1.671C-1377.11,4240.483-1377.12,4241.853-1377.12,4243.222Z" fill="#084a93"/>
      <path id="Path_190226" data-name="Path 190226" d="M-1322.794,4243.242c0,1.311.009,2.621,0,3.931-.009,1.048-.565,1.692-1.428,1.691s-1.421-.642-1.425-1.692q-.014-4.02,0-8.041c0-1.051.56-1.69,1.427-1.689s1.418.64,1.426,1.691C-1322.785,4240.5-1322.794,4241.873-1322.794,4243.242Z" fill="#084a93"/>
      <path id="Path_190227" data-name="Path 190227" d="M-1377.12,4283.189c0,1.34.009,2.68,0,4.02-.009,1.046-.57,1.69-1.434,1.685s-1.415-.646-1.419-1.7q-.012-4.02,0-8.04c0-1.049.565-1.688,1.432-1.684s1.413.644,1.421,1.7C-1377.112,4280.509-1377.12,4281.849-1377.12,4283.189Z" fill="#084a93"/>
      <path id="Path_190228" data-name="Path 190228" d="M-1322.794,4283.217c0,1.34.01,2.68,0,4.02-.011,1.033-.6,1.68-1.462,1.657a1.454,1.454,0,0,1-1.39-1.638q-.016-4.065,0-8.129c0-1.036.591-1.678,1.46-1.656a1.451,1.451,0,0,1,1.391,1.637C-1322.783,4280.478-1322.794,4281.847-1322.794,4283.217Z" fill="#084a93"/>
      <path id="Path_190229" data-name="Path 190229" d="M-1388.557,4263.2c0,1.34.01,2.68,0,4.02-.011,1.033-.6,1.68-1.462,1.657a1.453,1.453,0,0,1-1.39-1.637q-.016-4.065,0-8.13c0-1.035.59-1.678,1.459-1.656a1.452,1.452,0,0,1,1.392,1.637C-1388.546,4260.462-1388.557,4261.832-1388.557,4263.2Z" fill="#084a93"/>
      <path id="Path_190230" data-name="Path 190230" d="M-1311.357,4263.228c0,1.34.011,2.68,0,4.02a1.456,1.456,0,0,1-1.4,1.631c-.865.019-1.45-.628-1.454-1.663q-.015-4.065,0-8.129a1.443,1.443,0,0,1,1.4-1.631c.869-.018,1.446.623,1.456,1.662C-1311.347,4260.488-1311.357,4261.858-1311.357,4263.228Z" fill="#084a93"/>
      <path id="Path_190231" data-name="Path 190231" d="M-1388.557,4300.369c0,1.34.01,2.68,0,4.02-.011,1.034-.594,1.681-1.459,1.661a1.454,1.454,0,0,1-1.393-1.635q-.016-4.063,0-8.129c0-1.038.587-1.679,1.456-1.659a1.45,1.45,0,0,1,1.4,1.633C-1388.546,4297.63-1388.557,4299-1388.557,4300.369Z" fill="#084a93"/>
      <path id="Path_190232" data-name="Path 190232" d="M-1367.112,4300.339c0-1.34-.008-2.68,0-4.02.008-1.052.558-1.691,1.425-1.692s1.424.64,1.428,1.69q.014,4.02,0,8.04c0,1.049-.563,1.692-1.427,1.693s-1.418-.642-1.426-1.691C-1367.12,4303.019-1367.112,4301.679-1367.112,4300.339Z" fill="#084a93"/>
      <path id="Path_190233" data-name="Path 190233" d="M-1339.949,4300.338c0-1.34-.008-2.68,0-4.02.008-1.052.559-1.691,1.425-1.691s1.424.64,1.428,1.69q.014,4.02,0,8.041c0,1.048-.564,1.692-1.427,1.692s-1.418-.642-1.426-1.692C-1339.957,4303.018-1339.949,4301.678-1339.949,4300.338Z" fill="#084a93"/>
      <path id="Path_190234" data-name="Path 190234" d="M-1311.357,4300.336c0,1.34.009,2.68,0,4.02-.008,1.049-.562,1.693-1.425,1.694s-1.424-.641-1.427-1.69q-.015-4.02,0-8.04c0-1.053.558-1.692,1.424-1.693s1.42.639,1.429,1.689C-1311.348,4297.656-1311.357,4299-1311.357,4300.336Z" fill="#084a93"/>
    </g>
    <g id="Group_129170" data-name="Group 129170" transform="translate(2358.626 -2739.709)">
      <path id="Path_190235" data-name="Path 190235" d="M-1437.485,4263.17a27.229,27.229,0,0,1-27.168,27.16,27.277,27.277,0,0,1-27.153-27.2,27.1,27.1,0,0,1,27.158-27.128A27.223,27.223,0,0,1-1437.485,4263.17Zm-17.265-1.484a.969.969,0,0,0,.049-.22,32.012,32.012,0,0,0-3.511-12.162,1.1,1.1,0,0,0-.839-.414c-3.718-.027-7.437-.01-11.156-.028-.475,0-.775.1-.946.577-.912,2.569-1.937,5.1-2.735,7.706a33.806,33.806,0,0,0-.764,4.541Zm-19.777,2.963c0,.2-.009.34,0,.483a31.6,31.6,0,0,0,3.467,11.9,1.089,1.089,0,0,0,.834.415c3.719.028,7.438.01,11.157.029.476,0,.786-.1.957-.572.889-2.453,1.894-4.869,2.652-7.361a39.36,39.36,0,0,0,.866-4.893Zm34.118-2.962a23.723,23.723,0,0,0-4.4-12.473,1.279,1.279,0,0,0-.917-.328c-2.32-.027-4.64-.014-6.96-.014h-2.5a35.593,35.593,0,0,1,3.353,12.815Zm.005,2.954h-11.439a35.252,35.252,0,0,1-3.269,12.7c.122.066.171.114.219.115,3.153.006,6.306.02,9.459-.011a1.131,1.131,0,0,0,.751-.48A24.031,24.031,0,0,0-1440.4,4264.641Zm-33.682,12.823a35.584,35.584,0,0,1-3.337-12.812h-11.421a23.738,23.738,0,0,0,4.437,12.558.836.836,0,0,0,.608.243C-1480.617,4277.469-1477.435,4277.464-1474.086,4277.464Zm-.006-28.592c-3.334,0-6.516-.013-9.7.023a1.231,1.231,0,0,0-.814.517,22.583,22.583,0,0,0-3.641,8.166c-.3,1.34-.46,2.71-.691,4.116h11.514A35.146,35.146,0,0,1-1474.092,4248.872Zm13.02-9.711a1.668,1.668,0,0,0,.1.34c1.37,2.048,2.734,4.1,4.129,6.128a1,1,0,0,0,.708.367c2.764.024,5.528.014,8.292.006.067,0,.135-.075.251-.145A24.274,24.274,0,0,0-1461.072,4239.161Zm-.009,47.939c4.063-.132,12.185-4.259,13.383-6.776-2.125,0-4.244.131-6.339-.039a3.436,3.436,0,0,0-3.9,2.11A40.325,40.325,0,0,1-1461.081,4287.1Zm-7.136.068c-1.461-2.259-2.85-4.43-4.278-6.576a1.055,1.055,0,0,0-.765-.257c-2.589-.019-5.179-.013-7.769-.008-.188,0-.376.043-.7.082A24.322,24.322,0,0,0-1468.217,4287.168Zm-13.6-41.156c3.086,0,5.881.018,8.676-.026a1.3,1.3,0,0,0,.845-.576c1.123-1.643,2.2-3.319,3.3-4.977.257-.385.558-.74.995-1.314A24.688,24.688,0,0,0-1481.818,4246.012Zm17.207,40.926c1.632-2.27,3.128-4.349,4.706-6.542h-9.469Zm-.029-47.542-4.718,6.54h9.455Z" fill="#084a93"/>
      <path id="Path_190236" data-name="Path 190236" d="M-1498.92,4243.21a16.987,16.987,0,0,1-.214,2.387,4.221,4.221,0,0,1-4.587,3.254,4.3,4.3,0,0,1-3.826-4.145c-.03-1.041-.032-2.083,0-3.124a4.283,4.283,0,0,1,4.287-4.145,4.289,4.289,0,0,1,4.274,4.162c.019.535,0,1.071,0,1.606Zm-5.766-.085h0c0,.506-.03,1.014.007,1.518A1.411,1.411,0,0,0-1503.3,4246a1.383,1.383,0,0,0,1.434-1.308,25.8,25.8,0,0,0-.007-3.123,1.318,1.318,0,0,0-1.373-1.268,1.382,1.382,0,0,0-1.437,1.3C-1504.723,4242.11-1504.686,4242.619-1504.686,4243.125Z" fill="#084a93"/>
      <path id="Path_190237" data-name="Path 190237" d="M-1487.546,4226.015c0,.535.02,1.072-.005,1.606a4.294,4.294,0,0,1-4.342,4.092,4.285,4.285,0,0,1-4.215-4.128c-.035-1.04-.031-2.083,0-3.123a4.286,4.286,0,0,1,4.255-4.181,4.29,4.29,0,0,1,4.307,4.128C-1487.528,4224.943-1487.546,4225.48-1487.546,4226.015Zm-2.857.05c0-.476.019-.953,0-1.428a1.428,1.428,0,0,0-1.444-1.492,1.408,1.408,0,0,0-1.4,1.444c-.032.951-.035,1.906,0,2.857a1.4,1.4,0,0,0,1.436,1.4,1.43,1.43,0,0,0,1.4-1.445C-1490.382,4226.96-1490.4,4226.512-1490.4,4226.065Z" fill="#084a93"/>
      <path id="Path_190238" data-name="Path 190238" d="M-1460.383,4300.36c0,.536.02,1.072,0,1.606a4.3,4.3,0,0,1-4.346,4.088,4.286,4.286,0,0,1-4.212-4.132c-.034-1.04-.03-2.083,0-3.124a4.285,4.285,0,0,1,4.259-4.176,4.289,4.289,0,0,1,4.3,4.132C-1460.365,4299.288-1460.383,4299.825-1460.383,4300.36Zm-2.86.035c0-.506.028-1.014-.006-1.518a1.414,1.414,0,0,0-1.45-1.391,1.39,1.39,0,0,0-1.38,1.366c-.043.98-.042,1.965,0,2.946a1.4,1.4,0,0,0,1.445,1.393,1.417,1.417,0,0,0,1.385-1.367C-1463.215,4301.35-1463.245,4300.871-1463.243,4300.4Z" fill="#084a93"/>
      <path id="Path_190239" data-name="Path 190239" d="M-1469.027,4226.011a18.067,18.067,0,0,1,.252-2.561,4.224,4.224,0,0,1,4.578-3.15,4.293,4.293,0,0,1,3.806,4.07c.041,1.07.038,2.143,0,3.213a4.281,4.281,0,0,1-4.3,4.13,4.294,4.294,0,0,1-4.259-4.179c-.016-.505,0-1.011,0-1.517Zm5.784.017h0c0-.446,0-.893,0-1.339a1.784,1.784,0,0,0-.006-.179,1.436,1.436,0,0,0-1.391-1.365,1.394,1.394,0,0,0-1.445,1.392c-.04.98-.041,1.966,0,2.946a1.394,1.394,0,0,0,1.38,1.367,1.419,1.419,0,0,0,1.45-1.393C-1463.216,4226.983-1463.243,4226.5-1463.243,4226.028Z" fill="#084a93"/>
      <path id="Path_190240" data-name="Path 190240" d="M-1433.224,4226c0,.565.028,1.132-.005,1.7a4.294,4.294,0,0,1-4.328,4.013,4.279,4.279,0,0,1-4.219-4.029c-.051-1.128-.053-2.263,0-3.39a4.277,4.277,0,0,1,4.235-4.013,4.291,4.291,0,0,1,4.312,4.029C-1433.2,4224.873-1433.223,4225.44-1433.224,4226Zm-5.7-.027h0c0,.506-.031,1.015.008,1.518a1.408,1.408,0,0,0,1.4,1.354,1.385,1.385,0,0,0,1.426-1.317c.052-1.01.049-2.025,0-3.035a1.386,1.386,0,0,0-1.393-1.353,1.412,1.412,0,0,0-1.437,1.4C-1438.954,4225.024-1438.929,4225.5-1438.929,4225.978Z" fill="#084a93"/>
      <path id="Path_190241" data-name="Path 190241" d="M-1487.545,4300.37c0,.506.015,1.012,0,1.517a4.292,4.292,0,0,1-4.27,4.167,4.285,4.285,0,0,1-4.291-4.142c-.033-1.041-.031-2.083,0-3.124a4.285,4.285,0,0,1,4.268-4.166,4.289,4.289,0,0,1,4.293,4.142C-1487.528,4299.3-1487.546,4299.835-1487.545,4300.37Zm-2.864-.032c0-.506.034-1.015-.008-1.518a1.4,1.4,0,0,0-1.413-1.334,1.38,1.38,0,0,0-1.409,1.334c-.048,1.01-.047,2.025,0,3.035a1.384,1.384,0,0,0,1.408,1.336,1.408,1.408,0,0,0,1.414-1.335C-1490.375,4301.353-1490.41,4300.844-1490.409,4300.338Z" fill="#084a93"/>
      <path id="Path_190242" data-name="Path 190242" d="M-1421.706,4243.142a17.909,17.909,0,0,1-.255,2.56,4.216,4.216,0,0,1-4.58,3.147,4.3,4.3,0,0,1-3.8-4.074c-.039-1.069-.036-2.143,0-3.212a4.283,4.283,0,0,1,4.306-4.126,4.291,4.291,0,0,1,4.252,4.093c.024.534,0,1.07,0,1.606Zm-2.938-.031c0-.477.029-.955-.006-1.429a1.414,1.414,0,0,0-1.459-1.381,1.392,1.392,0,0,0-1.371,1.375c-.041.981-.04,1.966,0,2.947a1.4,1.4,0,0,0,1.366,1.382,1.416,1.416,0,0,0,1.464-1.377C-1424.614,4244.125-1424.644,4243.617-1424.644,4243.111Z" fill="#084a93"/>
      <path id="Path_190243" data-name="Path 190243" d="M-1433.156,4300.394a17.146,17.146,0,0,1-.215,2.387,4.221,4.221,0,0,1-4.586,3.256,4.3,4.3,0,0,1-3.827-4.145c-.03-1.04-.032-2.083,0-3.123a4.284,4.284,0,0,1,4.286-4.147,4.29,4.29,0,0,1,4.275,4.161c.019.535,0,1.071,0,1.607Zm-5.768-.048c0,.506-.035,1.015.008,1.518a1.405,1.405,0,0,0,1.42,1.327,1.387,1.387,0,0,0,1.4-1.344c.046-1.01.048-2.025,0-3.035a1.382,1.382,0,0,0-1.417-1.326,1.4,1.4,0,0,0-1.405,1.342C-1438.958,4299.331-1438.925,4299.84-1438.924,4300.346Z" fill="#084a93"/>
      <path id="Path_190244" data-name="Path 190244" d="M-1498.983,4283.18c0,.536.019,1.072,0,1.607a4.293,4.293,0,0,1-4.323,4.112,4.283,4.283,0,0,1-4.234-4.109c-.038-1.07-.038-2.143,0-3.212a4.283,4.283,0,0,1,4.232-4.111,4.289,4.289,0,0,1,4.326,4.107C-1498.964,4282.109-1498.983,4282.645-1498.983,4283.18Zm-2.859.021h0c0-.506.032-1.015-.008-1.518a1.405,1.405,0,0,0-1.4-1.352,1.378,1.378,0,0,0-1.426,1.315c-.05,1.01-.047,2.025,0,3.035a1.388,1.388,0,0,0,1.392,1.354,1.419,1.419,0,0,0,1.438-1.406C-1501.816,4284.155-1501.842,4283.677-1501.842,4283.2Z" fill="#084a93"/>
      <path id="Path_190245" data-name="Path 190245" d="M-1421.782,4283.215c0,.506.015,1.012,0,1.517a4.293,4.293,0,0,1-4.271,4.167,4.286,4.286,0,0,1-4.291-4.144c-.033-1.04-.031-2.083,0-3.123a4.285,4.285,0,0,1,4.269-4.165,4.29,4.29,0,0,1,4.293,4.142C-1421.765,4282.144-1421.782,4282.68-1421.782,4283.215Zm-5.705-.025c0,.507-.034,1.016.008,1.518a1.4,1.4,0,0,0,1.42,1.327,1.387,1.387,0,0,0,1.4-1.343c.046-1.01.048-2.026,0-3.036a1.38,1.38,0,0,0-1.417-1.325,1.4,1.4,0,0,0-1.4,1.342C-1427.521,4282.176-1427.488,4282.684-1427.487,4283.19Z" fill="#084a93"/>
      <path id="Path_190246" data-name="Path 190246" d="M-1504.7,4226.009c0-1.34-.008-2.68,0-4.02.008-1.056.549-1.695,1.414-1.7s1.435.633,1.439,1.678q.015,4.02,0,8.04c0,1.054-.553,1.7-1.415,1.705s-1.429-.631-1.438-1.68C-1504.7,4228.689-1504.7,4227.349-1504.7,4226.009Z" fill="#084a93"/>
      <path id="Path_190247" data-name="Path 190247" d="M-1480.392,4226c0-1.34-.009-2.68,0-4.02.009-1.052.559-1.691,1.426-1.691s1.423.64,1.427,1.69q.014,4.022,0,8.041c0,1.048-.564,1.692-1.427,1.692s-1.417-.642-1.426-1.692C-1480.4,4228.677-1480.392,4227.337-1480.392,4226Z" fill="#084a93"/>
      <path id="Path_190248" data-name="Path 190248" d="M-1424.637,4226.031c0,1.34.01,2.68,0,4.02-.01,1.034-.595,1.68-1.461,1.658a1.454,1.454,0,0,1-1.39-1.638q-.017-4.063,0-8.129c0-1.036.59-1.678,1.459-1.656a1.451,1.451,0,0,1,1.392,1.636C-1424.626,4223.292-1424.637,4224.661-1424.637,4226.031Z" fill="#084a93"/>
      <path id="Path_190249" data-name="Path 190249" d="M-1450.371,4226c0,1.34.009,2.68,0,4.02-.009,1.048-.565,1.692-1.428,1.691s-1.421-.643-1.424-1.693q-.014-4.02,0-8.04c0-1.051.559-1.691,1.426-1.69s1.418.641,1.427,1.692C-1450.362,4223.318-1450.371,4224.658-1450.371,4226Z" fill="#084a93"/>
      <path id="Path_190250" data-name="Path 190250" d="M-1490.4,4243.222c0,1.34.012,2.681,0,4.02a1.45,1.45,0,0,1-1.406,1.622,1.432,1.432,0,0,1-1.443-1.583q-.021-4.11,0-8.219a1.438,1.438,0,0,1,1.405-1.62c.869-.013,1.437.626,1.446,1.671C-1490.391,4240.483-1490.4,4241.853-1490.4,4243.222Z" fill="#084a93"/>
      <path id="Path_190251" data-name="Path 190251" d="M-1436.074,4243.242c0,1.311.008,2.621,0,3.931-.009,1.048-.565,1.692-1.428,1.691s-1.422-.642-1.425-1.692q-.013-4.02,0-8.041c0-1.051.56-1.69,1.426-1.689s1.418.64,1.427,1.691C-1436.066,4240.5-1436.074,4241.873-1436.074,4243.242Z" fill="#084a93"/>
      <path id="Path_190252" data-name="Path 190252" d="M-1490.4,4283.189c0,1.34.008,2.68,0,4.02-.01,1.046-.57,1.69-1.434,1.685s-1.416-.646-1.419-1.7q-.014-4.02,0-8.04c0-1.049.564-1.688,1.432-1.684s1.412.644,1.421,1.7C-1490.392,4280.509-1490.4,4281.849-1490.4,4283.189Z" fill="#084a93"/>
      <path id="Path_190253" data-name="Path 190253" d="M-1436.075,4283.217c0,1.34.011,2.68,0,4.02-.01,1.033-.6,1.68-1.462,1.657a1.454,1.454,0,0,1-1.389-1.638q-.016-4.065,0-8.129c0-1.036.59-1.678,1.46-1.656a1.452,1.452,0,0,1,1.391,1.637C-1436.064,4280.478-1436.075,4281.847-1436.075,4283.217Z" fill="#084a93"/>
      <path id="Path_190254" data-name="Path 190254" d="M-1501.838,4263.2c0,1.34.011,2.68,0,4.02-.011,1.033-.6,1.68-1.461,1.657a1.453,1.453,0,0,1-1.39-1.637q-.016-4.065,0-8.13c.005-1.035.591-1.678,1.46-1.656a1.452,1.452,0,0,1,1.392,1.637C-1501.827,4260.462-1501.838,4261.832-1501.838,4263.2Z" fill="#084a93"/>
      <path id="Path_190255" data-name="Path 190255" d="M-1424.637,4263.228c0,1.34.011,2.68,0,4.02a1.456,1.456,0,0,1-1.4,1.631c-.865.019-1.449-.628-1.453-1.663q-.017-4.065,0-8.129a1.444,1.444,0,0,1,1.395-1.631c.87-.018,1.446.623,1.456,1.662C-1424.627,4260.488-1424.637,4261.858-1424.637,4263.228Z" fill="#084a93"/>
      <path id="Path_190256" data-name="Path 190256" d="M-1501.838,4300.369c0,1.34.011,2.68,0,4.02-.01,1.034-.593,1.681-1.458,1.661a1.453,1.453,0,0,1-1.393-1.635q-.018-4.063,0-8.129c0-1.038.587-1.679,1.457-1.659a1.45,1.45,0,0,1,1.4,1.633C-1501.827,4297.63-1501.838,4299-1501.838,4300.369Z" fill="#084a93"/>
      <path id="Path_190257" data-name="Path 190257" d="M-1480.392,4300.339c0-1.34-.009-2.68,0-4.02.009-1.052.559-1.691,1.425-1.692s1.424.64,1.428,1.69q.015,4.02,0,8.04c0,1.049-.563,1.692-1.426,1.693s-1.418-.642-1.427-1.691C-1480.4,4303.019-1480.392,4301.679-1480.392,4300.339Z" fill="#084a93"/>
      <path id="Path_190258" data-name="Path 190258" d="M-1453.229,4300.338c0-1.34-.009-2.68,0-4.02.009-1.052.559-1.691,1.426-1.691s1.423.64,1.427,1.69q.015,4.02,0,8.041c0,1.048-.564,1.692-1.427,1.692s-1.417-.642-1.426-1.692C-1453.238,4303.018-1453.229,4301.678-1453.229,4300.338Z" fill="#084a93"/>
      <path id="Path_190259" data-name="Path 190259" d="M-1424.637,4300.336c0,1.34.008,2.68,0,4.02-.009,1.049-.563,1.693-1.426,1.694s-1.423-.641-1.427-1.69q-.013-4.02,0-8.04c0-1.053.557-1.692,1.424-1.693s1.42.639,1.429,1.689C-1424.629,4297.656-1424.637,4299-1424.637,4300.336Z" fill="#084a93"/>
    </g>
    <g id="Group_129171" data-name="Group 129171" transform="translate(2358.626 -2739.709)">
      <path id="Path_190260" data-name="Path 190260" d="M-1212.317,4263.17a27.227,27.227,0,0,1-27.167,27.16,27.277,27.277,0,0,1-27.153-27.2,27.1,27.1,0,0,1,27.158-27.128A27.222,27.222,0,0,1-1212.317,4263.17Zm-17.264-1.484a.971.971,0,0,0,.049-.22,32.016,32.016,0,0,0-3.511-12.162,1.1,1.1,0,0,0-.839-.414c-3.718-.027-7.437-.01-11.156-.028-.475,0-.775.1-.946.577-.912,2.569-1.937,5.1-2.735,7.706a33.826,33.826,0,0,0-.764,4.541Zm-19.778,2.963c0,.2-.008.34,0,.483a31.6,31.6,0,0,0,3.467,11.9,1.089,1.089,0,0,0,.834.415c3.719.028,7.438.01,11.156.029.477,0,.787-.1.958-.572.889-2.453,1.894-4.869,2.652-7.361a39.338,39.338,0,0,0,.866-4.893Zm34.119-2.962a23.731,23.731,0,0,0-4.405-12.473,1.279,1.279,0,0,0-.917-.328c-2.32-.027-4.64-.014-6.96-.014h-2.5a35.593,35.593,0,0,1,3.353,12.815Zm.005,2.954h-11.439a35.257,35.257,0,0,1-3.269,12.7c.122.066.17.114.219.115,3.153.006,6.306.02,9.459-.011a1.13,1.13,0,0,0,.751-.48A24.031,24.031,0,0,0-1215.235,4264.641Zm-33.682,12.823a35.584,35.584,0,0,1-3.337-12.812h-11.421a23.739,23.739,0,0,0,4.437,12.558.836.836,0,0,0,.608.243C-1255.448,4277.469-1252.266,4277.464-1248.917,4277.464Zm-.006-28.592c-3.334,0-6.516-.013-9.7.023a1.231,1.231,0,0,0-.813.517,22.583,22.583,0,0,0-3.642,8.166c-.3,1.34-.459,2.71-.69,4.116h11.514A35.143,35.143,0,0,1-1248.923,4248.872Zm13.02-9.711a1.652,1.652,0,0,0,.1.34c1.369,2.048,2.734,4.1,4.129,6.128a.994.994,0,0,0,.708.367c2.764.024,5.528.014,8.292.006.067,0,.135-.075.251-.145A24.275,24.275,0,0,0-1235.9,4239.161Zm-.009,47.939c4.063-.132,12.185-4.259,13.383-6.776-2.125,0-4.244.131-6.339-.039a3.436,3.436,0,0,0-3.9,2.11A40.356,40.356,0,0,1-1235.912,4287.1Zm-7.136.068c-1.461-2.259-2.85-4.43-4.279-6.576a1.051,1.051,0,0,0-.764-.257c-2.589-.019-5.179-.013-7.769-.008-.188,0-.377.043-.7.082A24.321,24.321,0,0,0-1243.048,4287.168Zm-13.6-41.156c3.087,0,5.882.018,8.676-.026a1.3,1.3,0,0,0,.846-.576c1.123-1.643,2.2-3.319,3.3-4.977.256-.385.558-.74.995-1.314A24.694,24.694,0,0,0-1256.65,4246.012Zm17.208,40.926c1.632-2.27,3.128-4.349,4.706-6.542h-9.469Zm-.029-47.542-4.718,6.54h9.455Z" fill="#084a93"/>
      <path id="Path_190261" data-name="Path 190261" d="M-1273.751,4243.21a17.005,17.005,0,0,1-.214,2.387,4.221,4.221,0,0,1-4.587,3.254,4.3,4.3,0,0,1-3.826-4.145c-.03-1.041-.032-2.083,0-3.124a4.283,4.283,0,0,1,4.287-4.145,4.288,4.288,0,0,1,4.274,4.162c.019.535,0,1.071,0,1.606Zm-5.766-.085h0c0,.506-.031,1.014.007,1.518a1.41,1.41,0,0,0,1.387,1.362,1.383,1.383,0,0,0,1.434-1.308,25.822,25.822,0,0,0-.008-3.123,1.317,1.317,0,0,0-1.372-1.268,1.382,1.382,0,0,0-1.437,1.3C-1279.554,4242.11-1279.517,4242.619-1279.517,4243.125Z" fill="#084a93"/>
      <path id="Path_190262" data-name="Path 190262" d="M-1262.378,4226.015c0,.535.021,1.072,0,1.606a4.294,4.294,0,0,1-4.342,4.092,4.286,4.286,0,0,1-4.216-4.128c-.034-1.04-.03-2.083,0-3.123a4.285,4.285,0,0,1,4.255-4.181,4.29,4.29,0,0,1,4.307,4.128C-1262.359,4224.943-1262.377,4225.48-1262.378,4226.015Zm-2.856.05c0-.476.019-.953,0-1.428a1.428,1.428,0,0,0-1.444-1.492,1.408,1.408,0,0,0-1.4,1.444c-.032.951-.035,1.906,0,2.857a1.4,1.4,0,0,0,1.436,1.4,1.43,1.43,0,0,0,1.4-1.445C-1265.213,4226.96-1265.235,4226.512-1265.234,4226.065Z" fill="#084a93"/>
      <path id="Path_190263" data-name="Path 190263" d="M-1235.214,4300.36c0,.536.02,1.072-.005,1.606a4.3,4.3,0,0,1-4.346,4.088,4.286,4.286,0,0,1-4.212-4.132c-.034-1.04-.03-2.083,0-3.124a4.285,4.285,0,0,1,4.259-4.176,4.29,4.29,0,0,1,4.3,4.132C-1235.2,4299.288-1235.214,4299.825-1235.214,4300.36Zm-2.86.035c0-.506.028-1.014-.006-1.518a1.414,1.414,0,0,0-1.451-1.391,1.389,1.389,0,0,0-1.379,1.366c-.043.98-.042,1.965,0,2.946a1.4,1.4,0,0,0,1.445,1.393,1.417,1.417,0,0,0,1.385-1.367C-1238.046,4301.35-1238.076,4300.871-1238.074,4300.4Z" fill="#084a93"/>
      <path id="Path_190264" data-name="Path 190264" d="M-1243.858,4226.011a17.925,17.925,0,0,1,.252-2.561,4.224,4.224,0,0,1,4.578-3.15,4.293,4.293,0,0,1,3.806,4.07c.041,1.07.038,2.143,0,3.213a4.281,4.281,0,0,1-4.3,4.13,4.294,4.294,0,0,1-4.259-4.179c-.016-.505,0-1.011,0-1.517Zm5.784.017h0c0-.446,0-.893,0-1.339a1.748,1.748,0,0,0-.006-.179,1.436,1.436,0,0,0-1.391-1.365,1.4,1.4,0,0,0-1.446,1.392c-.039.98-.04,1.966,0,2.946a1.394,1.394,0,0,0,1.38,1.367,1.419,1.419,0,0,0,1.45-1.393C-1238.047,4226.983-1238.074,4226.5-1238.074,4226.028Z" fill="#084a93"/>
      <path id="Path_190265" data-name="Path 190265" d="M-1208.055,4226c0,.565.028,1.132-.005,1.7a4.3,4.3,0,0,1-4.328,4.013,4.279,4.279,0,0,1-4.219-4.029c-.051-1.128-.053-2.263,0-3.39a4.277,4.277,0,0,1,4.235-4.013,4.291,4.291,0,0,1,4.312,4.029C-1208.028,4224.873-1208.054,4225.44-1208.055,4226Zm-5.7-.027h0c0,.506-.031,1.015.008,1.518a1.408,1.408,0,0,0,1.4,1.354,1.385,1.385,0,0,0,1.426-1.317c.051-1.01.048-2.025,0-3.035a1.386,1.386,0,0,0-1.393-1.353,1.412,1.412,0,0,0-1.437,1.4C-1213.785,4225.024-1213.76,4225.5-1213.76,4225.978Z" fill="#084a93"/>
      <path id="Path_190266" data-name="Path 190266" d="M-1262.376,4300.37c0,.506.015,1.012,0,1.517a4.292,4.292,0,0,1-4.27,4.167,4.285,4.285,0,0,1-4.291-4.142c-.033-1.041-.031-2.083,0-3.124a4.285,4.285,0,0,1,4.268-4.166,4.289,4.289,0,0,1,4.293,4.142C-1262.359,4299.3-1262.377,4299.835-1262.376,4300.37Zm-2.864-.032c0-.506.034-1.015-.008-1.518a1.4,1.4,0,0,0-1.413-1.334,1.379,1.379,0,0,0-1.409,1.334c-.048,1.01-.047,2.025,0,3.035a1.383,1.383,0,0,0,1.408,1.336,1.408,1.408,0,0,0,1.414-1.335C-1265.206,4301.353-1265.241,4300.844-1265.24,4300.338Z" fill="#084a93"/>
      <path id="Path_190267" data-name="Path 190267" d="M-1196.537,4243.142a17.926,17.926,0,0,1-.255,2.56,4.216,4.216,0,0,1-4.58,3.147,4.3,4.3,0,0,1-3.8-4.074c-.039-1.069-.037-2.143,0-3.212a4.283,4.283,0,0,1,4.306-4.126,4.291,4.291,0,0,1,4.252,4.093c.024.534,0,1.07,0,1.606Zm-2.938-.031c0-.477.029-.955-.006-1.429a1.415,1.415,0,0,0-1.459-1.381,1.392,1.392,0,0,0-1.371,1.375c-.041.981-.04,1.966,0,2.947a1.4,1.4,0,0,0,1.366,1.382,1.416,1.416,0,0,0,1.464-1.377C-1199.445,4244.125-1199.475,4243.617-1199.475,4243.111Z" fill="#084a93"/>
      <path id="Path_190268" data-name="Path 190268" d="M-1207.988,4300.394a16.98,16.98,0,0,1-.214,2.387,4.221,4.221,0,0,1-4.586,3.256,4.3,4.3,0,0,1-3.827-4.145c-.03-1.04-.032-2.083,0-3.123a4.284,4.284,0,0,1,4.286-4.147,4.29,4.29,0,0,1,4.275,4.161c.019.535,0,1.071,0,1.607Zm-5.767-.048c0,.506-.035,1.015.008,1.518a1.4,1.4,0,0,0,1.42,1.327,1.387,1.387,0,0,0,1.4-1.344c.046-1.01.048-2.025,0-3.035a1.382,1.382,0,0,0-1.417-1.326,1.4,1.4,0,0,0-1.405,1.342C-1213.789,4299.331-1213.756,4299.84-1213.755,4300.346Z" fill="#084a93"/>
      <path id="Path_190269" data-name="Path 190269" d="M-1273.815,4283.18c0,.536.02,1.072,0,1.607a4.293,4.293,0,0,1-4.323,4.112,4.284,4.284,0,0,1-4.235-4.109c-.037-1.07-.037-2.143,0-3.212a4.283,4.283,0,0,1,4.232-4.111,4.29,4.29,0,0,1,4.326,4.107C-1273.8,4282.109-1273.815,4282.645-1273.815,4283.18Zm-2.859.021h0c0-.506.033-1.015-.007-1.518a1.405,1.405,0,0,0-1.4-1.352,1.378,1.378,0,0,0-1.426,1.315c-.05,1.01-.047,2.025,0,3.035a1.388,1.388,0,0,0,1.392,1.354,1.419,1.419,0,0,0,1.438-1.406C-1276.647,4284.155-1276.674,4283.677-1276.674,4283.2Z" fill="#084a93"/>
      <path id="Path_190270" data-name="Path 190270" d="M-1196.613,4283.215c0,.506.015,1.012,0,1.517a4.292,4.292,0,0,1-4.27,4.167,4.286,4.286,0,0,1-4.291-4.144c-.033-1.04-.031-2.083,0-3.123a4.285,4.285,0,0,1,4.269-4.165,4.29,4.29,0,0,1,4.293,4.142C-1196.6,4282.144-1196.613,4282.68-1196.613,4283.215Zm-5.7-.025c0,.507-.035,1.016.008,1.518a1.4,1.4,0,0,0,1.42,1.327,1.387,1.387,0,0,0,1.4-1.343c.046-1.01.048-2.026,0-3.036a1.38,1.38,0,0,0-1.417-1.325,1.4,1.4,0,0,0-1.405,1.342C-1202.352,4282.176-1202.319,4282.684-1202.318,4283.19Z" fill="#084a93"/>
      <path id="Path_190271" data-name="Path 190271" d="M-1279.527,4226.009c0-1.34-.008-2.68,0-4.02.008-1.056.549-1.695,1.414-1.7s1.435.633,1.439,1.678q.015,4.02,0,8.04c0,1.054-.553,1.7-1.414,1.705s-1.429-.631-1.438-1.68C-1279.536,4228.689-1279.527,4227.349-1279.527,4226.009Z" fill="#084a93"/>
      <path id="Path_190272" data-name="Path 190272" d="M-1255.224,4226c0-1.34-.008-2.68,0-4.02.009-1.052.559-1.691,1.426-1.691s1.423.64,1.427,1.69q.014,4.022,0,8.041c0,1.048-.564,1.692-1.427,1.692s-1.417-.642-1.426-1.692C-1255.232,4228.677-1255.224,4227.337-1255.224,4226Z" fill="#084a93"/>
      <path id="Path_190273" data-name="Path 190273" d="M-1199.469,4226.031c0,1.34.011,2.68,0,4.02-.01,1.034-.595,1.68-1.461,1.658a1.454,1.454,0,0,1-1.39-1.638q-.016-4.063,0-8.129c0-1.036.59-1.678,1.459-1.656a1.451,1.451,0,0,1,1.392,1.636C-1199.458,4223.292-1199.469,4224.661-1199.469,4226.031Z" fill="#084a93"/>
      <path id="Path_190274" data-name="Path 190274" d="M-1225.2,4226c0,1.34.009,2.68,0,4.02-.009,1.048-.565,1.692-1.428,1.691s-1.421-.643-1.425-1.693q-.012-4.02,0-8.04c0-1.051.56-1.691,1.427-1.69s1.418.641,1.426,1.692C-1225.193,4223.318-1225.2,4224.658-1225.2,4226Z" fill="#084a93"/>
      <path id="Path_190275" data-name="Path 190275" d="M-1265.232,4243.222c0,1.34.012,2.681,0,4.02a1.451,1.451,0,0,1-1.407,1.622,1.431,1.431,0,0,1-1.442-1.583q-.023-4.11,0-8.219a1.438,1.438,0,0,1,1.405-1.62c.869-.013,1.437.626,1.446,1.671C-1265.222,4240.483-1265.232,4241.853-1265.232,4243.222Z" fill="#084a93"/>
      <path id="Path_190276" data-name="Path 190276" d="M-1210.905,4243.242c0,1.311.008,2.621,0,3.931-.009,1.048-.565,1.692-1.429,1.691s-1.421-.642-1.424-1.692q-.014-4.02,0-8.041c0-1.051.559-1.69,1.426-1.689s1.418.64,1.427,1.691C-1210.9,4240.5-1210.905,4241.873-1210.905,4243.242Z" fill="#084a93"/>
      <path id="Path_190277" data-name="Path 190277" d="M-1265.232,4283.189c0,1.34.009,2.68,0,4.02-.01,1.046-.571,1.69-1.434,1.685s-1.416-.646-1.419-1.7q-.013-4.02,0-8.04c0-1.049.564-1.688,1.432-1.684s1.412.644,1.421,1.7C-1265.223,4280.509-1265.232,4281.849-1265.232,4283.189Z" fill="#084a93"/>
      <path id="Path_190278" data-name="Path 190278" d="M-1210.906,4283.217c0,1.34.011,2.68,0,4.02-.011,1.033-.6,1.68-1.462,1.657a1.454,1.454,0,0,1-1.389-1.638q-.016-4.065,0-8.129c0-1.036.59-1.678,1.46-1.656a1.452,1.452,0,0,1,1.391,1.637C-1210.9,4280.478-1210.906,4281.847-1210.906,4283.217Z" fill="#084a93"/>
      <path id="Path_190279" data-name="Path 190279" d="M-1276.669,4263.2c0,1.34.011,2.68,0,4.02-.011,1.033-.6,1.68-1.462,1.657a1.453,1.453,0,0,1-1.389-1.637q-.018-4.065,0-8.13c0-1.035.591-1.678,1.46-1.656a1.452,1.452,0,0,1,1.392,1.637C-1276.658,4260.462-1276.669,4261.832-1276.669,4263.2Z" fill="#084a93"/>
      <path id="Path_190280" data-name="Path 190280" d="M-1199.469,4263.228c0,1.34.012,2.68,0,4.02a1.457,1.457,0,0,1-1.4,1.631c-.865.019-1.45-.628-1.453-1.663q-.016-4.065,0-8.129a1.443,1.443,0,0,1,1.4-1.631c.87-.018,1.446.623,1.456,1.662C-1199.458,4260.488-1199.469,4261.858-1199.469,4263.228Z" fill="#084a93"/>
      <path id="Path_190281" data-name="Path 190281" d="M-1276.669,4300.369c0,1.34.01,2.68,0,4.02-.01,1.034-.593,1.681-1.458,1.661a1.453,1.453,0,0,1-1.393-1.635q-.018-4.063,0-8.129c0-1.038.587-1.679,1.457-1.659a1.449,1.449,0,0,1,1.394,1.633C-1276.658,4297.63-1276.669,4299-1276.669,4300.369Z" fill="#084a93"/>
      <path id="Path_190282" data-name="Path 190282" d="M-1255.224,4300.339c0-1.34-.008-2.68,0-4.02.009-1.052.559-1.691,1.425-1.692s1.424.64,1.428,1.69q.014,4.02,0,8.04c0,1.049-.563,1.692-1.426,1.693s-1.418-.642-1.427-1.691C-1255.232,4303.019-1255.224,4301.679-1255.224,4300.339Z" fill="#084a93"/>
      <path id="Path_190283" data-name="Path 190283" d="M-1228.061,4300.338c0-1.34-.008-2.68,0-4.02.009-1.052.559-1.691,1.426-1.691s1.423.64,1.427,1.69q.013,4.02,0,8.041c0,1.048-.564,1.692-1.427,1.692s-1.417-.642-1.426-1.692C-1228.069,4303.018-1228.061,4301.678-1228.061,4300.338Z" fill="#084a93"/>
      <path id="Path_190284" data-name="Path 190284" d="M-1199.468,4300.336c0,1.34.008,2.68,0,4.02-.009,1.049-.563,1.693-1.426,1.694s-1.424-.641-1.427-1.69q-.014-4.02,0-8.04c0-1.053.557-1.692,1.423-1.693s1.421.639,1.43,1.689C-1199.46,4297.656-1199.468,4299-1199.468,4300.336Z" fill="#084a93"/>
    </g>
  </g>
</svg>
