<svg id="_2" data-name="2" xmlns="http://www.w3.org/2000/svg" xmlns:xlink="http://www.w3.org/1999/xlink" width="505" height="407" viewBox="0 0 505 407">
  <defs>
    <clipPath id="clip-path">
      <rect id="Rectángulo_293573" data-name="Rectángulo 293573" width="505" height="407" fill="none"/>
    </clipPath>
    <clipPath id="clip-path-2">
      <path id="Trazado_189470" data-name="Trazado 189470" d="M343.52,197.135l-204.468-.473a.722.722,0,0,1-.773-.644l-4.63-89.833c-.038-.442.485-.883,1.045-.882l213.441.493c.56,0,1.081.445,1.041.887L344.3,196.494A.722.722,0,0,1,343.52,197.135Z" fill="none"/>
    </clipPath>
  </defs>
  <rect id="Rectángulo_293506" data-name="Rectángulo 293506" width="505" height="407" fill="#d1e1e0" opacity="0.75"/>
  <g id="Grupo_128983" data-name="Grupo 128983">
    <g id="Grupo_128982" data-name="Grupo 128982" clip-path="url(#clip-path)">
      <g id="Grupo_128969" data-name="Grupo 128969">
        <path id="Trazado_189373" data-name="Trazado 189373" d="M350.541,344.2l-208.272-.459a4.924,4.924,0,0,1-4.913-4.936l.289-125.274a4.925,4.925,0,0,1,4.935-4.913l208.376.459a4.924,4.924,0,0,1,4.913,4.94l-.393,125.274A4.924,4.924,0,0,1,350.541,344.2Z" fill="#c9ddd3" style="mix-blend-mode: multiply;isolation: isolate"/>
        <path id="Trazado_189374" data-name="Trazado 189374" d="M136.367,341.247c-5.348-.013-4.325-4.358-4.313-9.706l.267-115.756a9.684,9.684,0,0,1,9.706-9.661l198.469.459a9.683,9.683,0,0,1,9.661,9.705l-.268,115.756c-.012,5.348.991,9.673-4.357,9.661" fill="#002859"/>
        <path id="Trazado_189375" data-name="Trazado 189375" d="M345.034,336.879l-208.272-.46a4.924,4.924,0,0,1-4.913-4.935l.289-125.275a4.924,4.924,0,0,1,4.935-4.912l208.376.459a4.924,4.924,0,0,1,4.913,4.94l-.393,125.274A4.924,4.924,0,0,1,345.034,336.879Z" fill="#fff"/>
        <path id="Rectángulo_293507" data-name="Rectángulo 293507" d="M5.452,0H51.306a5.451,5.451,0,0,1,5.451,5.451V33.859a5.451,5.451,0,0,1-5.451,5.451H5.452A5.452,5.452,0,0,1,0,33.859V5.452A5.452,5.452,0,0,1,5.452,0Z" transform="translate(271.888 331.466) rotate(-179.868)" fill="none" stroke="#39304c" stroke-linecap="round" stroke-linejoin="round" stroke-width="1"/>
        <g id="Grupo_128966" data-name="Grupo 128966">
          <path id="Trazado_189376" data-name="Trazado 189376" d="M349.44,98.179l-216.02-.5c-2.288,0-4.54.907-5.029,2.043l-1.378,2.317,228.691.454-1.245-2.248C353.975,99.107,351.727,98.184,349.44,98.179Z" fill="#fff"/>
          <path id="Trazado_189377" data-name="Trazado 189377" d="M347.048,202.416l-211.553-.489a3.173,3.173,0,0,1-3.382-2.59l-5.284-95.985c-.162-1.848,2.056-3.695,4.408-3.69l220.376.509c2.352.006,4.561,1.863,4.391,3.711l-5.563,95.959A3.174,3.174,0,0,1,347.048,202.416Z" fill="#002859"/>
          <g id="Grupo_128965" data-name="Grupo 128965">
            <g id="Grupo_128964" data-name="Grupo 128964" clip-path="url(#clip-path-2)">
              <path id="Trazado_189378" data-name="Trazado 189378" d="M343.52,197.135l-204.468-.473a.722.722,0,0,1-.773-.644l-4.63-89.833c-.038-.442.485-.883,1.045-.882l213.441.493c.56,0,1.081.445,1.041.887L344.3,196.494A.722.722,0,0,1,343.52,197.135Z" fill="#fff"/>
              <path id="Trazado_189379" data-name="Trazado 189379" d="M111.064,105.924H78.121V206.079L142.8,270.906H275.659Z" fill="#ffb400"/>
              <path id="Trazado_189380" data-name="Trazado 189380" d="M302.154,50.07l-18.34,53.169,64.675,64.827,75.765,1.246Z" fill="#ffb400"/>
              <g id="Grupo_128960" data-name="Grupo 128960">
                <path id="Trazado_189381" data-name="Trazado 189381" d="M147.8,177.464" fill="#77f3fe"/>
                <path id="Trazado_189382" data-name="Trazado 189382" d="M165.865,177.463" fill="#77f3fe"/>
                <path id="Trazado_189383" data-name="Trazado 189383" d="M114.581,173.375" fill="#77f3fe"/>
                <path id="Trazado_189384" data-name="Trazado 189384" d="M148.26,173.373" fill="#77f3fe"/>
                <path id="Trazado_189385" data-name="Trazado 189385" d="M162.11,157.732l-9.634-9.661,19.295.028Z" fill="#77f3fe"/>
                <path id="Trazado_189386" data-name="Trazado 189386" d="M152.476,148.071l9.662-9.633,9.633,9.661Z" fill="#77f3fe"/>
                <path id="Trazado_189387" data-name="Trazado 189387" d="M171.771,148.1l-9.633-9.661,19.51-.189Z" fill="#77f3fe"/>
                <path id="Trazado_189388" data-name="Trazado 189388" d="M162.138,138.438,172,128.6l9.647,9.647Z" fill="#77f3fe"/>
                <path id="Trazado_189389" data-name="Trazado 189389" d="M142.843,138.41l9.661-9.633,9.634,9.661Z" fill="#77f3fe"/>
                <path id="Trazado_189390" data-name="Trazado 189390" d="M162.138,138.438l-9.634-9.661L172,128.6Z" fill="#77f3fe"/>
                <path id="Trazado_189391" data-name="Trazado 189391" d="M142.87,119.116l9.835-9.807-.2,19.468Z" fill="#77f3fe"/>
                <path id="Trazado_189392" data-name="Trazado 189392" d="M133.209,128.749l9.661-9.633-.027,19.294Z" fill="#77f3fe"/>
                <path id="Trazado_189393" data-name="Trazado 189393" d="M133.209,128.749l9.634,9.661-9.661,9.634Z" fill="#77f3fe"/>
                <path id="Trazado_189394" data-name="Trazado 189394" d="M123.548,138.383l9.661-9.634-.027,19.3Z" fill="#77f3fe"/>
                <path id="Trazado_189395" data-name="Trazado 189395" d="M161.75,99.672l9.633,9.661-9.661,9.633Z" fill="#77f3fe"/>
                <path id="Trazado_189396" data-name="Trazado 189396" d="M161.722,118.966l9.661-9.633-.027,19.3Z" fill="#77f3fe"/>
                <path id="Trazado_189397" data-name="Trazado 189397" d="M133.234,167.418l9.661-9.633,9.634,9.661Z" fill="#77f3fe"/>
                <path id="Trazado_189398" data-name="Trazado 189398" d="M171.635,147.963l9.634,9.661-9.661,9.633Z" fill="#77f3fe"/>
                <path id="Trazado_189399" data-name="Trazado 189399" d="M161.974,157.6l9.661-9.633-.027,19.294Z" fill="#77f3fe"/>
                <path id="Trazado_189400" data-name="Trazado 189400" d="M161.974,157.6l9.634,9.661-9.662,9.634Z" fill="#77f3fe"/>
                <path id="Trazado_189401" data-name="Trazado 189401" d="M152.313,167.23l9.661-9.634-.028,19.3Z" fill="#77f3fe"/>
                <path id="Trazado_189402" data-name="Trazado 189402" d="M123.548,138.383l-9.633-9.661,19.294.027Z" fill="#77f3fe"/>
                <path id="Trazado_189403" data-name="Trazado 189403" d="M113.915,128.722l9.661-9.634,9.633,9.661Z" fill="#77f3fe"/>
                <path id="Trazado_189404" data-name="Trazado 189404" d="M133.209,128.749l-9.633-9.661,19.294.028Z" fill="#77f3fe"/>
                <path id="Trazado_189405" data-name="Trazado 189405" d="M142.87,119.116l-9.633-9.661,19.468-.146Z" fill="#77f3fe"/>
                <path id="Trazado_189406" data-name="Trazado 189406" d="M133.237,109.455,123.6,99.793l19.454-.131Z" fill="#77f3fe"/>
                <path id="Trazado_189407" data-name="Trazado 189407" d="M142.747,157.637l-9.633-9.661,19.294.027Z" fill="#77f3fe"/>
                <path id="Trazado_189408" data-name="Trazado 189408" d="M123.453,157.609l9.661-9.633-.028,19.294Z" fill="#77f3fe"/>
                <path id="Trazado_189409" data-name="Trazado 189409" d="M123.521,157.677l-9.634-9.661,19.3.028Z" fill="#77f3fe"/>
                <path id="Trazado_189410" data-name="Trazado 189410" d="M113.887,148.016l9.661-9.633,9.634,9.661Z" fill="#77f3fe"/>
                <path id="Trazado_189411" data-name="Trazado 189411" d="M181.248,157.6l9.633,9.661-19.294-.028Z" fill="#77f3fe"/>
                <path id="Trazado_189412" data-name="Trazado 189412" d="M181.248,157.6l9.891-9.865-.258,19.526Z" fill="#77f3fe"/>
                <path id="Trazado_189413" data-name="Trazado 189413" d="M191.139,147.738l9.648,9.647-9.906,9.879Z" fill="#77f3fe"/>
                <path id="Trazado_189414" data-name="Trazado 189414" d="M190.881,167.264l9.906-9.879-.272,19.54Z" fill="#77f3fe"/>
                <path id="Trazado_189415" data-name="Trazado 189415" d="M94.485,148.385l9.748-9.72,9.633,9.661Z" fill="#77f3fe"/>
                <path id="Trazado_189416" data-name="Trazado 189416" d="M104.233,138.665,94.6,129l19.295.027Z" fill="#77f3fe"/>
                <path id="Trazado_189417" data-name="Trazado 189417" d="M94.592,129.009l9.661-9.633,9.634,9.661Z" fill="#77f3fe"/>
                <path id="Trazado_189418" data-name="Trazado 189418" d="M104.719,119.83l-9.633-9.662,19.294.028Z" fill="#77f3fe"/>
                <path id="Trazado_189419" data-name="Trazado 189419" d="M76.256,110.168l9.661-9.633,9.634,9.661Z" fill="#77f3fe"/>
                <path id="Trazado_189420" data-name="Trazado 189420" d="M200.053,215.055l-9.633-9.661,19.294.027Z" fill="#77f3fe"/>
                <path id="Trazado_189421" data-name="Trazado 189421" d="M190.413,205.4l9.661-9.633,9.633,9.661Z" fill="#77f3fe"/>
                <path id="Trazado_189422" data-name="Trazado 189422" d="M200.54,196.219l-9.633-9.661,19.294.028Z" fill="#77f3fe"/>
                <path id="Trazado_189423" data-name="Trazado 189423" d="M172.077,186.558l9.661-9.633,9.634,9.661Z" fill="#77f3fe"/>
              </g>
              <text id="SOPORTE" transform="translate(202.343 156.685)" fill="#ffb400" font-size="15.603" font-family="Roboto-Regular, Roboto"><tspan x="0" y="0">SOPORTE</tspan></text>
              <g id="Grupo_128961" data-name="Grupo 128961">
                <path id="Trazado_189424" data-name="Trazado 189424" d="M326.16,160.2" fill="#77f3fe"/>
                <path id="Trazado_189425" data-name="Trazado 189425" d="M344.224,160.2" fill="#77f3fe"/>
                <path id="Trazado_189426" data-name="Trazado 189426" d="M292.941,156.111" fill="#77f3fe"/>
                <path id="Trazado_189427" data-name="Trazado 189427" d="M326.619,156.109" fill="#77f3fe"/>
                <path id="Trazado_189428" data-name="Trazado 189428" d="M320.932,140.44l9.662-9.634,9.633,9.661Z" fill="#77f3fe"/>
                <path id="Trazado_189429" data-name="Trazado 189429" d="M350.131,130.835l-9.634-9.661,19.511-.189Z" fill="#77f3fe"/>
                <path id="Trazado_189430" data-name="Trazado 189430" d="M340.5,121.174l9.863-9.836,9.648,9.647Z" fill="#77f3fe"/>
                <path id="Trazado_189431" data-name="Trazado 189431" d="M321.2,121.146l9.661-9.633,9.633,9.661Z" fill="#77f3fe"/>
                <path id="Trazado_189432" data-name="Trazado 189432" d="M340.5,121.174l-9.633-9.661,19.5-.175Z" fill="#77f3fe"/>
                <path id="Trazado_189433" data-name="Trazado 189433" d="M321.23,101.852l9.834-9.807-.2,19.468Z" fill="#77f3fe"/>
                <path id="Trazado_189434" data-name="Trazado 189434" d="M311.569,111.485l9.634,9.661-9.662,9.634Z" fill="#77f3fe"/>
                <path id="Trazado_189435" data-name="Trazado 189435" d="M301.908,121.119l9.661-9.634-.028,19.295Z" fill="#77f3fe"/>
                <path id="Trazado_189436" data-name="Trazado 189436" d="M340.11,82.408l9.633,9.661-9.661,9.633Z" fill="#77f3fe"/>
                <path id="Trazado_189437" data-name="Trazado 189437" d="M340.082,101.7l9.661-9.633-.027,19.294Z" fill="#77f3fe"/>
                <path id="Trazado_189438" data-name="Trazado 189438" d="M311.594,150.154l9.661-9.633,9.633,9.661Z" fill="#77f3fe"/>
                <path id="Trazado_189439" data-name="Trazado 189439" d="M349.995,130.7l9.633,9.661-9.661,9.634Z" fill="#77f3fe"/>
                <path id="Trazado_189440" data-name="Trazado 189440" d="M340.334,140.332l9.661-9.634-.028,19.295Z" fill="#77f3fe"/>
                <path id="Trazado_189441" data-name="Trazado 189441" d="M340.334,140.332l9.633,9.661-9.661,9.634Z" fill="#77f3fe"/>
                <path id="Trazado_189442" data-name="Trazado 189442" d="M330.673,149.965l9.661-9.633-.028,19.295Z" fill="#77f3fe"/>
                <path id="Trazado_189443" data-name="Trazado 189443" d="M301.908,121.119l-9.634-9.661,19.3.027Z" fill="#77f3fe"/>
                <path id="Trazado_189444" data-name="Trazado 189444" d="M292.274,111.458l9.661-9.634,9.634,9.661Z" fill="#77f3fe"/>
                <path id="Trazado_189445" data-name="Trazado 189445" d="M321.23,101.852,311.6,92.19l19.467-.145Z" fill="#77f3fe"/>
                <path id="Trazado_189446" data-name="Trazado 189446" d="M311.6,92.19l-9.634-9.661,19.453-.131Z" fill="#77f3fe"/>
                <path id="Trazado_189447" data-name="Trazado 189447" d="M321.107,140.373l-9.634-9.661,19.3.027Z" fill="#77f3fe"/>
                <path id="Trazado_189448" data-name="Trazado 189448" d="M301.88,140.413l-9.633-9.661,19.294.028Z" fill="#77f3fe"/>
                <path id="Trazado_189449" data-name="Trazado 189449" d="M292.247,130.752l9.661-9.633,9.633,9.661Z" fill="#77f3fe"/>
                <path id="Trazado_189450" data-name="Trazado 189450" d="M359.607,140.338,369.241,150l-19.295-.028Z" fill="#77f3fe"/>
                <path id="Trazado_189451" data-name="Trazado 189451" d="M359.607,140.338l9.892-9.864L369.241,150Z" fill="#77f3fe"/>
                <path id="Trazado_189452" data-name="Trazado 189452" d="M369.5,130.474l9.648,9.647L369.241,150Z" fill="#77f3fe"/>
                <path id="Trazado_189453" data-name="Trazado 189453" d="M369.241,150l9.906-9.879-.273,19.54Z" fill="#77f3fe"/>
                <path id="Trazado_189454" data-name="Trazado 189454" d="M272.845,131.121l9.747-9.72,9.634,9.661Z" fill="#77f3fe"/>
                <path id="Trazado_189455" data-name="Trazado 189455" d="M282.592,121.4l-9.633-9.661,19.294.027Z" fill="#77f3fe"/>
                <path id="Trazado_189456" data-name="Trazado 189456" d="M283.079,102.565,273.445,92.9l19.295.028Z" fill="#77f3fe"/>
                <path id="Trazado_189457" data-name="Trazado 189457" d="M254.616,92.9l9.661-9.633,9.634,9.661Z" fill="#77f3fe"/>
              </g>
              <g id="Grupo_128963" data-name="Grupo 128963" opacity="0.81">
                <g id="Grupo_128962" data-name="Grupo 128962">
                  <path id="Trazado_189458" data-name="Trazado 189458" d="M300.692,197.328l9.442-9.414-.028,18.856Z" fill="#77f3fe"/>
                  <path id="Trazado_189459" data-name="Trazado 189459" d="M291.345,187.819l9.414,9.442-9.442,9.414Z" fill="#77f3fe"/>
                  <path id="Trazado_189460" data-name="Trazado 189460" d="M300.787,178.4l9.414,9.442-9.442,9.414Z" fill="#77f3fe"/>
                  <path id="Trazado_189461" data-name="Trazado 189461" d="M300.787,178.4l-9.442,9.414-9.414-9.442Z" fill="#77f3fe"/>
                  <path id="Trazado_189462" data-name="Trazado 189462" d="M309.973,187.621l9.541,9.569-9.442,9.414Z" fill="#77f3fe"/>
                  <path id="Trazado_189463" data-name="Trazado 189463" d="M310.072,206.6l9.442-9.414-.028,18.856Z" fill="#77f3fe"/>
                  <path id="Trazado_189464" data-name="Trazado 189464" d="M319.523,197.419l9.414,9.442-9.442,9.414Z" fill="#77f3fe"/>
                  <path id="Trazado_189465" data-name="Trazado 189465" d="M319.513,216.036l9.443-9.414-.029,18.856Z" fill="#77f3fe"/>
                  <path id="Trazado_189466" data-name="Trazado 189466" d="M338.37,197.218l-9.442,9.414-9.414-9.442Z" fill="#77f3fe"/>
                  <path id="Trazado_189467" data-name="Trazado 189467" d="M328.956,187.776l9.414,9.442-18.856-.028Z" fill="#77f3fe"/>
                  <path id="Trazado_189468" data-name="Trazado 189468" d="M310.1,188.074l9.428-9.428.112,19Z" fill="#77f3fe"/>
                  <path id="Trazado_189469" data-name="Trazado 189469" d="M310.016,168.878l9.554,9.583-9.442,9.414Z" fill="#77f3fe"/>
                </g>
              </g>
              <text id="_24_7" data-name="24/7" transform="translate(236.209 136.111)" fill="#204d68" font-size="20.583" font-family="Roboto-Regular, Roboto"><tspan x="-21.578" y="0">24/7</tspan></text>
              <line id="Línea_167" data-name="Línea 167" x2="60.962" transform="translate(205.728 140.594)" fill="none" stroke="#2a7b84" stroke-miterlimit="10" stroke-width="0.5"/>
            </g>
          </g>
        </g>
        <g id="Grupo_128968" data-name="Grupo 128968">
          <path id="Trazado_189471" data-name="Trazado 189471" d="M340.372,286.985l-198.593-.459a3.107,3.107,0,0,1-3.1-3.115l.163-70.5a3.082,3.082,0,0,1,3.089-3.075l198.644.459a3.082,3.082,0,0,1,3.075,3.089l-.163,70.5A3.108,3.108,0,0,1,340.372,286.985Z" fill="none" stroke="#d0d8d8" stroke-linecap="round" stroke-linejoin="round" stroke-width="1"/>
          <g id="Grupo_128967" data-name="Grupo 128967">
            <rect id="Rectángulo_293508" data-name="Rectángulo 293508" width="10.157" height="6.977" rx="1.323" transform="translate(147.684 218.394) rotate(0.132)" fill="#002859"/>
            <rect id="Rectángulo_293509" data-name="Rectángulo 293509" width="10.157" height="6.977" rx="1.323" transform="translate(160.928 218.425) rotate(0.133)" fill="#002859"/>
            <rect id="Rectángulo_293510" data-name="Rectángulo 293510" width="10.157" height="6.977" rx="1.323" transform="translate(174.171 218.455) rotate(0.132)" fill="#002859"/>
            <rect id="Rectángulo_293511" data-name="Rectángulo 293511" width="10.157" height="6.977" rx="1.323" transform="translate(187.414 218.486) rotate(0.133)" fill="#002859"/>
            <rect id="Rectángulo_293512" data-name="Rectángulo 293512" width="10.157" height="6.977" rx="1.323" transform="matrix(1, 0.002, -0.002, 1, 200.657, 218.516)" fill="#002859"/>
            <rect id="Rectángulo_293513" data-name="Rectángulo 293513" width="10.157" height="6.977" rx="1.323" transform="translate(213.901 218.547) rotate(0.132)" fill="#002859"/>
            <rect id="Rectángulo_293514" data-name="Rectángulo 293514" width="10.157" height="6.977" rx="1.323" transform="translate(227.144 218.578) rotate(0.133)" fill="#002859"/>
            <rect id="Rectángulo_293515" data-name="Rectángulo 293515" width="10.157" height="6.977" rx="1.323" transform="translate(240.387 218.608) rotate(0.132)" fill="#002859"/>
            <rect id="Rectángulo_293516" data-name="Rectángulo 293516" width="10.157" height="6.977" rx="1.323" transform="translate(253.631 218.639) rotate(0.133)" fill="#002859"/>
            <rect id="Rectángulo_293517" data-name="Rectángulo 293517" width="10.157" height="6.977" rx="1.323" transform="matrix(1, 0.002, -0.002, 1, 266.874, 218.669)" fill="#002859"/>
            <rect id="Rectángulo_293518" data-name="Rectángulo 293518" width="10.157" height="6.977" rx="1.323" transform="translate(280.117 218.7) rotate(0.133)" fill="#002859"/>
            <rect id="Rectángulo_293519" data-name="Rectángulo 293519" width="10.157" height="6.977" rx="1.323" transform="translate(293.361 218.73) rotate(0.133)" fill="#002859"/>
            <path id="Rectángulo_293520" data-name="Rectángulo 293520" d="M1.324,0H11.868A1.322,1.322,0,0,1,13.19,1.322v4.33a1.324,1.324,0,0,1-1.324,1.324H1.323A1.323,1.323,0,0,1,0,5.654V1.324A1.324,1.324,0,0,1,1.324,0Z" transform="translate(306.602 218.762) rotate(0.094)" fill="#002859"/>
            <path id="Rectángulo_293521" data-name="Rectángulo 293521" d="M1.322,0H11.934a1.324,1.324,0,0,1,1.324,1.324v4.33a1.322,1.322,0,0,1-1.322,1.322H1.324A1.324,1.324,0,0,1,0,5.653V1.322A1.322,1.322,0,0,1,1.322,0Z" transform="translate(322.883 218.791) rotate(0.171)" fill="#002859"/>
            <rect id="Rectángulo_293522" data-name="Rectángulo 293522" width="10.157" height="13.337" rx="1.323" transform="translate(147.572 267.127) rotate(0.132)" fill="#002859"/>
            <rect id="Rectángulo_293523" data-name="Rectángulo 293523" width="10.157" height="13.337" rx="1.323" transform="translate(160.815 267.158) rotate(0.133)" fill="#002859"/>
            <rect id="Rectángulo_293524" data-name="Rectángulo 293524" width="10.157" height="13.337" rx="1.323" transform="translate(174.058 267.189) rotate(0.132)" fill="#002859"/>
            <rect id="Rectángulo_293525" data-name="Rectángulo 293525" width="10.157" height="13.337" rx="1.323" transform="translate(187.302 267.219) rotate(0.133)" fill="#002859"/>
            <rect id="Rectángulo_293526" data-name="Rectángulo 293526" width="13.337" height="49.887" rx="1.323" transform="translate(200.514 280.587) rotate(-89.868)" fill="#002859"/>
            <rect id="Rectángulo_293527" data-name="Rectángulo 293527" width="10.157" height="13.337" rx="1.323" transform="translate(253.518 267.372) rotate(0.132)" fill="#002859"/>
            <rect id="Rectángulo_293528" data-name="Rectángulo 293528" width="10.157" height="13.337" rx="1.323" transform="translate(266.761 267.403) rotate(0.132)" fill="#002859"/>
            <rect id="Rectángulo_293529" data-name="Rectángulo 293529" width="10.157" height="13.337" rx="1.323" transform="translate(280.005 267.433) rotate(0.132)" fill="#002859"/>
            <rect id="Rectángulo_293530" data-name="Rectángulo 293530" width="11.171" height="5.129" rx="1.323" transform="translate(309.214 275.71) rotate(0.132)" fill="#002859"/>
            <rect id="Rectángulo_293531" data-name="Rectángulo 293531" width="11.171" height="5.129" rx="1.323" transform="translate(323.78 275.743) rotate(0.133)" fill="#002859"/>
            <rect id="Rectángulo_293532" data-name="Rectángulo 293532" width="11.171" height="5.129" rx="1.323" transform="translate(294.648 275.676) rotate(0.133)" fill="#002859"/>
            <rect id="Rectángulo_293533" data-name="Rectángulo 293533" width="11.171" height="5.129" rx="1.323" transform="translate(309.233 267.501) rotate(0.133)" fill="#002859"/>
            <rect id="Rectángulo_293534" data-name="Rectángulo 293534" width="10.157" height="10.157" rx="1.323" transform="translate(147.662 228.192) rotate(0.132)" fill="#002859"/>
            <rect id="Rectángulo_293535" data-name="Rectángulo 293535" width="10.157" height="10.157" rx="1.323" transform="translate(160.905 228.223) rotate(0.133)" fill="#002859"/>
            <rect id="Rectángulo_293536" data-name="Rectángulo 293536" width="10.157" height="10.157" rx="1.323" transform="translate(174.148 228.253) rotate(0.132)" fill="#002859"/>
            <rect id="Rectángulo_293537" data-name="Rectángulo 293537" width="10.157" height="10.157" rx="1.323" transform="translate(187.392 228.284) rotate(0.133)" fill="#002859"/>
            <rect id="Rectángulo_293538" data-name="Rectángulo 293538" width="10.157" height="10.157" rx="1.323" transform="translate(200.635 228.315) rotate(0.132)" fill="#002859"/>
            <rect id="Rectángulo_293539" data-name="Rectángulo 293539" width="10.157" height="10.157" rx="1.323" transform="translate(213.878 228.345) rotate(0.132)" fill="#002859"/>
            <rect id="Rectángulo_293540" data-name="Rectángulo 293540" width="10.157" height="10.157" rx="1.323" transform="translate(227.121 228.376) rotate(0.132)" fill="#002859"/>
            <rect id="Rectángulo_293541" data-name="Rectángulo 293541" width="10.157" height="10.157" rx="1.323" transform="translate(240.365 228.406) rotate(0.132)" fill="#002859"/>
            <rect id="Rectángulo_293542" data-name="Rectángulo 293542" width="10.157" height="10.157" rx="1.323" transform="translate(253.608 228.437) rotate(0.132)" fill="#002859"/>
            <rect id="Rectángulo_293543" data-name="Rectángulo 293543" width="10.157" height="10.157" rx="1.323" transform="translate(266.851 228.467) rotate(0.132)" fill="#002859"/>
            <rect id="Rectángulo_293544" data-name="Rectángulo 293544" width="10.157" height="10.157" rx="1.323" transform="translate(280.095 228.498) rotate(0.133)" fill="#002859"/>
            <rect id="Rectángulo_293545" data-name="Rectángulo 293545" width="10.157" height="10.157" rx="1.323" transform="translate(293.338 228.529) rotate(0.132)" fill="#002859"/>
            <path id="Rectángulo_293546" data-name="Rectángulo 293546" d="M1.323,0H11.867A1.323,1.323,0,0,1,13.19,1.323v7.51a1.324,1.324,0,0,1-1.324,1.324H1.323A1.323,1.323,0,0,1,0,8.834V1.323A1.323,1.323,0,0,1,1.323,0Z" transform="matrix(1, 0.002, -0.002, 1, 306.578, 228.56)" fill="#002859"/>
            <path id="Rectángulo_293547" data-name="Rectángulo 293547" d="M1.322,0H11.935a1.323,1.323,0,0,1,1.323,1.323V8.835a1.322,1.322,0,0,1-1.322,1.322H1.323A1.323,1.323,0,0,1,0,8.834V1.322A1.322,1.322,0,0,1,1.322,0Z" transform="translate(322.861 228.589) rotate(0.17)" fill="#002859"/>
            <path id="Trazado_189472" data-name="Trazado 189472" d="M162.9,251.378l-13.966-.047a1.325,1.325,0,0,1-1.32-1.327l.018-7.51a1.322,1.322,0,0,1,1.326-1.32l13.966.048a1.322,1.322,0,0,1,1.32,1.326l-.018,7.51A1.322,1.322,0,0,1,162.9,251.378Z" fill="#002859"/>
            <path id="Trazado_189473" data-name="Trazado 189473" d="M182.929,251.409l-13.965-.017a1.323,1.323,0,0,1-1.32-1.326l.017-7.511a1.323,1.323,0,0,1,1.326-1.32l13.965.017a1.323,1.323,0,0,1,1.32,1.326l-.017,7.511A1.323,1.323,0,0,1,182.929,251.409Z" fill="#002859"/>
            <rect id="Rectángulo_293548" data-name="Rectángulo 293548" width="10.157" height="10.157" rx="1.323" transform="translate(187.362 241.262) rotate(0.132)" fill="#002859"/>
            <rect id="Rectángulo_293549" data-name="Rectángulo 293549" width="10.157" height="10.157" rx="1.323" transform="translate(200.605 241.293) rotate(0.132)" fill="#002859"/>
            <rect id="Rectángulo_293550" data-name="Rectángulo 293550" width="10.157" height="10.157" rx="1.323" transform="translate(213.848 241.324) rotate(0.132)" fill="#002859"/>
            <rect id="Rectángulo_293551" data-name="Rectángulo 293551" width="10.157" height="10.157" rx="1.323" transform="translate(227.092 241.354) rotate(0.133)" fill="#002859"/>
            <rect id="Rectángulo_293552" data-name="Rectángulo 293552" width="10.157" height="10.157" rx="1.323" transform="translate(240.335 241.385) rotate(0.132)" fill="#002859"/>
            <rect id="Rectángulo_293553" data-name="Rectángulo 293553" width="10.157" height="10.157" rx="1.323" transform="translate(253.578 241.415) rotate(0.133)" fill="#002859"/>
            <rect id="Rectángulo_293554" data-name="Rectángulo 293554" width="10.157" height="10.157" rx="1.323" transform="translate(266.821 241.446) rotate(0.132)" fill="#002859"/>
            <rect id="Rectángulo_293555" data-name="Rectángulo 293555" width="10.157" height="10.157" rx="1.323" transform="translate(280.065 241.476) rotate(0.133)" fill="#002859"/>
            <rect id="Rectángulo_293556" data-name="Rectángulo 293556" width="10.157" height="10.157" rx="1.323" transform="translate(293.308 241.507) rotate(0.133)" fill="#002859"/>
            <rect id="Rectángulo_293557" data-name="Rectángulo 293557" width="10.157" height="10.157" rx="1.323" transform="translate(306.262 241.507) rotate(0.133)" fill="#002859"/>
            <path id="Trazado_189474" data-name="Trazado 189474" d="M334.74,251.76l-13.745-.062a1.323,1.323,0,0,1-1.32-1.326l.017-7.511a1.323,1.323,0,0,1,1.326-1.32l13.745.062a1.322,1.322,0,0,1,1.32,1.326l-.017,7.511A1.325,1.325,0,0,1,334.74,251.76Z" fill="#002859"/>
            <rect id="Rectángulo_293558" data-name="Rectángulo 293558" width="23.4" height="10.157" rx="1.323" transform="translate(147.602 254.149) rotate(0.132)" fill="#002859"/>
            <rect id="Rectángulo_293559" data-name="Rectángulo 293559" width="10.157" height="10.157" rx="1.323" transform="translate(174.088 254.21) rotate(0.132)" fill="#002859"/>
            <rect id="Rectángulo_293560" data-name="Rectángulo 293560" width="10.157" height="10.157" rx="1.323" transform="matrix(1, 0.002, -0.002, 1, 187.332, 254.241)" fill="#002859"/>
            <rect id="Rectángulo_293561" data-name="Rectángulo 293561" width="10.157" height="10.157" rx="1.323" transform="translate(200.575 254.271) rotate(0.132)" fill="#002859"/>
            <rect id="Rectángulo_293562" data-name="Rectángulo 293562" width="10.157" height="10.157" rx="1.323" transform="translate(213.818 254.302) rotate(0.132)" fill="#002859"/>
            <rect id="Rectángulo_293563" data-name="Rectángulo 293563" width="10.157" height="10.157" rx="1.323" transform="translate(227.062 254.333) rotate(0.133)" fill="#002859"/>
            <rect id="Rectángulo_293564" data-name="Rectángulo 293564" width="10.157" height="10.157" rx="1.323" transform="translate(240.305 254.363) rotate(0.132)" fill="#002859"/>
            <rect id="Rectángulo_293565" data-name="Rectángulo 293565" width="10.157" height="10.157" rx="1.323" transform="translate(253.548 254.394) rotate(0.133)" fill="#002859"/>
            <rect id="Rectángulo_293566" data-name="Rectángulo 293566" width="10.157" height="10.157" rx="1.323" transform="translate(266.791 254.424) rotate(0.132)" fill="#002859"/>
            <rect id="Rectángulo_293567" data-name="Rectángulo 293567" width="10.157" height="10.157" rx="1.323" transform="translate(280.035 254.455) rotate(0.133)" fill="#002859"/>
            <rect id="Rectángulo_293568" data-name="Rectángulo 293568" width="10.157" height="10.157" rx="1.323" transform="translate(293.278 254.485) rotate(0.133)" fill="#002859"/>
            <rect id="Rectángulo_293569" data-name="Rectángulo 293569" width="29.535" height="10.157" rx="1.323" transform="matrix(1, 0.002, -0.002, 1, 306.521, 254.516)" fill="#002859"/>
          </g>
        </g>
      </g>
      <g id="Grupo_128972" data-name="Grupo 128972">
        <g id="Grupo_128970" data-name="Grupo 128970">
          <rect id="Rectángulo_293570" data-name="Rectángulo 293570" width="35.345" height="50.834" rx="13.291" transform="translate(356.234 259.985)" fill="#afabc4"/>
          <rect id="Rectángulo_293571" data-name="Rectángulo 293571" width="35.345" height="50.834" rx="13.291" transform="translate(356.234 259.985)" fill="#887fa8" style="mix-blend-mode: multiply;isolation: isolate"/>
          <path id="Rectángulo_293572" data-name="Rectángulo 293572" d="M17.672,0h0A17.672,17.672,0,0,1,35.345,17.672v19.87A13.291,13.291,0,0,1,22.053,50.834H13.291A13.291,13.291,0,0,1,0,37.543V17.672A17.672,17.672,0,0,1,17.672,0Z" transform="translate(356.234 255.413)" fill="#fff"/>
          <path id="Trazado_189475" data-name="Trazado 189475" d="M373.907,271.3h0a3.868,3.868,0,0,1-3.868-3.868v-3.39a3.868,3.868,0,0,1,3.868-3.868h0a3.867,3.867,0,0,1,3.867,3.868v3.39A3.867,3.867,0,0,1,373.907,271.3Z" fill="#002859"/>
        </g>
        <path id="Trazado_189476" data-name="Trazado 189476" d="M413.14,299.5a15.951,15.951,0,0,0-2.548-2.6c-.953-.815-1.983-1.608-2.843-2.244.025-.094.05-.2.076-.287,1.1-3.851-2.752-7.88-4.4-10.623-.993-1.653-3.891-4.16-6.056-5.894v-.008c-1.441-1.156-2.556-1.978-2.556-1.978a67.976,67.976,0,0,0-1.035-8.793A4.35,4.35,0,0,0,394,265.7c.074-3.206-.912-4.218-.912-4.218a2.263,2.263,0,0,0-2.239-.491,3.926,3.926,0,0,0-1.471.623,4.052,4.052,0,0,0-2.769,2.711c-.871,2.751-.228,6.6-.041,9.532.033.439.041.96.041,1.53v.008a77.363,77.363,0,0,1-1.14,12.568c-.529,2.947-1.245,7.261-1.823,10.078a.158.158,0,0,1-.016.057c-.424,2.051-.782,3.28-.936,2.588-.367-1.644-4.738-11.8-5.291-15.653s-2.744-9.711-3.663-12.642c-.717-2.287-.757-5.584-2.312-6.74l-.008-.008a2.307,2.307,0,0,0-1.71-.4,8.282,8.282,0,0,0-1.157.208,6.366,6.366,0,0,0-.832.126,3.14,3.14,0,0,0-2.106,1.17,3.289,3.289,0,0,0,.009,1.511,11.041,11.041,0,0,0-.383,2.3c-.26,3.3.985,9.345,1.718,13.195a81.15,81.15,0,0,1,.92,10.81c.179,3.109,1.644,9.711.911,13.187-.7,3.337-4.59,10.354-4.932,10.956,0,.016-.008.024-.017.041a27.936,27.936,0,0,1-.179-6.415c.367-2.743-.732-7.147-.732-7.147,2.018-2.564,1.652-9.157.545-11.355a4.824,4.824,0,0,0-.781-1.115,6.457,6.457,0,0,0-1.1-.945c.058-.183.111-.366.149-.545l-2.674-.407c-.581,1.37-1.569,4.846-2.086,6.716a22.09,22.09,0,0,1-1.928,3.988c-1.652,2.385-2.564,4.217-1.555,6.96s-1.1,12.186,0,15.759a109.138,109.138,0,0,0,6.317,14.848c2.2,4.118,6.089,13.186,9.939,21.164s-4.037,74.228-4.037,74.228l34.92-5s.228-70.061.228-77.208,10.256-28.945,10.077-30.411c.733-1.465,3.3-12.1,4.03-15.392S414.784,301.889,413.14,299.5Zm-15.393-4.941c-.2,1.008-1.071,3.79-1.809,6.089-.03-2.8-.184-11.12-.022-13.969C395.916,286.683,398.114,292.731,397.747,294.563Z" fill="#c9ddd3" style="mix-blend-mode: multiply;isolation: isolate"/>
        <g id="Grupo_128971" data-name="Grupo 128971">
          <path id="Trazado_189477" data-name="Trazado 189477" d="M412.014,299.239c-.732,3.3-3.3,13.927-4.029,15.393s-3.671,3.109-5.137,2.743l-3.109-6.879s.733-7.594,1.1-8.758c.008-.033.016-.065.032-.114.416-1.767,1.978-15.58,1.978-15.58s2.6,1.758,4.787,3.63a16.032,16.032,0,0,1,2.548,2.6C411.827,294.656,412.747,295.942,412.014,299.239Z" fill="#efbc9b"/>
          <path id="Trazado_189478" data-name="Trazado 189478" d="M407.635,289.674c-.839,2.866-4.339,8.352-6.765,11.95.416-1.767,1.978-15.58,1.978-15.58S405.445,287.8,407.635,289.674Z" fill="#efe1da" style="mix-blend-mode: multiply;isolation: isolate"/>
          <path id="Trazado_189479" data-name="Trazado 189479" d="M397.907,345.043c0,7.147-.227,77.208-.227,77.208l-34.921,5s7.888-66.259,4.037-74.228-7.741-17.045-9.939-21.164a109.257,109.257,0,0,1-6.316-14.848c-1.1-3.573,1-13.007,0-15.758s-.1-4.575,1.555-6.96,3.85-9.345,4.029-10.265c.155-.741,2.247-.024,3.614,1.457a4.831,4.831,0,0,1,.781,1.116c1.108,2.2,1.474,8.791-.545,11.355,0,0,1.1,4.4.733,7.147a27.867,27.867,0,0,0,.179,6.414c.008-.016.016-.024.016-.041.342-.6,4.233-7.619,4.933-10.956.732-3.476-.733-10.077-.912-13.187a81.155,81.155,0,0,0-.92-10.81c-.732-3.85-1.978-9.9-1.717-13.195s1.172-4.949,4.469-5.315a2.3,2.3,0,0,1,1.709.4l.008.008c1.555,1.156,1.6,4.452,2.312,6.74.92,2.93,3.118,8.791,3.663,12.641s4.925,14.009,5.291,15.653c.155.692.513-.537.936-2.588a.153.153,0,0,0,.016-.057c.578-2.817,1.295-7.131,1.824-10.078a77.345,77.345,0,0,0,1.139-12.568v-.008c0-.57-.008-1.09-.04-1.53-.188-2.931-.831-6.781.04-9.532s4.722-4.575,6.374,0,1.465,8.433,1.831,11.551,1.278,7.513,1.1,10.81.049,13.927.025,14.839,2.906,6.96,5.47,10.81,9.345,8.066,9.532,9.532S397.907,337.9,397.907,345.043Z" fill="#efbc9b"/>
          <path id="Trazado_189480" data-name="Trazado 189480" d="M404.867,287.143a103.439,103.439,0,0,0-2.2,14.66c-.187,4.493-3.484,11-5.315,7.879s-5.495-12.828-5.495-12.828l.009-.025c.146-.447,2.564-7.724,2.922-9.5.366-1.831-1.832-7.879-1.832-7.879l-1.1-10.81s1.116.822,2.556,1.978v.008c2.166,1.734,5.064,4.241,6.057,5.893C402.116,279.263,405.966,283.293,404.867,287.143Z" fill="#efbc9b"/>
          <path id="Trazado_189481" data-name="Trazado 189481" d="M394.79,287.33c.366-1.831-1.832-7.879-1.832-7.879l-1.1-10.81s1.116.822,2.556,1.978v.008c-.032,2.482.171,5.975.171,5.975l2.849,8.8-5.567,11.428C392.014,296.382,394.432,289.105,394.79,287.33Z" fill="#efe1da" style="mix-blend-mode: multiply;isolation: isolate"/>
          <path id="Trazado_189482" data-name="Trazado 189482" d="M353.685,291.541s4.386-4.191,5.1-7.548l-2.675-.407C355.3,285.5,353.685,291.541,353.685,291.541Z" fill="#ffd9c4"/>
          <path id="Trazado_189483" data-name="Trazado 189483" d="M362.66,259.513c-.457,1.411,1.048,5.076,2.106,5.792,2.019,1.367,3.442-.719,3.871-3.431s-.443-3.531-.443-3.531a9.029,9.029,0,0,0-3.428,0A3.144,3.144,0,0,0,362.66,259.513Z" fill="#ffd9c4"/>
          <path id="Trazado_189484" data-name="Trazado 189484" d="M385.974,254.823c-.417,1.287.956,4.627,1.921,5.281,1.84,1.246,3.094.864,3.151-1.639.073-3.206-.913-4.217-.913-4.217a2.261,2.261,0,0,0-2.238-.492A2.873,2.873,0,0,0,385.974,254.823Z" fill="#ffd9c4"/>
        </g>
        <path id="Trazado_189485" data-name="Trazado 189485" d="M374.448,277.8c.554,3.85,4.925,14.009,5.291,15.653,0,0-7.2-10.476-7.6-12.625s-1.831-10.264-2.1-13.4c-.179-2.117-1.84-9.085-1.84-9.085l.269.066.008.008c1.555,1.156,1.6,4.452,2.312,6.74C371.7,268.087,373.9,273.948,374.448,277.8Z" fill="#efe1da" style="mix-blend-mode: multiply;isolation: isolate"/>
        <path id="Trazado_189486" data-name="Trazado 189486" d="M384.957,277.684c-.293,1.889-2.833,9.149-4.266,13.122.578-2.817,1.295-7.131,1.824-10.078a77.345,77.345,0,0,0,1.139-12.568C384.411,271.929,385.177,276.276,384.957,277.684Z" fill="#efe1da" style="mix-blend-mode: multiply;isolation: isolate"/>
        <path id="Trazado_189487" data-name="Trazado 189487" d="M360.887,311.514c-2.711,5.25-2.1,7.481-2.1,7.481-1.555-4.274-.489-9.361-.521-12.748a15.785,15.785,0,0,0-1.864-6.625,16.922,16.922,0,0,0,2.385-6.171c.35-1.945.7-5.234.952-7.969a4.831,4.831,0,0,1,.781,1.116c1.108,2.2,1.474,8.791-.545,11.355,0,0,1.1,4.4.733,7.147A27.867,27.867,0,0,0,360.887,311.514Z" fill="#efe1da" style="mix-blend-mode: multiply;isolation: isolate"/>
        <path id="Trazado_189488" data-name="Trazado 189488" d="M399.739,357.723H365.666v25.795l32.115,6.9Z" fill="#004997"/>
        <line id="Línea_168" data-name="Línea 168" y2="26.704" transform="translate(369.898 357.723)" fill="none" stroke="#cecad7" stroke-miterlimit="10" stroke-width="1" style="mix-blend-mode: multiply;isolation: isolate"/>
        <line id="Línea_169" data-name="Línea 169" y2="26.704" transform="translate(374.782 357.723)" fill="none" stroke="#cecad7" stroke-miterlimit="10" stroke-width="1" style="mix-blend-mode: multiply;isolation: isolate"/>
        <line id="Línea_170" data-name="Línea 170" y2="26.704" transform="translate(379.666 357.723)" fill="none" stroke="#cecad7" stroke-miterlimit="10" stroke-width="1" style="mix-blend-mode: multiply;isolation: isolate"/>
        <line id="Línea_171" data-name="Línea 171" y2="26.704" transform="translate(384.55 357.723)" fill="none" stroke="#cecad7" stroke-miterlimit="10" stroke-width="1" style="mix-blend-mode: multiply;isolation: isolate"/>
        <line id="Línea_172" data-name="Línea 172" y2="26.704" transform="translate(389.434 357.723)" fill="none" stroke="#cecad7" stroke-miterlimit="10" stroke-width="1" style="mix-blend-mode: multiply;isolation: isolate"/>
        <line id="Línea_173" data-name="Línea 173" y2="26.704" transform="translate(394.318 357.723)" fill="none" stroke="#cecad7" stroke-miterlimit="10" stroke-width="1" style="mix-blend-mode: multiply;isolation: isolate"/>
        <path id="Trazado_189489" data-name="Trazado 189489" d="M366.222,375.378h30.447a4.737,4.737,0,0,1,4.739,4.87c-.5,17.667-2.14,77.4-1.671,78.5.55,1.288-45.352-1.254-45.352-1.254l7.116-77.8A4.741,4.741,0,0,1,366.222,375.378Z" fill="#004997"/>
      </g>
      <path id="Trazado_189490" data-name="Trazado 189490" d="M163.4,297.861c1.8-2.3,1.5-4.324.657-7.1a22.061,22.061,0,0,1-.61-4.388c.083-1.938.209-5.549.077-7.031l-2.67-.434c-.019.182-.024.372-.026.564a6.437,6.437,0,0,0-1.341.56,4.866,4.866,0,0,0-1.086.821c-1.728,1.752-4.1,7.915-2.968,10.975,0,0-2.4,3.853-2.891,6.576a27.905,27.905,0,0,1-2.14,6.05.084.084,0,0,1,0-.044c-.141-.678-1.689-8.551-1.33-11.942.37-3.532,3.791-9.365,4.916-12.269a81.349,81.349,0,0,1,4.2-10.006c1.879-3.439,4.921-8.813,5.686-12.03a10.993,10.993,0,0,0,.342-2.308,3.282,3.282,0,0,0,.473-1.435s-.175-.886-1.645-1.76a6.6,6.6,0,0,0-.753-.375,8.192,8.192,0,0,0-1.038-.553,2.3,2.3,0,0,0-1.749-.145l-.011.005c-1.834.623-2.885,3.748-4.269,5.7-1.775,2.506-5.667,7.409-7.368,10.906s-8.988,11.82-9.842,13.272c-.359.611-.323-.669-.1-2.751a.166.166,0,0,1,0-.059c.315-2.858.958-7.184,1.359-10.15a77.433,77.433,0,0,1,2.775-12.311l0-.008c.175-.542.343-1.036.509-1.444,1.078-2.731,2.872-6.2,2.888-9.084a4.056,4.056,0,0,0-1.8-3.43,3.936,3.936,0,0,0-1.209-1.044,2.26,2.26,0,0,0-2.281-.22s-1.249.66-2.164,3.733a4.327,4.327,0,0,0-.213,1.383,68.009,68.009,0,0,0-3.685,8.051c-1.3,2.847-3.524,6.758-4.365,9.951-.6,2.278-2.54,8.039-3.7,11.474.043-.807.084-1.58.116-2.275a78.392,78.392,0,0,1,1.692-12.506l0-.008c.129-.557.258-1.063.385-1.484.84-2.816,2.322-6.427,2.085-9.3a3.991,3.991,0,0,0-.258-1.135,3.583,3.583,0,0,0-2.4-2.331,2.13,2.13,0,0,0-1.836,0,3.407,3.407,0,0,0-1.074,1.2,6.678,6.678,0,0,0-.649.847c-2.622,4.1-3.306,7.889-4.364,10.849s-2.921,7.038-3.484,10.294c-.244,1.434-.887,4.242-1.546,7.009-.074-2.964-.01-5.552-.01-5.552.031-.546.347-3.54.4-3.958.333-2.621.858-5.308.4-7.85l0-.01c-.025-.162-.057-.327-.1-.494a4.142,4.142,0,0,0-.483-1.17,2.672,2.672,0,0,0,.182-1.12s-.258-.782-1.686-1.407a2.262,2.262,0,0,0-2.291.063s-.971.685-1.54,3.231l-.014.027c-1.786,4.291-1.866,7.985-2.394,10.946s-1.63,7.12-1.674,10.279,1.6,17.486,1.611,17.612v0c-.62,1.339-.037,20.881-2.229,27.675-.489,1.515-1.928,6.011-3.866,12.076l-1.771-.571-4.524,17.553a4.733,4.733,0,0,0-3.981,3.372c-4.951,16.966-25.1,97.268-25.885,98.168-.919,1.057,43.546,12.732,43.546,12.732l20.491-99.181a4.728,4.728,0,0,0-2.657-5.33l5.437-16.852-1.912-.617a14.847,14.847,0,0,1,2.28-4.206c6.114-6.409,12.6-13.845,15.958-17.09a109.212,109.212,0,0,0,10.57-12.19C160.7,309.8,161.6,300.172,163.4,297.861Z" fill="#c9ddd3" style="mix-blend-mode: multiply;isolation: isolate"/>
      <g id="Grupo_128974" data-name="Grupo 128974">
        <g id="Grupo_128973" data-name="Grupo 128973">
          <path id="Trazado_189491" data-name="Trazado 189491" d="M117.022,287.972c.02-.036.038-.065.056-.093-.046.088-.089.168-.091.176-.692.367-2.795,1.424-3.794,1.9-.56.17-1.112.342-1.674.494-1.671.462-3.369.846-5.067,1.18,0,0-1.643-14.447-1.612-17.618s1.149-7.327,1.674-10.28.608-6.655,2.394-10.945,5.206-2.3,5.832.376c.04.167.072.331.1.493l.005.01c.455,2.542-.07,5.229-.4,7.85-.057.418-.373,3.412-.4,3.958a100.935,100.935,0,0,0,.285,10.382c.161,1.489.344,3.335.529,5.148.173,1.664.346,3.3.516,4.606a.1.1,0,0,0,.015.056A2.541,2.541,0,0,0,117.022,287.972Z" fill="#efbc9b"/>
          <path id="Trazado_189492" data-name="Trazado 189492" d="M104.22,319.3c-2.194,6.8-23.489,73.548-23.489,73.548l31.7,15.479s12.838-65.481,18.949-71.882,12.6-13.845,15.957-17.09a109.122,109.122,0,0,0,10.571-12.191c2.143-3.063,3.041-12.687,4.839-15s1.5-4.323.657-7.1-.795-10.075-.683-11.006c.08-.752-2.131-.713-3.887.277a4.839,4.839,0,0,0-1.086.822c-1.728,1.752-4.1,7.914-2.968,10.974,0,0-2.4,3.854-2.891,6.577a27.887,27.887,0,0,1-2.14,6.049.081.081,0,0,1,0-.043c-.141-.679-1.689-8.551-1.331-11.942.37-3.533,3.792-9.366,4.917-12.27a81.12,81.12,0,0,1,4.2-10.005c1.879-3.44,4.921-8.813,5.686-12.031s.4-5.07-2.621-6.43a2.3,2.3,0,0,0-1.75-.146l-.01.006c-1.834.622-2.885,3.747-4.269,5.7-1.776,2.507-5.667,7.409-7.368,10.906s-8.988,11.82-9.842,13.273c-.359.611-.323-.669-.1-2.751a.151.151,0,0,1,0-.06c.315-2.857.958-7.183,1.359-10.15a77.349,77.349,0,0,1,2.775-12.311l0-.008c.175-.542.343-1.035.509-1.444,1.078-2.731,2.872-6.2,2.888-9.084s-3.089-5.8-6.066-1.957-3.984,7.576-5.29,10.431-3.523,6.758-4.365,9.95-4.323,13.24-4.579,14.115-4.9,5.731-8.525,8.608-8.888,9.169-9.516,10.506S106.412,312.5,104.22,319.3Z" fill="#efbc9b"/>
          <path id="Trazado_189493" data-name="Trazado 189493" d="M114.849,281a23.617,23.617,0,0,1-3.332-10.457c-.149-1.579.753-6.309,1.421-8.831.358-1.321,1.21-4.81,1.9-8.05.455,2.542-.07,5.229-.4,7.85-.057.418-.373,3.412-.4,3.958a100.935,100.935,0,0,0,.285,10.382C114.481,277.342,114.664,279.188,114.849,281Z" fill="#efe1da" style="mix-blend-mode: multiply;isolation: isolate"/>
          <path id="Trazado_189494" data-name="Trazado 189494" d="M126.413,280.55c-.03.041-.056.067-.058.075-.811.26-3.237.966-4.39,1.278-.632.078-1.257.159-1.885.222-1.877.172-3.755.268-5.642.309-1.66.029-3.326.022-4.989-.019a18.815,18.815,0,0,0,2.8-3.945c.177-.892,2.785-11.2,3.338-14.455s2.439-7.347,3.484-10.3,1.742-6.751,4.364-10.848c2.28-3.541,5.09-2.045,5.954.287a4,4,0,0,1,.258,1.135c.237,2.873-1.245,6.484-2.085,9.3-.127.421-.256.927-.385,1.484l0,.008a78.406,78.406,0,0,0-1.692,12.507c-.141,2.982-.413,7.325-.478,10.2a.033.033,0,0,0,0,.026c-.005.015,0,.036.008.054A2.7,2.7,0,0,0,126.413,280.55Z" fill="#efbc9b"/>
          <path id="Trazado_189495" data-name="Trazado 189495" d="M162.734,281.959s-2.888-5.336-2.534-8.75l2.67.434C163.054,275.714,162.734,281.959,162.734,281.959Z" fill="#ffd9c4"/>
          <path id="Trazado_189496" data-name="Trazado 189496" d="M164.027,248.722c0,1.483-2.556,4.508-3.783,4.865-2.341.681-3.054-1.74-2.63-4.454s1.506-3.224,1.506-3.224a9.03,9.03,0,0,1,3.262,1.053C163.852,247.835,164.027,248.722,164.027,248.722Z" fill="#ffd9c4"/>
          <path id="Trazado_189497" data-name="Trazado 189497" d="M143.279,237.1c0,1.353-2.33,4.111-3.449,4.437-2.134.621-3.21-.128-2.5-2.527.915-3.074,2.164-3.734,2.164-3.734a2.262,2.262,0,0,1,2.281.22C143.119,236.291,143.279,237.1,143.279,237.1Z" fill="#ffd9c4"/>
          <path id="Trazado_189498" data-name="Trazado 189498" d="M128.943,242.652c0,1.353-2.33,4.111-3.449,4.436-2.134.621-3.21-.127-2.5-2.527.915-3.074,2.164-3.733,2.164-3.733a2.261,2.261,0,0,1,2.281.219C128.783,241.844,128.943,242.652,128.943,242.652Z" fill="#ffd9c4"/>
          <path id="Trazado_189499" data-name="Trazado 189499" d="M114.439,250.87c.169,1.342-1.806,4.366-2.876,4.827-2.041.879-3.2.269-2.788-2.2.529-3.163,1.687-3.972,1.687-3.972a2.262,2.262,0,0,1,2.291-.063C114.181,250.087,114.439,250.87,114.439,250.87Z" fill="#ffd9c4"/>
        </g>
        <path id="Trazado_189500" data-name="Trazado 189500" d="M147.194,262.5c-1.709,3.494-8.988,11.82-9.842,13.273,0,0,10.065-7.761,11.112-9.681s4.895-9.207,6.113-12.107c.82-1.959,1.369-4.348-.015-2.391C152.786,254.1,148.9,259.007,147.194,262.5Z" fill="#efe1da" style="mix-blend-mode: multiply;isolation: isolate"/>
        <path id="Trazado_189501" data-name="Trazado 189501" d="M137.228,259.169c-.3,1.887-.114,9.577.03,13.8.315-2.857.958-7.183,1.359-10.15a77.349,77.349,0,0,1,2.775-12.311C139.514,253.859,137.451,257.761,137.228,259.169Z" fill="#efe1da" style="mix-blend-mode: multiply;isolation: isolate"/>
        <path id="Trazado_189502" data-name="Trazado 189502" d="M149.748,298.755c.967,5.829-.3,7.764-.3,7.764,2.792-3.589,3.34-8.758,4.41-11.971a15.785,15.785,0,0,1,3.809-5.734,16.908,16.908,0,0,1-.375-6.6c.264-1.959.94-5.2,1.54-7.877a4.839,4.839,0,0,0-1.086.822c-1.728,1.752-4.1,7.914-2.968,10.974,0,0-2.4,3.854-2.891,6.577A27.887,27.887,0,0,1,149.748,298.755Z" fill="#efe1da" style="mix-blend-mode: multiply;isolation: isolate"/>
        <path id="Trazado_189503" data-name="Trazado 189503" d="M98.584,330.8l32.427,10.462-7.92,24.549-32.682-3.3Z" fill="#004997"/>
        <line id="Línea_174" data-name="Línea 174" x1="8.199" y2="25.414" transform="translate(118.784 339.965)" fill="none" stroke="#cecad7" stroke-miterlimit="10" stroke-width="1" style="mix-blend-mode: multiply;isolation: isolate"/>
        <line id="Línea_175" data-name="Línea 175" x1="8.199" y2="25.414" transform="translate(114.136 338.466)" fill="none" stroke="#cecad7" stroke-miterlimit="10" stroke-width="1" style="mix-blend-mode: multiply;isolation: isolate"/>
        <line id="Línea_176" data-name="Línea 176" x1="8.199" y2="25.414" transform="translate(109.488 336.966)" fill="none" stroke="#cecad7" stroke-miterlimit="10" stroke-width="1" style="mix-blend-mode: multiply;isolation: isolate"/>
        <line id="Línea_177" data-name="Línea 177" x1="8.199" y2="25.414" transform="translate(104.84 335.466)" fill="none" stroke="#cecad7" stroke-miterlimit="10" stroke-width="1" style="mix-blend-mode: multiply;isolation: isolate"/>
        <line id="Línea_178" data-name="Línea 178" x1="8.199" y2="25.414" transform="translate(100.192 333.967)" fill="none" stroke="#cecad7" stroke-miterlimit="10" stroke-width="1" style="mix-blend-mode: multiply;isolation: isolate"/>
        <line id="Línea_179" data-name="Línea 179" x1="8.199" y2="25.414" transform="translate(95.544 332.467)" fill="none" stroke="#cecad7" stroke-miterlimit="10" stroke-width="1" style="mix-blend-mode: multiply;isolation: isolate"/>
        <path id="Trazado_189504" data-name="Trazado 189504" d="M125.061,357.9l-28.976-9.349a4.738,4.738,0,0,0-6.006,3.18c-4.951,16.966-25.1,97.268-25.885,98.168-.919,1.057,43.546,12.732,43.546,12.732l20.491-99.181A4.742,4.742,0,0,0,125.061,357.9Z" fill="#004997"/>
        <path id="Trazado_189505" data-name="Trazado 189505" d="M125.009,277.8c-.087-.55-1.432-9.426-1.89-12.062-.474-2.719,1.092-8.74,1.662-9.925.412-.85,3.124-8.46,4.612-12.65a4,4,0,0,1,.258,1.135c.237,2.873-1.245,6.484-2.085,9.3-.127.421-.256.927-.385,1.484l0,.008a78.406,78.406,0,0,0-1.692,12.507C125.346,270.575,125.074,274.918,125.009,277.8Z" fill="#efe1da" style="mix-blend-mode: multiply;isolation: isolate"/>
      </g>
      <g id="Grupo_128975" data-name="Grupo 128975">
        <path id="Trazado_189506" data-name="Trazado 189506" d="M361.16,27.464c-37.964,17.9-20.128,73.528,16.02,73.939S432.634,71.416,423.6,48,389.914,13.908,361.16,27.464Z" fill="#bbd5d0"/>
        <path id="Trazado_189507" data-name="Trazado 189507" d="M403.9,43.785s9.936-3.215,12.859-2.338,4.676,8.475,2.338,10.52-13.151,4.384-13.151,4.384Z" fill="#fff"/>
        <path id="Trazado_189508" data-name="Trazado 189508" d="M365.093,38.44c-27.01,12.733-14.32,52.312,11.4,52.6s39.453-21.334,33.023-37.992S385.55,28.8,365.093,38.44Z" fill="#fff"/>
        <path id="Trazado_189509" data-name="Trazado 189509" d="M367.609,42.375c-22.614,10.661-11.99,43.8,9.543,44.044s33.033-17.862,27.65-31.81S384.738,34.3,367.609,42.375Z" fill="#c79568"/>
        <path id="Trazado_189510" data-name="Trazado 189510" d="M358.056,50.692c-8.534,13.942,1.731,35.53,19.1,35.727,12.631.143,21.8-6.03,26.146-13.972-.61.361-1.233.7-1.874,1.007a31.133,31.133,0,0,1-9.369,2.579C383.222,77.21,373.689,75.9,366.6,70.5,360.6,65.921,356.932,58,358.056,50.692Z" fill="#af8057"/>
        <path id="Trazado_189511" data-name="Trazado 189511" d="M386.7,46.589a56.651,56.651,0,0,1,18.435,8.979c-.1-.321-.209-.642-.331-.959-5.383-13.947-20.064-20.309-37.193-12.234a22.91,22.91,0,0,0-7.252,5.26A43.121,43.121,0,0,1,386.7,46.589Z" fill="#e1b37f"/>
      </g>
      <g id="Grupo_128976" data-name="Grupo 128976">
        <path id="Trazado_189512" data-name="Trazado 189512" d="M374.5,129.031s-9.768,80.8-9.768,83.258,67.348,8.6,68.633,8.1,9-83.258,8.483-85.468S376.552,127.558,374.5,129.031Z" fill="#fff"/>
        <path id="Trazado_189513" data-name="Trazado 189513" d="M382.411,123.383c-2.689-.359-3.684,11.788-.491,11.543S386.1,123.874,382.411,123.383Z" fill="#5b514e"/>
        <path id="Trazado_189514" data-name="Trazado 189514" d="M391.007,123.874c-2.689-.359-3.684,11.789-.491,11.543S394.691,124.365,391.007,123.874Z" fill="#5b514e"/>
        <path id="Trazado_189515" data-name="Trazado 189515" d="M399.6,124.365c-2.689-.358-3.684,11.789-.492,11.543S403.287,124.856,399.6,124.365Z" fill="#5b514e"/>
        <path id="Trazado_189516" data-name="Trazado 189516" d="M408.2,124.856c-2.689-.358-3.684,11.789-.492,11.543S411.882,125.347,408.2,124.856Z" fill="#5b514e"/>
        <path id="Trazado_189517" data-name="Trazado 189517" d="M416.794,125.347c-2.689-.358-3.684,11.789-.491,11.544S420.478,125.839,416.794,125.347Z" fill="#5b514e"/>
        <path id="Trazado_189518" data-name="Trazado 189518" d="M425.39,125.839c-2.689-.359-3.684,11.788-.491,11.543S429.074,126.33,425.39,125.839Z" fill="#5b514e"/>
        <path id="Trazado_189519" data-name="Trazado 189519" d="M433.986,126.33c-2.689-.359-3.684,11.789-.491,11.543S437.67,126.821,433.986,126.33Z" fill="#5b514e"/>
        <path id="Trazado_189520" data-name="Trazado 189520" d="M419.581,143.972c-7.346-.534-14.863-1.114-22.224-.616a.74.74,0,0,0-.382.137c-.139.017-.28.025-.419.046-.913.139-.718,1.406,0,1.656,3.38,1.178,7.3.989,10.854,1.166,4.054.2,8.114.254,12.171.128A1.259,1.259,0,0,0,419.581,143.972Z" fill="#c9d8cf"/>
        <path id="Trazado_189521" data-name="Trazado 189521" d="M432.112,156.475c-7.791-1.83-16.59-1.459-24.572-1.914-8.561-.488-17.342-1.308-25.911-.782-.725.044-.984,1.227-.182,1.343,8.064,1.168,16.348,1.277,24.475,1.833q6.474.442,12.944.967c4.25.339,8.679,1.133,12.933.864C433.074,158.705,433.463,156.792,432.112,156.475Z" fill="#c9d8cf"/>
        <path id="Trazado_189522" data-name="Trazado 189522" d="M426.685,186.864c-7.79-1.829-16.59-1.458-24.571-1.914-8.561-.488-17.343-1.308-25.912-.782-.725.045-.984,1.227-.182,1.343,8.064,1.169,16.349,1.277,24.475,1.833q6.476.444,12.944.968c4.251.338,8.679,1.132,12.933.863C427.647,189.1,428.036,187.181,426.685,186.864Z" fill="#c9d8cf"/>
        <path id="Trazado_189523" data-name="Trazado 189523" d="M430.268,172.977c-3.438-1.394-7.6-1.45-11.284-1.93-4.165-.542-8.339-1-12.516-1.446-8.358-.885-16.724-1.577-25.117-2.02-.859-.046-.81,1.2,0,1.3,8.263,1.036,16.527,2.1,24.768,3.3,4.156.605,8.3,1.269,12.451,1.93,3.691.589,7.6,1.776,11.339,1.521A1.358,1.358,0,0,0,430.268,172.977Z" fill="#c9d8cf"/>
        <path id="Trazado_189524" data-name="Trazado 189524" d="M423.213,204.723c-3.438-1.394-7.6-1.45-11.283-1.93-4.165-.542-8.34-1-12.517-1.446-8.358-.885-16.724-1.577-25.117-2.02-.858-.046-.809,1.2,0,1.3,8.263,1.036,16.527,2.1,24.768,3.3,4.156.605,8.3,1.269,12.451,1.93,3.691.589,7.6,1.776,11.339,1.521A1.358,1.358,0,0,0,423.213,204.723Z" fill="#c9d8cf"/>
      </g>
      <g id="Grupo_128979" data-name="Grupo 128979">
        <path id="Trazado_189525" data-name="Trazado 189525" d="M223.748,45.388c9.523-1.606,18.018-5.936,21.89-11.158a91.282,91.282,0,0,1,14.281,8.65c-13.163,1.8-25.164,7.725-30.211,14.927l-6.766-3.165c-1.184-.554-2.435-1.481-1.406-2.269" fill="#002859"/>
        <path id="Trazado_189526" data-name="Trazado 189526" d="M289.426,29.389a21.8,21.8,0,0,1,7.455,1.011c3.191,1.021,5.73,4.353,4.842,7.569-1.379,4.99-9.1,5.286-13.427,4.211-3.411-.848-6.5-3.218-7.448-6.391" fill="#002859"/>
        <path id="Trazado_189527" data-name="Trazado 189527" d="M197.867,78.222a16.764,16.764,0,0,0-5.045,11.2,6.478,6.478,0,0,0,.634,3.5,6.086,6.086,0,0,0,3.884,2.583,5.827,5.827,0,0,0,5.085-.649,7.424,7.424,0,0,0,2.1-4.041c1.431-5.274,2.6-10.939.887-16.127a9.364,9.364,0,0,1-3.189-.266" fill="#002859"/>
        <path id="Trazado_189528" data-name="Trazado 189528" d="M190.833,55.7c-10.58,12.24,4.969,33.9,19,33.024s22.5-6.722,26.887-16.366.292-26.887-5.845-29.809S205.738,38.458,190.833,55.7Z" fill="#004997"/>
        <path id="Trazado_189529" data-name="Trazado 189529" d="M196.061,57.849c-8.079,9.346,3.794,25.885,14.5,25.216s17.183-5.133,20.53-12.5.223-20.529-4.463-22.761S207.442,44.683,196.061,57.849Z" fill="#a2ddf8"/>
        <path id="Trazado_189530" data-name="Trazado 189530" d="M272.349,12.023c16-2.379,25.967,22.353,17.713,33.729s-17.729,15.4-28.221,13.939-22.862-14.154-22.042-20.9S249.8,15.374,272.349,12.023Z" fill="#004997"/>
        <path id="Trazado_189531" data-name="Trazado 189531" d="M271.364,17.589c12.219-1.817,19.827,17.068,13.524,25.755S271.351,55.1,263.339,53.987s-17.456-10.808-16.83-15.96S254.15,20.147,271.364,17.589Z" fill="#a2ddf8"/>
        <g id="Grupo_128977" data-name="Grupo 128977">
          <path id="Trazado_189532" data-name="Trazado 189532" d="M256.251,51.144a72.682,72.682,0,0,1-.951-9.532c-.252-6.23,1.1-12.172,1.5-18.305a29.457,29.457,0,0,0-3.889,3.328,64.926,64.926,0,0,0-2.185,14.977c-.08,1.38-.179,2.983-.227,4.68A28.544,28.544,0,0,0,256.251,51.144Z" fill="#dcf1fc"/>
          <path id="Trazado_189533" data-name="Trazado 189533" d="M271.522,52.033A112.069,112.069,0,0,1,270.315,39.4c-.394-7.312.514-14.506.811-21.772a36.822,36.822,0,0,0-4.51.985c-1.916,6.2-2.54,12.856-2.862,19.271a93.749,93.749,0,0,0,.294,12.108c.1,1.318.2,2.7.332,4.1a19.851,19.851,0,0,0,7.413-.639C271.7,52.984,271.6,52.509,271.522,52.033Z" fill="#dcf1fc"/>
        </g>
        <g id="Grupo_128978" data-name="Grupo 128978">
          <path id="Trazado_189534" data-name="Trazado 189534" d="M198.584,55.209a69.754,69.754,0,0,0-1.849,13.808c-.094,1.607-.21,3.519-.244,5.529a21.342,21.342,0,0,0,6.179,6.191c-.032-.144-.064-.285-.1-.432A67.738,67.738,0,0,1,201.3,69.017c-.236-5.853.947-11.451,1.428-17.192A33.993,33.993,0,0,0,198.584,55.209Z" fill="#dcf1fc"/>
          <path id="Trazado_189535" data-name="Trazado 189535" d="M217.527,79.437a112.036,112.036,0,0,1-1.207-12.631c-.366-6.789.391-13.476.74-20.213a28.548,28.548,0,0,0-4.856.853,83.364,83.364,0,0,0-2.446,17.843,93.941,93.941,0,0,0,.295,12.109c.143,1.806.27,3.74.5,5.667h.018a33.372,33.372,0,0,0,7.417-1.252C217.819,81.022,217.66,80.23,217.527,79.437Z" fill="#dcf1fc"/>
        </g>
      </g>
      <g id="Grupo_128980" data-name="Grupo 128980">
        <path id="Trazado_189536" data-name="Trazado 189536" d="M430.046,293.29s6.023,6.509,8.078,8.165,6.889-2.749,5.906-4.9-7.88-8.614-7.88-8.614Z" fill="#ef4e54"/>
        <path id="Trazado_189537" data-name="Trazado 189537" d="M376.961,226.09s8.917,2.858,10.263,3.451,49.925,56.381,49.8,58.362-5.8,7.085-7.364,6.5-49.455-55.746-49.946-56.819S376.961,226.09,376.961,226.09Z" fill="#f48120"/>
        <path id="Trazado_189538" data-name="Trazado 189538" d="M426.244,290.93a33.9,33.9,0,0,0,3.418,3.476c1.564.582,7.241-4.522,7.364-6.5.019-.316-1.209-2.01-3.278-4.621A34.294,34.294,0,0,1,426.244,290.93Z" fill="#ffd000"/>
        <path id="Trazado_189539" data-name="Trazado 189539" d="M379.716,237.587a7.458,7.458,0,0,0,.5.658,11.025,11.025,0,0,0,7.6-8.162,4.339,4.339,0,0,0-.592-.542c-1.346-.593-10.263-3.451-10.263-3.451S379.224,236.514,379.716,237.587Z" fill="#ffd491"/>
        <path id="Trazado_189540" data-name="Trazado 189540" d="M431.759,291.05c-.143-.117-.291-.33-.459-.4a3.72,3.72,0,0,1-.527-.286,4.8,4.8,0,0,1-.857-.747.512.512,0,0,0-.851.495,2.532,2.532,0,0,0,.786,1.251,1.876,1.876,0,0,0,1.548.56C431.78,291.87,432.149,291.368,431.759,291.05Z" fill="#fff23a"/>
        <path id="Trazado_189541" data-name="Trazado 189541" d="M433.7,289.511a2.544,2.544,0,0,0-.942-.892,4.858,4.858,0,0,0-1.209-.457c-.455-.109-.789.576-.331.785a10.278,10.278,0,0,1,1.807,1.239C433.425,290.483,433.963,289.908,433.7,289.511Z" fill="#fff23a"/>
        <path id="Trazado_189542" data-name="Trazado 189542" d="M435.984,287.682a9.922,9.922,0,0,0-1.716-2.426c-.357-.456-1.114.139-.8.617l.746,1.128a4.694,4.694,0,0,0,.919,1.176C435.487,288.46,436.179,288.214,435.984,287.682Z" fill="#fff23a"/>
        <path id="Trazado_189543" data-name="Trazado 189543" d="M415.55,272.756c-9.731-10.863-19.989-21.086-29.165-32.463-.18-.225-.575.08-.4.308,8.816,11.425,18.1,23.19,28.867,32.852A.493.493,0,0,0,415.55,272.756Z" fill="#f9a733"/>
        <path id="Trazado_189544" data-name="Trazado 189544" d="M417.831,268.034c-9.586-10.124-19.251-19.986-28.011-30.864-.194-.241-.524.1-.337.337,8.509,10.879,17.557,21.772,27.809,31.067A.382.382,0,0,0,417.831,268.034Z" fill="#f9a733"/>
        <path id="Trazado_189545" data-name="Trazado 189545" d="M376.961,226.09s.2.9.485,2.2a10.067,10.067,0,0,0,2.2-1.333C378.11,226.459,376.961,226.09,376.961,226.09Z" fill="#3f4e55"/>
      </g>
      <g id="Grupo_128981" data-name="Grupo 128981">
        <circle id="Elipse_4822" data-name="Elipse 4822" cx="35.508" cy="35.508" r="35.508" transform="translate(46.132 71.078) rotate(-45)" fill="#faa933"/>
        <circle id="Elipse_4823" data-name="Elipse 4823" cx="32.795" cy="32.795" r="32.795" transform="translate(49.969 71.078) rotate(-45)" fill="#f58a33"/>
        <circle id="Elipse_4824" data-name="Elipse 4824" cx="30.247" cy="30.247" r="30.247" transform="translate(53.571 71.078) rotate(-45)" fill="#b58455"/>
        <circle id="Elipse_4825" data-name="Elipse 4825" cx="27.805" cy="27.805" r="27.805" transform="translate(57.025 71.078) rotate(-45)" fill="#9b7247"/>
        <circle id="Elipse_4826" data-name="Elipse 4826" cx="25.363" cy="25.363" r="25.363" transform="translate(60.478 71.078) rotate(-45)" fill="#a8ce3b"/>
        <path id="Trazado_189546" data-name="Trazado 189546" d="M96.61,67.165c-.919-2.608-2.219-5.064-3.358-7.58-1.269-2.8-2.321-5.723-3.744-8.447-.249-.474-.968-.141-.843.356a58.628,58.628,0,0,0,6.811,16.149C95.84,68.215,96.852,67.853,96.61,67.165Z" fill="#c7d92f"/>
        <path id="Trazado_189547" data-name="Trazado 189547" d="M95.35,69.229c-6.094-1.25-11.6-2.372-17.134-5.411a.557.557,0,0,0-.562.961C82.765,68.065,89,70.7,95.168,70.572,95.918,70.556,96.127,69.389,95.35,69.229Z" fill="#c7d92f"/>
        <path id="Trazado_189548" data-name="Trazado 189548" d="M92.194,73.259c-4.854,1.184-9.563,3.308-14.249,5.036-.738.272-.444,1.435.33,1.195,4.836-1.5,9.906-2.709,14.544-4.748C93.689,74.359,93.053,73.05,92.194,73.259Z" fill="#c7d92f"/>
        <path id="Trazado_189549" data-name="Trazado 189549" d="M96.529,76.16c-1.446,4.736-3.5,9.191-5.292,13.793-.277.708.821,1.114,1.191.5a49.233,49.233,0,0,0,5.236-13.982A.589.589,0,0,0,96.529,76.16Z" fill="#c7d92f"/>
        <path id="Trazado_189550" data-name="Trazado 189550" d="M107.067,85.037c-.53.14-3.052-3.476-3.451-3.953-1.1-1.316-2.148-2.723-3.363-3.937a.638.638,0,0,0-1,.771c1.411,2.393,3.253,4.6,4.893,6.844.908,1.242,2.128,2.858,3.692,1.6C108.49,85.844,107.784,84.846,107.067,85.037Z" fill="#c7d92f"/>
        <path id="Trazado_189551" data-name="Trazado 189551" d="M115.453,74.276c-4.4-.712-9.058-.3-13.517-.694-.641-.056-.788,1.018-.153,1.125,4.381.731,9.242,1.772,13.67,1.163C116.253,75.76,116.237,74.4,115.453,74.276Z" fill="#c7d92f"/>
        <path id="Trazado_189552" data-name="Trazado 189552" d="M114.23,63.581a25.117,25.117,0,0,0-4.735,2.187,65.35,65.35,0,0,1-6.637,2.885.6.6,0,0,0,.321,1.165c3.881-1.01,8.808-2.068,11.948-4.695C115.862,64.507,115.072,63.354,114.23,63.581Z" fill="#c7d92f"/>
        <path id="Trazado_189553" data-name="Trazado 189553" d="M101.84,50.583c-.109-.809-1.452-.774-1.595,0a50.5,50.5,0,0,0-.571,7.25c-.108,2.719-.519,5.436-.488,8.155a.543.543,0,0,0,1.062.144A38.137,38.137,0,0,0,101.84,50.583Z" fill="#c7d92f"/>
        <path id="Trazado_189554" data-name="Trazado 189554" d="M90.275,55.5a4.343,4.343,0,0,1-1.685-1.728c-.295-.558-1.125-.164-.988.417a3.492,3.492,0,0,0,.71,1.481,3.752,3.752,0,0,0,1.5.935C90.455,56.854,90.871,55.821,90.275,55.5Z" fill="#76b13d"/>
        <path id="Trazado_189555" data-name="Trazado 189555" d="M84.534,58c-.46-.265-.919-.515-1.4-.745a.381.381,0,0,0-.385.658c.429.314.866.6,1.317.883C84.574,59.111,85.05,58.3,84.534,58Z" fill="#76b13d"/>
        <path id="Trazado_189556" data-name="Trazado 189556" d="M90.415,61.427c-.257.561-.469,1.125-.67,1.708-.221.638.81.925,1.011.279.172-.551.327-1.091.444-1.656C91.293,61.307,90.629,60.962,90.415,61.427Z" fill="#76b13d"/>
        <path id="Trazado_189557" data-name="Trazado 189557" d="M84.7,63.815A17.523,17.523,0,0,0,81.866,65a.527.527,0,0,0,.4.959,16.787,16.787,0,0,0,2.747-.977C85.724,64.694,85.434,63.541,84.7,63.815Z" fill="#76b13d"/>
        <path id="Trazado_189558" data-name="Trazado 189558" d="M91.085,69.1a5.262,5.262,0,0,0-.2,1.774.448.448,0,0,0,.829.225,5.091,5.091,0,0,0,.5-1.686C92.355,68.674,91.244,68.352,91.085,69.1Z" fill="#76b13d"/>
        <path id="Trazado_189559" data-name="Trazado 189559" d="M82.4,71.152a34.857,34.857,0,0,0-3.527.1.445.445,0,0,0,0,.89,34.86,34.86,0,0,0,3.527.1A.541.541,0,0,0,82.4,71.152Z" fill="#76b13d"/>
        <path id="Trazado_189560" data-name="Trazado 189560" d="M76.826,65.872a3.769,3.769,0,0,0-2.19-1.06.4.4,0,0,0-.212.766,5.441,5.441,0,0,1,1.638,1.059C76.576,67.1,77.327,66.363,76.826,65.872Z" fill="#76b13d"/>
        <path id="Trazado_189561" data-name="Trazado 189561" d="M87.152,73.739a.686.686,0,0,0-.841.478,13.236,13.236,0,0,0-.186,1.809.575.575,0,0,0,1.125.152,12.012,12.012,0,0,0,.38-1.6A.7.7,0,0,0,87.152,73.739Z" fill="#76b13d"/>
        <path id="Trazado_189562" data-name="Trazado 189562" d="M80.289,81.247l-.78.847a.255.255,0,0,0,.36.36l.848-.78C81,81.41,80.554,80.96,80.289,81.247Z" fill="#76b13d"/>
        <path id="Trazado_189563" data-name="Trazado 189563" d="M89.672,81.593c-.13-.705-1.2-.406-1.073.3a6.311,6.311,0,0,0,.437,1.708c.223.449.82.181.86-.233A6.543,6.543,0,0,0,89.672,81.593Z" fill="#76b13d"/>
        <path id="Trazado_189564" data-name="Trazado 189564" d="M86.662,85.947a.541.541,0,0,0-1.043.287,5.527,5.527,0,0,0,.64,2,.5.5,0,0,0,.918-.249A5.537,5.537,0,0,0,86.662,85.947Z" fill="#76b13d"/>
        <path id="Trazado_189565" data-name="Trazado 189565" d="M95.968,86.847c-.5-.711-1.677-.049-1.181.69.316.47.647,1.234,1.189,1.464a.6.6,0,0,0,.885-.508C96.842,87.864,96.316,87.34,95.968,86.847Z" fill="#76b13d"/>
        <path id="Trazado_189566" data-name="Trazado 189566" d="M98.411,76.236a9.639,9.639,0,0,1-2.818-.262.623.623,0,0,0-.478,1.133,6.239,6.239,0,0,0,3.3.909C99.561,78,99.557,76.192,98.411,76.236Z" fill="#76b13d"/>
        <path id="Trazado_189567" data-name="Trazado 189567" d="M108.388,82.808a11.923,11.923,0,0,0-1.135-1.476l-1.508-1.508a.78.78,0,0,0-1.1,1.1q.68.678,1.357,1.357a13.306,13.306,0,0,0,1.627,1.286C108.071,83.892,108.711,83.252,108.388,82.808Z" fill="#76b13d"/>
        <path id="Trazado_189568" data-name="Trazado 189568" d="M104.793,86.616c.1-.862-1.328-.891-1.368,0a4.591,4.591,0,0,0,.557,2.4c.257.494.928.13.843-.355A7.318,7.318,0,0,1,104.793,86.616Z" fill="#76b13d"/>
        <path id="Trazado_189569" data-name="Trazado 189569" d="M114.689,81.514a3.823,3.823,0,0,1-1.606-.278.586.586,0,1,0-.454,1.075,3.117,3.117,0,0,0,2.187.14A.479.479,0,0,0,114.689,81.514Z" fill="#76b13d"/>
        <path id="Trazado_189570" data-name="Trazado 189570" d="M116.435,74.659a24.583,24.583,0,0,0-2.424,1.773c-.545.444.225,1.186.764.764a23.363,23.363,0,0,0,2.161-1.888A.415.415,0,0,0,116.435,74.659Z" fill="#76b13d"/>
        <path id="Trazado_189571" data-name="Trazado 189571" d="M110.589,73.831c-.587.594-1.145,1.2-1.7,1.832-.446.509.31,1.258.742.742.563-.672,1.1-1.35,1.628-2.054C111.559,73.952,110.923,73.492,110.589,73.831Z" fill="#76b13d"/>
        <path id="Trazado_189572" data-name="Trazado 189572" d="M106.59,71.566a19.111,19.111,0,0,0-1.924,1.044.509.509,0,0,0,.514.878,19.548,19.548,0,0,0,1.875-1.126A.461.461,0,0,0,106.59,71.566Z" fill="#76b13d"/>
        <path id="Trazado_189573" data-name="Trazado 189573" d="M116.213,69.669a5.6,5.6,0,0,1-2.063.194c-.516-.065-.63.811-.122.9a3.641,3.641,0,0,0,2.515-.314A.431.431,0,0,0,116.213,69.669Z" fill="#76b13d"/>
        <path id="Trazado_189574" data-name="Trazado 189574" d="M101.917,62.323a.544.544,0,0,0-1.043,0,5.441,5.441,0,0,0,.169,2.683.368.368,0,0,0,.705,0A5.441,5.441,0,0,0,101.917,62.323Z" fill="#76b13d"/>
        <path id="Trazado_189575" data-name="Trazado 189575" d="M97.871,61.336a8.14,8.14,0,0,0-1.915-2.315c-.477-.368-.994.316-.762.761a19.928,19.928,0,0,0,1.524,2.228C97.206,62.7,98.33,62.08,97.871,61.336Z" fill="#76b13d"/>
        <path id="Trazado_189576" data-name="Trazado 189576" d="M98.015,55.151a1.578,1.578,0,0,1-.749-.959c-.15-.425-.9-.542-.981,0a1.75,1.75,0,0,0,1.442,2A.541.541,0,0,0,98.015,55.151Z" fill="#76b13d"/>
        <path id="Trazado_189577" data-name="Trazado 189577" d="M94.817,48.8c-.153.532-.264,1.059-.364,1.6-.116.627.857.882.95.262a17.65,17.65,0,0,0,.195-1.759A.4.4,0,0,0,94.817,48.8Z" fill="#76b13d"/>
        <path id="Trazado_189578" data-name="Trazado 189578" d="M103.748,50.861a8.717,8.717,0,0,0-.649.887c-.181.315-.329.655-.492.979a.461.461,0,0,0,.8.466l.567-.935a6.738,6.738,0,0,0,.446-1.115C104.575,50.721,103.976,50.561,103.748,50.861Z" fill="#76b13d"/>
        <path id="Trazado_189579" data-name="Trazado 189579" d="M106.974,57.427a9.99,9.99,0,0,0-2.179.781c-.539.217-.327,1.087.245.889a10.326,10.326,0,0,0,2.265-.885A.432.432,0,0,0,106.974,57.427Z" fill="#76b13d"/>
        <path id="Trazado_189580" data-name="Trazado 189580" d="M108.555,67.486a17.293,17.293,0,0,0-2-.34c-.479-.06-.59.77-.114.843a17.472,17.472,0,0,0,2.015.215A.367.367,0,0,0,108.555,67.486Z" fill="#76b13d"/>
        <path id="Trazado_189581" data-name="Trazado 189581" d="M112.94,61.48a13.482,13.482,0,0,0-1.77.805c-.6.313-.074,1.2.53.906a12.687,12.687,0,0,0,1.6-.868C113.708,62.045,113.459,61.3,112.94,61.48Z" fill="#76b13d"/>
        <path id="Trazado_189582" data-name="Trazado 189582" d="M111.062,56.944l-1.115.435c-.685.268-.212,1.268.38.9l1.029-.639C111.71,57.422,111.479,56.781,111.062,56.944Z" fill="#76b13d"/>
        <path id="Trazado_189583" data-name="Trazado 189583" d="M116.048,67.528l-1.628-.143c-.656-.058-.656,1.075,0,1.017l1.628-.143A.366.366,0,0,0,116.048,67.528Z" fill="#76b13d"/>
      </g>
    </g>
  </g>
</svg>
