<svg xmlns="http://www.w3.org/2000/svg" xmlns:xlink="http://www.w3.org/1999/xlink" width="422" height="453" viewBox="0 0 422 453">
  <defs>
    <clipPath id="clip-path">
      <rect id="BG" width="372" height="403" transform="translate(-5768.197 498.876)" fill="none"/>
    </clipPath>
    <filter id="Path_192013" x="198.838" y="103.389" width="53.186" height="56.081" filterUnits="userSpaceOnUse">
      <feOffset dy="3" input="SourceAlpha"/>
      <feGaussianBlur stdDeviation="3" result="blur"/>
      <feFlood flood-opacity="0.161"/>
      <feComposite operator="in" in2="blur"/>
      <feComposite in="SourceGraphic"/>
    </filter>
    <filter id="Path_192014" x="94.631" y="160.178" width="113.073" height="195.433" filterUnits="userSpaceOnUse">
      <feOffset dy="3" input="SourceAlpha"/>
      <feGaussianBlur stdDeviation="3" result="blur-2"/>
      <feFlood flood-opacity="0.161"/>
      <feComposite operator="in" in2="blur-2"/>
      <feComposite in="SourceGraphic"/>
    </filter>
    <filter id="Path_192015" x="243.058" y="140.176" width="84.31" height="154.992" filterUnits="userSpaceOnUse">
      <feOffset dy="3" input="SourceAlpha"/>
      <feGaussianBlur stdDeviation="3" result="blur-3"/>
      <feFlood flood-opacity="0.161"/>
      <feComposite operator="in" in2="blur-3"/>
      <feComposite in="SourceGraphic"/>
    </filter>
    <filter id="Path_192016" x="202.567" y="161.651" width="45.926" height="131.484" filterUnits="userSpaceOnUse">
      <feOffset dy="3" input="SourceAlpha"/>
      <feGaussianBlur stdDeviation="3" result="blur-4"/>
      <feFlood flood-opacity="0.161"/>
      <feComposite operator="in" in2="blur-4"/>
      <feComposite in="SourceGraphic"/>
    </filter>
  </defs>
  <g id="_2" data-name="2" transform="translate(-999 -2438)">
    <rect id="BG-2" data-name="BG" width="420" height="451" transform="translate(1000 2439)" fill="none" stroke="#ffb30b" stroke-width="2" stroke-dasharray="10 10"/>
    <g id="Group_130116" data-name="Group 130116" transform="translate(6792.197 1964.124)">
      <g id="Group_130115" data-name="Group 130115" clip-path="url(#clip-path)">
        <g id="Group_130105" data-name="Group 130105" opacity="0.35">
          <path id="Path_191995" data-name="Path 191995" d="M-5749.406,872.3v-1.219q0-14.383.017-28.766a1.4,1.4,0,0,0-.965-1.539,11.118,11.118,0,0,1-6.28-12.6,11.328,11.328,0,0,1,10.831-8.785,11.317,11.317,0,0,1,11.071,8.623,11.071,11.071,0,0,1-5.9,12.59,1.96,1.96,0,0,0-1.315,2.1c.043,12.479.027,24.959.027,37.438v1.511c1.862-.828,3.6-1.559,5.285-2.4.248-.123.346-.745.348-1.138.022-5.086.037-10.174-.008-15.26a1.407,1.407,0,0,1,1.011-1.536c2.524-1.067,5.007-2.23,7.529-3.3.647-.275.771-.656.85-1.31a2.9,2.9,0,0,0-1.872-3.35,10.9,10.9,0,0,1-5.072-13.089,11.275,11.275,0,0,1,11.821-7.707A11.247,11.247,0,0,1-5712.01,842.6a11.045,11.045,0,0,1-6.49,11.3,1.345,1.345,0,0,0-.95,1.46c.057,2.012-.018,4.027.037,6.038a1.39,1.39,0,0,1-.986,1.558c-2.463,1.024-4.876,2.165-7.332,3.205a1.463,1.463,0,0,0-1.075,1.6c.056,5.013.005,10.027.047,15.041a1.552,1.552,0,0,1-1.077,1.714c-3.728,1.594-7.417,3.283-11.137,4.9a1.331,1.331,0,0,0-.972,1.444c.053,3.363.022,6.727.022,10.219.388-.144.69-.237.977-.365q12.223-5.427,24.45-10.85a1.236,1.236,0,0,0,.855-1.2,3.02,3.02,0,0,0-1.89-3.451,10.873,10.873,0,0,1-5.109-12.984A11.271,11.271,0,0,1-5711,864.4a11.236,11.236,0,0,1,10.182,9.626,11.048,11.048,0,0,1-6.43,11.731,1.335,1.335,0,0,0-.925,1.467c.049,2.085-.007,4.172.031,6.258a1.135,1.135,0,0,1-.8,1.231q-16.187,7.165-32.357,14.367a2.491,2.491,0,0,1-.937.266c-2.337.022-4.674.012-7.168.012v-1.343c0-8.527-.012-17.054.019-25.581a1.734,1.734,0,0,0-.893-1.671c-6.927-4.575-13.824-9.2-20.748-13.779a1.732,1.732,0,0,1-.888-1.691c.054-2.048-.008-4.1.032-6.147a1.332,1.332,0,0,0-.909-1.482,11.087,11.087,0,0,1-6.335-12.57,11.223,11.223,0,0,1,11.213-8.828,11.28,11.28,0,0,1,10.754,8.867,11.072,11.072,0,0,1-6.106,12.4c-.944.44-1.042.983-1.165,1.884-.3,2.2.537,3.481,2.442,4.631,3.941,2.38,7.7,5.058,11.539,7.611C-5750.159,871.849-5749.854,872.023-5749.406,872.3Zm7.479-41.61a3.766,3.766,0,0,0-3.713-3.8,3.763,3.763,0,0,0-3.762,3.755,3.706,3.706,0,0,0,3.657,3.726A3.713,3.713,0,0,0-5741.927,830.687Zm-26.266,20.54a3.752,3.752,0,0,0,3.792-3.717,3.806,3.806,0,0,0-3.772-3.764,3.735,3.735,0,0,0-3.709,3.689A3.686,3.686,0,0,0-5768.193,851.227Zm56.236,28.11a3.75,3.75,0,0,0,3.785-3.724,3.8,3.8,0,0,0-3.778-3.757,3.738,3.738,0,0,0-3.7,3.7A3.683,3.683,0,0,0-5711.957,879.337Zm-7.49-35.531a3.725,3.725,0,0,0-3.7-3.8,3.788,3.788,0,0,0-3.781,3.749,3.746,3.746,0,0,0,3.672,3.728A3.688,3.688,0,0,0-5719.447,843.806Z" fill="#a9ddfc"/>
          <path id="Path_191996" data-name="Path 191996" d="M-5764.39,909.295v-4.337c0-3.365-.024-6.731.018-10.1a1.635,1.635,0,0,0-.868-1.583q-3.368-2.163-6.664-4.437a1.2,1.2,0,0,0-1.542-.025c-4.123,2.488-8.321,2.489-12.278-.216a10.554,10.554,0,0,1-4.665-11.468,10.682,10.682,0,0,1,8.54-8.728,11.175,11.175,0,0,1,13.483,12.857,1.143,1.143,0,0,0,.635,1.385c3.389,2.232,6.77,4.477,10.121,6.766a1.717,1.717,0,0,1,.686,1.19c.043,6,.03,12,.027,18,0,.211-.035.422-.058.694Zm-11.286-29.936a3.742,3.742,0,0,0-3.755-3.757,3.809,3.809,0,0,0-3.728,3.808,3.741,3.741,0,0,0,3.725,3.673A3.685,3.685,0,0,0-5775.676,879.359Z" fill="#a9ddfc"/>
        </g>
        <g id="Group_130106" data-name="Group 130106" opacity="0.35">
          <path id="Path_191997" data-name="Path 191997" d="M-5580.259,584.282v-1.219q0-14.382.018-28.765a1.4,1.4,0,0,0-.966-1.54,11.117,11.117,0,0,1-6.28-12.6,11.331,11.331,0,0,1,10.832-8.786,11.316,11.316,0,0,1,11.07,8.624,11.068,11.068,0,0,1-5.9,12.589,1.961,1.961,0,0,0-1.316,2.1c.044,12.48.028,24.959.028,37.439v1.51c1.861-.827,3.6-1.558,5.285-2.394.248-.123.345-.746.347-1.138.023-5.087.037-10.174-.007-15.261a1.406,1.406,0,0,1,1.011-1.535c2.523-1.068,5.007-2.23,7.528-3.3.647-.275.772-.656.85-1.311a2.9,2.9,0,0,0-1.872-3.35,10.9,10.9,0,0,1-5.072-13.088,11.275,11.275,0,0,1,11.822-7.707,11.245,11.245,0,0,1,10.02,10.044,11.041,11.041,0,0,1-6.489,11.295,1.347,1.347,0,0,0-.951,1.461c.058,2.011-.017,4.026.038,6.038a1.39,1.39,0,0,1-.987,1.558c-2.462,1.024-4.875,2.165-7.332,3.2a1.464,1.464,0,0,0-1.075,1.6c.057,5.013.006,10.028.048,15.041a1.554,1.554,0,0,1-1.077,1.714c-3.729,1.595-7.417,3.284-11.138,4.9a1.333,1.333,0,0,0-.971,1.445c.052,3.363.022,6.727.022,10.218.388-.143.69-.237.977-.364q12.223-5.429,24.45-10.85a1.239,1.239,0,0,0,.855-1.2,3.02,3.02,0,0,0-1.89-3.451,10.872,10.872,0,0,1-5.109-12.984,11.268,11.268,0,0,1,11.637-7.827,11.238,11.238,0,0,1,10.182,9.626,11.05,11.05,0,0,1-6.43,11.73,1.335,1.335,0,0,0-.925,1.468c.049,2.085-.008,4.172.031,6.257a1.139,1.139,0,0,1-.8,1.232q-16.187,7.166-32.357,14.366a2.483,2.483,0,0,1-.938.267c-2.336.022-4.673.012-7.168.012V620c0-8.528-.011-17.055.019-25.582a1.731,1.731,0,0,0-.892-1.67c-6.928-4.576-13.824-9.2-20.749-13.779a1.734,1.734,0,0,1-.888-1.691c.055-2.048-.008-4.1.032-6.148a1.332,1.332,0,0,0-.908-1.482,11.089,11.089,0,0,1-6.336-12.57,11.223,11.223,0,0,1,11.213-8.827,11.279,11.279,0,0,1,10.755,8.867,11.072,11.072,0,0,1-6.106,12.395c-.944.441-1.043.983-1.165,1.885-.3,2.2.536,3.48,2.442,4.631,3.941,2.379,7.7,5.058,11.539,7.611C-5581.012,583.835-5580.706,584.008-5580.259,584.282Zm7.479-41.609a3.766,3.766,0,0,0-3.713-3.806,3.764,3.764,0,0,0-3.762,3.755,3.706,3.706,0,0,0,3.657,3.726A3.711,3.711,0,0,0-5572.78,542.673Zm-26.266,20.539a3.751,3.751,0,0,0,3.792-3.717,3.805,3.805,0,0,0-3.771-3.763,3.735,3.735,0,0,0-3.71,3.688A3.686,3.686,0,0,0-5599.046,563.212Zm56.236,28.11a3.748,3.748,0,0,0,3.785-3.724,3.8,3.8,0,0,0-3.778-3.756,3.738,3.738,0,0,0-3.7,3.7A3.684,3.684,0,0,0-5542.81,591.322Zm-7.489-35.53a3.725,3.725,0,0,0-3.7-3.8,3.785,3.785,0,0,0-3.78,3.749,3.746,3.746,0,0,0,3.671,3.728A3.689,3.689,0,0,0-5550.3,555.792Z" fill="#a9ddfc"/>
          <path id="Path_191998" data-name="Path 191998" d="M-5595.243,621.28v-4.336c0-3.365-.023-6.731.019-10.1a1.635,1.635,0,0,0-.869-1.584q-3.368-2.161-6.663-4.436a1.2,1.2,0,0,0-1.542-.025c-4.124,2.488-8.321,2.489-12.279-.216a10.555,10.555,0,0,1-4.665-11.468,10.682,10.682,0,0,1,8.541-8.728,11.176,11.176,0,0,1,13.483,12.857,1.141,1.141,0,0,0,.634,1.385q5.085,3.347,10.121,6.765a1.717,1.717,0,0,1,.686,1.191c.044,6,.031,12,.028,18,0,.211-.035.422-.059.694Zm-11.285-29.936a3.743,3.743,0,0,0-3.755-3.757,3.808,3.808,0,0,0-3.728,3.809,3.741,3.741,0,0,0,3.725,3.673A3.686,3.686,0,0,0-5606.528,591.344Z" fill="#a9ddfc"/>
        </g>
        <g id="Group_130107" data-name="Group 130107" opacity="0.35">
          <path id="Path_191999" data-name="Path 191999" d="M-5520.792,755.068V753.85q0-14.383.017-28.766a1.4,1.4,0,0,0-.965-1.539,11.119,11.119,0,0,1-6.28-12.6,11.329,11.329,0,0,1,10.831-8.785,11.315,11.315,0,0,1,11.071,8.623,11.07,11.07,0,0,1-5.9,12.59,1.959,1.959,0,0,0-1.315,2.1c.043,12.48.027,24.96.027,37.439v1.51c1.862-.827,3.6-1.558,5.285-2.394.248-.123.346-.746.348-1.138.022-5.087.037-10.174-.007-15.261a1.4,1.4,0,0,1,1.01-1.535c2.524-1.068,5.007-2.23,7.529-3.3.647-.275.771-.656.85-1.311a2.9,2.9,0,0,0-1.872-3.35,10.9,10.9,0,0,1-5.072-13.088,11.273,11.273,0,0,1,11.822-7.707,11.246,11.246,0,0,1,10.02,10.044,11.043,11.043,0,0,1-6.49,11.295,1.346,1.346,0,0,0-.95,1.461c.058,2.011-.018,4.026.037,6.038a1.389,1.389,0,0,1-.986,1.558c-2.462,1.024-4.876,2.165-7.332,3.2a1.464,1.464,0,0,0-1.075,1.6c.056,5.013,0,10.027.047,15.04a1.551,1.551,0,0,1-1.077,1.714c-3.728,1.595-7.417,3.284-11.137,4.9a1.335,1.335,0,0,0-.972,1.445c.053,3.363.022,6.727.022,10.219.388-.144.69-.237.977-.365q12.223-5.428,24.45-10.85a1.239,1.239,0,0,0,.856-1.2,3.023,3.023,0,0,0-1.89-3.451,10.872,10.872,0,0,1-5.11-12.984,11.27,11.27,0,0,1,11.637-7.827,11.236,11.236,0,0,1,10.182,9.626,11.047,11.047,0,0,1-6.429,11.73,1.337,1.337,0,0,0-.926,1.468c.049,2.085-.007,4.172.031,6.257a1.137,1.137,0,0,1-.8,1.232q-16.187,7.166-32.357,14.367a2.488,2.488,0,0,1-.937.266c-2.337.022-4.674.012-7.168.012v-1.343c0-8.527-.012-17.054.019-25.581a1.734,1.734,0,0,0-.893-1.671c-6.927-4.576-13.824-9.2-20.748-13.779a1.73,1.73,0,0,1-.888-1.691c.054-2.048-.008-4.1.032-6.148a1.333,1.333,0,0,0-.909-1.482,11.087,11.087,0,0,1-6.335-12.57,11.223,11.223,0,0,1,11.213-8.827,11.278,11.278,0,0,1,10.754,8.867,11.07,11.07,0,0,1-6.106,12.395c-.944.441-1.042.983-1.165,1.885-.3,2.2.537,3.481,2.442,4.631,3.942,2.38,7.7,5.058,11.539,7.611C-5521.545,754.621-5521.24,754.794-5520.792,755.068Zm7.479-41.609a3.767,3.767,0,0,0-3.713-3.806,3.764,3.764,0,0,0-3.762,3.756,3.707,3.707,0,0,0,3.657,3.726A3.713,3.713,0,0,0-5513.313,713.459ZM-5539.579,734a3.752,3.752,0,0,0,3.792-3.717,3.806,3.806,0,0,0-3.772-3.764,3.736,3.736,0,0,0-3.709,3.688A3.688,3.688,0,0,0-5539.579,734Zm56.236,28.109a3.749,3.749,0,0,0,3.785-3.723,3.8,3.8,0,0,0-3.778-3.757,3.738,3.738,0,0,0-3.7,3.7A3.682,3.682,0,0,0-5483.343,762.108Zm-7.49-35.53a3.724,3.724,0,0,0-3.7-3.8,3.788,3.788,0,0,0-3.781,3.749,3.747,3.747,0,0,0,3.672,3.728A3.688,3.688,0,0,0-5490.833,726.578Z" fill="#a9ddfc"/>
          <path id="Path_192000" data-name="Path 192000" d="M-5535.776,792.066V787.73c0-3.365-.024-6.731.018-10.1a1.634,1.634,0,0,0-.868-1.583q-3.368-2.163-6.664-4.437a1.2,1.2,0,0,0-1.542-.025c-4.123,2.488-8.321,2.489-12.278-.216a10.554,10.554,0,0,1-4.665-11.468,10.682,10.682,0,0,1,8.541-8.728,11.175,11.175,0,0,1,13.482,12.857,1.143,1.143,0,0,0,.635,1.385q5.084,3.347,10.121,6.765a1.716,1.716,0,0,1,.686,1.191c.043,6,.03,12,.027,18,0,.211-.034.422-.058.694Zm-11.286-29.935a3.741,3.741,0,0,0-3.755-3.757,3.808,3.808,0,0,0-3.728,3.808,3.741,3.741,0,0,0,3.725,3.673A3.684,3.684,0,0,0-5547.062,762.131Z" fill="#a9ddfc"/>
        </g>
        <g id="Group_130108" data-name="Group 130108" opacity="0.15">
          <path id="Path_192001" data-name="Path 192001" d="M-5682.175,735.689v-1.548c0-12.172-.013-24.344.022-36.516a1.773,1.773,0,0,0-1.226-1.954,14.114,14.114,0,0,1-7.972-16,14.383,14.383,0,0,1,13.75-11.153,14.367,14.367,0,0,1,14.054,10.947,14.053,14.053,0,0,1-7.494,15.982,2.488,2.488,0,0,0-1.669,2.668c.055,15.843.035,31.685.035,47.527v1.917c2.363-1.05,4.569-1.978,6.708-3.039.315-.157.439-.947.441-1.445.029-6.457.047-12.915-.009-19.372a1.786,1.786,0,0,1,1.284-1.95c3.2-1.355,6.355-2.831,9.557-4.191.821-.349.979-.833,1.079-1.664.248-2.066-.385-3.207-2.377-4.253a13.837,13.837,0,0,1-6.439-16.615,14.314,14.314,0,0,1,15.008-9.783A14.274,14.274,0,0,1-5634.7,698a14.02,14.02,0,0,1-8.238,14.339,1.708,1.708,0,0,0-1.207,1.854c.074,2.553-.022,5.111.048,7.665a1.764,1.764,0,0,1-1.252,1.978c-3.126,1.3-6.19,2.748-9.308,4.068a1.858,1.858,0,0,0-1.365,2.028c.072,6.364.007,12.73.06,19.094a1.97,1.97,0,0,1-1.367,2.176c-4.733,2.024-9.415,4.168-14.138,6.218a1.691,1.691,0,0,0-1.234,1.833c.067,4.269.029,8.54.029,12.973.492-.183.875-.3,1.239-.463q15.518-6.891,31.039-13.774a1.573,1.573,0,0,0,1.086-1.522,3.836,3.836,0,0,0-2.4-4.381A13.8,13.8,0,0,1-5648.2,735.6a14.3,14.3,0,0,1,14.773-9.936,14.266,14.266,0,0,1,12.926,12.22,14.025,14.025,0,0,1-8.163,14.89,1.7,1.7,0,0,0-1.175,1.863c.063,2.647-.009,5.3.04,7.944a1.442,1.442,0,0,1-1.014,1.563q-20.548,9.1-41.076,18.238a3.158,3.158,0,0,1-1.19.338c-2.966.028-5.933.015-9.1.015v-1.7c0-10.825-.015-21.65.023-32.475a2.2,2.2,0,0,0-1.132-2.12c-8.795-5.809-17.549-11.677-26.34-17.492a2.2,2.2,0,0,1-1.127-2.147c.069-2.6-.01-5.2.041-7.8a1.691,1.691,0,0,0-1.153-1.881,14.074,14.074,0,0,1-8.043-15.957,14.247,14.247,0,0,1,14.234-11.207,14.319,14.319,0,0,1,13.652,11.257,14.053,14.053,0,0,1-7.751,15.735c-1.2.56-1.323,1.248-1.479,2.393-.38,2.8.681,4.418,3.1,5.879,5,3.02,9.778,6.421,14.648,9.662C-5683.13,735.121-5682.743,735.341-5682.175,735.689Zm9.495-52.822a4.781,4.781,0,0,0-4.714-4.831,4.779,4.779,0,0,0-4.776,4.767,4.706,4.706,0,0,0,4.643,4.73A4.712,4.712,0,0,0-5672.68,682.867Zm-33.344,26.075a4.763,4.763,0,0,0,4.814-4.719,4.831,4.831,0,0,0-4.788-4.778,4.743,4.743,0,0,0-4.709,4.683A4.681,4.681,0,0,0-5706.024,708.942Zm71.389,35.684a4.76,4.76,0,0,0,4.8-4.727,4.826,4.826,0,0,0-4.8-4.77,4.747,4.747,0,0,0-4.7,4.691A4.677,4.677,0,0,0-5634.635,744.626Zm-9.507-45.1a4.728,4.728,0,0,0-4.7-4.827,4.807,4.807,0,0,0-4.8,4.759,4.756,4.756,0,0,0,4.661,4.733A4.684,4.684,0,0,0-5644.142,699.521Z" fill="#a9ddfc"/>
          <path id="Path_192002" data-name="Path 192002" d="M-5701.2,782.656v-5.505c0-4.272-.03-8.545.023-12.816a2.074,2.074,0,0,0-1.1-2.01q-4.275-2.745-8.459-5.633a1.524,1.524,0,0,0-1.958-.031c-5.234,3.158-10.563,3.159-15.586-.275a13.4,13.4,0,0,1-5.923-14.558c1.191-5.9,4.983-9.687,10.842-11.08a14.188,14.188,0,0,1,17.116,16.322,1.452,1.452,0,0,0,.806,1.759q6.455,4.248,12.848,8.588a2.181,2.181,0,0,1,.871,1.511c.055,7.615.038,15.231.034,22.847,0,.268-.043.536-.074.881Zm-14.327-38a4.75,4.75,0,0,0-4.766-4.769,4.833,4.833,0,0,0-4.733,4.834,4.749,4.749,0,0,0,4.729,4.663A4.677,4.677,0,0,0-5715.523,744.654Z" fill="#a9ddfc"/>
        </g>
        <g id="Group_130109" data-name="Group 130109" opacity="0.15">
          <path id="Path_192003" data-name="Path 192003" d="M-5419.5,550.616c1.477-.657,2.849-1.234,4.18-1.9.194-.1.263-.593.265-.9.017-3.986.033-7.971-.009-11.956a1.214,1.214,0,0,1,.889-1.326c1.915-.8,3.788-1.7,5.7-2.5a1.176,1.176,0,0,0,.826-1.2,2.225,2.225,0,0,0-1.416-2.51,8.6,8.6,0,0,1-4.1-10.293,8.908,8.908,0,0,1,9.366-6.152,8.874,8.874,0,0,1,7.9,7.935,8.717,8.717,0,0,1-5.131,8.907,1.062,1.062,0,0,0-.74,1.159c.042,1.616-.01,3.234.027,4.851a.991.991,0,0,1-.708,1.1c-1.992.843-3.951,1.761-5.94,2.609a1.049,1.049,0,0,0-.758,1.139c.032,4.042.005,8.086.029,12.129a.993.993,0,0,1-.7,1.094c-2.992,1.289-5.955,2.645-8.944,3.942a1.055,1.055,0,0,0-.756,1.148c.039,2.651.017,5.3.017,8.055.314-.118.552-.193.779-.294q9.646-4.282,19.3-8.557a1.025,1.025,0,0,0,.662-1.044,2.26,2.26,0,0,0-1.422-2.591,8.564,8.564,0,0,1-4.121-10.207,8.888,8.888,0,0,1,9.215-6.249,8.867,8.867,0,0,1,8.026,7.6,8.687,8.687,0,0,1-5.01,9.206,1.169,1.169,0,0,0-.8,1.3c.045,1.616,0,3.234.026,4.851a.9.9,0,0,1-.64.965q-12.773,5.655-25.532,11.338a1.762,1.762,0,0,1-.655.2c-1.872.016-3.744.009-5.732.009V571.41c0-6.729-.01-13.458.015-20.186a1.37,1.37,0,0,0-.713-1.314c-5.466-3.611-10.909-7.258-16.373-10.872a1.369,1.369,0,0,1-.692-1.34c.042-1.616-.009-3.234.026-4.851a1.054,1.054,0,0,0-.726-1.164,8.745,8.745,0,0,1-4.989-9.924A8.858,8.858,0,0,1-5440,514.8a8.9,8.9,0,0,1,8.479,7.007,8.761,8.761,0,0,1-4.827,9.782,1.463,1.463,0,0,0-.92,1.4c-.24,1.813.465,2.846,2.013,3.787,3.3,2.006,6.46,4.245,9.76,6.443a4.651,4.651,0,0,0,.087-.613q.006-11.608.013-23.218a.886.886,0,0,0-.61-.964,8.765,8.765,0,0,1-5.21-9.426,8.884,8.884,0,0,1,8.145-7.493,8.865,8.865,0,0,1,9.145,6.458,8.7,8.7,0,0,1-4.644,10.3,1.431,1.431,0,0,0-.951,1.539c.032,9.877.021,19.753.021,29.63Z" fill="#a9ddfc"/>
          <path id="Path_192004" data-name="Path 192004" d="M-5431.365,572.437h-5.813c-.016-.328-.044-.633-.044-.939,0-3.493-.015-6.986.011-10.478a1.227,1.227,0,0,0-.629-1.193q-2.692-1.733-5.33-3.55a.948.948,0,0,0-1.217.007,8.407,8.407,0,0,1-9.62-.145,8.327,8.327,0,0,1-3.759-8.939,8.382,8.382,0,0,1,6.454-6.944,8.8,8.8,0,0,1,10.947,10.074.853.853,0,0,0,.451,1.035q4.009,2.645,7.986,5.339a1.371,1.371,0,0,1,.593.911c.036,4.821.023,9.641.02,14.462A3.339,3.339,0,0,1-5431.365,572.437Z" fill="#a9ddfc"/>
        </g>
        <g id="Group_130110" data-name="Group 130110" opacity="0.35">
          <path id="Path_192005" data-name="Path 192005" d="M-5738.978,596.9c1.477-.657,2.849-1.234,4.179-1.9.194-.1.264-.593.266-.9.017-3.985.033-7.971-.009-11.956a1.212,1.212,0,0,1,.889-1.325c1.914-.8,3.788-1.7,5.7-2.5a1.172,1.172,0,0,0,.826-1.2,2.225,2.225,0,0,0-1.415-2.511,8.6,8.6,0,0,1-4.1-10.292,8.908,8.908,0,0,1,9.366-6.152,8.873,8.873,0,0,1,7.9,7.934,8.719,8.719,0,0,1-5.131,8.908,1.061,1.061,0,0,0-.74,1.158c.042,1.616-.01,3.235.027,4.851a.994.994,0,0,1-.708,1.1c-1.992.842-3.951,1.761-5.94,2.608a1.049,1.049,0,0,0-.758,1.139c.032,4.043,0,8.086.029,12.129a.993.993,0,0,1-.7,1.094c-2.992,1.29-5.955,2.645-8.944,3.943a1.053,1.053,0,0,0-.756,1.147c.039,2.652.017,5.3.017,8.056.314-.118.552-.194.779-.294q9.647-4.284,19.3-8.558a1.025,1.025,0,0,0,.662-1.043,2.261,2.261,0,0,0-1.422-2.592,8.565,8.565,0,0,1-4.122-10.206,8.891,8.891,0,0,1,9.216-6.249,8.866,8.866,0,0,1,8.026,7.6,8.689,8.689,0,0,1-5.01,9.206,1.165,1.165,0,0,0-.8,1.295c.045,1.616-.006,3.235.026,4.851a.894.894,0,0,1-.64.965q-12.773,5.655-25.532,11.339a1.777,1.777,0,0,1-.655.2c-1.872.016-3.744.009-5.733.009V617.7c0-6.728-.009-13.457.016-20.186a1.368,1.368,0,0,0-.713-1.313c-5.467-3.611-10.909-7.259-16.373-10.872a1.37,1.37,0,0,1-.692-1.34c.042-1.616-.009-3.235.026-4.851a1.053,1.053,0,0,0-.727-1.164,8.747,8.747,0,0,1-4.988-9.924,8.857,8.857,0,0,1,8.856-6.957A8.9,8.9,0,0,1-5751,568.1a8.762,8.762,0,0,1-4.827,9.782,1.464,1.464,0,0,0-.92,1.4c-.24,1.813.465,2.846,2.012,3.787,3.3,2.007,6.461,4.245,9.761,6.443a4.627,4.627,0,0,0,.087-.612q.007-11.61.013-23.218a.886.886,0,0,0-.61-.964,8.767,8.767,0,0,1-5.21-9.427,8.883,8.883,0,0,1,8.145-7.492,8.865,8.865,0,0,1,9.145,6.457,8.706,8.706,0,0,1-4.644,10.3,1.429,1.429,0,0,0-.951,1.539c.032,9.876.021,19.753.021,29.629Z" fill="#a9ddfc"/>
          <path id="Path_192006" data-name="Path 192006" d="M-5750.848,618.725h-5.813c-.016-.328-.044-.634-.044-.94,0-3.492-.015-6.985.01-10.478a1.226,1.226,0,0,0-.628-1.193q-2.692-1.733-5.33-3.549a.948.948,0,0,0-1.217.007,8.41,8.41,0,0,1-9.62-.146,8.325,8.325,0,0,1-3.759-8.938,8.38,8.38,0,0,1,6.454-6.944,8.8,8.8,0,0,1,10.947,10.074.849.849,0,0,0,.451,1.034q4.009,2.645,7.986,5.339a1.376,1.376,0,0,1,.593.912c.035,4.82.023,9.641.02,14.461A3.38,3.38,0,0,1-5750.848,618.725Z" fill="#a9ddfc"/>
        </g>
        <g id="Group_130111" data-name="Group 130111">
          <path id="Path_192007" data-name="Path 192007" d="M-5584.782,853.642c1.478-.657,2.85-1.234,4.18-1.9.194-.1.264-.593.265-.905.017-3.985.033-7.97-.008-11.955a1.213,1.213,0,0,1,.888-1.326c1.915-.8,3.788-1.7,5.7-2.5a1.174,1.174,0,0,0,.826-1.2,2.226,2.226,0,0,0-1.415-2.511,8.6,8.6,0,0,1-4.1-10.292,8.909,8.909,0,0,1,9.365-6.152,8.873,8.873,0,0,1,7.9,7.934,8.719,8.719,0,0,1-5.131,8.908,1.062,1.062,0,0,0-.74,1.159c.042,1.616-.01,3.234.028,4.851a.993.993,0,0,1-.709,1.1c-1.991.842-3.95,1.761-5.94,2.608a1.05,1.05,0,0,0-.758,1.14c.032,4.042.006,8.086.029,12.128a.993.993,0,0,1-.7,1.1c-2.991,1.289-5.955,2.645-8.943,3.942a1.054,1.054,0,0,0-.756,1.147c.038,2.652.016,5.3.016,8.056.314-.118.553-.193.78-.294q9.647-4.282,19.295-8.558a1.023,1.023,0,0,0,.662-1.043,2.259,2.259,0,0,0-1.421-2.591,8.565,8.565,0,0,1-4.122-10.207,8.889,8.889,0,0,1,9.215-6.249,8.867,8.867,0,0,1,8.026,7.6,8.687,8.687,0,0,1-5.009,9.206,1.165,1.165,0,0,0-.8,1.3c.045,1.616-.006,3.234.026,4.851a.9.9,0,0,1-.641.965q-12.773,5.655-25.532,11.338a1.73,1.73,0,0,1-.655.2c-1.871.016-3.743.01-5.732.01v-1.067c0-6.729-.009-13.458.015-20.187a1.368,1.368,0,0,0-.713-1.313c-5.466-3.611-10.908-7.258-16.373-10.872a1.369,1.369,0,0,1-.692-1.34c.042-1.616-.008-3.234.026-4.851a1.054,1.054,0,0,0-.726-1.164,8.744,8.744,0,0,1-4.988-9.924,8.857,8.857,0,0,1,8.855-6.956,8.9,8.9,0,0,1,8.479,7.006,8.758,8.758,0,0,1-4.827,9.782,1.467,1.467,0,0,0-.92,1.4c-.24,1.812.465,2.846,2.013,3.787,3.3,2.006,6.461,4.244,9.761,6.443a4.874,4.874,0,0,0,.086-.613q.006-11.608.013-23.218a.885.885,0,0,0-.609-.964,8.767,8.767,0,0,1-5.211-9.426,8.884,8.884,0,0,1,8.145-7.493,8.863,8.863,0,0,1,9.145,6.458,8.7,8.7,0,0,1-4.644,10.3,1.43,1.43,0,0,0-.951,1.539c.032,9.876.021,19.753.021,29.63Z" fill="#a9ddfc"/>
          <path id="Path_192008" data-name="Path 192008" d="M-5596.652,875.463h-5.812c-.017-.328-.045-.634-.045-.939,0-3.493-.014-6.986.011-10.478a1.228,1.228,0,0,0-.629-1.194q-2.692-1.731-5.33-3.549a.947.947,0,0,0-1.217.007,8.408,8.408,0,0,1-9.619-.145,8.325,8.325,0,0,1-3.759-8.939,8.38,8.38,0,0,1,6.454-6.944,8.8,8.8,0,0,1,10.946,10.074.851.851,0,0,0,.452,1.035c2.673,1.763,5.34,3.535,7.986,5.339a1.371,1.371,0,0,1,.592.911c.036,4.821.024,9.641.021,14.462A3.516,3.516,0,0,1-5596.652,875.463Z" fill="#a9ddfc"/>
        </g>
        <g id="Group_130112" data-name="Group 130112">
          <path id="Path_192009" data-name="Path 192009" d="M-5419.475,861.593c1.478-.657,2.85-1.234,4.18-1.9.194-.1.264-.593.265-.9.017-3.985.033-7.97-.008-11.955a1.213,1.213,0,0,1,.889-1.326c1.914-.8,3.788-1.7,5.7-2.5a1.174,1.174,0,0,0,.826-1.2,2.225,2.225,0,0,0-1.415-2.511,8.6,8.6,0,0,1-4.1-10.292,8.908,8.908,0,0,1,9.365-6.152,8.872,8.872,0,0,1,7.9,7.934A8.716,8.716,0,0,1-5401,839.7a1.063,1.063,0,0,0-.74,1.159c.042,1.616-.01,3.234.028,4.851a.993.993,0,0,1-.709,1.1c-1.991.842-3.95,1.761-5.94,2.608a1.051,1.051,0,0,0-.758,1.14c.032,4.042.006,8.086.03,12.128a1,1,0,0,1-.7,1.1c-2.991,1.289-5.955,2.645-8.943,3.942a1.055,1.055,0,0,0-.756,1.147c.038,2.652.016,5.3.016,8.056.314-.118.553-.193.78-.294q9.646-4.283,19.3-8.558a1.024,1.024,0,0,0,.661-1.043,2.259,2.259,0,0,0-1.421-2.591,8.565,8.565,0,0,1-4.122-10.207,8.889,8.889,0,0,1,9.215-6.249,8.866,8.866,0,0,1,8.026,7.6,8.687,8.687,0,0,1-5.009,9.206,1.166,1.166,0,0,0-.8,1.3c.045,1.616-.006,3.234.026,4.851a.9.9,0,0,1-.641.965q-12.773,5.655-25.532,11.338a1.73,1.73,0,0,1-.654.2c-1.872.016-3.744.01-5.733.01v-1.067c0-6.729-.009-13.458.015-20.187a1.365,1.365,0,0,0-.713-1.313c-5.466-3.611-10.908-7.258-16.373-10.872a1.371,1.371,0,0,1-.692-1.34c.042-1.616-.008-3.234.027-4.851a1.055,1.055,0,0,0-.727-1.164,8.746,8.746,0,0,1-4.988-9.924,8.856,8.856,0,0,1,8.855-6.956,8.9,8.9,0,0,1,8.479,7.006,8.758,8.758,0,0,1-4.826,9.782,1.465,1.465,0,0,0-.92,1.4c-.241,1.812.464,2.846,2.012,3.787,3.3,2.006,6.461,4.244,9.761,6.443a5.006,5.006,0,0,0,.087-.613q0-11.609.012-23.218a.886.886,0,0,0-.609-.964,8.767,8.767,0,0,1-5.211-9.426,8.885,8.885,0,0,1,8.146-7.493,8.864,8.864,0,0,1,9.144,6.457,8.7,8.7,0,0,1-4.644,10.3,1.429,1.429,0,0,0-.95,1.539c.031,9.876.02,19.753.02,29.63Z" fill="#a9ddfc"/>
          <path id="Path_192010" data-name="Path 192010" d="M-5431.344,883.414h-5.813c-.017-.328-.045-.634-.045-.939,0-3.493-.014-6.986.011-10.478a1.227,1.227,0,0,0-.629-1.194q-2.693-1.731-5.33-3.549a.948.948,0,0,0-1.217.007,8.407,8.407,0,0,1-9.619-.145,8.326,8.326,0,0,1-3.759-8.939,8.382,8.382,0,0,1,6.454-6.944,8.8,8.8,0,0,1,10.946,10.074.852.852,0,0,0,.452,1.035c2.673,1.763,5.34,3.535,7.986,5.339a1.369,1.369,0,0,1,.592.911c.036,4.821.024,9.641.021,14.462A3.339,3.339,0,0,1-5431.344,883.414Z" fill="#a9ddfc"/>
        </g>
        <g id="Group_130113" data-name="Group 130113">
          <path id="Path_192011" data-name="Path 192011" d="M-5419.5,682.156c1.477-.657,2.849-1.235,4.18-1.9.194-.1.263-.592.265-.9.017-3.985.033-7.971-.009-11.956a1.213,1.213,0,0,1,.889-1.325c1.915-.8,3.788-1.7,5.7-2.5a1.175,1.175,0,0,0,.826-1.2,2.225,2.225,0,0,0-1.416-2.511,8.6,8.6,0,0,1-4.1-10.292,8.909,8.909,0,0,1,9.366-6.153,8.875,8.875,0,0,1,7.9,7.935,8.716,8.716,0,0,1-5.131,8.907,1.063,1.063,0,0,0-.74,1.159c.042,1.616-.01,3.235.027,4.851a.991.991,0,0,1-.708,1.1c-1.992.843-3.951,1.762-5.94,2.609a1.049,1.049,0,0,0-.758,1.139c.032,4.043.005,8.086.029,12.129a.993.993,0,0,1-.7,1.094c-2.992,1.29-5.955,2.645-8.944,3.943a1.053,1.053,0,0,0-.756,1.147c.039,2.651.017,5.3.017,8.055.314-.117.552-.193.779-.294q9.646-4.282,19.3-8.557a1.024,1.024,0,0,0,.662-1.043A2.26,2.26,0,0,0-5400.18,685a8.564,8.564,0,0,1-4.121-10.206,8.89,8.89,0,0,1,9.215-6.25,8.867,8.867,0,0,1,8.026,7.606,8.688,8.688,0,0,1-5.01,9.206,1.167,1.167,0,0,0-.8,1.3c.045,1.616,0,3.234.026,4.851a.894.894,0,0,1-.64.965q-12.773,5.655-25.532,11.339a1.778,1.778,0,0,1-.655.2c-1.872.016-3.744.009-5.732.009v-1.067c0-6.729-.01-13.457.015-20.186a1.368,1.368,0,0,0-.713-1.313c-5.466-3.612-10.909-7.259-16.373-10.873a1.367,1.367,0,0,1-.692-1.339c.042-1.616-.009-3.235.026-4.851a1.053,1.053,0,0,0-.726-1.164,8.747,8.747,0,0,1-4.989-9.925,8.858,8.858,0,0,1,8.856-6.956,8.9,8.9,0,0,1,8.479,7.007,8.761,8.761,0,0,1-4.827,9.782,1.463,1.463,0,0,0-.92,1.4c-.24,1.813.465,2.846,2.013,3.787,3.3,2.006,6.46,4.245,9.76,6.443a4.627,4.627,0,0,0,.087-.613q.006-11.608.013-23.218a.885.885,0,0,0-.61-.963,8.767,8.767,0,0,1-5.21-9.427,8.882,8.882,0,0,1,8.145-7.492,8.865,8.865,0,0,1,9.145,6.457,8.706,8.706,0,0,1-4.644,10.3,1.43,1.43,0,0,0-.951,1.538c.032,9.877.021,19.754.021,29.63Z" fill="#a9ddfc"/>
          <path id="Path_192012" data-name="Path 192012" d="M-5431.365,703.977h-5.813c-.016-.328-.044-.634-.044-.94,0-3.492-.015-6.985.011-10.478a1.227,1.227,0,0,0-.629-1.193q-2.692-1.733-5.33-3.55a.948.948,0,0,0-1.217.008,8.409,8.409,0,0,1-9.62-.146,8.327,8.327,0,0,1-3.759-8.939,8.379,8.379,0,0,1,6.454-6.943,8.8,8.8,0,0,1,10.947,10.074.851.851,0,0,0,.451,1.034q4.009,2.645,7.986,5.339a1.371,1.371,0,0,1,.593.912c.036,4.82.023,9.641.02,14.461A3.38,3.38,0,0,1-5431.365,703.977Z" fill="#a9ddfc"/>
        </g>
        <g id="Group_130114" data-name="Group 130114">
          <g transform="matrix(1, 0, 0, 1, -5793.2, 473.88)" filter="url(#Path_192013)">
            <path id="Path_192013-2" data-name="Path 192013" d="M-5565.239,583.265c10.158,3.45,15.369,10.338,15.052,19.895-.4,12.146-11.631,20.87-22.432,17.429-7.752-2.469-12.911-10.1-12.736-18.845a18.933,18.933,0,0,1,13.4-17.906c.571-.16,1.125-.381,1.686-.573Z" transform="translate(5793.2 -473.88)" fill="#004996"/>
          </g>
          <g transform="matrix(1, 0, 0, 1, -5793.2, 473.88)" filter="url(#Path_192014)">
            <path id="Path_192014-2" data-name="Path 192014" d="M-5665.815,753.376c-6.346-4.377-8.982-10.413-8.96-17.55.021-6.939,1.725-13.285,8.247-17.359-12.678-6.1-18.459-16.892-20.779-29.78a41.148,41.148,0,0,1,33.422-47.835,44.923,44.923,0,0,1,29.858,4.592c3.034,1.6,6.215.737,9.147.13,6.232-1.292,12.345-3.156,18.5-4.791.567-.15,1.124-.341,1.878-.572,0,8.5.027,16.795-.064,25.088-.006.544-.821,1.365-1.424,1.567-2.8.936-5.66,1.7-8.473,2.516,3.645,12.406,1.884,24.076-4.643,34.964-6.233,10.4-15.813,16.167-27.485,18.737-1.334.294-2.663.632-3.964,1.047a9.32,9.32,0,0,0-6.926,8.44c-.509,4.487,1.048,8.155,5.063,10.115a96.248,96.248,0,0,0,12.324,4.652c5.557,1.821,11.327,3.055,16.765,5.162,12.889,5,18.333,13.354,17.783,27.14a53.52,53.52,0,0,1-1.971,12.577c-3.559,12.343-12.347,19.505-24.409,22.609A78.035,78.035,0,0,1-5666.5,813.6c-9.65-3.176-17.552-8.8-20.9-18.874-3.773-11.363-3.026-22.26,5.4-31.637,3.743-4.166,8.619-6.691,13.76-8.729C-5667.559,754.09-5666.886,753.811-5665.815,753.376Zm4.972-70.6.3.065c.081,1.29.11,2.585.253,3.868.873,7.8,5.373,12.4,13.11,13.457,8.883,1.208,15.183-2.546,17.214-10.453a26.9,26.9,0,0,0-.307-15.078c-2.167-6.8-7.914-11.2-14.476-11.248-6.439-.048-12.225,4.2-14.422,10.949A69.09,69.09,0,0,0-5660.843,682.771Zm19.413,112.591c4.141-.888,8.572-1.371,12.654-2.828,5.26-1.878,7.331-6.341,7.265-11.773-.062-5.133-2.626-8.781-7.347-10.51a38.282,38.282,0,0,0-26.591-.2c-5.339,1.9-7.869,6.1-7.8,11.667.064,5.259,2.64,9.156,8.122,10.855C-5650.819,793.911-5646.253,794.416-5641.43,795.362Z" transform="translate(5793.2 -473.88)" fill="#004996"/>
          </g>
          <g transform="matrix(1, 0, 0, 1, -5793.2, 473.88)" filter="url(#Path_192015)">
            <path id="Path_192015-2" data-name="Path 192015" d="M-5500.92,620.052v21.293h25.826V666h-26.027c-.034.631-.108,1.357-.109,2.084-.006,14.926-.089,29.853.059,44.778a39.983,39.983,0,0,0,1.414,10.332c1.423,5.06,5,7.342,10.281,7.275a29.435,29.435,0,0,0,14.636-4.2v8.916c0,4.95.045,9.9-.047,14.849-.014.76-.463,1.958-1.031,2.2-12.346,5.224-24.96,6.931-37.612,1.408-7.544-3.293-11.434-9.992-13.15-17.678A91.381,91.381,0,0,1-5529,717.9c-.321-16.9-.141-33.81-.159-50.715,0-.377,0-.754,0-1.382h-11.979v-24.3h11.88V620.052Z" transform="translate(5793.2 -473.88)" fill="#004996"/>
          </g>
          <g transform="matrix(1, 0, 0, 1, -5793.2, 473.88)" filter="url(#Path_192016)">
            <path id="Path_192016-2" data-name="Path 192016" d="M-5553.7,641.527V755.011h-27.926V641.527Z" transform="translate(5793.2 -473.88)" fill="#004996"/>
          </g>
        </g>
      </g>
    </g>
  </g>
</svg>
