<svg xmlns="http://www.w3.org/2000/svg" width="422" height="549" viewBox="0 0 422 549">
  <g id="_3" data-name="3" transform="translate(-179 -2913)">
    <rect id="BG" width="420" height="547" transform="translate(180 2914)" fill="none" stroke="#084a93" stroke-width="2" stroke-dasharray="10 10"/>
    <g id="Group_130262" data-name="Group 130262" transform="translate(6624.25 1644.67)">
      <g id="Group_130135" data-name="Group 130135">
        <g id="Group_130134" data-name="Group 130134">
          <g id="Group_130117" data-name="Group 130117" opacity="0.5">
            <path id="Path_192017" data-name="Path 192017" d="M-6118.365,1481.382l-.013,3.052,33.106,19.111.006-3.056Z" fill="#00defc" opacity="0.15"/>
          </g>
          <g id="Group_130118" data-name="Group 130118" opacity="0.6">
            <path id="Path_192018" data-name="Path 192018" d="M-6187.776,1449.719l-.058,21.8,47.046,27.165.063-21.8Z" fill="#00defc" opacity="0.15"/>
          </g>
          <g id="Group_130119" data-name="Group 130119" opacity="0.5">
            <path id="Path_192019" data-name="Path 192019" d="M-6136.053,1522.748l-55.434-32,.137-48.444,55.43,32Zm-51.781-51.224,47.046,27.165.064-21.8-47.053-27.166-.057,21.805Z" fill="#00defc" opacity="0.15"/>
          </g>
          <g id="Group_130120" data-name="Group 130120" opacity="0.5">
            <path id="Path_192020" data-name="Path 192020" d="M-6191.325,1433.6l-.007,3.669,55.428,32,.013-3.669Z" fill="#00defc" opacity="0.15"/>
          </g>
          <g id="Group_130121" data-name="Group 130121" opacity="0.5">
            <path id="Path_192021" data-name="Path 192021" d="M-6118.441,1508.875l-.06,21.623,33.1,19.11.064-21.624Z" fill="#00defc" opacity="0.15"/>
          </g>
          <g id="Group_130122" data-name="Group 130122" opacity="0.15">
            <path id="Path_192022" data-name="Path 192022" d="M-6081.824,1556.22l-42.277-24.405.207-74.431,42.28,24.4ZM-6118.5,1530.5l33.1,19.11.064-21.623-33.1-19.11-.06,21.623Zm.174-61.179,33.094,19.108.013-3.059-33.1-19.111-.007,3.062Zm-.05,15.116,33.106,19.111.006-3.056-33.1-19.108-.012,3.053Zm-.02,6.876,33.1,19.111.016-3.052-33.11-19.113-.01,3.054Zm.045-15.123,33.1,19.109.01-3.053-33.1-19.113-.013,3.057Z" fill="#00defc"/>
          </g>
          <g id="Group_130125" data-name="Group 130125" opacity="0.35">
            <g id="Group_130124" data-name="Group 130124">
              <g id="Group_130123" data-name="Group 130123">
                <path id="Path_192023" data-name="Path 192023" d="M-6077.455,1562.714l-119.231-68.837.261-93.547,119.237,68.843Zm-46.646-30.9,42.277,24.405.21-74.431-42.28-24.4-.207,74.431Zm-67.386-41.067,55.434,32,.133-48.442-55.43-32-.137,48.444Zm.219-76.4,111.259,64.238.023-8.246-111.256-64.235-.026,8.243Zm-.019,7.794,55.422,32,.012-3.666-55.428-32-.006,3.669Zm-.022,6.873,55.428,32,.016-3.664-55.435-32-.009,3.666Zm-.022,8.249,55.427,32,.013-3.669-55.434-32-.006,3.669Z" fill="#00defc"/>
              </g>
            </g>
          </g>
          <g id="Group_130126" data-name="Group 130126" opacity="0.5">
            <path id="Path_192024" data-name="Path 192024" d="M-6191.3,1425.351l-.01,3.666,55.428,32,.016-3.665Z" fill="#00defc" opacity="0.15"/>
          </g>
          <g id="Group_130127" data-name="Group 130127" opacity="0.5">
            <path id="Path_192025" data-name="Path 192025" d="M-6081.6,1475.378l-60.417-34.885.009-3.891,60.426,34.879Z" fill="#00defc" opacity="0.15"/>
          </g>
          <g id="Group_130128" data-name="Group 130128" opacity="0.5">
            <path id="Path_192026" data-name="Path 192026" d="M-6080.009,1478.588l.023-8.246-111.256-64.235-.026,8.243Zm-109.046-69.15,23.924,13.809-.019,3.894-23.918-13.813.013-3.89Zm47.046,27.164,60.426,34.879-.019,3.9-60.416-34.886.009-3.89Z" fill="#00defc" opacity="0.15"/>
          </g>
          <g id="Group_130129" data-name="Group 130129" opacity="0.5">
            <path id="Path_192027" data-name="Path 192027" d="M-6189.055,1409.436l-.013,3.892,23.917,13.813.02-3.893Z" fill="#00defc" opacity="0.15"/>
          </g>
          <g id="Group_130130" data-name="Group 130130" opacity="0.5">
            <path id="Path_192028" data-name="Path 192028" d="M-6191.281,1418.475l-.006,3.669,55.421,32,.013-3.666Z" fill="#00defc" opacity="0.15"/>
          </g>
          <g id="Group_130131" data-name="Group 130131" opacity="0.5">
            <path id="Path_192029" data-name="Path 192029" d="M-6118.387,1488.257l-.009,3.054,33.1,19.111.016-3.052Z" fill="#00defc" opacity="0.15"/>
          </g>
          <g id="Group_130132" data-name="Group 130132" opacity="0.5">
            <path id="Path_192030" data-name="Path 192030" d="M-6118.339,1473.131l-.013,3.057,33.1,19.108.01-3.052Z" fill="#00defc" opacity="0.15"/>
          </g>
          <g id="Group_130133" data-name="Group 130133" opacity="0.5">
            <path id="Path_192031" data-name="Path 192031" d="M-6118.32,1466.257l-.006,3.062,33.094,19.108.013-3.059Z" fill="#00defc" opacity="0.15"/>
          </g>
        </g>
      </g>
      <g id="Group_130170" data-name="Group 130170">
        <g id="Group_130136" data-name="Group 130136">
          <path id="Path_192032" data-name="Path 192032" d="M-6416.613,1572.95c2.569-1.479,3.587.556,3.593,3.587.006,3.405-1.183,6.426-3.625,7.834-2.486,1.434-3.586-.49-3.6-3.6C-6420.263,1577.589-6419.093,1574.384-6416.613,1572.95Zm.019,9.447c.871-.506,1.329-2.023,1.323-4.534,0-2.436-.464-3.469-1.361-2.954-.827.483-1.386,2.012-1.361,4.562-.013,2.541.522,3.425,1.4,2.926Z" fill="#084a93" opacity="0.35"/>
        </g>
        <g id="Group_130137" data-name="Group 130137">
          <path id="Path_192033" data-name="Path 192033" d="M-6408.422,1568.222c2.569-1.482,3.587.553,3.593,3.58.006,3.409-1.176,6.429-3.625,7.841-2.48,1.434-3.58-.493-3.606-3.6C-6412.066,1572.864-6410.9,1569.649-6408.422,1568.222Zm.019,9.443c.871-.5,1.335-2.019,1.323-4.534-.006-2.436-.458-3.469-1.355-2.951-.833.481-1.392,2.016-1.367,4.56-.013,2.541.528,3.428,1.4,2.925Z" fill="#084a93" opacity="0.35"/>
        </g>
        <g id="Group_130138" data-name="Group 130138">
          <path id="Path_192034" data-name="Path 192034" d="M-6400.225,1563.494c2.563-1.485,3.574.553,3.587,3.583.013,3.409-1.183,6.429-3.631,7.838-2.474,1.431-3.574-.493-3.6-3.6C-6403.875,1568.133-6402.711,1564.925-6400.225,1563.494Zm.013,9.44c.871-.5,1.335-2.016,1.329-4.537-.013-2.43-.464-3.463-1.361-2.948-.833.483-1.393,2.016-1.361,4.56-.019,2.543.515,3.434,1.393,2.925Z" fill="#084a93" opacity="0.35"/>
        </g>
        <g id="Group_130139" data-name="Group 130139">
          <path id="Path_192035" data-name="Path 192035" d="M-6390.508,1558.066l.032,11.021-2.175,1.253-.019-8.725-.032.019-1.831,2.044-.382-1.714,2.544-2.823Z" fill="#084a93" opacity="0.35"/>
        </g>
        <g id="Group_130140" data-name="Group 130140">
          <path id="Path_192036" data-name="Path 192036" d="M-6383.843,1554.034c2.569-1.485,3.58.553,3.592,3.584.007,3.4-1.182,6.426-3.631,7.837-2.48,1.435-3.58-.489-3.6-3.6C-6387.494,1558.673-6386.324,1555.465-6383.843,1554.034Zm.012,9.444c.878-.509,1.336-2.023,1.329-4.541-.006-2.429-.464-3.466-1.36-2.947-.827.48-1.393,2.019-1.368,4.559-.013,2.544.528,3.434,1.4,2.929Z" fill="#084a93" opacity="0.35"/>
        </g>
        <g id="Group_130141" data-name="Group 130141">
          <path id="Path_192037" data-name="Path 192037" d="M-6375.652,1549.3c2.569-1.485,3.58.553,3.586,3.58.013,3.412-1.176,6.429-3.625,7.841-2.48,1.434-3.58-.49-3.6-3.6C-6379.3,1553.945-6378.133,1550.734-6375.652,1549.3Zm.012,9.447c.878-.506,1.336-2.019,1.329-4.544-.006-2.423-.464-3.459-1.361-2.944-.826.483-1.392,2.015-1.361,4.559-.019,2.544.522,3.434,1.393,2.929Z" fill="#084a93" opacity="0.35"/>
        </g>
        <g id="Group_130142" data-name="Group 130142">
          <path id="Path_192038" data-name="Path 192038" d="M-6367.462,1544.575c2.569-1.485,3.581.556,3.593,3.583.013,3.409-1.183,6.423-3.625,7.838-2.48,1.431-3.58-.493-3.6-3.6C-6371.112,1549.214-6369.942,1546-6367.462,1544.575Zm.013,9.44c.871-.5,1.342-2.016,1.329-4.534-.006-2.433-.458-3.466-1.354-2.944-.834.477-1.4,2.006-1.368,4.553-.013,2.544.515,3.434,1.393,2.925Z" fill="#084a93" opacity="0.35"/>
        </g>
        <g id="Group_130143" data-name="Group 130143">
          <path id="Path_192039" data-name="Path 192039" d="M-6359.271,1539.84c2.569-1.481,3.58.56,3.587,3.59.012,3.4-1.17,6.426-3.625,7.838-2.474,1.431-3.58-.49-3.6-3.6C-6362.915,1544.486-6361.751,1541.278-6359.271,1539.84Zm.013,9.45c.877-.509,1.341-2.022,1.329-4.537,0-2.43-.465-3.469-1.355-2.951-.833.48-1.392,2.016-1.367,4.56-.013,2.547.521,3.434,1.393,2.928Z" fill="#084a93" opacity="0.35"/>
        </g>
        <g id="Group_130144" data-name="Group 130144">
          <path id="Path_192040" data-name="Path 192040" d="M-6351.08,1535.115c2.569-1.481,3.586.553,3.593,3.584.013,3.411-1.177,6.429-3.625,7.844-2.48,1.431-3.587-.5-3.606-3.609C-6354.724,1539.758-6353.56,1536.546-6351.08,1535.115Zm.019,9.444c.871-.506,1.335-2.022,1.329-4.534-.007-2.436-.471-3.466-1.367-2.948-.827.477-1.387,2.006-1.361,4.556-.013,2.541.521,3.431,1.4,2.926Z" fill="#084a93" opacity="0.35"/>
        </g>
        <g id="Group_130145" data-name="Group 130145">
          <path id="Path_192041" data-name="Path 192041" d="M-6342.889,1530.387c2.569-1.485,3.586.554,3.593,3.58.012,3.412-1.177,6.43-3.625,7.841-2.48,1.431-3.58-.492-3.606-3.6C-6346.533,1535.026-6345.37,1531.818-6342.889,1530.387Zm.019,9.444c.877-.5,1.335-2.023,1.329-4.538-.007-2.429-.465-3.469-1.361-2.947-.827.477-1.393,2.013-1.361,4.556-.019,2.544.515,3.431,1.393,2.929Z" fill="#084a93" opacity="0.35"/>
        </g>
        <g id="Group_130146" data-name="Group 130146">
          <path id="Path_192042" data-name="Path 192042" d="M-6333.179,1524.972l.032,11.015-2.156,1.246-.025-8.725-.038.019-1.819,2.045-.382-1.714,2.538-2.824Z" fill="#084a93" opacity="0.35"/>
        </g>
        <g id="Group_130147" data-name="Group 130147">
          <path id="Path_192043" data-name="Path 192043" d="M-6324.988,1520.241l.032,11.014-2.162,1.246-.02-8.725-.032.019-1.831,2.048-.375-1.717,2.544-2.818Z" fill="#084a93" opacity="0.35"/>
        </g>
        <g id="Group_130148" data-name="Group 130148">
          <path id="Path_192044" data-name="Path 192044" d="M-6316.8,1515.516l.032,11.008-2.156,1.25-.025-8.725-.038.022-1.819,2.042-.381-1.717,2.543-2.817Z" fill="#084a93" opacity="0.35"/>
        </g>
        <g id="Group_130149" data-name="Group 130149">
          <path id="Path_192045" data-name="Path 192045" d="M-6310.12,1511.468c2.569-1.482,3.587.557,3.593,3.584.006,3.408-1.183,6.426-3.625,7.841-2.48,1.43-3.586-.5-3.606-3.606C-6313.77,1516.111-6312.6,1512.9-6310.12,1511.468Zm.013,9.441c.877-.5,1.335-2.016,1.335-4.535-.006-2.429-.471-3.465-1.367-2.95-.827.483-1.386,2.016-1.361,4.562-.013,2.541.521,3.431,1.393,2.923Z" fill="#084a93" opacity="0.35"/>
        </g>
        <g id="Group_130150" data-name="Group 130150">
          <path id="Path_192046" data-name="Path 192046" d="M-6301.929,1506.737c2.569-1.485,3.58.556,3.593,3.583.013,3.409-1.177,6.43-3.625,7.841-2.48,1.431-3.58-.5-3.606-3.6C-6305.58,1511.376-6304.4,1508.171-6301.929,1506.737Zm.019,9.447c.865-.5,1.335-2.023,1.329-4.541-.007-2.429-.464-3.466-1.361-2.944-.839.477-1.393,2.015-1.367,4.553-.013,2.55.521,3.434,1.4,2.932Z" fill="#084a93" opacity="0.35"/>
        </g>
        <g id="Group_130151" data-name="Group 130151">
          <path id="Path_192047" data-name="Path 192047" d="M-6293.732,1502.009c2.563-1.482,3.58.553,3.587,3.58.006,3.412-1.177,6.429-3.625,7.841-2.48,1.434-3.58-.49-3.606-3.6C-6297.382,1506.651-6296.219,1503.44-6293.732,1502.009Zm.013,9.443c.864-.5,1.335-2.022,1.323-4.537,0-2.429-.459-3.469-1.368-2.944-.82.473-1.38,2.009-1.348,4.556-.019,2.537.515,3.434,1.393,2.925Z" fill="#084a93" opacity="0.35"/>
        </g>
        <g id="Group_130152" data-name="Group 130152">
          <path id="Path_192048" data-name="Path 192048" d="M-6285.548,1497.277c2.576-1.481,3.587.56,3.593,3.584.013,3.405-1.176,6.426-3.624,7.838-2.474,1.437-3.587-.49-3.6-3.6C-6289.192,1501.92-6288.021,1498.715-6285.548,1497.277Zm.019,9.447c.865-.5,1.342-2.019,1.336-4.537-.013-2.433-.471-3.466-1.367-2.951-.833.483-1.393,2.016-1.367,4.56-.013,2.543.521,3.431,1.4,2.928Z" fill="#084a93" opacity="0.35"/>
        </g>
        <g id="Group_130153" data-name="Group 130153">
          <path id="Path_192049" data-name="Path 192049" d="M-6416.555,1593.3c2.568-1.482,3.586.569,3.592,3.583.007,3.409-1.182,6.439-3.624,7.854-2.48,1.434-3.587-.509-3.606-3.619C-6420.2,1597.945-6419.036,1594.734-6416.555,1593.3Zm.012,9.446c.884-.508,1.336-2.019,1.336-4.537-.013-2.436-.465-3.469-1.368-2.951-.826.481-1.386,2.016-1.361,4.56-.012,2.544.522,3.431,1.393,2.928Z" fill="#084a93" opacity="0.35"/>
        </g>
        <g id="Group_130154" data-name="Group 130154">
          <path id="Path_192050" data-name="Path 192050" d="M-6408.365,1588.571c2.569-1.481,3.58.57,3.593,3.587.007,3.409-1.176,6.442-3.631,7.851-2.474,1.427-3.58-.5-3.6-3.616C-6412.009,1593.214-6410.845,1590-6408.365,1588.571Zm.019,9.444c.871-.5,1.336-2.019,1.323-4.534,0-2.429-.458-3.466-1.361-2.951-.827.48-1.386,2.016-1.361,4.56-.013,2.547.522,3.434,1.4,2.925Z" fill="#084a93" opacity="0.35"/>
        </g>
        <g id="Group_130155" data-name="Group 130155">
          <path id="Path_192051" data-name="Path 192051" d="M-6398.647,1583.153l.038,11.014-2.175,1.253-.019-8.725-.038.019-1.819,2.045-.382-1.714,2.538-2.817Z" fill="#084a93" opacity="0.35"/>
        </g>
        <g id="Group_130156" data-name="Group 130156">
          <path id="Path_192052" data-name="Path 192052" d="M-6391.983,1579.115c2.569-1.485,3.586.566,3.593,3.581.013,3.415-1.177,6.442-3.625,7.853-2.48,1.438-3.58-.5-3.6-3.612C-6395.627,1583.754-6394.457,1580.546-6391.983,1579.115Zm.019,9.444c.877-.5,1.335-2.023,1.329-4.538-.007-2.426-.464-3.462-1.361-2.947-.833.477-1.393,2.016-1.361,4.556-.019,2.547.515,3.434,1.393,2.929Z" fill="#084a93" opacity="0.35"/>
        </g>
        <g id="Group_130157" data-name="Group 130157">
          <path id="Path_192053" data-name="Path 192053" d="M-6383.792,1574.387c2.569-1.488,3.586.563,3.6,3.584.006,3.405-1.183,6.435-3.625,7.853-2.486,1.428-3.593-.509-3.606-3.618C-6387.43,1579.023-6386.266,1575.821-6383.792,1574.387Zm.019,9.444c.877-.506,1.335-2.019,1.329-4.544-.007-2.423-.465-3.459-1.361-2.944-.827.48-1.386,2.015-1.361,4.559-.013,2.544.515,3.434,1.393,2.929Z" fill="#084a93" opacity="0.35"/>
        </g>
        <g id="Group_130158" data-name="Group 130158">
          <path id="Path_192054" data-name="Path 192054" d="M-6375.6,1569.656c2.569-1.485,3.586.569,3.593,3.583.006,3.409-1.183,6.436-3.632,7.854-2.48,1.428-3.58-.506-3.6-3.619C-6379.246,1574.3-6378.076,1571.084-6375.6,1569.656Zm.012,9.446c.878-.505,1.336-2.022,1.329-4.54-.006-2.429-.464-3.466-1.36-2.944-.827.477-1.393,2.009-1.361,4.553-.013,2.547.521,3.434,1.392,2.931Z" fill="#084a93" opacity="0.35"/>
        </g>
        <g id="Group_130159" data-name="Group 130159">
          <path id="Path_192055" data-name="Path 192055" d="M-6365.878,1564.234l.032,11.021-2.168,1.246-.025-8.725-.032.022-1.825,2.044-.382-1.717,2.544-2.817Z" fill="#084a93" opacity="0.35"/>
        </g>
        <g id="Group_130160" data-name="Group 130160">
          <path id="Path_192056" data-name="Path 192056" d="M-6359.214,1560.2c2.569-1.481,3.587.573,3.593,3.584.007,3.405-1.183,6.438-3.625,7.85-2.48,1.431-3.586-.5-3.6-3.615C-6362.858,1564.839-6361.694,1561.633-6359.214,1560.2Zm.013,9.444c.877-.5,1.342-2.022,1.329-4.534,0-2.433-.464-3.466-1.354-2.954-.834.48-1.393,2.019-1.361,4.563-.013,2.543.515,3.431,1.386,2.925Z" fill="#084a93" opacity="0.35"/>
        </g>
        <g id="Group_130161" data-name="Group 130161">
          <path id="Path_192057" data-name="Path 192057" d="M-6351.023,1555.465c2.569-1.482,3.587.569,3.593,3.584.013,3.411-1.176,6.438-3.625,7.853-2.48,1.434-3.586-.505-3.6-3.612C-6354.667,1560.107-6353.5,1556.9-6351.023,1555.465Zm.013,9.447c.884-.5,1.341-2.019,1.335-4.538-.012-2.435-.464-3.466-1.361-2.947-.833.48-1.392,2.013-1.361,4.556-.019,2.544.515,3.437,1.387,2.929Z" fill="#084a93" opacity="0.35"/>
        </g>
        <g id="Group_130162" data-name="Group 130162">
          <path id="Path_192058" data-name="Path 192058" d="M-6342.832,1550.734c2.569-1.479,3.586.572,3.6,3.586.007,3.409-1.183,6.442-3.631,7.851-2.48,1.434-3.58-.5-3.606-3.612C-6346.476,1555.376-6345.306,1552.168-6342.832,1550.734Zm.019,9.45c.871-.506,1.335-2.023,1.329-4.541-.007-2.429-.464-3.466-1.361-2.951-.827.487-1.393,2.016-1.367,4.566-.013,2.541.521,3.428,1.4,2.926Z" fill="#084a93" opacity="0.35"/>
        </g>
        <g id="Group_130163" data-name="Group 130163">
          <path id="Path_192059" data-name="Path 192059" d="M-6333.122,1545.325l.032,11.011-2.156,1.246-.025-8.725-.032.019-1.825,2.048-.381-1.717,2.537-2.817Z" fill="#084a93" opacity="0.35"/>
        </g>
        <g id="Group_130164" data-name="Group 130164">
          <path id="Path_192060" data-name="Path 192060" d="M-6326.444,1541.278c2.569-1.482,3.58.565,3.586,3.583.013,3.412-1.176,6.442-3.625,7.85-2.473,1.438-3.58-.5-3.6-3.612C-6330.1,1545.92-6328.924,1542.708-6326.444,1541.278Zm.012,9.443c.865-.5,1.336-2.016,1.329-4.537-.006-2.426-.464-3.463-1.36-2.948-.834.477-1.393,2.016-1.361,4.56-.013,2.544.521,3.434,1.392,2.925Z" fill="#084a93" opacity="0.35"/>
        </g>
        <g id="Group_130165" data-name="Group 130165">
          <path id="Path_192061" data-name="Path 192061" d="M-6318.26,1536.552c2.576-1.485,3.593.566,3.6,3.581.006,3.415-1.183,6.438-3.625,7.853-2.48,1.431-3.587-.508-3.606-3.618C-6321.9,1541.192-6320.734,1537.983-6318.26,1536.552Zm.019,9.441c.878-.506,1.342-2.019,1.329-4.538-.006-2.429-.464-3.465-1.354-2.944-.833.477-1.393,2.01-1.368,4.557-.012,2.54.522,3.43,1.393,2.925Z" fill="#084a93" opacity="0.35"/>
        </g>
        <g id="Group_130166" data-name="Group 130166">
          <path id="Path_192062" data-name="Path 192062" d="M-6310.063,1531.818c2.57-1.482,3.587.569,3.593,3.583.007,3.412-1.176,6.442-3.625,7.854-2.48,1.428-3.58-.5-3.6-3.615C-6313.707,1536.46-6312.543,1533.252-6310.063,1531.818Zm.019,9.447c.871-.506,1.336-2.022,1.33-4.541-.013-2.423-.471-3.466-1.361-2.944-.834.477-1.393,2.016-1.368,4.553-.012,2.55.522,3.434,1.4,2.932Z" fill="#084a93" opacity="0.35"/>
        </g>
        <g id="Group_130167" data-name="Group 130167">
          <path id="Path_192063" data-name="Path 192063" d="M-6300.352,1526.406l.032,11.018-2.162,1.24-.025-8.722-.025.019-1.832,2.044-.382-1.711,2.544-2.82Z" fill="#084a93" opacity="0.35"/>
        </g>
        <g id="Group_130168" data-name="Group 130168">
          <path id="Path_192064" data-name="Path 192064" d="M-6293.675,1522.358c2.563-1.481,3.58.573,3.593,3.584.007,3.412-1.183,6.439-3.631,7.857-2.48,1.431-3.58-.509-3.6-3.618C-6297.325,1527-6296.161,1523.8-6293.675,1522.358Zm.006,9.451c.872-.5,1.343-2.023,1.336-4.541-.007-2.432-.464-3.466-1.374-2.941-.82.473-1.38,2.006-1.348,4.55-.019,2.543.515,3.431,1.386,2.932Z" fill="#084a93" opacity="0.35"/>
        </g>
        <g id="Group_130169" data-name="Group 130169">
          <path id="Path_192065" data-name="Path 192065" d="M-6285.49,1517.627c2.569-1.482,3.586.573,3.593,3.59.012,3.4-1.177,6.439-3.625,7.851-2.48,1.43-3.587-.509-3.6-3.616C-6289.134,1522.27-6287.971,1519.064-6285.49,1517.627Zm.019,9.447c.864-.5,1.335-2.019,1.329-4.537-.006-2.43-.465-3.466-1.361-2.948-.833.48-1.393,2.016-1.361,4.56-.019,2.546.521,3.434,1.393,2.925Z" fill="#084a93" opacity="0.35"/>
        </g>
        <path id="Path_192066" data-name="Path 192066" d="M-6327.837,1463.284l.032,11.017-2.162,1.247-.025-8.732-.032.022-1.825,2.051-.382-1.72,2.544-2.817Z" fill="#084a93" opacity="0.35"/>
        <path id="Path_192067" data-name="Path 192067" d="M-6319.646,1458.556l.032,11.014-2.156,1.246-.025-8.725-.038.019-1.819,2.044-.382-1.714,2.538-2.817Z" fill="#084a93" opacity="0.35"/>
        <path id="Path_192068" data-name="Path 192068" d="M-6312.969,1454.511c2.563-1.482,3.58.553,3.587,3.583.012,3.412-1.177,6.426-3.625,7.838-2.48,1.431-3.58-.489-3.606-3.6C-6316.619,1459.153-6315.449,1455.942-6312.969,1454.511Zm.013,9.444c.877-.509,1.335-2.016,1.329-4.538-.006-2.429-.464-3.462-1.361-2.947-.833.477-1.393,2.016-1.361,4.556-.019,2.547.515,3.434,1.393,2.929Z" fill="#084a93" opacity="0.35"/>
        <path id="Path_192069" data-name="Path 192069" d="M-6304.784,1449.78c2.575-1.485,3.586.553,3.6,3.583.006,3.412-1.183,6.43-3.625,7.845-2.48,1.43-3.587-.5-3.606-3.606C-6308.422,1454.422-6307.258,1451.217-6304.784,1449.78Zm.018,9.447c.866-.5,1.336-2.02,1.33-4.541-.007-2.426-.464-3.463-1.355-2.945-.833.481-1.4,2.013-1.367,4.56-.013,2.544.521,3.428,1.392,2.926Z" fill="#084a93" opacity="0.35"/>
        <path id="Path_192070" data-name="Path 192070" d="M-6296.587,1445.051c2.563-1.481,3.586.557,3.593,3.584.006,3.409-1.183,6.426-3.632,7.841-2.473,1.434-3.58-.493-3.6-3.6C-6300.231,1449.694-6299.068,1446.486-6296.587,1445.051Zm.019,9.444c.858-.5,1.335-2.019,1.323-4.537-.007-2.429-.465-3.466-1.368-2.938-.82.471-1.38,2-1.354,4.547-.013,2.544.521,3.434,1.4,2.928Z" fill="#084a93" opacity="0.35"/>
        <path id="Path_192071" data-name="Path 192071" d="M-6288.4,1440.32c2.569-1.485,3.587.56,3.593,3.59.007,3.406-1.182,6.423-3.624,7.835-2.481,1.434-3.587-.493-3.606-3.6C-6292.041,1444.966-6290.877,1441.754-6288.4,1440.32Zm.019,9.447c.865-.5,1.336-2.022,1.329-4.54-.006-2.427-.464-3.466-1.367-2.945-.826.48-1.386,2.013-1.36,4.56-.02,2.543.521,3.427,1.4,2.925Z" fill="#084a93" opacity="0.35"/>
        <path id="Path_192072" data-name="Path 192072" d="M-6345.681,1493.78c2.569-1.482,3.58.572,3.586,3.583.013,3.412-1.17,6.442-3.624,7.857-2.474,1.431-3.581-.509-3.6-3.618C-6349.325,1498.422-6348.161,1495.217-6345.681,1493.78Zm.019,9.446c.871-.505,1.336-2.019,1.322-4.537-.006-2.432-.457-3.466-1.36-2.951-.827.484-1.387,2.016-1.361,4.56-.013,2.544.521,3.431,1.4,2.928Z" fill="#084a93" opacity="0.35"/>
        <path id="Path_192073" data-name="Path 192073" d="M-6335.97,1488.365l.031,11.018-2.162,1.25-.02-8.735-.038.026-1.825,2.048-.375-1.72,2.537-2.817Z" fill="#084a93" opacity="0.35"/>
        <path id="Path_192074" data-name="Path 192074" d="M-6329.3,1484.324c2.569-1.482,3.587.565,3.593,3.58.013,3.409-1.176,6.442-3.624,7.854-2.481,1.43-3.587-.506-3.606-3.616C-6332.944,1488.959-6331.773,1485.751-6329.3,1484.324Zm.019,9.443c.865-.5,1.336-2.019,1.329-4.541-.006-2.429-.464-3.462-1.36-2.944-.833.48-1.393,2.01-1.361,4.554-.013,2.546.521,3.434,1.392,2.931Z" fill="#084a93" opacity="0.35"/>
        <path id="Path_192075" data-name="Path 192075" d="M-6321.109,1479.592c2.569-1.481,3.587.566,3.6,3.587.006,3.408-1.183,6.436-3.625,7.847-2.487,1.437-3.593-.5-3.612-3.612C-6324.753,1484.234-6323.583,1481.026-6321.109,1479.592Zm.019,9.444c.871-.5,1.336-2.019,1.329-4.538-.006-2.429-.464-3.462-1.361-2.947-.833.48-1.392,2.016-1.361,4.559-.018,2.544.516,3.435,1.393,2.926Z" fill="#084a93" opacity="0.35"/>
        <path id="Path_192076" data-name="Path 192076" d="M-6312.912,1474.867c2.57-1.488,3.581.566,3.587,3.581.013,3.408-1.177,6.438-3.625,7.847-2.474,1.437-3.58-.5-3.6-3.612C-6316.562,1479.5-6315.392,1476.3-6312.912,1474.867Zm.019,9.437c.872-.5,1.33-2.022,1.323-4.534-.006-2.429-.458-3.466-1.361-2.95-.833.483-1.392,2.019-1.361,4.556-.012,2.547.522,3.437,1.4,2.928Z" fill="#084a93" opacity="0.35"/>
        <path id="Path_192077" data-name="Path 192077" d="M-6303.2,1469.449l.032,11.014-2.163,1.246-.025-8.725-.032.019-1.825,2.048-.381-1.717,2.544-2.817Z" fill="#084a93" opacity="0.35"/>
        <path id="Path_192078" data-name="Path 192078" d="M-6296.536,1465.4c2.575-1.478,3.592.57,3.6,3.584.006,3.412-1.183,6.442-3.625,7.853-2.48,1.435-3.587-.5-3.6-3.611C-6300.174,1470.044-6299.01,1466.835-6296.536,1465.4Zm.018,9.447c.866-.5,1.343-2.019,1.336-4.54-.013-2.43-.47-3.463-1.374-2.939-.82.474-1.38,2.01-1.354,4.554-.013,2.541.521,3.427,1.392,2.925Z" fill="#084a93" opacity="0.35"/>
        <path id="Path_192079" data-name="Path 192079" d="M-6288.339,1460.673c2.569-1.482,3.58.573,3.593,3.587.012,3.405-1.183,6.439-3.625,7.847-2.48,1.437-3.587-.5-3.606-3.612C-6291.983,1465.316-6290.82,1462.107-6288.339,1460.673Zm.019,9.444c.864-.5,1.335-2.019,1.329-4.534-.006-2.433-.465-3.466-1.367-2.951-.827.48-1.387,2.016-1.361,4.56-.013,2.543.521,3.433,1.4,2.925Z" fill="#084a93" opacity="0.35"/>
        <path id="Path_192080" data-name="Path 192080" d="M-6353.815,1518.864c2.57-1.485,3.587.569,3.593,3.584.007,3.408-1.176,6.422-3.625,7.841-2.486,1.43-3.586-.5-3.6-3.6C-6357.465,1523.5-6356.295,1520.3-6353.815,1518.864Zm.013,9.447c.877-.509,1.336-2.023,1.336-4.541-.007-2.429-.471-3.465-1.368-2.944-.827.477-1.386,2.009-1.361,4.553-.012,2.544.522,3.434,1.393,2.932Z" fill="#084a93" opacity="0.35"/>
        <path id="Path_192081" data-name="Path 192081" d="M-6344.091,1513.443l.025,11.014-2.162,1.256-.032-8.728-.032.019-1.818,2.048-.388-1.72,2.544-2.814Z" fill="#084a93" opacity="0.35"/>
        <path id="Path_192082" data-name="Path 192082" d="M-6335.914,1508.721l.032,11.011-2.163,1.25-.019-8.728-.038.019-1.819,2.048-.382-1.717,2.538-2.817Z" fill="#084a93" opacity="0.35"/>
        <path id="Path_192083" data-name="Path 192083" d="M-6329.242,1504.673c2.569-1.481,3.586.569,3.6,3.587.006,3.405-1.183,6.423-3.631,7.838-2.48,1.431-3.58-.493-3.6-3.6C-6332.88,1509.316-6331.716,1506.1-6329.242,1504.673Zm.019,9.45c.864-.5,1.335-2.025,1.329-4.54-.006-2.436-.465-3.469-1.361-2.951-.833.48-1.393,2.016-1.367,4.559-.007,2.544.521,3.435,1.4,2.932Z" fill="#084a93" opacity="0.35"/>
        <path id="Path_192084" data-name="Path 192084" d="M-6319.532,1499.262l.032,11.014-2.156,1.246-.025-8.725-.032.019-1.825,2.044-.382-1.714,2.538-2.824Z" fill="#084a93" opacity="0.35"/>
        <path id="Path_192085" data-name="Path 192085" d="M-6311.341,1494.53l.032,11.014-2.156,1.247-.025-8.725-.032.019-1.826,2.051-.381-1.72,2.543-2.817Z" fill="#084a93" opacity="0.35"/>
        <path id="Path_192086" data-name="Path 192086" d="M-6303.15,1489.8l.032,11.017-2.156,1.246-.02-8.732-.038.026-1.825,2.041-.382-1.714,2.543-2.817Z" fill="#084a93" opacity="0.35"/>
        <path id="Path_192087" data-name="Path 192087" d="M-6296.473,1485.758c2.569-1.482,3.587.569,3.593,3.583.013,3.409-1.176,6.423-3.625,7.838-2.48,1.431-3.586-.49-3.606-3.6C-6300.117,1490.4-6298.953,1487.189-6296.473,1485.758Zm.019,9.443c.859-.5,1.336-2.019,1.329-4.537-.012-2.43-.464-3.466-1.373-2.938-.821.467-1.38,2-1.355,4.547-.013,2.543.521,3.434,1.4,2.928Z" fill="#084a93" opacity="0.35"/>
        <path id="Path_192088" data-name="Path 192088" d="M-6288.282,1481.026c2.569-1.485,3.587.569,3.593,3.59.006,3.405-1.177,6.423-3.625,7.835-2.48,1.434-3.58-.5-3.6-3.6C-6291.926,1485.665-6290.762,1482.46-6288.282,1481.026Zm.019,9.447c.859-.5,1.336-2.022,1.329-4.541-.006-2.432-.47-3.465-1.361-2.944-.833.477-1.393,2.01-1.367,4.553-.013,2.544.521,3.434,1.4,2.932Z" fill="#084a93" opacity="0.35"/>
      </g>
      <g id="Group_130171" data-name="Group 130171" opacity="0.1">
        <path id="Path_192089" data-name="Path 192089" d="M-6192.079,1602.638c28.407,16.39,28.56,43,.325,59.4-28.191,16.394-74.092,16.394-102.506-.013-28.388-16.394-28.547-43-.331-59.372C-6266.381,1586.253-6220.479,1586.253-6192.079,1602.638Z"/>
      </g>
      <g id="Group_130172" data-name="Group 130172">
        <path id="Path_192090" data-name="Path 192090" d="M-6224.085,1436.234v.691l-2.327,1.341v-.833c0-2.289-.757-3.2-2.519-2.181s-2.518,2.8-2.518,5.052c0,5.708,7.4,1.981,7.4,9.148a10.2,10.2,0,0,1-4.979,9.234c-3.371,1.946-4.941.343-4.941-3.51v-1.454l2.3-1.329v1.6c0,2.289.82,3.167,2.581,2.146a5.5,5.5,0,0,0,2.582-5.126c0-5.672-7.364-1.961-7.364-9.125,0-3.927,1.571-7.272,4.878-9.183C-6225.656,1430.781-6224.085,1432.378-6224.085,1436.234Z" fill="#084a93" opacity="0.35" style="isolation: isolate"/>
        <path id="Path_192091" data-name="Path 192091" d="M-6211.983,1429.284v13.163a11.632,11.632,0,0,1-.852,4.455c.254.471.661.42,1.354.019l.312-.184v2.512l-.407.235c-1.386.8-2.3.744-2.8-.019a9.563,9.563,0,0,1-2.671,2.308c-3.37,1.946-5.036.363-5.036-3.491l-.006-13.163a10.336,10.336,0,0,1,5.042-9.307C-6213.656,1423.85-6211.983,1425.4-6211.983,1429.284Zm-7.682,4.292v13.453c0,2.328.845,3.18,2.613,2.162a5.544,5.544,0,0,0,2.614-5.182v-13.45c0-2.289-.82-3.2-2.614-2.166A5.6,5.6,0,0,0-6219.665,1433.576Z" fill="#084a93" opacity="0.35" style="isolation: isolate"/>
        <path id="Path_192092" data-name="Path 192092" d="M-6209.236,1447v-25.45l2.455-1.418v22.871l6.295-3.634v2.582Z" fill="#084a93" opacity="0.35" style="isolation: isolate"/>
      </g>
      <g id="Group_130173" data-name="Group 130173" opacity="0.6">
        <path id="Path_192093" data-name="Path 192093" d="M-6371.71,1630.3l-9.755,1.017v-2.035l9.755-10.251v2.073l-7.459,7.867,7.459-.744Z" fill="#a9ddfc" opacity="0.35" style="isolation: isolate"/>
        <path id="Path_192094" data-name="Path 192094" d="M-6359.106,1604.67l-8.687,30.466-2.143,1.24,8.687-30.472Z" fill="#a9ddfc" opacity="0.35" style="isolation: isolate"/>
        <path id="Path_192095" data-name="Path 192095" d="M-6357.338,1619.937l7.466-7.873-7.466.744v-2.073l9.762-1.017v2.035l-9.762,10.257Z" fill="#a9ddfc" opacity="0.35" style="isolation: isolate"/>
      </g>
      <g id="Group_130241" data-name="Group 130241" opacity="0.4">
        <g id="Group_130174" data-name="Group 130174">
          <path id="Path_192096" data-name="Path 192096" d="M-6220.705,1487.082l.032,11.73-2.3,1.332-.025-9.3-.038.019-1.946,2.178-.4-1.828,2.709-3Z" fill="#004996" opacity="0.35"/>
        </g>
        <g id="Group_130175" data-name="Group 130175">
          <path id="Path_192097" data-name="Path 192097" d="M-6213.6,1482.764c2.741-1.574,3.821.61,3.835,3.822.012,3.634-1.266,6.849-3.867,8.349-2.639,1.527-3.822-.521-3.841-3.84C-6217.475,1487.708-6216.234,1484.293-6213.6,1482.764Zm.019,10.067c.935-.541,1.424-2.153,1.418-4.84-.013-2.582-.5-3.688-1.45-3.135-.884.512-1.488,2.143-1.45,4.852-.019,2.709.553,3.663,1.482,3.123Z" fill="#004996" opacity="0.35"/>
        </g>
        <g id="Group_130176" data-name="Group 130176">
          <path id="Path_192098" data-name="Path 192098" d="M-6204.864,1477.727c2.735-1.577,3.822.611,3.828,3.816.007,3.631-1.259,6.852-3.866,8.356-2.639,1.526-3.822-.528-3.835-3.841C-6208.75,1482.669-6207.509,1479.25-6204.864,1477.727Zm.013,10.067c.935-.54,1.431-2.149,1.418-4.839-.006-2.589-.49-3.689-1.45-3.139-.884.512-1.482,2.143-1.45,4.856-.013,2.706.553,3.659,1.482,3.122Z" fill="#004996" opacity="0.35"/>
        </g>
        <g id="Group_130177" data-name="Group 130177">
          <path id="Path_192099" data-name="Path 192099" d="M-6194.518,1471.959l.032,11.733-2.3,1.336-.025-9.3-.032.025-1.946,2.178-.407-1.828,2.7-3Z" fill="#004996" opacity="0.35"/>
        </g>
        <g id="Group_130178" data-name="Group 130178">
          <path id="Path_192100" data-name="Path 192100" d="M-6187.408,1467.654c2.729-1.587,3.822.6,3.829,3.812.006,3.635-1.266,6.853-3.867,8.357-2.645,1.523-3.815-.528-3.841-3.841C-6191.293,1472.595-6190.053,1469.174-6187.408,1467.654Zm.013,10.061c.929-.535,1.425-2.15,1.418-4.837-.006-2.591-.489-3.691-1.456-3.138-.878.509-1.475,2.149-1.444,4.852-.012,2.716.547,3.663,1.482,3.123Z" fill="#004996" opacity="0.35"/>
        </g>
        <g id="Group_130179" data-name="Group 130179">
          <path id="Path_192101" data-name="Path 192101" d="M-6178.676,1462.614c2.728-1.586,3.815.6,3.822,3.813.012,3.634-1.253,6.852-3.867,8.353-2.639,1.529-3.815-.525-3.835-3.838C-6182.568,1467.552-6181.322,1464.138-6178.676,1462.614Zm.012,10.058c.935-.535,1.425-2.147,1.419-4.833-.007-2.589-.5-3.695-1.457-3.142-.884.512-1.475,2.15-1.45,4.858-.012,2.71.56,3.657,1.488,3.117Z" fill="#004996" opacity="0.35"/>
        </g>
        <g id="Group_130180" data-name="Group 130180">
          <path id="Path_192102" data-name="Path 192102" d="M-6169.951,1457.575c2.734-1.581,3.815.6,3.828,3.815.006,3.631-1.259,6.849-3.867,8.35-2.645,1.529-3.821-.521-3.841-3.841C-6173.837,1462.516-6172.6,1459.094-6169.951,1457.575Zm.012,10.06c.935-.534,1.425-2.156,1.419-4.836-.007-2.588-.5-3.692-1.45-3.138-.884.508-1.476,2.143-1.451,4.852-.018,2.712.547,3.663,1.482,3.122Z" fill="#004996" opacity="0.35"/>
        </g>
        <g id="Group_130181" data-name="Group 130181">
          <path id="Path_192103" data-name="Path 192103" d="M-6248.444,1524.608c2.741-1.577,3.822.6,3.828,3.816.006,3.631-1.253,6.849-3.86,8.356-2.646,1.523-3.816-.528-3.847-3.838C-6252.33,1529.556-6251.084,1526.134-6248.444,1524.608Zm.019,10.061c.928-.538,1.424-2.15,1.418-4.837-.013-2.585-.5-3.688-1.456-3.138-.878.515-1.482,2.143-1.45,4.862-.013,2.706.559,3.653,1.488,3.113Z" fill="#004996" opacity="0.35"/>
        </g>
        <g id="Group_130182" data-name="Group 130182">
          <path id="Path_192104" data-name="Path 192104" d="M-6239.719,1519.572c2.741-1.584,3.822.6,3.828,3.815.013,3.631-1.253,6.849-3.86,8.35-2.639,1.523-3.816-.525-3.841-3.835C-6243.6,1524.516-6242.352,1521.092-6239.719,1519.572Zm.025,10.06c.929-.541,1.418-2.15,1.412-4.836-.007-2.585-.5-3.692-1.45-3.139-.89.509-1.482,2.144-1.45,4.856-.013,2.712.553,3.656,1.488,3.119Z" fill="#004996" opacity="0.35"/>
        </g>
        <g id="Group_130183" data-name="Group 130183">
          <path id="Path_192105" data-name="Path 192105" d="M-6230.988,1514.532c2.735-1.58,3.816.6,3.828,3.812.013,3.638-1.253,6.852-3.86,8.356-2.645,1.527-3.815-.528-3.841-3.838C-6234.867,1519.473-6233.627,1516.055-6230.988,1514.532Zm.025,10.06c.922-.537,1.419-2.149,1.412-4.836-.013-2.588-.5-3.688-1.45-3.141-.884.511-1.482,2.143-1.456,4.858-.019,2.709.553,3.657,1.494,3.119Z" fill="#004996" opacity="0.35"/>
        </g>
        <g id="Group_130184" data-name="Group 130184">
          <path id="Path_192106" data-name="Path 192106" d="M-6220.648,1508.76l.038,11.739-2.3,1.326-.019-9.3-.038.025-1.946,2.175-.407-1.828,2.709-3Z" fill="#004996" opacity="0.35"/>
        </g>
        <g id="Group_130185" data-name="Group 130185">
          <path id="Path_192107" data-name="Path 192107" d="M-6211.9,1503.712l.032,11.739-2.309,1.336-.025-9.3-.038.022-1.939,2.181-.414-1.825,2.709-3.008Z" fill="#004996" opacity="0.35"/>
        </g>
        <g id="Group_130186" data-name="Group 130186">
          <path id="Path_192108" data-name="Path 192108" d="M-6203.179,1498.675l.038,11.739-2.315,1.329-.025-9.294-.038.022-1.939,2.178-.407-1.822,2.709-3Z" fill="#004996" opacity="0.35"/>
        </g>
        <g id="Group_130187" data-name="Group 130187">
          <path id="Path_192109" data-name="Path 192109" d="M-6196.075,1494.376c2.734-1.58,3.821.6,3.828,3.815.013,3.635-1.259,6.846-3.86,8.354-2.646,1.523-3.822-.528-3.841-3.838C-6199.961,1499.32-6198.715,1495.9-6196.075,1494.376Zm.019,10.06c.934-.54,1.424-2.152,1.418-4.839-.013-2.582-.5-3.688-1.457-3.135-.877.508-1.481,2.143-1.449,4.858-.02,2.709.553,3.657,1.488,3.116Z" fill="#004996" opacity="0.35"/>
        </g>
        <g id="Group_130188" data-name="Group 130188">
          <path id="Path_192110" data-name="Path 192110" d="M-6187.344,1489.333c2.735-1.577,3.815.61,3.822,3.822.006,3.631-1.253,6.846-3.86,8.35-2.639,1.526-3.822-.522-3.835-3.841C-6191.23,1494.274-6189.99,1490.859-6187.344,1489.333Zm.013,10.064c.922-.531,1.418-2.147,1.418-4.833-.007-2.592-.5-3.692-1.45-3.142-.884.509-1.488,2.146-1.45,4.856-.019,2.708.553,3.656,1.482,3.119Z" fill="#004996" opacity="0.35"/>
        </g>
        <g id="Group_130189" data-name="Group 130189">
          <path id="Path_192111" data-name="Path 192111" d="M-6178.619,1484.3c2.735-1.578,3.822.6,3.828,3.818.013,3.628-1.259,6.846-3.866,8.353-2.64,1.52-3.816-.528-3.835-3.841C-6182.5,1489.237-6181.258,1485.819-6178.619,1484.3Zm.019,10.06c.928-.537,1.425-2.149,1.412-4.836-.013-2.585-.49-3.689-1.45-3.139-.884.509-1.482,2.143-1.45,4.856-.019,2.712.553,3.656,1.488,3.119Z" fill="#004996" opacity="0.35"/>
        </g>
        <g id="Group_130190" data-name="Group 130190">
          <path id="Path_192112" data-name="Path 192112" d="M-6168.272,1478.525l.032,11.739-2.3,1.326-.025-9.3-.032.019-1.952,2.181-.4-1.831,2.709-3Z" fill="#004996" opacity="0.35"/>
        </g>
        <g id="Group_130191" data-name="Group 130191">
          <path id="Path_192113" data-name="Path 192113" d="M-6161.163,1474.217c2.735-1.584,3.816.607,3.822,3.815.019,3.632-1.253,6.85-3.86,8.357-2.639,1.526-3.816-.528-3.835-3.838C-6165.048,1479.165-6163.808,1475.743-6161.163,1474.217Zm.013,10.064c.922-.531,1.431-2.153,1.424-4.837-.012-2.588-.5-3.688-1.456-3.141-.884.515-1.482,2.146-1.456,4.858-.013,2.709.559,3.657,1.488,3.12Z" fill="#004996" opacity="0.35"/>
        </g>
        <g id="Group_130192" data-name="Group 130192">
          <path id="Path_192114" data-name="Path 192114" d="M-6152.431,1469.18c2.734-1.58,3.809.6,3.821,3.816.013,3.634-1.259,6.849-3.866,8.356-2.633,1.52-3.816-.528-3.835-3.841C-6156.317,1474.122-6155.077,1470.7-6152.431,1469.18Zm.012,10.061c.922-.534,1.425-2.15,1.418-4.836-.006-2.589-.5-3.692-1.469-3.132-.865.5-1.469,2.136-1.431,4.848-.019,2.713.547,3.661,1.482,3.12Z" fill="#004996" opacity="0.35"/>
        </g>
        <g id="Group_130193" data-name="Group 130193">
          <path id="Path_192115" data-name="Path 192115" d="M-6143.706,1464.144c2.728-1.584,3.815.6,3.828,3.812.006,3.634-1.26,6.852-3.867,8.353-2.645,1.523-3.822-.528-3.841-3.841C-6147.592,1469.085-6146.346,1465.664-6143.706,1464.144Zm.012,10.06c.922-.534,1.425-2.149,1.418-4.839-.006-2.588-.5-3.689-1.45-3.138-.884.511-1.488,2.146-1.45,4.855-.019,2.709.547,3.66,1.482,3.122Z" fill="#004996" opacity="0.35"/>
        </g>
        <g id="Group_130194" data-name="Group 130194">
          <path id="Path_192116" data-name="Path 192116" d="M-6283.293,1566.449c2.734-1.58,3.822.592,3.828,3.812.013,3.638-1.259,6.853-3.866,8.357-2.64,1.526-3.816-.522-3.835-3.838C-6287.172,1571.394-6285.932,1567.972-6283.293,1566.449Zm.019,10.061c.928-.538,1.424-2.15,1.412-4.837-.007-2.588-.49-3.688-1.444-3.135-.89.5-1.488,2.143-1.456,4.852-.013,2.709.553,3.657,1.488,3.12Z" fill="#004996" opacity="0.35"/>
        </g>
        <g id="Group_130195" data-name="Group 130195">
          <path id="Path_192117" data-name="Path 192117" d="M-6274.562,1561.409c2.735-1.58,3.816.592,3.828,3.822.007,3.628-1.259,6.843-3.866,8.347-2.646,1.529-3.816-.522-3.841-3.838C-6278.447,1566.35-6277.207,1562.929-6274.562,1561.409Zm.013,10.061c.935-.541,1.424-2.15,1.412-4.833-.007-2.589-.49-3.695-1.444-3.142-.884.512-1.482,2.15-1.45,4.856-.013,2.712.553,3.659,1.482,3.119Z" fill="#004996" opacity="0.35"/>
        </g>
        <g id="Group_130196" data-name="Group 130196">
          <path id="Path_192118" data-name="Path 192118" d="M-6265.837,1556.373c2.734-1.584,3.816.585,3.828,3.815.013,3.632-1.259,6.849-3.86,8.353-2.645,1.526-3.822-.531-3.847-3.837C-6269.723,1561.314-6268.482,1557.9-6265.837,1556.373Zm.019,10.06c.929-.534,1.418-2.149,1.412-4.836-.006-2.591-.5-3.692-1.45-3.138-.878.511-1.482,2.143-1.45,4.852-.013,2.715.553,3.66,1.488,3.122Z" fill="#004996" opacity="0.35"/>
        </g>
        <g id="Group_130197" data-name="Group 130197">
          <path id="Path_192119" data-name="Path 192119" d="M-6255.478,1550.592l.026,11.739-2.309,1.332-.025-9.3-.032.022-1.946,2.181-.407-1.825,2.709-3.005Z" fill="#004996" opacity="0.35"/>
        </g>
        <g id="Group_130198" data-name="Group 130198">
          <path id="Path_192120" data-name="Path 192120" d="M-6248.381,1546.29c2.741-1.58,3.816.595,3.829,3.822.012,3.628-1.259,6.846-3.86,8.35-2.646,1.526-3.829-.522-3.841-3.838C-6252.266,1551.238-6251.02,1547.819-6248.381,1546.29Zm.013,10.064c.935-.541,1.424-2.156,1.418-4.833-.006-2.589-.5-3.692-1.45-3.142-.884.509-1.475,2.15-1.45,4.859-.019,2.709.554,3.656,1.482,3.116Z" fill="#004996" opacity="0.35"/>
        </g>
        <g id="Group_130199" data-name="Group 130199">
          <path id="Path_192121" data-name="Path 192121" d="M-6239.649,1541.253c2.728-1.58,3.815.595,3.828,3.819.006,3.631-1.265,6.849-3.867,8.35-2.645,1.526-3.822-.521-3.84-3.835C-6243.541,1546.2-6242.3,1542.777-6239.649,1541.253Zm.012,10.061c.935-.538,1.425-2.15,1.412-4.83-.006-2.591-.489-3.7-1.45-3.144-.884.511-1.481,2.146-1.443,4.855-.02,2.709.553,3.656,1.481,3.119Z" fill="#004996" opacity="0.35"/>
        </g>
        <g id="Group_130200" data-name="Group 130200">
          <path id="Path_192122" data-name="Path 192122" d="M-6230.924,1536.214c2.734-1.577,3.822.594,3.828,3.822.006,3.628-1.259,6.842-3.867,8.35-2.639,1.526-3.822-.528-3.841-3.841C-6234.81,1541.155-6233.57,1537.737-6230.924,1536.214Zm.012,10.06c.935-.537,1.431-2.149,1.418-4.833-.006-2.591-.489-3.691-1.449-3.141-.884.509-1.482,2.149-1.45,4.855-.02,2.712.553,3.66,1.481,3.119Z" fill="#004996" opacity="0.35"/>
        </g>
        <g id="Group_130201" data-name="Group 130201">
          <path id="Path_192123" data-name="Path 192123" d="M-6222.193,1531.177c2.728-1.583,3.816.585,3.822,3.816.012,3.631-1.253,6.849-3.867,8.349-2.639,1.53-3.815-.524-3.834-3.837C-6226.085,1536.118-6224.839,1532.7-6222.193,1531.177Zm.013,10.061c.928-.538,1.424-2.153,1.411-4.837-.006-2.591-.489-3.691-1.449-3.141-.884.512-1.476,2.146-1.444,4.855-.019,2.713.547,3.66,1.482,3.123Z" fill="#004996" opacity="0.35"/>
        </g>
        <g id="Group_130202" data-name="Group 130202">
          <path id="Path_192124" data-name="Path 192124" d="M-6213.468,1526.134c2.734-1.577,3.816.595,3.828,3.816.007,3.637-1.259,6.852-3.866,8.359-2.646,1.523-3.816-.524-3.841-3.841C-6217.36,1531.082-6216.107,1527.66-6213.468,1526.134Zm.013,10.064c.934-.537,1.424-2.156,1.418-4.83-.013-2.588-.5-3.7-1.45-3.148-.884.515-1.482,2.143-1.45,4.859-.019,2.709.553,3.656,1.482,3.119Z" fill="#004996" opacity="0.35"/>
        </g>
        <g id="Group_130203" data-name="Group 130203">
          <path id="Path_192125" data-name="Path 192125" d="M-6204.743,1521.1c2.734-1.58,3.822.591,3.828,3.815.006,3.635-1.253,6.846-3.866,8.353-2.639,1.523-3.816-.521-3.835-3.838C-6208.629,1526.042-6207.382,1522.624-6204.743,1521.1Zm.019,10.06c.935-.54,1.424-2.149,1.412-4.833-.007-2.588-.49-3.695-1.45-3.141-.884.515-1.476,2.143-1.45,4.855-.013,2.712.553,3.66,1.488,3.119Z" fill="#004996" opacity="0.35"/>
        </g>
        <g id="Group_130204" data-name="Group 130204">
          <path id="Path_192126" data-name="Path 192126" d="M-6194.4,1515.33l.032,11.733-2.3,1.329-.025-9.294-.032.016-1.946,2.182-.407-1.825,2.709-3Z" fill="#004996" opacity="0.35"/>
        </g>
        <g id="Group_130205" data-name="Group 130205">
          <path id="Path_192127" data-name="Path 192127" d="M-6185.666,1510.287l.032,11.739-2.3,1.329-.032-9.3-.032.023-1.939,2.178-.407-1.828,2.7-3Z" fill="#004996" opacity="0.35"/>
        </g>
        <g id="Group_130206" data-name="Group 130206">
          <path id="Path_192128" data-name="Path 192128" d="M-6176.947,1505.247l.038,11.739-2.3,1.329-.025-9.3-.032.022-1.946,2.178-.407-1.828,2.709-3Z" fill="#004996" opacity="0.35"/>
        </g>
        <g id="Group_130207" data-name="Group 130207">
          <path id="Path_192129" data-name="Path 192129" d="M-6169.831,1500.939c2.735-1.581,3.816.6,3.829,3.815.006,3.638-1.253,6.853-3.873,8.356-2.633,1.527-3.809-.527-3.835-3.834C-6173.716,1505.886-6172.47,1502.468-6169.831,1500.939Zm.02,10.063c.934-.537,1.418-2.152,1.418-4.83-.013-2.588-.5-3.694-1.457-3.144-.884.509-1.475,2.146-1.449,4.855-.02,2.712.553,3.657,1.488,3.119Z" fill="#004996" opacity="0.35"/>
        </g>
        <g id="Group_130208" data-name="Group 130208">
          <path id="Path_192130" data-name="Path 192130" d="M-6161.106,1495.9c2.741-1.577,3.816.6,3.829,3.825.012,3.631-1.253,6.852-3.861,8.353-2.645,1.526-3.821-.522-3.84-3.841C-6164.991,1500.85-6163.745,1497.425-6161.106,1495.9Zm.02,10.067c.922-.531,1.424-2.15,1.418-4.83-.007-2.592-.5-3.7-1.45-3.145-.884.512-1.482,2.149-1.457,4.856-.012,2.712.56,3.659,1.489,3.119Z" fill="#004996" opacity="0.35"/>
        </g>
        <g id="Group_130209" data-name="Group 130209">
          <path id="Path_192131" data-name="Path 192131" d="M-6152.374,1490.865c2.728-1.583,3.822.592,3.828,3.819,0,3.629-1.259,6.846-3.867,8.347-2.639,1.529-3.815-.522-3.834-3.838C-6156.26,1495.81-6155.02,1492.385-6152.374,1490.865Zm.019,10.061c.916-.534,1.418-2.15,1.412-4.833-.007-2.595-.5-3.7-1.463-3.138-.871.505-1.469,2.143-1.437,4.849-.019,2.715.553,3.659,1.488,3.122Z" fill="#004996" opacity="0.35"/>
        </g>
        <g id="Group_130210" data-name="Group 130210">
          <path id="Path_192132" data-name="Path 192132" d="M-6143.649,1485.826c2.734-1.581,3.815.588,3.828,3.816.013,3.634-1.253,6.848-3.86,8.352-2.646,1.527-3.822-.524-3.841-3.837C-6147.535,1490.77-6146.288,1487.349-6143.649,1485.826Zm.019,10.06c.922-.531,1.424-2.149,1.412-4.836-.007-2.588-.49-3.688-1.444-3.142-.884.509-1.482,2.15-1.456,4.859-.019,2.709.553,3.657,1.488,3.119Z" fill="#004996" opacity="0.35"/>
        </g>
        <g id="Group_130211" data-name="Group 130211">
          <path id="Path_192133" data-name="Path 192133" d="M-6283.23,1588.137c2.735-1.586,3.816.6,3.822,3.816.013,3.628-1.246,6.855-3.86,8.366-2.645,1.523-3.815-.538-3.841-3.857C-6287.122,1593.079-6285.875,1589.654-6283.23,1588.137Zm.02,10.054c.928-.534,1.418-2.149,1.411-4.832-.006-2.589-.5-3.7-1.45-3.142-.884.512-1.481,2.15-1.45,4.858-.019,2.713.547,3.657,1.489,3.116Z" fill="#004996" opacity="0.35"/>
        </g>
        <g id="Group_130212" data-name="Group 130212">
          <path id="Path_192134" data-name="Path 192134" d="M-6274.5,1583.095c2.741-1.578,3.816.6,3.829,3.818.006,3.628-1.253,6.856-3.861,8.363-2.639,1.523-3.821-.538-3.841-3.851C-6278.384,1588.036-6277.144,1584.614-6274.5,1583.095Zm.019,10.06c.935-.537,1.425-2.149,1.412-4.836-.006-2.592-.489-3.692-1.443-3.142-.884.512-1.488,2.15-1.457,4.856-.019,2.712.56,3.659,1.488,3.122Z" fill="#004996" opacity="0.35"/>
        </g>
        <g id="Group_130213" data-name="Group 130213">
          <path id="Path_192135" data-name="Path 192135" d="M-6264.146,1577.32l.032,11.733-2.308,1.336-.032-9.3-.031.022-1.946,2.178-.4-1.825,2.709-3Z" fill="#004996" opacity="0.35"/>
        </g>
        <g id="Group_130214" data-name="Group 130214">
          <path id="Path_192136" data-name="Path 192136" d="M-6257.048,1573.012c2.74-1.577,3.821.61,3.828,3.819.006,3.634-1.259,6.861-3.867,8.365-2.639,1.527-3.815-.534-3.834-3.847C-6260.928,1577.959-6259.694,1574.541-6257.048,1573.012Zm.025,10.067c.929-.538,1.418-2.159,1.406-4.843-.007-2.582-.49-3.682-1.45-3.135-.884.509-1.482,2.149-1.444,4.858-.025,2.71.553,3.657,1.488,3.12Z" fill="#004996" opacity="0.35"/>
        </g>
        <g id="Group_130215" data-name="Group 130215">
          <path id="Path_192137" data-name="Path 192137" d="M-6248.317,1567.978c2.734-1.583,3.815.6,3.822,3.816.013,3.634-1.253,6.859-3.86,8.369-2.646,1.52-3.816-.541-3.841-3.854C-6252.2,1572.92-6250.962,1569.5-6248.317,1567.978Zm.013,10.061c.935-.541,1.424-2.15,1.418-4.839-.013-2.582-.5-3.689-1.45-3.136-.884.512-1.488,2.144-1.45,4.859-.019,2.706.553,3.653,1.482,3.116Z" fill="#004996" opacity="0.35"/>
        </g>
        <g id="Group_130216" data-name="Group 130216">
          <path id="Path_192138" data-name="Path 192138" d="M-6239.592,1562.936c2.741-1.578,3.815.6,3.828,3.821.007,3.632-1.259,6.862-3.866,8.366-2.639,1.523-3.816-.537-3.835-3.853C-6243.471,1567.877-6242.231,1564.459-6239.592,1562.936Zm.019,10.066c.929-.543,1.424-2.155,1.418-4.836-.013-2.591-.5-3.7-1.45-3.138-.89.508-1.488,2.143-1.456,4.852-.013,2.709.559,3.657,1.488,3.122Z" fill="#004996" opacity="0.35"/>
        </g>
        <g id="Group_130217" data-name="Group 130217">
          <path id="Path_192139" data-name="Path 192139" d="M-6229.239,1557.165l.039,11.736-2.315,1.332-.025-9.3-.039.022-1.939,2.184-.407-1.831,2.709-3Z" fill="#004996" opacity="0.35"/>
        </g>
        <g id="Group_130218" data-name="Group 130218">
          <path id="Path_192140" data-name="Path 192140" d="M-6222.136,1552.859c2.735-1.58,3.816.6,3.829,3.813.006,3.637-1.266,6.868-3.867,8.369-2.639,1.526-3.816-.541-3.835-3.848C-6226.021,1557.8-6224.775,1554.389-6222.136,1552.859Zm.019,10.064c.935-.541,1.425-2.156,1.412-4.833-.006-2.588-.5-3.695-1.443-3.148-.891.515-1.489,2.149-1.457,4.858-.013,2.716.553,3.657,1.488,3.123Z" fill="#004996" opacity="0.35"/>
        </g>
        <g id="Group_130219" data-name="Group 130219">
          <path id="Path_192141" data-name="Path 192141" d="M-6213.411,1547.819c2.735-1.583,3.816.6,3.828,3.823.013,3.627-1.259,6.855-3.86,8.362-2.645,1.526-3.815-.541-3.841-3.854C-6217.3,1552.767-6216.05,1549.349-6213.411,1547.819Zm.019,10.061c.935-.538,1.425-2.15,1.418-4.83-.012-2.588-.5-3.7-1.449-3.144-.891.515-1.489,2.149-1.457,4.858-.013,2.709.56,3.656,1.488,3.116Z" fill="#004996" opacity="0.35"/>
        </g>
        <g id="Group_130220" data-name="Group 130220">
          <path id="Path_192142" data-name="Path 192142" d="M-6204.68,1542.783c2.735-1.584,3.816.6,3.829,3.819.006,3.628-1.259,6.858-3.867,8.362-2.639,1.523-3.815-.537-3.835-3.85C-6208.565,1547.724-6207.325,1544.3-6204.68,1542.783Zm.013,10.06c.935-.537,1.425-2.149,1.418-4.833-.006-2.588-.5-3.694-1.45-3.141-.883.508-1.481,2.146-1.45,4.852-.019,2.712.554,3.66,1.482,3.122Z" fill="#004996" opacity="0.35"/>
        </g>
        <g id="Group_130221" data-name="Group 130221">
          <path id="Path_192143" data-name="Path 192143" d="M-6194.339,1537.012l.038,11.739-2.3,1.326-.025-9.3-.039.019-1.939,2.181-.413-1.825,2.715-3Z" fill="#004996" opacity="0.35"/>
        </g>
        <g id="Group_130222" data-name="Group 130222">
          <path id="Path_192144" data-name="Path 192144" d="M-6187.223,1532.7c2.734-1.581,3.822.6,3.828,3.815.006,3.634-1.259,6.862-3.866,8.369-2.639,1.52-3.822-.537-3.835-3.854C-6191.109,1537.642-6189.862,1534.226-6187.223,1532.7Zm.012,10.06c.929-.528,1.425-2.15,1.419-4.833,0-2.592-.49-3.7-1.45-3.142-.884.512-1.482,2.15-1.45,4.852-.013,2.716.553,3.663,1.481,3.123Z" fill="#004996" opacity="0.35"/>
        </g>
        <g id="Group_130223" data-name="Group 130223">
          <path id="Path_192145" data-name="Path 192145" d="M-6178.492,1527.667c2.734-1.583,3.815.6,3.828,3.816.007,3.631-1.259,6.858-3.872,8.362-2.639,1.526-3.816-.534-3.835-3.847C-6182.378,1532.608-6181.144,1529.187-6178.492,1527.667Zm.013,10.06c.935-.54,1.424-2.156,1.412-4.836-.007-2.591-.49-3.691-1.444-3.142-.884.509-1.482,2.144-1.45,4.856-.025,2.712.547,3.66,1.482,3.122Z" fill="#004996" opacity="0.35"/>
        </g>
        <g id="Group_130224" data-name="Group 130224">
          <path id="Path_192146" data-name="Path 192146" d="M-6169.767,1522.624c2.735-1.577,3.822.6,3.828,3.819.007,3.634-1.265,6.858-3.866,8.365-2.639,1.527-3.822-.534-3.835-3.85C-6173.653,1527.572-6172.412,1524.15-6169.767,1522.624Zm.013,10.06c.935-.537,1.424-2.155,1.418-4.833-.006-2.585-.49-3.691-1.45-3.141-.884.508-1.488,2.146-1.45,4.858-.013,2.709.553,3.657,1.482,3.116Z" fill="#004996" opacity="0.35"/>
        </g>
        <g id="Group_130225" data-name="Group 130225">
          <path id="Path_192147" data-name="Path 192147" d="M-6159.42,1516.859l.032,11.736-2.3,1.326-.025-9.3-.032.022-1.946,2.181-.414-1.828,2.715-3.008Z" fill="#004996" opacity="0.35"/>
        </g>
        <g id="Group_130226" data-name="Group 130226">
          <path id="Path_192148" data-name="Path 192148" d="M-6152.311,1512.551c2.735-1.584,3.816.6,3.822,3.815.013,3.632-1.253,6.862-3.866,8.366-2.633,1.523-3.816-.537-3.835-3.85C-6156.2,1517.492-6154.956,1514.071-6152.311,1512.551Zm.013,10.057c.922-.525,1.425-2.153,1.418-4.83-.006-2.594-.5-3.695-1.463-3.141-.871.505-1.475,2.143-1.437,4.852-.012,2.709.553,3.656,1.482,3.119Z" fill="#004996" opacity="0.35"/>
        </g>
        <g id="Group_130227" data-name="Group 130227">
          <path id="Path_192149" data-name="Path 192149" d="M-6143.592,1507.508c2.741-1.577,3.822.6,3.835,3.822.006,3.628-1.26,6.859-3.861,8.359-2.645,1.53-3.821-.537-3.847-3.85C-6147.471,1512.455-6146.225,1509.031-6143.592,1507.508Zm.025,10.067c.916-.535,1.419-2.156,1.419-4.843-.013-2.585-.5-3.688-1.45-3.138-.891.512-1.489,2.146-1.457,4.858-.012,2.709.553,3.663,1.488,3.123Z" fill="#004996" opacity="0.35"/>
        </g>
        <g id="Group_130228" data-name="Group 130228">
          <path id="Path_192150" data-name="Path 192150" d="M-6246.632,1588.923l.032,11.739-2.309,1.332-.025-9.3-.032.026-1.946,2.175-.407-1.825,2.709-3Z" fill="#004996" opacity="0.35"/>
        </g>
        <g id="Group_130229" data-name="Group 130229">
          <path id="Path_192151" data-name="Path 192151" d="M-6239.528,1584.621c2.728-1.581,3.815.607,3.828,3.822.013,3.628-1.26,6.845-3.867,8.35-2.645,1.526-3.815-.528-3.841-3.841C-6243.42,1589.565-6242.174,1586.141-6239.528,1584.621Zm.018,10.063c.929-.537,1.419-2.152,1.412-4.836-.006-2.591-.5-3.7-1.456-3.141-.884.508-1.475,2.149-1.444,4.858-.019,2.709.554,3.657,1.488,3.119Z" fill="#004996" opacity="0.35"/>
        </g>
        <g id="Group_130230" data-name="Group 130230">
          <path id="Path_192152" data-name="Path 192152" d="M-6229.175,1578.846l.038,11.739-2.315,1.329-.025-9.3-.038.019-1.94,2.188-.407-1.832,2.7-3Z" fill="#004996" opacity="0.35"/>
        </g>
        <g id="Group_130231" data-name="Group 130231">
          <path id="Path_192153" data-name="Path 192153" d="M-6220.457,1573.81l.032,11.739-2.3,1.329-.032-9.3-.031.025-1.946,2.175-.4-1.825,2.7-3.005Z" fill="#004996" opacity="0.35"/>
        </g>
        <g id="Group_130232" data-name="Group 130232">
          <path id="Path_192154" data-name="Path 192154" d="M-6213.347,1569.505c2.734-1.584,3.815.6,3.828,3.818.006,3.628-1.253,6.846-3.866,8.354-2.64,1.522-3.816-.525-3.841-3.842C-6217.233,1574.449-6215.987,1571.031-6213.347,1569.505Zm.012,10.06c.935-.534,1.431-2.149,1.418-4.833-.006-2.588-.5-3.7-1.443-3.141-.89.515-1.488,2.143-1.456,4.855-.013,2.709.553,3.657,1.481,3.119Z" fill="#004996" opacity="0.35"/>
        </g>
        <g id="Group_130233" data-name="Group 130233">
          <path id="Path_192155" data-name="Path 192155" d="M-6202.988,1563.727l.032,11.736-2.309,1.335-.032-9.3-.038.019-1.94,2.181-.4-1.825,2.7-3Z" fill="#004996" opacity="0.35"/>
        </g>
        <g id="Group_130234" data-name="Group 130234">
          <path id="Path_192156" data-name="Path 192156" d="M-6194.276,1558.7l.032,11.733-2.3,1.329-.025-9.3-.038.022-1.946,2.178-.4-1.828,2.709-3Z" fill="#004996" opacity="0.35"/>
        </g>
        <g id="Group_130235" data-name="Group 130235">
          <path id="Path_192157" data-name="Path 192157" d="M-6187.166,1554.389c2.741-1.584,3.816.6,3.828,3.815.013,3.631-1.253,6.849-3.86,8.35-2.639,1.53-3.815-.521-3.841-3.835C-6191.045,1559.33-6189.805,1555.909-6187.166,1554.389Zm.019,10.066c.922-.537,1.425-2.155,1.418-4.842-.013-2.588-.5-3.692-1.45-3.142-.89.516-1.488,2.146-1.456,4.856-.013,2.715.56,3.659,1.488,3.128Z" fill="#004996" opacity="0.35"/>
        </g>
        <g id="Group_130236" data-name="Group 130236">
          <path id="Path_192158" data-name="Path 192158" d="M-6176.82,1548.621l.032,11.733-2.3,1.329-.019-9.3-.032.025-1.953,2.178-.407-1.828,2.709-3Z" fill="#004996" opacity="0.35"/>
        </g>
        <g id="Group_130237" data-name="Group 130237">
          <path id="Path_192159" data-name="Path 192159" d="M-6168.095,1543.581l.038,11.73-2.3,1.332-.025-9.294-.038.019-1.939,2.181-.407-1.828,2.709-3.005Z" fill="#004996" opacity="0.35"/>
        </g>
        <g id="Group_130238" data-name="Group 130238">
          <path id="Path_192160" data-name="Path 192160" d="M-6159.363,1538.541l.032,11.739-2.3,1.323-.026-9.3-.038.019-1.946,2.182-.407-1.825,2.715-3.008Z" fill="#004996" opacity="0.35"/>
        </g>
        <g id="Group_130239" data-name="Group 130239">
          <path id="Path_192161" data-name="Path 192161" d="M-6152.253,1534.23c2.741-1.578,3.821.6,3.828,3.822.013,3.631-1.253,6.842-3.867,8.349-2.639,1.527-3.809-.527-3.828-3.837C-6156.133,1539.177-6154.893,1535.756-6152.253,1534.23Zm.019,10.066c.915-.531,1.418-2.155,1.418-4.839-.013-2.588-.5-3.688-1.469-3.135-.872.5-1.469,2.143-1.437,4.852-.013,2.712.559,3.657,1.488,3.122Z" fill="#004996" opacity="0.35"/>
        </g>
        <g id="Group_130240" data-name="Group 130240">
          <path id="Path_192162" data-name="Path 192162" d="M-6143.522,1529.193c2.734-1.58,3.815.6,3.828,3.816.006,3.631-1.259,6.849-3.866,8.356-2.646,1.523-3.816-.525-3.841-3.841C-6147.408,1534.138-6146.168,1530.719-6143.522,1529.193Zm.013,10.064c.915-.538,1.424-2.153,1.418-4.843-.007-2.588-.5-3.688-1.45-3.135-.884.509-1.488,2.143-1.45,4.858-.026,2.71.547,3.657,1.482,3.12Z" fill="#004996" opacity="0.35"/>
        </g>
      </g>
      <g id="Group_130245" data-name="Group 130245">
        <path id="Path_192163" data-name="Path 192163" d="M-6170.355,1605.49c-.019.153-.045.312-.07.471-.108.6-.3,1.208-.458,1.816-.172.658-.331,1.311-.566,1.966a24.3,24.3,0,0,1-1.215,2.875q-.114.238-.248.477a27.576,27.576,0,0,1-1.831,3.046c-.1.14-.2.273-.3.413a33.219,33.219,0,0,1-2.162,2.69c-.146.172-.28.343-.433.509a37.985,37.985,0,0,1-2.74,2.7c-.643.572-1.336,1.126-2.029,1.679-.6.471-1.164.96-1.806,1.418-.75.547-1.577,1.068-2.391,1.6s-1.571,1.069-2.442,1.571c-1.418.827-2.894,1.584-4.4,2.315-.407.191-.814.381-1.215.572q-2.031.935-4.152,1.768c-.2.076-.394.165-.592.242-1.519.585-3.084,1.1-4.667,1.6-1.119.35-2.264.662-3.409.973-.839.229-1.672.471-2.524.681-1.241.3-2.506.553-3.765.8-.827.165-1.634.356-2.455.5-.407.076-.82.133-1.227.2-1.463.242-2.932.445-4.42.63-.464.05-.922.114-1.386.159-.846.095-1.7.146-2.544.216q-2.232.19-4.464.3c-.954.038-1.908.063-2.868.076-1.177.026-2.36.032-3.542.019-1.012-.013-2.023-.044-3.027-.082-1.094-.045-2.182-.1-3.275-.178-1.024-.07-2.048-.153-3.066-.255-1.081-.108-2.155-.222-3.23-.356-.992-.127-1.972-.267-2.957-.42-1.139-.178-2.264-.381-3.39-.591-.941-.178-1.876-.363-2.8-.566-1.354-.293-2.677-.63-4-.98-.877-.228-1.761-.451-2.626-.705-.464-.134-.916-.287-1.368-.426-1.341-.42-2.658-.872-3.961-1.355-.388-.14-.783-.273-1.164-.42-1.164-.451-2.289-.953-3.415-1.456-.579-.255-1.17-.49-1.736-.757-1.647-.775-3.25-1.609-4.789-2.5-12.877-7.434-19.307-17.2-19.281-26.936l-.045,16.481c-.025,9.743,6.4,19.5,19.282,26.938,1.539.891,3.141,1.717,4.782,2.5.572.274,1.177.509,1.768.77.947.42,1.889.865,2.868,1.253.172.064.35.114.521.19.382.14.77.281,1.158.42,1.3.484,2.626.935,3.968,1.355.458.146.909.286,1.367.426.312.089.611.2.922.286.547.153,1.119.261,1.673.407,1.342.356,2.7.7,4.076,1,.356.083.706.191,1.068.268.528.108,1.082.178,1.622.279q1.718.325,3.466.6c.471.076.922.177,1.393.241.515.076,1.036.108,1.558.172q1.6.21,3.224.362c.528.051,1.049.134,1.577.178.5.038.992.045,1.482.077,1.093.076,2.187.133,3.275.171.559.026,1.119.083,1.685.1.445.013.9-.013,1.342-.007,1.189.013,2.365,0,3.548-.019.6-.006,1.2.013,1.806-.006.356-.013.712-.057,1.069-.07,1.45-.064,2.887-.165,4.324-.286.623-.051,1.246-.07,1.863-.127.191-.019.375-.058.573-.076,2.486-.268,4.953-.6,7.383-1.031.127-.025.254-.032.388-.057.724-.133,1.424-.312,2.149-.458,1.2-.242,2.391-.477,3.568-.763.852-.21,1.679-.452,2.524-.68,1.151-.312,2.3-.624,3.422-.98.228-.07.477-.127.705-.2q2.013-.658,3.95-1.4c.2-.076.394-.159.591-.241,1.424-.554,2.8-1.145,4.159-1.775.4-.184.808-.375,1.2-.566,1.514-.731,2.989-1.488,4.407-2.315.273-.152.534-.311.8-.47.591-.356,1.1-.738,1.666-1.107.8-.528,1.621-1.036,2.378-1.583.636-.464,1.2-.948,1.8-1.431.7-.553,1.405-1.106,2.041-1.679.115-.108.268-.21.388-.324.84-.77,1.616-1.565,2.347-2.366.153-.165.286-.337.432-.5.439-.49.878-.986,1.272-1.482.312-.4.592-.8.871-1.2.108-.146.223-.292.325-.439.521-.75,1-1.5,1.431-2.264.146-.254.267-.508.394-.769.089-.159.172-.318.248-.483a26.461,26.461,0,0,0,1.106-2.461c.045-.14.064-.28.115-.42.222-.636.381-1.272.547-1.914.12-.445.3-.891.387-1.342.026-.121.02-.242.039-.363.127-.674.171-1.348.235-2.034.045-.452.14-.9.159-1.361.006-.191.006-.376.006-.566l.045-16.485A21.11,21.11,0,0,1-6170.355,1605.49Z" fill="#c0c0f6"/>
        <g id="Group_130242" data-name="Group 130242">
          <path id="Path_192164" data-name="Path 192164" d="M-6189.363,1575.188c25.6,14.779,25.749,38.746.318,53.525s-66.83,14.779-92.433,0-25.717-38.746-.286-53.525S-6214.966,1560.409-6189.363,1575.188Z" fill="#e9f0f4"/>
        </g>
        <path id="Path_192165" data-name="Path 192165" d="M-6195.214,1548.015c-22.333-12.9-58.454-12.909-80.661,0-11.065,6.426-16.579,14.855-16.566,23.288,0-.035-.007-.064-.007-.089l-.063,23.542c-.026,8.512,5.59,17.041,16.827,23.528,1.342.776,2.734,1.494,4.165,2.175.509.241,1.036.445,1.545.674.833.368,1.654.757,2.518,1.094.1.044.217.07.319.114q2.977,1.145,6.136,2.06c.159.051.306.115.471.166.458.127.935.216,1.4.343,1.2.318,2.4.623,3.631.884.305.07.6.166.916.229.464.1.941.153,1.4.242,1.005.19,2.016.369,3.033.527.407.064.808.153,1.215.217.452.063.916.095,1.367.152.929.115,1.851.217,2.786.312.464.045.928.115,1.4.153.432.038.878.038,1.316.07q1.411.094,2.843.152c.49.019.973.064,1.456.077.388.012.776-.013,1.157-.007,1.063.019,2.118.007,3.174-.013.5-.012,1.011.007,1.513-.006.3-.013.6-.051.9-.064,1.3-.05,2.588-.146,3.879-.254.515-.038,1.037-.051,1.552-.1.165-.019.324-.051.489-.07,2.175-.228,4.331-.521,6.455-.9.115-.026.229-.026.337-.051.655-.115,1.291-.28,1.933-.414,1.024-.209,2.048-.407,3.053-.648.77-.191,1.526-.407,2.3-.623.96-.261,1.92-.515,2.861-.814.217-.07.445-.121.662-.185.356-.121.687-.28,1.042-.4,1.508-.516,2.983-1.069,4.42-1.673.56-.235,1.12-.458,1.66-.712,1.857-.839,3.663-1.723,5.367-2.709.236-.14.465-.274.7-.414.547-.33,1.011-.687,1.532-1.024.668-.438,1.355-.864,1.978-1.316.579-.42,1.094-.858,1.628-1.291.592-.47,1.189-.941,1.73-1.431.108-.095.242-.19.356-.292.731-.68,1.412-1.367,2.054-2.073.121-.134.229-.274.356-.407.382-.439.782-.878,1.126-1.323.28-.348.521-.7.769-1.054q.133-.177.268-.363c.457-.654.883-1.319,1.259-1.983.082-.15.127-.3.209-.443.312-.588.573-1.183.827-1.777.153-.344.356-.681.483-1.03.039-.115.058-.232.1-.344.2-.572.343-1.141.5-1.71.1-.388.254-.77.331-1.154.018-.1.012-.207.038-.315.1-.576.14-1.151.2-1.73.038-.407.121-.814.14-1.227,0-.166.006-.331.006-.5l.07-23.542c-.006.531-.095,1.062-.14,1.59C-6177.732,1564.1-6183.258,1554.915-6195.214,1548.015Zm11.282,37.615c.438-.534.9-1.062,1.278-1.6-.026.035-.051.073-.076.1C-6183.093,1584.638-6183.519,1585.128-6183.932,1585.63Zm2.156-3c.279-.452.565-.9.814-1.358a.341.341,0,0,0-.026.057C-6181.223,1581.764-6181.5,1582.2-6181.776,1582.629Zm1.628-3.094c.2-.477.425-.951.591-1.428a.244.244,0,0,0-.019.064C-6179.735,1578.629-6179.958,1579.074-6180.148,1579.535Zm1.1-3.2c.114-.47.254-.941.337-1.415a.262.262,0,0,1-.007.074C-6178.8,1575.449-6178.94,1575.894-6179.048,1576.339Zm-5.9,10.531c-.012.01-.018.026-.031.039-.515.559-1.107,1.1-1.685,1.647C-6186.069,1588-6185.465,1587.443-6184.944,1586.87Zm-5.093,4.557c.324-.248.636-.5.947-.751-.019.01-.025.023-.044.036C-6189.433,1590.953-6189.726,1591.191-6190.037,1591.427Zm-2.7,1.892a.114.114,0,0,0-.045.025c-.718.464-1.392.945-2.168,1.393C-6194.164,1594.279-6193.471,1593.793-6192.74,1593.319Zm-94.067-7.778c.325.388.6.789.941,1.171C-6286.209,1586.33-6286.482,1585.929-6286.807,1585.541Zm-5.507-12.661c.044.534.051,1.062.14,1.593C-6292.263,1573.942-6292.27,1573.414-6292.314,1572.88Zm.553,3.253c.127.5.21,1,.382,1.491C-6291.551,1577.131-6291.634,1576.632-6291.761,1576.133Zm1.107,3.214c.2.465.356.926.585,1.383C-6290.3,1580.273-6290.457,1579.812-6290.654,1579.347Zm1.64,3.135c.268.427.5.866.783,1.285C-6288.517,1583.348-6288.746,1582.909-6289.014,1582.482Zm9.457,9.733c-.356-.251-.655-.524-1-.779C-6280.212,1591.691-6279.913,1591.964-6279.557,1592.215Zm-3.415-2.677c-.388-.34-.7-.7-1.062-1.04C-6283.671,1588.842-6283.36,1589.2-6282.972,1589.538Z" fill="#008597"/>
        <path id="Path_192166" data-name="Path 192166" d="M-6170.355,1559.271c-.019.149-.045.3-.07.458-.108.617-.3,1.227-.465,1.838-.171.655-.324,1.31-.559,1.961a25.908,25.908,0,0,1-1.208,2.859c-.083.166-.172.337-.261.5a28.405,28.405,0,0,1-1.819,3.018c-.108.152-.222.3-.331.451a31.511,31.511,0,0,1-2.143,2.678c-.146.165-.273.337-.426.5-.839.916-1.774,1.812-2.747,2.7-.636.569-1.342,1.12-2.022,1.673-.6.48-1.177.973-1.825,1.437-.731.531-1.533,1.04-2.328,1.552-.827.54-1.609,1.094-2.5,1.612-1.418.827-2.9,1.589-4.42,2.324-.388.185-.782.369-1.17.55-1.374.633-2.773,1.234-4.21,1.8-.184.07-.362.149-.547.222-1.526.579-3.1,1.107-4.687,1.6-1.113.353-2.251.661-3.389.969-.846.233-1.679.474-2.531.684-1.208.29-2.436.534-3.663.782-.808.159-1.6.347-2.423.49-2.436.432-4.916.77-7.415,1.037-.795.082-1.6.13-2.4.2-1.437.12-2.881.226-4.331.292-.966.038-1.926.058-2.887.077-1.176.019-2.353.031-3.523.019-1.024-.013-2.041-.051-3.065-.089-1.074-.045-2.156-.1-3.224-.172-1.043-.07-2.08-.159-3.11-.261-1.068-.1-2.13-.222-3.179-.356-1-.127-2-.267-2.989-.42-1.151-.178-2.3-.381-3.434-.6-.91-.177-1.813-.355-2.709-.549-1.355-.3-2.69-.633-4.013-.986-.9-.239-1.8-.455-2.677-.716-.452-.136-.891-.276-1.336-.413q-2.022-.635-3.968-1.358c-.394-.143-.789-.276-1.164-.426-1.151-.442-2.257-.938-3.364-1.427-.6-.268-1.214-.509-1.806-.789-1.64-.776-3.243-1.606-4.776-2.493-12.883-7.437-19.313-17.2-19.287-26.944l-.051,16.483c-.019,9.746,6.41,19.51,19.294,26.944,1.545.891,3.154,1.724,4.8,2.509.54.251,1.107.474,1.653.722.992.432,1.953.89,2.97,1.288.172.066.344.124.515.188.382.149.783.285,1.17.432,1.285.474,2.6.916,3.918,1.335.477.153.954.306,1.437.445.305.09.6.194.9.28.534.153,1.094.258,1.628.4,1.354.362,2.722.7,4.114,1.011.362.079.713.187,1.081.264.528.114,1.088.181,1.622.28q1.718.333,3.447.6c.477.076.934.178,1.411.248.5.07,1.024.1,1.533.172,1.094.14,2.194.254,3.307.362.5.051,1,.134,1.52.172.464.038.941.045,1.411.076,1.113.077,2.232.134,3.352.178.559.026,1.113.083,1.672.1.445.006.891-.013,1.336-.007q1.783.019,3.555-.019c.6-.012,1.2.013,1.8-.006.35-.019.7-.057,1.043-.07,1.514-.07,3.015-.178,4.509-.3.566-.045,1.138-.057,1.7-.115.267-.025.528-.063.795-.089.47-.051.928-.114,1.4-.171,1.52-.179,3.033-.4,4.534-.636.343-.058.693-.107,1.037-.167.19-.029.381-.054.572-.089.731-.134,1.443-.318,2.168-.468,1.19-.241,2.379-.474,3.543-.756.858-.207,1.691-.452,2.537-.681,1.144-.315,2.289-.623,3.408-.973.23-.076.477-.127.706-.2q2.013-.654,3.949-1.393c.217-.083.414-.172.63-.255,1.4-.549,2.766-1.138,4.108-1.755.414-.19.827-.381,1.234-.578,1.5-.732,2.982-1.488,4.394-2.309l.795-.474c.585-.353,1.081-.731,1.634-1.09.821-.528,1.654-1.056,2.411-1.609.642-.467,1.221-.954,1.818-1.437.687-.554,1.387-1.094,2.01-1.657.127-.118.28-.222.407-.337.839-.776,1.615-1.567,2.353-2.372.146-.162.267-.328.413-.48.439-.5.891-1,1.291-1.507.318-.4.6-.814.891-1.221.095-.134.2-.267.286-.4.528-.76,1.017-1.516,1.45-2.286.146-.254.267-.521.4-.782.083-.149.159-.3.236-.452a26.679,26.679,0,0,0,1.106-2.48c.051-.14.07-.283.121-.423.222-.632.381-1.265.541-1.9.126-.448.3-.9.393-1.355.02-.117.02-.235.032-.356.128-.674.178-1.348.242-2.029.038-.454.14-.909.153-1.36.006-.191.012-.382.012-.573l.045-16.486A21.228,21.228,0,0,1-6170.355,1559.271Z" fill="#c0c0f6"/>
        <g id="Group_130243" data-name="Group 130243">
          <path id="Path_192167" data-name="Path 192167" d="M-6189.363,1528.969c25.6,14.779,25.749,38.744.3,53.536-25.431,14.782-66.811,14.769-92.414-.01s-25.736-38.734-.305-53.517C-6256.327,1514.187-6214.966,1514.187-6189.363,1528.969Z" fill="#e9f0f4"/>
        </g>
        <path id="Path_192168" data-name="Path 192168" d="M-6195.214,1501.8c-22.333-12.9-58.454-12.907-80.661,0-11.065,6.429-16.579,14.855-16.566,23.287,0-.031-.007-.06-.007-.089l-.063,23.549c-.026,8.509,5.59,17.033,16.827,23.523,1.342.776,2.741,1.5,4.178,2.181.5.235,1.017.439,1.526.662.833.372,1.66.76,2.524,1.1.1.038.211.067.312.108,1.978.773,4.026,1.453,6.118,2.067.172.05.324.114.5.165.47.133.967.226,1.45.356,1.183.312,2.366.611,3.58.871.312.07.6.166.916.229.458.1.928.153,1.393.242,1.017.191,2.035.375,3.065.534.4.064.788.149,1.195.21.445.06.9.089,1.342.146.954.121,1.908.229,2.868.324.445.042.884.112,1.342.147.413.032.833.038,1.253.067.986.066,1.965.117,2.95.159.477.018.941.063,1.412.073.382.009.757-.007,1.139,0,1.061.012,2.123,0,3.186-.016.5-.01,1.011.012,1.519-.007.3-.009.6-.044.9-.057,1.31-.06,2.608-.153,3.905-.261.509-.044,1.018-.05,1.52-.1.159-.018.312-.05.471-.066,2.181-.226,4.349-.528,6.486-.9.108-.022.222-.026.324-.045.636-.12,1.247-.273,1.87-.4,1.049-.217,2.092-.42,3.122-.668.764-.184,1.5-.4,2.258-.61.979-.268,1.952-.528,2.906-.827.21-.067.439-.118.649-.185.35-.114.674-.27,1.03-.394,1.52-.515,3-1.075,4.439-1.685.559-.229,1.113-.455,1.653-.7a57.931,57.931,0,0,0,5.367-2.712c.236-.137.465-.274.7-.413.547-.328,1-.681,1.526-1.024.674-.433,1.361-.865,1.984-1.323.573-.413,1.088-.846,1.615-1.275.592-.474,1.2-.948,1.743-1.44.114-.1.248-.191.356-.293.731-.671,1.412-1.367,2.048-2.064.127-.143.248-.3.375-.438.382-.43.769-.862,1.113-1.3.273-.343.515-.693.763-1.043.089-.127.184-.248.274-.375a23.522,23.522,0,0,0,1.259-1.99c.082-.14.127-.287.209-.427.312-.591.567-1.189.827-1.783.153-.347.356-.684.483-1.027.045-.118.058-.235.1-.356.2-.56.337-1.126.484-1.7.108-.385.254-.77.337-1.161.018-.1.012-.209.038-.315.1-.575.14-1.147.2-1.726.038-.413.121-.817.14-1.227,0-.172.006-.334.006-.5l.07-23.548c-.006.534-.095,1.062-.14,1.593C-6177.732,1517.881-6183.258,1508.695-6195.214,1501.8Zm11.282,37.615c.438-.531.9-1.062,1.278-1.6a1.254,1.254,0,0,0-.076.108C-6183.093,1538.419-6183.519,1538.915-6183.932,1539.411Zm2.156-3c.279-.451.565-.9.814-1.354a.2.2,0,0,0-.026.057C-6181.223,1535.551-6181.5,1535.98-6181.776,1536.409Zm1.628-3.09c.2-.477.425-.948.591-1.431a.239.239,0,0,0-.019.063C-6179.735,1532.409-6179.958,1532.861-6180.148,1533.319Zm1.1-3.2c.114-.47.254-.938.337-1.412a.251.251,0,0,1-.007.073C-6178.8,1529.23-6178.94,1529.675-6179.048,1530.12Zm-5.9,10.531c-.012.013-.018.022-.031.038-.515.56-1.107,1.1-1.685,1.647C-6186.069,1541.777-6185.465,1541.22-6184.944,1540.651Zm-5.093,4.56c.324-.252.642-.5.96-.757-.019.013-.032.025-.045.035C-6189.42,1544.73-6189.719,1544.972-6190.037,1545.211Zm-2.7,1.882a.3.3,0,0,1-.044.025c-.719.471-1.4.954-2.175,1.4C-6194.164,1548.06-6193.465,1547.57-6192.734,1547.093Zm-94.073-7.771c.325.388.6.789.941,1.17C-6286.209,1540.111-6286.482,1539.71-6286.807,1539.322Zm-5.507-12.658c.044.531.051,1.062.14,1.593C-6292.263,1527.726-6292.27,1527.195-6292.314,1526.664Zm.553,3.249c.127.5.21,1,.382,1.491C-6291.551,1530.912-6291.634,1530.412-6291.761,1529.913Zm1.107,3.215c.2.464.356.928.585,1.386C-6290.3,1534.056-6290.457,1533.592-6290.654,1533.128Zm1.64,3.135c.268.426.5.865.783,1.285C-6288.517,1537.128-6288.746,1536.689-6289.014,1536.263Zm9.457,9.736c-.356-.254-.655-.525-1-.782C-6280.212,1545.474-6279.913,1545.745-6279.557,1546Zm-3.415-2.68c-.388-.337-.7-.693-1.062-1.04C-6283.671,1542.626-6283.36,1542.982-6282.972,1543.319Z" fill="#008597"/>
        <path id="Path_192169" data-name="Path 192169" d="M-6170.355,1510.152c-.032.153-.058.308-.076.464-.115.617-.3,1.224-.465,1.838-.165.648-.324,1.3-.559,1.946a26.362,26.362,0,0,1-1.209,2.878c-.089.162-.171.327-.26.489a27.907,27.907,0,0,1-1.832,3.037c-.1.143-.2.286-.305.426a31.757,31.757,0,0,1-2.15,2.677c-.146.172-.286.35-.445.522-.839.915-1.761,1.812-2.741,2.693-.635.575-1.341,1.122-2.028,1.678-.6.474-1.17.961-1.806,1.425-.751.547-1.584,1.065-2.391,1.593s-1.577,1.068-2.449,1.574c-1.411.823-2.893,1.583-4.4,2.311-.4.2-.8.385-1.209.569-1.379.64-2.785,1.244-4.222,1.8-.172.067-.331.143-.509.207-1.539.591-3.116,1.119-4.719,1.622-1.087.343-2.206.642-3.319.947-.859.235-1.723.484-2.595.7-1.2.292-2.423.531-3.65.775-.808.166-1.6.35-2.416.493q-3.691.654-7.473,1.04c-.737.076-1.488.124-2.232.185-1.481.127-2.969.238-4.464.3-.96.044-1.914.063-2.874.079-1.177.019-2.347.032-3.523.016-1.012-.016-2.016-.041-3.021-.086q-1.679-.057-3.345-.178c-.979-.07-1.959-.153-2.932-.248-1.113-.1-2.225-.229-3.326-.369-.966-.121-1.933-.257-2.887-.407q-1.783-.276-3.529-.617c-.878-.165-1.755-.337-2.614-.524-1.411-.309-2.8-.659-4.184-1.027-.827-.217-1.66-.423-2.474-.665-.5-.146-.979-.3-1.475-.455-1.317-.419-2.62-.861-3.9-1.332-.381-.143-.775-.277-1.157-.423-1.17-.454-2.308-.96-3.447-1.462-.566-.251-1.157-.484-1.717-.751-1.641-.782-3.243-1.609-4.782-2.5-12.89-7.44-19.326-17.208-19.3-26.963l-.051,16.483c-.019,9.752,6.416,19.52,19.3,26.963,1.539.887,3.142,1.717,4.789,2.5.553.263,1.151.5,1.717.75.973.429,1.92.874,2.919,1.275.171.07.356.124.534.191.375.143.757.276,1.132.413q1.937.715,3.923,1.342c.484.153.967.308,1.457.451.3.093.591.191.89.274.522.152,1.075.257,1.6.4q2.059.549,4.165,1.024c.356.073.693.178,1.043.254.521.1,1.062.175,1.583.277,1.164.216,2.341.426,3.517.611.464.069.916.171,1.374.241.515.07,1.036.108,1.551.169q1.6.2,3.225.362c.527.054,1.049.131,1.583.175.5.044.992.048,1.488.083,1.081.076,2.162.127,3.25.171.566.026,1.125.077,1.691.093.458.009.91-.013,1.361-.01,1.177.019,2.34.01,3.517-.013.6-.012,1.208.01,1.819-.006.356-.016.712-.06,1.074-.073,1.444-.067,2.881-.169,4.318-.289.611-.051,1.234-.061,1.844-.121.2-.019.382-.061.573-.083q3.74-.391,7.415-1.03c.114-.022.235-.029.35-.051.712-.127,1.4-.3,2.1-.448,1.215-.245,2.429-.487,3.618-.773.884-.213,1.737-.464,2.6-.7,1.119-.3,2.232-.6,3.326-.944.235-.079.5-.137.731-.213q2.032-.658,3.994-1.412c.159-.06.311-.133.471-.19,1.456-.567,2.874-1.183,4.273-1.826.394-.178.782-.362,1.17-.553,1.514-.734,3-1.494,4.42-2.321.261-.153.528-.3.8-.464.642-.385,1.189-.8,1.793-1.2.757-.5,1.526-.979,2.226-1.491.668-.48,1.259-.983,1.882-1.479.661-.54,1.355-1.071,1.965-1.624.127-.118.286-.226.407-.341.839-.776,1.615-1.564,2.347-2.365.159-.172.292-.35.445-.528.439-.483.878-.973,1.265-1.469.312-.388.579-.789.872-1.189.1-.15.216-.3.324-.445.515-.748,1-1.5,1.431-2.271.152-.254.267-.515.407-.775.083-.153.159-.312.242-.465a26.732,26.732,0,0,0,1.1-2.48c.044-.13.063-.267.108-.4.235-.648.394-1.3.566-1.952.114-.438.286-.877.381-1.322.02-.121.02-.242.038-.363.121-.671.172-1.345.236-2.022.038-.455.139-.91.152-1.368.007-.19.013-.381.013-.575l.044-16.48A23.741,23.741,0,0,1-6170.355,1510.152Z" fill="#c0c0f6"/>
        <g id="Group_130244" data-name="Group 130244">
          <path id="Path_192170" data-name="Path 192170" d="M-6189.35,1479.866c25.6,14.782,25.71,38.747.279,53.526s-66.8,14.782-92.394,0-25.755-38.747-.324-53.529S-6214.959,1465.083-6189.35,1479.866Z" fill="#e9f0f4"/>
        </g>
      </g>
      <g id="Group_130252" data-name="Group 130252" opacity="0.5">
        <g id="Group_130246" data-name="Group 130246">
          <path id="Path_192171" data-name="Path 192171" d="M-6090.664,1535.024l0,3.147,34.086,19.684.006-3.15Z" fill="#00defc" opacity="0.15"/>
        </g>
        <g id="Group_130247" data-name="Group 130247">
          <path id="Path_192172" data-name="Path 192172" d="M-6090.74,1563.343l-.063,22.272,34.1,19.681.057-22.267Z" fill="#00defc" opacity="0.15"/>
        </g>
        <g id="Group_130248" data-name="Group 130248" opacity="0.6">
          <path id="Path_192173" data-name="Path 192173" d="M-6053.026,1612.107l-43.546-25.136.217-76.662,43.545,25.137Zm-37.778-26.493,34.1,19.681.057-22.267-34.089-19.685-.064,22.271Zm.179-63.016,34.1,19.683.013-3.151-34.093-19.682-.015,3.15Zm-.042,15.573,34.086,19.684.006-3.15-34.089-19.681,0,3.147Zm-.022,7.079,34.089,19.687.009-3.145-34.089-19.683-.009,3.141Zm.041-15.575,34.1,19.682.006-3.143-34.089-19.685-.013,3.146Z" fill="#00defc" opacity="0.15"/>
        </g>
        <path id="Path_192174" data-name="Path 192174" d="M-6100.74,1588.65l52.213,30.144.277-96.345-52.49-30.3v2.865l49.612,28.644-.022,8.494-49.59-28.631Zm47.714,23.457-43.546-25.136.217-76.662,43.545,25.137Z" fill="#00defc" opacity="0.35"/>
        <path id="Path_192175" data-name="Path 192175" d="M-6100.74,1497.139l47.958,27.688-.01,4.011-47.949-27.684Z" fill="#00defc" opacity="0.15"/>
        <path id="Path_192176" data-name="Path 192176" d="M-6100.74,1501.155l47.949,27.684.01-4.011-47.958-27.688v-2.129l49.612,28.644-.022,8.494-49.589-28.631Z" fill="#00defc" opacity="0.15"/>
        <g id="Group_130249" data-name="Group 130249">
          <path id="Path_192177" data-name="Path 192177" d="M-6090.68,1542.109l-.009,3.142,34.089,19.687.009-3.145Z" fill="#00defc" opacity="0.15"/>
        </g>
        <g id="Group_130250" data-name="Group 130250">
          <path id="Path_192178" data-name="Path 192178" d="M-6090.635,1526.529l-.013,3.146,34.1,19.682.006-3.143Z" fill="#00defc" opacity="0.15"/>
        </g>
        <g id="Group_130251" data-name="Group 130251">
          <path id="Path_192179" data-name="Path 192179" d="M-6090.609,1519.448l-.016,3.151,34.1,19.682.013-3.151Z" fill="#00defc" opacity="0.15"/>
        </g>
      </g>
      <g id="Group_130261" data-name="Group 130261">
        <g id="Group_130253" data-name="Group 130253" opacity="0.1">
          <path id="Path_192180" data-name="Path 192180" d="M-6157.532,1645.966c-15.275,8.82-15.351,23.116-.178,31.936s39.841,8.814,55.116,0,15.345-23.116.172-31.923S-6142.269,1637.158-6157.532,1645.966Z"/>
        </g>
        <path id="Path_192181" data-name="Path 192181" d="M-6135.4,1668.465s-2.932,4.693,1.132,5.819,2.855-1.425,11.7.807,7.816-2.74,7.612-3.764-4.051-2.436-5.984-2.951-9.672-2.289-9.672-2.289l-4.719.871Z" fill="#111114"/>
        <path id="Path_192182" data-name="Path 192182" d="M-6140.762,1655.473s3.383.509,2.563,2.461-4.719,4.922-5.228,6.169c-.521,1.227-3.644,5.042-4.725,5.233-1.831.318-3.7.21-3.4-4.827S-6145.277,1655.257-6140.762,1655.473Z" fill="#111114"/>
        <path id="Path_192183" data-name="Path 192183" d="M-6155.331,1569.495s-6.595,9.768-2.309,26.245c0,0,7.377,24.878,6.061,29.761s-5.819,16.643-2.849,26.691c0,0,2.906,9.272,2.963,11.86.083,4.12,4.146,5.011,4.858,2.06,1.457-6.009.738-17.8,1.692-22.455,3.116-15.243,4.738-23.2,3.752-33.57s.21-33.876.21-33.876S-6152.692,1577.432-6155.331,1569.495Z" fill="#efb185"/>
        <path id="Path_192184" data-name="Path 192184" d="M-6147.967,1575.428s-5.66,10.334.139,26.341c0,0,9.66,24.089,8.8,29.068s-4.248,17.113-.356,26.842c0,0,3.758,8.961,4.051,11.536.464,4.1,4.6,4.6,5.03,1.6.89-6.118-.916-17.787-.407-22.519,1.691-15.466,2.569-23.536.623-33.768s-2.938-33.748-2.938-33.748S-6144.61,1583.079-6147.967,1575.428Z" fill="#efb185"/>
        <g id="Group_130255" data-name="Group 130255">
          <g id="Group_130254" data-name="Group 130254">
            <path id="Path_192185" data-name="Path 192185" d="M-6115.433,1530.921s2.569-4.83,3.485-5.567,4.731-3.978,8.68-3.132c2.15.445.172,2.1-2.62,3.736-1.272.734-2.372,1.008-3.014,3.4a16.732,16.732,0,0,1-2.766,5.122C-6112.521,1535.5-6115.433,1530.921-6115.433,1530.921Z" fill="#efb185"/>
            <path id="Path_192186" data-name="Path 192186" d="M-6111.471,1534.305c.852-1.024,2.041-3.422,3.555-4.388,1.805-1.167.756-3.225,2.028-3.959,2.175-1.269,3.86-2.627,3.479-3.323-1.577,1.088-3.79-.34-6.824,3.612a31.273,31.273,0,0,0-3.561,7.447C-6111.986,1534.387-6111.8,1534.7-6111.471,1534.305Z" fill="#e6a376"/>
            <path id="Path_192187" data-name="Path 192187" d="M-6112.928,1533.491s5.31-3.123,6.773-4.315,2.01-2.617,1.545-2.658-5,3.217-5.679,1.344C-6110.644,1526.864-6112.266,1532.874-6112.928,1533.491Z" fill="#efb185"/>
          </g>
          <path id="Path_192188" data-name="Path 192188" d="M-6156.05,1540.969s-2.092,6.5,6.785,7.488,25.628.871,29.005-2.248,9.393-12.744,9.393-12.744-4.407-.258-4.6-4.013l-11.459,10.328S-6154.689,1536.39-6156.05,1540.969Z" fill="#8ddfff"/>
          <path id="Path_192189" data-name="Path 192189" d="M-6156.05,1540.969c1.361-4.579,29.126-1.189,29.126-1.189l11.459-10.328a3.678,3.678,0,0,0,1.513,2.9c-1.977,3.024-5.634,8.4-8,10.582-3.39,3.122-20.127,3.246-29,2.254a9.37,9.37,0,0,1-5.272-1.971A6.071,6.071,0,0,1-6156.05,1540.969Z" fill="#77d2ff"/>
        </g>
        <path id="Path_192190" data-name="Path 192190" d="M-6131.649,1541.4s-18.442-18.124-24.706-12.852c0,0-5.6,4.286-3.294,19.116s5.927,17.461,2.308,26.358c0,0,7.25,14.505,25.692,7.9,0,0-.325-13.507,2.645-17.132s7.574-11.858,3.625-16.475S-6131.649,1541.4-6131.649,1541.4Z" fill="#77d2ff"/>
        <path id="Path_192191" data-name="Path 192191" d="M-6134.492,1531.929v7s-5.679,3.078-10.327-.878v-7.027S-6139.325,1532.832-6134.492,1531.929Z" fill="#efb185"/>
        <path id="Path_192192" data-name="Path 192192" d="M-6132.73,1509.347s3.834,5.078,3.37,10.07c-.5,5.387.3,6.474-.032,8.865-.14,1.024-.222,2.569-1.221,3.529-1.666,1.6-5.087,2.2-9.729.506-5.616-2.057-11.536-9.771-9.126-16.712S-6141.182,1503.7-6132.73,1509.347Z" fill="#efb185"/>
        <path id="Path_192193" data-name="Path 192193" d="M-6149.214,1523.109c2.252-6.248,7.835-13.733,7.784-14.134-.032-.235,1.819-1.405,3.93-2.645a12.606,12.606,0,0,1,6.27,2.283,31.218,31.218,0,0,1,1.164,3.739c-1.335,1.5-4.063,3.2-4.477,4.471a16.293,16.293,0,0,0,.471,9.519c.89,2-2.709,4.935-1.953,6.71a.415.415,0,0,1,.032.235,15.954,15.954,0,0,1-4.349-.97A16.264,16.264,0,0,1-6149.214,1523.109Z" fill="#e6a376"/>
        <path id="Path_192194" data-name="Path 192194" d="M-6135.414,1506.33s7.943,2.251,5.71,7.746-6.581,5.3-9,7.936c-3.091,3.364-.4,8.56.731,11.167,10.258,23.688-16.006,22.245-18.073,7.79-1.781-12.49-.369-21.049,1.526-26.2C-6152.361,1508.893-6143.764,1504.26-6135.414,1506.33Z" fill="#cc963e"/>
        <g id="Group_130258" data-name="Group 130258">
          <g id="Group_130256" data-name="Group 130256">
            <path id="Path_192195" data-name="Path 192195" d="M-6098.479,1565.279s4.394-.649,5.71-2.707,3.2-4.261,3.5-6.073c.273-1.8-.14-2.385-1.494-1.87s-4.795,3.3-6.487,5.262-2.111,1.762-2.766,2.108C-6100.654,1562.336-6100.889,1564.624-6098.479,1565.279Z" fill="#efb185"/>
          </g>
          <g id="Group_130257" data-name="Group 130257">
            <path id="Path_192196" data-name="Path 192196" d="M-6100.018,1562c.655-.346,1.075-.146,2.766-2.108s5.126-4.76,6.487-5.262a2.863,2.863,0,0,1,.521-.153c-.967,1.285-2.62,3.472-4.1,5.335a13.341,13.341,0,0,1-6,3.835A1.493,1.493,0,0,1-6100.018,1562Z" fill="#db9669"/>
          </g>
        </g>
        <g id="Group_130260" data-name="Group 130260">
          <g id="Group_130259" data-name="Group 130259">
            <path id="Path_192197" data-name="Path 192197" d="M-6135.1,1546.114c1.6-1.4,5.113-2.376,8.248,2.333s11.745,18,11.745,18,14.5-4.806,16.255-5.1a3.072,3.072,0,0,0,.42,4.4s-13.419,10.449-18.252,8.865C-6121.494,1573.012-6141.671,1551.916-6135.1,1546.114Z" fill="#8ddfff"/>
          </g>
        </g>
        <path id="Path_192198" data-name="Path 192198" d="M-6131.649,1581.921a25.236,25.236,0,0,1-19.93-3.879l-5.762-4.025s-9.831,6.009,0,31.548c0,0,3.58,11.612,3.542,19.739s-6.734,21.959,1.552,34.582c0,0,5.526.967,7.421,0,0,0,7.364-26.747,3.949-41.208S-6144.819,1583.085-6131.649,1581.921Z" fill="#996b00"/>
        <path id="Path_192199" data-name="Path 192199" d="M-6131.649,1581.921s-6.97,1.959-18.563-3.008h0s-6.4,9.508,2.9,31.873c0,0,4.6,11.243,5.284,19.339s-4.763,22.474,4.63,34.315c0,0,5.577.47,7.383-.662,0,0,6.283-27.72,1.6-41.825S-6127.732,1589.26-6131.649,1581.921Z" fill="#ffb300"/>
      </g>
    </g>
  </g>
</svg>
