<svg xmlns="http://www.w3.org/2000/svg" width="669" height="314" viewBox="0 0 669 314">
  <g id="_3" data-name="3" transform="translate(-673.5 -1893.5)">
    <path id="Path_192352" data-name="Path 192352" d="M10,0H338.535a10,10,0,0,1,10,10V36.777a10,10,0,0,1-10,10H10a10,10,0,0,1-10-10V10A10,10,0,0,1,10,0Z" transform="translate(834 2013.278)" fill="#ffb30b"/>
    <path id="Path_192353" data-name="Path 192353" d="M-39.669-8.49a2.964,2.964,0,0,1,2.426-1.2,2.956,2.956,0,0,1,2.373.932A4.186,4.186,0,0,1-34.053-6V0h-2.971V-5.933a1.674,1.674,0,0,0-.308-1.112A1.322,1.322,0,0,0-38.377-7.4a1.424,1.424,0,0,0-1.292.58V0h-2.962V-13.5h2.962ZM-28.6-4.148l1.582-5.361h3.173l-3.876,11.1-.167.4A2.944,2.944,0,0,1-30.81,3.841a4.642,4.642,0,0,1-1.222-.175V1.556h.387a2.026,2.026,0,0,0,.954-.18A1.094,1.094,0,0,0-30.2.729L-29.966.1l-3.3-9.605h3.164Zm14.353-.536a5.735,5.735,0,0,1-1,3.538A3.2,3.2,0,0,1-17.943.176,2.742,2.742,0,0,1-20.1-.782V3.656h-2.962V-9.51h2.769l.088.879A2.742,2.742,0,0,1-17.96-9.686a3.224,3.224,0,0,1,2.733,1.3,5.805,5.805,0,0,1,.976,3.564Zm-2.962-.185q0-2.531-1.477-2.531a1.394,1.394,0,0,0-1.406.756V-2.9a1.439,1.439,0,0,0,1.424.791q1.415,0,1.459-2.443ZM-8.345.176a4.889,4.889,0,0,1-3.542-1.305,4.507,4.507,0,0,1-1.354-3.4v-.246A5.84,5.84,0,0,1-12.7-7.348a3.955,3.955,0,0,1,1.578-1.727,4.763,4.763,0,0,1,2.461-.611A4.117,4.117,0,0,1-5.5-8.442a4.887,4.887,0,0,1,1.16,3.467v1.151h-5.889a2.135,2.135,0,0,0,.694,1.257,2.066,2.066,0,0,0,1.389.457,2.662,2.662,0,0,0,2.2-.984l1.354,1.6A3.784,3.784,0,0,1-6.161-.277,5.3,5.3,0,0,1-8.345.176ZM-8.679-7.4q-1.3,0-1.547,1.723h2.988v-.229a1.467,1.467,0,0,0-.36-1.1A1.434,1.434,0,0,0-8.679-7.4Zm11.285.571L1.63-6.9a1.752,1.752,0,0,0-1.793.879V0H-3.125V-9.51H-.347l.1,1.222a2.294,2.294,0,0,1,2.083-1.4,2.888,2.888,0,0,1,.826.105Zm5.019,3.3,1.5-5.985h3.12L9.145,0H6.122l-3.1-9.51H6.148ZM16.255,0H13.285V-9.51h2.971ZM13.109-11.962A1.322,1.322,0,0,1,13.566-13a1.724,1.724,0,0,1,1.187-.4,1.724,1.724,0,0,1,1.187.4,1.322,1.322,0,0,1,.457,1.037,1.322,1.322,0,0,1-.457,1.037,1.724,1.724,0,0,1-1.187.4,1.724,1.724,0,0,1-1.187-.4A1.322,1.322,0,0,1,13.109-11.962Zm9.949,9.29a.684.684,0,0,0-.4-.606,6.016,6.016,0,0,0-1.5-.475A6.853,6.853,0,0,1,19.332-4.4a3.062,3.062,0,0,1-1.1-.971,2.319,2.319,0,0,1-.378-1.31,2.628,2.628,0,0,1,1.081-2.158,4.453,4.453,0,0,1,2.83-.848,4.934,4.934,0,0,1,3.023.853,2.666,2.666,0,0,1,1.143,2.241H22.961q0-1.143-1.2-1.143a1.194,1.194,0,0,0-.782.259.8.8,0,0,0-.316.646.737.737,0,0,0,.387.642,3.654,3.654,0,0,0,1.235.4,10.671,10.671,0,0,1,1.49.378A2.706,2.706,0,0,1,25.915-2.76,2.491,2.491,0,0,1,24.759-.642a5.068,5.068,0,0,1-2.993.817,5.172,5.172,0,0,1-2.18-.439,3.645,3.645,0,0,1-1.494-1.2,2.707,2.707,0,0,1-.536-1.591h2.769a1.145,1.145,0,0,0,.439.962,1.808,1.808,0,0,0,1.081.3,1.422,1.422,0,0,0,.91-.246A.787.787,0,0,0,23.058-2.672Zm3.867-2.171a5.613,5.613,0,0,1,.554-2.536A3.96,3.96,0,0,1,29.07-9.088a4.791,4.791,0,0,1,2.435-.6,4.373,4.373,0,0,1,3.366,1.323,5.076,5.076,0,0,1,1.23,3.6v.105a4.925,4.925,0,0,1-1.235,3.529A4.384,4.384,0,0,1,31.522.176a4.434,4.434,0,0,1-3.261-1.217,4.761,4.761,0,0,1-1.327-3.3Zm2.962.185A3.538,3.538,0,0,0,30.3-2.725a1.376,1.376,0,0,0,1.222.615q1.582,0,1.617-2.435v-.3Q33.139-7.4,31.5-7.4q-1.485,0-1.608,2.206ZM43.159-6.829l-.976-.07a1.752,1.752,0,0,0-1.793.879V0H37.428V-9.51h2.777l.1,1.222a2.294,2.294,0,0,1,2.083-1.4,2.888,2.888,0,0,1,.826.105Z" transform="translate(1008.268 2041.927)" fill="#12263f"/>
    <path id="Path_190285" data-name="Path 190285" d="M-1328.934,4554.311h-44.847c-1.225-.554-2.261-1.352-2.17-2.812a9.15,9.15,0,0,1,.761-3.26,6.649,6.649,0,0,1,5.782-3.981,1.256,1.256,0,0,0,1.336-1.149c.3-1.379.748-2.724,1.133-4.084.189-.666.374-1.333.59-2.1h-1.141c-7.022,0-14.043.012-21.065,0-3.782-.009-6.283-2.418-6.285-6.074q-.018-28.714,0-57.43a5.8,5.8,0,0,1,6.091-6.092q37.414-.013,74.83.023a7.472,7.472,0,0,1,2.854.654,5.875,5.875,0,0,1,3.2,4.245v59.81a15.641,15.641,0,0,1-1.132,2.427,5.928,5.928,0,0,1-5.3,2.447q-10.477-.019-20.954,0h-1.075c.076.345.118.589.185.826.509,1.793,1.081,3.57,1.508,5.382a1.27,1.27,0,0,0,1.349,1.128,6.715,6.715,0,0,1,5.892,4.21C-1326.359,4550.848-1326.14,4553.109-1328.934,4554.311Zm-22.357-84.1h-37.024c-2.61,0-3.637,1.034-3.637,3.659v56.482c0,2.628,1.024,3.664,3.632,3.665q36.981,0,73.962,0c2.556,0,3.6-1.049,3.6-3.616v-56.567c0-2.569-1.042-3.621-3.589-3.622Zm13.938,73.9c-.667-2.338-1.288-4.564-1.959-6.775a.868.868,0,0,0-.683-.4c-7.579-.021-15.158-.014-22.737-.025a.659.659,0,0,0-.754.586c-.476,1.772-1,3.532-1.5,5.3-.119.418-.22.84-.343,1.312Zm7.693,7.275c-.052-2.622-1.957-4.332-4.8-4.334q-16.893-.009-33.786,0a8.024,8.024,0,0,0-1.351.113c-2.246.391-3.683,2.67-3.4,4.219Z" transform="translate(2359.626 -2554.315)" fill="#084a93"/>
    <path id="Path_190286" data-name="Path 190286" d="M-1351.291,4470.21h36.939c2.547,0,3.589,1.053,3.589,3.622V4530.4c0,2.567-1.039,3.616-3.6,3.616q-36.981,0-73.962,0c-2.608,0-3.632-1.037-3.632-3.665v-56.482c0-2.625,1.027-3.659,3.637-3.659Zm-.062,55.091q16.431,0,32.862,0c3.088,0,4.832-1.762,4.833-4.856q0-21.232,0-42.466c0-3.075-1.783-4.869-4.843-4.869q-32.862-.006-65.723,0c-3.024,0-4.83,1.79-4.832,4.794q-.008,21.318.007,42.636a6.17,6.17,0,0,0,.214,1.675c.569,1.989,2.227,3.086,4.621,3.087Q-1367.783,4525.305-1351.353,4525.3Zm-.047,5.807c2.236,0,4.472,0,6.708,0,1.33,0,1.991-.48,2-1.425.013-.969-.681-1.471-2.046-1.48h-.085q-6.539,0-13.076,0a4.48,4.48,0,0,0-1.092.1,1.292,1.292,0,0,0-1.031,1.373,1.3,1.3,0,0,0,1.07,1.344,4.421,4.421,0,0,0,1.012.078C-1355.758,4531.111-1353.579,4531.108-1351.4,4531.108Z" transform="translate(2359.626 -2554.315)" fill="#fff"/>
    <path id="Path_190287" data-name="Path 190287" d="M-1337.353,4544.111h-27.974c.123-.472.224-.894.343-1.312.5-1.766,1.022-3.526,1.5-5.3a.659.659,0,0,1,.754-.586c7.579.011,15.158,0,22.737.025a.868.868,0,0,1,.683.4C-1338.641,4539.547-1338.02,4541.773-1337.353,4544.111Z" transform="translate(2359.626 -2554.315)" fill="#fff"/>
    <path id="Path_190288" data-name="Path 190288" d="M-1329.66,4551.386h-43.334c-.284-1.549,1.153-3.828,3.4-4.219a8.024,8.024,0,0,1,1.351-.113q16.893-.01,33.786,0C-1331.617,4547.054-1329.712,4548.764-1329.66,4551.386Z" transform="translate(2359.626 -2554.315)" fill="#fff"/>
    <path id="Path_190289" data-name="Path 190289" d="M-1351.353,4525.3q-16.43,0-32.861,0c-2.394,0-4.052-1.1-4.621-3.087a6.17,6.17,0,0,1-.214-1.675q-.018-21.318-.007-42.636c0-3,1.808-4.794,4.832-4.794q32.862-.006,65.723,0c3.06,0,4.842,1.794,4.843,4.869q0,21.234,0,42.466c0,3.094-1.745,4.854-4.833,4.856Q-1334.922,4525.309-1351.353,4525.3Zm0-2.906h32.615c1.785,0,2.189-.406,2.189-2.2q0-20.983,0-41.967c0-1.791-.429-2.227-2.19-2.227h-65.23c-1.76,0-2.189.436-2.189,2.228q0,20.984,0,41.966c0,1.793.4,2.2,2.19,2.2Z" transform="translate(2359.626 -2554.315)" fill="#084a93"/>
    <path id="Path_190290" data-name="Path 190290" d="M-1351.4,4531.108c-2.179,0-4.358,0-6.537,0a4.421,4.421,0,0,1-1.012-.078,1.3,1.3,0,0,1-1.07-1.344,1.292,1.292,0,0,1,1.031-1.373,4.48,4.48,0,0,1,1.092-.1q6.539-.009,13.076,0h.085c1.365.009,2.059.511,2.046,1.48-.012.945-.673,1.421-2,1.425C-1346.928,4531.112-1349.164,4531.108-1351.4,4531.108Z" transform="translate(2359.626 -2554.315)" fill="#084a93"/>
    <path id="Path_190291" data-name="Path 190291" d="M-1351.357,4522.4h-32.615c-1.786,0-2.19-.406-2.19-2.2q0-20.983,0-41.966c0-1.792.429-2.228,2.189-2.228h65.23c1.761,0,2.19.436,2.19,2.227q0,20.983,0,41.967c0,1.793-.4,2.2-2.189,2.2Zm-30.389-9.867a13.038,13.038,0,0,0,1.491-1.334q11.178-13.77,22.324-27.567c.641-.792,1.3-1.567,1.9-2.39a1.428,1.428,0,0,0-.23-1.984,1.449,1.449,0,0,0-1.99.186,5.2,5.2,0,0,0-.384.453q-11.506,14.214-23.013,28.429a10.365,10.365,0,0,0-1.333,1.746,1.94,1.94,0,0,0-.032,1.483C-1382.837,4511.933-1382.277,4512.14-1381.746,4512.528Zm30.59-25.079c-.4-.418-.716-.953-1.181-1.181-.694-.34-1.292.044-1.755.634q-7.83,9.98-15.663,19.955a1.455,1.455,0,0,0,.073,2.186,1.5,1.5,0,0,0,2.214-.42q7.818-9.935,15.615-19.885A9.823,9.823,0,0,0-1351.156,4487.449Zm-14.508-7.237a5.718,5.718,0,0,0-1.2-1.173c-.713-.366-1.286.078-1.752.638q-7.033,8.447-14.068,16.891c-.734.883-.724,1.743-.01,2.314.68.544,1.508.4,2.213-.44q7.074-8.469,14.122-16.957A8.59,8.59,0,0,0-1365.664,4480.212Z" transform="translate(2359.626 -2554.315)" fill="#fff"/>
    <path id="Path_190292" data-name="Path 190292" d="M-1381.746,4512.528c-.531-.388-1.091-.595-1.265-.978a1.94,1.94,0,0,1,.032-1.483,10.365,10.365,0,0,1,1.333-1.746q11.505-14.215,23.013-28.429a5.2,5.2,0,0,1,.384-.453,1.449,1.449,0,0,1,1.99-.186,1.428,1.428,0,0,1,.23,1.984c-.6.823-1.261,1.6-1.9,2.39q-11.156,13.788-22.324,27.567A13.038,13.038,0,0,1-1381.746,4512.528Z" transform="translate(2359.626 -2554.315)" fill="#084a93"/>
    <path id="Path_190293" data-name="Path 190293" d="M-1351.156,4487.449a9.823,9.823,0,0,1-.7,1.289q-7.8,9.953-15.615,19.885a1.5,1.5,0,0,1-2.214.42,1.455,1.455,0,0,1-.073-2.186q7.824-9.982,15.663-19.955c.463-.59,1.061-.974,1.755-.634C-1351.872,4486.5-1351.557,4487.031-1351.156,4487.449Z" transform="translate(2359.626 -2554.315)" fill="#084a93"/>
    <path id="Path_190294" data-name="Path 190294" d="M-1365.664,4480.212a8.59,8.59,0,0,1-.7,1.273q-7.047,8.49-14.122,16.957c-.7.844-1.533.984-2.213.44-.714-.571-.724-1.431.01-2.314q7.029-8.449,14.068-16.891c.466-.56,1.039-1,1.752-.638A5.718,5.718,0,0,1-1365.664,4480.212Z" transform="translate(2359.626 -2554.315)" fill="#084a93"/>
    <path id="Path_190295" data-name="Path 190295" d="M-1370.215,4487.124c.069-.321.132-.643.207-.962a7.533,7.533,0,0,1,7.718-5.8,7.545,7.545,0,0,1,7.08,6.526,7.581,7.581,0,0,1-.717,4.365,1.018,1.018,0,0,0-.066.616c.246,1.061.524,2.116.787,3.173.194.779-.174,1.138-.945.919-1.155-.326-2.307-.663-3.465-.979a.966.966,0,0,0-.528.013,7.544,7.544,0,0,1-9.967-5.861c-.034-.179-.069-.357-.1-.536Zm13.578,7.391c-.23-.927-.423-1.774-.658-2.61a1.335,1.335,0,0,1,.133-1.047,6.006,6.006,0,0,0-.419-6.629,5.912,5.912,0,0,0-6.148-2.521,5.923,5.923,0,0,0-4.946,4.386,5.91,5.91,0,0,0,1.767,6.4,6.109,6.109,0,0,0,6.506,1.255,1.643,1.643,0,0,1,.879-.046C-1358.577,4493.937-1357.645,4494.227-1356.637,4494.515Z" transform="translate(2359.626 -2554.315)" fill="#084a93"/>
    <path id="Path_190296" data-name="Path 190296" d="M-1344.146,4518.046a5.776,5.776,0,0,1-.557-.173,2.459,2.459,0,0,1-1.631-2.319c-.033-.857-.026-1.717,0-2.574a2.457,2.457,0,0,1,2.384-2.463c1.138-.052,2.28-.018,3.42-.022h.483v-.4c0-.626,0-1.251,0-1.876,0-.331.013-.648.371-.807s.607.035.857.25c.326.279.658.55.988.825.743.62,1.484,1.244,2.234,1.856a1.028,1.028,0,0,0,.421.191,2.481,2.481,0,0,1,2.019,2.35c.034.881.029,1.765.008,2.647a2.459,2.459,0,0,1-2.028,2.45.7.7,0,0,0-.129.061Zm5.355-8.716c0,.569,0,1.043,0,1.517,0,.725-.186.908-.922.908-1.337,0-2.675,0-4.012,0a1.238,1.238,0,0,0-1.353,1.243q-.036,1.269,0,2.539a1.223,1.223,0,0,0,1.25,1.238q4.085.021,8.171,0a1.221,1.221,0,0,0,1.249-1.27q.021-1.251,0-2.5a1.242,1.242,0,0,0-1.118-1.249,1.643,1.643,0,0,1-.715-.317C-1337.076,4510.777-1337.886,4510.084-1338.791,4509.33Z" transform="translate(2359.626 -2554.315)" fill="#084a93"/>
    <path id="Path_190297" data-name="Path 190297" d="M-1370.215,4511.788c.084-.357.137-.723.255-1.067a5.431,5.431,0,0,1,4.649-3.921,5.422,5.422,0,0,1,5.648,2.777.515.515,0,0,0,.512.3c.982-.015,1.964,0,2.945-.009.332,0,.621.058.757.394a.7.7,0,0,1-.231.792q-1.86,1.964-3.706,3.942c-.242.259-.461.54-.682.818a5.615,5.615,0,0,1-3.755,2.167,1.363,1.363,0,0,0-.206.065h-1.031a1.338,1.338,0,0,0-.206-.061,5.644,5.644,0,0,1-4.77-4.205c-.064-.246-.119-.494-.179-.741Zm12.735-.663c-.745,0-1.383-.031-2.017.009a1.029,1.029,0,0,1-1.136-.689,4.335,4.335,0,0,0-4.768-2.37,4.4,4.4,0,0,0-3.552,4.1,4.414,4.414,0,0,0,3.037,4.388,4.4,4.4,0,0,0,5.053-1.8,2.393,2.393,0,0,1,.247-.363c.8-.832,1.6-1.656,2.4-2.485C-1357.992,4511.676-1357.771,4511.435-1357.48,4511.125Z" transform="translate(2359.626 -2554.315)" fill="#084a93"/>
    <path id="Path_190298" data-name="Path 190298" d="M-1350.74,4508.616h-7.289c-.679,0-.868-.191-.869-.878q0-4.783,0-9.569c0-.68.194-.871.88-.871h14.577c.677,0,.871.2.871.882q0,4.783,0,9.569c0,.677-.2.867-.882.867Zm5.9-10.028h-11.791l5.9,5.4Zm-11.528,8.753h11.266l-4.084-3.062c-.361.331-.693.639-1.031.942a.658.658,0,0,1-1.035,0c-.345-.309-.684-.625-1.032-.944Zm-1.246-7.949v7.311l4.387-3.289Zm13.767-.009-4.4,4.031,4.4,3.295Z" transform="translate(2359.626 -2554.315)" fill="#084a93"/>
    <path id="Path_190299" data-name="Path 190299" d="M-1339.421,4481.6a6.921,6.921,0,0,1,6.886,6.314,6.931,6.931,0,0,1-5.486,7.361,6.989,6.989,0,0,1-3.629-.222,1.1,1.1,0,0,0-.595-.02c-1.029.276-2.051.578-3.076.868-.771.219-1.137-.14-.942-.923.237-.951.487-1.9.708-2.852a.879.879,0,0,0-.062-.547A6.911,6.911,0,0,1-1339.421,4481.6Zm-5.412,12.858c.881-.252,1.683-.472,2.479-.713a1.413,1.413,0,0,1,.925.042,5.437,5.437,0,0,0,5.791-1.1,5.308,5.308,0,0,0,1.669-5.579,5.337,5.337,0,0,0-4.486-4.141,5.306,5.306,0,0,0-5.516,2.234,5.419,5.419,0,0,0-.389,6.032,1.192,1.192,0,0,1,.11.913C-1344.45,4492.887-1344.627,4493.635-1344.833,4494.46Z" transform="translate(2359.626 -2554.315)" fill="#084a93"/>
    <path id="Path_190300" data-name="Path 190300" d="M-1360.18,4501.109v1.2h-6.241v-1.2Z" transform="translate(2359.626 -2554.315)" fill="#084a93"/>
    <path id="Path_190301" data-name="Path 190301" d="M-1360.181,4498.556v1.234h-3.753c0-.363-.011-.7.009-1.042a.275.275,0,0,1,.2-.183C-1362.557,4498.553-1361.385,4498.556-1360.181,4498.556Z" transform="translate(2359.626 -2554.315)" fill="#084a93"/>
    <path id="Path_190302" data-name="Path 190302" d="M-1363.915,4504.819v-1.2h3.734v1.2Z" transform="translate(2359.626 -2554.315)" fill="#084a93"/>
    <path id="Path_190303" data-name="Path 190303" d="M-1356.637,4494.515c-1.008-.288-1.94-.578-2.886-.812a1.643,1.643,0,0,0-.879.046,6.109,6.109,0,0,1-6.506-1.255,5.91,5.91,0,0,1-1.767-6.4,5.923,5.923,0,0,1,4.946-4.386,5.912,5.912,0,0,1,6.148,2.521,6.006,6.006,0,0,1,.419,6.629,1.335,1.335,0,0,0-.133,1.047C-1357.06,4492.741-1356.867,4493.588-1356.637,4494.515Zm-7.3-8.509c-.837,0-1.62,0-2.4,0-.5,0-.721.214-.724.713q-.009,1.785,0,3.569c0,.513.229.733.748.733q3.643,0,7.286,0a.644.644,0,0,0,.755-.624q.3-1.756.587-3.516c.1-.613-.129-.872-.748-.875-.561,0-1.122,0-1.718,0a2.65,2.65,0,0,0-.38-1.76,1.855,1.855,0,0,0-1.561-.753,1.833,1.833,0,0,0-1.2.473A2.341,2.341,0,0,0-1363.937,4486.006Z" transform="translate(2359.626 -2554.315)" fill="#fff"/>
    <path id="Path_190304" data-name="Path 190304" d="M-1338.791,4509.33c.905.754,1.715,1.447,2.549,2.111a1.643,1.643,0,0,0,.715.317,1.242,1.242,0,0,1,1.118,1.249q.023,1.251,0,2.5a1.221,1.221,0,0,1-1.249,1.27q-4.086.018-8.171,0a1.223,1.223,0,0,1-1.25-1.238q-.038-1.269,0-2.539a1.238,1.238,0,0,1,1.353-1.243c1.337-.008,2.675,0,4.012,0,.736,0,.921-.183.922-.908C-1338.79,4510.373-1338.791,4509.9-1338.791,4509.33Zm-4.133,5.867a.937.937,0,0,0,.983-.879.939.939,0,0,0-.913-.987.937.937,0,0,0-.965.9A.929.929,0,0,0-1342.924,4515.2Zm3.18,0a.936.936,0,0,0,.946-.919.939.939,0,0,0-.918-.949.941.941,0,0,0-.964.939A.94.94,0,0,0-1339.744,4515.2Zm4.078-.924a.923.923,0,0,0-.922-.944.928.928,0,0,0-.942.926.921.921,0,0,0,.924.942A.918.918,0,0,0-1335.666,4514.275Z" transform="translate(2359.626 -2554.315)" fill="#fff"/>
    <path id="Path_190305" data-name="Path 190305" d="M-1357.48,4511.125c-.291.31-.512.551-.739.786-.8.829-1.6,1.653-2.4,2.485a2.393,2.393,0,0,0-.247.363,4.4,4.4,0,0,1-5.053,1.8,4.414,4.414,0,0,1-3.037-4.388,4.4,4.4,0,0,1,3.552-4.1,4.335,4.335,0,0,1,4.768,2.37,1.029,1.029,0,0,0,1.136.689C-1358.863,4511.094-1358.225,4511.125-1357.48,4511.125Zm-5.218.618h-1.237v-1.22h-1.262v1.242h-1.228v1.259h1.245v1.229h1.248v-1.244h1.234Z" transform="translate(2359.626 -2554.315)" fill="#fff"/>
    <path id="Path_190306" data-name="Path 190306" d="M-1344.838,4498.588l-5.9,5.4-5.9-5.4Z" transform="translate(2359.626 -2554.315)" fill="#fff"/>
    <path id="Path_190307" data-name="Path 190307" d="M-1356.366,4507.341l4.084-3.062c.348.319.687.635,1.032.944a.658.658,0,0,0,1.035,0c.338-.3.67-.611,1.031-.942l4.084,3.062Z" transform="translate(2359.626 -2554.315)" fill="#fff"/>
    <path id="Path_190308" data-name="Path 190308" d="M-1357.612,4499.392l4.387,4.022-4.387,3.289Z" transform="translate(2359.626 -2554.315)" fill="#fff"/>
    <path id="Path_190309" data-name="Path 190309" d="M-1343.845,4499.383v7.326l-4.4-3.295Z" transform="translate(2359.626 -2554.315)" fill="#fff"/>
    <path id="Path_190310" data-name="Path 190310" d="M-1344.833,4494.46c.206-.825.383-1.573.583-2.314a1.192,1.192,0,0,0-.11-.913,5.419,5.419,0,0,1,.389-6.032,5.306,5.306,0,0,1,5.516-2.234,5.337,5.337,0,0,1,4.486,4.141,5.308,5.308,0,0,1-1.669,5.579,5.437,5.437,0,0,1-5.791,1.1,1.413,1.413,0,0,0-.925-.042C-1343.15,4493.988-1343.952,4494.208-1344.833,4494.46Zm5.415-8.658c-.142-.108-.247-.192-.357-.27a2.552,2.552,0,0,0-3.446.453,2.514,2.514,0,0,0,.227,3.489c1.026.913,2.1,1.77,3.159,2.647a.586.586,0,0,0,.808.011c1.095-.908,2.233-1.773,3.261-2.752a2.533,2.533,0,0,0-1.159-4.245A2.563,2.563,0,0,0-1339.418,4485.8Z" transform="translate(2359.626 -2554.315)" fill="#fff"/>
    <path id="Path_190311" data-name="Path 190311" d="M-1363.937,4486.006a2.341,2.341,0,0,1,.638-2.04,1.833,1.833,0,0,1,1.2-.473,1.855,1.855,0,0,1,1.561.753,2.65,2.65,0,0,1,.38,1.76c.6,0,1.157,0,1.718,0,.619,0,.847.262.748.875q-.283,1.76-.587,3.516a.644.644,0,0,1-.755.624q-3.642,0-7.286,0c-.519,0-.746-.22-.748-.733q-.008-1.783,0-3.569c0-.5.22-.71.724-.713C-1365.557,4486-1364.774,4486.006-1363.937,4486.006Zm.665,1.264v2.5c1.237,0,2.448,0,3.66-.008a.291.291,0,0,0,.205-.187c.136-.756.255-1.514.385-2.312-.58,0-1.129.009-1.678,0a.642.642,0,0,1-.714-.7c-.012-.367,0-.736-.007-1.1-.013-.45-.248-.7-.631-.7s-.609.257-.623.711c-.009.294-.017.589,0,.882C-1362.647,4486.816-1362.764,4487.178-1363.272,4487.27Zm-2.505.007v2.469h1.2v-2.469Z" transform="translate(2359.626 -2554.315)" fill="#084a93"/>
    <path id="Path_190312" data-name="Path 190312" d="M-1342.924,4515.2a.929.929,0,0,1-.9-.966.937.937,0,0,1,.965-.9.939.939,0,0,1,.913.987A.937.937,0,0,1-1342.924,4515.2Zm.473-.919c-.193-.149-.308-.307-.413-.3s-.216.169-.323.263c.1.112.188.284.311.317C-1342.788,4514.581-1342.651,4514.417-1342.451,4514.278Z" transform="translate(2359.626 -2554.315)" fill="#084a93"/>
    <path id="Path_190313" data-name="Path 190313" d="M-1339.744,4515.2a.94.94,0,0,1-.936-.929.941.941,0,0,1,.964-.939.939.939,0,0,1,.918.949A.936.936,0,0,1-1339.744,4515.2Zm.442-.91c-.192-.154-.3-.311-.41-.309s-.217.162-.326.253c.1.115.179.29.3.325C-1339.65,4514.583-1339.509,4514.424-1339.3,4514.289Z" transform="translate(2359.626 -2554.315)" fill="#084a93"/>
    <path id="Path_190314" data-name="Path 190314" d="M-1335.666,4514.275a.918.918,0,0,1-.94.924.921.921,0,0,1-.924-.942.928.928,0,0,1,.942-.926A.923.923,0,0,1-1335.666,4514.275Zm-.5-.009c-.192-.14-.313-.3-.421-.288s-.216.175-.322.272c.107.109.2.282.326.307C-1336.49,4514.577-1336.357,4514.408-1336.166,4514.266Z" transform="translate(2359.626 -2554.315)" fill="#084a93"/>
    <path id="Path_190315" data-name="Path 190315" d="M-1362.7,4511.743v1.266h-1.234v1.244h-1.248v-1.229h-1.245v-1.259h1.228v-1.242h1.262v1.22Z" transform="translate(2359.626 -2554.315)" fill="#084a93"/>
    <path id="Path_190316" data-name="Path 190316" d="M-1339.418,4485.8a2.563,2.563,0,0,1,2.493-.667,2.533,2.533,0,0,1,1.159,4.245c-1.028.979-2.166,1.844-3.261,2.752a.586.586,0,0,1-.808-.011c-1.058-.877-2.133-1.734-3.159-2.647a2.514,2.514,0,0,1-.227-3.489,2.552,2.552,0,0,1,3.446-.453C-1339.665,4485.61-1339.56,4485.694-1339.418,4485.8Zm0,5.035c.917-.767,1.812-1.5,2.682-2.25a1.271,1.271,0,0,0,.159-1.813,1.3,1.3,0,0,0-1.845-.158c-.175.135-.339.283-.511.421a.657.657,0,0,1-.985-.008c-.191-.154-.373-.32-.571-.464a1.3,1.3,0,0,0-1.785.216,1.286,1.286,0,0,0,.125,1.766C-1341.267,4489.32-1340.352,4490.06-1339.422,4490.837Z" transform="translate(2359.626 -2554.315)" fill="#084a93"/>
    <path id="Path_190317" data-name="Path 190317" d="M-1363.272,4487.27c.508-.092.625-.454.6-.924-.018-.293-.01-.588,0-.882.014-.454.241-.707.623-.711s.618.248.631.7c.011.367-.005.736.007,1.1a.642.642,0,0,0,.714.7c.549.011,1.1,0,1.678,0-.13.8-.249,1.556-.385,2.312a.291.291,0,0,1-.205.187c-1.212.011-2.423.008-3.66.008Z" transform="translate(2359.626 -2554.315)" fill="#fff"/>
    <path id="Path_190318" data-name="Path 190318" d="M-1365.777,4487.277h1.2v2.469h-1.2Z" transform="translate(2359.626 -2554.315)" fill="#fff"/>
    <path id="Path_190319" data-name="Path 190319" d="M-1342.451,4514.278c-.2.139-.337.3-.425.28-.123-.033-.209-.205-.311-.317.107-.094.21-.255.323-.263S-1342.644,4514.129-1342.451,4514.278Z" transform="translate(2359.626 -2554.315)" fill="#fff"/>
    <path id="Path_190320" data-name="Path 190320" d="M-1339.3,4514.289c-.207.135-.348.294-.437.269-.12-.035-.2-.21-.3-.325.109-.091.215-.25.326-.253S-1339.494,4514.135-1339.3,4514.289Z" transform="translate(2359.626 -2554.315)" fill="#fff"/>
    <path id="Path_190321" data-name="Path 190321" d="M-1336.166,4514.266c-.191.142-.324.311-.417.291-.125-.025-.219-.2-.326-.307.106-.1.208-.264.322-.272S-1336.358,4514.126-1336.166,4514.266Z" transform="translate(2359.626 -2554.315)" fill="#fff"/>
    <path id="Path_190322" data-name="Path 190322" d="M-1339.422,4490.837c-.93-.777-1.845-1.517-2.731-2.29a1.286,1.286,0,0,1-.125-1.766,1.3,1.3,0,0,1,1.785-.216c.2.144.38.31.571.464a.657.657,0,0,0,.985.008c.172-.138.336-.286.511-.421a1.3,1.3,0,0,1,1.845.158,1.271,1.271,0,0,1-.159,1.813C-1337.61,4489.342-1338.505,4490.07-1339.422,4490.837Z" transform="translate(2359.626 -2554.315)" fill="#fff"/>
    <path id="Path_190323" data-name="Path 190323" d="M-1217.954,4554.311H-1262.8c-1.225-.554-2.26-1.352-2.169-2.812a9.127,9.127,0,0,1,.761-3.26,6.647,6.647,0,0,1,5.781-3.981,1.255,1.255,0,0,0,1.336-1.149c.3-1.379.748-2.724,1.133-4.084.189-.666.375-1.333.591-2.1h-1.142c-7.021,0-14.043.012-21.065,0-3.782-.009-6.283-2.418-6.285-6.074q-.016-28.714,0-57.43a5.8,5.8,0,0,1,6.091-6.092q37.416-.013,74.83.023a7.472,7.472,0,0,1,2.854.654,5.871,5.871,0,0,1,3.2,4.245v59.81a15.54,15.54,0,0,1-1.132,2.427,5.928,5.928,0,0,1-5.3,2.447q-10.476-.019-20.953,0h-1.076c.077.345.118.589.185.826.509,1.793,1.081,3.57,1.508,5.382a1.271,1.271,0,0,0,1.349,1.128,6.715,6.715,0,0,1,5.892,4.21C-1215.379,4550.848-1215.16,4553.109-1217.954,4554.311Zm-22.357-84.1h-37.024c-2.611,0-3.638,1.034-3.638,3.659v56.482c0,2.628,1.024,3.664,3.632,3.665q36.981,0,73.963,0c2.556,0,3.594-1.049,3.594-3.616q0-28.284,0-56.567c0-2.569-1.042-3.621-3.589-3.622Zm13.938,73.9c-.667-2.338-1.288-4.564-1.96-6.775a.868.868,0,0,0-.683-.4c-7.579-.021-15.157-.014-22.736-.025a.66.66,0,0,0-.755.586c-.476,1.772-1,3.532-1.5,5.3-.119.418-.22.84-.342,1.312Zm7.692,7.275c-.052-2.622-1.957-4.332-4.8-4.334q-16.893-.009-33.786,0a8.012,8.012,0,0,0-1.35.113c-2.247.391-3.683,2.67-3.4,4.219Z" transform="translate(2359.626 -2554.315)" fill="#084a93"/>
    <path id="Path_190324" data-name="Path 190324" d="M-1240.311,4470.21h36.938c2.547,0,3.589,1.053,3.589,3.622q0,28.284,0,56.567c0,2.567-1.038,3.616-3.594,3.616q-36.982,0-73.963,0c-2.608,0-3.632-1.037-3.632-3.665v-56.482c0-2.625,1.027-3.659,3.638-3.659Zm-.062,55.091q16.431,0,32.861,0c3.088,0,4.833-1.762,4.833-4.856q0-21.232,0-42.466c0-3.075-1.783-4.869-4.843-4.869q-32.86-.006-65.722,0c-3.024,0-4.831,1.79-4.832,4.794q-.009,21.318.006,42.636a6.209,6.209,0,0,0,.215,1.675c.569,1.989,2.226,3.086,4.621,3.087Q-1256.8,4525.305-1240.373,4525.3Zm-.047,5.807c2.236,0,4.472,0,6.707,0,1.33,0,1.991-.48,2-1.425.013-.969-.681-1.471-2.046-1.48h-.085q-6.537,0-13.075,0a4.48,4.48,0,0,0-1.092.1,1.293,1.293,0,0,0-1.032,1.373,1.3,1.3,0,0,0,1.07,1.344,4.421,4.421,0,0,0,1.012.078C-1244.779,4531.111-1242.6,4531.108-1240.42,4531.108Z" transform="translate(2359.626 -2554.315)" fill="#fff"/>
    <path id="Path_190325" data-name="Path 190325" d="M-1226.373,4544.111h-27.974c.122-.472.223-.894.342-1.312.5-1.766,1.022-3.526,1.5-5.3a.66.66,0,0,1,.755-.586c7.579.011,15.157,0,22.736.025a.868.868,0,0,1,.683.4C-1227.661,4539.547-1227.04,4541.773-1226.373,4544.111Z" transform="translate(2359.626 -2554.315)" fill="#fff"/>
    <path id="Path_190326" data-name="Path 190326" d="M-1218.681,4551.386h-43.334c-.283-1.549,1.153-3.828,3.4-4.219a8.012,8.012,0,0,1,1.35-.113q16.893-.01,33.786,0C-1220.638,4547.054-1218.733,4548.764-1218.681,4551.386Z" transform="translate(2359.626 -2554.315)" fill="#fff"/>
    <path id="Path_190327" data-name="Path 190327" d="M-1240.373,4525.3q-16.431,0-32.861,0c-2.4,0-4.052-1.1-4.621-3.087a6.209,6.209,0,0,1-.215-1.675q-.017-21.318-.006-42.636c0-3,1.808-4.794,4.832-4.794q32.86-.006,65.722,0c3.06,0,4.842,1.794,4.843,4.869q.006,21.234,0,42.466c0,3.094-1.745,4.854-4.833,4.856Q-1223.943,4525.309-1240.373,4525.3Zm-.005-2.906h32.615c1.786,0,2.19-.406,2.19-2.2v-41.967c0-1.791-.429-2.227-2.19-2.227h-65.23c-1.761,0-2.19.436-2.19,2.228V4520.2c0,1.793.4,2.2,2.19,2.2Z" transform="translate(2359.626 -2554.315)" fill="#084a93"/>
    <path id="Path_190328" data-name="Path 190328" d="M-1240.42,4531.108c-2.179,0-4.359,0-6.538,0a4.421,4.421,0,0,1-1.012-.078,1.3,1.3,0,0,1-1.07-1.344,1.293,1.293,0,0,1,1.032-1.373,4.48,4.48,0,0,1,1.092-.1q6.537-.009,13.075,0h.085c1.365.009,2.059.511,2.046,1.48-.012.945-.673,1.421-2,1.425C-1235.948,4531.112-1238.184,4531.108-1240.42,4531.108Z" transform="translate(2359.626 -2554.315)" fill="#084a93"/>
    <path id="Path_190329" data-name="Path 190329" d="M-1240.378,4522.4h-32.615c-1.786,0-2.19-.406-2.19-2.2V4478.23c0-1.792.429-2.228,2.19-2.228h65.23c1.761,0,2.189.436,2.19,2.227V4520.2c0,1.793-.4,2.2-2.19,2.2Zm-30.389-9.867a12.874,12.874,0,0,0,1.491-1.334q11.178-13.77,22.325-27.567c.64-.792,1.3-1.567,1.9-2.39a1.428,1.428,0,0,0-.23-1.984,1.449,1.449,0,0,0-1.99.186,5.171,5.171,0,0,0-.383.453q-11.508,14.214-23.014,28.429a10.365,10.365,0,0,0-1.333,1.746,1.936,1.936,0,0,0-.031,1.483C-1271.857,4511.933-1271.3,4512.14-1270.767,4512.528Zm30.591-25.079c-.4-.418-.716-.953-1.181-1.181-.695-.34-1.293.044-1.756.634q-7.828,9.98-15.663,19.955a1.455,1.455,0,0,0,.074,2.186,1.5,1.5,0,0,0,2.213-.42q7.818-9.935,15.615-19.885A9.81,9.81,0,0,0-1240.176,4487.449Zm-14.509-7.237a5.691,5.691,0,0,0-1.2-1.173c-.713-.366-1.285.078-1.752.638q-7.033,8.447-14.068,16.891c-.734.883-.724,1.743-.01,2.314.68.544,1.509.4,2.214-.44q7.073-8.469,14.121-16.957A8.491,8.491,0,0,0-1254.685,4480.212Z" transform="translate(2359.626 -2554.315)" fill="#fff"/>
    <path id="Path_190330" data-name="Path 190330" d="M-1270.767,4512.528c-.531-.388-1.09-.595-1.264-.978a1.936,1.936,0,0,1,.031-1.483,10.365,10.365,0,0,1,1.333-1.746q11.505-14.215,23.014-28.429a5.171,5.171,0,0,1,.383-.453,1.449,1.449,0,0,1,1.99-.186,1.428,1.428,0,0,1,.23,1.984c-.6.823-1.261,1.6-1.9,2.39q-11.157,13.788-22.325,27.567A12.874,12.874,0,0,1-1270.767,4512.528Z" transform="translate(2359.626 -2554.315)" fill="#084a93"/>
    <path id="Path_190331" data-name="Path 190331" d="M-1240.176,4487.449a9.81,9.81,0,0,1-.7,1.289q-7.8,9.953-15.615,19.885a1.5,1.5,0,0,1-2.213.42,1.455,1.455,0,0,1-.074-2.186q7.826-9.982,15.663-19.955c.463-.59,1.061-.974,1.756-.634C-1240.892,4486.5-1240.578,4487.031-1240.176,4487.449Z" transform="translate(2359.626 -2554.315)" fill="#084a93"/>
    <path id="Path_190332" data-name="Path 190332" d="M-1254.685,4480.212a8.491,8.491,0,0,1-.7,1.273q-7.045,8.49-14.121,16.957c-.7.844-1.534.984-2.214.44-.714-.571-.724-1.431.01-2.314q7.029-8.449,14.068-16.891c.467-.56,1.039-1,1.752-.638A5.691,5.691,0,0,1-1254.685,4480.212Z" transform="translate(2359.626 -2554.315)" fill="#084a93"/>
    <path id="Path_190333" data-name="Path 190333" d="M-1259.235,4487.124c.069-.321.131-.643.207-.962a7.532,7.532,0,0,1,7.717-5.8,7.547,7.547,0,0,1,7.081,6.526,7.581,7.581,0,0,1-.717,4.365,1,1,0,0,0-.066.616c.246,1.061.523,2.116.787,3.173.194.779-.174,1.138-.945.919-1.155-.326-2.308-.663-3.466-.979a.966.966,0,0,0-.528.013,7.544,7.544,0,0,1-9.967-5.861c-.033-.179-.069-.357-.1-.536Zm13.578,7.391c-.231-.927-.424-1.774-.659-2.61a1.339,1.339,0,0,1,.133-1.047,6.006,6.006,0,0,0-.419-6.629,5.911,5.911,0,0,0-6.147-2.521,5.92,5.92,0,0,0-4.946,4.386,5.908,5.908,0,0,0,1.767,6.4,6.109,6.109,0,0,0,6.506,1.255,1.639,1.639,0,0,1,.878-.046C-1247.6,4493.937-1246.665,4494.227-1245.657,4494.515Z" transform="translate(2359.626 -2554.315)" fill="#084a93"/>
    <path id="Path_190334" data-name="Path 190334" d="M-1233.167,4518.046c-.186-.057-.378-.1-.557-.173a2.457,2.457,0,0,1-1.63-2.319c-.034-.857-.026-1.717,0-2.574a2.457,2.457,0,0,1,2.384-2.463c1.138-.052,2.28-.018,3.42-.022h.484v-.4c0-.626,0-1.251,0-1.876,0-.331.013-.648.372-.807s.606.035.857.25c.325.279.658.55.987.825.744.62,1.484,1.244,2.235,1.856a1.024,1.024,0,0,0,.42.191,2.482,2.482,0,0,1,2.02,2.35c.033.881.029,1.765.007,2.647a2.458,2.458,0,0,1-2.028,2.45.7.7,0,0,0-.129.061Zm5.356-8.716c0,.569,0,1.043,0,1.517,0,.725-.187.908-.922.908-1.338,0-2.675,0-4.012,0A1.239,1.239,0,0,0-1234.1,4513q-.036,1.269,0,2.539a1.223,1.223,0,0,0,1.249,1.238q4.086.021,8.171,0a1.22,1.22,0,0,0,1.249-1.27q.021-1.251,0-2.5a1.243,1.243,0,0,0-1.118-1.249,1.651,1.651,0,0,1-.716-.317C-1226.1,4510.777-1226.907,4510.084-1227.811,4509.33Z" transform="translate(2359.626 -2554.315)" fill="#084a93"/>
    <path id="Path_190335" data-name="Path 190335" d="M-1259.235,4511.788a10.8,10.8,0,0,1,.254-1.067,5.432,5.432,0,0,1,4.65-3.921,5.423,5.423,0,0,1,5.648,2.777.514.514,0,0,0,.512.3c.981-.015,1.963,0,2.945-.009.332,0,.62.058.757.394a.7.7,0,0,1-.232.792q-1.858,1.964-3.706,3.942c-.242.259-.461.54-.681.818a5.618,5.618,0,0,1-3.755,2.167,1.291,1.291,0,0,0-.206.065h-1.031a1.355,1.355,0,0,0-.207-.061,5.644,5.644,0,0,1-4.77-4.205c-.063-.246-.119-.494-.178-.741Zm12.734-.663c-.744,0-1.383-.031-2.016.009a1.03,1.03,0,0,1-1.137-.689,4.335,4.335,0,0,0-4.767-2.37,4.4,4.4,0,0,0-3.552,4.1,4.412,4.412,0,0,0,3.037,4.388,4.4,4.4,0,0,0,5.053-1.8,2.324,2.324,0,0,1,.247-.363c.8-.832,1.6-1.656,2.4-2.485C-1247.013,4511.676-1246.792,4511.435-1246.5,4511.125Z" transform="translate(2359.626 -2554.315)" fill="#084a93"/>
    <path id="Path_190336" data-name="Path 190336" d="M-1239.761,4508.616h-7.288c-.679,0-.869-.191-.869-.878q0-4.783,0-9.569c0-.68.194-.871.879-.871h14.577c.677,0,.871.2.872.882q0,4.783,0,9.569c0,.677-.2.867-.881.867Zm5.9-10.028h-11.792l5.9,5.4Zm-11.529,8.753h11.267l-4.084-3.062c-.362.331-.694.639-1.032.942a.657.657,0,0,1-1.034,0c-.345-.309-.684-.625-1.033-.944Zm-1.245-7.949v7.311l4.387-3.289Zm13.766-.009-4.4,4.031,4.4,3.295Z" transform="translate(2359.626 -2554.315)" fill="#084a93"/>
    <path id="Path_190337" data-name="Path 190337" d="M-1228.442,4481.6a6.919,6.919,0,0,1,6.886,6.314,6.93,6.93,0,0,1-5.486,7.361,6.99,6.99,0,0,1-3.629-.222,1.1,1.1,0,0,0-.595-.02c-1.029.276-2.051.578-3.076.868-.771.219-1.137-.14-.941-.923.237-.951.486-1.9.708-2.852a.887.887,0,0,0-.062-.547A6.91,6.91,0,0,1-1228.442,4481.6Zm-5.411,12.858c.88-.252,1.683-.472,2.478-.713a1.416,1.416,0,0,1,.926.042,5.438,5.438,0,0,0,5.791-1.1,5.311,5.311,0,0,0,1.669-5.579,5.338,5.338,0,0,0-4.487-4.141,5.3,5.3,0,0,0-5.515,2.234,5.419,5.419,0,0,0-.39,6.032,1.184,1.184,0,0,1,.11.913C-1233.471,4492.887-1233.647,4493.635-1233.853,4494.46Z" transform="translate(2359.626 -2554.315)" fill="#084a93"/>
    <path id="Path_190338" data-name="Path 190338" d="M-1249.2,4501.109v1.2h-6.241v-1.2Z" transform="translate(2359.626 -2554.315)" fill="#084a93"/>
    <path id="Path_190339" data-name="Path 190339" d="M-1249.2,4498.556v1.234h-3.753c0-.363-.011-.7.01-1.042a.273.273,0,0,1,.195-.183C-1251.578,4498.553-1250.406,4498.556-1249.2,4498.556Z" transform="translate(2359.626 -2554.315)" fill="#084a93"/>
    <path id="Path_190340" data-name="Path 190340" d="M-1252.936,4504.819v-1.2h3.735v1.2Z" transform="translate(2359.626 -2554.315)" fill="#084a93"/>
    <path id="Path_190341" data-name="Path 190341" d="M-1245.657,4494.515c-1.008-.288-1.941-.578-2.887-.812a1.639,1.639,0,0,0-.878.046,6.109,6.109,0,0,1-6.506-1.255,5.908,5.908,0,0,1-1.767-6.4,5.92,5.92,0,0,1,4.946-4.386,5.911,5.911,0,0,1,6.147,2.521,6.006,6.006,0,0,1,.419,6.629,1.339,1.339,0,0,0-.133,1.047C-1246.081,4492.741-1245.888,4493.588-1245.657,4494.515Zm-7.3-8.509c-.838,0-1.62,0-2.4,0-.5,0-.721.214-.723.713q-.009,1.785,0,3.569c0,.513.229.733.749.733q3.642,0,7.286,0a.644.644,0,0,0,.755-.624q.3-1.756.586-3.516c.1-.613-.129-.872-.748-.875-.561,0-1.122,0-1.718,0a2.644,2.644,0,0,0-.38-1.76,1.854,1.854,0,0,0-1.56-.753,1.831,1.831,0,0,0-1.2.473A2.338,2.338,0,0,0-1252.957,4486.006Z" transform="translate(2359.626 -2554.315)" fill="#fff"/>
    <path id="Path_190342" data-name="Path 190342" d="M-1227.811,4509.33c.9.754,1.715,1.447,2.548,2.111a1.651,1.651,0,0,0,.716.317,1.243,1.243,0,0,1,1.118,1.249q.023,1.251,0,2.5a1.22,1.22,0,0,1-1.249,1.27q-4.085.018-8.171,0a1.223,1.223,0,0,1-1.249-1.238q-.038-1.269,0-2.539a1.239,1.239,0,0,1,1.354-1.243c1.337-.008,2.674,0,4.012,0,.735,0,.92-.183.922-.908C-1227.81,4510.373-1227.811,4509.9-1227.811,4509.33Zm-4.134,5.867a.937.937,0,0,0,.983-.879.939.939,0,0,0-.913-.987.936.936,0,0,0-.964.9A.929.929,0,0,0-1231.945,4515.2Zm3.18,0a.936.936,0,0,0,.946-.919.939.939,0,0,0-.918-.949.942.942,0,0,0-.964.939A.94.94,0,0,0-1228.765,4515.2Zm4.079-.924a.923.923,0,0,0-.923-.944.927.927,0,0,0-.941.926.921.921,0,0,0,.923.942A.919.919,0,0,0-1224.686,4514.275Z" transform="translate(2359.626 -2554.315)" fill="#fff"/>
    <path id="Path_190343" data-name="Path 190343" d="M-1246.5,4511.125c-.291.31-.512.551-.738.786-.8.829-1.6,1.653-2.4,2.485a2.324,2.324,0,0,0-.247.363,4.4,4.4,0,0,1-5.053,1.8,4.412,4.412,0,0,1-3.037-4.388,4.4,4.4,0,0,1,3.552-4.1,4.335,4.335,0,0,1,4.767,2.37,1.03,1.03,0,0,0,1.137.689C-1247.884,4511.094-1247.245,4511.125-1246.5,4511.125Zm-5.218.618h-1.237v-1.22h-1.262v1.242h-1.228v1.259h1.246v1.229h1.247v-1.244h1.234Z" transform="translate(2359.626 -2554.315)" fill="#fff"/>
    <path id="Path_190344" data-name="Path 190344" d="M-1233.858,4498.588l-5.9,5.4-5.9-5.4Z" transform="translate(2359.626 -2554.315)" fill="#fff"/>
    <path id="Path_190345" data-name="Path 190345" d="M-1245.387,4507.341l4.084-3.062c.349.319.688.635,1.033.944a.657.657,0,0,0,1.034,0c.338-.3.67-.611,1.032-.942l4.084,3.062Z" transform="translate(2359.626 -2554.315)" fill="#fff"/>
    <path id="Path_190346" data-name="Path 190346" d="M-1246.632,4499.392l4.387,4.022-4.387,3.289Z" transform="translate(2359.626 -2554.315)" fill="#fff"/>
    <path id="Path_190347" data-name="Path 190347" d="M-1232.866,4499.383v7.326l-4.4-3.295Z" transform="translate(2359.626 -2554.315)" fill="#fff"/>
    <path id="Path_190348" data-name="Path 190348" d="M-1233.853,4494.46c.206-.825.382-1.573.582-2.314a1.184,1.184,0,0,0-.11-.913,5.419,5.419,0,0,1,.39-6.032,5.3,5.3,0,0,1,5.515-2.234,5.338,5.338,0,0,1,4.487,4.141,5.311,5.311,0,0,1-1.669,5.579,5.438,5.438,0,0,1-5.791,1.1,1.416,1.416,0,0,0-.926-.042C-1232.17,4493.988-1232.973,4494.208-1233.853,4494.46Zm5.414-8.658c-.142-.108-.247-.192-.357-.27a2.552,2.552,0,0,0-3.446.453,2.514,2.514,0,0,0,.228,3.489c1.026.913,2.1,1.77,3.158,2.647a.587.587,0,0,0,.809.011c1.095-.908,2.232-1.773,3.26-2.752a2.533,2.533,0,0,0-1.158-4.245A2.565,2.565,0,0,0-1228.439,4485.8Z" transform="translate(2359.626 -2554.315)" fill="#fff"/>
    <path id="Path_190349" data-name="Path 190349" d="M-1252.957,4486.006a2.338,2.338,0,0,1,.638-2.04,1.831,1.831,0,0,1,1.2-.473,1.854,1.854,0,0,1,1.56.753,2.644,2.644,0,0,1,.38,1.76c.6,0,1.157,0,1.718,0,.619,0,.847.262.748.875q-.283,1.76-.586,3.516a.644.644,0,0,1-.755.624q-3.644,0-7.286,0c-.52,0-.747-.22-.749-.733q-.008-1.783,0-3.569c0-.5.22-.71.723-.713C-1254.577,4486-1253.8,4486.006-1252.957,4486.006Zm.665,1.264v2.5c1.236,0,2.448,0,3.659-.008a.289.289,0,0,0,.205-.187c.137-.756.255-1.514.386-2.312-.58,0-1.13.009-1.679,0a.642.642,0,0,1-.713-.7c-.013-.367,0-.736-.007-1.1-.013-.45-.248-.7-.632-.7s-.608.257-.623.711c-.009.294-.016.589,0,.882C-1251.667,4486.816-1251.785,4487.178-1252.292,4487.27Zm-2.506.007v2.469h1.2v-2.469Z" transform="translate(2359.626 -2554.315)" fill="#084a93"/>
    <path id="Path_190350" data-name="Path 190350" d="M-1231.945,4515.2a.929.929,0,0,1-.894-.966.936.936,0,0,1,.964-.9.939.939,0,0,1,.913.987A.937.937,0,0,1-1231.945,4515.2Zm.474-.919c-.193-.149-.309-.307-.413-.3s-.216.169-.323.263c.1.112.188.284.311.317C-1231.809,4514.581-1231.671,4514.417-1231.471,4514.278Z" transform="translate(2359.626 -2554.315)" fill="#084a93"/>
    <path id="Path_190351" data-name="Path 190351" d="M-1228.765,4515.2a.94.94,0,0,1-.936-.929.942.942,0,0,1,.964-.939.939.939,0,0,1,.918.949A.936.936,0,0,1-1228.765,4515.2Zm.443-.91c-.192-.154-.3-.311-.411-.309s-.217.162-.325.253c.1.115.178.29.3.325C-1228.671,4514.583-1228.529,4514.424-1228.322,4514.289Z" transform="translate(2359.626 -2554.315)" fill="#084a93"/>
    <path id="Path_190352" data-name="Path 190352" d="M-1224.686,4514.275a.919.919,0,0,1-.941.924.921.921,0,0,1-.923-.942.927.927,0,0,1,.941-.926A.923.923,0,0,1-1224.686,4514.275Zm-.5-.009c-.192-.14-.313-.3-.422-.288s-.215.175-.322.272c.107.109.2.282.326.307C-1225.511,4514.577-1225.378,4514.408-1225.186,4514.266Z" transform="translate(2359.626 -2554.315)" fill="#084a93"/>
    <path id="Path_190353" data-name="Path 190353" d="M-1251.719,4511.743v1.266h-1.234v1.244h-1.247v-1.229h-1.246v-1.259h1.228v-1.242h1.262v1.22Z" transform="translate(2359.626 -2554.315)" fill="#084a93"/>
    <path id="Path_190354" data-name="Path 190354" d="M-1228.439,4485.8a2.565,2.565,0,0,1,2.494-.667,2.533,2.533,0,0,1,1.158,4.245c-1.028.979-2.165,1.844-3.26,2.752a.587.587,0,0,1-.809-.011c-1.058-.877-2.132-1.734-3.158-2.647a2.514,2.514,0,0,1-.228-3.489,2.552,2.552,0,0,1,3.446-.453C-1228.686,4485.61-1228.581,4485.694-1228.439,4485.8Zm0,5.035c.918-.767,1.812-1.5,2.682-2.25a1.271,1.271,0,0,0,.159-1.813,1.3,1.3,0,0,0-1.845-.158c-.174.135-.338.283-.511.421a.657.657,0,0,1-.985-.008c-.191-.154-.373-.32-.571-.464a1.3,1.3,0,0,0-1.784.216,1.285,1.285,0,0,0,.124,1.766C-1230.288,4489.32-1229.373,4490.06-1228.443,4490.837Z" transform="translate(2359.626 -2554.315)" fill="#084a93"/>
    <path id="Path_190355" data-name="Path 190355" d="M-1252.292,4487.27c.507-.092.625-.454.6-.924-.017-.293-.01-.588,0-.882.015-.454.242-.707.623-.711s.619.248.632.7c.01.367-.006.736.007,1.1a.642.642,0,0,0,.713.7c.549.011,1.1,0,1.679,0-.131.8-.249,1.556-.386,2.312a.289.289,0,0,1-.205.187c-1.211.011-2.423.008-3.659.008Z" transform="translate(2359.626 -2554.315)" fill="#fff"/>
    <path id="Path_190356" data-name="Path 190356" d="M-1254.8,4487.277h1.2v2.469h-1.2Z" transform="translate(2359.626 -2554.315)" fill="#fff"/>
    <path id="Path_190357" data-name="Path 190357" d="M-1231.471,4514.278c-.2.139-.338.3-.425.28-.123-.033-.209-.205-.311-.317.107-.094.21-.255.323-.263S-1231.664,4514.129-1231.471,4514.278Z" transform="translate(2359.626 -2554.315)" fill="#fff"/>
    <path id="Path_190358" data-name="Path 190358" d="M-1228.322,4514.289c-.207.135-.349.294-.437.269-.121-.035-.2-.21-.3-.325.108-.091.215-.25.325-.253S-1228.514,4514.135-1228.322,4514.289Z" transform="translate(2359.626 -2554.315)" fill="#fff"/>
    <path id="Path_190359" data-name="Path 190359" d="M-1225.186,4514.266c-.192.142-.325.311-.418.291-.125-.025-.219-.2-.326-.307.107-.1.209-.264.322-.272S-1225.378,4514.126-1225.186,4514.266Z" transform="translate(2359.626 -2554.315)" fill="#fff"/>
    <path id="Path_190360" data-name="Path 190360" d="M-1228.443,4490.837c-.93-.777-1.845-1.517-2.731-2.29a1.285,1.285,0,0,1-.124-1.766,1.3,1.3,0,0,1,1.784-.216c.2.144.38.31.571.464a.657.657,0,0,0,.985.008c.173-.138.337-.286.511-.421a1.3,1.3,0,0,1,1.845.158,1.271,1.271,0,0,1-.159,1.813C-1226.631,4489.342-1227.525,4490.07-1228.443,4490.837Z" transform="translate(2359.626 -2554.315)" fill="#fff"/>
    <path id="Path_190361" data-name="Path 190361" d="M-1439.913,4554.311h-44.848c-1.224-.554-2.26-1.352-2.169-2.812a9.15,9.15,0,0,1,.761-3.26,6.648,6.648,0,0,1,5.781-3.981,1.255,1.255,0,0,0,1.336-1.149c.3-1.379.748-2.724,1.134-4.084.188-.666.374-1.333.59-2.1h-1.142c-7.021,0-14.043.012-21.064,0-3.783-.009-6.284-2.418-6.286-6.074q-.017-28.714,0-57.43a5.8,5.8,0,0,1,6.09-6.092q37.416-.013,74.831.023a7.472,7.472,0,0,1,2.853.654,5.871,5.871,0,0,1,3.2,4.245v59.81a15.551,15.551,0,0,1-1.132,2.427,5.928,5.928,0,0,1-5.3,2.447q-10.476-.019-20.953,0h-1.075c.076.345.117.589.185.826.508,1.793,1.08,3.57,1.507,5.382a1.271,1.271,0,0,0,1.349,1.128,6.715,6.715,0,0,1,5.892,4.21C-1437.338,4550.848-1437.119,4553.109-1439.913,4554.311Zm-22.357-84.1h-37.024c-2.61,0-3.637,1.034-3.637,3.659q0,28.24,0,56.482c0,2.628,1.023,3.664,3.631,3.665q36.981,0,73.963,0c2.556,0,3.6-1.049,3.6-3.616v-56.567c0-2.569-1.043-3.621-3.589-3.622Zm13.938,73.9c-.667-2.338-1.288-4.564-1.959-6.775a.872.872,0,0,0-.684-.4c-7.578-.021-15.157-.014-22.736-.025a.658.658,0,0,0-.754.586c-.477,1.772-1,3.532-1.5,5.3-.118.418-.22.84-.342,1.312Zm7.693,7.275c-.052-2.622-1.957-4.332-4.8-4.334q-16.893-.009-33.786,0a8.012,8.012,0,0,0-1.35.113c-2.247.391-3.683,2.67-3.4,4.219Z" transform="translate(2359.626 -2554.315)" fill="#084a93"/>
    <path id="Path_190362" data-name="Path 190362" d="M-1462.27,4470.21h36.939c2.546,0,3.589,1.053,3.589,3.622V4530.4c0,2.567-1.039,3.616-3.6,3.616q-36.981,0-73.963,0c-2.608,0-3.631-1.037-3.631-3.665q0-28.242,0-56.482c0-2.625,1.027-3.659,3.637-3.659Zm-.062,55.091q16.431,0,32.861,0c3.088,0,4.833-1.762,4.833-4.856q.006-21.232,0-42.466c0-3.075-1.782-4.869-4.843-4.869q-32.86-.006-65.722,0c-3.024,0-4.831,1.79-4.832,4.794q-.009,21.318.006,42.636a6.214,6.214,0,0,0,.215,1.675c.569,1.989,2.226,3.086,4.621,3.087Q-1478.763,4525.305-1462.332,4525.3Zm-.047,5.807c2.236,0,4.472,0,6.708,0,1.33,0,1.99-.48,2-1.425.012-.969-.682-1.471-2.047-1.48h-.085q-6.537,0-13.075,0a4.48,4.48,0,0,0-1.092.1,1.292,1.292,0,0,0-1.031,1.373,1.3,1.3,0,0,0,1.07,1.344,4.413,4.413,0,0,0,1.011.078C-1466.737,4531.111-1464.558,4531.108-1462.379,4531.108Z" transform="translate(2359.626 -2554.315)" fill="#fff"/>
    <path id="Path_190363" data-name="Path 190363" d="M-1448.332,4544.111h-27.974c.122-.472.224-.894.342-1.312.5-1.766,1.022-3.526,1.5-5.3a.658.658,0,0,1,.754-.586c7.579.011,15.158,0,22.736.025a.872.872,0,0,1,.684.4C-1449.62,4539.547-1449,4541.773-1448.332,4544.111Z" transform="translate(2359.626 -2554.315)" fill="#fff"/>
    <path id="Path_190364" data-name="Path 190364" d="M-1440.639,4551.386h-43.335c-.283-1.549,1.153-3.828,3.4-4.219a8.012,8.012,0,0,1,1.35-.113q16.893-.01,33.786,0C-1442.6,4547.054-1440.691,4548.764-1440.639,4551.386Z" transform="translate(2359.626 -2554.315)" fill="#fff"/>
    <path id="Path_190365" data-name="Path 190365" d="M-1462.332,4525.3q-16.431,0-32.861,0c-2.4,0-4.052-1.1-4.621-3.087a6.214,6.214,0,0,1-.215-1.675q-.016-21.318-.006-42.636c0-3,1.808-4.794,4.832-4.794q32.86-.006,65.722,0c3.061,0,4.843,1.794,4.843,4.869q.006,21.234,0,42.466c0,3.094-1.745,4.854-4.833,4.856Q-1445.9,4525.309-1462.332,4525.3Zm-.005-2.906h32.615c1.786,0,2.19-.406,2.19-2.2v-41.967c0-1.791-.429-2.227-2.19-2.227h-65.23c-1.761,0-2.189.436-2.19,2.228V4520.2c0,1.793.4,2.2,2.191,2.2Z" transform="translate(2359.626 -2554.315)" fill="#084a93"/>
    <path id="Path_190366" data-name="Path 190366" d="M-1462.379,4531.108c-2.179,0-4.358,0-6.538,0a4.413,4.413,0,0,1-1.011-.078,1.3,1.3,0,0,1-1.07-1.344,1.292,1.292,0,0,1,1.031-1.373,4.48,4.48,0,0,1,1.092-.1q6.537-.009,13.075,0h.085c1.365.009,2.059.511,2.047,1.48-.013.945-.673,1.421-2,1.425C-1457.907,4531.112-1460.143,4531.108-1462.379,4531.108Z" transform="translate(2359.626 -2554.315)" fill="#084a93"/>
    <path id="Path_190367" data-name="Path 190367" d="M-1462.337,4522.4h-32.614c-1.786,0-2.19-.406-2.191-2.2V4478.23c0-1.792.429-2.228,2.19-2.228h65.23c1.761,0,2.19.436,2.19,2.227V4520.2c0,1.793-.4,2.2-2.19,2.2Zm-30.388-9.867a13.038,13.038,0,0,0,1.491-1.334q11.178-13.77,22.324-27.567c.64-.792,1.3-1.567,1.9-2.39a1.429,1.429,0,0,0-.229-1.984,1.45,1.45,0,0,0-1.991.186,5.193,5.193,0,0,0-.383.453q-11.508,14.214-23.013,28.429a10.263,10.263,0,0,0-1.333,1.746,1.936,1.936,0,0,0-.032,1.483C-1493.816,4511.933-1493.257,4512.14-1492.725,4512.528Zm30.59-25.079c-.4-.418-.716-.953-1.181-1.181-.695-.34-1.293.044-1.756.634q-7.828,9.98-15.663,19.955a1.456,1.456,0,0,0,.074,2.186,1.5,1.5,0,0,0,2.214-.42q7.817-9.935,15.614-19.885A9.7,9.7,0,0,0-1462.135,4487.449Zm-14.509-7.237a5.666,5.666,0,0,0-1.2-1.173c-.713-.366-1.285.078-1.752.638q-7.032,8.447-14.068,16.891c-.734.883-.724,1.743-.01,2.314.68.544,1.509.4,2.214-.44q7.074-8.469,14.121-16.957A8.491,8.491,0,0,0-1476.644,4480.212Z" transform="translate(2359.626 -2554.315)" fill="#fff"/>
    <path id="Path_190368" data-name="Path 190368" d="M-1492.725,4512.528c-.532-.388-1.091-.595-1.265-.978a1.936,1.936,0,0,1,.032-1.483,10.263,10.263,0,0,1,1.333-1.746q11.505-14.215,23.013-28.429a5.193,5.193,0,0,1,.383-.453,1.45,1.45,0,0,1,1.991-.186,1.429,1.429,0,0,1,.229,1.984c-.6.823-1.261,1.6-1.9,2.39q-11.157,13.788-22.324,27.567A13.038,13.038,0,0,1-1492.725,4512.528Z" transform="translate(2359.626 -2554.315)" fill="#084a93"/>
    <path id="Path_190369" data-name="Path 190369" d="M-1462.135,4487.449a9.7,9.7,0,0,1-.7,1.289q-7.794,9.953-15.614,19.885a1.5,1.5,0,0,1-2.214.42,1.456,1.456,0,0,1-.074-2.186q7.826-9.982,15.663-19.955c.463-.59,1.061-.974,1.756-.634C-1462.851,4486.5-1462.537,4487.031-1462.135,4487.449Z" transform="translate(2359.626 -2554.315)" fill="#084a93"/>
    <path id="Path_190370" data-name="Path 190370" d="M-1476.644,4480.212a8.491,8.491,0,0,1-.7,1.273q-7.045,8.49-14.121,16.957c-.7.844-1.534.984-2.214.44-.714-.571-.724-1.431.01-2.314q7.031-8.449,14.068-16.891c.467-.56,1.039-1,1.752-.638A5.666,5.666,0,0,1-1476.644,4480.212Z" transform="translate(2359.626 -2554.315)" fill="#084a93"/>
    <path id="Path_190371" data-name="Path 190371" d="M-1481.194,4487.124c.069-.321.131-.643.207-.962a7.533,7.533,0,0,1,7.717-5.8,7.545,7.545,0,0,1,7.081,6.526,7.581,7.581,0,0,1-.717,4.365,1.011,1.011,0,0,0-.066.616c.246,1.061.524,2.116.787,3.173.194.779-.174,1.138-.945.919-1.155-.326-2.307-.663-3.465-.979a.969.969,0,0,0-.529.013,7.543,7.543,0,0,1-9.966-5.861c-.034-.179-.069-.357-.1-.536Zm13.578,7.391c-.231-.927-.423-1.774-.659-2.61a1.335,1.335,0,0,1,.134-1.047,6.008,6.008,0,0,0-.42-6.629,5.911,5.911,0,0,0-6.147-2.521,5.921,5.921,0,0,0-4.946,4.386,5.908,5.908,0,0,0,1.767,6.4,6.109,6.109,0,0,0,6.506,1.255,1.642,1.642,0,0,1,.879-.046C-1469.556,4493.937-1468.624,4494.227-1467.616,4494.515Z" transform="translate(2359.626 -2554.315)" fill="#084a93"/>
    <path id="Path_190372" data-name="Path 190372" d="M-1455.125,4518.046c-.186-.057-.379-.1-.558-.173a2.458,2.458,0,0,1-1.63-2.319c-.033-.857-.026-1.717,0-2.574a2.455,2.455,0,0,1,2.383-2.463c1.138-.052,2.28-.018,3.42-.022h.484v-.4c0-.626,0-1.251,0-1.876,0-.331.014-.648.372-.807s.607.035.857.25c.325.279.658.55.987.825.744.62,1.484,1.244,2.235,1.856a1.024,1.024,0,0,0,.42.191,2.482,2.482,0,0,1,2.02,2.35c.033.881.029,1.765.008,2.647a2.46,2.46,0,0,1-2.028,2.45.648.648,0,0,0-.129.061Zm5.355-8.716c0,.569,0,1.043,0,1.517,0,.725-.187.908-.922.908-1.338,0-2.675,0-4.012,0a1.238,1.238,0,0,0-1.353,1.243q-.038,1.269,0,2.539a1.223,1.223,0,0,0,1.249,1.238q4.086.021,8.172,0a1.221,1.221,0,0,0,1.249-1.27q.021-1.251,0-2.5a1.242,1.242,0,0,0-1.118-1.249,1.652,1.652,0,0,1-.716-.317C-1448.055,4510.777-1448.865,4510.084-1449.77,4509.33Z" transform="translate(2359.626 -2554.315)" fill="#084a93"/>
    <path id="Path_190373" data-name="Path 190373" d="M-1481.194,4511.788a10.538,10.538,0,0,1,.255-1.067,5.431,5.431,0,0,1,4.649-3.921,5.423,5.423,0,0,1,5.648,2.777.515.515,0,0,0,.512.3c.981-.015,1.963,0,2.945-.009.332,0,.62.058.757.394a.7.7,0,0,1-.231.792q-1.86,1.964-3.707,3.942c-.242.259-.461.54-.681.818a5.615,5.615,0,0,1-3.755,2.167,1.293,1.293,0,0,0-.206.065h-1.031a1.323,1.323,0,0,0-.207-.061,5.644,5.644,0,0,1-4.77-4.205c-.063-.246-.119-.494-.178-.741Zm12.735-.663c-.745,0-1.383-.031-2.017.009a1.028,1.028,0,0,1-1.136-.689,4.336,4.336,0,0,0-4.768-2.37,4.4,4.4,0,0,0-3.552,4.1,4.412,4.412,0,0,0,3.037,4.388,4.4,4.4,0,0,0,5.053-1.8,2.324,2.324,0,0,1,.247-.363c.795-.832,1.6-1.656,2.4-2.485C-1468.971,4511.676-1468.75,4511.435-1468.459,4511.125Z" transform="translate(2359.626 -2554.315)" fill="#084a93"/>
    <path id="Path_190374" data-name="Path 190374" d="M-1461.72,4508.616h-7.288c-.679,0-.869-.191-.869-.878q0-4.783,0-9.569c0-.68.194-.871.879-.871h14.577c.677,0,.871.2.872.882q0,4.783,0,9.569c0,.677-.2.867-.882.867Zm5.9-10.028h-11.791l5.9,5.4Zm-11.529,8.753h11.267l-4.084-3.062c-.361.331-.693.639-1.031.942a.658.658,0,0,1-1.035,0c-.345-.309-.684-.625-1.033-.944Zm-1.245-7.949v7.311l4.387-3.289Zm13.767-.009-4.4,4.031,4.4,3.295Z" transform="translate(2359.626 -2554.315)" fill="#084a93"/>
    <path id="Path_190375" data-name="Path 190375" d="M-1450.4,4481.6a6.919,6.919,0,0,1,6.885,6.314,6.93,6.93,0,0,1-5.486,7.361,6.985,6.985,0,0,1-3.628-.222,1.1,1.1,0,0,0-.6-.02c-1.029.276-2.051.578-3.076.868-.77.219-1.137-.14-.941-.923.237-.951.487-1.9.708-2.852a.886.886,0,0,0-.062-.547A6.911,6.911,0,0,1-1450.4,4481.6Zm-5.412,12.858c.881-.252,1.683-.472,2.479-.713a1.414,1.414,0,0,1,.925.042,5.438,5.438,0,0,0,5.791-1.1,5.309,5.309,0,0,0,1.669-5.579,5.338,5.338,0,0,0-4.487-4.141,5.3,5.3,0,0,0-5.515,2.234,5.419,5.419,0,0,0-.389,6.032,1.188,1.188,0,0,1,.109.913C-1455.43,4492.887-1455.606,4493.635-1455.812,4494.46Z" transform="translate(2359.626 -2554.315)" fill="#084a93"/>
    <path id="Path_190376" data-name="Path 190376" d="M-1471.159,4501.109v1.2h-6.242v-1.2Z" transform="translate(2359.626 -2554.315)" fill="#084a93"/>
    <path id="Path_190377" data-name="Path 190377" d="M-1471.161,4498.556v1.234h-3.752c0-.363-.011-.7.009-1.042a.275.275,0,0,1,.2-.183C-1473.536,4498.553-1472.364,4498.556-1471.161,4498.556Z" transform="translate(2359.626 -2554.315)" fill="#084a93"/>
    <path id="Path_190378" data-name="Path 190378" d="M-1474.894,4504.819v-1.2h3.734v1.2Z" transform="translate(2359.626 -2554.315)" fill="#084a93"/>
    <path id="Path_190379" data-name="Path 190379" d="M-1467.616,4494.515c-1.008-.288-1.94-.578-2.886-.812a1.642,1.642,0,0,0-.879.046,6.109,6.109,0,0,1-6.506-1.255,5.908,5.908,0,0,1-1.767-6.4,5.921,5.921,0,0,1,4.946-4.386,5.911,5.911,0,0,1,6.147,2.521,6.008,6.008,0,0,1,.42,6.629,1.335,1.335,0,0,0-.134,1.047C-1468.039,4492.741-1467.847,4493.588-1467.616,4494.515Zm-7.3-8.509c-.837,0-1.62,0-2.4,0-.5,0-.721.214-.723.713q-.009,1.785,0,3.569c0,.513.229.733.749.733q3.642,0,7.286,0a.644.644,0,0,0,.755-.624q.3-1.756.586-3.516c.1-.613-.129-.872-.748-.875-.561,0-1.122,0-1.718,0a2.644,2.644,0,0,0-.38-1.76,1.853,1.853,0,0,0-1.56-.753,1.833,1.833,0,0,0-1.2.473A2.338,2.338,0,0,0-1474.916,4486.006Z" transform="translate(2359.626 -2554.315)" fill="#fff"/>
    <path id="Path_190380" data-name="Path 190380" d="M-1449.77,4509.33c.905.754,1.715,1.447,2.548,2.111a1.652,1.652,0,0,0,.716.317,1.242,1.242,0,0,1,1.118,1.249q.022,1.251,0,2.5a1.221,1.221,0,0,1-1.249,1.27q-4.086.018-8.172,0a1.223,1.223,0,0,1-1.249-1.238q-.038-1.269,0-2.539a1.238,1.238,0,0,1,1.353-1.243c1.337-.008,2.674,0,4.012,0,.735,0,.92-.183.922-.908C-1449.769,4510.373-1449.77,4509.9-1449.77,4509.33Zm-4.133,5.867a.936.936,0,0,0,.982-.879.939.939,0,0,0-.913-.987.936.936,0,0,0-.964.9A.929.929,0,0,0-1453.9,4515.2Zm3.179,0a.936.936,0,0,0,.947-.919.94.94,0,0,0-.918-.949.942.942,0,0,0-.965.939A.94.94,0,0,0-1450.724,4515.2Zm4.079-.924a.923.923,0,0,0-.922-.944.928.928,0,0,0-.942.926.921.921,0,0,0,.923.942A.919.919,0,0,0-1446.645,4514.275Z" transform="translate(2359.626 -2554.315)" fill="#fff"/>
    <path id="Path_190381" data-name="Path 190381" d="M-1468.459,4511.125c-.291.31-.512.551-.739.786-.8.829-1.6,1.653-2.4,2.485a2.324,2.324,0,0,0-.247.363,4.4,4.4,0,0,1-5.053,1.8,4.412,4.412,0,0,1-3.037-4.388,4.4,4.4,0,0,1,3.552-4.1,4.336,4.336,0,0,1,4.768,2.37,1.028,1.028,0,0,0,1.136.689C-1469.842,4511.094-1469.2,4511.125-1468.459,4511.125Zm-5.219.618h-1.237v-1.22h-1.262v1.242h-1.228v1.259h1.246v1.229h1.247v-1.244h1.234Z" transform="translate(2359.626 -2554.315)" fill="#fff"/>
    <path id="Path_190382" data-name="Path 190382" d="M-1455.817,4498.588l-5.9,5.4-5.9-5.4Z" transform="translate(2359.626 -2554.315)" fill="#fff"/>
    <path id="Path_190383" data-name="Path 190383" d="M-1467.346,4507.341l4.084-3.062c.349.319.688.635,1.033.944a.658.658,0,0,0,1.035,0c.338-.3.67-.611,1.031-.942l4.084,3.062Z" transform="translate(2359.626 -2554.315)" fill="#fff"/>
    <path id="Path_190384" data-name="Path 190384" d="M-1468.591,4499.392l4.387,4.022-4.387,3.289Z" transform="translate(2359.626 -2554.315)" fill="#fff"/>
    <path id="Path_190385" data-name="Path 190385" d="M-1454.824,4499.383v7.326l-4.4-3.295Z" transform="translate(2359.626 -2554.315)" fill="#fff"/>
    <path id="Path_190386" data-name="Path 190386" d="M-1455.812,4494.46c.206-.825.382-1.573.582-2.314a1.188,1.188,0,0,0-.109-.913,5.419,5.419,0,0,1,.389-6.032,5.3,5.3,0,0,1,5.515-2.234,5.338,5.338,0,0,1,4.487,4.141,5.309,5.309,0,0,1-1.669,5.579,5.438,5.438,0,0,1-5.791,1.1,1.414,1.414,0,0,0-.925-.042C-1454.129,4493.988-1454.931,4494.208-1455.812,4494.46Zm5.414-8.658c-.142-.108-.246-.192-.356-.27a2.553,2.553,0,0,0-3.447.453,2.514,2.514,0,0,0,.228,3.489c1.026.913,2.1,1.77,3.158,2.647a.587.587,0,0,0,.809.011c1.095-.908,2.232-1.773,3.26-2.752a2.533,2.533,0,0,0-1.158-4.245A2.565,2.565,0,0,0-1450.4,4485.8Z" transform="translate(2359.626 -2554.315)" fill="#fff"/>
    <path id="Path_190387" data-name="Path 190387" d="M-1474.916,4486.006a2.338,2.338,0,0,1,.638-2.04,1.833,1.833,0,0,1,1.2-.473,1.853,1.853,0,0,1,1.56.753,2.644,2.644,0,0,1,.38,1.76c.6,0,1.157,0,1.718,0,.619,0,.847.262.748.875q-.282,1.76-.586,3.516a.644.644,0,0,1-.755.624q-3.643,0-7.286,0c-.52,0-.746-.22-.749-.733q-.008-1.783,0-3.569c0-.5.22-.71.723-.713C-1476.536,4486-1475.753,4486.006-1474.916,4486.006Zm.665,1.264v2.5c1.237,0,2.448,0,3.659-.008a.293.293,0,0,0,.206-.187c.136-.756.255-1.514.385-2.312-.58,0-1.13.009-1.679,0a.642.642,0,0,1-.713-.7c-.013-.367,0-.736-.007-1.1-.013-.45-.248-.7-.632-.7s-.608.257-.623.711c-.009.294-.016.589,0,.882C-1473.626,4486.816-1473.744,4487.178-1474.251,4487.27Zm-2.506.007v2.469h1.2v-2.469Z" transform="translate(2359.626 -2554.315)" fill="#084a93"/>
    <path id="Path_190388" data-name="Path 190388" d="M-1453.9,4515.2a.929.929,0,0,1-.9-.966.936.936,0,0,1,.964-.9.939.939,0,0,1,.913.987A.936.936,0,0,1-1453.9,4515.2Zm.473-.919c-.193-.149-.309-.307-.413-.3s-.216.169-.323.263c.1.112.188.284.311.317C-1453.767,4514.581-1453.63,4514.417-1453.43,4514.278Z" transform="translate(2359.626 -2554.315)" fill="#084a93"/>
    <path id="Path_190389" data-name="Path 190389" d="M-1450.724,4515.2a.94.94,0,0,1-.936-.929.942.942,0,0,1,.965-.939.94.94,0,0,1,.918.949A.936.936,0,0,1-1450.724,4515.2Zm.443-.91c-.192-.154-.3-.311-.411-.309s-.217.162-.325.253c.1.115.178.29.3.325C-1450.629,4514.583-1450.488,4514.424-1450.281,4514.289Z" transform="translate(2359.626 -2554.315)" fill="#084a93"/>
    <path id="Path_190390" data-name="Path 190390" d="M-1446.645,4514.275a.919.919,0,0,1-.941.924.921.921,0,0,1-.923-.942.928.928,0,0,1,.942-.926A.923.923,0,0,1-1446.645,4514.275Zm-.5-.009c-.192-.14-.313-.3-.422-.288s-.215.175-.322.272c.107.109.2.282.326.307C-1447.469,4514.577-1447.337,4514.408-1447.145,4514.266Z" transform="translate(2359.626 -2554.315)" fill="#084a93"/>
    <path id="Path_190391" data-name="Path 190391" d="M-1473.678,4511.743v1.266h-1.234v1.244h-1.247v-1.229h-1.246v-1.259h1.228v-1.242h1.262v1.22Z" transform="translate(2359.626 -2554.315)" fill="#084a93"/>
    <path id="Path_190392" data-name="Path 190392" d="M-1450.4,4485.8a2.565,2.565,0,0,1,2.494-.667,2.533,2.533,0,0,1,1.158,4.245c-1.028.979-2.165,1.844-3.26,2.752a.587.587,0,0,1-.809-.011c-1.057-.877-2.132-1.734-3.158-2.647a2.514,2.514,0,0,1-.228-3.489,2.553,2.553,0,0,1,3.447-.453C-1450.644,4485.61-1450.54,4485.694-1450.4,4485.8Zm0,5.035c.918-.767,1.812-1.5,2.682-2.25a1.271,1.271,0,0,0,.159-1.813,1.3,1.3,0,0,0-1.845-.158c-.174.135-.338.283-.511.421a.657.657,0,0,1-.985-.008c-.191-.154-.373-.32-.571-.464a1.3,1.3,0,0,0-1.784.216,1.285,1.285,0,0,0,.125,1.766C-1452.246,4489.32-1451.332,4490.06-1450.4,4490.837Z" transform="translate(2359.626 -2554.315)" fill="#084a93"/>
    <path id="Path_190393" data-name="Path 190393" d="M-1474.251,4487.27c.507-.092.625-.454.6-.924-.017-.293-.01-.588,0-.882.015-.454.242-.707.623-.711s.619.248.632.7c.01.367-.006.736.007,1.1a.642.642,0,0,0,.713.7c.549.011,1.1,0,1.679,0-.13.8-.249,1.556-.385,2.312a.293.293,0,0,1-.206.187c-1.211.011-2.422.008-3.659.008Z" transform="translate(2359.626 -2554.315)" fill="#fff"/>
    <path id="Path_190394" data-name="Path 190394" d="M-1476.757,4487.277h1.2v2.469h-1.2Z" transform="translate(2359.626 -2554.315)" fill="#fff"/>
    <path id="Path_190395" data-name="Path 190395" d="M-1453.43,4514.278c-.2.139-.337.3-.425.28-.123-.033-.209-.205-.311-.317.107-.094.21-.255.323-.263S-1453.623,4514.129-1453.43,4514.278Z" transform="translate(2359.626 -2554.315)" fill="#fff"/>
    <path id="Path_190396" data-name="Path 190396" d="M-1450.281,4514.289c-.207.135-.348.294-.437.269-.121-.035-.2-.21-.3-.325.108-.091.215-.25.325-.253S-1450.473,4514.135-1450.281,4514.289Z" transform="translate(2359.626 -2554.315)" fill="#fff"/>
    <path id="Path_190397" data-name="Path 190397" d="M-1447.145,4514.266c-.192.142-.324.311-.418.291-.124-.025-.219-.2-.326-.307.107-.1.209-.264.322-.272S-1447.337,4514.126-1447.145,4514.266Z" transform="translate(2359.626 -2554.315)" fill="#fff"/>
    <path id="Path_190398" data-name="Path 190398" d="M-1450.4,4490.837c-.93-.777-1.844-1.517-2.73-2.29a1.285,1.285,0,0,1-.125-1.766,1.3,1.3,0,0,1,1.784-.216c.2.144.38.31.571.464a.657.657,0,0,0,.985.008c.173-.138.337-.286.511-.421a1.3,1.3,0,0,1,1.845.158,1.271,1.271,0,0,1-.159,1.813C-1448.59,4489.342-1449.484,4490.07-1450.4,4490.837Z" transform="translate(2359.626 -2554.315)" fill="#fff"/>
    <path id="Path_190399" data-name="Path 190399" d="M-1407.6,4760.985V4650.029h110.956a2.7,2.7,0,0,1,1.332,2.653q-.031,53.5-.018,107c0,2.015-.6,2.614-2.614,2.614q-53.5,0-107,.018A2.694,2.694,0,0,1-1407.6,4760.985Zm108.489-84.67h-104.667v70.959h104.667Zm-.006,74.859h-104.658v7.332h104.658Zm0-97.325h-104.669V4672.4h104.669Z" transform="translate(2359.626 -2574.315)" fill="#084a93"/>
    <path id="Path_190400" data-name="Path 190400" d="M-1407.6,4760.985a2.694,2.694,0,0,0,2.652,1.333q53.5-.031,107-.018c2.015,0,2.614-.6,2.614-2.614q0-53.5.018-107a2.7,2.7,0,0,0-1.332-2.653h1.535V4762.52H-1407.6Z" transform="translate(2359.626 -2574.315)" fill="#fff"/>
    <path id="Path_190401" data-name="Path 190401" d="M-1299.115,4676.315v70.959h-104.667v-70.959Zm-84.129,41.058q-7.12,0-14.241,0c-2,0-2.646.635-2.647,2.608q-.006,8.6,0,17.2c0,2.055.618,2.675,2.686,2.676q14.187.007,28.373,0c2.047,0,2.65-.626,2.651-2.714q0-8.544,0-17.09c0-2.057-.627-2.678-2.689-2.68Q-1376.177,4717.37-1383.244,4717.373Zm63.622,0q-7.067,0-14.132,0c-2.146,0-2.759.6-2.76,2.719q0,8.544,0,17.089c0,2.054.623,2.675,2.689,2.676q14.187.007,28.373,0c2.047,0,2.647-.626,2.648-2.714q0-8.546,0-17.09c0-2.057-.622-2.678-2.685-2.68Q-1312.557,4717.37-1319.622,4717.373Zm-63.641-11.208q7.12,0,14.241,0c1.938,0,2.594-.631,2.6-2.533q.012-8.708,0-17.417c0-1.848-.649-2.486-2.52-2.487q-14.35-.01-28.7,0c-1.856,0-2.484.648-2.485,2.52q-.009,8.709,0,17.417c0,1.85.66,2.5,2.518,2.5Q-1390.437,4706.17-1383.263,4706.165Zm63.593,0q7.121,0,14.24,0c2,0,2.624-.617,2.625-2.613q.006-8.6,0-17.2c0-2.015-.6-2.626-2.6-2.627q-14.239-.007-28.48,0c-2.012,0-2.626.611-2.628,2.6q-.009,8.6,0,17.2c0,2.016.617,2.637,2.6,2.638Q-1326.789,4706.168-1319.67,4706.165Zm-31.8-5.626c0,.771.008,1.42,0,2.068a1.877,1.877,0,0,0,1.13,1.952,1.9,1.9,0,0,0,2.2-.5c2.53-2.533,5.076-5.051,7.592-7.6a1.871,1.871,0,0,0,.051-2.982c-2.534-2.581-5.1-5.128-7.67-7.676a1.8,1.8,0,0,0-2.092-.519,1.891,1.891,0,0,0-1.21,1.9c0,.683,0,1.365,0,2.123h-1.323c-2.521,0-5.042-.013-7.563.006-1.527.012-2.291.664-2.31,2.026q-.051,3.617,0,7.234a1.786,1.786,0,0,0,1.907,1.944c1.277.054,2.557.022,3.836.024C-1355.137,4700.541-1353.356,4700.539-1351.468,4700.539Zm0,33.694c0,.806-.005,1.491,0,2.177a1.866,1.866,0,0,0,1.138,1.836,1.785,1.785,0,0,0,2.109-.436c2.595-2.567,5.188-5.137,7.745-7.742a1.849,1.849,0,0,0-.009-2.9c-2.531-2.579-5.1-5.12-7.657-7.675a1.886,1.886,0,0,0-2.2-.491,1.886,1.886,0,0,0-1.128,1.952c.011.674,0,1.349,0,2.073-3.1,0-6.017-.01-8.934,0-1.611.007-2.26.654-2.271,2.256-.015,2.154-.01,4.308,0,6.462.006,1.871.621,2.481,2.5,2.485C-1357.328,4734.237-1354.483,4734.233-1351.467,4734.233Z" transform="translate(2359.626 -2574.315)" fill="#fff"/>
    <path id="Path_190402" data-name="Path 190402" d="M-1299.121,4751.174v7.332h-104.658v-7.332ZM-1400.1,4756.6h7.349v-3.569h-7.349Zm18.763-3.607v3.628h3.591v-3.628Zm-7.484-.013v3.629h3.563v-3.629Zm18.58,3.637v-3.594h-3.6v3.594Z" transform="translate(2359.626 -2574.315)" fill="#fff"/>
    <path id="Path_190403" data-name="Path 190403" d="M-1299.118,4653.849V4672.4h-104.669v-18.549Zm-52.352,1.807q-23.948,0-47.9,0c-2.054,0-2.606.553-2.61,2.6-.008,3.142,0,6.284,0,9.426,0,2.461.486,2.946,2.944,2.946h95.134c.329,0,.66.017.986-.011a1.842,1.842,0,0,0,1.929-1.952c.038-3.689.018-7.379.01-11.069a1.723,1.723,0,0,0-1.193-1.784,5.413,5.413,0,0,0-1.625-.149Q-1327.631,4655.65-1351.47,4655.656Z" transform="translate(2359.626 -2574.315)" fill="#fff"/>
    <path id="Path_190404" data-name="Path 190404" d="M-1383.244,4717.373q7.067,0,14.132,0c2.062,0,2.687.623,2.689,2.68q.006,8.545,0,17.09c0,2.088-.6,2.713-2.651,2.714q-14.187.007-28.373,0c-2.068,0-2.685-.621-2.686-2.676q0-8.6,0-17.2c0-1.973.645-2.606,2.647-2.608Q-1390.365,4717.368-1383.244,4717.373Zm-13.1,3.8v14.854h26.1v-14.854Z" transform="translate(2359.626 -2574.315)" fill="#084a93"/>
    <path id="Path_190405" data-name="Path 190405" d="M-1319.622,4717.373q7.065,0,14.132,0c2.063,0,2.684.623,2.685,2.68q0,8.545,0,17.09c0,2.088-.6,2.713-2.648,2.714q-14.186.007-28.373,0c-2.066,0-2.687-.622-2.689-2.676q-.006-8.544,0-17.089c0-2.117.614-2.718,2.76-2.719Q-1326.687,4717.371-1319.622,4717.373Zm13.008,18.659v-14.818h-26.1v14.818Z" transform="translate(2359.626 -2574.315)" fill="#084a93"/>
    <path id="Path_190406" data-name="Path 190406" d="M-1383.263,4706.165q-7.175,0-14.35,0c-1.858,0-2.516-.65-2.518-2.5q-.01-8.708,0-17.417c0-1.872.629-2.518,2.485-2.52q14.349-.012,28.7,0c1.871,0,2.518.639,2.52,2.487q.015,8.709,0,17.417c0,1.9-.659,2.532-2.6,2.533Q-1376.143,4706.168-1383.263,4706.165Zm13.029-18.616h-26.083v14.83h26.083Z" transform="translate(2359.626 -2574.315)" fill="#084a93"/>
    <path id="Path_190407" data-name="Path 190407" d="M-1319.67,4706.165q-7.12,0-14.24,0c-1.986,0-2.6-.622-2.6-2.638q-.008-8.6,0-17.2c0-1.992.616-2.6,2.628-2.6q14.24-.006,28.48,0c2,0,2.6.612,2.6,2.627q.006,8.6,0,17.2c0,2-.622,2.612-2.625,2.613Q-1312.549,4706.168-1319.67,4706.165Zm-13.017-18.636v14.8h26.081v-14.8Z" transform="translate(2359.626 -2574.315)" fill="#084a93"/>
    <path id="Path_190408" data-name="Path 190408" d="M-1351.468,4700.539c-1.888,0-3.669,0-5.451,0-1.279,0-2.559.03-3.836-.024a1.786,1.786,0,0,1-1.907-1.944q-.051-3.616,0-7.234c.019-1.362.783-2.014,2.31-2.026,2.521-.019,5.042,0,7.563-.006h1.323c0-.758,0-1.44,0-2.123a1.891,1.891,0,0,1,1.21-1.9,1.8,1.8,0,0,1,2.092.519c2.567,2.548,5.136,5.1,7.67,7.676a1.871,1.871,0,0,1-.051,2.982c-2.516,2.549-5.062,5.067-7.592,7.6a1.9,1.9,0,0,1-2.2.5,1.877,1.877,0,0,1-1.13-1.952C-1351.46,4701.959-1351.468,4701.31-1351.468,4700.539Zm-7.417-3.746c2.831,0,5.563.023,8.293-.01,1.239-.016,2.34.138,2.781,1.241l3.132-3.11-3.061-3.152c-.844,1.206-.993,1.284-2.593,1.289-1.021,0-2.042,0-3.063,0h-5.489Z" transform="translate(2359.626 -2574.315)" fill="#084a93"/>
    <path id="Path_190409" data-name="Path 190409" d="M-1351.467,4734.233c-3.016,0-5.861,0-8.706,0-1.881,0-2.5-.614-2.5-2.485-.008-2.154-.013-4.308,0-6.462.011-1.6.66-2.249,2.271-2.256,2.917-.014,5.835,0,8.934,0,0-.724.009-1.4,0-2.073a1.886,1.886,0,0,1,1.128-1.952,1.886,1.886,0,0,1,2.2.491c2.555,2.555,5.126,5.1,7.657,7.675a1.849,1.849,0,0,1,.009,2.9c-2.557,2.6-5.15,5.175-7.745,7.742a1.785,1.785,0,0,1-2.109.436,1.866,1.866,0,0,1-1.138-1.836C-1351.472,4735.724-1351.467,4735.039-1351.467,4734.233Zm6.926-5.557-3.238-3.255c-.457,1.124-1.442,1.373-2.631,1.353-2.411-.04-4.823-.012-7.235-.012h-1.227v3.736c2.835,0,5.6.035,8.373-.016,1.224-.023,2.255.17,2.77,1.427Z" transform="translate(2359.626 -2574.315)" fill="#084a93"/>
    <path id="Path_190410" data-name="Path 190410" d="M-1400.1,4756.6v-3.569h7.349v3.569Z" transform="translate(2359.626 -2574.315)" fill="#084a93"/>
    <path id="Path_190411" data-name="Path 190411" d="M-1381.333,4752.99h3.591v3.628h-3.591Z" transform="translate(2359.626 -2574.315)" fill="#084a93"/>
    <path id="Path_190412" data-name="Path 190412" d="M-1388.817,4752.977h3.563v3.629h-3.563Z" transform="translate(2359.626 -2574.315)" fill="#084a93"/>
    <path id="Path_190413" data-name="Path 190413" d="M-1370.237,4756.614h-3.6v-3.594h3.6Z" transform="translate(2359.626 -2574.315)" fill="#084a93"/>
    <path id="Path_190414" data-name="Path 190414" d="M-1351.47,4655.655q23.838,0,47.677.006a5.413,5.413,0,0,1,1.625.149,1.723,1.723,0,0,1,1.193,1.784c.008,3.69.028,7.38-.01,11.069a1.842,1.842,0,0,1-1.929,1.952c-.326.028-.657.011-.986.011h-95.134c-2.458,0-2.943-.485-2.944-2.946,0-3.142-.006-6.284,0-9.426,0-2.044.556-2.6,2.61-2.6Q-1375.419,4655.652-1351.47,4655.655Zm46.713,3.847h-63.5v7.311h63.5Zm-93.423,7.309h26.03v-7.33h-26.03Z" transform="translate(2359.626 -2574.315)" fill="#084a93"/>
    <path id="Path_190415" data-name="Path 190415" d="M-1396.345,4721.176h26.1v14.854h-26.1Z" transform="translate(2359.626 -2574.315)" fill="#fff"/>
    <path id="Path_190416" data-name="Path 190416" d="M-1306.614,4736.032h-26.1v-14.818h26.1Z" transform="translate(2359.626 -2574.315)" fill="#fff"/>
    <path id="Path_190417" data-name="Path 190417" d="M-1370.234,4687.549v14.83h-26.083v-14.83Z" transform="translate(2359.626 -2574.315)" fill="#fff"/>
    <path id="Path_190418" data-name="Path 190418" d="M-1332.687,4687.529h26.081v14.8h-26.081Z" transform="translate(2359.626 -2574.315)" fill="#fff"/>
    <path id="Path_190419" data-name="Path 190419" d="M-1358.885,4696.793v-3.741h5.489c1.021,0,2.042,0,3.063,0,1.6,0,1.749-.083,2.593-1.289l3.061,3.152-3.132,3.11c-.441-1.1-1.542-1.257-2.781-1.241C-1353.322,4696.816-1356.054,4696.793-1358.885,4696.793Z" transform="translate(2359.626 -2574.315)" fill="#fff"/>
    <path id="Path_190420" data-name="Path 190420" d="M-1344.541,4728.676l-3.188,3.233c-.515-1.257-1.546-1.45-2.77-1.427-2.768.051-5.538.016-8.373.016v-3.736h1.227c2.412,0,4.824-.028,7.235.012,1.189.02,2.174-.229,2.631-1.353Z" transform="translate(2359.626 -2574.315)" fill="#fff"/>
    <path id="Path_190421" data-name="Path 190421" d="M-1304.757,4659.5v7.311h-63.5V4659.5Zm-5.46,1.8v3.6h3.585v-3.6Z" transform="translate(2359.626 -2574.315)" fill="#fff"/>
    <path id="Path_190422" data-name="Path 190422" d="M-1398.18,4666.811v-7.33h26.03v7.33Zm3.742-1.917h3.595v-3.588h-3.595Zm11.1.035v-3.616h-3.591v3.616Zm7.487-3.633h-3.624v3.61h3.624Z" transform="translate(2359.626 -2574.315)" fill="#fff"/>
    <path id="Path_190423" data-name="Path 190423" d="M-1310.217,4661.3h3.585v3.6h-3.585Z" transform="translate(2359.626 -2574.315)" fill="#084a93"/>
    <path id="Path_190424" data-name="Path 190424" d="M-1394.438,4664.894v-3.588h3.595v3.588Z" transform="translate(2359.626 -2574.315)" fill="#084a93"/>
    <path id="Path_190425" data-name="Path 190425" d="M-1383.335,4664.929h-3.591v-3.616h3.591Z" transform="translate(2359.626 -2574.315)" fill="#084a93"/>
    <path id="Path_190426" data-name="Path 190426" d="M-1375.848,4661.3v3.61h-3.624v-3.61Z" transform="translate(2359.626 -2574.315)" fill="#084a93"/>
    <path id="Path_192351" data-name="Path 192351" d="M20,0H647a20,20,0,0,1,20,20V292a20,20,0,0,1-20,20H20A20,20,0,0,1,0,292V20A20,20,0,0,1,20,0Z" transform="translate(674.5 1894.5)" fill="none" stroke="#084a93" stroke-linecap="round" stroke-width="2" stroke-dasharray="10 10"/>
  </g>
</svg>
