<svg xmlns="http://www.w3.org/2000/svg" xmlns:xlink="http://www.w3.org/1999/xlink" width="505" height="489" viewBox="0 0 505 489">
  <defs>
    <clipPath id="clip-path">
      <rect id="Rect치ngulo_293492" data-name="Rect치ngulo 293492" width="505" height="489" transform="translate(-2.5 5.5)" fill="none"/>
    </clipPath>
  </defs>
  <g id="_3" data-name="3" transform="translate(2.5 -5.5)">
    <g id="BACKGROUND">
      <g id="Grupo_128773" data-name="Grupo 128773">
        <rect id="Rect치ngulo_293491" data-name="Rect치ngulo 293491" width="505" height="489" transform="translate(-2.5 5.5)" fill="#fff"/>
        <g id="Grupo_128772" data-name="Grupo 128772" opacity="0.05">
          <g id="Grupo_128771" data-name="Grupo 128771" clip-path="url(#clip-path)">
            <g id="Grupo_128770" data-name="Grupo 128770">
              <path id="Trazado_189010" data-name="Trazado 189010" d="M520.242,448.48c-2,18.268-7.081,36.674-18.931,51.377-22.215,27.564-60.688,36.838-95.022,39.31a363.981,363.981,0,0,1-66.94-1.815c-22.222-2.511-44.121-7.244-66.383-9.439a219.137,219.137,0,0,0-64.275,3.436,398.469,398.469,0,0,0-43.395,11.5,79.275,79.275,0,0,1-33.182-25.666c-10.858-14.527-19.745-37.414-7.445-53.492,10.584-13.833,30.709-17.921,47.481-17.368a113.142,113.142,0,0,1,33.37,6.229c10.73,3.733,20.066,9.443,29.718,15.181,8.715,5.181,18.154,9.661,28.657,9,10.156-.638,19.615-5.3,27.666-11.082,8.843-6.353,16.285-14.284,24.495-21.345a91.39,91.39,0,0,1,27.6-16.534c19.1-7.187,39.72-9.082,59.647-13.108a156.32,156.32,0,0,0,29.059-8.407A122.161,122.161,0,0,0,457.8,391.822c33.66-24.729,52.97-62.868,63.657-101.654-.024,33.113.118,66.227.167,99.339C521.654,409.126,522.384,428.936,520.242,448.48Z" fill="#1b1f2d"/>
              <path id="Trazado_189011" data-name="Trazado 189011" d="M436.369,59.818c-26.455,13.9-56.446,22.939-86.765,20.531-55.58-4.414-112.553-41.673-168.331-18.216-10.8,4.541-20.584,11.379-27.77,20.472-8.281,10.48-12.8,23.048-18.424,34.922-5.447,11.491-12.468,23.552-24.128,30.08-11.582,6.485-26.815,6.568-36.073-3.683-4.313-4.776-7.084-10.62-10.7-15.866a62.828,62.828,0,0,0-13.21-13.982c-9.351-7.251-22.086-13-34.151-9.037C5.693,108.7.256,118.881,3.121,129.843c3.35,12.82,14.887,21.27,20.943,32.722,11,20.8,6.088,47.073-8.036,65.3-15.4,19.878-41.712,29.45-66.746,30.054-.081,0-.162,0-.244,0,7.205-51.657-1.686-104.568-6.414-156.1-2.672-29.133-4.378-58.619-1.438-87.8,1.345-13.349,4.083-27.2,11.9-38.542,7.237-10.5,18.468-17.268,30.619-21.324,12.08-4.032,24.837-5.686,37.488-7,16.191-1.684,32.429-2.935,48.683-3.891,32.342-1.9,64.741-2.629,97.132-3.229,32.352-.6,64.7-1.128,97.035-2.442,29.153-1.184,58.64-2.592,87.6,1.788A168.071,168.071,0,0,1,393.669-48.95c11.5,5.013,22.208,11.548,32.691,18.3C443.96-19.319,461.612-6.553,481.7.362,481.21,27.282,459.57,47.626,436.369,59.818Z" fill="#1b1f2d"/>
            </g>
          </g>
        </g>
      </g>
    </g>
    <g id="OBJECTS">
      <g id="Grupo_128778" data-name="Grupo 128778">
        <g id="Grupo_128774" data-name="Grupo 128774" opacity="0.3" style="mix-blend-mode: multiply;isolation: isolate">
          <path id="Trazado_189012" data-name="Trazado 189012" d="M383.956,277.767l-36.867-21.285-27.419,9.906a203.37,203.37,0,0,0-37.9-9.084l-7.442-18.252-51.99-.014L215.127,257.3a201.119,201.119,0,0,0-37.821,9.1l-27.506-9.92-36.652,21.3,17.215,15.9A66.966,66.966,0,0,0,114.78,315.62l-31.512,4.237.194,30.115L115,354.223A68.2,68.2,0,0,0,130.8,376.146L113.791,392.06l36.867,21.285,27.419-9.906a204.238,204.238,0,0,0,37.924,9.1l7.418,18.239,51.989.013,2.253-1.337,4.959-16.929a201.424,201.424,0,0,0,37.846-9.084l27.506,9.919,36.652-21.3-17.216-15.9a66.926,66.926,0,0,0,15.559-21.952l31.512-4.237,2.253-1.338-2.447-28.776-31.51-4.237a68.56,68.56,0,0,0-15.831-21.937Z" fill="#b3b3b3"/>
        </g>
        <g id="Grupo_128775" data-name="Grupo 128775">
          <path id="Trazado_189013" data-name="Trazado 189013" d="M386.209,276.429l-36.867-21.285-27.419,9.906a203.332,203.332,0,0,0-37.9-9.083l-7.443-18.253-51.989-.014-7.212,18.267a201.177,201.177,0,0,0-37.821,9.1l-27.506-9.92-36.652,21.3,17.215,15.9a66.976,66.976,0,0,0-15.583,21.937L85.521,318.52l.194,30.114,31.535,4.251a68.2,68.2,0,0,0,15.806,21.923l-17.012,15.914,36.867,21.285L180.33,402.1a204.221,204.221,0,0,0,37.924,9.1l7.417,18.239,51.99.014,7.212-18.267a201.444,201.444,0,0,0,37.846-9.084l27.506,9.92,36.652-21.3-17.216-15.9A66.934,66.934,0,0,0,385.22,352.87l31.512-4.238-.194-30.114-31.511-4.237a68.552,68.552,0,0,0-15.83-21.937Z" fill="#996b07"/>
        </g>
        <path id="Trazado_189014" data-name="Trazado 189014" d="M386.209,276.429V265.664L369.2,281.578v10.766Z"/>
        <path id="Trazado_189015" data-name="Trazado 189015" d="M115.4,265.679v10.766l17.215,15.9V281.579Z"/>
        <path id="Trazado_189016" data-name="Trazado 189016" d="M152.911,412.007V401.242l27.419-9.906V402.1Z"/>
        <path id="Trazado_189017" data-name="Trazado 189017" d="M225.671,418.672v10.766L218.254,411.2V400.434Z"/>
        <path id="Trazado_189018" data-name="Trazado 189018" d="M277.661,429.452V418.686l7.212-18.267v10.766Z"/>
        <path id="Trazado_189019" data-name="Trazado 189019" d="M350.225,412.021V401.255l-27.506-9.92V402.1Z"/>
        <path id="Trazado_189020" data-name="Trazado 189020" d="M385.22,352.87V342.1l31.512-4.237v10.766Z"/>
        <path id="Trazado_189021" data-name="Trazado 189021" d="M117.25,352.885V342.119l-31.535-4.251v10.766Z"/>
        <path id="Trazado_189022" data-name="Trazado 189022" d="M386.209,276.429V265.664L369.2,281.578v10.766Z" fill="#ffb30b"/>
        <path id="Trazado_189023" data-name="Trazado 189023" d="M115.4,265.679v10.766l17.215,15.9V281.579Z" fill="#ffb30b"/>
        <g id="Grupo_128776" data-name="Grupo 128776" opacity="0.8">
          <path id="Trazado_189024" data-name="Trazado 189024" d="M386.209,265.664l-36.867-21.285-27.419,9.906a203.329,203.329,0,0,0-37.9-9.084l-7.443-18.253-51.989-.014L217.38,245.2a201.178,201.178,0,0,0-37.821,9.1l-27.506-9.919-36.652,21.3,17.215,15.9a66.969,66.969,0,0,0-15.583,21.938l-31.512,4.237.194,30.114,31.535,4.251a68.185,68.185,0,0,0,15.806,21.923l-17.012,15.915,36.867,21.285,27.419-9.906a204.3,204.3,0,0,0,37.924,9.1l7.417,18.238,51.99.014,7.212-18.267a201.363,201.363,0,0,0,37.846-9.084l27.506,9.92,36.652-21.3-17.216-15.9A66.923,66.923,0,0,0,385.22,342.1l31.512-4.238-.194-30.114-31.511-4.237a68.552,68.552,0,0,0-15.83-21.937Z" fill="#ffb30b"/>
        </g>
        <path id="Trazado_189025" data-name="Trazado 189025" d="M152.911,412.007V401.242l27.419-9.906V402.1Z" fill="#ffb30b"/>
        <path id="Trazado_189026" data-name="Trazado 189026" d="M225.671,418.672v10.766L218.254,411.2V400.434Z" fill="#ffb30b"/>
        <path id="Trazado_189027" data-name="Trazado 189027" d="M277.661,429.452V418.686l7.212-18.267v10.766Z" fill="#ffb30b"/>
        <path id="Trazado_189028" data-name="Trazado 189028" d="M350.225,412.021V401.255l-27.506-9.92V402.1Z" fill="#ffb30b"/>
        <path id="Trazado_189029" data-name="Trazado 189029" d="M385.22,352.87V342.1l31.512-4.237v10.766Z" fill="#ffb30b"/>
        <path id="Trazado_189030" data-name="Trazado 189030" d="M117.25,352.885V342.119l-31.535-4.251v10.766Z" fill="#ffb30b"/>
        <path id="Trazado_189031" data-name="Trazado 189031" d="M116.044,379.957v10.766l36.867,21.285V401.242Z" fill="#996b07"/>
        <path id="Trazado_189032" data-name="Trazado 189032" d="M386.877,390.721V379.955l-36.652,21.3v10.766Z" fill="#996b07"/>
        <g id="Grupo_128777" data-name="Grupo 128777">
          <ellipse id="Elipse_4801" data-name="Elipse 4801" cx="74.303" cy="128.279" rx="74.303" ry="128.279" transform="matrix(0.003, -1, 1, 0.003, 123.169, 395.511)" fill="none" stroke="#fff" stroke-miterlimit="10" stroke-width="1"/>
        </g>
      </g>
      <g id="Grupo_128804" data-name="Grupo 128804">
        <g id="Grupo_128779" data-name="Grupo 128779" opacity="0.2" style="mix-blend-mode: multiply;isolation: isolate">
          <path id="Trazado_189033" data-name="Trazado 189033" d="M355.731,289.435,276.1,243.458a6.221,6.221,0,0,0-5.644,0l-7.227,4.2c-1.551.9-1.543,2.367.021,3.27L342.881,296.9a6.224,6.224,0,0,0,5.644,0l7.228-4.2C357.3,291.8,357.3,290.338,355.731,289.435Z" fill="gray"/>
        </g>
        <path id="Trazado_189034" data-name="Trazado 189034" d="M342.491,102.761,283.719,68.829c-2.865-1.654-5.449-1.761-7.289-.612l-3.067,1.768,1.24.226a9.151,9.151,0,0,0-.987,4.375l-.465,164.059c-.018,6.389,4.477,14.174,10.037,17.385l58.772,33.932a9.2,9.2,0,0,0,4.417,1.365l-.344,1.118,3.056-1.762h0l.016-.009h0c1.819-1.046,2.949-3.282,2.958-6.467l.465-164.059C352.936,112.116,348.051,105.971,342.491,102.761Z" fill="#1b1f2d"/>
        <g id="Grupo_128780" data-name="Grupo 128780">
          <path id="Trazado_189035" data-name="Trazado 189035" d="M339.128,104.713,280.356,70.781c-5.56-3.21-10.085-.632-10.1,5.757L269.788,240.6c-.018,6.39,4.477,14.175,10.037,17.385L338.6,291.914c5.561,3.21,10.085.632,10.1-5.758l.465-164.058C349.573,114.068,344.689,107.923,339.128,104.713Z" fill="#31394c"/>
        </g>
        <g id="Grupo_128781" data-name="Grupo 128781">
          <path id="Trazado_189036" data-name="Trazado 189036" d="M338.734,106.388l-58-33.487c-4.86-2.806-8.824-.547-8.84,5.038l-.463,163.152c-.016,5.585,3.923,12.407,8.783,15.212l58,33.487c4.86,2.806,8.83.55,8.846-5.034l.462-163.153A17.693,17.693,0,0,0,338.734,106.388Z" fill="#1b1f2d"/>
        </g>
        <g id="Grupo_128782" data-name="Grupo 128782">
          <path id="Trazado_189037" data-name="Trazado 189037" d="M338.6,108.23,331.269,104c-.448-.259-.816-.074-.878.406-.4,3.053-2.851,4.168-5.807,2.462L294.84,89.694a13.024,13.024,0,0,1-5.774-9.148,1.985,1.985,0,0,0-.873-1.417L280.865,74.9c-4.121-2.379-7.47-.47-7.484,4.265l-.46,162.423a16.389,16.389,0,0,0,7.435,12.878L338.088,287.8c4.121,2.379,7.471.465,7.484-4.265l.461-162.423A16.384,16.384,0,0,0,338.6,108.23Z" fill="#00b2ca"/>
        </g>
        <g id="Grupo_128785" data-name="Grupo 128785">
          <g id="Grupo_128783" data-name="Grupo 128783">
            <path id="Trazado_189038" data-name="Trazado 189038" d="M313.378,191.882l-19.757-11.406c-.772-.446-1.4-.092-1.406.795a3.085,3.085,0,0,0,1.4,2.418L313.369,195.1c.771.445,1.4.086,1.4-.8a3.075,3.075,0,0,0-1.4-2.413" fill="#ffb30b"/>
            <path id="Trazado_189039" data-name="Trazado 189039" d="M323.541,197.75l-5.183-2.992c-.772-.446-1.4-.089-1.4.8a3.071,3.071,0,0,0,1.391,2.415l5.182,2.992c.772.446,1.4.083,1.4-.8a3.065,3.065,0,0,0-1.391-2.409" fill="#ffb30b"/>
          </g>
          <g id="Grupo_128784" data-name="Grupo 128784">
            <path id="Trazado_189040" data-name="Trazado 189040" d="M320.581,204.425l-24.075-13.9c-.443-.256-.8-.053-.8.457a1.745,1.745,0,0,0,.8,1.373l24.075,13.9c.438.253.8.05.8-.453a1.745,1.745,0,0,0-.791-1.377" fill="#ff9797"/>
            <path id="Trazado_189041" data-name="Trazado 189041" d="M320.561,211.676l-4.433-2.559c-.438-.253-.795-.049-.8.46a1.743,1.743,0,0,0,.791,1.37l4.432,2.559c.438.253.8.05.8-.453a1.748,1.748,0,0,0-.791-1.377" fill="#ff9797"/>
            <path id="Trazado_189042" data-name="Trazado 189042" d="M312.811,207.2l-16.325-9.425c-.443-.256-.8-.053-.8.456a1.747,1.747,0,0,0,.8,1.374l16.325,9.425c.443.256.8.053.8-.45a1.751,1.751,0,0,0-.8-1.38" fill="#ff9797"/>
            <path id="Trazado_189043" data-name="Trazado 189043" d="M322.5,209.169l-17.77-10.259c-.438-.253-.8-.05-.8.453a1.744,1.744,0,0,0,.791,1.371l17.77,10.259c.443.256.8.053.8-.45a1.746,1.746,0,0,0-.8-1.374" fill="#ff9797"/>
            <path id="Trazado_189044" data-name="Trazado 189044" d="M301.46,197.02l-6.9-3.984c-.438-.253-.795-.049-.8.454a1.743,1.743,0,0,0,.791,1.37l6.9,3.984c.438.253.8.049.8-.454a1.746,1.746,0,0,0-.791-1.37" fill="#ff9797"/>
          </g>
        </g>
        <g id="Grupo_128786" data-name="Grupo 128786">
          <path id="Trazado_189045" data-name="Trazado 189045" d="M309.574,120.963c-.2-.117-.406-.22-.607-.312a9.861,9.861,0,0,0-4.283-1.162,2.843,2.843,0,0,0-2.609,1.656,4.51,4.51,0,0,0-.34,2.14c.011.1.016.2.032.321a1.924,1.924,0,0,0-.308-.22,1.515,1.515,0,0,0-1.226-.162c-.818.284-1.1,1.359-1.235,2.418a19.272,19.272,0,0,0-.017,4.053c.064.711.166,1.431.29,2.164.049.3.1.6.157.9-.915-.352-1.648,1.127-.886,3.066.7,1.782,1.3,3.726,2.1,4.183a.769.769,0,0,0,.123.059.644.644,0,0,0,.29.035,23.751,23.751,0,0,0,2.92,6.36l-.012,4.572-11.759-.005c-1.189.038-1.992.922-2.15,2.368l-1,9.348s7.044,7.677,20.184,15.263c11.581,6.686,20.211,8.059,20.211,8.059l-.952-10.489a9.164,9.164,0,0,0-2.108-4.82L314.789,157.29l.013-4.578a5.228,5.228,0,0,0,2.952-2.97,1.839,1.839,0,0,0,.29.3,1.079,1.079,0,0,0,.123.084c.793.457,1.406-.783,2.113-1.754.759-1.035.069-3.3-.822-4.046a37.156,37.156,0,0,0-.052-4.924c-.116-1.667-.192-3.915-1.349-5.7-.06-.091-.125-.18-.191-.262a1.1,1.1,0,0,0,.342-.709A3.8,3.8,0,0,0,316.8,129.7a6.9,6.9,0,0,0-1.135-.814c-.09-.052-.181-.1-.271-.149a2.084,2.084,0,0,0,.068-.541,5.217,5.217,0,0,0-1.652-3.378,5.733,5.733,0,0,0-1.067-.806,4.318,4.318,0,0,0-.979-.42,1.744,1.744,0,0,0-.044-.22,3.851,3.851,0,0,0-.714-1.213,5.182,5.182,0,0,0-1.434-1.2" fill="#d0d9f2"/>
        </g>
        <g id="Grupo_128789" data-name="Grupo 128789">
          <g id="Grupo_128787" data-name="Grupo 128787">
            <path id="Trazado_189046" data-name="Trazado 189046" d="M321.708,224.973c-5.072-2.929-9.2-.577-9.216,5.256s4.084,12.931,9.157,15.86,9.2.576,9.216-5.253S326.784,227.9,321.708,224.973Z" fill="#ffb30b"/>
          </g>
          <g id="Grupo_128788" data-name="Grupo 128788">
            <path id="Trazado_189047" data-name="Trazado 189047" d="M321.686,232.771c-2.8-1.616-4.145-1.473-4.908-1.19a1.874,1.874,0,0,0-.986,2.007,6.926,6.926,0,0,0,.515,1.364,1.127,1.127,0,0,0,.426.488.557.557,0,0,0,.176.068l1.868.351c.221.042.37-.11.371-.374l0-1.162c0-.231.108-.388.29-.384a6.824,6.824,0,0,1,2.24.819,11.068,11.068,0,0,1,2.237,1.765,1.164,1.164,0,0,1,.29.72l0,1.161a1.2,1.2,0,0,0,.365.8l1.867,1.8a.856.856,0,0,0,.174.134.349.349,0,0,0,.426,0,1.8,1.8,0,0,0,.521-.766,5.257,5.257,0,0,0-.968-3.134,13.744,13.744,0,0,0-4.9-4.475" fill="#fff"/>
          </g>
        </g>
        <g id="Grupo_128792" data-name="Grupo 128792">
          <g id="Grupo_128790" data-name="Grupo 128790">
            <path id="Trazado_189048" data-name="Trazado 189048" d="M296.1,210.149c-5.076-2.931-9.2-.579-9.22,5.254s4.084,12.931,9.16,15.861,9.2.577,9.216-5.252S301.174,213.078,296.1,210.149Z" fill="#91aaf2"/>
          </g>
          <g id="Grupo_128791" data-name="Grupo 128791">
            <path id="Trazado_189049" data-name="Trazado 189049" d="M293.327,213.643a.554.554,0,0,0-.073-.037,2.555,2.555,0,0,0-1.021-.258c-.471.046-1,.913-.9,2.1s.475,3.149,2.448,6.565,3.487,4.735,4.468,5.414c.081.055.162.107.242.153.9.521,1.784.483,2.035.132a2.5,2.5,0,0,0,.292-1.006,1.128,1.128,0,0,0-.3-.808l-1.762-2.025a.959.959,0,0,0-.239-.2.384.384,0,0,0-.383-.039l-.719.409a.386.386,0,0,1-.381-.035.775.775,0,0,1-.16-.125A15.587,15.587,0,0,1,295,221.312a15.81,15.81,0,0,1-1.287-2.9.467.467,0,0,1,.138-.547l.715-.411c.166-.091.206-.359.106-.655l-.869-2.534a1.185,1.185,0,0,0-.48-.625" fill="#fff"/>
          </g>
        </g>
        <g id="Grupo_128793" data-name="Grupo 128793">
          <path id="Trazado_189050" data-name="Trazado 189050" d="M314.378,95.99l-10.262-5.924c-.29-.168-.52-.036-.521.3a1.129,1.129,0,0,0,.518.891l10.261,5.925c.285.164.521.036.522-.291a1.145,1.145,0,0,0-.518-.9" fill="#31394c"/>
        </g>
        <g id="Grupo_128794" data-name="Grupo 128794">
          <path id="Trazado_189051" data-name="Trazado 189051" d="M318.059,97.806c-.537-.309-.97-.062-.972.554a2.12,2.12,0,0,0,.965,1.666c.531.307.971.063.972-.547a2.132,2.132,0,0,0-.965-1.673" fill="#31394c"/>
        </g>
        <g id="Grupo_128795" data-name="Grupo 128795">
          <path id="Trazado_189052" data-name="Trazado 189052" d="M318.057,98.06c-.416-.241-.751-.05-.752.428a1.636,1.636,0,0,0,.747,1.288c.411.237.745.046.747-.425a1.639,1.639,0,0,0-.742-1.291" fill="#1b1f2d"/>
        </g>
        <g id="Grupo_128796" data-name="Grupo 128796">
          <path id="Trazado_189053" data-name="Trazado 189053" d="M318.055,98.72c-.1-.057-.175-.013-.176.1a.377.377,0,0,0,.175.3c.093.054.17.01.17-.1a.378.378,0,0,0-.169-.3" fill="#31394c"/>
        </g>
        <g id="Grupo_128797" data-name="Grupo 128797" opacity="0.1">
          <path id="Trazado_189054" data-name="Trazado 189054" d="M331.269,104c-.448-.259-.816-.074-.878.406-.4,3.052-2.851,4.168-5.807,2.462L294.84,89.694a13.041,13.041,0,0,1-5.557-7.909L273.339,93.92l-.172,60.757,62.925-47.893Z" fill="#fff"/>
          <path id="Trazado_189055" data-name="Trazado 189055" d="M273.088,182.653l-.037,13.141,72.928-55.506.037-13.141Z" fill="#fff"/>
          <path id="Trazado_189056" data-name="Trazado 189056" d="M272.921,241.586a16.389,16.389,0,0,0,7.435,12.878l17.309,9.994,48.065-36.584.172-60.757-72.927,55.507Z" fill="#fff"/>
          <path id="Trazado_189057" data-name="Trazado 189057" d="M328.318,282.155l17.3-13.164.037-13.141L318.521,276.5Z" fill="#fff"/>
        </g>
        <g id="Grupo_128798" data-name="Grupo 128798">
          <path id="Trazado_189058" data-name="Trazado 189058" d="M369.446,200.624l-9.112-5.261c-.307-.177-.554-.03-.555.322a1.211,1.211,0,0,0,.551.954l9.112,5.261c.307.177.56.04.561-.313a1.231,1.231,0,0,0-.557-.963" fill="#91aaf2"/>
          <path id="Trazado_189059" data-name="Trazado 189059" d="M373.263,205.712l-12.937-7.469c-.307-.177-.554-.036-.555.316a1.22,1.22,0,0,0,.551.96l12.938,7.47c.306.177.553.03.554-.322a1.21,1.21,0,0,0-.551-.955" fill="#91aaf2"/>
          <path id="Trazado_189060" data-name="Trazado 189060" d="M381.713,210.591,376.18,207.4c-.306-.177-.559-.04-.56.312a1.231,1.231,0,0,0,.557.964l5.533,3.195c.306.177.559.033.56-.32a1.22,1.22,0,0,0-.557-.957" fill="#91aaf2"/>
          <path id="Trazado_189061" data-name="Trazado 189061" d="M364.931,203.787l-4.613-2.664c-.307-.177-.554-.036-.555.316a1.211,1.211,0,0,0,.551.954l4.614,2.664c.306.177.553.036.554-.316a1.208,1.208,0,0,0-.551-.954" fill="#91aaf2"/>
          <path id="Trazado_189062" data-name="Trazado 189062" d="M376.55,210.495l-9.2-5.315c-.307-.177-.559-.039-.56.313a1.224,1.224,0,0,0,.556.958l9.2,5.314c.307.177.554.036.555-.316a1.211,1.211,0,0,0-.551-.954" fill="#91aaf2"/>
          <path id="Trazado_189063" data-name="Trazado 189063" d="M368.174,208.538,360.309,204c-.306-.177-.553-.03-.554.322a1.209,1.209,0,0,0,.551.955l7.864,4.54c.307.177.554.036.555-.316a1.22,1.22,0,0,0-.551-.96" fill="#91aaf2"/>
          <path id="Trazado_189064" data-name="Trazado 189064" d="M373.247,211.467l-2.588-1.495c-.307-.177-.554-.03-.555.322a1.209,1.209,0,0,0,.551.955l2.589,1.494c.306.177.553.036.554-.316a1.219,1.219,0,0,0-.551-.96" fill="#91aaf2"/>
          <path id="Trazado_189065" data-name="Trazado 189065" d="M378.69,205.96l-7.285-4.205c-.306-.177-.553-.03-.554.322a1.208,1.208,0,0,0,.551.954l7.284,4.206c.307.177.559.039.56-.313a1.234,1.234,0,0,0-.556-.964" fill="#91aaf2"/>
          <path id="Trazado_189066" data-name="Trazado 189066" d="M373.522,197.8l-12.8-7.39c-.509-.294-.927-.057-.928.535a2.034,2.034,0,0,0,.922,1.6l12.8,7.391c.514.3.931.059.933-.526a2.041,2.041,0,0,0-.927-1.606" fill="#1b1f2d"/>
          <path id="Trazado_189067" data-name="Trazado 189067" d="M381.512,202.418l-4.794-2.768c-.515-.3-.932-.059-.934.532a2.041,2.041,0,0,0,.928,1.6l4.794,2.768c.514.3.932.059.933-.525a2.042,2.042,0,0,0-.927-1.607" fill="#1b1f2d"/>
        </g>
        <g id="Grupo_128799" data-name="Grupo 128799">
          <path id="Trazado_189068" data-name="Trazado 189068" d="M369.2,221.763l-9.112-5.261c-.306-.177-.553-.029-.554.323a1.209,1.209,0,0,0,.551.954l9.112,5.261c.306.177.559.039.56-.313a1.233,1.233,0,0,0-.557-.964" fill="#91aaf2"/>
          <path id="Trazado_189069" data-name="Trazado 189069" d="M373.017,226.852l-12.938-7.469c-.306-.177-.553-.037-.554.316a1.219,1.219,0,0,0,.551.96l12.937,7.47c.307.177.554.03.555-.323a1.211,1.211,0,0,0-.551-.954" fill="#91aaf2"/>
          <path id="Trazado_189070" data-name="Trazado 189070" d="M381.467,231.731l-5.533-3.2c-.307-.177-.559-.039-.56.313a1.234,1.234,0,0,0,.556.964l5.533,3.194c.307.177.559.033.56-.319a1.222,1.222,0,0,0-.556-.957" fill="#91aaf2"/>
          <path id="Trazado_189071" data-name="Trazado 189071" d="M364.685,224.926l-4.614-2.663c-.307-.177-.554-.036-.555.316a1.211,1.211,0,0,0,.551.954l4.614,2.664c.306.177.554.036.554-.316a1.212,1.212,0,0,0-.55-.955" fill="#91aaf2"/>
          <path id="Trazado_189072" data-name="Trazado 189072" d="M376.3,231.634,367.1,226.32c-.306-.177-.559-.039-.56.313a1.222,1.222,0,0,0,.556.957L376.3,232.9c.306.177.553.036.554-.316a1.21,1.21,0,0,0-.551-.955" fill="#91aaf2"/>
          <path id="Trazado_189073" data-name="Trazado 189073" d="M367.927,229.677l-7.864-4.54c-.307-.177-.554-.03-.555.322a1.211,1.211,0,0,0,.551.954l7.865,4.541c.306.177.553.036.554-.316a1.221,1.221,0,0,0-.551-.961" fill="#91aaf2"/>
          <path id="Trazado_189074" data-name="Trazado 189074" d="M373,232.606l-2.589-1.494c-.307-.177-.554-.03-.555.322a1.211,1.211,0,0,0,.551.954L373,233.883c.306.177.553.036.554-.316a1.223,1.223,0,0,0-.55-.961" fill="#91aaf2"/>
          <path id="Trazado_189075" data-name="Trazado 189075" d="M378.443,227.1l-7.284-4.206c-.307-.176-.554-.029-.555.323a1.211,1.211,0,0,0,.551.954l7.284,4.206c.307.177.559.039.56-.313a1.232,1.232,0,0,0-.556-.964" fill="#91aaf2"/>
          <path id="Trazado_189076" data-name="Trazado 189076" d="M373.275,218.945l-12.8-7.391c-.509-.294-.926-.056-.928.535a2.038,2.038,0,0,0,.922,1.6l12.8,7.391c.514.3.932.059.933-.526a2.041,2.041,0,0,0-.927-1.606" fill="#1b1f2d"/>
          <path id="Trazado_189077" data-name="Trazado 189077" d="M381.265,223.558l-4.794-2.768c-.514-.3-.932-.059-.933.532a2.04,2.04,0,0,0,.927,1.6l4.794,2.768c.515.3.932.059.934-.526a2.042,2.042,0,0,0-.928-1.606" fill="#1b1f2d"/>
        </g>
        <g id="Grupo_128800" data-name="Grupo 128800">
          <path id="Trazado_189078" data-name="Trazado 189078" d="M362.3,177.88a1.613,1.613,0,0,1-.731-1.266l.039-13.508c0-.466.33-.653.735-.419l17.064,9.851a1.61,1.61,0,0,1,.731,1.267l-.038,13.508c0,.465-.331.653-.736.419l-10.135-5.852a1.389,1.389,0,0,0-1.37-.148l-2.954,1.614.005-1.717a4.294,4.294,0,0,0-1.942-3.364l-.668-.385m17.111-6.738-17.064-9.852c-1.072-.619-1.951-.118-1.954,1.114l-.039,13.508a4.3,4.3,0,0,0,1.942,3.364l.668.385a1.613,1.613,0,0,1,.731,1.267l0,1.855a2.572,2.572,0,0,0,.713,1.652,1.93,1.93,0,0,0,.449.36.831.831,0,0,0,.816.087l3.042-1.664a.54.54,0,0,1,.515.058l10.135,5.852c1.073.619,1.952.119,1.955-1.114l.038-13.508a4.291,4.291,0,0,0-1.942-3.364" fill="#ffb30b"/>
          <path id="Trazado_189079" data-name="Trazado 189079" d="M365.645,170.509c-.881-.508-1.6-.1-1.6.914a3.516,3.516,0,0,0,1.593,2.759c.881.509,1.6.1,1.6-.917a3.5,3.5,0,0,0-1.588-2.756" fill="#ffb30b"/>
          <path id="Trazado_189080" data-name="Trazado 189080" d="M370.856,173.518c-.882-.509-1.6-.1-1.6.913a3.516,3.516,0,0,0,1.593,2.759c.881.509,1.6.1,1.6-.914a3.513,3.513,0,0,0-1.592-2.758" fill="#ffb30b"/>
          <path id="Trazado_189081" data-name="Trazado 189081" d="M376.066,176.526c-.881-.509-1.6-.1-1.6.913a3.518,3.518,0,0,0,1.593,2.759c.881.509,1.6.1,1.6-.914a3.516,3.516,0,0,0-1.593-2.758" fill="#ffb30b"/>
        </g>
        <g id="Grupo_128801" data-name="Grupo 128801">
          <path id="Trazado_189082" data-name="Trazado 189082" d="M243.989,167.942a1.61,1.61,0,0,1-.731-1.266l.038-13.508c0-.466.331-.653.736-.419L261.1,162.6a1.613,1.613,0,0,1,.731,1.266l-.039,13.509c0,.465-.33.653-.735.419l-10.136-5.852a1.389,1.389,0,0,0-1.37-.148l-2.954,1.614.005-1.717a4.291,4.291,0,0,0-1.942-3.364l-.667-.385M261.1,161.2l-17.064-9.852c-1.073-.619-1.952-.118-1.955,1.114l-.038,13.508a4.289,4.289,0,0,0,1.942,3.364l.667.385a1.61,1.61,0,0,1,.731,1.267l0,1.855a2.572,2.572,0,0,0,.713,1.652,1.95,1.95,0,0,0,.449.36.831.831,0,0,0,.816.087l3.042-1.664a.54.54,0,0,1,.515.058l10.136,5.852c1.072.619,1.951.119,1.954-1.114l.039-13.508A4.3,4.3,0,0,0,261.1,161.2" fill="#00b2ca"/>
          <path id="Trazado_189083" data-name="Trazado 189083" d="M247.337,160.571c-.881-.508-1.6-.1-1.6.914a3.515,3.515,0,0,0,1.592,2.759c.882.509,1.6.1,1.6-.917a3.505,3.505,0,0,0-1.587-2.756" fill="#00b2ca"/>
          <path id="Trazado_189084" data-name="Trazado 189084" d="M252.547,163.58c-.881-.509-1.6-.1-1.6.913a3.513,3.513,0,0,0,1.593,2.759c.881.509,1.6.1,1.6-.914a3.514,3.514,0,0,0-1.593-2.758" fill="#00b2ca"/>
          <path id="Trazado_189085" data-name="Trazado 189085" d="M257.757,166.588c-.881-.509-1.6-.1-1.6.913a3.516,3.516,0,0,0,1.593,2.759c.881.509,1.6.1,1.6-.914a3.514,3.514,0,0,0-1.593-2.758" fill="#00b2ca"/>
        </g>
        <g id="Grupo_128802" data-name="Grupo 128802">
          <path id="Trazado_189086" data-name="Trazado 189086" d="M250.876,132.229c-6.819-3.937-12.35-13.517-12.328-21.353s5.59-11.008,12.409-7.071,12.35,13.517,12.328,21.353-5.584,11.011-12.409,7.071m.086-30.173c-7.657-4.42-13.9-.853-13.93,7.945s6.183,19.556,13.839,23.977,13.91.856,13.935-7.942-6.182-19.556-13.844-23.98" fill="#1b1f2d"/>
          <path id="Trazado_189087" data-name="Trazado 189087" d="M250.951,106.446c-.325-.187-.6-.048-.611.328l-.32,10.417a.84.84,0,0,0-.045.326,1.908,1.908,0,0,0,.315.932,1.857,1.857,0,0,0,.618.641l.038.021a.767.767,0,0,0,.225.086l7.427,3.954a.364.364,0,0,0,.588-.335,1.328,1.328,0,0,0-.584-1.061l-6.8-4.235-.24-10.041a1.364,1.364,0,0,0-.589-1.021l-.02-.012" fill="#1b1f2d"/>
        </g>
        <g id="Grupo_128803" data-name="Grupo 128803">
          <path id="Trazado_189088" data-name="Trazado 189088" d="M240.769,133.366a3.012,3.012,0,0,0-1.488-.478,1.2,1.2,0,0,0-1.017.573,2.934,2.934,0,0,0-.374,1.623l1.776,1.025v-.176a1.558,1.558,0,0,1,.218-.836c.149-.226.45-.208.917.062a2.02,2.02,0,0,1,.81.828,2.181,2.181,0,0,1,.262,1.021,1.308,1.308,0,0,1-.273.847,2.122,2.122,0,0,1-.685.531c-.277.13-.678.281-1.195.463-.111.035-.222.07-.333.112s-.228.088-.357.133l-1.066.438-.005,1.758,5.659,3.268.005-1.8-3.318-1.915v-.064l1.084-.42.253-.1a5.732,5.732,0,0,0,.992-.453,2.036,2.036,0,0,0,.667-.7,2.4,2.4,0,0,0,.28-1.238,4.427,4.427,0,0,0-.333-1.664,5.608,5.608,0,0,0-.968-1.6,5.859,5.859,0,0,0-1.511-1.247" fill="#ffb30b"/>
          <path id="Trazado_189089" data-name="Trazado 189089" d="M246.474,142.4l1.717-2.1-.009,3.086-1.708-.986m3.5-3.524-2.273-1.313-3.058,3.871,0,1.511L248.177,145l-.006,2.189,1.776,1.025.006-2.189.953.55,0-1.567-.952-.55.015-5.578" fill="#ffb30b"/>
          <path id="Trazado_189090" data-name="Trazado 189090" d="M257.461,142.09l-1.7-.979L251.69,151.97l1.7.979,4.075-10.859" fill="#ffb30b"/>
          <path id="Trazado_189091" data-name="Trazado 189091" d="M263.774,146.846l-5.641-3.257-.005,1.878,3.957,2.285v.085l-3.142,5.407v.162l1.9,1.1,2.921-5.542.006-2.118" fill="#ffb30b"/>
        </g>
      </g>
      <g id="Grupo_128870" data-name="Grupo 128870">
        <g id="Grupo_128833" data-name="Grupo 128833">
          <g id="Grupo_128805" data-name="Grupo 128805" opacity="0.2" style="mix-blend-mode: multiply;isolation: isolate">
            <path id="Trazado_189092" data-name="Trazado 189092" d="M324.217,337.6l-110.98-64.074a8.675,8.675,0,0,0-7.866,0l-43.518,25.29c-2.161,1.256-2.149,3.3.03,4.556l110.98,64.074a8.673,8.673,0,0,0,7.865,0l43.518-25.29C326.407,340.895,326.4,338.853,324.217,337.6Z" fill="gray"/>
          </g>
          <g id="Grupo_128807" data-name="Grupo 128807">
            <g id="Grupo_128806" data-name="Grupo 128806">
              <path id="Trazado_189093" data-name="Trazado 189093" d="M171.819,302.286l-.181-63.8L197.779,223.4l16.962,54.108-42.922,24.776m28.047-83.338L168.8,236.875l.2,70.285,49.548-28.6Z" fill="#31394c"/>
            </g>
            <path id="Trazado_189094" data-name="Trazado 189094" d="M210.935,276.47l3.806,1.041L197.785,223.4l-2.95,1.7Z" fill="#1b1f2d"/>
            <path id="Trazado_189095" data-name="Trazado 189095" d="M171.809,299.041l.008,3.245,42.924-24.77-3.818-1.046Z" fill="#1b1f2d"/>
            <path id="Trazado_189096" data-name="Trazado 189096" d="M165.007,234.685l3.8,2.2.2,70.28-3.8-2.2Z" fill="#1b1f2d"/>
            <path id="Trazado_189097" data-name="Trazado 189097" d="M165.007,234.685l3.8,2.2,31.063-17.932-3.8-2.2Z" fill="#1b1f2d"/>
          </g>
          <g id="Grupo_128809" data-name="Grupo 128809">
            <g id="Grupo_128808" data-name="Grupo 128808">
              <path id="Trazado_189098" data-name="Trazado 189098" d="M275.218,361.83l-.181-63.8,26.141-15.086,16.962,54.108L275.218,361.83m28.047-83.338L272.2,296.419l.2,70.286,49.547-28.6Z" fill="#31394c"/>
            </g>
            <path id="Trazado_189099" data-name="Trazado 189099" d="M314.334,336.014l3.806,1.041-16.956-54.108-2.95,1.7Z" fill="#1b1f2d"/>
            <path id="Trazado_189100" data-name="Trazado 189100" d="M275.209,358.585l.008,3.245L318.14,337.06l-3.818-1.046Z" fill="#1b1f2d"/>
            <path id="Trazado_189101" data-name="Trazado 189101" d="M268.406,294.229l3.8,2.2.2,70.28-3.8-2.2Z" fill="#1b1f2d"/>
            <path id="Trazado_189102" data-name="Trazado 189102" d="M268.406,294.229l3.8,2.2,31.063-17.932-3.8-2.2Z" fill="#1b1f2d"/>
          </g>
          <path id="Trazado_189103" data-name="Trazado 189103" d="M325.859,266.6l-2.052.327-110.57-63.838a8.675,8.675,0,0,0-7.866,0l-43.445,25.248-1.681-.637,0,2.956h0v.037h0a2.81,2.81,0,0,0,1.639,2.243l110.98,64.074a8.673,8.673,0,0,0,7.865,0l43.518-25.29a2.674,2.674,0,0,0,1.6-2.4l.011.005C325.841,269.22,325.859,266.6,325.859,266.6Z" fill="#a9c0d9"/>
          <path id="Trazado_189104" data-name="Trazado 189104" d="M280.728,297.007l43.518-25.29a2.674,2.674,0,0,0,1.6-2.4l.011.005c-.018-.1,0-2.725,0-2.725l-2.052.327-15.429-8.908-31.725,31.725v8.2A8.049,8.049,0,0,0,280.728,297.007Z" fill="#91aaf2"/>
          <g id="Grupo_128810" data-name="Grupo 128810">
            <path id="Trazado_189105" data-name="Trazado 189105" d="M324.217,264.125,213.237,200.05a8.675,8.675,0,0,0-7.866,0l-43.518,25.29c-2.161,1.256-2.149,3.3.03,4.556l110.98,64.074a8.673,8.673,0,0,0,7.865,0l43.518-25.289C326.407,267.425,326.4,265.383,324.217,264.125Z" fill="#dae4ef"/>
          </g>
          <g id="Grupo_128811" data-name="Grupo 128811">
            <path id="Trazado_189106" data-name="Trazado 189106" d="M176.776,220.925a2.254,2.254,0,0,0-1.985.028l-7.367,4.281a.623.623,0,0,0,.007,1.179l10.853,6.266a2.242,2.242,0,0,0,2.036,0l7.366-4.281c.545-.316.558-.822.042-1.149a.706.706,0,0,1,.369.519l-9.3-.639.688,5.785a2.533,2.533,0,0,1-.558-.024l-.692-5.8-1.033-.071-.126-.6-10.012-.38a.492.492,0,0,1-.042-.324l9.986.379-1.13-5.383a2.085,2.085,0,0,1,.9.211m10.928,6.309.016.01-.016-.01m-10.9-6.295-.022-.012.022.012" fill="#fff"/>
            <path id="Trazado_189107" data-name="Trazado 189107" d="M178.8,227.129l-.562-.038.692,5.8a2.533,2.533,0,0,0,.558.024l-.688-5.785M177.01,226.1l-9.986-.379a.492.492,0,0,0,.042.324l10.012.38-.068-.325" fill="#eef4ff"/>
            <path id="Trazado_189108" data-name="Trazado 189108" d="M187.679,227.219l-10.853-6.266-.025-.014-.022-.012,0,0a2.085,2.085,0,0,0-.9-.211l1.13,5.383.068.325.126.6,1.033.071.562.038,9.3.639a.706.706,0,0,0-.369-.519l-.008,0-.016-.01-.025-.015" fill="#eef4ff"/>
          </g>
          <g id="Grupo_128812" data-name="Grupo 128812">
            <path id="Trazado_189109" data-name="Trazado 189109" d="M192.207,212.679a2.261,2.261,0,0,0-1.985.028l-7.366,4.281a.623.623,0,0,0,.006,1.179l10.854,6.266a2.239,2.239,0,0,0,2.035,0l7.366-4.281c.545-.316.558-.822.042-1.149a.706.706,0,0,1,.369.519l-9.3-.638.689,5.784a2.608,2.608,0,0,1-.559-.023l-.692-5.8-1.032-.071-.126-.6L182.5,217.8a.486.486,0,0,1-.042-.324l9.986.379-1.131-5.383a2.082,2.082,0,0,1,.9.211m10.929,6.309.016.01-.016-.01m-10.9-6.3-.021-.012.021.012" fill="#fff"/>
            <path id="Trazado_189110" data-name="Trazado 189110" d="M194.23,218.884l-.562-.039.692,5.8a2.608,2.608,0,0,0,.559.023l-.689-5.784m-1.788-1.033-9.986-.379a.486.486,0,0,0,.042.324l10.012.38-.068-.325" fill="#eef4ff"/>
            <path id="Trazado_189111" data-name="Trazado 189111" d="M203.111,218.973l-10.854-6.266-.025-.014-.021-.012,0,0a2.082,2.082,0,0,0-.9-.211l1.131,5.383.068.325.126.6,1.032.071.562.039,9.3.638a.706.706,0,0,0-.369-.519l-.007-.005-.016-.01-.025-.015" fill="#eef4ff"/>
          </g>
          <g id="Grupo_128813" data-name="Grupo 128813">
            <path id="Trazado_189112" data-name="Trazado 189112" d="M207.639,204.434a2.257,2.257,0,0,0-1.985.027l-7.367,4.281a.623.623,0,0,0,.007,1.179l10.853,6.266a2.241,2.241,0,0,0,2.036,0l7.366-4.281c.544-.316.558-.821.042-1.149a.706.706,0,0,1,.369.519l-9.3-.638.688,5.784a2.6,2.6,0,0,1-.558-.023l-.692-5.8-1.033-.071-.125-.6-10.013-.38a.49.49,0,0,1-.042-.323l9.986.378-1.13-5.383a2.071,2.071,0,0,1,.9.212m10.928,6.308.016.01-.016-.01m-10.9-6.295-.022-.012.022.012" fill="#fff"/>
            <path id="Trazado_189113" data-name="Trazado 189113" d="M209.662,210.638l-.562-.039.692,5.8a2.6,2.6,0,0,0,.558.023l-.688-5.784m-1.789-1.033-9.986-.378a.49.49,0,0,0,.042.323l10.013.38-.069-.325" fill="#eef4ff"/>
            <path id="Trazado_189114" data-name="Trazado 189114" d="M218.542,210.727l-10.853-6.266-.025-.014-.022-.012h0a2.071,2.071,0,0,0-.9-.212l1.13,5.383.069.325.125.6,1.033.071.562.039,9.3.638a.706.706,0,0,0-.369-.519l-.008-.005-.016-.01-.025-.015" fill="#eef4ff"/>
          </g>
          <g id="Grupo_128816" data-name="Grupo 128816">
            <g id="Grupo_128814" data-name="Grupo 128814">
              <path id="Trazado_189115" data-name="Trazado 189115" d="M303.268,269.1l-14.808-8.55-18.483,10.741,14.808,8.55Z" fill="#fff"/>
            </g>
            <g id="Grupo_128815" data-name="Grupo 128815">
              <path id="Trazado_189116" data-name="Trazado 189116" d="M294.594,272l-11.419-6.593-.223.129,11.419,6.593.223-.129" fill="#a9c0d9"/>
              <path id="Trazado_189117" data-name="Trazado 189117" d="M293.638,272.558l-11.419-6.593-.223.129,11.419,6.593.223-.129" fill="#a9c0d9"/>
              <path id="Trazado_189118" data-name="Trazado 189118" d="M292.683,273.113l-11.419-6.593-.223.129,11.419,6.593.223-.129" fill="#a9c0d9"/>
              <path id="Trazado_189119" data-name="Trazado 189119" d="M291.727,273.669l-11.419-6.593-.22.128,11.419,6.593.22-.128" fill="#a9c0d9"/>
              <path id="Trazado_189120" data-name="Trazado 189120" d="M290.774,274.223l-11.419-6.593-.223.129,11.419,6.593.223-.129" fill="#a9c0d9"/>
              <path id="Trazado_189121" data-name="Trazado 189121" d="M289.819,274.778,278.4,268.185l-.223.129,11.419,6.593.223-.129" fill="#a9c0d9"/>
              <path id="Trazado_189122" data-name="Trazado 189122" d="M288.863,275.333l-11.419-6.593-.223.129,11.419,6.593.223-.129" fill="#a9c0d9"/>
              <path id="Trazado_189123" data-name="Trazado 189123" d="M287.908,275.888,276.489,269.3l-.22.128,11.419,6.593.22-.128" fill="#a9c0d9"/>
              <path id="Trazado_189124" data-name="Trazado 189124" d="M286.952,276.444l-11.419-6.593-.22.128,11.419,6.593.22-.128" fill="#a9c0d9"/>
              <path id="Trazado_189125" data-name="Trazado 189125" d="M280.059,273.642l-5.453-3.148-.223.129,5.453,3.148.223-.129" fill="#a9c0d9"/>
              <path id="Trazado_189126" data-name="Trazado 189126" d="M292.886,267.014l-6.284-3.628-.6.35,6.284,3.628.6-.35" fill="#ffb30b"/>
              <path id="Trazado_189127" data-name="Trazado 189127" d="M289.191,266.105l-3.623-2.091-.427.248,3.623,2.092.427-.248" fill="#00b2ca"/>
            </g>
          </g>
          <g id="Grupo_128819" data-name="Grupo 128819">
            <g id="Grupo_128817" data-name="Grupo 128817">
              <path id="Trazado_189128" data-name="Trazado 189128" d="M303.571,268.672l-14.808-8.55L270.28,270.863l14.808,8.55Z" fill="#fff"/>
            </g>
            <g id="Grupo_128818" data-name="Grupo 128818">
              <path id="Trazado_189129" data-name="Trazado 189129" d="M294.9,271.573l-11.419-6.593-.223.129,11.419,6.593.223-.129" fill="#a9c0d9"/>
              <path id="Trazado_189130" data-name="Trazado 189130" d="M293.942,272.128l-11.419-6.593-.223.129,11.419,6.593.223-.129" fill="#a9c0d9"/>
              <path id="Trazado_189131" data-name="Trazado 189131" d="M292.986,272.684l-11.419-6.593-.223.129,11.419,6.593.223-.129" fill="#a9c0d9"/>
              <path id="Trazado_189132" data-name="Trazado 189132" d="M292.031,273.239l-11.419-6.593-.22.128,11.419,6.593.22-.128" fill="#a9c0d9"/>
              <path id="Trazado_189133" data-name="Trazado 189133" d="M291.078,273.793,279.659,267.2l-.223.129,11.419,6.593.223-.129" fill="#a9c0d9"/>
              <path id="Trazado_189134" data-name="Trazado 189134" d="M290.122,274.348,278.7,267.755l-.223.129,11.419,6.593.223-.129" fill="#a9c0d9"/>
              <path id="Trazado_189135" data-name="Trazado 189135" d="M289.167,274.9l-11.419-6.593-.223.129,11.419,6.593.223-.129" fill="#a9c0d9"/>
              <path id="Trazado_189136" data-name="Trazado 189136" d="M288.211,275.459l-11.419-6.593-.22.128,11.419,6.593.22-.128" fill="#a9c0d9"/>
              <path id="Trazado_189137" data-name="Trazado 189137" d="M287.256,276.014l-11.419-6.593-.22.128,11.419,6.593.22-.128" fill="#a9c0d9"/>
              <path id="Trazado_189138" data-name="Trazado 189138" d="M280.363,273.212l-5.453-3.148-.223.129,5.453,3.148.223-.129" fill="#a9c0d9"/>
              <path id="Trazado_189139" data-name="Trazado 189139" d="M293.189,266.585l-6.284-3.628-.6.35,6.284,3.628.6-.35" fill="#ffb30b"/>
              <path id="Trazado_189140" data-name="Trazado 189140" d="M289.495,265.676l-3.623-2.092-.427.248,3.623,2.092.427-.248" fill="#00b2ca"/>
            </g>
          </g>
          <g id="Grupo_128822" data-name="Grupo 128822">
            <g id="Grupo_128820" data-name="Grupo 128820">
              <path id="Trazado_189141" data-name="Trazado 189141" d="M299.49,268.308l-14.808-8.55L266.2,270.5l14.808,8.55Z" fill="#fff"/>
            </g>
            <g id="Grupo_128821" data-name="Grupo 128821">
              <path id="Trazado_189142" data-name="Trazado 189142" d="M290.816,271.209,279.4,264.616l-.223.129,11.419,6.593.223-.129" fill="#a9c0d9"/>
              <path id="Trazado_189143" data-name="Trazado 189143" d="M289.861,271.764l-11.419-6.593-.223.129,11.419,6.593.223-.129" fill="#a9c0d9"/>
              <path id="Trazado_189144" data-name="Trazado 189144" d="M288.905,272.32l-11.419-6.593-.223.129,11.419,6.593.223-.129" fill="#a9c0d9"/>
              <path id="Trazado_189145" data-name="Trazado 189145" d="M287.95,272.875l-11.419-6.593-.22.128L287.73,273l.22-.128" fill="#a9c0d9"/>
              <path id="Trazado_189146" data-name="Trazado 189146" d="M287,273.429l-11.419-6.593-.223.129,11.419,6.593.223-.129" fill="#a9c0d9"/>
              <path id="Trazado_189147" data-name="Trazado 189147" d="M286.041,273.984l-11.419-6.593-.223.129,11.419,6.593.223-.129" fill="#a9c0d9"/>
              <path id="Trazado_189148" data-name="Trazado 189148" d="M285.086,274.539l-11.419-6.593-.223.129,11.419,6.593.223-.129" fill="#a9c0d9"/>
              <path id="Trazado_189149" data-name="Trazado 189149" d="M284.13,275.095,272.711,268.5l-.22.128,11.419,6.593.22-.128" fill="#a9c0d9"/>
              <path id="Trazado_189150" data-name="Trazado 189150" d="M283.175,275.65l-11.419-6.593-.22.128,11.419,6.593.22-.128" fill="#a9c0d9"/>
              <path id="Trazado_189151" data-name="Trazado 189151" d="M276.282,272.848l-5.453-3.148-.223.129,5.453,3.148.223-.129" fill="#a9c0d9"/>
              <path id="Trazado_189152" data-name="Trazado 189152" d="M289.108,266.221l-6.284-3.628-.6.35,6.284,3.628.6-.35" fill="#ffb30b"/>
              <path id="Trazado_189153" data-name="Trazado 189153" d="M285.414,265.312l-3.623-2.092-.427.248,3.623,2.092.427-.248" fill="#00b2ca"/>
            </g>
          </g>
          <g id="Grupo_128832" data-name="Grupo 128832">
            <g id="Grupo_128823" data-name="Grupo 128823" opacity="0.3" style="mix-blend-mode: multiply;isolation: isolate">
              <path id="Trazado_189154" data-name="Trazado 189154" d="M262.218,252.652l-17.255,10.016a1.373,1.373,0,0,1-1.376,0l-28.5-16.589a1.372,1.372,0,0,1,0-2.375l17.44-10.129a1.375,1.375,0,0,1,1.376,0l28.223,17.835C262.879,251.832,262.831,252.276,262.218,252.652Z" fill="#ccc" style="mix-blend-mode: multiply;isolation: isolate"/>
            </g>
            <g id="Grupo_128824" data-name="Grupo 128824">
              <path id="Trazado_189155" data-name="Trazado 189155" d="M262.545,251.155a3.05,3.05,0,0,1-1.119-.069l-28.933-16.858a1.3,1.3,0,0,0-1.308,0l-15.936,8.624a1.785,1.785,0,0,0-.011,2.9L243.7,262.188a1.3,1.3,0,0,0,1.308,0l17.36-10.088a.7.7,0,0,0,.18-.943Z" fill="#1b1f2d"/>
            </g>
            <g id="Grupo_128825" data-name="Grupo 128825">
              <path id="Trazado_189156" data-name="Trazado 189156" d="M231.921,213.075l.424,19.689a1.463,1.463,0,0,0,.727,1.267l28.43,16.776a1.5,1.5,0,0,0,2.119-1.436l.053-19.163a1.452,1.452,0,0,0-.711-1.255l-28.878-17.078A1.386,1.386,0,0,0,231.921,213.075Z" fill="#31394c"/>
            </g>
            <g id="Grupo_128826" data-name="Grupo 128826">
              <path id="Trazado_189157" data-name="Trazado 189157" d="M231.909,212.963l-.056,20.053a1.465,1.465,0,0,0,.727,1.268L261,250.864a1.423,1.423,0,0,0,2.136-1.241l.054-19.166a1.455,1.455,0,0,0-.712-1.255L233.5,212.067A1.051,1.051,0,0,0,231.909,212.963Z" fill="#1b1f2d"/>
            </g>
            <g id="Grupo_128827" data-name="Grupo 128827">
              <path id="Trazado_189158" data-name="Trazado 189158" d="M232.992,213.109l-.06,19.642,29.03,16.784.059-19.443Z" fill="#00b2ca"/>
            </g>
            <g id="Grupo_128828" data-name="Grupo 128828" opacity="0.03" style="mix-blend-mode: hard-light;isolation: isolate">
              <path id="Trazado_189159" data-name="Trazado 189159" d="M236.673,215.262l-3.693,1.707-.043,14.1,17.184-7.942Z" fill="#fff"/>
              <path id="Trazado_189160" data-name="Trazado 189160" d="M252.363,224.441l-18.786,8.682,3.468,2,18.763-8.672Z" fill="#fff"/>
              <path id="Trazado_189161" data-name="Trazado 189161" d="M258.049,227.767,239.3,236.432l13.537,7.826,9.154-4.23.03-9.937Z" fill="#fff"/>
              <path id="Trazado_189162" data-name="Trazado 189162" d="M258.561,247.567l3.412-1.577.011-3.613-6.891,3.185Z" fill="#fff"/>
            </g>
            <g id="Grupo_128829" data-name="Grupo 128829">
              <path id="Trazado_189163" data-name="Trazado 189163" d="M262.412,251.562l-17.449,10.07a1.306,1.306,0,0,1-1.308,0l-28.409-16.517a1.3,1.3,0,0,1,0-2.258l15.978-9.221a1.306,1.306,0,0,1,1.308,0l29.878,17.372A.321.321,0,0,1,262.412,251.562Z" fill="#31394c"/>
            </g>
            <g id="Grupo_128830" data-name="Grupo 128830">
              <path id="Trazado_189164" data-name="Trazado 189164" d="M238.52,252.228l-4.36,2.582a.352.352,0,0,1-.351,0l-7.635-4.408a.35.35,0,0,1,0-.606l4.178-2.364a.352.352,0,0,1,.351,0l7.818,4.648A.086.086,0,0,1,238.52,252.228Z" fill="#dae4ef"/>
            </g>
            <g id="Grupo_128831" data-name="Grupo 128831">
              <path id="Trazado_189165" data-name="Trazado 189165" d="M231.683,236.007l.978.571a.463.463,0,0,0,.428,0l.488-.289c.119-.071.121-.184,0-.252l-.979-.569a.461.461,0,0,0-.426,0l-.487.287C231.569,235.826,231.567,235.938,231.683,236.007Z" fill="#dae4ef"/>
              <path id="Trazado_189166" data-name="Trazado 189166" d="M233.408,237.015l.989.579a.471.471,0,0,0,.432,0l.489-.292a.136.136,0,0,0,0-.255l-.991-.575a.465.465,0,0,0-.429,0l-.488.29C233.291,236.833,233.29,236.946,233.408,237.015Z" fill="#dae4ef"/>
              <path id="Trazado_189167" data-name="Trazado 189167" d="M235.153,238.036l1,.585a.468.468,0,0,0,.435,0l.49-.295a.137.137,0,0,0,0-.257l-1-.583a.473.473,0,0,0-.433,0l-.489.293A.136.136,0,0,0,235.153,238.036Z" fill="#dae4ef"/>
              <path id="Trazado_189168" data-name="Trazado 189168" d="M236.92,239.069l1.014.593a.471.471,0,0,0,.438,0l.492-.3a.138.138,0,0,0,0-.26l-1.016-.59a.473.473,0,0,0-.436,0l-.491.295A.138.138,0,0,0,236.92,239.069Z" fill="#dae4ef"/>
              <path id="Trazado_189169" data-name="Trazado 189169" d="M238.708,240.115l1.026.6a.475.475,0,0,0,.443,0l.493-.3a.14.14,0,0,0-.005-.263l-1.028-.6a.476.476,0,0,0-.439,0l-.492.3A.14.14,0,0,0,238.708,240.115Z" fill="#dae4ef"/>
              <path id="Trazado_189170" data-name="Trazado 189170" d="M240.519,241.173l1.039.608a.477.477,0,0,0,.445,0l.495-.3a.142.142,0,0,0-.007-.266l-1.04-.6a.475.475,0,0,0-.443,0l-.494.3A.141.141,0,0,0,240.519,241.173Z" fill="#dae4ef"/>
              <path id="Trazado_189171" data-name="Trazado 189171" d="M242.352,242.245l1.052.616a.482.482,0,0,0,.449,0l.5-.305c.122-.075.118-.195-.009-.268l-1.053-.613a.484.484,0,0,0-.447,0l-.495.3A.143.143,0,0,0,242.352,242.245Z" fill="#dae4ef"/>
              <path id="Trazado_189172" data-name="Trazado 189172" d="M244.208,243.331l1.065.623a.482.482,0,0,0,.452,0l.5-.308c.122-.076.117-.2-.011-.272l-1.067-.62a.484.484,0,0,0-.45,0l-.5.306C244.077,243.136,244.081,243.257,244.208,243.331Z" fill="#dae4ef"/>
              <path id="Trazado_189173" data-name="Trazado 189173" d="M246.087,244.43l1.079.63a.482.482,0,0,0,.456,0l.5-.311c.122-.076.116-.2-.013-.274l-1.081-.628a.481.481,0,0,0-.453,0l-.5.309C245.954,244.232,245.958,244.355,246.087,244.43Z" fill="#dae4ef"/>
              <path id="Trazado_189174" data-name="Trazado 189174" d="M247.99,245.542l1.092.639a.487.487,0,0,0,.46,0l.5-.315c.123-.076.116-.2-.016-.277l-1.094-.636a.486.486,0,0,0-.457,0l-.5.311C247.854,245.343,247.86,245.467,247.99,245.542Z" fill="#dae4ef"/>
              <path id="Trazado_189175" data-name="Trazado 189175" d="M249.917,246.67l1.107.647a.49.49,0,0,0,.463,0l.5-.317c.123-.078.115-.2-.018-.28l-1.108-.644a.489.489,0,0,0-.461,0l-.5.314C249.779,246.468,249.786,246.593,249.917,246.67Z" fill="#dae4ef"/>
              <path id="Trazado_189176" data-name="Trazado 189176" d="M251.869,247.811l1.121.655a.492.492,0,0,0,.467,0l.5-.321c.124-.078.114-.205-.02-.283l-1.123-.652a.489.489,0,0,0-.464,0l-.5.318C251.728,247.607,251.736,247.733,251.869,247.811Z" fill="#dae4ef"/>
              <path id="Trazado_189177" data-name="Trazado 189177" d="M253.846,248.967l1.136.664a.5.5,0,0,0,.471,0l.5-.324c.124-.079.114-.207-.023-.286l-1.136-.661a.5.5,0,0,0-.469,0l-.5.321C253.7,248.761,253.711,248.888,253.846,248.967Z" fill="#dae4ef"/>
              <path id="Trazado_189178" data-name="Trazado 189178" d="M257.956,250.2l-1.152-.669a.5.5,0,0,0-.472,0l-.506.324c-.124.079-.113.209.023.289l1.15.672a.5.5,0,0,0,.475,0l.507-.326C258.106,250.406,258.094,250.276,257.956,250.2Z" fill="#dae4ef"/>
              <path id="Trazado_189179" data-name="Trazado 189179" d="M230.089,237.011l.9.53a.579.579,0,0,0,.537-.005l.885-.526c.15-.088.152-.23.006-.315l-.9-.527a.58.58,0,0,0-.533.006l-.883.522C229.948,236.784,229.944,236.925,230.089,237.011Z" fill="#dae4ef"/>
              <path id="Trazado_189180" data-name="Trazado 189180" d="M234.081,237.672l-.909-.533a.582.582,0,0,0-.537,0l-.886.527c-.15.089-.154.231-.007.318l.907.537a.582.582,0,0,0,.54-.005l.889-.53C234.228,237.9,234.229,237.758,234.081,237.672Z" fill="#dae4ef"/>
              <path id="Trazado_189181" data-name="Trazado 189181" d="M235.769,238.66l-.92-.539a.584.584,0,0,0-.541.005l-.889.531a.171.171,0,0,0,0,.322l.917.542a.582.582,0,0,0,.544,0l.892-.535A.172.172,0,0,0,235.769,238.66Z" fill="#dae4ef"/>
              <path id="Trazado_189182" data-name="Trazado 189182" d="M230.922,239.48l.909.544a.58.58,0,0,0,.543,0l.9-.535c.151-.091.153-.235.005-.323l-.912-.541a.582.582,0,0,0-.54.005l-.892.531C230.778,239.248,230.775,239.392,230.922,239.48Z" fill="#dae4ef"/>
              <path id="Trazado_189183" data-name="Trazado 189183" d="M228.433,237.99l1.668,1a.58.58,0,0,0,.539-.005l.892-.531c.151-.089.154-.232.007-.319l-1.673-.991a.576.576,0,0,0-.534,0l-.888.525C228.293,237.762,228.288,237.9,228.433,237.99Z" fill="#dae4ef"/>
              <path id="Trazado_189184" data-name="Trazado 189184" d="M234.963,240.162l-.923-.546a.583.583,0,0,0-.543,0l-.895.536c-.152.091-.155.237-.006.326l.92.551a.585.585,0,0,0,.547,0l.9-.54A.175.175,0,0,0,234.963,240.162Z" fill="#dae4ef"/>
              <path id="Trazado_189185" data-name="Trazado 189185" d="M236.672,241.175l-.933-.553a.587.587,0,0,0-.548,0l-.9.541a.176.176,0,0,0,0,.329l.931.557a.585.585,0,0,0,.551,0l.9-.545A.176.176,0,0,0,236.672,241.175Z" fill="#dae4ef"/>
              <path id="Trazado_189186" data-name="Trazado 189186" d="M238.4,242.2l-.945-.56a.592.592,0,0,0-.552,0l-.9.546a.178.178,0,0,0,0,.333l.942.564a.592.592,0,0,0,.556,0l.9-.55A.178.178,0,0,0,238.4,242.2Z" fill="#dae4ef"/>
              <path id="Trazado_189187" data-name="Trazado 189187" d="M240.152,243.237l-.956-.566a.592.592,0,0,0-.556,0l-.9.551a.18.18,0,0,0,0,.336l.953.571a.594.594,0,0,0,.56,0l.9-.555A.18.18,0,0,0,240.152,243.237Z" fill="#dae4ef"/>
              <path id="Trazado_189188" data-name="Trazado 189188" d="M241.923,244.287l-.967-.574a.6.6,0,0,0-.56,0l-.906.556a.182.182,0,0,0,0,.339l.965.578a.6.6,0,0,0,.564,0l.908-.56A.182.182,0,0,0,241.923,244.287Z" fill="#dae4ef"/>
              <path id="Trazado_189189" data-name="Trazado 189189" d="M243.716,245.349l-.979-.58a.6.6,0,0,0-.564,0l-.909.561a.184.184,0,0,0,.007.343l.977.584a.6.6,0,0,0,.567,0l.911-.565A.185.185,0,0,0,243.716,245.349Z" fill="#dae4ef"/>
              <path id="Trazado_189190" data-name="Trazado 189190" d="M245.53,246.424l-.991-.587a.6.6,0,0,0-.568,0l-.912.565a.187.187,0,0,0,.01.347l.989.592a.6.6,0,0,0,.572,0l.914-.57C245.7,246.675,245.692,246.52,245.53,246.424Z" fill="#dae4ef"/>
              <path id="Trazado_189191" data-name="Trazado 189191" d="M244.889,247.839l1,.6a.608.608,0,0,0,.577,0l.916-.576c.155-.1.148-.254-.016-.351l-1-.594a.606.606,0,0,0-.573,0l-.914.571A.188.188,0,0,0,244.889,247.839Z" fill="#dae4ef"/>
              <path id="Trazado_189192" data-name="Trazado 189192" d="M249.245,248.969c.155-.1.147-.257-.018-.355l-1.016-.6a.608.608,0,0,0-.577,0l-.917.576c-.156.1-.149.256.015.354l1.013.607a.605.605,0,0,0,.581,0Z" fill="#dae4ef"/>
              <path id="Trazado_189193" data-name="Trazado 189193" d="M251.13,250.088c.156-.1.146-.259-.021-.359l-1.028-.609a.613.613,0,0,0-.582,0l-.92.582c-.155.1-.148.259.018.358l1.026.614a.612.612,0,0,0,.586,0Z" fill="#dae4ef"/>
              <path id="Trazado_189194" data-name="Trazado 189194" d="M250.486,251.189l1.039.622a.615.615,0,0,0,.59,0l.924-.592c.156-.1.145-.262-.024-.362l-1.041-.617a.614.614,0,0,0-.587,0l-.922.586C250.309,250.927,250.318,251.089,250.486,251.189Z" fill="#dae4ef"/>
              <path id="Trazado_189195" data-name="Trazado 189195" d="M229.684,240.41c-.152.091-.156.236-.009.325l.909.551a.581.581,0,0,0,.545,0l.9-.54a.174.174,0,0,0,.006-.326l-.912-.547a.579.579,0,0,0-.541,0Z" fill="#dae4ef"/>
              <path id="Trazado_189196" data-name="Trazado 189196" d="M226.768,238.975l2.111,1.278a.579.579,0,0,0,.541,0l.9-.535c.151-.091.155-.235.008-.323l-2.117-1.269a.573.573,0,0,0-.534,0l-.894.528C226.63,238.744,226.624,238.888,226.768,238.975Z" fill="#dae4ef"/>
              <path id="Trazado_189197" data-name="Trazado 189197" d="M231.356,241.42c-.152.092-.156.239-.007.329l.92.557a.583.583,0,0,0,.549,0l.9-.545a.176.176,0,0,0,0-.33l-.922-.553a.583.583,0,0,0-.546,0Z" fill="#dae4ef"/>
              <path id="Trazado_189198" data-name="Trazado 189198" d="M233.043,242.775l.931.564a.586.586,0,0,0,.553,0l.906-.55a.178.178,0,0,0,0-.333l-.934-.56a.586.586,0,0,0-.549,0l-.9.546A.178.178,0,0,0,233.043,242.775Z" fill="#dae4ef"/>
              <path id="Trazado_189199" data-name="Trazado 189199" d="M234.757,243.813l.943.571a.588.588,0,0,0,.557,0l.908-.555a.18.18,0,0,0,0-.336l-.944-.567a.591.591,0,0,0-.554,0l-.906.55A.18.18,0,0,0,234.757,243.813Z" fill="#dae4ef"/>
              <path id="Trazado_189200" data-name="Trazado 189200" d="M236.492,244.863l.954.578a.593.593,0,0,0,.561,0l.911-.56a.182.182,0,0,0,0-.34l-.956-.573a.59.59,0,0,0-.558,0l-.909.555A.182.182,0,0,0,236.492,244.863Z" fill="#dae4ef"/>
              <path id="Trazado_189201" data-name="Trazado 189201" d="M238.248,245.927l.965.584a.593.593,0,0,0,.565,0l.915-.564a.185.185,0,0,0-.006-.344l-.968-.58a.592.592,0,0,0-.562,0l-.912.56A.185.185,0,0,0,238.248,245.927Z" fill="#dae4ef"/>
              <path id="Trazado_189202" data-name="Trazado 189202" d="M240.025,247l.977.591a.593.593,0,0,0,.569,0l.917-.569a.188.188,0,0,0-.008-.348l-.98-.587a.6.6,0,0,0-.566,0l-.914.565A.187.187,0,0,0,240.025,247Z" fill="#dae4ef"/>
              <path id="Trazado_189203" data-name="Trazado 189203" d="M241.823,248.092l.989.6a.6.6,0,0,0,.575,0l.919-.575a.189.189,0,0,0-.011-.351l-.992-.594a.6.6,0,0,0-.57,0l-.917.571A.189.189,0,0,0,241.823,248.092Z" fill="#dae4ef"/>
              <path id="Trazado_189204" data-name="Trazado 189204" d="M243.644,249.194l1,.607a.6.6,0,0,0,.579,0l.922-.58c.156-.1.15-.257-.014-.355l-1-.6a.6.6,0,0,0-.575,0l-.92.575A.191.191,0,0,0,243.644,249.194Z" fill="#dae4ef"/>
              <path id="Trazado_189205" data-name="Trazado 189205" d="M245.487,250.311l1.014.614a.607.607,0,0,0,.583,0l.925-.586c.157-.1.149-.259-.016-.358l-1.017-.609a.6.6,0,0,0-.579,0l-.923.581C245.318,250.051,245.324,250.211,245.487,250.311Z" fill="#dae4ef"/>
              <path id="Trazado_189206" data-name="Trazado 189206" d="M248.968,252.064l.928-.591c.156-.1.147-.262-.02-.362l-1.029-.617a.609.609,0,0,0-.584,0l-.925.586c-.157.1-.15.261.016.362l1.026.621A.608.608,0,0,0,248.968,252.064Z" fill="#dae4ef"/>
              <path id="Trazado_189207" data-name="Trazado 189207" d="M253.217,253.113l-2.453-1.47a.613.613,0,0,0-.589,0l-.928.592c-.157.1-.149.264.019.366l2.447,1.482a.616.616,0,0,0,.6,0l.933-.6C253.4,253.382,253.388,253.216,253.217,253.113Z" fill="#dae4ef"/>
              <path id="Trazado_189208" data-name="Trazado 189208" d="M228.86,242.273l.912.559a.579.579,0,0,0,.548,0l.907-.545a.177.177,0,0,0,.007-.33l-.914-.555a.576.576,0,0,0-.544,0l-.9.541C228.718,242.035,228.713,242.183,228.86,242.273Z" fill="#dae4ef"/>
              <path id="Trazado_189209" data-name="Trazado 189209" d="M225.794,240.738l-1.066-.655a.377.377,0,0,0-.353,0l-1.328.785c-.1.059-.106.155-.012.213l1.062.66a.375.375,0,0,0,.355,0l1.332-.79C225.884,240.892,225.889,240.8,225.794,240.738Z" fill="#dae4ef"/>
              <path id="Trazado_189210" data-name="Trazado 189210" d="M227.445,241.752l-1.078-.662a.375.375,0,0,0-.355,0l-1.332.792c-.1.06-.107.156-.011.215l1.075.668a.377.377,0,0,0,.357,0l1.336-.8C227.538,241.908,227.542,241.811,227.445,241.752Z" fill="#dae4ef"/>
              <path id="Trazado_189211" data-name="Trazado 189211" d="M229.117,242.778l-1.091-.67a.381.381,0,0,0-.358,0l-1.337.8c-.1.061-.1.159-.009.219l1.088.676a.38.38,0,0,0,.36,0l1.34-.8C229.211,242.936,229.214,242.838,229.117,242.778Z" fill="#dae4ef"/>
              <path id="Trazado_189212" data-name="Trazado 189212" d="M231.2,244.056l-1.493-.917a.382.382,0,0,0-.361,0l-1.34.806c-.1.061-.105.16-.008.22l1.489.925a.38.38,0,0,0,.363,0l1.345-.813A.119.119,0,0,0,231.2,244.056Z" fill="#dae4ef"/>
              <path id="Trazado_189213" data-name="Trazado 189213" d="M242.267,250.852l-1.611-.989a.393.393,0,0,0-.378,0l-1.366.852a.128.128,0,0,0,0,.236l1.606,1a.393.393,0,0,0,.382,0l1.371-.861A.128.128,0,0,0,242.267,250.852Z" fill="#dae4ef"/>
              <path id="Trazado_189214" data-name="Trazado 189214" d="M244.129,251.995l-1.19-.731a.4.4,0,0,0-.382,0l-1.372.862a.13.13,0,0,0,.005.239l1.187.738a.4.4,0,0,0,.384,0l1.376-.869A.13.13,0,0,0,244.129,251.995Z" fill="#dae4ef"/>
              <path id="Trazado_189215" data-name="Trazado 189215" d="M245.142,253.714l-1.2-.744a.4.4,0,0,0-.385,0l-.5.317a.131.131,0,0,0,.006.241l1.2.747a.4.4,0,0,0,.388,0l.5-.319A.131.131,0,0,0,245.142,253.714Z" fill="#dae4ef"/>
              <path id="Trazado_189216" data-name="Trazado 189216" d="M248.964,256.074l-1.235-.763a.4.4,0,0,0-.391,0l-.5.322a.135.135,0,0,0,.01.247l1.233.766a.4.4,0,0,0,.394,0l.5-.325C249.082,256.254,249.076,256.143,248.964,256.074Z" fill="#dae4ef"/>
              <path id="Trazado_189217" data-name="Trazado 189217" d="M247.041,254.886l-1.219-.753a.4.4,0,0,0-.388,0l-.5.32a.133.133,0,0,0,.008.244l1.217.756a.4.4,0,0,0,.391,0l.5-.321C247.157,255.064,247.152,254.955,247.041,254.886Z" fill="#dae4ef"/>
              <path id="Trazado_189218" data-name="Trazado 189218" d="M245.92,254.071l1.219.753a.4.4,0,0,0,.39,0l.5-.321c.1-.067.1-.176-.011-.244l-1.221-.749a.4.4,0,0,0-.388,0l-.5.318A.132.132,0,0,0,245.92,254.071Z" fill="#dae4ef"/>
              <path id="Trazado_189219" data-name="Trazado 189219" d="M239.94,249.423l-8.154-5.006a.385.385,0,0,0-.364,0l-1.345.814a.121.121,0,0,0-.007.224l8.13,5.05a.389.389,0,0,0,.377,0l1.366-.851A.126.126,0,0,0,239.94,249.423Z" fill="#dae4ef"/>
              <path id="Trazado_189220" data-name="Trazado 189220" d="M225.093,239.965l2.9,1.775a.576.576,0,0,0,.544,0l.9-.54c.152-.092.157-.238.01-.327l-2.9-1.762a.575.575,0,0,0-.535,0l-.9.531C224.957,239.733,224.95,239.877,225.093,239.965Z" fill="#dae4ef"/>
              <path id="Trazado_189221" data-name="Trazado 189221" d="M230.539,243.3l.923.565a.578.578,0,0,0,.552,0l.91-.55a.179.179,0,0,0,.005-.334L232,242.42a.579.579,0,0,0-.548,0l-.907.546A.179.179,0,0,0,230.539,243.3Z" fill="#dae4ef"/>
              <path id="Trazado_189222" data-name="Trazado 189222" d="M232.239,244.343l.934.572a.581.581,0,0,0,.555,0l.913-.555a.182.182,0,0,0,0-.338l-.937-.568a.584.584,0,0,0-.552,0l-.91.551A.18.18,0,0,0,232.239,244.343Z" fill="#dae4ef"/>
              <path id="Trazado_189223" data-name="Trazado 189223" d="M233.958,245.4l.946.579a.588.588,0,0,0,.56,0l.915-.56a.183.183,0,0,0,0-.341l-.948-.575a.586.586,0,0,0-.556,0l-.913.556A.183.183,0,0,0,233.958,245.4Z" fill="#dae4ef"/>
              <path id="Trazado_189224" data-name="Trazado 189224" d="M235.7,246.463l.957.586a.588.588,0,0,0,.564,0l.918-.565a.186.186,0,0,0,0-.345l-.96-.582a.588.588,0,0,0-.56,0l-.916.56A.185.185,0,0,0,235.7,246.463Z" fill="#dae4ef"/>
              <path id="Trazado_189225" data-name="Trazado 189225" d="M237.46,247.542l.969.594a.591.591,0,0,0,.568,0l.921-.57a.188.188,0,0,0-.005-.349l-.971-.588a.591.591,0,0,0-.564,0l-.919.566A.187.187,0,0,0,237.46,247.542Z" fill="#dae4ef"/>
              <path id="Trazado_189226" data-name="Trazado 189226" d="M239.243,248.635l.981.6a.6.6,0,0,0,.573,0l.923-.575a.19.19,0,0,0-.007-.352l-.983-.6a.6.6,0,0,0-.569,0l-.922.571A.19.19,0,0,0,239.243,248.635Z" fill="#dae4ef"/>
              <path id="Trazado_189227" data-name="Trazado 189227" d="M241.048,249.741l.993.608a.6.6,0,0,0,.577,0l.927-.581a.192.192,0,0,0-.011-.355l-.995-.6a.6.6,0,0,0-.573,0l-.924.576A.192.192,0,0,0,241.048,249.741Z" fill="#dae4ef"/>
              <path id="Trazado_189228" data-name="Trazado 189228" d="M242.876,250.861l1,.615a.6.6,0,0,0,.582,0l.93-.586a.2.2,0,0,0-.013-.36l-1.008-.611a.6.6,0,0,0-.578,0l-.927.582A.194.194,0,0,0,242.876,250.861Z" fill="#dae4ef"/>
              <path id="Trazado_189229" data-name="Trazado 189229" d="M247.246,251.665l-1.02-.619a.6.6,0,0,0-.583,0l-.93.587a.2.2,0,0,0,.012.362l1.018.624a.607.607,0,0,0,.586,0l.933-.592A.2.2,0,0,0,247.246,251.665Z" fill="#dae4ef"/>
              <path id="Trazado_189230" data-name="Trazado 189230" d="M251.523,254.259l-3.42-2.074a.609.609,0,0,0-.587,0l-.932.592a.2.2,0,0,0,.015.367l3.411,2.09a.615.615,0,0,0,.6,0l.938-.6C251.7,254.529,251.693,254.362,251.523,254.259Z" fill="#dae4ef"/>
              <path id="Trazado_189231" data-name="Trazado 189231" d="M254.945,252l-1.055-.625a.617.617,0,0,0-.591,0l-.924.592c-.157.1-.147.264.023.366l1.052.629a.617.617,0,0,0,.6,0l.927-.6C255.129,252.268,255.116,252.1,254.945,252Z" fill="#dae4ef"/>
              <path id="Trazado_189232" data-name="Trazado 189232" d="M237.476,239.66l-.931-.545a.59.59,0,0,0-.545,0l-.891.536a.173.173,0,0,0,0,.325l.928.549a.589.589,0,0,0,.549,0l.893-.539A.174.174,0,0,0,237.476,239.66Z" fill="#dae4ef"/>
              <path id="Trazado_189233" data-name="Trazado 189233" d="M239.2,240.672l-.942-.552a.592.592,0,0,0-.549,0l-.894.54a.176.176,0,0,0,0,.329l.94.556a.589.589,0,0,0,.552,0l.9-.544A.176.176,0,0,0,239.2,240.672Z" fill="#dae4ef"/>
              <path id="Trazado_189234" data-name="Trazado 189234" d="M240.952,241.7l-.953-.558a.591.591,0,0,0-.553,0l-.9.545a.177.177,0,0,0,0,.332l.951.562a.592.592,0,0,0,.556,0l.9-.55A.177.177,0,0,0,240.952,241.7Z" fill="#dae4ef"/>
              <path id="Trazado_189235" data-name="Trazado 189235" d="M242.721,242.732l-.964-.565a.6.6,0,0,0-.557,0l-.9.55a.179.179,0,0,0,0,.335l.963.569a.594.594,0,0,0,.56,0l.9-.554A.18.18,0,0,0,242.721,242.732Z" fill="#dae4ef"/>
              <path id="Trazado_189236" data-name="Trazado 189236" d="M244.512,243.781l-.977-.572a.6.6,0,0,0-.561,0l-.9.555a.182.182,0,0,0,.008.339l.974.576a.6.6,0,0,0,.565,0l.9-.559C244.676,244.026,244.67,243.874,244.512,243.781Z" fill="#dae4ef"/>
              <path id="Trazado_189237" data-name="Trazado 189237" d="M246.324,244.842l-.988-.579a.606.606,0,0,0-.566,0l-.9.56a.184.184,0,0,0,.011.342l.986.583a.6.6,0,0,0,.569,0l.907-.564C246.491,245.09,246.485,244.936,246.324,244.842Z" fill="#dae4ef"/>
              <path id="Trazado_189238" data-name="Trazado 189238" d="M248.158,245.916l-1-.585a.606.606,0,0,0-.57,0l-.907.565c-.154.1-.148.25.013.346l1,.59a.6.6,0,0,0,.573,0l.91-.569C248.328,246.167,248.321,246.012,248.158,245.916Z" fill="#dae4ef"/>
              <path id="Trazado_189239" data-name="Trazado 189239" d="M250.015,247,249,246.411a.605.605,0,0,0-.574,0l-.91.57c-.154.1-.147.253.016.349l1.01.6a.61.61,0,0,0,.578,0l.912-.575C250.188,247.257,250.18,247.1,250.015,247Z" fill="#dae4ef"/>
              <path id="Trazado_189240" data-name="Trazado 189240" d="M250.419,249.038a.612.612,0,0,0,.583,0l.915-.58c.155-.1.144-.257-.023-.354l-1.024-.6a.612.612,0,0,0-.579,0l-.913.575c-.155.1-.146.256.019.353Z" fill="#dae4ef"/>
              <path id="Trazado_189241" data-name="Trazado 189241" d="M253.8,249.219l-1.037-.607a.612.612,0,0,0-.583,0l-.916.581c-.155.1-.145.258.022.357l1.035.613a.617.617,0,0,0,.587,0l.918-.586C253.978,249.479,253.966,249.318,253.8,249.219Z" fill="#dae4ef"/>
              <path id="Trazado_189242" data-name="Trazado 189242" d="M256.82,250.989l-2.21-1.294a.4.4,0,0,0-.375,0l-1.122.717c-.1.063-.092.166.016.23l2.205,1.3a.4.4,0,0,0,.379,0l1.126-.726C256.938,251.158,256.93,251.054,256.82,250.989Z" fill="#dae4ef"/>
            </g>
          </g>
        </g>
        <g id="Grupo_128869" data-name="Grupo 128869">
          <path id="Trazado_189243" data-name="Trazado 189243" d="M254.85,328.2c-2.925.865-5.641,2.471-8.622,3.217-2.615.851-5.271,1.482-7.929,2.176a13.783,13.783,0,0,0-4.789,2.048c-.639.472-.527,1.463-.465,2.159.1,1.165,1.657,1.734,2.586,2.05a8.6,8.6,0,0,0,4.027.42,12.766,12.766,0,0,0,4.828-2.16c1.406-.877,2.839-1.716,4.322-2.456,1.447-.721,2.975-1.211,4.441-1.881a3.9,3.9,0,0,0,2.607-3.215,5.212,5.212,0,0,0,0-1.242,1.8,1.8,0,0,0-.51-1.048.412.412,0,0,0-.218-.122.486.486,0,0,0-.195.028Z" fill="#31394c"/>
          <path id="Trazado_189244" data-name="Trazado 189244" d="M251.538,325.868a10.81,10.81,0,0,0-1.4.014c-1.145.081-2.278.274-3.42.384a18.611,18.611,0,0,1-3.617-.1c-.378-.037-.757-.067-1.136-.074a9.037,9.037,0,0,0-7.633,4.547c-.009,0-.017-.012-.027-.008-1.257.528-.747,2.241-.854,3.291a12.924,12.924,0,0,0-.37,2.274,1.891,1.891,0,0,0,.964,1.358,7.918,7.918,0,0,0,6.507,1.155,21.372,21.372,0,0,0,4.622-2.342,47.426,47.426,0,0,1,5.8-2.951,15.684,15.684,0,0,0,3.093-1.369c1.221-.822,2.168-2.243,1.517-3.716A4.3,4.3,0,0,0,251.538,325.868Z" fill="#00b2ca"/>
          <path id="Trazado_189245" data-name="Trazado 189245" d="M249.446,328.091a13.414,13.414,0,0,0-3-1.81,19.715,19.715,0,0,1-3.354-.119c-.377-.036-.755-.066-1.134-.073a5.434,5.434,0,0,0-1.348.847.263.263,0,0,0-.085.148l-.117.141a2.6,2.6,0,0,0-.462.835,2.172,2.172,0,0,0,.4,1.88,5.055,5.055,0,0,0,1.293,1.494,2.354,2.354,0,0,0,.849.4,1.087,1.087,0,0,0,.873-.1.179.179,0,0,0,.052-.128,13.023,13.023,0,0,1,4.612-1.3c.606-.08,1.609-.155,2.02-.68C250.476,329.09,249.859,328.418,249.446,328.091Z" fill="#084a93"/>
          <path id="Trazado_189246" data-name="Trazado 189246" d="M240.431,318.976c-2.925.866-5.641,2.471-8.622,3.217-2.615.852-5.271,1.482-7.929,2.176a13.784,13.784,0,0,0-4.789,2.048c-.639.472-.527,1.463-.464,2.159.1,1.165,1.657,1.734,2.585,2.05a8.608,8.608,0,0,0,4.028.42,12.769,12.769,0,0,0,4.827-2.16c1.406-.877,2.839-1.715,4.323-2.455,1.446-.721,2.974-1.212,4.44-1.881a3.907,3.907,0,0,0,2.607-3.216,5.161,5.161,0,0,0,.005-1.242,1.8,1.8,0,0,0-.51-1.048.412.412,0,0,0-.218-.122.471.471,0,0,0-.2.029Z" fill="#31394c"/>
          <path id="Trazado_189247" data-name="Trazado 189247" d="M237.119,316.642a10.81,10.81,0,0,0-1.4.014c-1.145.081-2.278.274-3.42.384a18.539,18.539,0,0,1-3.617-.1c-.378-.037-.756-.067-1.136-.074a9.038,9.038,0,0,0-7.633,4.548c-.009-.005-.017-.013-.027-.009-1.257.528-.747,2.242-.854,3.291a12.94,12.94,0,0,0-.37,2.274,1.891,1.891,0,0,0,.964,1.359,7.921,7.921,0,0,0,6.507,1.154,21.4,21.4,0,0,0,4.623-2.342,47.48,47.48,0,0,1,5.8-2.951,15.654,15.654,0,0,0,3.093-1.368c1.221-.822,2.169-2.244,1.518-3.717A4.3,4.3,0,0,0,237.119,316.642Z" fill="#00b2ca"/>
          <path id="Trazado_189248" data-name="Trazado 189248" d="M234.889,320.6c.426-.544-.191-1.216-.6-1.543a12.991,12.991,0,0,0-3.4-1.97c-.734-.014-1.463-.074-2.212-.146-.378-.037-.756-.067-1.136-.074-.1,0-.2.016-.3.019a5.32,5.32,0,0,0-1.787,1.016.27.27,0,0,0-.086.148c-.042.05-.083.1-.116.141a2.581,2.581,0,0,0-.462.835,2.169,2.169,0,0,0,.4,1.88,5.042,5.042,0,0,0,1.293,1.494,2.346,2.346,0,0,0,.849.4,1.085,1.085,0,0,0,.872-.1.176.176,0,0,0,.053-.128,13.018,13.018,0,0,1,4.611-1.3C233.475,321.2,234.477,321.121,234.889,320.6Z" fill="#084a93"/>
          <g id="Grupo_128834" data-name="Grupo 128834" opacity="0.3" style="mix-blend-mode: multiply;isolation: isolate">
            <path id="Trazado_189249" data-name="Trazado 189249" d="M178.594,334.616a2.2,2.2,0,0,1,1.85-.065l17.237,8.909,15.15-11.146a1.055,1.055,0,0,1,.093-.059c.413-.238,1.376-1.082,1.926-.927.692.193.655,1.444.32,1.845L204.979,345.61l25.082,3.567c.153.028.617-.649.74-.593.369.165.263,1.156.2,1.445a.747.747,0,0,1-.4.485,2.073,2.073,0,0,1-1.137.232l-25.8-.456,2.663,11.254,0,.819a.658.658,0,0,1-.4.658,1.8,1.8,0,0,1-.556.2,1.728,1.728,0,0,1-1.747-.521l-8.035-11.663-20.967,5.472a2.1,2.1,0,0,1-1.688-.221c-.453-.323-.617-1.438-.113-1.73.034-.019.491-.083.528-.1L191.9,346.8l-13.42-11.113c-.385-.287-.6-1.443-.2-1.743.036-.026.275.7.315.675" fill="gray"/>
          </g>
          <g id="Grupo_128838" data-name="Grupo 128838">
            <g id="Grupo_128835" data-name="Grupo 128835">
              <path id="Trazado_189250" data-name="Trazado 189250" d="M229.686,343.395c1.495-.864,2.7-.165,2.707,1.542a5.912,5.912,0,0,1-2.69,4.659c-1.485.858-2.693.17-2.7-1.548a5.923,5.923,0,0,1,2.681-4.653" fill="#1b1f2d"/>
            </g>
            <path id="Trazado_189251" data-name="Trazado 189251" d="M230.487,351.355l-2.6-1.522,3.721-6.62,2.694,1.569Z" fill="#1b1f2d"/>
            <g id="Grupo_128836" data-name="Grupo 128836">
              <path id="Trazado_189252" data-name="Trazado 189252" d="M232.419,344.988c1.495-.863,2.7-.164,2.707,1.543a5.91,5.91,0,0,1-2.689,4.659c-1.486.858-2.693.17-2.7-1.548a5.925,5.925,0,0,1,2.68-4.654" fill="#1b1f2d"/>
            </g>
            <g id="Grupo_128837" data-name="Grupo 128837">
              <path id="Trazado_189253" data-name="Trazado 189253" d="M232.42,345.164c1.41-.815,2.549-.155,2.554,1.455a5.574,5.574,0,0,1-2.538,4.4c-1.4.81-2.54.16-2.545-1.46a5.589,5.589,0,0,1,2.529-4.39" fill="#31394c"/>
            </g>
          </g>
          <g id="Grupo_128842" data-name="Grupo 128842">
            <g id="Grupo_128839" data-name="Grupo 128839">
              <path id="Trazado_189254" data-name="Trazado 189254" d="M204.013,356.332c1.495-.863,2.7-.165,2.708,1.543a5.911,5.911,0,0,1-2.69,4.658c-1.486.858-2.693.17-2.7-1.548a5.924,5.924,0,0,1,2.68-4.653" fill="#1b1f2d"/>
            </g>
            <path id="Trazado_189255" data-name="Trazado 189255" d="M204.815,364.292l-2.6-1.522,3.721-6.62,2.694,1.569Z" fill="#1b1f2d"/>
            <g id="Grupo_128840" data-name="Grupo 128840">
              <path id="Trazado_189256" data-name="Trazado 189256" d="M206.747,357.925c1.5-.863,2.7-.164,2.707,1.543a5.911,5.911,0,0,1-2.69,4.659c-1.485.858-2.693.17-2.7-1.548a5.926,5.926,0,0,1,2.681-4.654" fill="#1b1f2d"/>
            </g>
            <g id="Grupo_128841" data-name="Grupo 128841">
              <path id="Trazado_189257" data-name="Trazado 189257" d="M206.747,358.1c1.411-.815,2.55-.155,2.555,1.455a5.582,5.582,0,0,1-2.538,4.4c-1.4.809-2.541.16-2.545-1.461a5.588,5.588,0,0,1,2.528-4.39" fill="#31394c"/>
            </g>
          </g>
          <g id="Grupo_128846" data-name="Grupo 128846">
            <g id="Grupo_128843" data-name="Grupo 128843">
              <path id="Trazado_189258" data-name="Trazado 189258" d="M172.5,349.636c1.5-.864,2.7-.165,2.707,1.542a5.911,5.911,0,0,1-2.69,4.659c-1.485.858-2.693.17-2.7-1.548a5.926,5.926,0,0,1,2.681-4.653" fill="#1b1f2d"/>
            </g>
            <path id="Trazado_189259" data-name="Trazado 189259" d="M173.3,357.6l-2.6-1.522,3.721-6.62,2.694,1.569Z" fill="#1b1f2d"/>
            <g id="Grupo_128844" data-name="Grupo 128844">
              <path id="Trazado_189260" data-name="Trazado 189260" d="M175.232,351.229c1.5-.863,2.7-.164,2.708,1.543a5.914,5.914,0,0,1-2.69,4.659c-1.486.858-2.693.17-2.7-1.548a5.928,5.928,0,0,1,2.68-4.654" fill="#1b1f2d"/>
            </g>
            <g id="Grupo_128845" data-name="Grupo 128845">
              <path id="Trazado_189261" data-name="Trazado 189261" d="M175.233,351.4c1.41-.815,2.549-.155,2.554,1.455a5.574,5.574,0,0,1-2.538,4.4c-1.4.81-2.54.16-2.545-1.46a5.589,5.589,0,0,1,2.529-4.39" fill="#31394c"/>
            </g>
          </g>
          <g id="Grupo_128850" data-name="Grupo 128850">
            <g id="Grupo_128847" data-name="Grupo 128847">
              <path id="Trazado_189262" data-name="Trazado 189262" d="M177.369,329.6c1.495-.864,2.7-.165,2.707,1.542a5.912,5.912,0,0,1-2.69,4.659c-1.485.858-2.693.17-2.7-1.548a5.923,5.923,0,0,1,2.681-4.653" fill="#1b1f2d"/>
            </g>
            <path id="Trazado_189263" data-name="Trazado 189263" d="M178.17,337.558l-2.6-1.522,3.721-6.62,2.694,1.569Z" fill="#1b1f2d"/>
            <g id="Grupo_128848" data-name="Grupo 128848">
              <path id="Trazado_189264" data-name="Trazado 189264" d="M180.1,331.191c1.495-.863,2.7-.164,2.707,1.543a5.91,5.91,0,0,1-2.689,4.659c-1.486.858-2.694.17-2.7-1.548a5.925,5.925,0,0,1,2.68-4.654" fill="#1b1f2d"/>
            </g>
            <g id="Grupo_128849" data-name="Grupo 128849">
              <path id="Trazado_189265" data-name="Trazado 189265" d="M180.1,331.367c1.41-.815,2.549-.155,2.554,1.455a5.576,5.576,0,0,1-2.538,4.4c-1.4.81-2.54.161-2.545-1.46a5.589,5.589,0,0,1,2.529-4.39" fill="#31394c"/>
            </g>
          </g>
          <g id="Grupo_128854" data-name="Grupo 128854">
            <g id="Grupo_128851" data-name="Grupo 128851">
              <path id="Trazado_189266" data-name="Trazado 189266" d="M213.586,326.222c1.495-.863,2.7-.165,2.708,1.543a5.911,5.911,0,0,1-2.69,4.658c-1.486.858-2.693.17-2.7-1.548a5.924,5.924,0,0,1,2.68-4.653" fill="#1b1f2d"/>
            </g>
            <path id="Trazado_189267" data-name="Trazado 189267" d="M214.388,334.182l-2.6-1.522,3.721-6.62,2.694,1.569Z" fill="#1b1f2d"/>
            <g id="Grupo_128852" data-name="Grupo 128852">
              <path id="Trazado_189268" data-name="Trazado 189268" d="M216.32,327.815c1.495-.863,2.7-.164,2.707,1.543a5.911,5.911,0,0,1-2.69,4.659c-1.486.858-2.693.17-2.7-1.548a5.926,5.926,0,0,1,2.681-4.654" fill="#1b1f2d"/>
            </g>
            <g id="Grupo_128853" data-name="Grupo 128853">
              <path id="Trazado_189269" data-name="Trazado 189269" d="M216.32,327.991c1.411-.815,2.55-.155,2.554,1.455a5.579,5.579,0,0,1-2.537,4.4c-1.4.809-2.541.159-2.545-1.461a5.588,5.588,0,0,1,2.528-4.39" fill="#31394c"/>
            </g>
          </g>
          <g id="Grupo_128855" data-name="Grupo 128855">
            <path id="Trazado_189270" data-name="Trazado 189270" d="M178.594,329.158a2.2,2.2,0,0,1,1.85-.065l17.237,7.225,15.15-9.462c.029-.02.06-.04.093-.059.413-.238,1.376-1.082,1.926-.927.692.193.655,1.444.32,1.845l-10.191,10.754,25.082,5.25c.153.028.617-.648.74-.593.369.165.263,1.157.2,1.446a.749.749,0,0,1-.4.485,2.082,2.082,0,0,1-1.137.231l-25.8-2.14,2.663,12.938,0,.819a.656.656,0,0,1-.4.658,1.779,1.779,0,0,1-.556.2,1.728,1.728,0,0,1-1.747-.521l-8.035-13.346-20.967,7.155a2.1,2.1,0,0,1-1.688-.221c-.453-.322-.617-1.438-.113-1.729.034-.02.491-.084.528-.1l18.557-9.341-13.42-9.429c-.385-.288-.6-1.443-.2-1.743.036-.027.275.7.315.674" fill="#a9c0d9"/>
          </g>
          <g id="Grupo_128856" data-name="Grupo 128856">
            <path id="Trazado_189271" data-name="Trazado 189271" d="M178.594,328.2a2.2,2.2,0,0,1,1.85-.065l17.237,5.236,15.15-7.411a1.05,1.05,0,0,1,.093-.058,2.2,2.2,0,0,1,1.6-.159c.691.192.977.675.642,1.076l-10.191,8.7,25.082,7.269c.61.114,1.023.467.944.852a.747.747,0,0,1-.4.485,2.073,2.073,0,0,1-1.137.232l-25.8-4.158,2.658,15.808a.658.658,0,0,1-.4.658,1.8,1.8,0,0,1-.556.2,1.728,1.728,0,0,1-1.747-.521l-8.035-15.4-20.967,9.287a2.1,2.1,0,0,1-1.688-.221c-.453-.323-.4-.79.107-1.081.033-.019.069-.038.106-.056L191.9,336.711l-13.42-7.44a.568.568,0,0,1,0-.995,1.317,1.317,0,0,1,.114-.074" fill="#dae4ef"/>
          </g>
          <path id="Trazado_189272" data-name="Trazado 189272" d="M203.1,328.319v8.057h0a2.3,2.3,0,0,1-1.352,1.864,7.06,7.06,0,0,1-6.422,0A2.271,2.271,0,0,1,194,336.376v-7.885Z" fill="#a9c0d9"/>
          <g id="Grupo_128857" data-name="Grupo 128857">
            <path id="Trazado_189273" data-name="Trazado 189273" d="M195.334,326.626a7.122,7.122,0,0,1,6.452,0c1.773,1.031,1.749,2.7-.036,3.729a7.06,7.06,0,0,1-6.422,0c-1.773-1.03-1.779-2.7.006-3.729" fill="#dae4ef"/>
          </g>
          <path id="Trazado_189274" data-name="Trazado 189274" d="M202.723,321.018V328.4h0a2.112,2.112,0,0,1-1.24,1.709,6.467,6.467,0,0,1-5.887,0,2.08,2.08,0,0,1-1.22-1.709v-7.228Z" fill="#91aaf2"/>
          <g id="Grupo_128858" data-name="Grupo 128858">
            <path id="Trazado_189275" data-name="Trazado 189275" d="M195.6,319.466a6.529,6.529,0,0,1,5.914,0c1.626.945,1.6,2.474-.033,3.418a6.467,6.467,0,0,1-5.887,0c-1.625-.944-1.63-2.473.006-3.418" fill="#a9c0d9"/>
          </g>
          <path id="Trazado_189276" data-name="Trazado 189276" d="M182.143,301.974c7.633,11.217,35.777-14.553,35.777-14.553-1.944,8.853,2.964,14.643,1.288,32.812a1.539,1.539,0,0,0,.294,1.065,6.08,6.08,0,0,0,3.513,2.444,6.582,6.582,0,0,0,5.533-1.19,1.442,1.442,0,0,0,.507-.971c.338-3.4,2.225-22.614,2.5-29.553.212-5.342,1.079-16.4-7.6-18.257-6.276-1.343-27.068,6.806-27.068,6.806S173.716,289.591,182.143,301.974Z" fill="#1b1f2d"/>
          <g id="Grupo_128859" data-name="Grupo 128859">
            <path id="Trazado_189277" data-name="Trazado 189277" d="M235.265,298.492l-26.151-15.1a17.147,17.147,0,0,0-15.094-.214L165.6,298.162c-4.618,2.437-4.764,6.617-.336,9.173l28.807,16.632c4.434,2.56,11.651,2.462,15.836-.224l25.773-16.513c3.911-2.505,3.726-6.349-.412-8.738" fill="#084a93"/>
          </g>
          <path id="Trazado_189278" data-name="Trazado 189278" d="M164.8,298.626c.248-.161.511-.316.792-.464l28.423-14.983a17.147,17.147,0,0,1,15.094.214l26.15,15.1a7.247,7.247,0,0,1,2.519,2.268c-2.341,2.738-7.616,3.939-10.556,5.146-5.3,2.179-9.973,5.556-14.709,8.727-2.341,1.567-4.649,3.355-7.425,4a16.145,16.145,0,0,1-8.885-.441c-4.8-1.668-8.518-5.605-12.825-8.171a48.561,48.561,0,0,0-8.248-3.915,73.588,73.588,0,0,1-6.85-2.987,5.87,5.87,0,0,1-3.347-3.349A3.8,3.8,0,0,1,164.8,298.626Z" fill="#063b76"/>
          <path id="Trazado_189279" data-name="Trazado 189279" d="M210.646,212.693c.022-.613-1.4-3.29-2.065-4.5-.587-3.96-1.235-7.158-1.235-7.158-4.475-3.8-15.13,12.669-15.13,12.669l-1.155,15.135c5.741,5.286,11.069,2.292,11.069,2.292.117-6.866,4.6-5.542,6.635-8.531.869-1.28.867-4.724.534-8.493C209.937,213.68,210.63,213.123,210.646,212.693Z" fill="#f2c599"/>
          <path id="Trazado_189280" data-name="Trazado 189280" d="M191.442,225.474c5.51,1.668,8.614-.843,10.158-5.454,0,0,.366-.546-1.746-1.182s-2.946-7.152-.774-6.645,2.071,3.484,2.995,3.736,1.439-.621.751-2.7,3.308-2.551,2.028-4.948a4.381,4.381,0,0,1,2.11-6.24c2.508-1.178.893-10.827-1.036-10.267s-2.309,2.49-3.451.272-2.052-3.9-3.769-2.916-.629,2.278-2.647,1.459-2.416-.247-3.113,1.185.473,2.275-1.845,2.475-1.562,2.244-3.76,4.169-6.144,2.85-5.763,9.637S186.455,223.965,191.442,225.474Z" fill="#31394c"/>
          <path id="Trazado_189281" data-name="Trazado 189281" d="M211.232,219.26c-.055-.26-.31-.253-.524-.265-.317-.016-.636-.026-.954-.043a16.258,16.258,0,0,1-2.773-.326,12.79,12.79,0,0,1-1.964-.629q-.473-.192-.932-.41a4.161,4.161,0,0,0-.869-.372.357.357,0,0,0-.422.3c-.088.4.438.585.714.735a14.036,14.036,0,0,0,1.28.612,13.454,13.454,0,0,0,5.307,1.109,2.589,2.589,0,0,0,.82-.155.469.469,0,0,0,.333-.441A.514.514,0,0,0,211.232,219.26Z" fill="#00b2ca"/>
          <path id="Trazado_189282" data-name="Trazado 189282" d="M214.046,219.237a1.08,1.08,0,0,0-.645-.953,1.643,1.643,0,0,0-.475-.045,8.661,8.661,0,0,0-1.393.106,1.832,1.832,0,0,0-1.193.51,1.006,1.006,0,0,0,.827,1.533,5.653,5.653,0,0,0,1.946.019,1.048,1.048,0,0,0,.936-.928A1.231,1.231,0,0,0,214.046,219.237Z" fill="#1b1f2d"/>
          <g id="Grupo_128864" data-name="Grupo 128864">
            <g id="Grupo_128860" data-name="Grupo 128860">
              <path id="Trazado_189283" data-name="Trazado 189283" d="M200.034,211.6c1.635-.944,2.955-.18,2.961,1.687a6.467,6.467,0,0,1-2.941,5.094c-1.625.938-2.945.186-2.951-1.693a6.482,6.482,0,0,1,2.931-5.088" fill="#1b1f2d"/>
            </g>
            <path id="Trazado_189284" data-name="Trazado 189284" d="M200.911,220.3l-2.84-1.665,4.068-7.239,2.946,1.716Z" fill="#1b1f2d"/>
            <g id="Grupo_128861" data-name="Grupo 128861">
              <path id="Trazado_189285" data-name="Trazado 189285" d="M203.023,213.343c1.635-.944,2.955-.179,2.96,1.687a6.462,6.462,0,0,1-2.941,5.1c-1.624.937-2.944.185-2.95-1.693a6.482,6.482,0,0,1,2.931-5.089" fill="#1b1f2d"/>
            </g>
            <g id="Grupo_128862" data-name="Grupo 128862">
              <path id="Trazado_189286" data-name="Trazado 189286" d="M203.024,213.535c1.542-.89,2.788-.169,2.793,1.592a6.1,6.1,0,0,1-2.775,4.806c-1.533.884-2.778.175-2.783-1.6a6.111,6.111,0,0,1,2.765-4.8" fill="#31394c"/>
            </g>
            <g id="Grupo_128863" data-name="Grupo 128863">
              <path id="Trazado_189287" data-name="Trazado 189287" d="M203.026,213.986c1.258-.765,2.274-.145,2.278,1.367a5.3,5.3,0,0,1-2.263,4.128c-1.25.76-2.266.151-2.27-1.372a5.312,5.312,0,0,1,2.255-4.123" fill="none" stroke="#546fbf" stroke-miterlimit="10" stroke-width="0.2"/>
            </g>
          </g>
          <path id="Trazado_189288" data-name="Trazado 189288" d="M187.14,251.529l-.476,5.043q5.978-2.458,11.934-4.967a54.089,54.089,0,0,0,5.34-2.494,15.508,15.508,0,0,0,2.7-1.686,4.3,4.3,0,0,0,1.425-3.063c.081-.607.442-1.53,1.223-1.4.5.086.66.795,1.08.743a3.424,3.424,0,0,0,1.373-.736,5.948,5.948,0,0,1,1.387-.829,3.269,3.269,0,0,1,1.69-.232.673.673,0,0,1,.366.165.294.294,0,0,1,.044.371,2.684,2.684,0,0,1,1.3-.061,1.039,1.039,0,0,1,.554.26.48.48,0,0,1,.094.569,2.377,2.377,0,0,1,.924-.014.989.989,0,0,1,.708.548,1.53,1.53,0,0,1-.274,1.263.834.834,0,0,1,.54-.064.568.568,0,0,1,.356.451,1.083,1.083,0,0,1-.092.589,2.064,2.064,0,0,1-.417.639,4.116,4.116,0,0,1-.6.486c-.911.641-1.773,1.3-2.713,1.9l-3.829,2.427c-2.687,1.7-5.532,3.285-8.1,5.157-2.527,1.84-5.182,3.564-7.846,5.208a78.251,78.251,0,0,1-11.695,6.41,5.1,5.1,0,0,1-1.787.5c-4.782,0-6.521-4.694-5.914-14.96Z" fill="#f2c599"/>
          <path id="Trazado_189289" data-name="Trazado 189289" d="M187.868,255.5s-4.234,2.492-12.485,2.619c0,0,.182-20.109,5.3-24.67S188.5,241.41,187.868,255.5Z" fill="#cc8f09"/>
          <path id="Trazado_189290" data-name="Trazado 189290" d="M238.012,281.288c-6.276-1.343-28.191,4.5-28.191,4.5l-31.233-3.537s-2.65,13.026.125,18.244,10.457,8.245,17.9,10.561C209.574,315.087,232.4,296.5,232.4,296.5c-.022.1-.038.2-.058.3h0l2.928,1.691c4.138,2.389,4.323,6.232.412,8.738l-2.617,1.677h0a68.75,68.75,0,0,1,1.1,20.726,1.508,1.508,0,0,0,.21.94,4.757,4.757,0,0,0,3.123,2.252,8.926,8.926,0,0,0,6.208-1.148,1.466,1.466,0,0,0,.7-1.161c.233-3.851,1.362-22.579,1.632-29.4C246.242,295.769,246.693,283.147,238.012,281.288Z" fill="#31394c"/>
          <path id="Trazado_189291" data-name="Trazado 189291" d="M178.588,282.252a65.87,65.87,0,0,0-1.119,9.652l15.27-8.049Z" fill="#31394c"/>
          <path id="Trazado_189292" data-name="Trazado 189292" d="M212.206,285.178l-3.092-1.785a17.144,17.144,0,0,0-15.094-.213l-1.281.675,17.082,1.934S210.726,285.548,212.206,285.178Z" fill="#084a93"/>
          <g id="Grupo_128865" data-name="Grupo 128865">
            <path id="Trazado_189293" data-name="Trazado 189293" d="M232.337,296.8h0l2.584,1.492v0c.068-.822.29-1.6.4-2.412.06-.435.18-.844-.152-1.2-.734-.79-2.224.069-2.965.362a86.332,86.332,0,0,0-10.032,4.791c-3.346,1.85-6.674,3.619-10.471,4.332a32.7,32.7,0,0,1-12.461.146c-3.949-.826-9.591-3.235-11.8-6.687-2.736-4.282-2.275-13.818-2.275-13.818-.076-.292-.164-.569-.262-.834l-6.319-.716s-2.65,13.026.125,18.244,10.457,8.245,17.9,10.561C209.574,315.087,232.4,296.5,232.4,296.5,232.373,296.6,232.357,296.7,232.337,296.8Z" fill="#252c3a"/>
            <path id="Trazado_189294" data-name="Trazado 189294" d="M237.367,318.758c.046-4.064-.932-7.775-1.683-11.533l-.007.005-2.617,1.677h0a68.75,68.75,0,0,1,1.1,20.726,1.508,1.508,0,0,0,.21.94,4.757,4.757,0,0,0,3.123,2.252c.2.034.394.046.59.067a18.777,18.777,0,0,1-.246-1.919C237.559,327.074,237.323,322.649,237.367,318.758Z" fill="#252c3a"/>
          </g>
          <path id="Trazado_189295" data-name="Trazado 189295" d="M211.85,239.693s-5.023-6.346-9.72-8.563c0,0-3.317-.336-6.386-.563a9.608,9.608,0,0,1-4.683-1.728s-6.115,1.418-8.868,3.548c-2.887,2.234-5.645,13.15-4.518,21.994a124.5,124.5,0,0,1,0,24.564c-.854,6.315,5.178,12.178,13.1,12.74,10.39.738,21.962-1.783,21.586-6.945C211.54,273.508,211.85,239.693,211.85,239.693Z" fill="#ffb30b"/>
          <path id="Trazado_189296" data-name="Trazado 189296" d="M216.653,264.83l.206,5.158q5.978-2.457,11.935-4.966a53.959,53.959,0,0,0,5.339-2.495,15.37,15.37,0,0,0,2.7-1.685,4.3,4.3,0,0,0,1.425-3.063c.081-.608.442-1.531,1.224-1.4.5.085.66.8,1.08.743a3.443,3.443,0,0,0,1.373-.736,5.888,5.888,0,0,1,1.386-.829,3.272,3.272,0,0,1,1.691-.232.663.663,0,0,1,.365.165.291.291,0,0,1,.044.37,2.684,2.684,0,0,1,1.3-.061,1.048,1.048,0,0,1,.555.261.478.478,0,0,1,.093.568,2.4,2.4,0,0,1,.924-.014.99.99,0,0,1,.708.549,1.531,1.531,0,0,1-.274,1.263.834.834,0,0,1,.54-.065.567.567,0,0,1,.356.451,1.082,1.082,0,0,1-.092.589,2.023,2.023,0,0,1-.417.639,4.123,4.123,0,0,1-.605.487c-.911.641-1.773,1.3-2.713,1.9l-3.828,2.426c-2.688,1.7-5.532,3.286-8.1,5.157-2.526,1.841-5.182,3.564-7.846,5.208a78.249,78.249,0,0,1-11.7,6.41,5.081,5.081,0,0,1-1.787.5c-4.781,0-6.787-5.236-6.18-15.5Z" fill="#f2c599"/>
          <path id="Trazado_189297" data-name="Trazado 189297" d="M218.306,265.267a34.545,34.545,0,0,1-13.518,3.744s-1.229-23.073,3.632-28.55S218.155,249.3,218.306,265.267Z" fill="#cc8f09"/>
          <path id="Trazado_189298" data-name="Trazado 189298" d="M159.364,255.071a.7.7,0,0,0,.822-.06c.528,5.221,2.615,10.4,4.565,15.211,4.657,11.505,11.826,22.022,19.78,31.39,1.634,1.924,3.069,4.48,5.3,5.768a6.305,6.305,0,0,0,7.8-1.14,10.708,10.708,0,0,0,2.266-5.594,70.341,70.341,0,0,0,.406-16.238c-.426-4.956.212-10.217-1.579-14.967-1.506-3.995-4.658-7.24-8.084-9.673-3.588-2.548-7.634-4.317-11.557-6.265-3.508-1.743-7.055-4.208-11.015-4.732-2.513-.332-6.358-.414-8.426,1.35C158.139,251.4,157.449,253.9,159.364,255.071Z" fill="#063b76"/>
          <g id="Grupo_128866" data-name="Grupo 128866">
            <path id="Trazado_189299" data-name="Trazado 189299" d="M163.8,251.17l26.1,15.067a13.383,13.383,0,0,1,6.073,10.52l-.078,27.467c-.011,3.864-2.751,5.425-6.113,3.484l-26.1-15.067a13.394,13.394,0,0,1-6.074-10.52l.078-27.467c.011-3.873,2.751-5.425,6.113-3.484" fill="#084a93"/>
          </g>
          <path id="Trazado_189300" data-name="Trazado 189300" d="M171.978,316.61l7.476,4.294-.868-46.444a.751.751,0,0,0-.373-.635l-6.744-3.934a.752.752,0,0,0-1.13.649v43.24A3.262,3.262,0,0,0,171.978,316.61Z" fill="#dae4ef"/>
          <path id="Trazado_189301" data-name="Trazado 189301" d="M184.739,318.581l-5.271-3.043-.433,3.676,2.089,1.691Z" fill="#91aaf2"/>
          <path id="Trazado_189302" data-name="Trazado 189302" d="M184.739,318.581l-2.28,1.316c-1.642.949-2.981.185-2.987-1.7l-.08-43.914a1.221,1.221,0,0,0-.62-1.059l-6.529-3.688a.864.864,0,0,0-.824-.014l-.628.327a.882.882,0,0,1,.678.044l6.486,3.811a1.219,1.219,0,0,1,.6,1.049l.08,43.926c.007,2.416,1.725,3.392,3.825,2.18l3.109-1.795Z" fill="#a9c0d9"/>
          <g id="Grupo_128868" data-name="Grupo 128868">
            <path id="Trazado_189303" data-name="Trazado 189303" d="M217.55,319.466l-.66-.2-.847-18.494,2.824-.339Z" fill="#91aaf2"/>
            <path id="Trazado_189304" data-name="Trazado 189304" d="M217.55,319.466l-.1-19.218,5.433-2.628-1.163,19.441Z" fill="#a9c0d9"/>
            <path id="Trazado_189305" data-name="Trazado 189305" d="M230.282,295.469v-1.591l-.625.21-.82-1.811a.826.826,0,0,0-.354-.359,2.123,2.123,0,0,0-1.931,0l-13.1,7.614-4.872,1.636v1.55h0a.714.714,0,0,0,.4.533,1.778,1.778,0,0,0,.622.2l5.512.829c.448.259,4.207-1.5,8.4-3.938S230.73,295.728,230.282,295.469Z" fill="#a9c0d9"/>
            <g id="Grupo_128867" data-name="Grupo 128867">
              <path id="Trazado_189306" data-name="Trazado 189306" d="M228.483,290.326a2.129,2.129,0,0,0-1.931,0L208.975,300.54c-.562.327-.5.827.007,1.119a1.8,1.8,0,0,0,.622.2l5.512.828c.448.259,4.207-1.505,8.4-3.938s7.219-4.617,6.771-4.875l-1.445-3.192a.833.833,0,0,0-.354-.36" fill="#dae4ef"/>
            </g>
          </g>
          <path id="Trazado_189307" data-name="Trazado 189307" d="M189.388,229.281l1.84-2.634a23.7,23.7,0,0,0,11.221,1.931l1.338,3.461S193.612,233.167,189.388,229.281Z" fill="#cc8f09"/>
          <path id="Trazado_189308" data-name="Trazado 189308" d="M198.859,214.733s1.028-7.6-2.271-11.14-9.505-5.142-11.3-3.639a6.24,6.24,0,0,1,3.484-3.371s13-3.97,13.684,15.772Z" fill="#1b1f2d"/>
        </g>
      </g>
    </g>
  </g>
</svg>
