<svg xmlns="http://www.w3.org/2000/svg" xmlns:xlink="http://www.w3.org/1999/xlink" width="420" height="392" viewBox="0 0 420 392">
  <defs>
    <clipPath id="clip-path">
      <rect id="BG" width="420" height="392" rx="20" transform="translate(-3484.249 3527.749)" fill="none"/>
    </clipPath>
    <clipPath id="clip-path-2">
      <rect id="Rectangle_293649" data-name="Rectangle 293649" width="1023.51" height="392.989" rx="15.508" transform="translate(-3641.863 3527.843)" fill="none"/>
    </clipPath>
    <linearGradient id="linear-gradient" x1="6.421" y1="-5.907" x2="6.422" y2="-5.907" gradientUnits="objectBoundingBox">
      <stop offset="0" stop-color="#e5ebed" stop-opacity="0.004"/>
      <stop offset="0.039" stop-color="#dbe7ec" stop-opacity="0.067"/>
      <stop offset="0.237" stop-color="#acd9e8" stop-opacity="0.345"/>
      <stop offset="0.427" stop-color="#86cde4" stop-opacity="0.58"/>
      <stop offset="0.603" stop-color="#68c4e2" stop-opacity="0.761"/>
      <stop offset="0.762" stop-color="#52bde0" stop-opacity="0.894"/>
      <stop offset="0.9" stop-color="#45b9df" stop-opacity="0.973"/>
      <stop offset="1" stop-color="#41b8df"/>
    </linearGradient>
    <linearGradient id="linear-gradient-2" x1="41.715" y1="-120.846" x2="41.727" y2="-120.846" gradientUnits="objectBoundingBox">
      <stop offset="0.005" stop-color="#fff"/>
      <stop offset="0.126" stop-color="#fbfbfb" stop-opacity="0.82"/>
      <stop offset="0.306" stop-color="#f7f7f7" stop-opacity="0.573"/>
      <stop offset="0.479" stop-color="#f3f3f3" stop-opacity="0.369"/>
      <stop offset="0.639" stop-color="#f0f0f0" stop-opacity="0.208"/>
      <stop offset="0.784" stop-color="#eee" stop-opacity="0.094"/>
      <stop offset="0.909" stop-color="#ededed" stop-opacity="0.024"/>
      <stop offset="1" stop-color="#ededed" stop-opacity="0"/>
    </linearGradient>
    <linearGradient id="linear-gradient-3" x1="51.428" y1="-275.52" x2="51.443" y2="-275.52" xlink:href="#linear-gradient-2"/>
    <linearGradient id="linear-gradient-4" x1="15.335" y1="-18.154" x2="15.339" y2="-18.154" xlink:href="#linear-gradient-2"/>
    <linearGradient id="linear-gradient-5" x1="51.8" y1="-277.395" x2="51.814" y2="-277.395" xlink:href="#linear-gradient-2"/>
    <linearGradient id="linear-gradient-6" x1="33.325" y1="-26.95" x2="33.337" y2="-26.95" xlink:href="#linear-gradient-2"/>
    <linearGradient id="linear-gradient-7" x1="22.082" y1="-17.488" x2="22.082" y2="-17.481" xlink:href="#linear-gradient-2"/>
    <linearGradient id="linear-gradient-9" x1="73.261" y1="-29.813" x2="73.261" y2="-29.802" xlink:href="#linear-gradient-2"/>
    <linearGradient id="linear-gradient-10" x1="79.076" y1="-29.813" x2="79.076" y2="-29.802" xlink:href="#linear-gradient-2"/>
    <linearGradient id="linear-gradient-11" x1="8.072" y1="-11.039" x2="8.075" y2="-11.039" gradientUnits="objectBoundingBox">
      <stop offset="0.005" stop-color="#41b8df"/>
      <stop offset="0.048" stop-color="#4cbbdf" stop-opacity="0.933"/>
      <stop offset="0.244" stop-color="#7ccae3" stop-opacity="0.655"/>
      <stop offset="0.432" stop-color="#a4d6e7" stop-opacity="0.42"/>
      <stop offset="0.606" stop-color="#c3e0e9" stop-opacity="0.239"/>
      <stop offset="0.764" stop-color="#dae7eb" stop-opacity="0.106"/>
      <stop offset="0.901" stop-color="#e8ebec" stop-opacity="0.027"/>
      <stop offset="1" stop-color="#ededed" stop-opacity="0"/>
    </linearGradient>
    <linearGradient id="linear-gradient-12" x1="31.094" y1="-33.282" x2="31.107" y2="-33.282" xlink:href="#linear-gradient-2"/>
    <linearGradient id="linear-gradient-13" x1="20.661" y1="-21.621" x2="20.661" y2="-21.613" xlink:href="#linear-gradient-2"/>
    <linearGradient id="linear-gradient-14" x1="34.153" y1="-81.566" x2="34.153" y2="-81.516" xlink:href="#linear-gradient-2"/>
    <linearGradient id="linear-gradient-15" x1="34.153" y1="-75.938" x2="34.153" y2="-75.888" xlink:href="#linear-gradient-2"/>
    <linearGradient id="linear-gradient-16" x1="31.151" y1="-33.29" x2="31.151" y2="-33.277" gradientUnits="objectBoundingBox">
      <stop offset="0.005" stop-color="#fda000"/>
      <stop offset="0.122" stop-color="#faad29" stop-opacity="0.824"/>
      <stop offset="0.303" stop-color="#f6c064" stop-opacity="0.576"/>
      <stop offset="0.476" stop-color="#f2d095" stop-opacity="0.373"/>
      <stop offset="0.637" stop-color="#f0dcbb" stop-opacity="0.212"/>
      <stop offset="0.783" stop-color="#eee5d6" stop-opacity="0.094"/>
      <stop offset="0.909" stop-color="#edebe7" stop-opacity="0.024"/>
      <stop offset="1" stop-color="#ededed" stop-opacity="0"/>
    </linearGradient>
    <linearGradient id="linear-gradient-17" x1="28.273" y1="-26.362" x2="28.286" y2="-26.362" xlink:href="#linear-gradient-2"/>
    <linearGradient id="linear-gradient-18" x1="18.851" y1="-17.124" x2="18.851" y2="-17.117" xlink:href="#linear-gradient-2"/>
    <linearGradient id="linear-gradient-19" x1="67.613" y1="-29.235" x2="67.613" y2="-29.224" xlink:href="#linear-gradient-2"/>
    <linearGradient id="linear-gradient-20" x1="61.798" y1="-29.235" x2="61.798" y2="-29.224" xlink:href="#linear-gradient-2"/>
  </defs>
  <g id="_4" data-name="4" transform="translate(3484.249 -3527.749)">
    <g id="Group_129908" data-name="Group 129908">
      <g id="Group_129907" data-name="Group 129907" clip-path="url(#clip-path)">
        <rect id="BG-2" data-name="BG" width="420" height="392" transform="translate(-3484.249 3527.749)"/>
        <g id="Grupo_110347" data-name="Grupo 110347" opacity="0.35">
          <g id="Grupo_110328" data-name="Grupo 110328">
            <rect id="Rectángulo_40267" data-name="Rectángulo 40267" width="8.224" height="8.224" transform="translate(-3509.792 3590.995) rotate(-45)" fill="#fff"/>
            <rect id="Rectángulo_40268" data-name="Rectángulo 40268" width="8.224" height="8.224" transform="translate(-3400.462 3590.995) rotate(-45)" fill="#fff"/>
            <rect id="Rectángulo_40269" data-name="Rectángulo 40269" width="13.522" height="13.522" transform="translate(-3408.464 3819.153) rotate(-45)" fill="none" stroke="#fff" stroke-miterlimit="9.998" stroke-width="1"/>
            <rect id="Rectángulo_40270" data-name="Rectángulo 40270" width="13.524" height="13.524" transform="translate(-3591.156 3816.944) rotate(-45)" fill="#fff"/>
            <rect id="Rectángulo_40271" data-name="Rectángulo 40271" width="6.566" height="6.566" transform="translate(-3393.852 3831.17) rotate(-45)" fill="#fff"/>
            <rect id="Rectángulo_40272" data-name="Rectángulo 40272" width="4.386" height="4.386" transform="translate(-3576.555 3749.485) rotate(-45)" fill="#fff"/>
            <rect id="Rectángulo_40273" data-name="Rectángulo 40273" width="4.386" height="4.386" transform="translate(-3563.374 3749.485) rotate(-45)" fill="#fff"/>
            <rect id="Rectángulo_40274" data-name="Rectángulo 40274" width="4.386" height="4.386" transform="translate(-3382.153 3816.508) rotate(-45)" fill="#fff"/>
            <rect id="Rectángulo_40275" data-name="Rectángulo 40275" width="3.838" height="3.838" transform="translate(-3581.298 3659.614) rotate(-45)" fill="#fff"/>
            <rect id="Rectángulo_40276" data-name="Rectángulo 40276" width="3.838" height="3.838" transform="translate(-3581.298 3669.176) rotate(-45)" fill="#fff"/>
            <rect id="Rectángulo_40277" data-name="Rectángulo 40277" width="3.838" height="3.838" transform="translate(-3574.061 3664.524) rotate(-45)" fill="#fff"/>
            <rect id="Rectángulo_40278" data-name="Rectángulo 40278" width="3.838" height="3.838" transform="translate(-3477.693 3552.537) rotate(-45)" fill="#fff"/>
            <rect id="Rectángulo_40279" data-name="Rectángulo 40279" width="3.838" height="3.838" transform="translate(-3502.893 3800.661) rotate(-45)" fill="#fff"/>
            <rect id="Rectángulo_40280" data-name="Rectángulo 40280" width="3.838" height="3.838" transform="translate(-3553.164 3774.814) rotate(-45)" fill="#fff"/>
            <rect id="Rectángulo_40281" data-name="Rectángulo 40281" width="3.838" height="3.838" transform="translate(-3374.179 3570.371) rotate(-45)" fill="#fff"/>
          </g>
          <g id="Grupo_110329" data-name="Grupo 110329">
            <rect id="Rectángulo_40282" data-name="Rectángulo 40282" width="13.524" height="13.524" transform="translate(-2675.503 3882.976) rotate(-45)" fill="#fff"/>
            <rect id="Rectángulo_40283" data-name="Rectángulo 40283" width="13.524" height="13.524" transform="translate(-2746.494 3563.325) rotate(-45)" fill="#aad5f4"/>
            <rect id="Rectángulo_40284" data-name="Rectángulo 40284" width="13.524" height="13.524" transform="translate(-2674.509 3608.718) rotate(-45)" fill="#fff"/>
            <rect id="Rectángulo_40285" data-name="Rectángulo 40285" width="6.566" height="6.566" transform="translate(-2731.882 3551.307) rotate(-45)" fill="#fff"/>
            <rect id="Rectángulo_40286" data-name="Rectángulo 40286" width="4.386" height="4.386" transform="translate(-2700.482 3712.277) rotate(-45)" fill="none" stroke="#fff" stroke-miterlimit="10" stroke-width="1"/>
            <rect id="Rectángulo_40287" data-name="Rectángulo 40287" width="4.386" height="4.386" transform="translate(-2722.727 3712.277) rotate(-45)" fill="#fff"/>
            <rect id="Rectángulo_40288" data-name="Rectángulo 40288" width="4.386" height="4.386" transform="translate(-2720.183 3565.969) rotate(-45)" fill="#fff"/>
            <rect id="Rectángulo_40289" data-name="Rectángulo 40289" width="3.838" height="3.838" transform="translate(-2655.732 3873.412) rotate(-45)" fill="#fff"/>
            <rect id="Rectángulo_40290" data-name="Rectángulo 40290" width="3.838" height="3.838" transform="translate(-2695.978 3625.001) rotate(-45)" fill="#fff"/>
            <rect id="Rectángulo_40291" data-name="Rectángulo 40291" width="3.838" height="3.838" transform="translate(-2712.517 3686.947) rotate(-45)" fill="#fff"/>
          </g>
          <g id="Grupo_110346" data-name="Grupo 110346">
            <g id="Group_129903" data-name="Group 129903">
              <g id="Group_129902" data-name="Group 129902" clip-path="url(#clip-path-2)">
                <g id="Grupo_110345" data-name="Grupo 110345">
                  <g id="Grupo_110331" data-name="Grupo 110331">
                    <path id="Trazado_115418" data-name="Trazado 115418" d="M-3949.586,4288.028l527.262-527.263h-75.987l-527.263,527.263Z" opacity="0.51" fill="url(#linear-gradient)" style="isolation: isolate"/>
                    <g id="Grupo_110330" data-name="Grupo 110330">
                      <path id="Trazado_115419" data-name="Trazado 115419" d="M-3454.768,3872.289l27.139-27.138h-52.726l-27.139,27.138Z" opacity="0.51" fill="url(#linear-gradient-2)" style="isolation: isolate"/>
                      <path id="Trazado_115420" data-name="Trazado 115420" d="M-3519.125,3883.92l-12.406,12.406h52.726l12.407-12.406Z" opacity="0.51" fill="url(#linear-gradient-3)" style="isolation: isolate"/>
                      <path id="Trazado_115421" data-name="Trazado 115421" d="M-3567.2,3931.994l-181.44,181.441h52.726l181.44-181.441Z" opacity="0.51" fill="url(#linear-gradient-4)" style="isolation: isolate"/>
                      <path id="Trazado_115422" data-name="Trazado 115422" d="M-3502.842,3920.363l12.407-12.406h-52.727l-12.406,12.406Z" opacity="0.51" fill="url(#linear-gradient-5)" style="isolation: isolate"/>
                    </g>
                  </g>
                  <g id="Grupo_110335" data-name="Grupo 110335" opacity="0.67">
                    <rect id="Rectángulo_40292" data-name="Rectángulo 40292" width="105.27" height="105.27" rx="13.685" transform="translate(-3709.849 3537.853) rotate(-45)" fill="url(#linear-gradient-6)"/>
                    <rect id="Rectángulo_40293" data-name="Rectángulo 40293" width="160.639" height="160.639" rx="11.464" transform="translate(-3749.001 3537.853) rotate(-45)" fill="url(#linear-gradient-7)"/>
                    <rect id="Rectángulo_40294" data-name="Rectángulo 40294" width="160.639" height="160.639" rx="11.464" transform="translate(-3749.001 3537.853) rotate(-45)" opacity="0.34" fill="url(#linear-gradient-7)" style="isolation: isolate"/>
                    <rect id="Rectángulo_40295" data-name="Rectángulo 40295" width="265.903" height="265.903" rx="18.976" transform="translate(-3823.434 3537.853) rotate(-45)" fill="none" stroke="#707070" stroke-miterlimit="10" stroke-width="1"/>
                    <rect id="Rectángulo_40296" data-name="Rectángulo 40296" width="346.496" height="346.496" rx="24.727" transform="translate(-3880.422 3537.853) rotate(-45)" fill="none" stroke="#fff" stroke-linecap="round" stroke-linejoin="round" stroke-width="3" stroke-dasharray="0 5"/>
                    <line id="Línea_155" data-name="Línea 155" x1="210.041" y2="210.041" transform="translate(-3617.927 3555.338)" fill="none" stroke="#fff" stroke-linecap="round" stroke-linejoin="round" stroke-width="3" stroke-dasharray="0 5"/>
                    <path id="Trazado_115423" data-name="Trazado 115423" d="M-3773.3,3527.257l127.288-127.287a14.985,14.985,0,0,1,21.192,0h0l127.287,127.287a14.985,14.985,0,0,1,0,21.192l-127.287,127.287a14.986,14.986,0,0,1-21.192,0h0L-3773.3,3548.449A14.987,14.987,0,0,1-3773.3,3527.257Z" fill="none" stroke="#707070" stroke-miterlimit="10" stroke-width="1"/>
                    <g id="Grupo_110334" data-name="Grupo 110334">
                      <g id="Grupo_110332" data-name="Grupo 110332">
                        <path id="Trazado_115424" data-name="Trazado 115424" d="M-3482.7,3533.427l-43.628-43.628v24.766c28.349,29.481,28.215,17.163,0,46.576v24.767l43.628-43.628A6.261,6.261,0,0,0-3482.7,3533.427Z" fill="url(#linear-gradient-9)"/>
                        <path id="Trazado_115425" data-name="Trazado 115425" d="M-3482.7,3533.427l-43.628-43.628v24.766c28.349,29.481,28.215,17.163,0,46.576v24.767l43.628-43.628A6.261,6.261,0,0,0-3482.7,3533.427Z" fill="none" stroke="#fff" stroke-miterlimit="10" stroke-width="1"/>
                      </g>
                      <g id="Grupo_110333" data-name="Grupo 110333">
                        <path id="Trazado_115426" data-name="Trazado 115426" d="M-3786.575,3533.427l43.629-43.628v24.766c-28.35,29.481-28.216,17.163,0,46.576v24.767l-43.629-43.628a6.261,6.261,0,0,1,0-8.853Z" fill="url(#linear-gradient-10)"/>
                        <path id="Trazado_115427" data-name="Trazado 115427" d="M-3786.575,3533.427l43.629-43.628v24.766c-28.35,29.481-28.216,17.163,0,46.576v24.767l-43.629-43.628a6.261,6.261,0,0,1,0-8.853Z" fill="none" stroke="#fff" stroke-miterlimit="10" stroke-width="1"/>
                      </g>
                    </g>
                    <line id="Línea_156" data-name="Línea 156" x1="97.377" y2="97.377" transform="translate(-3627.306 3545.959)" fill="none" stroke="#707070" stroke-linecap="round" stroke-miterlimit="10" stroke-width="2"/>
                    <line id="Línea_157" data-name="Línea 157" x1="97.377" y2="97.377" transform="translate(-3740.771 3432.494)" fill="none" stroke="#707070" stroke-linecap="round" stroke-miterlimit="10" stroke-width="2"/>
                    <rect id="Rectángulo_40297" data-name="Rectángulo 40297" width="105.27" height="105.27" rx="13.685" transform="translate(-3709.849 3537.853) rotate(-45)" fill="none" stroke="#fda000" stroke-miterlimit="10" stroke-width="2"/>
                  </g>
                  <g id="Grupo_110336" data-name="Grupo 110336">
                    <path id="Trazado_115428" data-name="Trazado 115428" d="M-2479.492,3603.274l-268.284,268.284h52.726l268.284-268.284Z" opacity="0.51" fill="url(#linear-gradient-11)" style="isolation: isolate"/>
                    <path id="Trazado_115429" data-name="Trazado 115429" d="M-2784.286,3948.78l119.88-119.88h36.444l38.379-38.38h-52.726l-158.259,158.26Z" fill="none" stroke="#fda000" stroke-miterlimit="10" stroke-width="2"/>
                  </g>
                  <g id="Grupo_110340" data-name="Grupo 110340" opacity="0.69">
                    <rect id="Rectángulo_40298" data-name="Rectángulo 40298" width="98.194" height="98.194" rx="13.685" transform="translate(-3260.343 3967.783) rotate(-45)" fill="url(#linear-gradient-12)"/>
                    <rect id="Rectángulo_40299" data-name="Rectángulo 40299" width="149.841" height="149.841" rx="11.464" transform="translate(-3296.862 3967.783) rotate(-45)" fill="url(#linear-gradient-13)"/>
                    <rect id="Rectángulo_40300" data-name="Rectángulo 40300" width="248.03" height="248.03" rx="18.976" transform="translate(-3366.292 3967.783) rotate(-45)" fill="none" stroke="#fda000" stroke-miterlimit="10" stroke-width="2"/>
                    <rect id="Rectángulo_40301" data-name="Rectángulo 40301" width="323.206" height="323.206" rx="24.727" transform="translate(-3419.45 3967.783) rotate(-45)" fill="none" stroke="#fff" stroke-linecap="round" stroke-linejoin="round" stroke-width="1" stroke-dasharray="0 5"/>
                    <line id="Línea_158" data-name="Línea 158" x2="195.922" y2="195.922" transform="translate(-3174.599 3755.552)" fill="none" stroke="#fff" stroke-linecap="round" stroke-linejoin="round" stroke-width="3" stroke-dasharray="0 5"/>
                    <path id="Trazado_115430" data-name="Trazado 115430" d="M-3181.024,3839.168l118.73,118.732a13.976,13.976,0,0,1,0,19.766l0,0-118.73,118.731a13.98,13.98,0,0,1-19.768,0l-118.735-118.732a13.978,13.978,0,0,1,0-19.767l118.735-118.732a13.978,13.978,0,0,1,19.767,0Z" fill="none" stroke="#707070" stroke-miterlimit="10" stroke-width="1"/>
                    <g id="Grupo_110339" data-name="Grupo 110339">
                      <g id="Grupo_110337" data-name="Grupo 110337">
                        <path id="Trazado_115431" data-name="Trazado 115431" d="M-3186.78,4110.232l40.7-40.7h-23.1c-27.5,26.444-16.009,26.319-43.445,0h-23.1l40.7,40.7a5.837,5.837,0,0,0,8.256,0Z" fill="url(#linear-gradient-14)"/>
                        <path id="Trazado_115432" data-name="Trazado 115432" d="M-3186.78,4110.232l40.7-40.7h-23.1c-27.5,26.444-16.009,26.319-43.445,0h-23.1l40.7,40.7a5.837,5.837,0,0,0,8.256,0Z" fill="none" stroke="#fff" stroke-miterlimit="10" stroke-width="1"/>
                      </g>
                      <g id="Grupo_110338" data-name="Grupo 110338">
                        <path id="Trazado_115433" data-name="Trazado 115433" d="M-3186.78,3826.781l40.7,40.7h-23.1c-27.5-26.443-16.009-26.319-43.445,0h-23.1l40.7-40.7a5.838,5.838,0,0,1,8.256,0Z" fill="url(#linear-gradient-15)"/>
                        <path id="Trazado_115434" data-name="Trazado 115434" d="M-3186.78,3826.781l40.7,40.7h-23.1c-27.5-26.443-16.009-26.319-43.445,0h-23.1l40.7-40.7a5.838,5.838,0,0,1,8.256,0Z" fill="none" stroke="#fff" stroke-miterlimit="10" stroke-width="1"/>
                      </g>
                    </g>
                    <line id="Línea_159" data-name="Línea 159" x1="90.831" y1="90.831" transform="translate(-3289.301 3975.344)" fill="none" stroke="#707070" stroke-linecap="round" stroke-miterlimit="10" stroke-width="2"/>
                    <line id="Línea_160" data-name="Línea 160" x1="90.831" y1="90.831" transform="translate(-3183.462 3869.506)" fill="none" stroke="#707070" stroke-linecap="round" stroke-miterlimit="10" stroke-width="2"/>
                    <rect id="Rectángulo_40302" data-name="Rectángulo 40302" width="98.194" height="98.194" rx="13.685" transform="translate(-3260.343 3967.783) rotate(-45)" stroke="#fda000" stroke-miterlimit="10" stroke-width="1" fill="url(#linear-gradient-16)"/>
                  </g>
                  <g id="Grupo_110344" data-name="Grupo 110344" opacity="0.52">
                    <rect id="Rectángulo_40303" data-name="Rectángulo 40303" width="105.27" height="105.27" rx="13.685" transform="translate(-3191.742 3477.226) rotate(-45)" fill="url(#linear-gradient-17)"/>
                    <rect id="Rectángulo_40304" data-name="Rectángulo 40304" width="160.639" height="160.639" rx="11.464" transform="translate(-3230.893 3477.226) rotate(-45)" fill="url(#linear-gradient-18)"/>
                    <rect id="Rectángulo_40305" data-name="Rectángulo 40305" width="265.903" height="265.903" rx="18.976" transform="translate(-3305.326 3477.225) rotate(-45)" fill="none" stroke="#fda000" stroke-miterlimit="10" stroke-width="1"/>
                    <path id="Trazado_115435" data-name="Trazado 115435" d="M-2979.421,3487.822l-127.287,127.287a14.985,14.985,0,0,1-21.192,0l-127.29-127.287a14.985,14.985,0,0,1,0-21.192l127.288-127.288a14.987,14.987,0,0,1,21.192,0l127.287,127.288A14.986,14.986,0,0,1-2979.421,3487.822Z" fill="none" stroke="#707070" stroke-miterlimit="10" stroke-width="1"/>
                    <g id="Grupo_110343" data-name="Grupo 110343">
                      <g id="Grupo_110341" data-name="Grupo 110341">
                        <path id="Trazado_115436" data-name="Trazado 115436" d="M-3270.017,3481.652l43.628,43.629v-24.767c-28.35-29.48-28.216-17.163,0-46.575v-24.768l-43.628,43.629A6.259,6.259,0,0,0-3270.017,3481.652Z" fill="url(#linear-gradient-19)"/>
                        <path id="Trazado_115437" data-name="Trazado 115437" d="M-3270.017,3481.652l43.628,43.629v-24.767c-28.35-29.48-28.216-17.163,0-46.575v-24.768l-43.628,43.629A6.259,6.259,0,0,0-3270.017,3481.652Z" fill="none" stroke="#fff" stroke-miterlimit="10" stroke-width="1"/>
                      </g>
                      <g id="Grupo_110342" data-name="Grupo 110342">
                        <path id="Trazado_115438" data-name="Trazado 115438" d="M-2966.142,3481.652l-43.628,43.629v-24.767c28.349-29.48,28.216-17.163,0-46.575v-24.768l43.628,43.629A6.26,6.26,0,0,1-2966.142,3481.652Z" fill="url(#linear-gradient-20)"/>
                        <path id="Trazado_115439" data-name="Trazado 115439" d="M-2966.142,3481.652l-43.628,43.629v-24.767c28.349-29.48,28.216-17.163,0-46.575v-24.768l43.628,43.629A6.26,6.26,0,0,1-2966.142,3481.652Z" fill="none" stroke="#fff" stroke-miterlimit="10" stroke-width="1"/>
                      </g>
                    </g>
                    <line id="Línea_161" data-name="Línea 161" y1="97.377" x2="97.377" transform="translate(-3222.786 3371.743)" fill="none" stroke="#707070" stroke-linecap="round" stroke-miterlimit="10" stroke-width="2"/>
                    <line id="Línea_162" data-name="Línea 162" y1="97.377" x2="97.377" transform="translate(-3109.322 3485.208)" fill="none" stroke="#707070" stroke-linecap="round" stroke-miterlimit="10" stroke-width="2"/>
                    <rect id="Rectángulo_40306" data-name="Rectángulo 40306" width="105.27" height="105.27" rx="13.685" transform="translate(-3191.742 3477.226) rotate(-45)" fill="none" stroke="#fff" stroke-miterlimit="10" stroke-width="1"/>
                  </g>
                </g>
              </g>
            </g>
          </g>
        </g>
        <path id="Path_192491" data-name="Path 192491" d="M-96.013-8.628h-5.01V0h-2.827V-21.328h7.061a8.357,8.357,0,0,1,5.544,1.641A5.9,5.9,0,0,1-89.3-14.912a5.742,5.742,0,0,1-1.077,3.472,6.427,6.427,0,0,1-3,2.212l5.01,9.053V0h-3.018Zm-5.01-2.3H-96.7a4.874,4.874,0,0,0,3.333-1.086,3.672,3.672,0,0,0,1.238-2.906,3.867,3.867,0,0,0-1.179-3.038,4.993,4.993,0,0,0-3.406-1.071h-4.307ZM-79.211.293a6.925,6.925,0,0,1-5.244-2.117,7.856,7.856,0,0,1-2.021-5.662v-.5a9.511,9.511,0,0,1,.9-4.211,7.028,7.028,0,0,1,2.52-2.9,6.335,6.335,0,0,1,3.508-1.047,5.936,5.936,0,0,1,4.8,2.036,8.816,8.816,0,0,1,1.714,5.83v1.128H-83.767A5.634,5.634,0,0,0-82.4-3.362a4.305,4.305,0,0,0,3.333,1.443A4.72,4.72,0,0,0-76.633-2.5,6.11,6.11,0,0,0-74.89-4.058l1.655,1.289A6.656,6.656,0,0,1-79.211.293Zm-.337-14.209A3.615,3.615,0,0,0-82.3-12.722a5.8,5.8,0,0,0-1.377,3.347h7.939V-9.58a5.162,5.162,0,0,0-1.113-3.2A3.4,3.4,0,0,0-79.548-13.916Zm23.042,6.167a9.49,9.49,0,0,1-1.655,5.83A5.305,5.305,0,0,1-62.644.293a5.813,5.813,0,0,1-4.541-1.831V6.094H-69.9V-15.85h2.476l.132,1.758a5.583,5.583,0,0,1,4.6-2.051,5.4,5.4,0,0,1,4.519,2.153A9.594,9.594,0,0,1-56.506-8Zm-2.71-.308a7,7,0,0,0-1.143-4.233,3.681,3.681,0,0,0-3.135-1.553,3.984,3.984,0,0,0-3.691,2.183v7.573a3.991,3.991,0,0,0,3.721,2.168,3.663,3.663,0,0,0,3.1-1.545A7.644,7.644,0,0,0-59.216-8.057Zm5.435-.015a9.362,9.362,0,0,1,.916-4.189,6.83,6.83,0,0,1,2.549-2.871,6.938,6.938,0,0,1,3.728-1.011A6.684,6.684,0,0,1-41.353-13.9a8.623,8.623,0,0,1,2,5.962v.19A9.443,9.443,0,0,1-40.239-3.6,6.729,6.729,0,0,1-42.773-.732,7.018,7.018,0,0,1-46.56.293a6.667,6.667,0,0,1-5.222-2.241,8.579,8.579,0,0,1-2-5.933Zm2.725.322a6.781,6.781,0,0,0,1.223,4.233,3.914,3.914,0,0,0,3.274,1.6,3.891,3.891,0,0,0,3.281-1.619,7.415,7.415,0,0,0,1.216-4.534A6.769,6.769,0,0,0-43.3-12.3a3.935,3.935,0,0,0-3.289-1.619,3.891,3.891,0,0,0-3.237,1.6A7.36,7.36,0,0,0-51.057-7.749ZM-26.726-4.2a2,2,0,0,0-.828-1.707,7.966,7.966,0,0,0-2.886-1.047,13.644,13.644,0,0,1-3.267-1.055,4.647,4.647,0,0,1-1.787-1.465,3.5,3.5,0,0,1-.579-2.021,4.111,4.111,0,0,1,1.648-3.3,6.436,6.436,0,0,1,4.211-1.348,6.623,6.623,0,0,1,4.373,1.392,4.42,4.42,0,0,1,1.677,3.56h-2.725a2.446,2.446,0,0,0-.945-1.919,3.54,3.54,0,0,0-2.38-.806,3.7,3.7,0,0,0-2.314.645,2.029,2.029,0,0,0-.835,1.685,1.644,1.644,0,0,0,.776,1.479,9.552,9.552,0,0,0,2.805.952,14.616,14.616,0,0,1,3.289,1.084,4.8,4.8,0,0,1,1.868,1.516,3.728,3.728,0,0,1,.608,2.161,4.056,4.056,0,0,1-1.7,3.406A7.128,7.128,0,0,1-30.125.293a7.981,7.981,0,0,1-3.369-.674,5.48,5.48,0,0,1-2.292-1.882,4.537,4.537,0,0,1-.828-2.615h2.71a2.806,2.806,0,0,0,1.091,2.161,4.234,4.234,0,0,0,2.688.8,4.37,4.37,0,0,0,2.468-.623A1.913,1.913,0,0,0-26.726-4.2ZM-17.542,0h-2.71V-15.85h2.71Zm-2.93-20.054a1.618,1.618,0,0,1,.4-1.113,1.512,1.512,0,0,1,1.194-.454,1.536,1.536,0,0,1,1.2.454,1.6,1.6,0,0,1,.41,1.113,1.548,1.548,0,0,1-.41,1.1,1.564,1.564,0,0,1-1.2.439,1.54,1.54,0,0,1-1.194-.439A1.564,1.564,0,0,1-20.471-20.054Zm10.942.366v3.838H-6.57v2.095H-9.529v9.841a2.2,2.2,0,0,0,.4,1.43,1.665,1.665,0,0,0,1.348.477A6.561,6.561,0,0,0-6.5-2.183V0a7.9,7.9,0,0,1-2.08.291,3.375,3.375,0,0,1-2.739-1.1,4.72,4.72,0,0,1-.923-3.12v-9.829h-2.886V-15.85h2.886v-3.838ZM-4.417-8.071A9.362,9.362,0,0,1-3.5-12.261,6.83,6.83,0,0,1-.952-15.132a6.938,6.938,0,0,1,3.728-1.011A6.684,6.684,0,0,1,8.013-13.9a8.623,8.623,0,0,1,2,5.962v.19A9.443,9.443,0,0,1,9.126-3.6,6.729,6.729,0,0,1,6.592-.732,7.018,7.018,0,0,1,2.805.293,6.667,6.667,0,0,1-2.417-1.948a8.579,8.579,0,0,1-2-5.933Zm2.725.322A6.781,6.781,0,0,0-.469-3.516a3.914,3.914,0,0,0,3.274,1.6A3.891,3.891,0,0,0,6.086-3.538,7.415,7.415,0,0,0,7.3-8.071,6.769,6.769,0,0,0,6.064-12.3a3.935,3.935,0,0,0-3.289-1.619,3.891,3.891,0,0,0-3.237,1.6A7.36,7.36,0,0,0-1.692-7.749Zm22.764-5.669a8.121,8.121,0,0,0-1.333-.1,3.571,3.571,0,0,0-3.618,2.271V0h-2.71V-15.85h2.637l.044,1.831a4.22,4.22,0,0,1,3.779-2.124,2.769,2.769,0,0,1,1.2.205ZM26.506,0H23.8V-15.85h2.71Zm-2.93-20.054a1.618,1.618,0,0,1,.4-1.113,1.512,1.512,0,0,1,1.194-.454,1.536,1.536,0,0,1,1.2.454,1.6,1.6,0,0,1,.41,1.113,1.548,1.548,0,0,1-.41,1.1,1.564,1.564,0,0,1-1.2.439,1.54,1.54,0,0,1-1.194-.439A1.564,1.564,0,0,1,23.577-20.054ZM30.125-8.071a9.362,9.362,0,0,1,.916-4.189,6.83,6.83,0,0,1,2.549-2.871,6.938,6.938,0,0,1,3.728-1.011A6.684,6.684,0,0,1,42.554-13.9a8.623,8.623,0,0,1,2,5.962v.19A9.443,9.443,0,0,1,43.667-3.6,6.729,6.729,0,0,1,41.133-.732,7.018,7.018,0,0,1,37.346.293a6.667,6.667,0,0,1-5.222-2.241,8.579,8.579,0,0,1-2-5.933Zm2.725.322a6.781,6.781,0,0,0,1.223,4.233,3.914,3.914,0,0,0,3.274,1.6,3.891,3.891,0,0,0,3.281-1.619,7.415,7.415,0,0,0,1.216-4.534A6.769,6.769,0,0,0,40.605-12.3a3.935,3.935,0,0,0-3.289-1.619,3.891,3.891,0,0,0-3.237,1.6A7.36,7.36,0,0,0,32.849-7.749ZM57.18-4.2a2,2,0,0,0-.828-1.707,7.966,7.966,0,0,0-2.886-1.047A13.644,13.644,0,0,1,50.2-8.013a4.647,4.647,0,0,1-1.787-1.465,3.5,3.5,0,0,1-.579-2.021,4.111,4.111,0,0,1,1.648-3.3,6.436,6.436,0,0,1,4.211-1.348,6.623,6.623,0,0,1,4.373,1.392,4.42,4.42,0,0,1,1.677,3.56H57.019a2.446,2.446,0,0,0-.945-1.919,3.54,3.54,0,0,0-2.38-.806,3.7,3.7,0,0,0-2.314.645,2.029,2.029,0,0,0-.835,1.685,1.644,1.644,0,0,0,.776,1.479,9.552,9.552,0,0,0,2.805.952,14.616,14.616,0,0,1,3.289,1.084,4.8,4.8,0,0,1,1.868,1.516,3.728,3.728,0,0,1,.608,2.161,4.056,4.056,0,0,1-1.7,3.406A7.128,7.128,0,0,1,53.782.293a7.981,7.981,0,0,1-3.369-.674A5.48,5.48,0,0,1,48.12-2.263a4.537,4.537,0,0,1-.828-2.615H50a2.806,2.806,0,0,0,1.091,2.161,4.234,4.234,0,0,0,2.688.8,4.37,4.37,0,0,0,2.468-.623A1.913,1.913,0,0,0,57.18-4.2ZM87.019-2.8A6.5,6.5,0,0,1,83.994-.476a12.218,12.218,0,0,1-4.519.769A8.764,8.764,0,0,1,74.846-.93a8.149,8.149,0,0,1-3.127-3.479,12.016,12.016,0,0,1-1.135-5.229V-11.5q0-4.819,2.249-7.471a7.835,7.835,0,0,1,6.321-2.651,8.093,8.093,0,0,1,5.376,1.707,7.434,7.434,0,0,1,2.49,4.841H84.207q-.791-4.248-5.039-4.248a4.979,4.979,0,0,0-4.285,1.987,9.7,9.7,0,0,0-1.472,5.754v1.745a9.09,9.09,0,0,0,1.641,5.71A5.318,5.318,0,0,0,79.49-2.007a9.8,9.8,0,0,0,2.769-.351,4.281,4.281,0,0,0,1.963-1.184V-8.32H79.285v-2.3h7.734ZM94.226,0h-2.71V-15.85h2.71ZM91.3-20.054a1.618,1.618,0,0,1,.4-1.113,1.512,1.512,0,0,1,1.194-.454,1.536,1.536,0,0,1,1.2.454,1.6,1.6,0,0,1,.41,1.113,1.548,1.548,0,0,1-.41,1.1,1.564,1.564,0,0,1-1.2.439,1.54,1.54,0,0,1-1.194-.439A1.564,1.564,0,0,1,91.3-20.054Zm10.942.366v3.838H105.2v2.095h-2.959v9.841a2.2,2.2,0,0,0,.4,1.43,1.665,1.665,0,0,0,1.348.477,6.561,6.561,0,0,0,1.289-.176V0a7.9,7.9,0,0,1-2.08.291,3.375,3.375,0,0,1-2.739-1.1,4.72,4.72,0,0,1-.923-3.12v-9.829H96.643V-15.85h2.886v-3.838Z" transform="translate(-3274.249 3580.351)" fill="#fff"/>
        <g id="Group_129904" data-name="Group 129904">
          <path id="Path_191745" data-name="Path 191745" d="M-3064.243,3920.938h-135.424c5.35-20.068,10.541-39.538,15.96-59.867l-7.97,5.117a72.191,72.191,0,0,1,15.84-30.82c4.4-5.062,8.853-10.072,5.707-17.625-3.909-9.383-9.607-16-21.04-14.425-4.064.559-8.156,1-12.251,1.236-9.888.57-16.269-6.683-12.5-15.76,2.894-6.964-3.142-11.181-2.753-17.047.158-2.385-1.387-4.922-1.081-7.249.563-4.275.145-7.3-4.966-7.636-5.838-.379-6.36-4.129-4.276-8.137,3.664-7.047,8.169-13.655,11.92-20.662,1.239-2.313,2.372-5.674,1.617-7.9-4.223-12.455-2.612-24.208,2.639-35.906.842-1.878,1.092-4.885.16-6.559-6.678-11.991-3.536-21.166,9.8-25.945a108.064,108.064,0,0,1,39.819-5.973c15.926.417,31.335,1.654,46.4,7.624,31.494,12.48,38.581,46.029,27.969,71.731-7.14,17.292-15.1,34.334-13.948,53.747.346,5.807,1.227,10.686,6.486,15.273,5.627,4.909,11.534,12.13,12.62,19.077,2.453,15.69,10.011,29.784,12.115,45.425,2.156,16.033,4.9,31.987,7.061,48.019C-3063.719,3911.28-3064.243,3916.037-3064.243,3920.938Z" fill="#084a93" opacity="0.15"/>
          <path id="Path_191746" data-name="Path 191746" d="M-3464.961,3655.327c28.366-23.706,74.025-17.953,96.251-.458,18.262,14.374,27.729,33.631,22,57.924-2.516,10.674,1.236,19.295,9.4,26.12,5.26,4.4,5.434,8.311-.634,11.935-4.53,2.706-6.642,4.513-2.631,9.769,1.135,1.487-2.055,6.275-4.178,9.27,1.161,3.215,2.532,6.343-2.349,9.306-1.463.888-1.638,4.448-1.8,6.825-.556,8.029-4.633,12.452-12.613,11.942-6.091-.389-12.153-1.791-18.137-3.144-8.214-1.856-12.875-.455-15.138,7.213-4.044,13.7-7.6,27.38.734,41.452,4.318,7.288,8.633,16.43,8.025,24.357-.963,12.565,8.135,17.783,13.34,25.991,4.793,7.557,9.019,15.473,13.494,23.231l-1.638,2.117h-7.735q-62.718-.021-125.436-.043c-9.675,0-9.974-.232-8.728-10.171,3.415-27.216,12.407-52.7,23.894-77.461,4.734-10.2,8.645-20.793,12.94-31.23l7.19.748c2.629-15.953.484-31.1-5.285-45.761a102.962,102.962,0,0,0-8.247-17.276c-11.288-17.906-13.4-36.913-8.407-57.173a7.337,7.337,0,0,0-2.214-6.133c-1.009-.824-5.074-.016-5.682,1.152-2.537,4.87-5.684,10.049-6.072,15.3-1.5,20.259-1.318,40.655-3.169,60.871a164.946,164.946,0,0,1-7.617,36.685c-6.993,21.046-21.964,21.767-39.1,15.708-8.488-3-13.193-14.1-11.67-25.049,1.979,1.471,3.71,2.857,5.537,4.1,7.366,5.012,12.646,3.467,15.026-5.019a60.023,60.023,0,0,0,2.1-15.506c.2-22.146-.411-44.31.254-66.438a81.857,81.857,0,0,1,5.05-24.632c6.435-17.986,20.3-25.205,38.988-21.76,5.877,1.083,11.9,1.382,17.79,2.387C-3469.322,3652.84-3467.385,3654.225-3464.961,3655.327Z" fill="#084a93" opacity="0.15"/>
        </g>
        <g id="Group_129905" data-name="Group 129905">
          <path id="Path_191747" data-name="Path 191747" d="M-3526.515,3635.15l5.492-1.78-1.113-1.018-19.553,18.844,2.644,2.925,4.322-2.592c.052.41.269.879.121,1.146-1.8,3.241-3.493,6.554-5.518,9.65-4.442,6.792-1.717,13.477-.39,20.4,1.009,5.269.563,10.8.984,16.2a54.329,54.329,0,0,0,2.55,13.52c.129-1.6.259-3.208.4-4.954.647.256,1.279.33,1.338.555,3.712,14.025,7.856,27.962,10.815,42.145,1.228,5.888.542,12.406-.43,18.452-.878,5.463-2.364,10.184-8.038,14.45-6.519,4.9-13.362,13.6-14.03,21.188-1.487,16.884-10.221,31.424-12.268,47.9-2.075,16.689-5.285,33.236-7.491,49.912-.8,6.032-.128,12.258-.128,18.842h146.473l-16.244-61.477,4.171,1.221c.054-.766.343-1.532.112-2.078-2.893-6.818-6.3-13.454-8.67-20.445-1.847-5.458-3.92-11.542-3.208-17,1.063-8.159,3.873-16.286,7.26-23.834,1.069-2.383,6.418-4.079,9.718-3.942,5.083.212,10.031,2.611,15.137,3.491,12.532,2.161,17.508-3.762,16.728-16.205-.459-7.317,2.627-14.861,4.153-22.3.238-1.16,1.269-2.556.9-3.38-2.97-6.62-.262-9.243,6.2-10.822,5.2-1.271,5.053-5.781,2.828-9.613-4.217-7.26-8.951-14.219-13.3-21.406-1.062-1.756-2.614-4.44-1.989-5.8,6.408-13.957.343-26.09-5.191-38.276-2.219-4.885-5.132-9.057-1.707-15.053,1.286-2.251-.77-7.1-2.433-10.141-1.464-2.683-4.224-4.949-6.9-6.634-15.49-9.767-32.471-17.883-50.474-18.114-17.359-.223-34.844,4.681-52.144,8.01-4.268.822-8.029,4.276-12.024,6.52Z" fill="#084a93" opacity="0.35"/>
          <path id="Path_191748" data-name="Path 191748" d="M-3171.893,3763.17c-3.883,4.3-3.494,7.241,1.271,10.388,2.022,1.335,2.985,5.463,3.039,8.347.129,6.8,2.942,11.706,9.715,11.553a96.432,96.432,0,0,0,23.08-3.581c9.62-2.638,13.407-1.546,16.062,7.972a91.691,91.691,0,0,1,2.953,19.019,10.408,10.408,0,0,1-3.338,7.425c-11.588,9.882-15.231,23.232-17.39,37.409a18.2,18.2,0,0,1-2.346,6.832c-4.879,7.741-10.422,15.083-14.99,22.994-5.248,9.088-9.724,18.621-15.282,29.41h163.694c-1.595-10.988-2.4-21.543-4.747-31.744-6.171-26.846-14.748-52.9-27.1-77.659-1.685-3.375-1.078-7.9-1.621-12.659l26.653-10.339c-12.157-12.647-13.889-28.053-14.894-43.316-1.169-17.779-.952-35.644-1.622-53.462a77.863,77.863,0,0,0-2.172-14.673c-8.082-34.545-30.447-52.512-65.945-52.15-20.536.21-40.424,3.978-57.954,15.747-11.492,7.716-12.462,10.492-9.956,24.145.345,1.881-.963,4.184-1.827,6.15-4.529,10.311-6.493,20.892-2.557,31.765,3.771,10.417.118,18.229-7.513,25.153-9.258,8.4-9.123,8.417-.849,17.7,1.091,1.222,2.1,4.158,1.443,5.034C-3180.532,3756.587-3177.365,3760.076-3171.893,3763.17Z" fill="#084a93" opacity="0.35"/>
        </g>
        <g id="Group_129906" data-name="Group 129906">
          <path id="Path_191749" data-name="Path 191749" d="M-2939.171,3920.574h-154.554c6.11-22.955,12.054-45.283,18.249-68.554l-7.739,4.278-1.846-1.153c4.279-8.518,9.107-16.817,12.631-25.637,2.1-5.264,3.648-11.585,2.773-17-1.183-7.319-4.628-14.357-7.675-21.263-2.558-5.8-7.591-4.606-12.855-4.134-8.718.78-17.753,1.5-26.277.035-9.553-1.637-11.624-8.078-10.392-17.685.7-5.491-1.824-11.367-2.688-17.1a26.272,26.272,0,0,1-.166-7.252c.59-4.476.029-7.391-5.4-8.419-7.588-1.436-9.007-6.879-4.248-13.219a162.366,162.366,0,0,0,11.211-16.1c3.348-5.814,6.079-11.54,1.888-18.98-2.3-4.078-1.683-10.319-1.055-15.422,1.749-14.215,4.19-28.346,6.627-44.269,1.814,3.872,2.927,6.247,3.771,8.047l17.262-23.607v7.479l7.714-9.922,4.078,5.322,8.222-11.9,1.777,5.53,11.531-9.873c.14,3.077.242,5.339.426,9.393,2.757-4.324,4.715-7.393,7.086-11.11.728,2.981,1.254,5.141,2.006,8.221,3.762-3.507,6.917-6.446,10.578-9.859,1.2,3.044,2.193,5.547,3.317,8.392l13.542-7.178c-.878,3.472-1.412,5.584-2.091,8.267l20.718-1.587-2.013,6.55h19.058l-10.359,7.53,14.913.681c-.822,1.658-1.43,2.882-2.3,4.629l20.7,8.732-12.713,2.152,11.405,7.469-7.758,1.576,12.045,11.125-7.371.789c.181,3.366.773,6.682.457,9.909-1.088,11.1-1.387,22.438-4.028,33.184-4.273,17.378-9.5,34.548-7.1,52.646,1.174,8.848,1.45,17.671,11.4,23.81,6.489,4,11.981,12.79,13.932,20.45,10.275,40.348,24.383,80.119,22.072,122.751A12.569,12.569,0,0,1-2939.171,3920.574Z" fill="#084a93"/>
          <path id="Path_191750" data-name="Path 191750" d="M-3433.155,3655.9c-1.385-2.8-2.224-4.5-3.064-6.2l-1.026.319a16.457,16.457,0,0,1,.377,3.615c-.353,3.14,3.757,7.592-3.562,8.959-1.762.329-2.778,7.9-3.049,12.213-.4,6.414,1.031,13.013.13,19.311-1.653,11.558-.015,21.09,10.189,28.475,8.9,6.442,8.347,9.466-1.6,14.908-3.085,1.689-6.078,3.49-2.944,7.024,5.32,6,1.725,9.148-3.638,12.11l2.22.98c-1.285,3.221-2.739,6.388-3.8,9.68-.847,2.627-1.9,5.466-1.679,8.111.888,10.5-1.836,15.218-12.152,16.057a116.233,116.233,0,0,1-26.556-1.1c-7.643-1.155-12.608,1.18-14.874,8.039a136.449,136.449,0,0,0-4.686,20.614c-.317,1.927.917,4.595,2.276,6.225,5.334,6.4,11.443,12.2,16.393,18.868,3.356,4.522,5.228,10.138,7.821,15.235q7.072,13.906,14.214,27.778c6.03,11.76,12.068,23.515,19.192,37.394h-11.323q-72.9,0-145.794,0c-9.91,0-10.3-.226-9.178-10.23,3.633-32.374,14.267-62.763,26.547-92.68,3.173-7.731,6.048-15.584,8.612-22.223-9.374-6.066-17.595-10.992-25.381-16.528-8.995-6.394-12.106-15.523-10.407-26.3.611-3.874,1.089-7.873,2.451-11.506,6.911-18.439,9.53-37.34,8.888-57.074a93.486,93.486,0,0,1,10.225-45.627c8.854-17.478,23.207-28.267,42.283-30.482,35.513-4.124,69.616,2.042,101.356,18.866C-3432.137,3637.385-3429.507,3643.739-3433.155,3655.9Z" fill="#084a93"/>
        </g>
      </g>
    </g>
    <g id="Group_129909" data-name="Group 129909" opacity="0.35">
      <path id="Path_191751" data-name="Path 191751" d="M-3308.077,3642.173a9.378,9.378,0,0,1-9.447,9.327,9.364,9.364,0,0,1-9.287-9.478,9.345,9.345,0,0,1,9.435-9.258A9.376,9.376,0,0,1-3308.077,3642.173Zm-9.38-7.325a7.252,7.252,0,0,0-7.27,7.287,7.269,7.269,0,0,0,7.284,7.281,7.31,7.31,0,0,0,7.287-7.3A7.282,7.282,0,0,0-3317.457,3634.848Z" fill="#fff"/>
      <path id="Path_191752" data-name="Path 191752" d="M-3323.5,3621.707a3.261,3.261,0,0,0-.211,1.575v3.734l-2.124-2.12v.09c-.419-.448-.732-.812-1.076-1.143-.044-.042-.087-.08-.13-.115a2.174,2.174,0,0,0-.214-.154l-.033-.019c-.022-.012-.043-.024-.064-.034a.9.9,0,0,0-.689-.063,1.981,1.981,0,0,0-.652.441c-.384.377-.743.792-1.217,1.3l-.006-.085c-.669.665-1.335,1.331-1.991,2.008a1.424,1.424,0,0,1-.317.253,1.592,1.592,0,0,1-.259.318c-.781.754-1.548,1.523-2.313,2.294a2.927,2.927,0,0,1-.223.224l-.635.642c-.7.711-.7,1.215.01,1.938l.209.209a1.562,1.562,0,0,1,.2.178c.837.867,1.7,1.706,2.635,2.634h0l.061.06h-1.165c-1.006,0-2.011,0-3.017,0h-.125c-1.054.007-1.41.309-1.452,1.3v.023q-.008,4.434,0,8.87l0,1.133a2.05,2.05,0,0,0,.04.342.778.778,0,0,1,.169.362.534.534,0,0,0,.187.247,1.5,1.5,0,0,0,.9.228c1.288.007,2.576,0,3.864,0,.145,0,.29.029.546.058-.725.72-1.411,1.4-2.083,2.066h.077c-.448.419-.812.732-1.143,1.076a2.278,2.278,0,0,0-.15.173l-.045.059c-.021.028-.039.056-.057.084l-.009.014a.94.94,0,0,0-.013,1.048c.021.033.041.066.065.1l0,0c.023.032.049.065.075.1s.075.089.118.133c.4.411.83.784,1.366,1.286l-.09.007q1.2,1.2,2.4,2.4a1.823,1.823,0,0,1,.182.164q.374.387.752.77l1.707,1.707.55.545a3.213,3.213,0,0,0,.781.606.84.84,0,0,0,.667,0,4.4,4.4,0,0,0,1.036-.863l.906-.908,1.78-1.8v.01l0,0c0,1.6,0,3.028,0,4.451a2.439,2.439,0,0,0,.042.462c.127.586.522.838,1.272.839q4.937.009,9.874,0a1.883,1.883,0,0,0,.706-.112l.011,0,.047-.023.064-.032.005,0a1.12,1.12,0,0,0,.476-1c0-.042,0-.083,0-.127.008-1.288,0-2.576,0-3.864,0-.145.03-.289.058-.546l0,0h0l.068.069c1.021,1.028,1.96,1.981,2.906,2.926.735.734,1.194.784,1.891.157l.047-.044q1.455-1.449,2.908-2.9.558-.56,1.118-1.118,1.425-1.427,2.849-2.857a2.947,2.947,0,0,0,.552-.726.91.91,0,0,0-.1-.83,3.307,3.307,0,0,0-.313-.4l0,0c-.888-.9-1.791-1.793-2.685-2.691-.015-.015-.029-.032-.043-.047l-.427-.425c1.592,0,3.005.005,4.416,0,1-.028,1.323-.365,1.338-1.381q0-1.18,0-2.36v-4.418q0-1.345,0-2.692a2.925,2.925,0,0,0-.161-1.141.838.838,0,0,0-.413-.376,3.425,3.425,0,0,0-1.128-.135q-.657,0-1.316,0h-2.716l.058-.058-.031,0c.833-.824,1.619-1.593,2.387-2.357l.547-.548c.857-.86.863-1.313.02-2.158-1.025-1.027-2.043-2.063-3.085-3.072a1.5,1.5,0,0,1-.174-.2q-1.417-1.418-2.839-2.832l-.024-.023-.75-.749a1.1,1.1,0,0,0-1.8.01c-.135.132-.267.266-.4.4-.02.023-.041.045-.064.067-.044.042-.087.085-.13.127q-.837.831-1.67,1.666c-.272.275-.548.555-.834.842l-.008-.064-.054.045c0-1.481,0-2.845,0-4.209a3.684,3.684,0,0,0-.03-.487c-.1-.693-.443-.948-1.267-.983Z" fill="#fff"/>
      <path id="Path_191753" data-name="Path 191753" d="M-3299.372,3646.293c-1.014,0-2.028.007-3.042,0-.364,0-.729,0-1.092-.009h-.1a1.231,1.231,0,0,0-1.17.623l-.026.045-.02.035a2.235,2.235,0,0,0-.1.213,1.4,1.4,0,0,0,.213,1.781c1.034.992,2.038,2.014,3.042,3.021a4.6,4.6,0,0,0,.478.3l-6.086,6.08c-.385-.439-.782-.926-1.216-1.379-.664-.693-1.352-1.365-2.033-2.042l-.053-.051a1.776,1.776,0,0,0-1.023-.49,3.032,3.032,0,0,0-.727.228,3.451,3.451,0,0,0-.4.188c-.049.039-.1.081-.146.126a1.578,1.578,0,0,0-.4,1.027c-.007.24-.01.481-.014.721,0,1.363,0,2.731,0,4.132h0v.011h-8.338v-3.545c0-.3,0-.607,0-.911,0-.1,0-.192,0-.288a3.263,3.263,0,0,0-.04-.581,1.19,1.19,0,0,0-.563-.714c-.109-.058-.236-.116-.385-.178-.1-.042-.195-.078-.282-.109a1.276,1.276,0,0,0-1.094.082,3.714,3.714,0,0,0-.417.374l-.614.616q-.54.551-1.086,1.093l-1.524,1.537-.009-.01-.072.072-5.9-5.9.077-.077-.077-.077c.314-.271.771-.632,1.19-1.034l2.028-2.026a1.972,1.972,0,0,0,.644-1.16,2.6,2.6,0,0,0-.233-.808,2.348,2.348,0,0,0-.179-.347c-.04-.048-.081-.1-.126-.146a1.585,1.585,0,0,0-1.028-.4c-.306-.01-.612-.015-.919-.019-1.052,0-2.111,0-3.185,0h-.76v-8.338h3.563c.389,0,.778-.007,1.166,0h.016a2.5,2.5,0,0,0,.728-.078,1.152,1.152,0,0,0,.534-.469,3.777,3.777,0,0,0,.21-.442,4.392,4.392,0,0,0,.175-.487,1.161,1.161,0,0,0-.078-.787,3.045,3.045,0,0,0-.444-.519c-1.1-1.1-2.2-2.189-3.246-3.224l.023-.022-.026-.031,5.889-5.885.033.033.076-.076c.266.307.618.752,1.01,1.164l2.061,2.061a1.963,1.963,0,0,0,1.147.636,2.555,2.555,0,0,0,.81-.233,2.16,2.16,0,0,0,.429-.235c.026-.023.052-.043.078-.067a1.491,1.491,0,0,0,.384-.969q.015-.532.02-1.065c0-.817,0-1.637,0-2.465q0-.381,0-.762v-.634h8.338v.015h0v1.34c0,.808.006,1.616,0,2.423,0,.4.006.792-.006,1.187,0,.024,0,.047,0,.071a1.313,1.313,0,0,0,.943,1.175,1.493,1.493,0,0,0,1.416.052,1.469,1.469,0,0,0,.282-.228c1-1.019,2.009-2.023,3.018-3.031a3.065,3.065,0,0,0,.348-.544l6.081,6.086c-.439.385-.927.782-1.379,1.216-.267.256-.53.516-.792.777q-.189.188-.376.376-.438.439-.874.881l-.021.021a1.82,1.82,0,0,0-.521,1.053,2.994,2.994,0,0,0,.229.728,3.093,3.093,0,0,0,.221.452c.029.035.057.07.09.1a1.48,1.48,0,0,0,.969.384c.289.009.579.013.869.017h4.056v8.338Z"/>
      <path id="Path_191754" data-name="Path 191754" d="M-3317.524,3651.5a9.364,9.364,0,0,1-9.287-9.478,9.345,9.345,0,0,1,9.435-9.258,9.376,9.376,0,0,1,9.3,9.409A9.378,9.378,0,0,1-3317.524,3651.5Zm18.786-13.545h-4.045c-.29,0-.58-.008-.869-.017a1.48,1.48,0,0,1-.969-.384c-.033-.034-.061-.069-.09-.1a3.093,3.093,0,0,1-.221-.452,2.994,2.994,0,0,1-.229-.728,1.82,1.82,0,0,1,.521-1.053l.021-.021q.437-.441.874-.881.188-.189.376-.376c.262-.261.525-.521.792-.777.452-.434.94-.831,1.379-1.216l-6.081-6.086a3.065,3.065,0,0,1-.348.544c-1.009,1.008-2.021,2.012-3.018,3.031a1.469,1.469,0,0,1-.282.228,1.493,1.493,0,0,1-1.416-.052,1.313,1.313,0,0,1-.943-1.175c0-.024,0-.047,0-.071.012-.4.009-.791.006-1.187,0-.807,0-1.615,0-2.423v-1.34h0v-.015h-8.338v.634q0,.381,0,.762c0,.828,0,1.648,0,2.465q-.006.532-.02,1.065a1.491,1.491,0,0,1-.384.969c-.026.024-.052.044-.078.067a2.16,2.16,0,0,1-.429.235,2.555,2.555,0,0,1-.81.233,1.963,1.963,0,0,1-1.147-.636l-2.061-2.061c-.392-.412-.744-.857-1.01-1.164l-.076.076-.033-.033-5.889,5.885.026.031-.023.022c1.043,1.035,2.147,2.127,3.246,3.224a3.045,3.045,0,0,1,.444.519,1.161,1.161,0,0,1,.078.787,4.392,4.392,0,0,1-.175.487,3.777,3.777,0,0,1-.21.442,1.152,1.152,0,0,1-.534.469,2.5,2.5,0,0,1-.728.078h-.016c-.388-.007-.777,0-1.166,0h-3.563v8.338h.76c1.074,0,2.133,0,3.185,0,.307,0,.613.009.919.019a1.585,1.585,0,0,1,1.028.4c.045.049.086.1.126.146a2.348,2.348,0,0,1,.179.347,2.6,2.6,0,0,1,.233.808,1.972,1.972,0,0,1-.644,1.16l-2.028,2.026c-.419.4-.876.763-1.19,1.034l.077.077-.077.077,5.9,5.9.072-.072.009.01,1.524-1.537q.545-.543,1.086-1.093l.614-.616a3.714,3.714,0,0,1,.417-.374,1.276,1.276,0,0,1,1.094-.082c.087.031.179.067.282.109.149.062.276.12.385.178a1.19,1.19,0,0,1,.563.714,3.263,3.263,0,0,1,.04.581c0,.1,0,.192,0,.288,0,.3,0,.607,0,.911v3.545h8.338v-.011h0c0-1.4,0-2.769,0-4.132,0-.24.007-.481.014-.721a1.578,1.578,0,0,1,.4-1.027c.049-.045.1-.087.146-.126a3.451,3.451,0,0,1,.4-.188,3.032,3.032,0,0,1,.727-.228,1.776,1.776,0,0,1,1.023.49l.053.051c.681.677,1.369,1.349,2.033,2.042.434.453.831.94,1.216,1.379l6.086-6.08a4.6,4.6,0,0,1-.478-.3c-1-1.007-2.008-2.029-3.042-3.021a1.4,1.4,0,0,1-.213-1.781,2.235,2.235,0,0,1,.1-.213l.02-.035.026-.045a1.231,1.231,0,0,1,1.17-.623h.1c.363.013.728.012,1.092.009,1.014,0,2.028,0,3.042,0h.645v-8.338Z" fill="#084a93"/>
    </g>
    <g id="Group_129910" data-name="Group 129910" opacity="0.35">
      <path id="Path_191755" data-name="Path 191755" d="M-3283.345,3656.4a5.112,5.112,0,0,1-5.151,5.085,5.105,5.105,0,0,1-5.063-5.167,5.1,5.1,0,0,1,5.144-5.048A5.112,5.112,0,0,1-3283.345,3656.4Zm-5.114-3.994a3.955,3.955,0,0,0-3.964,3.973,3.965,3.965,0,0,0,3.972,3.97,3.987,3.987,0,0,0,3.973-3.979A3.971,3.971,0,0,0-3288.459,3652.405Z" fill="#fff"/>
      <path id="Path_191756" data-name="Path 191756" d="M-3291.752,3645.24a1.771,1.771,0,0,0-.115.859v2.036l-1.158-1.156v.049c-.229-.244-.4-.442-.587-.623-.024-.023-.048-.043-.071-.063a1.075,1.075,0,0,0-.117-.083l-.018-.011-.035-.019a.489.489,0,0,0-.375-.034,1.082,1.082,0,0,0-.356.241c-.209.205-.405.431-.663.707l0-.046c-.364.362-.728.726-1.085,1.095a.805.805,0,0,1-.173.138.873.873,0,0,1-.141.173c-.426.411-.844.83-1.261,1.251a1.515,1.515,0,0,1-.122.122l-.346.35c-.384.388-.38.662,0,1.056.038.039.077.076.115.114a.992.992,0,0,1,.11.1c.456.472.928.93,1.436,1.436h0l.033.032h-2.348c-.575,0-.769.169-.792.709v.012q0,2.42,0,4.837l0,.617a1.135,1.135,0,0,0,.022.187.435.435,0,0,1,.092.2.3.3,0,0,0,.1.135.817.817,0,0,0,.49.124c.7,0,1.405,0,2.107,0,.079,0,.158.016.3.032-.4.392-.77.762-1.136,1.126h.042c-.244.229-.443.4-.623.587-.031.032-.057.063-.082.094l-.025.033c-.011.015-.021.03-.031.045l0,.008a.508.508,0,0,0-.007.571c.011.018.022.036.035.054l0,0c.012.018.027.035.041.053s.041.049.064.073c.216.224.453.427.745.7l-.049,0,1.31,1.31a.985.985,0,0,1,.1.089c.136.14.272.28.41.42l.93.93.3.3a1.784,1.784,0,0,0,.426.33.464.464,0,0,0,.364,0,2.429,2.429,0,0,0,.565-.471l.493-.5.971-.98v.005l0,0c0,.876,0,1.651,0,2.427a1.275,1.275,0,0,0,.023.252c.069.32.284.457.693.458q2.692,0,5.383,0a1.014,1.014,0,0,0,.385-.062l.006,0,.026-.012a.39.39,0,0,0,.035-.018l0,0a.608.608,0,0,0,.259-.543c0-.023,0-.046,0-.07.005-.7,0-1.4,0-2.106,0-.079.016-.158.031-.3l0,0h0l.037.037c.557.561,1.069,1.08,1.585,1.595.4.4.651.428,1.031.086l.025-.024q.794-.789,1.586-1.581l.609-.61q.778-.777,1.554-1.557a1.679,1.679,0,0,0,.3-.4.5.5,0,0,0-.053-.453,1.827,1.827,0,0,0-.171-.215h0c-.484-.493-.977-.978-1.464-1.468l-.023-.025-.233-.232c.868,0,1.638,0,2.408,0,.545-.015.721-.2.729-.753q0-.644,0-1.287v-2.408q0-.735,0-1.468a1.582,1.582,0,0,0-.088-.622.455.455,0,0,0-.225-.2,1.871,1.871,0,0,0-.615-.074h-2.2l.032-.031-.018,0c.455-.449.883-.868,1.3-1.284l.3-.3c.468-.468.47-.715.011-1.176-.559-.56-1.114-1.124-1.682-1.675a.772.772,0,0,1-.1-.108q-.772-.772-1.548-1.544l-.013-.012c-.136-.136-.272-.273-.409-.408a.6.6,0,0,0-.983.005l-.219.218c-.011.012-.022.024-.035.036l-.071.069q-.456.453-.91.908l-.455.46,0-.035-.029.024c0-.807,0-1.551,0-2.295a1.911,1.911,0,0,0-.016-.265c-.053-.378-.241-.517-.691-.536Z" fill="#fff"/>
      <path id="Path_191757" data-name="Path 191757" d="M-3278.6,3658.645c-.553,0-1.106,0-1.658,0-.2,0-.4,0-.6,0h-.053a.671.671,0,0,0-.637.339l-.015.025-.011.019c-.019.036-.038.075-.055.116a.766.766,0,0,0,.116.971c.564.541,1.112,1.1,1.659,1.647a2.576,2.576,0,0,0,.261.161l-3.319,3.315c-.209-.239-.426-.505-.662-.752-.363-.378-.738-.744-1.109-1.113l-.029-.028a.966.966,0,0,0-.558-.267,1.636,1.636,0,0,0-.4.124,1.923,1.923,0,0,0-.216.1c-.026.022-.053.044-.079.069a.863.863,0,0,0-.218.56c0,.131-.006.262-.008.393,0,.744,0,1.489,0,2.253h0v.006h-4.546v-.313q0-.81,0-1.62c0-.165,0-.331,0-.5V3664a1.764,1.764,0,0,0-.022-.316.648.648,0,0,0-.306-.389,2.133,2.133,0,0,0-.211-.1q-.082-.035-.153-.06a.7.7,0,0,0-.6.045,2.287,2.287,0,0,0-.227.2l-.335.337q-.294.3-.592.6c-.282.284-.56.565-.831.837l-.005,0-.039.039-3.217-3.218.042-.042-.042-.042c.171-.148.42-.345.649-.564l1.1-1.1a1.072,1.072,0,0,0,.351-.633,1.445,1.445,0,0,0-.126-.441,1.319,1.319,0,0,0-.1-.188c-.022-.027-.045-.053-.069-.08a.861.861,0,0,0-.56-.218c-.167-.005-.334-.008-.5-.01h-2.151V3654.1h1.942c.212,0,.424,0,.636,0h.009a1.32,1.32,0,0,0,.4-.043.625.625,0,0,0,.292-.255,2.086,2.086,0,0,0,.114-.241,2.373,2.373,0,0,0,.1-.266.634.634,0,0,0-.043-.429,1.612,1.612,0,0,0-.242-.283c-.6-.6-1.2-1.193-1.769-1.757l.012-.013-.014-.016,3.21-3.209.018.018.042-.042c.145.168.337.411.551.635l1.123,1.124a1.071,1.071,0,0,0,.625.347,1.418,1.418,0,0,0,.442-.127,1.149,1.149,0,0,0,.234-.129l.043-.036a.813.813,0,0,0,.209-.529c.006-.193.009-.386.011-.58,0-.445,0-.892,0-1.344,0-.138,0-.277,0-.416v-.345h4.546v.008h0v.731c0,.44,0,.881,0,1.321,0,.216,0,.431,0,.647,0,.013,0,.026,0,.039a.716.716,0,0,0,.514.64.814.814,0,0,0,.772.029.8.8,0,0,0,.154-.125c.544-.555,1.1-1.1,1.645-1.652a1.638,1.638,0,0,0,.19-.3l3.316,3.319c-.24.209-.506.426-.752.662-.146.14-.289.282-.432.424l-.2.205-.477.48-.011.012a.988.988,0,0,0-.284.574,1.646,1.646,0,0,0,.125.4,1.684,1.684,0,0,0,.12.246c.016.019.032.038.049.057a.81.81,0,0,0,.528.209c.158,0,.316.007.475.009.727,0,1.457,0,2.205,0h.006v4.546Z"/>
      <path id="Path_191758" data-name="Path 191758" d="M-3288.5,3661.484a5.105,5.105,0,0,1-5.063-5.167,5.1,5.1,0,0,1,5.144-5.048,5.112,5.112,0,0,1,5.07,5.13A5.112,5.112,0,0,1-3288.5,3661.484Zm10.243-7.385h0c-.748,0-1.478,0-2.205,0-.159,0-.317,0-.475-.009a.81.81,0,0,1-.528-.209c-.017-.019-.033-.038-.049-.057a1.684,1.684,0,0,1-.12-.246,1.646,1.646,0,0,1-.125-.4.988.988,0,0,1,.284-.574l.011-.012.477-.48.2-.205c.143-.142.286-.284.432-.424.246-.236.512-.453.752-.662l-3.316-3.319a1.638,1.638,0,0,1-.19.3c-.549.549-1.1,1.1-1.645,1.652a.8.8,0,0,1-.154.125.814.814,0,0,1-.772-.029.716.716,0,0,1-.514-.64c0-.013,0-.026,0-.039.006-.216,0-.431,0-.647,0-.44,0-.881,0-1.321v-.731h0v-.008h-4.546v.345c0,.139,0,.278,0,.416,0,.452,0,.9,0,1.344,0,.194,0,.387-.011.58a.813.813,0,0,1-.209.529l-.043.036a1.149,1.149,0,0,1-.234.129,1.418,1.418,0,0,1-.442.127,1.071,1.071,0,0,1-.625-.347l-1.123-1.124c-.214-.224-.406-.467-.551-.635l-.042.042-.018-.018-3.21,3.209.014.016-.012.013c.568.564,1.17,1.159,1.769,1.757a1.612,1.612,0,0,1,.242.283.634.634,0,0,1,.043.429,2.373,2.373,0,0,1-.1.266,2.086,2.086,0,0,1-.114.241.625.625,0,0,1-.292.255,1.32,1.32,0,0,1-.4.043h-.009c-.212,0-.424,0-.636,0h-1.942v4.546h2.151c.167,0,.334,0,.5.01a.861.861,0,0,1,.56.218c.024.027.047.053.069.08a1.319,1.319,0,0,1,.1.188,1.445,1.445,0,0,1,.126.441,1.072,1.072,0,0,1-.351.633l-1.1,1.1c-.229.219-.478.416-.649.564l.042.042-.042.042,3.217,3.218.039-.039.005,0c.271-.272.549-.553.831-.837q.3-.3.592-.6l.335-.337a2.287,2.287,0,0,1,.227-.2.7.7,0,0,1,.6-.045q.071.025.153.06a2.133,2.133,0,0,1,.211.1.648.648,0,0,1,.306.389,1.764,1.764,0,0,1,.022.316v.158c0,.165,0,.331,0,.5q0,.81,0,1.62v.313h4.546v-.006h0c0-.764,0-1.509,0-2.253,0-.131,0-.262.008-.393a.863.863,0,0,1,.218-.56c.026-.025.053-.047.079-.069a1.923,1.923,0,0,1,.216-.1,1.636,1.636,0,0,1,.4-.124.966.966,0,0,1,.558.267l.029.028c.371.369.746.735,1.109,1.113.236.247.453.513.662.752l3.319-3.315a2.576,2.576,0,0,1-.261-.161c-.547-.549-1.095-1.106-1.659-1.647a.766.766,0,0,1-.116-.971c.017-.041.036-.08.055-.116l.011-.019.015-.025a.671.671,0,0,1,.637-.339h.053c.2.007.4.007.6,0,.552,0,1.1,0,1.658,0h.352V3654.1Z" fill="#084a93"/>
    </g>
    <g id="Group_129911" data-name="Group 129911" opacity="0.35">
      <path id="Path_191759" data-name="Path 191759" d="M-3277.018,3639.853a3.183,3.183,0,0,1-3.207,3.166,3.179,3.179,0,0,1-3.152-3.217,3.173,3.173,0,0,1,3.2-3.143A3.184,3.184,0,0,1-3277.018,3639.853Zm-3.184-2.486a2.463,2.463,0,0,0-2.468,2.473,2.469,2.469,0,0,0,2.473,2.472,2.481,2.481,0,0,0,2.473-2.477A2.471,2.471,0,0,0-3280.2,3637.367Z" fill="#fff"/>
      <path id="Path_191760" data-name="Path 191760" d="M-3282.252,3632.906a1.1,1.1,0,0,0-.072.535v1.267l-.721-.719v.03c-.142-.152-.248-.275-.365-.388l-.044-.039a.714.714,0,0,0-.073-.052l-.011-.006-.022-.012a.3.3,0,0,0-.233-.021.658.658,0,0,0-.222.149c-.13.128-.252.269-.413.441l0-.029c-.227.226-.453.452-.676.682a.521.521,0,0,1-.107.086.571.571,0,0,1-.088.107c-.265.256-.526.517-.786.779a.79.79,0,0,1-.075.076l-.216.218c-.239.242-.236.412,0,.658l.071.071a.525.525,0,0,1,.068.06c.284.295.578.579.9.894h0l.021.021h-1.462c-.358,0-.479.1-.493.442v.007q0,1.506,0,3.011v.385a.77.77,0,0,0,.014.116.263.263,0,0,1,.057.123.189.189,0,0,0,.064.083.506.506,0,0,0,.3.078c.437,0,.874,0,1.312,0,.049,0,.1.01.185.02l-.707.7h.026c-.152.143-.275.249-.388.366-.019.019-.035.039-.051.058l-.015.02-.019.029,0,0a.318.318,0,0,0-.005.356l.022.034v0l.026.033a.51.51,0,0,0,.04.045c.134.139.282.266.464.436l-.031,0,.816.815a.525.525,0,0,1,.061.056l.255.261.58.579.187.185a1.064,1.064,0,0,0,.265.206.286.286,0,0,0,.226,0,1.509,1.509,0,0,0,.352-.293l.307-.308.6-.611v0h0c0,.544,0,1.027,0,1.51a.738.738,0,0,0,.015.157c.042.2.177.285.431.285q1.675,0,3.351,0a.635.635,0,0,0,.24-.038h0l.016-.008.022-.011h0a.381.381,0,0,0,.162-.339v-.043c0-.437,0-.874,0-1.311,0-.049.01-.1.019-.186h0l.023.024c.346.349.665.672.986.993.25.249.406.266.642.053l.016-.015.987-.984.379-.38q.484-.484.968-.97a1.025,1.025,0,0,0,.187-.246.309.309,0,0,0-.033-.282,1.157,1.157,0,0,0-.106-.134h0c-.3-.307-.608-.609-.911-.914l-.015-.016-.145-.144c.541,0,1.02,0,1.5,0,.34-.009.449-.124.454-.469q0-.4,0-.8v-1.5c0-.3,0-.609,0-.914a1.015,1.015,0,0,0-.054-.387.29.29,0,0,0-.141-.128,1.194,1.194,0,0,0-.382-.046h-1.369l.02-.02h-.011c.283-.28.55-.541.81-.8l.186-.187c.291-.291.293-.445.007-.732-.348-.349-.694-.7-1.047-1.043a.538.538,0,0,1-.06-.067q-.48-.482-.963-.961l-.008-.008-.255-.254a.374.374,0,0,0-.612,0l-.136.136-.022.022-.044.043-.567.566-.283.286,0-.022-.018.015v-1.428a1.375,1.375,0,0,0-.01-.166c-.033-.235-.15-.321-.43-.333Z" fill="#fff"/>
      <path id="Path_191761" data-name="Path 191761" d="M-3274.063,3641.252c-.344,0-.689,0-1.033,0-.124,0-.247,0-.371,0h-.032a.419.419,0,0,0-.4.212l-.009.015-.007.012a.782.782,0,0,0-.034.072.475.475,0,0,0,.072.6c.351.337.692.684,1.032,1.025a1.522,1.522,0,0,0,.163.1l-2.066,2.064c-.131-.149-.266-.314-.413-.468-.225-.235-.459-.463-.69-.693l-.018-.017a.6.6,0,0,0-.347-.167,1.037,1.037,0,0,0-.247.078,1.079,1.079,0,0,0-.134.063l-.05.043a.541.541,0,0,0-.136.349c0,.081,0,.163,0,.245v1.4h0v0h-2.83v-1.2c0-.1,0-.207,0-.31v-.1a1.122,1.122,0,0,0-.014-.2.4.4,0,0,0-.191-.242,1.371,1.371,0,0,0-.131-.06c-.034-.015-.066-.027-.1-.037a.433.433,0,0,0-.372.027,1.315,1.315,0,0,0-.141.127l-.209.21q-.183.186-.368.371l-.517.521,0,0-.024.024-2-2,.026-.027-.026-.026c.107-.092.262-.214.4-.351l.688-.687a.672.672,0,0,0,.219-.394.873.873,0,0,0-.079-.274.732.732,0,0,0-.061-.118l-.043-.05a.539.539,0,0,0-.348-.135l-.313-.007h-1.339v-2.831h1.21c.132,0,.264,0,.4,0h0a.827.827,0,0,0,.247-.026.387.387,0,0,0,.181-.159,1.214,1.214,0,0,0,.072-.15,1.518,1.518,0,0,0,.059-.166.391.391,0,0,0-.027-.267,1.028,1.028,0,0,0-.15-.176c-.373-.372-.748-.743-1.1-1.094l.008-.008-.009-.01,2-2,.011.011.026-.025c.09.1.21.255.343.4l.7.7a.666.666,0,0,0,.39.216.879.879,0,0,0,.275-.079.714.714,0,0,0,.145-.08l.027-.023a.5.5,0,0,0,.13-.329c0-.12.006-.24.007-.361,0-.277,0-.555,0-.836,0-.087,0-.173,0-.259v-.215h2.83v.005h0v.455c0,.274,0,.548,0,.822,0,.134,0,.269,0,.4a.157.157,0,0,0,0,.024.445.445,0,0,0,.32.4.506.506,0,0,0,.481.017.462.462,0,0,0,.1-.077c.339-.346.682-.687,1.025-1.029a.992.992,0,0,0,.118-.184l2.064,2.066c-.149.13-.315.265-.468.412-.091.087-.18.175-.269.264l-.128.127-.3.3-.008.008a.615.615,0,0,0-.176.357,1.032,1.032,0,0,0,.077.247,1.235,1.235,0,0,0,.075.154l.031.035a.5.5,0,0,0,.329.13l.3.006h1.377v2.831Z"/>
      <path id="Path_191762" data-name="Path 191762" d="M-3280.225,3643.019a3.179,3.179,0,0,1-3.152-3.217,3.173,3.173,0,0,1,3.2-3.143,3.184,3.184,0,0,1,3.156,3.194A3.183,3.183,0,0,1-3280.225,3643.019Zm6.377-4.6h-1.373l-.3-.006a.5.5,0,0,1-.329-.13l-.031-.035a1.235,1.235,0,0,1-.075-.154,1.032,1.032,0,0,1-.077-.247.615.615,0,0,1,.176-.357l.008-.008.3-.3.128-.127c.089-.089.178-.177.269-.264.153-.147.319-.282.468-.412l-2.064-2.066a.992.992,0,0,1-.118.184c-.343.342-.686.683-1.025,1.029a.462.462,0,0,1-.1.077.506.506,0,0,1-.481-.017.445.445,0,0,1-.32-.4.157.157,0,0,1,0-.024c0-.134,0-.269,0-.4,0-.274,0-.548,0-.822v-.455h0v-.005h-2.83v.215c0,.086,0,.172,0,.259,0,.281,0,.559,0,.836,0,.121,0,.241-.007.361a.5.5,0,0,1-.13.329l-.027.023a.714.714,0,0,1-.145.08.879.879,0,0,1-.275.079.666.666,0,0,1-.39-.216l-.7-.7c-.133-.14-.253-.291-.343-.4l-.026.025-.011-.011-2,2,.009.01-.008.008c.354.351.729.722,1.1,1.094a1.028,1.028,0,0,1,.15.176.391.391,0,0,1,.027.267,1.518,1.518,0,0,1-.059.166,1.214,1.214,0,0,1-.072.15.387.387,0,0,1-.181.159.827.827,0,0,1-.247.026h0c-.132,0-.264,0-.4,0h-1.21v2.831h1.339l.313.007a.539.539,0,0,1,.348.135l.043.05a.732.732,0,0,1,.061.118.873.873,0,0,1,.079.274.672.672,0,0,1-.219.394l-.688.687c-.142.137-.3.259-.4.351l.026.026-.026.027,2,2,.024-.024,0,0,.517-.521q.185-.185.368-.371l.209-.21a1.315,1.315,0,0,1,.141-.127.433.433,0,0,1,.372-.027c.029.01.061.022.1.037a1.371,1.371,0,0,1,.131.06.4.4,0,0,1,.191.242,1.122,1.122,0,0,1,.014.2v.1c0,.1,0,.207,0,.31v1.2h2.83v0h0v-1.4c0-.082,0-.164,0-.245a.541.541,0,0,1,.136-.349l.05-.043a1.079,1.079,0,0,1,.134-.063,1.037,1.037,0,0,1,.247-.078.6.6,0,0,1,.347.167l.018.017c.231.23.465.458.69.693.147.154.282.319.413.468l2.066-2.064a1.522,1.522,0,0,1-.163-.1c-.34-.341-.681-.688-1.032-1.025a.475.475,0,0,1-.072-.6.782.782,0,0,1,.034-.072l.007-.012.009-.015a.419.419,0,0,1,.4-.212h.032c.124,0,.247,0,.371,0,.344,0,.689,0,1.033,0h.219v-2.831Z" fill="#084a93"/>
    </g>
    <g id="Group_129914" data-name="Group 129914">
      <g id="Group_129912" data-name="Group 129912">
        <path id="Path_191763" data-name="Path 191763" d="M-3447.282,3859.714v-18.472a34.483,34.483,0,0,1,1.2-3.888c2.792-6.392,5.707-12.73,8.461-19.137.965-2.245,2.281-3.935,4.707-4.589,14.772-.416,50.747-.416,66.8,0,2.428.654,3.744,2.347,4.709,4.595,2.728,6.36,5.585,12.663,8.41,18.98a13.911,13.911,0,0,1,1.251,5.777q-.014,7.74,0,15.48a6.28,6.28,0,0,1-1.057,3.6.953.953,0,0,0-.025.858,6.42,6.42,0,0,1,1.084,3.784q-.031,6.993,0,13.987a6.436,6.436,0,0,1-1.076,3.786.95.95,0,0,0,.009.858,6.355,6.355,0,0,1,1.066,3.7c-.018,4.724,0,9.449-.011,14.173a7.222,7.222,0,0,1-.089,1.3,5.549,5.549,0,0,1-5.593,4.647q-42.1.013-84.2,0c-.062,0-.125,0-.187,0a5.381,5.381,0,0,1-4.465-2.472,14.662,14.662,0,0,1-.989-2.189V3887.7c.388-.826.79-1.645,1.152-2.482a.889.889,0,0,0,0-.634c-.362-.836-.765-1.656-1.153-2.481v-16.793c.388-.826.79-1.645,1.152-2.482a.887.887,0,0,0,0-.633C-3446.491,3861.359-3446.894,3860.539-3447.282,3859.714Zm4.9-21.513h85.693c-.106-.271-.175-.471-.261-.664q-4.154-9.362-8.3-18.725a2.31,2.31,0,0,0-2.421-1.466q-31.846.029-63.694,0a2.411,2.411,0,0,0-2.5,1.636c-2.313,5.289-4.679,10.555-7.024,15.83C-3441.375,3835.909-3441.856,3837.013-3442.379,3838.2Zm-1.12,3.812c-.02.389-.049.693-.049,1q0,7.693,0,15.388c0,1.582.681,2.246,2.3,2.246q41.733,0,83.467,0c1.645,0,2.3-.668,2.3-2.335q0-7.649,0-15.3c0-.328-.032-.656-.05-1Zm44,41.023q20.795,0,41.59,0c1.8,0,2.425-.621,2.426-2.4q0-6.9,0-13.8c0-1.844-.615-2.457-2.46-2.457h-83.181c-1.8,0-2.424.62-2.425,2.4q0,6.854,0,13.708c0,1.974.578,2.552,2.552,2.552Q-3420.25,3883.038-3399.5,3883.036Zm-.117,22.39h41.683c1.839,0,2.45-.616,2.451-2.468q0-6.9,0-13.8c0-1.74-.633-2.387-2.342-2.387h-83.367c-1.713,0-2.355.649-2.356,2.373q0,6.853,0,13.708c0,2.023.563,2.576,2.621,2.576Z"/>
        <path id="Path_191764" data-name="Path 191764" d="M-3442.379,3838.2c.523-1.188,1-2.292,1.493-3.392,2.345-5.275,4.711-10.541,7.024-15.83a2.411,2.411,0,0,1,2.5-1.636q31.846.034,63.694,0a2.31,2.31,0,0,1,2.421,1.466q4.126,9.374,8.3,18.725c.086.193.155.393.261.664Z" fill="#b9ddfc"/>
        <path id="Path_191765" data-name="Path 191765" d="M-3443.5,3842.013h87.963c.018.346.05.674.05,1q0,7.647,0,15.3c0,1.667-.656,2.335-2.3,2.335q-41.734,0-83.467,0c-1.614,0-2.294-.664-2.3-2.246q-.009-7.695,0-15.388C-3443.548,3842.706-3443.519,3842.4-3443.5,3842.013Zm80.548,9.338a5.61,5.61,0,0,0-5.536-5.628,5.606,5.606,0,0,0-5.652,5.512,5.612,5.612,0,0,0,5.582,5.677A5.614,5.614,0,0,0-3362.951,3851.351Zm-67.542-1.9c-1.178,0-2.356-.013-3.534,0a1.886,1.886,0,0,0-2.053,1.817,1.884,1.884,0,0,0,2.059,1.905q3.532.024,7.067,0a1.883,1.883,0,0,0,2.054-1.818,1.891,1.891,0,0,0-2.06-1.9C-3428.137,3849.439-3429.315,3849.452-3430.493,3849.452Zm14.928,0c-1.178,0-2.356-.013-3.534,0a1.886,1.886,0,0,0-2.055,1.816,1.885,1.885,0,0,0,2.058,1.906q3.534.024,7.067,0a1.885,1.885,0,0,0,2.056-1.816,1.892,1.892,0,0,0-2.059-1.906C-3413.209,3849.439-3414.387,3849.452-3415.565,3849.452Zm13.055,1.868a1.881,1.881,0,0,0-1.809-1.862,1.876,1.876,0,0,0-1.908,1.854,1.881,1.881,0,0,0,1.808,1.864A1.881,1.881,0,0,0-3402.51,3851.32Z" fill="#084a93"/>
        <path id="Path_191766" data-name="Path 191766" d="M-3399.5,3883.036q-20.75,0-41.5,0c-1.974,0-2.552-.578-2.552-2.552q0-6.853,0-13.708c0-1.777.628-2.4,2.425-2.4h83.181c1.845,0,2.459.613,2.46,2.457q0,6.9,0,13.8c0,1.778-.629,2.4-2.426,2.4Q-3378.705,3883.038-3399.5,3883.036Zm36.55-9.349a5.608,5.608,0,0,0-5.59-5.574,5.6,5.6,0,0,0-5.6,5.565,5.611,5.611,0,0,0,5.636,5.624A5.616,5.616,0,0,0-3362.951,3873.687Zm-67.478-1.845c-1.209,0-2.418-.014-3.627,0a1.88,1.88,0,0,0-2.024,1.845,1.868,1.868,0,0,0,1.994,1.875q3.58.03,7.161,0a1.876,1.876,0,0,0,2.025-1.845,1.876,1.876,0,0,0-2-1.875C-3428.073,3871.826-3429.251,3871.843-3430.429,3871.842Zm14.8,3.731c1.209,0,2.418.014,3.626,0a1.886,1.886,0,0,0,2.031-1.841,1.868,1.868,0,0,0-1.991-1.878q-3.579-.03-7.16,0a1.875,1.875,0,0,0-2.03,1.84,1.9,1.9,0,0,0,2.083,1.883C-3417.924,3875.584-3416.777,3875.573-3415.63,3875.573Zm9.4-1.94a1.881,1.881,0,0,0,1.831,1.933,1.884,1.884,0,0,0,1.886-1.787,1.882,1.882,0,0,0-1.832-1.931A1.879,1.879,0,0,0-3406.227,3873.633Z" fill="#084a93"/>
        <path id="Path_191767" data-name="Path 191767" d="M-3399.618,3905.426h-41.311c-2.058,0-2.621-.553-2.621-2.576q0-6.854,0-13.708c0-1.724.643-2.373,2.356-2.373h83.367c1.709,0,2.341.647,2.342,2.387q0,6.9,0,13.8c0,1.852-.612,2.468-2.451,2.468Zm36.667-9.339a5.607,5.607,0,0,0-5.58-5.584,5.6,5.6,0,0,0-5.608,5.555,5.611,5.611,0,0,0,5.625,5.634A5.615,5.615,0,0,0-3362.951,3896.087Zm-67.537,1.876c1.178,0,2.356.013,3.533,0a1.891,1.891,0,0,0,2.055-1.818,1.886,1.886,0,0,0-2.059-1.905q-3.532-.023-7.067,0a1.881,1.881,0,0,0-2.054,1.816,1.891,1.891,0,0,0,2.058,1.907C-3432.844,3897.976-3431.666,3897.963-3430.488,3897.963Zm15.016-3.731c-1.209,0-2.418-.013-3.627,0a1.887,1.887,0,0,0-2.055,1.816,1.885,1.885,0,0,0,2.058,1.907q3.534.024,7.067,0a1.886,1.886,0,0,0,2.056-1.817,1.892,1.892,0,0,0-2.059-1.906C-3413.178,3894.219-3414.326,3894.232-3415.472,3894.232Zm12.962,1.858a1.88,1.88,0,0,0-1.819-1.852,1.875,1.875,0,0,0-1.9,1.864,1.881,1.881,0,0,0,1.817,1.854A1.882,1.882,0,0,0-3402.51,3896.09Z" fill="#084a93"/>
        <path id="Path_191768" data-name="Path 191768" d="M-3362.951,3851.351a5.614,5.614,0,0,1-5.606,5.561,5.612,5.612,0,0,1-5.582-5.677,5.606,5.606,0,0,1,5.652-5.512A5.61,5.61,0,0,1-3362.951,3851.351Zm-5.56-1.893a1.883,1.883,0,0,0-1.892,1.778,1.881,1.881,0,0,0,1.823,1.94,1.881,1.881,0,0,0,1.894-1.871A1.881,1.881,0,0,0-3368.511,3849.458Z"/>
        <path id="Path_191769" data-name="Path 191769" d="M-3430.493,3849.452c1.178,0,2.356-.013,3.533,0a1.891,1.891,0,0,1,2.06,1.9,1.883,1.883,0,0,1-2.054,1.818q-3.534.024-7.067,0a1.884,1.884,0,0,1-2.059-1.905,1.886,1.886,0,0,1,2.053-1.817C-3432.849,3849.439-3431.671,3849.452-3430.493,3849.452Z"/>
        <path id="Path_191770" data-name="Path 191770" d="M-3415.565,3849.452c1.178,0,2.356-.013,3.533,0a1.892,1.892,0,0,1,2.059,1.906,1.885,1.885,0,0,1-2.056,1.816q-3.532.024-7.067,0a1.885,1.885,0,0,1-2.058-1.906,1.886,1.886,0,0,1,2.055-1.816C-3417.921,3849.439-3416.743,3849.452-3415.565,3849.452Z"/>
        <path id="Path_191771" data-name="Path 191771" d="M-3402.51,3851.32a1.881,1.881,0,0,1-1.909,1.856,1.881,1.881,0,0,1-1.808-1.864,1.876,1.876,0,0,1,1.908-1.854A1.881,1.881,0,0,1-3402.51,3851.32Z"/>
        <path id="Path_191772" data-name="Path 191772" d="M-3362.951,3873.687a5.616,5.616,0,0,1-5.552,5.615,5.611,5.611,0,0,1-5.636-5.624,5.6,5.6,0,0,1,5.6-5.565A5.608,5.608,0,0,1-3362.951,3873.687Zm-5.56-1.839a1.882,1.882,0,0,0-1.892,1.778,1.881,1.881,0,0,0,1.823,1.94,1.881,1.881,0,0,0,1.894-1.871A1.881,1.881,0,0,0-3368.511,3871.848Z"/>
        <path id="Path_191773" data-name="Path 191773" d="M-3430.429,3871.842c1.178,0,2.356-.016,3.534,0a1.876,1.876,0,0,1,2,1.875,1.876,1.876,0,0,1-2.025,1.845q-3.58.027-7.161,0a1.868,1.868,0,0,1-1.994-1.875,1.88,1.88,0,0,1,2.024-1.845C-3432.847,3871.828-3431.638,3871.842-3430.429,3871.842Z"/>
        <path id="Path_191774" data-name="Path 191774" d="M-3415.63,3875.573c-1.147,0-2.294.011-3.441,0a1.9,1.9,0,0,1-2.083-1.883,1.875,1.875,0,0,1,2.03-1.84q3.58-.024,7.16,0a1.868,1.868,0,0,1,1.991,1.878,1.886,1.886,0,0,1-2.031,1.841C-3413.212,3875.587-3414.421,3875.573-3415.63,3875.573Z"/>
        <path id="Path_191775" data-name="Path 191775" d="M-3406.227,3873.633a1.879,1.879,0,0,1,1.885-1.785,1.882,1.882,0,0,1,1.832,1.931,1.884,1.884,0,0,1-1.886,1.787A1.881,1.881,0,0,1-3406.227,3873.633Z"/>
        <path id="Path_191776" data-name="Path 191776" d="M-3362.951,3896.087a5.615,5.615,0,0,1-5.563,5.6,5.611,5.611,0,0,1-5.625-5.634,5.6,5.6,0,0,1,5.608-5.555A5.607,5.607,0,0,1-3362.951,3896.087Zm-5.667,1.869a1.889,1.889,0,0,0,1.929-1.74,1.882,1.882,0,0,0-1.783-1.978,1.884,1.884,0,0,0-1.929,1.739A1.884,1.884,0,0,0-3368.618,3897.956Z"/>
        <path id="Path_191777" data-name="Path 191777" d="M-3430.488,3897.963c-1.178,0-2.356.013-3.534,0a1.891,1.891,0,0,1-2.058-1.907,1.881,1.881,0,0,1,2.054-1.816q3.534-.023,7.067,0a1.886,1.886,0,0,1,2.059,1.905,1.891,1.891,0,0,1-2.055,1.818C-3428.132,3897.976-3429.31,3897.963-3430.488,3897.963Z"/>
        <path id="Path_191778" data-name="Path 191778" d="M-3415.472,3894.232c1.146,0,2.294-.013,3.44,0a1.892,1.892,0,0,1,2.059,1.906,1.886,1.886,0,0,1-2.056,1.817q-3.532.022-7.067,0a1.885,1.885,0,0,1-2.058-1.907,1.887,1.887,0,0,1,2.055-1.816C-3417.89,3894.219-3416.681,3894.232-3415.472,3894.232Z"/>
        <path id="Path_191779" data-name="Path 191779" d="M-3402.51,3896.09a1.882,1.882,0,0,1-1.9,1.866,1.881,1.881,0,0,1-1.817-1.854,1.875,1.875,0,0,1,1.9-1.864A1.88,1.88,0,0,1-3402.51,3896.09Z"/>
        <path id="Path_191780" data-name="Path 191780" d="M-3368.511,3849.458a1.881,1.881,0,0,1,1.825,1.847,1.881,1.881,0,0,1-1.894,1.871,1.881,1.881,0,0,1-1.823-1.94A1.883,1.883,0,0,1-3368.511,3849.458Z" fill="#ffb30b"/>
        <path id="Path_191781" data-name="Path 191781" d="M-3368.511,3871.848a1.881,1.881,0,0,1,1.825,1.847,1.881,1.881,0,0,1-1.894,1.871,1.881,1.881,0,0,1-1.823-1.94A1.882,1.882,0,0,1-3368.511,3871.848Z" fill="#ffb30b"/>
        <path id="Path_191782" data-name="Path 191782" d="M-3368.618,3897.956a1.884,1.884,0,0,1-1.783-1.979,1.884,1.884,0,0,1,1.929-1.739,1.882,1.882,0,0,1,1.783,1.978A1.889,1.889,0,0,1-3368.618,3897.956Z" fill="#ffb30b"/>
      </g>
      <g id="Group_129913" data-name="Group 129913">
        <path id="Path_191783" data-name="Path 191783" d="M-3447.282,3792.569V3774.1a34.561,34.561,0,0,1,1.2-3.889c2.792-6.391,5.707-12.729,8.461-19.136.965-2.245,2.281-3.935,4.707-4.589,14.772-.416,50.747-.416,66.8,0,2.428.654,3.744,2.347,4.709,4.595,2.728,6.359,5.585,12.663,8.41,18.98a13.909,13.909,0,0,1,1.251,5.777q-.014,7.74,0,15.48a6.28,6.28,0,0,1-1.057,3.6.952.952,0,0,0-.025.858,6.42,6.42,0,0,1,1.084,3.784q-.031,6.993,0,13.987a6.436,6.436,0,0,1-1.076,3.786.95.95,0,0,0,.009.858,6.355,6.355,0,0,1,1.066,3.7c-.018,4.724,0,9.449-.011,14.173a7.2,7.2,0,0,1-.089,1.3,5.55,5.55,0,0,1-5.593,4.648q-42.1.012-84.2,0c-.062,0-.125,0-.187,0a5.384,5.384,0,0,1-4.465-2.472,14.676,14.676,0,0,1-.989-2.189v-16.792c.388-.826.79-1.645,1.152-2.482a.889.889,0,0,0,0-.634c-.362-.836-.765-1.656-1.153-2.482v-16.792c.388-.826.79-1.645,1.152-2.482a.889.889,0,0,0,0-.634C-3446.491,3794.214-3446.894,3793.394-3447.282,3792.569Zm4.9-21.513h85.693c-.106-.271-.175-.471-.261-.664q-4.154-9.362-8.3-18.725a2.31,2.31,0,0,0-2.421-1.466q-31.846.029-63.694,0a2.411,2.411,0,0,0-2.5,1.636c-2.313,5.289-4.679,10.555-7.024,15.83C-3441.375,3768.764-3441.856,3769.868-3442.379,3771.056Zm-1.12,3.812c-.02.389-.049.693-.049,1q0,7.694,0,15.388c0,1.582.681,2.246,2.3,2.246q41.733,0,83.467,0c1.645,0,2.3-.668,2.3-2.336q0-7.647,0-15.294c0-.328-.032-.656-.05-1Zm44,41.023h41.59c1.8,0,2.425-.621,2.426-2.4q0-6.9,0-13.8c0-1.844-.615-2.457-2.46-2.457h-83.181c-1.8,0-2.424.62-2.425,2.4q0,6.853,0,13.708c0,1.974.578,2.552,2.552,2.552Zm-.117,22.39h41.683c1.839,0,2.45-.616,2.451-2.468q0-6.9,0-13.8c0-1.74-.633-2.387-2.342-2.387h-83.367c-1.713,0-2.355.649-2.356,2.373q0,6.853,0,13.708c0,2.023.563,2.576,2.621,2.576Z"/>
        <path id="Path_191784" data-name="Path 191784" d="M-3442.379,3771.056c.523-1.188,1-2.292,1.493-3.392,2.345-5.275,4.711-10.541,7.024-15.83a2.411,2.411,0,0,1,2.5-1.636q31.846.034,63.694,0a2.31,2.31,0,0,1,2.421,1.466q4.126,9.374,8.3,18.725c.086.193.155.393.261.664Z" fill="#b9ddfc"/>
        <path id="Path_191785" data-name="Path 191785" d="M-3443.5,3774.868h87.963c.018.346.05.674.05,1q0,7.647,0,15.294c0,1.668-.656,2.336-2.3,2.336q-41.734,0-83.467,0c-1.614,0-2.294-.664-2.3-2.246q-.009-7.695,0-15.388C-3443.548,3775.561-3443.519,3775.257-3443.5,3774.868Zm80.548,9.338a5.61,5.61,0,0,0-5.536-5.628,5.606,5.606,0,0,0-5.652,5.512,5.612,5.612,0,0,0,5.582,5.677A5.615,5.615,0,0,0-3362.951,3784.206Zm-67.542-1.9c-1.178,0-2.356-.013-3.534,0a1.885,1.885,0,0,0-2.053,1.817,1.885,1.885,0,0,0,2.059,1.905q3.532.024,7.067,0a1.883,1.883,0,0,0,2.054-1.818,1.892,1.892,0,0,0-2.06-1.905C-3428.137,3782.294-3429.315,3782.307-3430.493,3782.307Zm14.928,0c-1.178,0-2.356-.013-3.534,0a1.886,1.886,0,0,0-2.055,1.816,1.885,1.885,0,0,0,2.058,1.906q3.534.024,7.067,0a1.886,1.886,0,0,0,2.056-1.816,1.892,1.892,0,0,0-2.059-1.906C-3413.209,3782.294-3414.387,3782.307-3415.565,3782.307Zm13.055,1.868a1.881,1.881,0,0,0-1.809-1.862,1.876,1.876,0,0,0-1.908,1.854,1.881,1.881,0,0,0,1.808,1.864A1.881,1.881,0,0,0-3402.51,3784.175Z" fill="#084a93"/>
        <path id="Path_191786" data-name="Path 191786" d="M-3399.5,3815.891H-3441c-1.974,0-2.552-.578-2.552-2.552q0-6.854,0-13.708c0-1.777.628-2.4,2.425-2.4h83.181c1.845,0,2.459.613,2.46,2.457q0,6.9,0,13.8c0,1.778-.629,2.4-2.426,2.4Zm36.55-9.349a5.608,5.608,0,0,0-5.59-5.574,5.6,5.6,0,0,0-5.6,5.565,5.61,5.61,0,0,0,5.636,5.624A5.615,5.615,0,0,0-3362.951,3806.542Zm-67.478-1.845c-1.209,0-2.418-.014-3.627,0a1.88,1.88,0,0,0-2.024,1.845,1.868,1.868,0,0,0,1.994,1.875q3.58.03,7.161,0a1.876,1.876,0,0,0,2.025-1.845,1.877,1.877,0,0,0-2-1.875C-3428.073,3804.681-3429.251,3804.7-3430.429,3804.7Zm14.8,3.73c1.209,0,2.418.015,3.626,0a1.886,1.886,0,0,0,2.031-1.842,1.869,1.869,0,0,0-1.991-1.878q-3.579-.028-7.16,0a1.875,1.875,0,0,0-2.03,1.84,1.9,1.9,0,0,0,2.083,1.883C-3417.924,3808.439-3416.777,3808.428-3415.63,3808.427Zm9.4-1.939a1.881,1.881,0,0,0,1.831,1.933,1.884,1.884,0,0,0,1.886-1.787,1.882,1.882,0,0,0-1.832-1.931A1.879,1.879,0,0,0-3406.227,3806.488Z" fill="#084a93"/>
        <path id="Path_191787" data-name="Path 191787" d="M-3399.618,3838.281h-41.311c-2.058,0-2.621-.553-2.621-2.576q0-6.854,0-13.708c0-1.724.643-2.373,2.356-2.373h83.367c1.709,0,2.341.647,2.342,2.387q0,6.9,0,13.8c0,1.852-.612,2.468-2.451,2.468Zm36.667-9.339a5.608,5.608,0,0,0-5.58-5.585,5.605,5.605,0,0,0-5.608,5.556,5.611,5.611,0,0,0,5.625,5.634A5.615,5.615,0,0,0-3362.951,3828.942Zm-67.537,1.875c1.178,0,2.356.013,3.533,0A1.891,1.891,0,0,0-3424.9,3829a1.886,1.886,0,0,0-2.059-1.905q-3.532-.023-7.067,0a1.881,1.881,0,0,0-2.054,1.816,1.891,1.891,0,0,0,2.058,1.907C-3432.844,3830.831-3431.666,3830.817-3430.488,3830.817Zm15.016-3.73c-1.209,0-2.418-.013-3.627,0a1.887,1.887,0,0,0-2.055,1.816,1.885,1.885,0,0,0,2.058,1.907q3.534.024,7.067,0a1.886,1.886,0,0,0,2.056-1.817,1.892,1.892,0,0,0-2.059-1.906C-3413.178,3827.074-3414.326,3827.087-3415.472,3827.087Zm12.962,1.858a1.88,1.88,0,0,0-1.819-1.852,1.875,1.875,0,0,0-1.9,1.864,1.881,1.881,0,0,0,1.817,1.854A1.882,1.882,0,0,0-3402.51,3828.945Z" fill="#084a93"/>
        <path id="Path_191788" data-name="Path 191788" d="M-3362.951,3784.206a5.615,5.615,0,0,1-5.606,5.561,5.612,5.612,0,0,1-5.582-5.677,5.606,5.606,0,0,1,5.652-5.512A5.61,5.61,0,0,1-3362.951,3784.206Zm-5.56-1.893a1.883,1.883,0,0,0-1.892,1.778,1.881,1.881,0,0,0,1.823,1.94,1.881,1.881,0,0,0,1.894-1.871A1.881,1.881,0,0,0-3368.511,3782.313Z"/>
        <path id="Path_191789" data-name="Path 191789" d="M-3430.493,3782.307c1.178,0,2.356-.013,3.533,0a1.892,1.892,0,0,1,2.06,1.905,1.883,1.883,0,0,1-2.054,1.818q-3.534.023-7.067,0a1.885,1.885,0,0,1-2.059-1.905,1.885,1.885,0,0,1,2.053-1.817C-3432.849,3782.294-3431.671,3782.307-3430.493,3782.307Z"/>
        <path id="Path_191790" data-name="Path 191790" d="M-3415.565,3782.307c1.178,0,2.356-.013,3.533,0a1.892,1.892,0,0,1,2.059,1.906,1.886,1.886,0,0,1-2.056,1.816q-3.532.023-7.067,0a1.885,1.885,0,0,1-2.058-1.906,1.886,1.886,0,0,1,2.055-1.816C-3417.921,3782.294-3416.743,3782.307-3415.565,3782.307Z"/>
        <path id="Path_191791" data-name="Path 191791" d="M-3402.51,3784.175a1.881,1.881,0,0,1-1.909,1.856,1.881,1.881,0,0,1-1.808-1.864,1.876,1.876,0,0,1,1.908-1.854A1.881,1.881,0,0,1-3402.51,3784.175Z"/>
        <path id="Path_191792" data-name="Path 191792" d="M-3362.951,3806.542a5.615,5.615,0,0,1-5.552,5.615,5.61,5.61,0,0,1-5.636-5.624,5.6,5.6,0,0,1,5.6-5.565A5.608,5.608,0,0,1-3362.951,3806.542Zm-5.56-1.839a1.882,1.882,0,0,0-1.892,1.778,1.881,1.881,0,0,0,1.823,1.94,1.881,1.881,0,0,0,1.894-1.871A1.882,1.882,0,0,0-3368.511,3804.7Z"/>
        <path id="Path_191793" data-name="Path 191793" d="M-3430.429,3804.7c1.178,0,2.356-.016,3.534,0a1.877,1.877,0,0,1,2,1.875,1.876,1.876,0,0,1-2.025,1.845q-3.58.025-7.161,0a1.868,1.868,0,0,1-1.994-1.875,1.88,1.88,0,0,1,2.024-1.845C-3432.847,3804.683-3431.638,3804.7-3430.429,3804.7Z"/>
        <path id="Path_191794" data-name="Path 191794" d="M-3415.63,3808.428c-1.147,0-2.294.011-3.441,0a1.9,1.9,0,0,1-2.083-1.883,1.875,1.875,0,0,1,2.03-1.84q3.58-.025,7.16,0a1.869,1.869,0,0,1,1.991,1.878,1.886,1.886,0,0,1-2.031,1.842C-3413.212,3808.442-3414.421,3808.427-3415.63,3808.428Z"/>
        <path id="Path_191795" data-name="Path 191795" d="M-3406.227,3806.488a1.879,1.879,0,0,1,1.885-1.785,1.882,1.882,0,0,1,1.832,1.931,1.884,1.884,0,0,1-1.886,1.787A1.881,1.881,0,0,1-3406.227,3806.488Z"/>
        <path id="Path_191796" data-name="Path 191796" d="M-3362.951,3828.942a5.615,5.615,0,0,1-5.563,5.605,5.611,5.611,0,0,1-5.625-5.634,5.605,5.605,0,0,1,5.608-5.556A5.608,5.608,0,0,1-3362.951,3828.942Zm-5.667,1.869a1.889,1.889,0,0,0,1.929-1.74,1.882,1.882,0,0,0-1.783-1.978,1.884,1.884,0,0,0-1.929,1.739A1.884,1.884,0,0,0-3368.618,3830.811Z"/>
        <path id="Path_191797" data-name="Path 191797" d="M-3430.488,3830.817c-1.178,0-2.356.014-3.534,0a1.891,1.891,0,0,1-2.058-1.907,1.881,1.881,0,0,1,2.054-1.816q3.534-.023,7.067,0A1.886,1.886,0,0,1-3424.9,3829a1.891,1.891,0,0,1-2.055,1.818C-3428.132,3830.83-3429.31,3830.817-3430.488,3830.817Z"/>
        <path id="Path_191798" data-name="Path 191798" d="M-3415.472,3827.087c1.146,0,2.294-.013,3.44,0a1.892,1.892,0,0,1,2.059,1.906,1.886,1.886,0,0,1-2.056,1.817q-3.532.022-7.067,0a1.885,1.885,0,0,1-2.058-1.907,1.887,1.887,0,0,1,2.055-1.816C-3417.89,3827.074-3416.681,3827.087-3415.472,3827.087Z"/>
        <path id="Path_191799" data-name="Path 191799" d="M-3402.51,3828.945a1.882,1.882,0,0,1-1.9,1.866,1.881,1.881,0,0,1-1.817-1.854,1.875,1.875,0,0,1,1.9-1.864A1.88,1.88,0,0,1-3402.51,3828.945Z"/>
        <path id="Path_191800" data-name="Path 191800" d="M-3368.511,3782.313a1.881,1.881,0,0,1,1.825,1.847,1.881,1.881,0,0,1-1.894,1.871,1.881,1.881,0,0,1-1.823-1.94A1.883,1.883,0,0,1-3368.511,3782.313Z" fill="#ffb30b"/>
        <path id="Path_191801" data-name="Path 191801" d="M-3368.511,3804.7a1.882,1.882,0,0,1,1.825,1.847,1.881,1.881,0,0,1-1.894,1.871,1.881,1.881,0,0,1-1.823-1.94A1.882,1.882,0,0,1-3368.511,3804.7Z" fill="#ffb30b"/>
        <path id="Path_191802" data-name="Path 191802" d="M-3368.618,3830.811a1.884,1.884,0,0,1-1.783-1.979,1.884,1.884,0,0,1,1.929-1.739,1.882,1.882,0,0,1,1.783,1.978A1.889,1.889,0,0,1-3368.618,3830.811Z" fill="#ffb30b"/>
      </g>
    </g>
  </g>
</svg>
