<svg xmlns="http://www.w3.org/2000/svg" width="400" height="800" viewBox="0 0 400 800">
  <g id="_6" data-name="6" transform="translate(-180 -4276)">
    <g id="Rectangle_293474" data-name="Rectangle 293474" transform="translate(180 4276)" fill="none" stroke="#084a93" stroke-width="2" stroke-dasharray="10 10">
      <rect width="400" height="800" rx="10" stroke="none"/>
      <rect x="1" y="1" width="398" height="798" rx="9" fill="none"/>
    </g>
    <g id="Group_129842" data-name="Group 129842" transform="translate(4625.008 2319.323)">
      <g id="Group_129836" data-name="Group 129836">
        <g id="Group_129832" data-name="Group 129832">
          <path id="Path_191568" data-name="Path 191568" d="M-4124.584,2159.23q-16.9,0-33.791-.009a33.448,33.448,0,0,1-3.482-.189,18.364,18.364,0,0,1-16.2-18.19,18.385,18.385,0,0,1,16.02-18.355,2.241,2.241,0,0,0,2.083-1.414,18.243,18.243,0,0,1,20.778-9.712,1.925,1.925,0,0,0,2.333-.823,26.721,26.721,0,0,1,11.894-8.94,91.088,91.088,0,0,1,8.986-2.361h5.306a4.815,4.815,0,0,0,.769.256c11.869,1.835,20.013,8.355,24.478,19.482.459,1.144.782,2.343,1.17,3.524.815-.04,1.511-.072,2.207-.11a18.406,18.406,0,0,1,18.254,24.347c-2.693,7.66-9.579,12.464-18.017,12.486-11.543.03-23.087.008-34.63.008Zm36.575-30.889c-1.428-12.059-7.446-20.593-19.288-23.57-12.482-3.139-22.02,1.928-28.8,12.589-.5-.211-.923-.389-1.345-.572-8.205-3.555-16.565.158-19.311,8.672-.419,1.3-1.006,1.529-2.256,1.5a13.316,13.316,0,0,0-12.18,6.294,12.954,12.954,0,0,0-.361,14.382,13.268,13.268,0,0,0,12.1,6.921q39.023.047,78.043.02a14.156,14.156,0,0,0,6.93-1.812,13.776,13.776,0,0,0,6.04-17.2,13.865,13.865,0,0,0-15.787-8.277C-4085.439,2127.571-4086.634,2127.954-4088.009,2128.341Z"/>
          <path id="Path_191569" data-name="Path 191569" d="M-4088.009,2128.341c1.375-.387,2.57-.77,3.786-1.058a13.865,13.865,0,0,1,15.787,8.277,13.776,13.776,0,0,1-6.04,17.2,14.156,14.156,0,0,1-6.93,1.812q-39.021-.015-78.043-.02a13.268,13.268,0,0,1-12.1-6.921,12.954,12.954,0,0,1,.361-14.382,13.316,13.316,0,0,1,12.18-6.294c1.25.034,1.837-.2,2.256-1.5,2.746-8.514,11.106-12.227,19.311-8.672.422.183.847.361,1.345.572,6.782-10.661,16.32-15.728,28.8-12.589C-4095.455,2107.748-4089.437,2116.282-4088.009,2128.341Zm-11.01-13.8c-7.326-7.907-21.236-8.216-28.993-.02,1.036,1.033,2.072,2.066,3.091,3.084,7.638-6.123,15.272-6.089,22.815,0ZM-4081.2,2136c3.141.856,4.6,2.416,4.583,4.781s-1.548,3.963-4.534,4.679v4.463c3.821-.19,6.594-1.871,8.188-5.22a8.718,8.718,0,0,0-.938-9.463,8.464,8.464,0,0,0-7.3-3.6Z" fill="#084a93"/>
          <path id="Path_191570" data-name="Path 191570" d="M-4099.019,2114.545l-3.087,3.061c-7.543-6.086-15.177-6.12-22.815,0-1.019-1.018-2.055-2.051-3.091-3.084C-4120.255,2106.329-4106.345,2106.638-4099.019,2114.545Z"/>
          <path id="Path_191571" data-name="Path 191571" d="M-4081.2,2136v-4.36a8.464,8.464,0,0,1,7.3,3.6,8.718,8.718,0,0,1,.938,9.463c-1.594,3.349-4.367,5.03-8.188,5.22v-4.463c2.986-.716,4.514-2.3,4.534-4.679S-4078.057,2136.859-4081.2,2136Z"/>
        </g>
        <g id="Group_129833" data-name="Group 129833">
          <path id="Path_191572" data-name="Path 191572" d="M-4343.777,2165.765a4.392,4.392,0,0,1-3.179,3.326,6.234,6.234,0,0,1-1.464.141q-37.457.009-74.913,0c-2.946,0-4.6-1.7-4.67-4.637a14.088,14.088,0,0,1,.8-4.977c2.491-7.33,4.916-14.683,7.345-22.034a5.486,5.486,0,0,0,.272-1.68q.021-22.245.015-44.488a2.158,2.158,0,0,1,.127-1.119,3.591,3.591,0,0,1,1.161-.992c.228-.133.59-.041.891-.041h62.99c1.854,0,2.222.363,2.222,2.195q0,22.244.007,44.488a4.157,4.157,0,0,0,.163,1.288q4,12.075,8.037,24.138a4.31,4.31,0,0,0,.2.44Zm-80.806-4.973h77.4c-.078-.284-.13-.519-.205-.746q-3.483-10.47-6.953-20.945c-.209-.633-.534-.742-1.129-.742q-30.417.021-60.833-.006a1.006,1.006,0,0,0-1.137.847q-3.422,10.36-6.885,20.707C-4424.423,2160.185-4424.492,2160.471-4424.583,2160.792Zm7.885-68.676v43.39h61.635v-43.39Zm-8.437,71.55c-.188,2.368.173,2.768,2.418,2.768h73.832c.3,0,.6.01.9-.009a1.357,1.357,0,0,0,1.369-1.278,11.369,11.369,0,0,0,.012-1.48Z"/>
          <path id="Path_191573" data-name="Path 191573" d="M-4424.583,2160.792c.091-.321.16-.607.253-.885q3.445-10.353,6.885-20.707a1.006,1.006,0,0,1,1.137-.847q30.417.033,60.833.006c.6,0,.92.109,1.129.742q3.448,10.482,6.953,20.945c.075.227.127.462.205.746Zm38.7-2.763q6.123,0,12.248,0c1.579,0,2.164-.963,1.456-2.39-1.264-2.549-2.562-5.081-3.8-7.643a1.9,1.9,0,0,0-1.93-1.2q-7.973.039-15.947,0a1.9,1.9,0,0,0-1.931,1.2c-1.227,2.536-2.511,5.044-3.765,7.568-.76,1.527-.188,2.464,1.5,2.466Q-4391.963,2158.034-4385.879,2158.029Z" fill="#084a93"/>
          <path id="Path_191574" data-name="Path 191574" d="M-4416.7,2092.116h61.635v43.39H-4416.7Zm30.808,2.757h-25.975c-1.68,0-2.1.411-2.1,2.079q0,16.851,0,33.7c0,1.684.406,2.1,2.074,2.1h52.032c1.629,0,2.055-.42,2.055-2.031q0-16.893,0-33.784c0-1.629-.428-2.06-2.032-2.061Z" fill="#084a93"/>
          <path id="Path_191575" data-name="Path 191575" d="M-4425.135,2163.666h78.535a11.369,11.369,0,0,1-.012,1.48,1.357,1.357,0,0,1-1.369,1.278c-.3.019-.6.009-.9.009h-73.832C-4424.962,2166.434-4425.323,2166.034-4425.135,2163.666Z" fill="#084a93"/>
          <path id="Path_191576" data-name="Path 191576" d="M-4385.879,2158.029q-6.083,0-12.166,0c-1.691,0-2.263-.939-1.5-2.466,1.254-2.524,2.538-5.032,3.765-7.568a1.9,1.9,0,0,1,1.931-1.2q7.974.039,15.947,0a1.9,1.9,0,0,1,1.93,1.2c1.238,2.562,2.536,5.094,3.8,7.643.708,1.427.123,2.387-1.456,2.39Q-4379.755,2158.037-4385.879,2158.029Zm10.344-2.827c-.854-1.715-1.673-3.316-2.444-4.94a1,1,0,0,0-1.061-.661c-3.918.026-7.845.161-11.753-.046-2.068-.109-3.237.461-3.868,2.436a24.114,24.114,0,0,1-1.564,3.211Z"/>
          <path id="Path_191577" data-name="Path 191577" d="M-4385.89,2094.873h26.057c1.6,0,2.032.432,2.032,2.061q0,16.891,0,33.784c0,1.611-.426,2.031-2.055,2.031h-52.032c-1.668,0-2.074-.412-2.074-2.1q0-16.85,0-33.7c0-1.668.417-2.079,2.1-2.079Zm-25.226,35.007h50.445v-32.149h-50.445Z"/>
          <path id="Path_191578" data-name="Path 191578" d="M-4375.535,2155.2h-20.69a24.114,24.114,0,0,0,1.564-3.211c.631-1.975,1.8-2.545,3.868-2.436,3.908.207,7.835.072,11.753.046a1,1,0,0,1,1.061.661C-4377.208,2151.886-4376.389,2153.487-4375.535,2155.2Z" fill="#ffb30b"/>
          <path id="Path_191579" data-name="Path 191579" d="M-4411.116,2129.88v-32.149h50.445v32.149Zm30.868-18.254h2.716v-2.663h-2.716Zm5.519,5.644v-2.684h-2.682v2.684Z" fill="#b9ddfc"/>
          <path id="Path_191580" data-name="Path 191580" d="M-4380.248,2111.626v-2.663h2.716v2.663Z"/>
          <path id="Path_191581" data-name="Path 191581" d="M-4374.729,2117.27h-2.682v-2.684h2.682Z"/>
        </g>
        <g id="Group_129834" data-name="Group 129834">
          <path id="Path_191582" data-name="Path 191582" d="M-4370.15,2577.462a15.745,15.745,0,0,1-15.862,15.66,15.719,15.719,0,0,1-15.591-15.913,15.689,15.689,0,0,1,15.84-15.545A15.742,15.742,0,0,1-4370.15,2577.462Zm-15.749-12.3A12.178,12.178,0,0,0-4398.1,2577.4a12.205,12.205,0,0,0,12.23,12.225,12.273,12.273,0,0,0,12.234-12.252A12.226,12.226,0,0,0-4385.9,2565.163Z"/>
          <path id="Path_191583" data-name="Path 191583" d="M-4350.9,2585.556q0-1.98,0-3.962,0-3.709,0-7.418,0-2.259,0-4.52a4.92,4.92,0,0,0-.27-1.915,1.418,1.418,0,0,0-.694-.632,5.811,5.811,0,0,0-1.893-.227q-1.106,0-2.21,0h-4.559l.1-.1-.053-.007c1.4-1.382,2.718-2.674,4.008-3.957l.919-.921c1.439-1.443,1.448-2.2.032-3.622-1.72-1.725-3.429-3.463-5.179-5.158a2.766,2.766,0,0,1-.293-.333q-2.379-2.38-4.766-4.754l-.039-.04c-.421-.418-.839-.838-1.26-1.256-1.052-1.046-1.96-1.033-3.027.016-.226.222-.449.447-.675.671-.035.037-.069.075-.108.112l-.219.213q-1.4,1.395-2.8,2.8c-.457.462-.921.932-1.4,1.414l-.013-.108-.091.075c0-2.486,0-4.776,0-7.066a6.106,6.106,0,0,0-.05-.819c-.162-1.163-.743-1.59-2.127-1.649-.086,0-.172-.006-.265-.006q-6.807,0-13.615,0l-2.444.01a7,7,0,0,0-1.125.1,1.382,1.382,0,0,1-.571.25.984.984,0,0,0-.45.353,5.478,5.478,0,0,0-.354,2.646v6.268c-1.264-1.261-2.429-2.425-3.567-3.559v.152c-.7-.752-1.229-1.363-1.807-1.92-.073-.07-.145-.133-.217-.193a3.684,3.684,0,0,0-.359-.258l-.057-.032c-.036-.021-.072-.04-.107-.058a1.514,1.514,0,0,0-1.156-.1,3.3,3.3,0,0,0-1.095.74c-.645.634-1.248,1.33-2.043,2.18,0-.051-.008-.1-.011-.144-1.123,1.117-2.242,2.236-3.343,3.373a2.45,2.45,0,0,1-.532.425,2.655,2.655,0,0,1-.434.533c-1.312,1.266-2.6,2.557-3.885,3.852a4.963,4.963,0,0,1-.374.377l-1.066,1.076c-1.184,1.2-1.17,2.04.017,3.254.115.119.234.234.351.351a2.711,2.711,0,0,1,.339.3c1.405,1.455,2.858,2.864,4.424,4.422h0l.1.1h-1.955q-2.533,0-5.065,0h-.211c-1.77.013-2.367.519-2.437,2.184v.037q-.012,7.448,0,14.894l.008,1.9a3.57,3.57,0,0,0,.067.575,1.311,1.311,0,0,1,.284.607.9.9,0,0,0,.314.414,2.516,2.516,0,0,0,1.51.383c2.162.012,4.324,0,6.487.007.243,0,.486.05.918.1-1.218,1.209-2.37,2.348-3.5,3.469h.13c-.752.705-1.363,1.23-1.92,1.808a3.819,3.819,0,0,0-.251.289c-.026.034-.052.067-.076.1s-.066.094-.095.14l-.015.023a1.573,1.573,0,0,0-.022,1.76c.034.056.069.111.11.167l0,.009c.039.053.083.108.126.163.061.075.126.15.2.225.664.689,1.392,1.316,2.292,2.158l-.15.012q2.016,2.017,4.034,4.034a3,3,0,0,1,.3.274q.627.649,1.262,1.293l2.867,2.866.923.915a5.42,5.42,0,0,0,1.312,1.017,1.412,1.412,0,0,0,1.12-.006,7.379,7.379,0,0,0,1.739-1.448c.5-.5,1.009-1.011,1.521-1.526l2.988-3.018v.017l.006-.006c0,2.7-.008,5.084,0,7.473a4.048,4.048,0,0,0,.072.776c.211.984.875,1.407,2.135,1.409q8.288.014,16.577,0a3.175,3.175,0,0,0,1.186-.19l.018-.006c.028-.012.053-.026.08-.039s.073-.034.107-.054l.009-.006a1.884,1.884,0,0,0,.8-1.674c0-.07.006-.139.007-.213.012-2.162,0-4.325.007-6.487,0-.243.05-.487.1-.918l.006.007h0l.114.115c1.714,1.727,3.292,3.326,4.88,4.913,1.233,1.232,2,1.317,3.175.263.026-.024.052-.047.078-.074q2.445-2.431,4.882-4.87l1.877-1.876q2.4-2.4,4.785-4.8a5.016,5.016,0,0,0,.927-1.22,1.528,1.528,0,0,0-.164-1.393,5.5,5.5,0,0,0-.526-.664l0,0c-1.491-1.518-3.008-3.011-4.508-4.52-.025-.025-.049-.052-.073-.078l-.716-.714c2.673,0,5.045.009,7.414,0C-4351.464,2587.829-4350.922,2587.263-4350.9,2585.556Zm-4.637-1.176c-1.7,0-3.406.012-5.108.006-.612.005-1.223.007-1.834-.015h-.162a2.064,2.064,0,0,0-1.964,1.046l-.045.076-.033.058q-.09.168-.17.357c-.457,1.095-.628,2.045.358,2.99,1.736,1.666,3.422,3.383,5.107,5.073a7.714,7.714,0,0,0,.8.5l-10.219,10.209c-.646-.737-1.313-1.556-2.042-2.316-1.115-1.164-2.27-2.291-3.414-3.429l-.087-.085a2.992,2.992,0,0,0-1.719-.823,5.045,5.045,0,0,0-1.22.383,6.153,6.153,0,0,0-.666.315c-.081.067-.162.136-.244.212a2.648,2.648,0,0,0-.671,1.724c-.013.4-.018.808-.025,1.211,0,2.289,0,4.585,0,6.938h-.006v.018h-14v-5.952c0-.51-.008-1.02,0-1.529,0-.162,0-.323,0-.485a5.456,5.456,0,0,0-.067-.974,2,2,0,0,0-.945-1.2,6.881,6.881,0,0,0-.648-.3c-.171-.071-.327-.132-.472-.184a2.146,2.146,0,0,0-1.838.137,6.447,6.447,0,0,0-.7.628q-.518.517-1.031,1.035-.907.924-1.824,1.836l-2.558,2.579-.016-.016-.12.12-9.908-9.911.129-.129-.128-.129c.527-.455,1.293-1.061,2-1.736q1.692-1.689,3.4-3.4a3.306,3.306,0,0,0,1.081-1.948,4.325,4.325,0,0,0-.391-1.357,3.882,3.882,0,0,0-.3-.582c-.066-.081-.136-.163-.212-.245a2.65,2.65,0,0,0-1.724-.671c-.515-.016-1.029-.025-1.544-.032-1.767,0-3.544,0-5.348,0h-1.276v-14h5.983c.652,0,1.305-.011,1.957,0h.026a4.133,4.133,0,0,0,1.223-.13,1.929,1.929,0,0,0,.9-.787,6.092,6.092,0,0,0,.352-.743,7.518,7.518,0,0,0,.295-.817,1.958,1.958,0,0,0-.132-1.322,5.1,5.1,0,0,0-.744-.87c-1.846-1.842-3.7-3.675-5.45-5.413l.038-.038c-.019-.022-.034-.041-.044-.052l9.887-9.88.055.055.129-.128c.446.516,1.037,1.262,1.7,1.954,1.136,1.137,2.3,2.3,3.46,3.461a3.3,3.3,0,0,0,1.925,1.068,4.366,4.366,0,0,0,1.361-.391,3.61,3.61,0,0,0,.72-.4c.043-.038.087-.073.131-.113a2.5,2.5,0,0,0,.644-1.627c.018-.6.028-1.192.034-1.788,0-1.371,0-2.747,0-4.138q0-.641,0-1.28v-1.064h14v.025h0v2.251c0,1.355.009,2.711,0,4.067.005.665.011,1.329-.009,1.993,0,.041,0,.08,0,.119a2.2,2.2,0,0,0,1.583,1.973,2.507,2.507,0,0,0,2.378.087,2.482,2.482,0,0,0,.473-.383c1.674-1.711,3.374-3.4,5.068-5.088a5.193,5.193,0,0,0,.585-.914l10.209,10.219c-.737.646-1.556,1.313-2.316,2.041q-.672.645-1.33,1.3l-.631.631q-.735.739-1.468,1.48l-.035.036a3.048,3.048,0,0,0-.873,1.768,5.033,5.033,0,0,0,.383,1.221,5.358,5.358,0,0,0,.372.76c.048.058.1.116.15.175a2.5,2.5,0,0,0,1.627.644c.487.014.973.022,1.46.028,2.241,0,4.489,0,6.791,0v0h.019v14Z"/>
          <path id="Path_191584" data-name="Path 191584" d="M-4354.47,2570.38v0c-2.3,0-4.55,0-6.791,0-.487-.006-.973-.014-1.46-.028a2.5,2.5,0,0,1-1.627-.644c-.054-.059-.1-.117-.15-.175a5.358,5.358,0,0,1-.372-.76,5.033,5.033,0,0,1-.383-1.221,3.048,3.048,0,0,1,.873-1.768l.035-.036q.735-.74,1.468-1.48l.631-.631q.66-.657,1.33-1.3c.76-.728,1.579-1.4,2.316-2.041l-10.209-10.219a5.193,5.193,0,0,1-.585.914c-1.694,1.692-3.394,3.377-5.068,5.088a2.482,2.482,0,0,1-.473.383,2.507,2.507,0,0,1-2.378-.087,2.2,2.2,0,0,1-1.583-1.973c0-.039,0-.078,0-.119.02-.664.014-1.328.009-1.993.005-1.356,0-2.712,0-4.067v-2.251h0v-.025h-14V2547q0,.639,0,1.28c0,1.391,0,2.767,0,4.138-.006.6-.016,1.192-.034,1.788a2.5,2.5,0,0,1-.644,1.627c-.044.04-.088.075-.131.113a3.61,3.61,0,0,1-.72.4,4.366,4.366,0,0,1-1.361.391,3.3,3.3,0,0,1-1.925-1.068c-1.164-1.163-2.324-2.324-3.46-3.461-.659-.692-1.25-1.438-1.7-1.954l-.129.128-.055-.055-9.887,9.88c.01.011.025.03.044.052l-.038.038c1.75,1.738,3.6,3.571,5.45,5.413a5.1,5.1,0,0,1,.744.87,1.958,1.958,0,0,1,.132,1.322,7.518,7.518,0,0,1-.295.817,6.092,6.092,0,0,1-.352.743,1.929,1.929,0,0,1-.9.787,4.133,4.133,0,0,1-1.223.13h-.026c-.652-.01-1.305,0-1.957,0h-5.983v14h1.276c1.8,0,3.581,0,5.348,0,.515.007,1.029.016,1.544.032a2.65,2.65,0,0,1,1.724.671c.076.082.146.164.212.245a3.882,3.882,0,0,1,.3.582,4.325,4.325,0,0,1,.391,1.357,3.306,3.306,0,0,1-1.081,1.948q-1.708,1.708-3.4,3.4c-.7.675-1.47,1.281-2,1.736l.128.129-.129.129,9.908,9.911.12-.12.016.016,2.558-2.579q.915-.912,1.824-1.836.515-.517,1.031-1.035a6.447,6.447,0,0,1,.7-.628,2.146,2.146,0,0,1,1.838-.137c.145.052.3.113.472.184a6.881,6.881,0,0,1,.648.3,2,2,0,0,1,.945,1.2,5.456,5.456,0,0,1,.067.974c0,.162,0,.323,0,.485-.008.509,0,1.019,0,1.529v5.952h14v-.018h.006c0-2.353,0-4.649,0-6.938.007-.4.012-.807.025-1.211a2.648,2.648,0,0,1,.671-1.724c.082-.076.163-.145.244-.212a6.153,6.153,0,0,1,.666-.315,5.045,5.045,0,0,1,1.22-.383,2.992,2.992,0,0,1,1.719.823l.087.085c1.144,1.138,2.3,2.265,3.414,3.429.729.76,1.4,1.579,2.042,2.316l10.219-10.209a7.714,7.714,0,0,1-.8-.5c-1.685-1.69-3.371-3.407-5.107-5.073-.986-.945-.815-1.9-.358-2.99q.08-.189.17-.357l.033-.058.045-.076a2.064,2.064,0,0,1,1.964-1.046h.162c.611.022,1.222.02,1.834.015,1.7.006,3.405-.006,5.108-.006h1.083v-14Zm-31.542,22.742a15.72,15.72,0,0,1-15.591-15.913,15.689,15.689,0,0,1,15.84-15.545,15.742,15.742,0,0,1,15.613,15.8A15.745,15.745,0,0,1-4386.012,2593.122Z" fill="#084a93"/>
        </g>
        <g id="Group_129835" data-name="Group 129835">
          <path id="Path_191585" data-name="Path 191585" d="M-4119.115,2530.074a13.25,13.25,0,0,1,5.221,2.165,10.933,10.933,0,0,1,3.625,12.789,10.971,10.971,0,0,1-11.246,6.826,10.9,10.9,0,0,1-9.647-9.134,10.872,10.872,0,0,1,8.944-12.479,3.439,3.439,0,0,0,.516-.167Z" fill="#b9ddfc" stroke="#000" stroke-linecap="round" stroke-linejoin="round" stroke-width="3"/>
          <path id="Path_191586" data-name="Path 191586" d="M-4109.5,2588.327v1.192q0,10.021,0,20.044c0,2.778-1.426,4.2-4.206,4.206q-6.7.006-13.393,0c-2.793,0-4.22-1.418-4.221-4.19q0-10.022,0-20.043v-1.247c-1.076,0-2.109,0-3.142,0-2.683-.008-4.125-1.407-4.131-4.083q-.023-10.437,0-20.874c.006-2.505,1.646-4.013,3.472-5.344,2.051-1.494,4.49-1.787,6.911-2.019a81.022,81.022,0,0,1,15.582,0c2.9.282,5.746.751,8.012,2.856a6.675,6.675,0,0,1,2.426,5.234c-.087,6.71-.023,13.423-.037,20.135,0,2.683-1.442,4.09-4.115,4.1-.77,0-1.54,0-2.309,0C-4108.89,2588.292-4109.131,2588.311-4109.5,2588.327Z" fill="#084a93" stroke="#000" stroke-linecap="round" stroke-linejoin="round" stroke-width="3"/>
          <path id="Path_191587" data-name="Path 191587" d="M-4120.383,2617.335a87.4,87.4,0,0,0,23.406-2.654,27.519,27.519,0,0,0,7.683-3.066c2.279-1.451,2-1.807.058-2.877a39.23,39.23,0,0,0-6.764-2.864c-2.3-.747-4.722-1.115-7.079-1.7a3.414,3.414,0,0,1-2.658-2.879,3.456,3.456,0,0,1,1.385-3.5,3.47,3.47,0,0,1,2.879-.662,52.382,52.382,0,0,1,13.925,4.129,14.62,14.62,0,0,1,5.629,4.376,7.392,7.392,0,0,1-.854,9.9,21.777,21.777,0,0,1-7.848,4.719,68.714,68.714,0,0,1-16.708,3.7,112.831,112.831,0,0,1-16.043.692,92.26,92.26,0,0,1-23.609-3.3,28.848,28.848,0,0,1-9.478-4.423c-1.9-1.444-3.486-3.157-3.856-5.642-.463-3.1.846-5.5,3.122-7.472a19.162,19.162,0,0,1,6.908-3.809c3.488-1.08,7.04-1.971,10.6-2.8a3.573,3.573,0,0,1,4.485,2.78,3.669,3.669,0,0,1-3.22,4.367,46.72,46.72,0,0,0-10.955,3.173,19.147,19.147,0,0,0-2.782,1.622c-1.24.861-1.262,1.343.051,2.13a26.05,26.05,0,0,0,4.371,2.149c7.692,2.819,15.722,3.671,23.844,3.913C-4122.724,2617.365-4121.553,2617.335-4120.383,2617.335Z" fill="#ffb30b" stroke="#000" stroke-linecap="round" stroke-linejoin="round" stroke-width="3"/>
        </g>
      </g>
      <g id="Group_129839" data-name="Group 129839">
        <g id="Group_129837" data-name="Group 129837">
          <path id="Path_191588" data-name="Path 191588" d="M-4285.254,2041.406v-15.419a28.812,28.812,0,0,1,1-3.245c2.331-5.335,4.764-10.626,7.063-15.974a5.909,5.909,0,0,1,3.929-3.831c12.331-.346,42.359-.346,55.756,0a5.91,5.91,0,0,1,3.93,3.836c2.277,5.308,4.662,10.57,7.02,15.843a11.6,11.6,0,0,1,1.044,4.822q-.01,6.461,0,12.921a5.23,5.23,0,0,1-.881,3.009.8.8,0,0,0-.021.716,5.358,5.358,0,0,1,.9,3.158q-.026,5.838,0,11.676a5.376,5.376,0,0,1-.9,3.16.788.788,0,0,0,.007.716,5.307,5.307,0,0,1,.89,3.085c-.015,3.943,0,7.887-.009,11.831a6.024,6.024,0,0,1-.075,1.083,4.633,4.633,0,0,1-4.668,3.88q-35.144.01-70.286,0c-.052,0-.1,0-.155,0a4.5,4.5,0,0,1-3.728-2.063,12.38,12.38,0,0,1-.825-1.827v-14.017c.323-.689.659-1.373.962-2.072a.743.743,0,0,0,0-.529c-.3-.7-.638-1.382-.962-2.071v-14.017c.323-.689.659-1.373.962-2.072a.742.742,0,0,0,0-.529C-4284.594,2042.779-4284.93,2042.095-4285.254,2041.406Zm4.093-17.957h71.529c-.089-.226-.147-.393-.218-.554q-3.468-7.815-6.93-15.63a1.926,1.926,0,0,0-2.02-1.224q-26.583.024-53.166,0a2.015,2.015,0,0,0-2.087,1.366c-1.93,4.415-3.9,8.81-5.863,13.214C-4280.324,2021.536-4280.725,2022.457-4281.161,2023.449Zm-.936,3.182c-.016.324-.041.579-.041.833q0,6.422,0,12.844c0,1.321.569,1.875,1.916,1.875q34.836,0,69.671,0c1.373,0,1.92-.557,1.921-1.949q0-6.384,0-12.767c0-.274-.027-.548-.042-.836Zm36.726,34.243h34.716c1.5,0,2.024-.518,2.025-2q0-5.76,0-11.52c0-1.539-.512-2.051-2.053-2.051q-34.716,0-69.432,0c-1.5,0-2.023.518-2.024,2q0,5.721,0,11.442c0,1.647.483,2.13,2.13,2.13Zm-.1,18.689h34.794c1.535,0,2.045-.514,2.045-2.06q0-5.76,0-11.52c0-1.453-.528-1.993-1.955-1.993h-69.588c-1.429,0-1.965.542-1.966,1.981q0,5.721,0,11.442c0,1.689.47,2.151,2.188,2.151Z"/>
          <path id="Path_191589" data-name="Path 191589" d="M-4281.161,2023.449c.436-.992.837-1.913,1.245-2.831,1.958-4.4,3.933-8.8,5.863-13.214a2.015,2.015,0,0,1,2.087-1.366q26.583.03,53.166,0a1.926,1.926,0,0,1,2.02,1.224q3.445,7.824,6.93,15.63c.071.161.129.328.218.554Z" fill="#b9ddfc"/>
          <path id="Path_191590" data-name="Path 191590" d="M-4282.1,2026.631h73.424c.015.288.042.562.042.836q0,6.384,0,12.767c0,1.392-.548,1.949-1.921,1.949q-34.836,0-69.671,0c-1.347,0-1.914-.554-1.916-1.875q-.006-6.422,0-12.844C-4282.138,2027.21-4282.113,2026.955-4282.1,2026.631Zm67.235,7.794a4.682,4.682,0,0,0-4.621-4.7,4.681,4.681,0,0,0-4.718,4.6,4.685,4.685,0,0,0,4.659,4.739A4.687,4.687,0,0,0-4214.862,2034.425Zm-56.378-1.585c-.984,0-1.967-.01-2.95,0a1.575,1.575,0,0,0-1.714,1.517,1.574,1.574,0,0,0,1.719,1.591q2.949.018,5.9,0a1.573,1.573,0,0,0,1.714-1.518,1.578,1.578,0,0,0-1.719-1.59C-4269.274,2032.83-4270.257,2032.84-4271.24,2032.84Zm12.46,0c-.983,0-1.966-.01-2.949,0a1.576,1.576,0,0,0-1.716,1.516,1.574,1.574,0,0,0,1.718,1.592q2.949.019,5.9,0a1.575,1.575,0,0,0,1.716-1.517,1.58,1.58,0,0,0-1.718-1.591C-4256.813,2032.83-4257.8,2032.84-4258.78,2032.84Zm10.9,1.56a1.572,1.572,0,0,0-1.51-1.555,1.567,1.567,0,0,0-1.593,1.548,1.569,1.569,0,0,0,1.509,1.556A1.571,1.571,0,0,0-4247.882,2034.4Z" fill="#084a93"/>
          <path id="Path_191591" data-name="Path 191591" d="M-4245.371,2060.874h-34.638c-1.647,0-2.13-.483-2.13-2.13q0-5.721,0-11.442c0-1.483.525-2,2.024-2q34.716,0,69.432,0c1.541,0,2.053.512,2.053,2.051q0,5.76,0,11.52c0,1.484-.525,2-2.025,2Zm30.509-7.8a4.682,4.682,0,0,0-4.666-4.654,4.679,4.679,0,0,0-4.673,4.646,4.685,4.685,0,0,0,4.7,4.694A4.687,4.687,0,0,0-4214.862,2053.07Zm-56.325-1.54c-1.009,0-2.018-.013-3.027,0a1.569,1.569,0,0,0-1.69,1.54,1.559,1.559,0,0,0,1.665,1.565q2.988.026,5.977,0a1.566,1.566,0,0,0,1.69-1.541,1.565,1.565,0,0,0-1.665-1.564C-4269.22,2051.516-4270.2,2051.53-4271.187,2051.53Zm12.353,3.113c1.009,0,2.018.013,3.027,0a1.574,1.574,0,0,0,1.7-1.538,1.559,1.559,0,0,0-1.662-1.567q-2.988-.025-5.977,0a1.565,1.565,0,0,0-1.694,1.535,1.583,1.583,0,0,0,1.739,1.572C-4260.749,2054.653-4259.791,2054.644-4258.834,2054.643Zm7.849-1.618a1.57,1.57,0,0,0,1.529,1.613,1.572,1.572,0,0,0,1.573-1.492,1.569,1.569,0,0,0-1.529-1.611A1.567,1.567,0,0,0-4250.985,2053.025Z" fill="#084a93"/>
          <path id="Path_191592" data-name="Path 191592" d="M-4245.469,2079.563h-34.482c-1.718,0-2.188-.462-2.188-2.151q0-5.721,0-11.442c0-1.439.537-1.981,1.966-1.981h69.588c1.427,0,1.954.54,1.955,1.993q0,5.76,0,11.52c0,1.546-.51,2.06-2.045,2.06Zm30.607-7.8a4.681,4.681,0,0,0-4.658-4.661,4.678,4.678,0,0,0-4.681,4.637,4.684,4.684,0,0,0,4.7,4.7A4.687,4.687,0,0,0-4214.862,2071.767Zm-56.374,1.566c.983,0,1.966.01,2.949,0a1.578,1.578,0,0,0,1.715-1.517,1.574,1.574,0,0,0-1.718-1.59q-2.949-.018-5.9,0a1.57,1.57,0,0,0-1.715,1.516,1.577,1.577,0,0,0,1.718,1.591C-4273.2,2073.343-4272.22,2073.333-4271.236,2073.333Zm12.534-3.115c-1.009,0-2.019-.01-3.028,0a1.576,1.576,0,0,0-1.715,1.516,1.574,1.574,0,0,0,1.718,1.592q2.949.019,5.9,0a1.575,1.575,0,0,0,1.716-1.516,1.58,1.58,0,0,0-1.718-1.592C-4256.788,2070.208-4257.745,2070.218-4258.7,2070.218Zm10.82,1.552a1.57,1.57,0,0,0-1.519-1.546,1.565,1.565,0,0,0-1.584,1.556,1.569,1.569,0,0,0,1.517,1.547A1.571,1.571,0,0,0-4247.882,2071.77Z" fill="#084a93"/>
          <path id="Path_191593" data-name="Path 191593" d="M-4214.862,2034.425a4.687,4.687,0,0,1-4.68,4.642,4.685,4.685,0,0,1-4.659-4.739,4.681,4.681,0,0,1,4.718-4.6A4.682,4.682,0,0,1-4214.862,2034.425Zm-4.641-1.58a1.571,1.571,0,0,0-1.579,1.484,1.571,1.571,0,0,0,1.522,1.62,1.571,1.571,0,0,0,1.58-1.562A1.57,1.57,0,0,0-4219.5,2032.845Z"/>
          <path id="Path_191594" data-name="Path 191594" d="M-4271.24,2032.84c.983,0,1.966-.01,2.949,0a1.578,1.578,0,0,1,1.719,1.59,1.573,1.573,0,0,1-1.714,1.518q-2.95.018-5.9,0a1.574,1.574,0,0,1-1.719-1.591,1.575,1.575,0,0,1,1.714-1.517C-4273.207,2032.83-4272.224,2032.84-4271.24,2032.84Z"/>
          <path id="Path_191595" data-name="Path 191595" d="M-4258.78,2032.84c.983,0,1.967-.01,2.95,0a1.58,1.58,0,0,1,1.718,1.591,1.575,1.575,0,0,1-1.716,1.517q-2.949.018-5.9,0a1.574,1.574,0,0,1-1.718-1.592,1.576,1.576,0,0,1,1.716-1.516C-4260.746,2032.83-4259.763,2032.84-4258.78,2032.84Z"/>
          <path id="Path_191596" data-name="Path 191596" d="M-4247.882,2034.4a1.571,1.571,0,0,1-1.594,1.549,1.569,1.569,0,0,1-1.509-1.556,1.567,1.567,0,0,1,1.593-1.548A1.572,1.572,0,0,1-4247.882,2034.4Z"/>
          <path id="Path_191597" data-name="Path 191597" d="M-4214.862,2053.07a4.687,4.687,0,0,1-4.635,4.686,4.685,4.685,0,0,1-4.7-4.694,4.679,4.679,0,0,1,4.673-4.646A4.682,4.682,0,0,1-4214.862,2053.07Zm-4.641-1.535a1.57,1.57,0,0,0-1.579,1.483,1.57,1.57,0,0,0,1.522,1.62,1.571,1.571,0,0,0,1.58-1.562A1.569,1.569,0,0,0-4219.5,2051.535Z"/>
          <path id="Path_191598" data-name="Path 191598" d="M-4271.187,2051.53c.984,0,1.967-.014,2.95,0a1.565,1.565,0,0,1,1.665,1.564,1.566,1.566,0,0,1-1.69,1.541q-2.988.021-5.977,0a1.559,1.559,0,0,1-1.665-1.565,1.569,1.569,0,0,1,1.69-1.54C-4273.205,2051.517-4272.2,2051.53-4271.187,2051.53Z"/>
          <path id="Path_191599" data-name="Path 191599" d="M-4258.834,2054.643c-.957,0-1.915.01-2.872,0a1.583,1.583,0,0,1-1.739-1.572,1.565,1.565,0,0,1,1.694-1.535q2.99-.021,5.977,0a1.559,1.559,0,0,1,1.662,1.567,1.574,1.574,0,0,1-1.7,1.538C-4256.816,2054.656-4257.825,2054.643-4258.834,2054.643Z"/>
          <path id="Path_191600" data-name="Path 191600" d="M-4250.985,2053.025a1.567,1.567,0,0,1,1.573-1.49,1.569,1.569,0,0,1,1.529,1.611,1.572,1.572,0,0,1-1.573,1.492A1.57,1.57,0,0,1-4250.985,2053.025Z"/>
          <path id="Path_191601" data-name="Path 191601" d="M-4214.862,2071.767a4.687,4.687,0,0,1-4.643,4.678,4.684,4.684,0,0,1-4.7-4.7,4.678,4.678,0,0,1,4.681-4.637A4.681,4.681,0,0,1-4214.862,2071.767Zm-4.731,1.56a1.576,1.576,0,0,0,1.611-1.452,1.57,1.57,0,0,0-1.488-1.651,1.573,1.573,0,0,0-1.611,1.451A1.572,1.572,0,0,0-4219.593,2073.327Z"/>
          <path id="Path_191602" data-name="Path 191602" d="M-4271.236,2073.333c-.984,0-1.967.01-2.95,0a1.577,1.577,0,0,1-1.718-1.591,1.57,1.57,0,0,1,1.715-1.516q2.949-.018,5.9,0a1.574,1.574,0,0,1,1.718,1.59,1.578,1.578,0,0,1-1.715,1.517C-4269.27,2073.343-4270.253,2073.333-4271.236,2073.333Z"/>
          <path id="Path_191603" data-name="Path 191603" d="M-4258.7,2070.218c.957,0,1.914-.01,2.872,0a1.58,1.58,0,0,1,1.718,1.592,1.575,1.575,0,0,1-1.716,1.516q-2.949.019-5.9,0a1.574,1.574,0,0,1-1.718-1.592,1.576,1.576,0,0,1,1.715-1.516C-4260.721,2070.208-4259.711,2070.218-4258.7,2070.218Z"/>
          <path id="Path_191604" data-name="Path 191604" d="M-4247.882,2071.77a1.571,1.571,0,0,1-1.586,1.557,1.569,1.569,0,0,1-1.517-1.547,1.565,1.565,0,0,1,1.584-1.556A1.57,1.57,0,0,1-4247.882,2071.77Z"/>
          <path id="Path_191605" data-name="Path 191605" d="M-4219.5,2032.845a1.57,1.57,0,0,1,1.523,1.542,1.571,1.571,0,0,1-1.58,1.562,1.571,1.571,0,0,1-1.522-1.62A1.571,1.571,0,0,1-4219.5,2032.845Z" fill="#ffb30b"/>
          <path id="Path_191606" data-name="Path 191606" d="M-4219.5,2051.535a1.569,1.569,0,0,1,1.523,1.541,1.571,1.571,0,0,1-1.58,1.562,1.57,1.57,0,0,1-1.522-1.62A1.57,1.57,0,0,1-4219.5,2051.535Z" fill="#ffb30b"/>
          <path id="Path_191607" data-name="Path 191607" d="M-4219.593,2073.327a1.572,1.572,0,0,1-1.488-1.652,1.573,1.573,0,0,1,1.611-1.451,1.57,1.57,0,0,1,1.488,1.651A1.576,1.576,0,0,1-4219.593,2073.327Z" fill="#ffb30b"/>
        </g>
        <g id="Group_129838" data-name="Group 129838">
          <path id="Path_191608" data-name="Path 191608" d="M-4244.088,2616.634a13.247,13.247,0,0,1,5.221,2.165,10.932,10.932,0,0,1,3.625,12.789,10.973,10.973,0,0,1-11.246,6.827,10.9,10.9,0,0,1-9.647-9.135,10.871,10.871,0,0,1,8.944-12.479,3.568,3.568,0,0,0,.516-.167Z" fill="#b9ddfc" stroke="#000" stroke-linecap="round" stroke-linejoin="round" stroke-width="3"/>
          <path id="Path_191609" data-name="Path 191609" d="M-4234.47,2674.887v1.192q0,10.023,0,20.044c0,2.778-1.426,4.2-4.206,4.206q-6.7.006-13.393,0c-2.793,0-4.22-1.418-4.221-4.19q0-10.021,0-20.043v-1.247c-1.076,0-2.109,0-3.142,0-2.684-.009-4.125-1.408-4.131-4.084q-.023-10.437,0-20.874c.006-2.505,1.646-4.013,3.472-5.344,2.051-1.494,4.49-1.787,6.911-2.019a81.042,81.042,0,0,1,15.582,0c2.9.282,5.746.751,8.012,2.856a6.67,6.67,0,0,1,2.425,5.233c-.087,6.711-.022,13.424-.036,20.136-.005,2.683-1.442,4.09-4.115,4.1-.77,0-1.54,0-2.309,0C-4233.863,2674.852-4234.1,2674.871-4234.47,2674.887Z" fill="#084a93" stroke="#000" stroke-linecap="round" stroke-linejoin="round" stroke-width="3"/>
          <path id="Path_191610" data-name="Path 191610" d="M-4245.356,2703.9a87.44,87.44,0,0,0,23.406-2.654,27.516,27.516,0,0,0,7.683-3.066c2.279-1.451,2-1.807.058-2.877a39.232,39.232,0,0,0-6.764-2.864c-2.3-.747-4.722-1.115-7.079-1.7a3.41,3.41,0,0,1-2.658-2.879,3.456,3.456,0,0,1,1.385-3.5,3.471,3.471,0,0,1,2.879-.662,52.375,52.375,0,0,1,13.924,4.129,14.616,14.616,0,0,1,5.63,4.376,7.392,7.392,0,0,1-.854,9.9,21.767,21.767,0,0,1-7.848,4.718,68.727,68.727,0,0,1-16.708,3.7,112.907,112.907,0,0,1-16.043.692,92.25,92.25,0,0,1-23.609-3.3,28.828,28.828,0,0,1-9.478-4.423c-1.9-1.444-3.486-3.157-3.856-5.642-.463-3.1.846-5.5,3.122-7.472a19.16,19.16,0,0,1,6.908-3.809c3.488-1.08,7.04-1.971,10.6-2.8a3.572,3.572,0,0,1,4.484,2.78,3.668,3.668,0,0,1-3.219,4.367,46.732,46.732,0,0,0-10.955,3.173,19.206,19.206,0,0,0-2.783,1.622c-1.239.86-1.261,1.343.052,2.13a26.069,26.069,0,0,0,4.371,2.149c7.692,2.819,15.722,3.671,23.844,3.912C-4247.7,2703.925-4246.526,2703.9-4245.356,2703.9Z" fill="#ffb30b" stroke="#000" stroke-linecap="round" stroke-linejoin="round" stroke-width="3"/>
        </g>
      </g>
      <g id="Group_129840" data-name="Group 129840">
        <path id="Path_191611" data-name="Path 191611" d="M-4070.879,2348.964a176,176,0,0,0-175.811-168,176,176,0,0,0-175.812,168Z" fill="#b9ddfc"/>
        <path id="Path_191612" data-name="Path 191612" d="M-4422.5,2364.964a176,176,0,0,0,175.812,168,176,176,0,0,0,175.811-168Z" fill="#b9ddfc"/>
      </g>
      <g id="Group_129841" data-name="Group 129841">
        <path id="Path_191613" data-name="Path 191613" d="M-4208.458,2278.033a14.3,14.3,0,0,1,8.692,4.793,13.266,13.266,0,0,1,3.017,7.906c.034.615.03,1.232.03,1.848q0,61.8.028,123.607c0,3.787-1.169,6.7-4.675,8.472a1.605,1.605,0,0,0-.579,1.215c-.056,2.259-.012,4.521-.031,6.781-.02,2.244-.964,3.232-3.177,3.233q-41.544.014-83.087,0c-2.213,0-3.157-.989-3.177-3.233-.02-2.209.049-4.421-.044-6.626a2.08,2.08,0,0,0-.848-1.5,7.979,7.979,0,0,1-4.367-7.419q0-62.729-.015-125.456a13.249,13.249,0,0,1,11.335-13.439,1.694,1.694,0,0,0,.421-.184Zm-82.963,75.846q0,31.215,0,62.43c0,3.01.818,3.825,3.852,3.825q40.855,0,81.712,0c3.1,0,3.883-.8,3.883-3.949q0-61.89,0-123.781c0-6.028-3.081-9.118-9.094-9.119q-35.615,0-71.229,0c-6.032,0-9.124,3.081-9.124,9.089Q-4291.423,2323.127-4291.421,2353.879Zm84.119,71.615h-78.745v5.071h78.745Z"/>
        <path id="Path_191614" data-name="Path 191614" d="M-4291.421,2353.879q0-30.753,0-61.5c0-6.008,3.092-9.088,9.124-9.089q35.614,0,71.229,0c6.013,0,9.094,3.091,9.094,9.119q0,61.89,0,123.781c0,3.148-.784,3.949-3.883,3.949q-40.855,0-81.712,0c-3.034,0-3.852-.815-3.852-3.825Q-4291.423,2385.094-4291.421,2353.879Zm44.718.444h-22.343q-6.625,0-13.252,0c-3.075.005-3.868.787-3.87,3.8,0,4.673-.014,9.347,0,14.02.009,2.21.976,3.181,3.184,3.255.924.031,1.849.006,2.774.006q34.593,0,69.186,0c2.935,0,3.791-.85,3.793-3.735q.006-6.624,0-13.249c0-3.378-.7-4.093-4.037-4.094Q-4228.983,2354.32-4246.7,2354.323Zm.018-52.585q-18.027,0-36.056,0c-2.535,0-3.42.9-3.425,3.435q-.015,7.086,0,14.174c.006,2.447.922,3.4,3.324,3.4q36.133.009,72.267,0c2.418,0,3.341-.938,3.347-3.372.012-4.622,0-9.244,0-13.865,0-2.972-.782-3.769-3.711-3.77Q-4228.81,2301.735-4246.685,2301.738Zm-.179,47.315q18.028,0,36.057,0c2.745,0,3.578-.854,3.581-3.6q.009-7.009,0-14.02c-.006-2.424-.949-3.422-3.321-3.423q-36.135-.015-72.268,0c-2.394,0-3.341.984-3.348,3.4-.013,4.468,0,8.936,0,13.4,0,3.606.625,4.243,4.172,4.244Zm15.922,47.341a15.786,15.786,0,0,0-15.8-15.717,15.77,15.77,0,0,0-15.712,15.791,15.77,15.77,0,0,0,15.792,15.713A15.77,15.77,0,0,0-4230.942,2396.394Zm-29.046-99.984c.048-.4.1-.652.1-.9.006-1.384.042-2.771-.015-4.153a2.6,2.6,0,0,0-2.811-2.793c-5.128-.053-10.257-.042-15.386,0a2.394,2.394,0,0,0-2.658,2.083c-.18,1.9-.045,3.829-.045,5.734h5.053c.063-.884.12-1.677.177-2.469h10.351c.066.906.124,1.7.183,2.5Zm44.838,0c0-1.78.05-3.414-.013-5.044a2.587,2.587,0,0,0-2.795-2.8c-5.126-.057-10.253-.044-15.379,0-1.344.01-2.535.632-2.669,2.06-.178,1.9-.044,3.83-.044,5.764h5.022c.068-.874.129-1.667.192-2.485h10.35c.066.9.125,1.691.186,2.514Z" fill="#b9ddfc"/>
        <path id="Path_191615" data-name="Path 191615" d="M-4207.3,2425.494v5.071h-78.745v-5.071Z" fill="#084a93"/>
        <path id="Path_191616" data-name="Path 191616" d="M-4246.7,2354.323q17.721,0,35.441,0c3.336,0,4.037.716,4.037,4.094q0,6.624,0,13.249c0,2.885-.858,3.734-3.793,3.735q-34.593,0-69.186,0c-.925,0-1.85.025-2.774-.006-2.208-.074-3.175-1.045-3.184-3.255-.019-4.673-.008-9.347,0-14.02,0-3.01.795-3.792,3.87-3.8q6.625-.01,13.252,0Zm-34.166,15.686h68.3v-10.266h-68.3Z"/>
        <path id="Path_191617" data-name="Path 191617" d="M-4246.685,2301.738q17.875,0,35.749,0c2.929,0,3.709.8,3.711,3.77,0,4.621.009,9.243,0,13.865-.006,2.434-.929,3.371-3.347,3.372q-36.133.009-72.267,0c-2.4,0-3.318-.949-3.324-3.4q-.016-7.088,0-14.174c0-2.538.89-3.433,3.425-3.435Q-4264.713,2301.73-4246.685,2301.738Zm-34.135,5.288v10.363h68.22v-10.363Z"/>
        <path id="Path_191618" data-name="Path 191618" d="M-4246.864,2349.053H-4282c-3.547,0-4.172-.638-4.172-4.244,0-4.468-.009-8.936,0-13.4.007-2.413.954-3.4,3.348-3.4q36.133-.014,72.268,0c2.372,0,3.315,1,3.321,3.423q.017,7.01,0,14.02c0,2.743-.836,3.6-3.581,3.6Q-4228.836,2349.063-4246.864,2349.053Zm-33.976-5.388h68.233v-10.317h-68.233Z"/>
        <path id="Path_191619" data-name="Path 191619" d="M-4230.942,2396.394a15.77,15.77,0,0,1-15.717,15.787,15.77,15.77,0,0,1-15.792-15.713,15.77,15.77,0,0,1,15.712-15.791A15.786,15.786,0,0,1-4230.942,2396.394Zm-5.261-.005a10.519,10.519,0,0,0-10.533-10.452,10.52,10.52,0,0,0-10.455,10.531,10.52,10.52,0,0,0,10.534,10.453A10.52,10.52,0,0,0-4236.2,2396.389Z"/>
        <path id="Path_191620" data-name="Path 191620" d="M-4259.988,2296.41h-5.046c-.059-.8-.117-1.595-.183-2.5h-10.351c-.057.792-.114,1.585-.177,2.469h-5.053c0-1.905-.135-3.835.045-5.734a2.394,2.394,0,0,1,2.658-2.083c5.129-.042,10.258-.053,15.386,0a2.6,2.6,0,0,1,2.811,2.793c.057,1.382.021,2.769.015,4.153C-4259.884,2295.758-4259.94,2296.009-4259.988,2296.41Z"/>
        <path id="Path_191621" data-name="Path 191621" d="M-4215.15,2296.413h-5.15c-.061-.823-.12-1.617-.186-2.514h-10.35c-.063.818-.124,1.611-.192,2.485h-5.022c0-1.934-.134-3.863.044-5.764.134-1.428,1.325-2.05,2.669-2.06,5.126-.04,10.253-.053,15.379,0a2.587,2.587,0,0,1,2.795,2.8C-4215.1,2293-4215.15,2294.633-4215.15,2296.413Z"/>
        <path id="Path_191622" data-name="Path 191622" d="M-4280.869,2370.009v-10.266h68.3v10.266Z" fill="#084a93"/>
        <path id="Path_191623" data-name="Path 191623" d="M-4280.82,2307.026h68.22v10.363h-68.22Z" fill="#084a93"/>
        <path id="Path_191624" data-name="Path 191624" d="M-4280.84,2343.665v-10.317h68.233v10.317Z" fill="#084a93"/>
        <path id="Path_191625" data-name="Path 191625" d="M-4236.2,2396.389a10.52,10.52,0,0,1-10.454,10.532,10.52,10.52,0,0,1-10.534-10.453,10.52,10.52,0,0,1,10.455-10.531A10.519,10.519,0,0,1-4236.2,2396.389Z" fill="#ffb30b"/>
      </g>
      <path id="Path_191626" data-name="Path 191626" d="M-4291.963,2456.976l-14.941,8.516,2.962,5.2,6.364-3.628c-2.482,8.7-9.9,22.031-19.975,35.632-12.64,17.066-26.008,30.129-34.887,34.094a3.224,3.224,0,0,0-1.707,1.8,3.21,3.21,0,0,0,.067,2.479,3.222,3.222,0,0,0,1.021,1.279,3.253,3.253,0,0,0,1.943.644,3.244,3.244,0,0,0,1.321-.281c18.774-8.383,51.131-49.765,58.207-73l2.947,5.171,5.2-2.962Z"/>
      <path id="Path_191627" data-name="Path 191627" d="M-4311.426,2445.145a3.23,3.23,0,0,0-1.022-1.28,3.251,3.251,0,0,0-3.264-.362c-18.773,8.383-51.131,49.765-58.206,73l-2.948-5.171-5.195,2.962,8.518,14.94,14.94-8.516-2.961-5.2-6.365,3.628c2.482-8.7,9.9-22.031,19.975-35.633,12.641-17.065,26.009-30.128,34.888-34.093a3.226,3.226,0,0,0,1.707-1.8A3.217,3.217,0,0,0-4311.426,2445.145Z"/>
      <path id="Path_191628" data-name="Path 191628" d="M-4196.864,2446.948l14.942,8.517-2.962,5.194-6.365-3.628c2.482,8.7,9.9,22.031,19.975,35.633,12.64,17.065,26.008,30.129,34.888,34.094a3.223,3.223,0,0,1,1.707,1.8,3.217,3.217,0,0,1-.068,2.48,3.211,3.211,0,0,1-1.021,1.278,3.244,3.244,0,0,1-1.943.645,3.231,3.231,0,0,1-1.321-.282c-18.774-8.382-51.131-49.764-58.206-73l-2.948,5.171-5.195-2.962Z"/>
      <path id="Path_191629" data-name="Path 191629" d="M-4232.479,2486.316a3.23,3.23,0,0,1,1.594-.373,3.25,3.25,0,0,1,2.788,1.735c9.564,18.2,9.385,70.73.567,93.365l5.515-2.239,2.249,5.541-15.935,6.469-6.469-15.935,5.54-2.248,2.756,6.787c3.434-8.372,5.852-23.433,6.351-40.352.626-21.228-1.795-39.762-6.318-48.37a3.223,3.223,0,0,1-.225-2.473A3.216,3.216,0,0,1-4232.479,2486.316Z"/>
      <path id="Path_191630" data-name="Path 191630" d="M-4334.481,2171.812a3.224,3.224,0,0,1,1.133-1.182,3.253,3.253,0,0,1,3.283-.067c17.943,10.038,46.445,54.164,51.4,77.945l3.4-4.885,4.907,3.417-9.827,14.114-14.114-9.827,3.417-4.907,6.012,4.186c-1.688-8.89-7.877-22.832-16.687-37.285-11.054-18.134-23.192-32.348-31.678-37.095a3.224,3.224,0,0,1-1.538-1.95A3.216,3.216,0,0,1-4334.481,2171.812Z"/>
      <path id="Path_191631" data-name="Path 191631" d="M-4163.159,2278.693a3.228,3.228,0,0,0,1.133,1.182,3.252,3.252,0,0,0,3.283.067c17.943-10.038,46.445-54.164,51.4-77.945l3.4,4.885,4.907-3.417-9.827-14.114-14.114,9.827,3.417,4.906,6.012-4.185c-1.688,8.89-7.877,22.832-16.687,37.285-11.054,18.134-23.192,32.347-31.678,37.095a3.224,3.224,0,0,0-1.538,1.95A3.217,3.217,0,0,0-4163.159,2278.693Z"/>
      <path id="Path_191632" data-name="Path 191632" d="M-4225.969,2224.511a3.23,3.23,0,0,0,1.573.457,3.251,3.251,0,0,0,2.876-1.585c10.511-17.67,13.107-70.136,5.5-93.205l5.389,2.527,2.539-5.414-15.571-7.3-7.3,15.571,5.414,2.538,3.11-6.633c2.987,8.542,4.606,23.71,4.211,40.632-.5,21.231-3.892,39.611-8.864,47.968a3.223,3.223,0,0,0-.355,2.458A3.213,3.213,0,0,0-4225.969,2224.511Z"/>
    </g>
  </g>
</svg>
