<svg xmlns="http://www.w3.org/2000/svg" width="120" height="120" viewBox="0 0 120 120">
  <g id="_6" data-name="6" transform="translate(-488 -3090)">
    <circle id="Elipse_498" data-name="Elipse 498" cx="60" cy="60" r="60" transform="translate(488 3090)" fill="#fff"/>
    <path id="Trazado_189849" data-name="Trazado 189849" d="M3505.8,424.107c.135-.633.259-1.27.409-1.9a14.885,14.885,0,1,1,27.815,10.052,1.988,1.988,0,0,0-.13,1.216c.486,2.1,1.035,4.18,1.555,6.269.384,1.539-.344,2.246-1.867,1.816-2.281-.645-4.558-1.31-6.845-1.935a1.91,1.91,0,0,0-1.043.026,14.9,14.9,0,0,1-19.689-11.578c-.066-.353-.136-.706-.2-1.058Zm26.822,14.6c-.456-1.831-.837-3.506-1.3-5.157a2.635,2.635,0,0,1,.263-2.067c2.315-4.518,2.12-8.975-.828-13.095a12.373,12.373,0,1,0-18.423,16.325c3.709,3.41,8.083,4.1,12.852,2.479a3.247,3.247,0,0,1,1.736-.091C3528.792,437.567,3530.634,438.138,3532.625,438.708Z" transform="translate(-2994.804 2702.272)"/>
    <path id="Trazado_189850" data-name="Trazado 189850" d="M3812.6,774.2c-.368-.112-.748-.194-1.1-.341a4.858,4.858,0,0,1-3.221-4.582c-.065-1.693-.051-3.391,0-5.084a4.851,4.851,0,0,1,4.709-4.865c2.248-.1,4.5-.036,6.755-.044.286,0,.573,0,.956,0V758.5c0-1.235.008-2.47,0-3.7-.006-.654.026-1.28.734-1.594s1.2.068,1.693.492c.643.552,1.3,1.088,1.951,1.63,1.469,1.225,2.931,2.458,4.414,3.666a2.005,2.005,0,0,0,.83.377,4.9,4.9,0,0,1,3.99,4.642c.065,1.741.056,3.487.015,5.229a4.859,4.859,0,0,1-4.006,4.841,1.342,1.342,0,0,0-.255.119Zm10.579-17.218c0,1.124,0,2.061,0,3,0,1.432-.368,1.793-1.821,1.795-2.642,0-5.284-.011-7.925.006a2.444,2.444,0,0,0-2.673,2.455q-.073,2.506,0,5.015a2.415,2.415,0,0,0,2.468,2.446q8.071.04,16.141,0a2.411,2.411,0,0,0,2.467-2.508q.042-2.471,0-4.943a2.454,2.454,0,0,0-2.209-2.467,3.284,3.284,0,0,1-1.414-.626C3826.569,759.842,3824.969,758.473,3823.181,756.984Z" transform="translate(-3250.107 2413.261)"/>
    <path id="Trazado_189851" data-name="Trazado 189851" d="M3505.8,755.225a21.336,21.336,0,0,1,.5-2.108c1.516-4.4,4.563-7.138,9.185-7.744,4.842-.635,8.592,1.329,11.156,5.486a1.02,1.02,0,0,0,1.012.593c1.939-.031,3.878,0,5.818-.019.656-.006,1.226.115,1.5.778a1.392,1.392,0,0,1-.457,1.566q-3.672,3.882-7.322,7.787c-.478.511-.911,1.066-1.345,1.615a11.1,11.1,0,0,1-7.418,4.281,2.51,2.51,0,0,0-.407.128h-2.037a2.653,2.653,0,0,0-.408-.121,11.146,11.146,0,0,1-9.423-8.3c-.125-.486-.235-.976-.352-1.464Zm25.156-1.309c-1.471,0-2.732-.061-3.984.018a2.034,2.034,0,0,1-2.245-1.363,8.566,8.566,0,0,0-9.418-4.68,8.675,8.675,0,1,0,8.965,13.2,4.622,4.622,0,0,1,.488-.718c1.571-1.643,3.157-3.272,4.734-4.908C3529.948,755,3530.384,754.528,3530.959,753.916Z" transform="translate(-2994.804 2419.875)"/>
    <path id="Trazado_189852" data-name="Trazado 189852" d="M3665.366,647.9h-14.4c-1.341,0-1.716-.377-1.716-1.734q0-9.451,0-18.9c0-1.343.383-1.722,1.737-1.722q14.4,0,28.8,0c1.337,0,1.72.388,1.721,1.742q0,9.451,0,18.9c0,1.339-.386,1.713-1.742,1.714Zm11.66-19.811h-23.292l11.647,10.674Zm-22.773,17.292h22.255l-8.067-6.049c-.714.653-1.369,1.262-2.037,1.86a1.3,1.3,0,0,1-2.044.005c-.681-.611-1.351-1.234-2.04-1.865Zm-2.461-15.7v14.442l8.666-6.5Zm27.195-.017-8.684,7.963,8.684,6.508Z" transform="translate(-3115.896 2520.934)"/>
    <path id="Trazado_189853" data-name="Trazado 189853" d="M3822.1,426.588a13.65,13.65,0,1,1-4.4,26.575,2.175,2.175,0,0,0-1.176-.039c-2.032.544-4.051,1.14-6.076,1.714-1.523.432-2.246-.277-1.86-1.824.468-1.877.962-3.749,1.4-5.634a1.747,1.747,0,0,0-.123-1.081A13.651,13.651,0,0,1,3822.1,426.588Zm-10.69,25.4c1.74-.5,3.324-.931,4.9-1.408a2.783,2.783,0,0,1,1.828.083,10.747,10.747,0,0,0,11.44-2.177,11.123,11.123,0,1,0-16.461-14.789,10.7,10.7,0,0,0-.769,11.916,2.349,2.349,0,0,1,.216,1.8C3812.168,448.881,3811.82,450.357,3811.413,451.987Z" transform="translate(-3250.274 2688.884)"/>
    <path id="Trazado_189854" data-name="Trazado 189854" d="M3566.219,673.863v2.374H3553.89v-2.374Z" transform="translate(-3035.397 2480.143)" fill="#084a93"/>
    <path id="Trazado_189855" data-name="Trazado 189855" d="M3592.8,641.5v2.436h-7.413c0-.717-.021-1.389.018-2.057a.544.544,0,0,1,.386-.363C3588.105,641.5,3590.421,641.5,3592.8,641.5Z" transform="translate(-3061.979 2507.461)" fill="#084a93"/>
    <path id="Trazado_189856" data-name="Trazado 189856" d="M3585.658,708.019v-2.375h7.377v2.375Z" transform="translate(-3062.214 2453.314)" fill="#084a93"/>
    <path id="Trazado_189857" data-name="Trazado 189857" d="M3545.874,452.067c-1.992-.57-3.833-1.141-5.7-1.605a3.248,3.248,0,0,0-1.736.091c-4.769,1.625-9.142.932-12.852-2.479a12.373,12.373,0,1,1,18.423-16.325c2.948,4.12,3.143,8.577.829,13.095a2.636,2.636,0,0,0-.263,2.067C3545.037,448.561,3545.417,450.236,3545.874,452.067Zm-14.421-16.809c-1.654,0-3.2-.007-4.746,0-.994.006-1.424.422-1.429,1.409q-.018,3.525,0,7.049c0,1.012.452,1.447,1.478,1.448q7.2.007,14.393,0a1.273,1.273,0,0,0,1.492-1.233q.6-3.47,1.158-6.945c.2-1.212-.255-1.724-1.478-1.73-1.108-.005-2.217,0-3.394,0a5.229,5.229,0,0,0-.751-3.477,3.663,3.663,0,0,0-3.082-1.487,3.62,3.62,0,0,0-2.381.934C3531.507,432.279,3531.395,433.693,3531.453,435.258Z" transform="translate(-3008.052 2688.913)" fill="#b9ddfc"/>
    <path id="Trazado_189858" data-name="Trazado 189858" d="M3836.663,778.071c1.787,1.49,3.388,2.859,5.034,4.171a3.285,3.285,0,0,0,1.414.626,2.454,2.454,0,0,1,2.209,2.466q.044,2.471,0,4.943a2.411,2.411,0,0,1-2.468,2.508q-8.07.037-16.141,0a2.415,2.415,0,0,1-2.468-2.445q-.074-2.506,0-5.015a2.444,2.444,0,0,1,2.673-2.455c2.642-.017,5.283,0,7.925-.006,1.453,0,1.818-.363,1.822-1.795C3836.665,780.132,3836.663,779.2,3836.663,778.071Zm-8.165,11.591a1.844,1.844,0,1,0-1.768-1.909A1.85,1.85,0,0,0,3828.5,789.662Zm6.281,0a1.845,1.845,0,1,0-1.849-1.835A1.847,1.847,0,0,0,3834.78,789.664Zm8.057-1.825a1.841,1.841,0,1,0-1.858,1.826A1.826,1.826,0,0,0,3842.836,787.84Z" transform="translate(-3263.589 2392.174)" fill="#b9ddfc"/>
    <path id="Trazado_189859" data-name="Trazado 189859" d="M3544.413,767.245c-.575.612-1.011,1.088-1.459,1.553-1.578,1.637-3.163,3.266-4.735,4.908a4.651,4.651,0,0,0-.488.718,8.681,8.681,0,1,1-8.964-13.2,8.566,8.566,0,0,1,9.418,4.68,2.034,2.034,0,0,0,2.245,1.363C3541.681,767.185,3542.942,767.245,3544.413,767.245Zm-10.308,1.219h-2.443v-2.409h-2.493v2.455h-2.426V771h2.461v2.427h2.464v-2.458h2.438Z" transform="translate(-3008.258 2406.546)" fill="#b9ddfc"/>
    <path id="Trazado_189860" data-name="Trazado 189860" d="M3701.309,641.9l-11.646,10.674L3678.017,641.9Z" transform="translate(-3140.18 2507.125)" fill="#ffb30b"/>
    <path id="Trazado_189861" data-name="Trazado 189861" d="M3681.349,720.1l8.067-6.049c.689.631,1.359,1.254,2.04,1.865a1.3,1.3,0,0,0,2.044-.005c.667-.6,1.323-1.207,2.037-1.86l8.068,6.049Z" transform="translate(-3142.993 2446.219)" fill="#ffb30b"/>
    <path id="Trazado_189862" data-name="Trazado 189862" d="M3665.558,652.1l8.666,7.944-8.666,6.5Z" transform="translate(-3129.663 2498.517)" fill="#ffb30b"/>
    <path id="Trazado_189863" data-name="Trazado 189863" d="M3793.025,651.986v14.471l-8.684-6.507Z" transform="translate(-3229.936 2498.61)" fill="#ffb30b"/>
    <path id="Trazado_189864" data-name="Trazado 189864" d="M3824.771,465.5c.407-1.63.755-3.106,1.15-4.57a2.348,2.348,0,0,0-.216-1.8,10.7,10.7,0,0,1,.769-11.916A11.122,11.122,0,1,1,3842.934,462a10.746,10.746,0,0,1-11.439,2.177,2.784,2.784,0,0,0-1.828-.083C3828.095,464.568,3826.51,465,3824.771,465.5Zm10.7-17.1c-.28-.213-.487-.38-.7-.533a5.042,5.042,0,0,0-6.808.9,4.966,4.966,0,0,0,.45,6.892c2.027,1.8,4.15,3.5,6.24,5.229a1.16,1.16,0,0,0,1.6.022c2.163-1.795,4.41-3.5,6.441-5.438a5,5,0,0,0-2.288-8.384A5.061,5.061,0,0,0,3835.466,448.4Z" transform="translate(-3263.632 2675.371)" fill="#b9ddfc"/>
    <path id="Trazado_189865" data-name="Trazado 189865" d="M3551.885,455.522c-.058-1.565.053-2.98,1.26-4.029a3.619,3.619,0,0,1,2.381-.934,3.662,3.662,0,0,1,3.082,1.487,5.229,5.229,0,0,1,.751,3.477c1.177,0,2.286,0,3.394,0,1.223.006,1.673.518,1.478,1.73q-.559,3.476-1.158,6.945a1.273,1.273,0,0,1-1.492,1.233q-7.2.006-14.392,0c-1.026,0-1.474-.436-1.479-1.448q-.015-3.525,0-7.049c0-.987.435-1.4,1.429-1.409C3548.685,455.515,3550.231,455.522,3551.885,455.522Zm1.314,2.5v4.934c2.443,0,4.836.007,7.229-.016a.573.573,0,0,0,.406-.369c.27-1.492.5-2.991.761-4.566-1.145,0-2.23.017-3.316,0a1.268,1.268,0,0,1-1.409-1.392c-.025-.726.007-1.453-.014-2.179-.025-.888-.49-1.386-1.247-1.378s-1.2.507-1.231,1.4c-.018.58-.032,1.163,0,1.743C3554.434,457.121,3554.2,457.838,3553.2,458.019Zm-4.949.014v4.878h2.371v-4.878Z" transform="translate(-3028.484 2668.649)"/>
    <path id="Trazado_189866" data-name="Trazado 189866" d="M3842.159,832.477a1.845,1.845,0,1,1,1.941-1.736A1.837,1.837,0,0,1,3842.159,832.477Zm.935-1.816c-.382-.294-.61-.606-.816-.592-.224.015-.427.334-.638.521.2.221.372.56.615.624C3842.428,831.259,3842.7,830.936,3843.094,830.661Z" transform="translate(-3277.25 2349.358)"/>
    <path id="Trazado_189867" data-name="Trazado 189867" d="M3882.035,832.483a1.844,1.844,0,1,1,1.869-1.815A1.854,1.854,0,0,1,3882.035,832.483Zm.874-1.8c-.38-.3-.6-.615-.811-.61s-.428.32-.642.5c.193.227.352.574.59.642C3882.221,831.267,3882.5,830.952,3882.909,830.686Z" transform="translate(-3310.845 2349.355)"/>
    <path id="Trazado_189868" data-name="Trazado 189868" d="M3923.807,830.655a1.841,1.841,0,1,1-1.822-1.865A1.816,1.816,0,0,1,3923.807,830.655Zm-.988-.018c-.38-.276-.618-.584-.833-.568s-.425.345-.636.537c.212.216.4.556.644.608C3922.178,831.251,3922.44,830.917,3922.819,830.636Z" transform="translate(-3344.559 2349.359)"/>
    <path id="Trazado_189869" data-name="Trazado 189869" d="M3561.2,795.605v2.5h-2.438v2.458H3556.3v-2.427h-2.461v-2.487h2.426V793.2h2.493v2.409Z" transform="translate(-3035.35 2379.406)"/>
    <path id="Trazado_189870" data-name="Trazado 189870" d="M3849.108,471.7a5.061,5.061,0,0,1,4.927-1.317,5,5,0,0,1,2.288,8.384c-2.031,1.935-4.278,3.643-6.44,5.438a1.16,1.16,0,0,1-1.6-.022c-2.089-1.732-4.213-3.426-6.24-5.229a4.966,4.966,0,0,1-.449-6.892,5.042,5.042,0,0,1,6.808-.9C3848.621,471.322,3848.828,471.489,3849.108,471.7Zm-.008,9.946c1.812-1.515,3.579-2.952,5.3-4.443a2.512,2.512,0,0,0,.313-3.582,2.573,2.573,0,0,0-3.644-.311c-.345.267-.669.56-1.01.832a1.3,1.3,0,0,1-1.946-.016c-.377-.3-.736-.632-1.128-.917a2.566,2.566,0,0,0-3.525.427,2.539,2.539,0,0,0,.246,3.488C3845.457,478.651,3847.264,480.113,3849.1,481.647Z" transform="translate(-3277.274 2652.067)"/>
    <path id="Trazado_189871" data-name="Trazado 189871" d="M3593.811,471.5c1-.181,1.235-.9,1.18-1.824-.034-.579-.02-1.162,0-1.743.029-.9.477-1.4,1.231-1.4s1.221.49,1.247,1.378c.021.726-.011,1.453.014,2.179a1.268,1.268,0,0,0,1.409,1.392c1.085.022,2.171,0,3.316,0-.257,1.575-.491,3.074-.761,4.566a.573.573,0,0,1-.406.369c-2.393.023-4.786.016-7.229.016Z" transform="translate(-3069.097 2655.164)" fill="#084a93"/>
    <path id="Trazado_189872" data-name="Trazado 189872" d="M3562.049,498.529h2.372v4.878h-2.372Z" transform="translate(-3042.284 2628.154)" fill="#084a93"/>
    <path id="Trazado_189873" data-name="Trazado 189873" d="M3849.867,837.583c-.4.275-.666.6-.839.552-.243-.064-.413-.4-.615-.624.212-.186.415-.505.638-.52C3849.257,836.977,3849.486,837.289,3849.867,837.583Z" transform="translate(-3284.023 2342.436)" fill="#084a93"/>
    <path id="Trazado_189874" data-name="Trazado 189874" d="M3889.787,837.63c-.408.266-.688.581-.863.531-.238-.068-.4-.415-.59-.642.214-.179.424-.494.642-.5S3889.408,837.328,3889.787,837.63Z" transform="translate(-3317.723 2342.41)" fill="#084a93"/>
    <path id="Trazado_189875" data-name="Trazado 189875" d="M3929.457,837.56c-.379.281-.641.615-.825.576-.246-.051-.432-.391-.644-.608.211-.192.412-.521.636-.537S3929.077,837.284,3929.457,837.56Z" transform="translate(-3351.197 2342.435)" fill="#084a93"/>
    <path id="Trazado_189876" data-name="Trazado 189876" d="M3862.448,495.168c-1.837-1.534-3.644-3-5.394-4.522a2.539,2.539,0,0,1-.247-3.488,2.566,2.566,0,0,1,3.525-.427c.392.284.75.613,1.128.917a1.3,1.3,0,0,0,1.946.016c.341-.272.665-.565,1.01-.832a2.573,2.573,0,0,1,3.644.311,2.512,2.512,0,0,1-.313,3.582C3866.028,492.217,3864.261,493.653,3862.448,495.168Z" transform="translate(-3290.622 2638.545)" fill="#ffb30b"/>
  </g>
</svg>
