<svg xmlns="http://www.w3.org/2000/svg" width="43.901" height="53.773" viewBox="0 0 43.901 53.773">
  <g id="_7" data-name="7" transform="translate(0)">
    <path id="Path_118605" data-name="Path 118605" d="M36.887,64H12.1A2.1,2.1,0,0,0,10,66.1v41.8a2.1,2.1,0,0,0,2.1,2.1H44.028a2.1,2.1,0,0,0,2.1-2.1V73.242Zm0,0" transform="translate(-8.95 -57.278)" fill="#b9ddfc"/>
    <path id="Path_118606" data-name="Path 118606" d="M90.887,10H66.1A2.1,2.1,0,0,0,64,12.1V53.9A2.1,2.1,0,0,0,66.1,56H98.028a2.1,2.1,0,0,0,2.1-2.1V19.242Zm0,0" transform="translate(-57.279 -8.95)" fill="#fff"/>
    <path id="Path_118607" data-name="Path 118607" d="M90.887,10H66.1A2.1,2.1,0,0,0,64,12.1V53.9A2.1,2.1,0,0,0,66.1,56H98.028a2.1,2.1,0,0,0,2.1-2.1V19.242Zm0,0" transform="translate(-57.279 -8.95)" fill="#fff"/>
    <path id="Path_118608" data-name="Path 118608" d="M127.543,64h22.686v6.722H127.543Zm0,0" transform="translate(-114.148 -57.278)" fill="#00defc"/>
    <path id="Path_118609" data-name="Path 118609" d="M329.242,19.242h-6.354A2.888,2.888,0,0,1,320,16.354V10Zm0,0" transform="translate(-286.392 -8.95)" fill="#b9ddfc"/>
    <path id="Path_118610" data-name="Path 118610" d="M43.593,9.55,34.351.308A1.05,1.05,0,0,0,33.608,0H8.822A3.154,3.154,0,0,0,5.671,3.151V5.671H3.15A3.154,3.154,0,0,0,0,8.822v41.8A3.154,3.154,0,0,0,3.15,53.773H35.078a3.154,3.154,0,0,0,3.151-3.151V48.1H40.75A3.154,3.154,0,0,0,43.9,44.951V32.873a1.05,1.05,0,0,0-2.1,0V44.951A1.051,1.051,0,0,1,40.75,46H8.822a1.051,1.051,0,0,1-1.05-1.05V3.151A1.051,1.051,0,0,1,8.822,2.1H32.558V5.671H13.4a1.05,1.05,0,0,0-1.05,1.05v6.722a1.05,1.05,0,0,0,1.05,1.05H36.081a1.05,1.05,0,0,0,1.05-1.05v-2.1H41.8V24.331a1.05,1.05,0,0,0,2.1,0V10.293a1.05,1.05,0,0,0-.308-.743ZM8.822,48.1H36.129v2.521a1.051,1.051,0,0,1-1.05,1.05H3.151a1.051,1.051,0,0,1-1.05-1.05V8.822a1.051,1.051,0,0,1,1.05-1.05H5.671V44.951A3.154,3.154,0,0,0,8.822,48.1Zm5.623-35.709V7.772h18.13a3.947,3.947,0,0,0,2.455,3.287v1.334ZM36.5,9.242A1.84,1.84,0,0,1,34.658,7.4V3.586l2.828,2.828,2.828,2.828Zm0,0" transform="translate(0 0)"/>
    <path id="Path_118611" data-name="Path 118611" d="M399.05,262a1.05,1.05,0,1,0,.743.308A1.059,1.059,0,0,0,399.05,262Zm0,0" transform="translate(-356.2 -234.483)"/>
    <path id="Path_118612" data-name="Path 118612" d="M118.589,168.1a1.051,1.051,0,1,0-.743-.308A1.058,1.058,0,0,0,118.589,168.1Zm0,0" transform="translate(-105.195 -148.566)"/>
    <path id="Path_118613" data-name="Path 118613" d="M141.279,214H118.593a1.05,1.05,0,1,0,0,2.1h22.686a1.05,1.05,0,1,0,0-2.1Zm0,0" transform="translate(-105.198 -191.524)"/>
    <path id="Path_118614" data-name="Path 118614" d="M141.279,262H118.593a1.05,1.05,0,0,0,0,2.1h22.686a1.05,1.05,0,1,0,0-2.1Zm0,0" transform="translate(-105.198 -234.483)"/>
    <path id="Path_118615" data-name="Path 118615" d="M141.279,310H118.593a1.05,1.05,0,0,0,0,2.1h22.686a1.05,1.05,0,1,0,0-2.1Zm0,0" transform="translate(-105.198 -277.442)"/>
    <path id="Path_118616" data-name="Path 118616" d="M141.279,358H118.593a1.05,1.05,0,1,0,0,2.1h22.686a1.05,1.05,0,1,0,0-2.1Zm0,0" transform="translate(-105.198 -320.401)"/>
    <path id="Path_118617" data-name="Path 118617" d="M177.623,166H159.2a1.05,1.05,0,1,0,0,2.1h18.421a1.05,1.05,0,1,0,0-2.1Zm0,0" transform="translate(-141.542 -148.566)"/>
  </g>
</svg>
