<svg xmlns="http://www.w3.org/2000/svg" width="120" height="120" viewBox="0 0 120 120">
  <g id="_7" data-name="7" transform="translate(-740 -3090)">
    <circle id="Elipse_498" data-name="Elipse 498" cx="60" cy="60" r="60" transform="translate(740 3090)" fill="#fff"/>
    <path id="Trazado_189799" data-name="Trazado 189799" d="M4362.036,378.617a8.033,8.033,0,0,1,2.6-4.4c.17-.137.169-.544.169-.827q.015-8.2.007-16.409v-1h22.293v16.651h5.58V355.983h22.272v16.638h5.586V356h22.316v.911q0,8.2-.008,16.409a1.482,1.482,0,0,0,.532,1.258,6.868,6.868,0,0,1,1.83,7.459,6.939,6.939,0,0,1-6.189,4.57c-.354.016-.708.011-1.061.011h-68.247c-4.129,0-6.484-1.787-7.585-5.75-.013-.046-.066-.082-.1-.123Zm36.246,5.2a7.069,7.069,0,0,1-1.411-4.138,7.363,7.363,0,0,1,1.325-4.135h-23.555a7.1,7.1,0,0,1-.019,8.273Zm11.2-8.292a7.056,7.056,0,0,1,0,8.24h23.572a7.065,7.065,0,0,1-.012-8.24Zm13.934-11.183v8.282h11.034v-8.282Zm-16.816.026h-11.042v8.257H4406.6Zm-38.936-.026v8.281h11.019v-8.281Zm5.5,15.287a4.172,4.172,0,0,0-8.345.033,4.215,4.215,0,0,0,4.157,4.17A4.172,4.172,0,0,0,4373.165,379.626Zm30.636-4.145a4.166,4.166,0,0,0-4.142,4.161,4.182,4.182,0,1,0,8.364,0A4.169,4.169,0,0,0,4403.8,375.482Zm30.717,4.123a4.169,4.169,0,0,0,4.165,4.224,4.216,4.216,0,0,0,4.179-4.147,4.172,4.172,0,0,0-8.344-.076Zm-11.106-20.835v2.677h11.05V358.77Zm-16.832.013h-11.044v2.682h11.044Zm-27.877.013h-11.048v2.66H4378.7Zm2.9,5.557v8.28h2.679v-8.28Zm30.526,8.281v-8.256h-2.683v8.256Zm27.889,0v-8.289h-2.678v8.289Zm-58.435-13.887v2.7h2.674v-2.7Zm27.889,0v2.708h2.647v-2.708Zm27.873.015v2.679h2.684v-2.679Z" transform="translate(-3604.036 2794.11)"/>
    <path id="Trazado_189800" data-name="Trazado 189800" d="M4370.589,129.621a12.549,12.549,0,1,1,12.56,12.57A12.548,12.548,0,0,1,4370.589,129.621Zm3.283-2.76a3.415,3.415,0,0,1,2.868.822c1.17,1.188,1.2,5.5,0,6.66a9.176,9.176,0,0,1-1.519.972,9.691,9.691,0,0,0,5.1,3.643c-.13-2.094.629-3.475,2.736-3.8.512-1.9,1.343-2.7,2.882-2.736,1.136-.029,2.29-.136,3.244.728.93.841.951,1.968.906,3.3a9.932,9.932,0,0,0,2.781-6.819h-.975c-2.882,0-5.765.009-8.647,0a2.783,2.783,0,0,1-2.917-2.85c-.014-.353-.008-.707,0-1.06a2.84,2.84,0,0,1,3.059-3.057c.365-.008.73,0,1.092,0V120.04A9.54,9.54,0,0,0,4373.872,126.861Zm13.385-6.052c.442,3.281-.748,5.025-4.093,4.655v1.329h9.286A9.988,9.988,0,0,0,4387.257,120.809Zm-4.1,18.784c1.343-.352,2.562-.658,3.769-1a.619.619,0,0,0,.367-.439c.034-.964.017-1.93.017-2.911h-1.429c.382,2.163-.508,3.149-2.724,2.715Zm-8.473-7.245V129.7h-1.333c.082.681.174,1.291.224,1.9C4373.633,132.33,4373.97,132.6,4374.682,132.348Z" transform="translate(-3611.189 2993.944)"/>
    <path id="Trazado_189801" data-name="Trazado 189801" d="M4553.353,142.4a12.551,12.551,0,1,1,12.567-12.492A12.6,12.6,0,0,1,4553.353,142.4Zm-6.125-20.033c.1.086.164.141.229.188,1.729,1.223,1.969,1.9,1.443,3.93a.667.667,0,0,0,.166.531,2.542,2.542,0,0,1,.731,2.9c-.565,1.311-1.189,2.733-2.83,3a5.076,5.076,0,0,1-2.027-.34,4.2,4.2,0,0,1-.984-.608,8.638,8.638,0,0,0,4.035,5.9c.164-.235.337-.474.5-.718,1.585-2.375,3.131-4.778,4.781-7.107a4.322,4.322,0,0,1,1.762-1.329c1.442-.629,4.4,1.454,4.477,2.737a6.8,6.8,0,0,1-.338,2.192,5.317,5.317,0,0,1-.771,1.226l2.166,1.445c3.479-3.51,3.192-9.653.257-12.577-.13.174-.26.342-.382.515a2.81,2.81,0,0,1-4.178.82c-.707-.46-1.417-.915-2.1-1.41a2.678,2.678,0,0,1-1.163-2.985,5,5,0,0,0,.065-.529A8.733,8.733,0,0,0,4547.228,122.368Zm11.112,15.862c-1-.826-2.286-1.264-2.645-2.624-.364-1.378.425-2.382,1.146-3.438l-1.162-.768-5.171,7.764A9.755,9.755,0,0,0,4558.34,138.23Zm-11.968-13.047-1.3-.846c-.466,1.322-.887,2.456-1.252,3.608a.761.761,0,0,0,.2.673c.759.558,1.562,1.057,2.388,1.6l.735-1.1C4545.083,127.443,4545.083,127.443,4546.372,125.182Zm11.627-2.3.811-1.214-2.552-1.188-.542.882Z" transform="translate(-3753.562 2993.741)"/>
    <path id="Trazado_189802" data-name="Trazado 189802" d="M4723.741,117.492a12.532,12.532,0,1,1-12.463,12.561A12.51,12.51,0,0,1,4723.741,117.492Zm5.585,12.547c-1.623-.3-2.612-1.161-2.676-2.469-.057-1.175-.287-2.4.54-3.46a3.731,3.731,0,0,1,3.212-1.158,9.191,9.191,0,0,0-6.577-2.675v.974c0,2.476-.082,4.956.021,7.428.12,2.853-.785,4.354-4.228,4.112a2.82,2.82,0,0,1-2.771-2.749c-.017-.453,0-.908,0-1.426-.7,0-1.3.039-1.887-.01-.63-.052-.868.178-.89.81a9.511,9.511,0,0,0,3.886,8.371,24.784,24.784,0,0,0,3.035,1.693c.025-.468.04-.657.045-.846a2.821,2.821,0,0,1,3.114-3.066c.544,0,1.09.024,1.633-.005,1.769-.1,3.079.5,3.593,2.421a9.548,9.548,0,0,0,3.731-5.146C4730.452,132.622,4729.763,132.105,4729.326,130.038Zm-14.294-4.264c1.311.134,2.579-.174,3.619.71,1.1.935.979,2.207.985,3.466h1.336v-9.263A9.888,9.888,0,0,0,4715.032,125.775Zm14.406,1.235c.826.228,1.8.223,2.273.705s.458,1.455.663,2.239h1.136a8.094,8.094,0,0,0-.771-3.805.584.584,0,0,0-.408-.308c-.961-.027-1.922-.014-2.893-.014Zm-5.571,12.8c.711-.1,1.342-.208,1.976-.273.71-.073.933-.423.679-1.133h-2.654Z" transform="translate(-3896.135 2993.58)"/>
    <path id="Trazado_189803" data-name="Trazado 189803" d="M4503.039,562.877c.229.3.374.459.484.638a1.361,1.361,0,0,1-.237,1.775,1.225,1.225,0,0,1-1.71.086,35.291,35.291,0,0,1-3.1-3.113,1.326,1.326,0,0,1,1.041-2.14c1.436-.063,2.876-.044,4.314-.006a1.328,1.328,0,0,1,1.316,1.378,1.359,1.359,0,0,1-1.319,1.379C4503.618,562.893,4503.4,562.877,4503.039,562.877Z" transform="translate(-3717.907 2623.406)" fill="#084a93"/>
    <path id="Trazado_189804" data-name="Trazado 189804" d="M4609.246,290.683v-2.707h2.7v2.707Z" transform="translate(-3810.797 2850.99)" fill="#084a93"/>
    <path id="Trazado_189805" data-name="Trazado 189805" d="M4609.3,321.911h2.686v2.7H4609.3Z" transform="translate(-3810.845 2822.607)" fill="#084a93"/>
    <path id="Trazado_189806" data-name="Trazado 189806" d="M4782.325,322v2.673h-2.688V322Z" transform="translate(-3953.309 2822.536)" fill="#084a93"/>
    <path id="Trazado_189807" data-name="Trazado 189807" d="M4439.038,324.631v-2.689h2.677v2.689Z" transform="translate(-3668.439 2822.582)" fill="#084a93"/>
    <path id="Trazado_189808" data-name="Trazado 189808" d="M4779.706,287.8h2.649v2.7h-2.649Z" transform="translate(-3953.366 2851.138)" fill="#084a93"/>
    <path id="Trazado_189809" data-name="Trazado 189809" d="M4441.746,288.108v2.66h-2.705v-2.66Z" transform="translate(-3668.441 2850.88)" fill="#084a93"/>
    <path id="Trazado_189810" data-name="Trazado 189810" d="M4663.275,563.21H4660.6v-2.685h2.671Z" transform="translate(-3853.752 2623.036)" fill="#084a93"/>
    <path id="Trazado_189811" data-name="Trazado 189811" d="M4560.812,563.143h-2.673v-2.7h2.673Z" transform="translate(-3768.052 2623.108)" fill="#084a93"/>
    <path id="Trazado_189812" data-name="Trazado 189812" d="M4592.175,563.154v-2.673h2.71v2.673Z" transform="translate(-3796.519 2623.073)" fill="#084a93"/>
    <path id="Trazado_189813" data-name="Trazado 189813" d="M4629.083,563.154h-2.673v-2.7h2.673Z" transform="translate(-3825.152 2623.097)" fill="#084a93"/>
    <path id="Trazado_189814" data-name="Trazado 189814" d="M4462.62,483.789h-23.66a7.1,7.1,0,0,0,.019-8.273h23.556a7.36,7.36,0,0,0-1.326,4.135A7.069,7.069,0,0,0,4462.62,483.789Z" transform="translate(-3668.373 2694.135)" fill="#b9ddfc"/>
    <path id="Trazado_189815" data-name="Trazado 189815" d="M4652,475.4h23.561a7.064,7.064,0,0,0,.012,8.24H4652A7.055,7.055,0,0,0,4652,475.4Z" transform="translate(-3846.552 2694.232)" fill="#b9ddfc"/>
    <path id="Trazado_189816" data-name="Trazado 189816" d="M4737.155,407.052h11.034v8.282h-11.034Zm6.854,2.815H4741.3v2.687h2.709Z" transform="translate(-3917.778 2751.397)" fill="#ffb30b"/>
    <path id="Trazado_189817" data-name="Trazado 189817" d="M4577.934,407.209v8.257h-11.042v-8.257Zm-4.2,5.476v-2.679h-2.7v2.679Z" transform="translate(-3775.372 2751.266)" fill="#ffb30b"/>
    <path id="Trazado_189818" data-name="Trazado 189818" d="M4396.417,407.052h11.019v8.281h-11.019Zm4.187,5.477h2.681v-2.674H4400.6Z" transform="translate(-3632.791 2751.397)" fill="#ffb30b"/>
    <path id="Trazado_189819" data-name="Trazado 189819" d="M4387.4,479.292a4.171,4.171,0,0,1-4.188,4.2,4.214,4.214,0,0,1-4.156-4.17,4.172,4.172,0,0,1,8.344-.033Zm-2.789-.007a1.337,1.337,0,0,0-1.424-1.344,1.378,1.378,0,0,0-1.349,1.357,1.437,1.437,0,0,0,1.4,1.411A1.393,1.393,0,0,0,4384.61,479.286Z" transform="translate(-3618.27 2694.444)" fill="#084a93"/>
    <path id="Trazado_189820" data-name="Trazado 189820" d="M4596.118,475.152a4.169,4.169,0,0,1,4.223,4.163,4.182,4.182,0,1,1-8.364,0A4.166,4.166,0,0,1,4596.118,475.152Zm1.416,4.147a1.376,1.376,0,0,0-2.752,0,1.376,1.376,0,1,0,2.752,0Z" transform="translate(-3796.353 2694.44)" fill="#084a93"/>
    <path id="Trazado_189821" data-name="Trazado 189821" d="M4805.024,479.268a4.172,4.172,0,0,1,8.343.076,4.216,4.216,0,0,1-4.179,4.147A4.169,4.169,0,0,1,4805.024,479.268Zm5.555,0a1.368,1.368,0,0,0-1.447-1.332,1.337,1.337,0,0,0-1.319,1.446,1.387,1.387,0,0,0,1.388,1.316A1.434,1.434,0,0,0,4810.579,479.272Z" transform="translate(-3974.542 2694.448)" fill="#084a93"/>
    <path id="Trazado_189822" data-name="Trazado 189822" d="M4737.15,373.016h11.05v2.677h-11.05Z" transform="translate(-3917.773 2779.864)" fill="#ffb30b"/>
    <path id="Trazado_189823" data-name="Trazado 189823" d="M4577.819,373.1v2.682h-11.045V373.1Z" transform="translate(-3775.275 2779.796)" fill="#ffb30b"/>
    <path id="Trazado_189824" data-name="Trazado 189824" d="M4407.424,373.175v2.66h-11.048v-2.66Z" transform="translate(-3632.757 2779.731)" fill="#ffb30b"/>
    <path id="Trazado_189825" data-name="Trazado 189825" d="M4481.638,407.135h2.679v8.28h-2.679Z" transform="translate(-3704.069 2751.328)" fill="#ffb30b"/>
    <path id="Trazado_189826" data-name="Trazado 189826" d="M4654.494,415.544h-2.683v-8.256h2.683Z" transform="translate(-3846.397 2751.2)" fill="#ffb30b"/>
    <path id="Trazado_189827" data-name="Trazado 189827" d="M4824.964,415.4h-2.678v-8.289h2.678Z" transform="translate(-3988.979 2751.348)" fill="#ffb30b"/>
    <path id="Trazado_189828" data-name="Trazado 189828" d="M4481.516,372.9h2.674v2.7h-2.674Z" transform="translate(-3703.966 2779.963)" fill="#ffb30b"/>
    <path id="Trazado_189829" data-name="Trazado 189829" d="M4651.963,372.9h2.647v2.708h-2.647Z" transform="translate(-3846.525 2779.96)" fill="#ffb30b"/>
    <path id="Trazado_189830" data-name="Trazado 189830" d="M4822.315,372.994H4825v2.679h-2.684Z" transform="translate(-3989.003 2779.883)" fill="#ffb30b"/>
    <path id="Trazado_189831" data-name="Trazado 189831" d="M4390.655,141.43a9.54,9.54,0,0,1,10.6-6.821v2.623c-.362,0-.727-.007-1.092,0a2.84,2.84,0,0,0-3.058,3.057c0,.353-.011.707,0,1.06a2.783,2.783,0,0,0,2.917,2.85c2.882.014,5.765,0,8.647,0h.975a9.93,9.93,0,0,1-2.781,6.819c.045-1.332.023-2.459-.906-3.3-.954-.865-2.108-.757-3.244-.728-1.539.039-2.37.838-2.882,2.736-2.107.32-2.866,1.7-2.737,3.8a9.691,9.691,0,0,1-5.1-3.643,9.131,9.131,0,0,0,1.519-.972c1.206-1.159,1.174-5.472,0-6.66A3.415,3.415,0,0,0,4390.655,141.43Z" transform="translate(-3627.972 2979.375)" fill="#b9ddfc"/>
    <path id="Trazado_189832" data-name="Trazado 189832" d="M4451.54,139.994a9.988,9.988,0,0,1,5.193,5.985h-9.285v-1.329C4450.792,145.019,4451.982,143.275,4451.54,139.994Z" transform="translate(-3675.473 2974.759)" fill="#084a93"/>
    <path id="Trazado_189833" data-name="Trazado 189833" d="M4447.385,232.549v-1.637c2.216.434,3.105-.552,2.724-2.715h1.429c0,.98.017,1.946-.017,2.911a.618.618,0,0,1-.367.439C4449.946,231.891,4448.728,232.2,4447.385,232.549Z" transform="translate(-3675.42 2900.988)" fill="#084a93"/>
    <path id="Trazado_189834" data-name="Trazado 189834" d="M4388.789,196.964c-.712.251-1.049-.018-1.109-.747-.05-.613-.142-1.223-.224-1.9h1.333Z" transform="translate(-3625.296 2929.328)" fill="#084a93"/>
    <path id="Trazado_189835" data-name="Trazado 189835" d="M4563.288,136.962a8.732,8.732,0,0,1,5.839-2.213,5,5,0,0,1-.066.529,2.678,2.678,0,0,0,1.164,2.985c.683.495,1.394.95,2.1,1.41a2.81,2.81,0,0,0,4.178-.82c.122-.173.252-.34.381-.515,2.936,2.924,3.222,9.067-.256,12.577l-2.166-1.445a5.353,5.353,0,0,0,.771-1.226,6.785,6.785,0,0,0,.337-2.192c-.075-1.283-3.034-3.367-4.476-2.737a4.322,4.322,0,0,0-1.762,1.329c-1.65,2.329-3.2,4.732-4.781,7.107-.163.245-.336.483-.5.718a8.638,8.638,0,0,1-4.035-5.9,4.188,4.188,0,0,0,.984.608,5.072,5.072,0,0,0,2.027.34c1.641-.262,2.265-1.684,2.83-3a2.541,2.541,0,0,0-.73-2.9.665.665,0,0,1-.166-.531c.526-2.033.287-2.707-1.443-3.93C4563.451,137.1,4563.392,137.048,4563.288,136.962Z" transform="translate(-3769.622 2979.146)" fill="#b9ddfc"/>
    <path id="Trazado_189836" data-name="Trazado 189836" d="M4607.9,210.31a9.756,9.756,0,0,1-7.832.934l5.171-7.764,1.162.768c-.722,1.056-1.51,2.06-1.147,3.438C4605.612,209.045,4606.894,209.484,4607.9,210.31Z" transform="translate(-3803.12 2921.661)" fill="#084a93"/>
    <path id="Trazado_189837" data-name="Trazado 189837" d="M4561.672,161.154c-1.289,2.261-1.289,2.261.774,3.933l-.736,1.1c-.826-.545-1.628-1.045-2.388-1.6a.762.762,0,0,1-.2-.673c.366-1.151.786-2.285,1.252-3.608Z" transform="translate(-3768.862 2957.769)" fill="#084a93"/>
    <path id="Trazado_189838" data-name="Trazado 189838" d="M4634.181,139.154l-2.282-1.52.542-.882,2.552,1.188Z" transform="translate(-3829.743 2977.471)" fill="#084a93"/>
    <path id="Trazado_189839" data-name="Trazado 189839" d="M4743.542,144.278c.437,2.067,1.126,2.583,3.779,2.8a9.548,9.548,0,0,1-3.731,5.146c-.514-1.919-1.825-2.517-3.593-2.421-.542.03-1.088,0-1.632.005a2.821,2.821,0,0,0-3.115,3.066c0,.189-.02.378-.045.846a24.782,24.782,0,0,1-3.035-1.693,9.511,9.511,0,0,1-3.886-8.371c.023-.632.261-.862.89-.81.59.049,1.189.01,1.887.01,0,.518-.014.973,0,1.426a2.82,2.82,0,0,0,2.771,2.749c3.443.242,4.347-1.259,4.228-4.112-.1-2.472-.021-4.952-.021-7.428v-.974a9.191,9.191,0,0,1,6.577,2.675,3.731,3.731,0,0,0-3.212,1.158c-.826,1.055-.6,2.284-.54,3.46C4740.93,143.117,4741.919,143.98,4743.542,144.278Z" transform="translate(-3910.351 2979.34)" fill="#b9ddfc"/>
    <path id="Trazado_189840" data-name="Trazado 189840" d="M4734.215,142.113a9.892,9.892,0,0,1,5.94-5.087v9.263h-1.336c-.007-1.259.114-2.532-.985-3.466C4736.794,141.939,4735.526,142.246,4734.215,142.113Z" transform="translate(-3915.318 2977.241)" fill="#084a93"/>
    <path id="Trazado_189841" data-name="Trazado 189841" d="M4822.262,169.6v-1.183c.97,0,1.932-.013,2.892.014a.584.584,0,0,1,.408.308,8.088,8.088,0,0,1,.771,3.805H4825.2c-.205-.784-.187-1.755-.663-2.239S4823.088,169.83,4822.262,169.6Z" transform="translate(-3988.959 2950.988)" fill="#084a93"/>
    <path id="Trazado_189842" data-name="Trazado 189842" d="M4788.212,246.693v-1.406h2.654c.254.71.031,1.059-.679,1.133C4789.553,246.485,4788.923,246.592,4788.212,246.693Z" transform="translate(-3960.48 2886.694)" fill="#084a93"/>
    <path id="Trazado_189843" data-name="Trazado 189843" d="M4765.194,424.256v2.687h-2.708v-2.687Z" transform="translate(-3938.964 2737.008)"/>
    <path id="Trazado_189844" data-name="Trazado 189844" d="M4594.919,426.979h-2.7V424.3h2.7Z" transform="translate(-3796.558 2736.971)"/>
    <path id="Trazado_189845" data-name="Trazado 189845" d="M4422.007,426.858v-2.674h2.682v2.674Z" transform="translate(-3654.194 2737.069)"/>
    <path id="Trazado_189846" data-name="Trazado 189846" d="M4398.833,493.569a1.394,1.394,0,0,1-1.371,1.423,1.437,1.437,0,0,1-1.4-1.411,1.377,1.377,0,0,1,1.349-1.357A1.337,1.337,0,0,1,4398.833,493.569Z" transform="translate(-3632.493 2680.162)"/>
    <path id="Trazado_189847" data-name="Trazado 189847" d="M4611.876,493.617a1.376,1.376,0,1,1-2.75,0,1.376,1.376,0,0,1,2.75,0Z" transform="translate(-3810.697 2680.122)"/>
    <path id="Trazado_189848" data-name="Trazado 189848" d="M4824.827,493.564a1.433,1.433,0,0,1-1.377,1.43,1.388,1.388,0,0,1-1.388-1.316,1.337,1.337,0,0,1,1.318-1.446A1.368,1.368,0,0,1,4824.827,493.564Z" transform="translate(-3988.79 2680.156)"/>
  </g>
</svg>
