<svg xmlns="http://www.w3.org/2000/svg" width="120" height="120" viewBox="0 0 120 120">
  <g id="_8" data-name="8" transform="translate(-992 -3090)">
    <circle id="Elipse_498" data-name="Elipse 498" cx="60" cy="60" r="60" transform="translate(992 3090)" fill="#fff"/>
    <path id="Trazado_189741" data-name="Trazado 189741" d="M4461.534-389.115c-.113.224-.244.441-.337.674q-2.4,5.984-4.794,11.972c-.522,1.3-.735,1.453-2.11,1.453h-18.644c-1.348,0-1.725-.28-1.927-1.573-.856-5.472-1.687-10.947-2.542-16.419a1.593,1.593,0,0,1,.919-1.838h19.21a8.3,8.3,0,0,1,1.032,1.353,11.98,11.98,0,0,1,.686,2.038.706.706,0,0,0,.815.595c1.926-.026,3.853.016,5.779-.023a2.03,2.03,0,0,1,1.914.841Zm-24.484,11.459c5.611,0,11.081.007,16.55-.024.221,0,.544-.321.645-.564,1.259-3.075,2.487-6.163,3.719-9.25.083-.208.138-.427.21-.653a1.311,1.311,0,0,0-.269-.071c-5.394,0-10.787-.011-16.18.015a.908.908,0,0,0-.631.484c-.443.986-.826,2-1.228,3C4438.941-382.4,4438.018-380.083,4437.05-377.656Zm13.321-13.216c-.275-1.336-.275-1.336-1.474-1.336h-14.906c.552,3.583,1.089,7.078,1.627,10.572a2.434,2.434,0,0,0,.5-.844q1.437-3.586,2.873-7.174c.417-1.037.677-1.212,1.8-1.217,1.677-.007,3.354,0,5.032,0Z" transform="translate(-3370.179 3504.847)"/>
    <path id="Trazado_189742" data-name="Trazado 189742" d="M4461.557-101.681c-.114.224-.245.441-.337.674q-2.418,6.027-4.827,12.057c-.479,1.194-.736,1.367-2.016,1.368q-9.372,0-18.742,0c-1.32,0-1.693-.293-1.9-1.61q-1.277-8.178-2.521-16.362c-.191-1.255.34-1.854,1.616-1.855q8.906-.008,17.812,0c1.016,0,1.36.254,1.7,1.234.245.706.5,1.41.7,2.13a.75.75,0,0,0,.88.621c1.961-.027,3.924.006,5.886-.019a1.667,1.667,0,0,1,1.751.991Zm-3.326.98a1.476,1.476,0,0,0-.265-.08c-5.393,0-10.786,0-16.18-.021-.482,0-.594.262-.735.614q-1.854,4.668-3.726,9.33c-.074.185-.124.38-.193.6.148.016.248.036.347.036,5.342,0,10.684,0,16.026.014a.71.71,0,0,0,.773-.553c1-2.541,2.022-5.073,3.036-7.609C4457.617-99.133,4457.914-99.9,4458.23-100.7Zm-22.556,6.734c.213-.479.335-.73.438-.988q1.422-3.551,2.837-7.1c.491-1.227.7-1.376,2-1.377q4.3,0,8.593,0c.272,0,.543-.023.907-.04l-.429-1.258h-16Z" transform="translate(-3370.202 3276.904)"/>
    <path id="Trazado_189743" data-name="Trazado 189743" d="M4461.555-248.526c-.568,1.342-1.155,2.678-1.7,4.028-1.179,2.913-2.336,5.834-3.507,8.751-.437,1.09-.732,1.288-1.918,1.288q-9.406,0-18.812,0c-1.271,0-1.675-.315-1.871-1.562q-1.285-8.212-2.535-16.431c-.187-1.226.329-1.83,1.551-1.832,5.987-.008,11.973,0,17.96-.01a1.477,1.477,0,0,1,1.6,1.162c.222.74.506,1.461.721,2.2a.707.707,0,0,0,.813.6c1.935-.027,3.871.014,5.806-.023a1.969,1.969,0,0,1,1.9.9Zm-24.443,11.354a2.361,2.361,0,0,0,.358.066c5.364,0,10.729.01,16.094-.019a.969.969,0,0,0,.684-.529c1.288-3.145,2.541-6.3,3.8-9.461a3.885,3.885,0,0,0,.127-.531c-.211-.021-.361-.048-.51-.048-5.262,0-10.523.005-15.785-.014-.489,0-.66.206-.819.611-1.162,2.946-2.348,5.882-3.524,8.822C4437.395-237.926,4437.265-237.57,4437.112-237.173Zm-1.476-3.917.172-.007q1.574-3.939,3.149-7.878c.469-1.172.758-1.368,2.023-1.369q4.293,0,8.584,0c.267,0,.534-.022.815-.035-.277-1.261-.277-1.261-1.422-1.261h-14.945C4434.567-248.049,4435.1-244.57,4435.637-241.09Z" transform="translate(-3370.199 3393.384)"/>
    <path id="Trazado_189744" data-name="Trazado 189744" d="M4236.88-303.583c0,6.093-.019,12.186.02,18.279a2.73,2.73,0,0,1-1,2.22,14.265,14.265,0,0,1-4.812,2.577,41.427,41.427,0,0,1-9.877,2.139,53.56,53.56,0,0,1-16.022-.715,26.049,26.049,0,0,1-7.995-2.786,11.105,11.105,0,0,1-1.028-.688,3.6,3.6,0,0,1-1.616-3.19q.09-17.775,0-35.55a6.2,6.2,0,0,1,3.172-5.69,23.965,23.965,0,0,1,8.918-3.127,50.594,50.594,0,0,1,20.663.534,18.245,18.245,0,0,1,7.426,3.312,5.425,5.425,0,0,1,2.168,4.485C4236.856-315.717,4236.88-309.65,4236.88-303.583Zm-39.66,9.226c0,3.046-.011,5.96.019,8.874a1.045,1.045,0,0,0,.436.739,17.309,17.309,0,0,0,2.555,1.425,36.613,36.613,0,0,0,11.136,2.4,45.957,45.957,0,0,0,18.334-1.91,25.74,25.74,0,0,0,4.016-1.932,1.321,1.321,0,0,0,.5-.993c.042-2.657.023-5.315.021-7.973,0-.189-.029-.378-.047-.608-5.869,2.962-12.124,3.691-18.477,3.69S4203.112-291.376,4197.22-294.357Zm0-12.394v.85c0,2.348.071,4.7-.032,7.043a1.912,1.912,0,0,0,1.286,2.1,50.386,50.386,0,0,0,5.77,2.145,46.34,46.34,0,0,0,13.891,1.275,40.729,40.729,0,0,0,11.618-1.992,25.33,25.33,0,0,0,3.941-1.919,1.43,1.43,0,0,0,.524-1.072c.045-2.579.024-5.16.022-7.74,0-.2-.02-.393-.028-.559-1.328.618-2.589,1.325-3.93,1.807a43.9,43.9,0,0,1-17.375,2.2,36.029,36.029,0,0,1-13.651-3.005C4198.588-305.933,4197.964-306.334,4197.22-306.75Zm18.439-9.651a41.983,41.983,0,0,0,13.155-1.892,11.976,11.976,0,0,0,4.472-2.374c1.262-1.156,1.26-2.18,0-3.344a11.492,11.492,0,0,0-4.322-2.329,43.044,43.044,0,0,0-15.493-1.885,38.635,38.635,0,0,0-11.007,1.892,11.42,11.42,0,0,0-4.371,2.4,1.918,1.918,0,0,0-.013,3.188,2.819,2.819,0,0,0,.652.542,33.927,33.927,0,0,0,3.95,1.9A39.78,39.78,0,0,0,4215.659-316.4Zm-18.44-1.543c0,2,.08,3.93-.025,5.854a3.462,3.462,0,0,0,1.751,3.282,18.149,18.149,0,0,0,6.14,2.456,47.285,47.285,0,0,0,15.917.914,30.945,30.945,0,0,0,9.149-2.142,16.153,16.153,0,0,0,3.154-1.91,2.253,2.253,0,0,0,.876-1.471c.093-2.307.041-4.62.041-6.895-1.387.639-2.7,1.36-4.089,1.863a40.611,40.611,0,0,1-14.068,2.212C4209.537-313.8,4203.141-314.515,4197.219-317.944Z" transform="translate(-3182.547 3454.156)"/>
    <path id="Trazado_189745" data-name="Trazado 189745" d="M4290.714-381.938h2.545v2.56h-2.545Z" transform="translate(-3258.81 3494.61)" fill="#084a93"/>
    <path id="Trazado_189746" data-name="Trazado 189746" d="M4316.254-381.9h2.532v2.546h-2.532Z" transform="translate(-3279.064 3494.581)" fill="#084a93"/>
    <path id="Trazado_189747" data-name="Trazado 189747" d="M4341.743-379.344v-2.539h2.54v2.539Z" transform="translate(-3299.278 3494.566)" fill="#084a93"/>
    <path id="Trazado_189748" data-name="Trazado 189748" d="M4369.961-381.845v2.522h-2.543v-2.522Z" transform="translate(-3319.639 3494.536)" fill="#084a93"/>
    <path id="Trazado_189749" data-name="Trazado 189749" d="M4395.6-379.292h-2.532v-2.544h2.532Z" transform="translate(-3339.979 3494.529)" fill="#084a93"/>
    <path id="Trazado_189750" data-name="Trazado 189750" d="M4290.711-353.755v-2.538h2.546v2.538Z" transform="translate(-3258.808 3474.272)" fill="#084a93"/>
    <path id="Trazado_189751" data-name="Trazado 189751" d="M4290.691-59.882v-2.541h2.566v2.541Z" transform="translate(-3258.792 3241.225)" fill="#084a93"/>
    <path id="Trazado_189752" data-name="Trazado 189752" d="M4290.7-34.283v-2.539h2.552v2.539Z" transform="translate(-3258.797 3220.922)" fill="#084a93"/>
    <path id="Trazado_189753" data-name="Trazado 189753" d="M4316.236-36.927h2.541v2.555h-2.541Z" transform="translate(-3279.05 3221.005)" fill="#084a93"/>
    <path id="Trazado_189754" data-name="Trazado 189754" d="M4341.713-34.326V-36.85h2.569v2.524Z" transform="translate(-3299.254 3220.944)" fill="#084a93"/>
    <path id="Trazado_189755" data-name="Trazado 189755" d="M4369.97-36.835v2.544h-2.542v-2.544Z" transform="translate(-3319.647 3220.932)" fill="#084a93"/>
    <path id="Trazado_189756" data-name="Trazado 189756" d="M4395.533-36.787v2.523h-2.565v-2.523Z" transform="translate(-3339.901 3220.895)" fill="#084a93"/>
    <path id="Trazado_189757" data-name="Trazado 189757" d="M4459.662-352.273c.968-2.427,1.891-4.743,2.815-7.059.4-1,.785-2.018,1.228-3a.906.906,0,0,1,.631-.484c5.394-.026,10.787-.019,16.18-.015a1.311,1.311,0,0,1,.269.071c-.071.226-.127.445-.21.653-1.231,3.086-2.459,6.174-3.719,9.249-.1.243-.424.563-.645.564C4470.742-352.267,4465.273-352.273,4459.662-352.273Z" transform="translate(-3392.791 3479.464)" fill="#ffb30b"/>
    <path id="Trazado_189758" data-name="Trazado 189758" d="M4461.264-380.761h-4.542c-1.677,0-3.354-.005-5.031,0-1.124,0-1.384.18-1.8,1.217q-1.443,3.585-2.874,7.174a2.434,2.434,0,0,1-.5.844c-.538-3.495-1.075-6.989-1.627-10.572h14.906C4460.989-382.1,4460.989-382.1,4461.264-380.761Z" transform="translate(-3381.072 3494.736)" fill="#ffb30b"/>
    <path id="Trazado_189759" data-name="Trazado 189759" d="M4481.05-75.366c-.316.8-.613,1.568-.917,2.329-1.014,2.536-2.036,5.068-3.036,7.609a.711.711,0,0,1-.773.553c-5.342-.018-10.685-.012-16.026-.014-.1,0-.2-.02-.347-.036.069-.218.119-.412.193-.6q1.863-4.665,3.727-9.33c.14-.353.252-.616.735-.615,5.393.021,10.786.017,16.179.021A1.452,1.452,0,0,1,4481.05-75.366Z" transform="translate(-3393.021 3251.569)" fill="#ffb30b"/>
    <path id="Trazado_189760" data-name="Trazado 189760" d="M4446.574-83.713c-.573-3.726-1.11-7.225-1.654-10.77h16.005c.125.37.262.768.429,1.258-.365.017-.636.04-.907.04q-4.3,0-8.592,0c-1.3,0-1.515.15-2.006,1.377q-1.418,3.552-2.836,7.1C4446.909-84.442,4446.787-84.192,4446.574-83.713Z" transform="translate(-3381.1 3266.649)" fill="#ffb30b"/>
    <path id="Trazado_189761" data-name="Trazado 189761" d="M4459.866-211.946c.151-.4.282-.753.423-1.1,1.176-2.94,2.361-5.877,3.524-8.823.16-.406.33-.613.819-.611,5.262.02,10.523.012,15.785.014.15,0,.3.027.511.048a3.885,3.885,0,0,1-.127.531c-1.257,3.158-2.511,6.317-3.8,9.461a.968.968,0,0,1-.684.529c-5.364.03-10.729.023-16.093.019A2.354,2.354,0,0,1,4459.866-211.946Z" transform="translate(-3392.953 3368.158)" fill="#ffb30b"/>
    <path id="Trazado_189762" data-name="Trazado 189762" d="M4446.521-230.929c-.535-3.48-1.069-6.96-1.622-10.552h14.945c1.145,0,1.145,0,1.422,1.261-.281.012-.548.034-.815.035q-4.292,0-8.584,0c-1.267,0-1.555.2-2.024,1.369q-1.576,3.938-3.148,7.878Z" transform="translate(-3381.083 3383.223)" fill="#ffb30b"/>
    <path id="Trazado_189763" data-name="Trazado 189763" d="M4207.456-154.231c5.892,2.98,12.145,3.715,18.5,3.716s12.607-.728,18.476-3.69c.019.23.048.419.048.608,0,2.658.02,5.316-.021,7.973a1.321,1.321,0,0,1-.5.993,25.756,25.756,0,0,1-4.016,1.932,45.957,45.957,0,0,1-18.333,1.91,36.615,36.615,0,0,1-11.138-2.4,17.329,17.329,0,0,1-2.554-1.425,1.042,1.042,0,0,1-.436-.739C4207.445-148.271,4207.456-151.185,4207.456-154.231Z" transform="translate(-3192.782 3314.031)" fill="#084a93"/>
    <path id="Trazado_189764" data-name="Trazado 189764" d="M4207.324-214.113c.745.417,1.37.817,2.036,1.13a36.03,36.03,0,0,0,13.652,3.005,43.9,43.9,0,0,0,17.375-2.2c1.342-.482,2.6-1.189,3.93-1.807.009.166.028.362.028.559,0,2.58.023,5.161-.022,7.74a1.427,1.427,0,0,1-.524,1.072,25.335,25.335,0,0,1-3.941,1.919,40.724,40.724,0,0,1-11.617,1.992,46.341,46.341,0,0,1-13.891-1.275,50.348,50.348,0,0,1-5.77-2.145,1.912,1.912,0,0,1-1.285-2.1c.1-2.343.031-4.694.031-7.043Z" transform="translate(-3192.652 3361.519)" fill="#084a93"/>
    <path id="Trazado_189765" data-name="Trazado 189765" d="M4225.979-306.246a39.778,39.778,0,0,1-12.973-1.909,34.057,34.057,0,0,1-3.95-1.9,2.818,2.818,0,0,1-.651-.542,1.918,1.918,0,0,1,.013-3.188,11.421,11.421,0,0,1,4.371-2.4,38.638,38.638,0,0,1,11.007-1.892,43.041,43.041,0,0,1,15.493,1.885,11.485,11.485,0,0,1,4.321,2.329c1.256,1.164,1.257,2.188,0,3.344a11.972,11.972,0,0,1-4.472,2.374A41.981,41.981,0,0,1,4225.979-306.246Z" transform="translate(-3192.867 3444.002)" fill="#084a93"/>
    <path id="Trazado_189766" data-name="Trazado 189766" d="M4207.336-268.2c5.922,3.429,12.316,4.143,18.847,4.163a40.611,40.611,0,0,0,14.067-2.212c1.391-.5,2.7-1.224,4.089-1.863,0,2.275.052,4.588-.041,6.895a2.254,2.254,0,0,1-.876,1.471,16.171,16.171,0,0,1-3.154,1.91,30.943,30.943,0,0,1-9.149,2.142,47.288,47.288,0,0,1-15.917-.914,18.147,18.147,0,0,1-6.14-2.455,3.463,3.463,0,0,1-1.752-3.282C4207.415-264.268,4207.336-266.2,4207.336-268.2Z" transform="translate(-3192.662 3404.41)" fill="#084a93"/>
  </g>
</svg>
