<svg xmlns="http://www.w3.org/2000/svg" width="120" height="120" viewBox="0 0 120 120">
  <g id="_9" data-name="9" transform="translate(-1244 -3090)">
    <circle id="Elipse_498" data-name="Elipse 498" cx="60" cy="60" r="60" transform="translate(1244 3090)" fill="#fff"/>
    <circle id="Elipse_4899" data-name="Elipse 4899" cx="60" cy="60" r="60" transform="translate(1244 3090)" fill="#fff"/>
    <path id="Trazado_189767" data-name="Trazado 189767" d="M4749.251-382.34v-11.012a1.515,1.515,0,0,0,.118-.243,4.7,4.7,0,0,1,4.389-3.734c.455-.052.916-.05,1.411-.074v-3.513c-.3,0-.576,0-.847,0a4.523,4.523,0,0,1-3.641-1.434,15.127,15.127,0,0,1-1.43-2.571v-11.012a2.81,2.81,0,0,0,.129-.313,4.678,4.678,0,0,1,4.225-3.67c.518-.065,1.043-.065,1.6-.1,0-1.02-.021-1.97.009-2.919.014-.459-.154-.556-.594-.608a10.246,10.246,0,0,1-2.7-.522,4.7,4.7,0,0,1-2.675-3.58v-10.873c.165-.451.3-.916.5-1.349a5.031,5.031,0,0,1,3.543-2.694h63.284c.173.059.344.123.52.175a4.651,4.651,0,0,1,3.5,4.438c.061,3.274.074,6.552,0,9.825a4.623,4.623,0,0,1-4.407,4.548c-.48.045-.963.062-1.462.093v3.513c.382,0,.706-.008,1.029,0a4.71,4.71,0,0,1,4.837,4.584q.129,4.944,0,9.894a4.6,4.6,0,0,1-4.3,4.5c-.521.059-1.047.079-1.579.118v3.5c.344,0,.643-.006.942,0a4.8,4.8,0,0,1,4.966,5.042q.017,4.53,0,9.06a4.672,4.672,0,0,1-3.094,4.59.643.643,0,0,0-.488.71c.019.975.032,1.953-.032,2.925a4.1,4.1,0,0,1-5.337,3.649,4.046,4.046,0,0,1-2.9-3.7c-.049-1.058-.009-2.119-.009-3.173h-4.188c.743,1.795.566,3.619.578,5.424.008,1.269-.385,1.649-1.67,1.649H4766.4c-1.318,0-1.715-.373-1.677-1.707.052-1.792.162-3.581.249-5.417h-3.869c0,1.171.048,2.238-.01,3.3a4.12,4.12,0,0,1-4.129,3.822,4.117,4.117,0,0,1-4.094-3.782c-.064-1-.054-2-.036-2.995.007-.395-.162-.538-.488-.714a5.5,5.5,0,0,1-1.756-1.189A15.3,15.3,0,0,1,4749.251-382.34Zm53.527,8.767c0-.5-.015-.936,0-1.372a6.168,6.168,0,0,0-3.266-5.825c-2.123-1.287-4.254-2.561-6.423-3.768-1.635-.91-3.022-1.983-3.2-4-.142-1.6-.269-3.18.755-4.658a25.941,25.941,0,0,0,1.994-3.766,7.663,7.663,0,0,0,.677-3.408c-.045-3.971-.033-7.944-.012-11.915a5.959,5.959,0,0,0-4.522-6.02,13.97,13.97,0,0,0-6.759-.252c-3.345.679-5.479,2.736-5.457,6.536.023,3.832.042,7.666-.015,11.5a8.954,8.954,0,0,0,.864,3.992.747.747,0,0,0,.529.375c1.021.036,2.043.008,3.066.023.354.005.484-.122.623-.468a2.5,2.5,0,0,1,2.036-1.759,19.391,19.391,0,0,1,3.24-.094,3,3,0,0,1,1.41.631c1.383.98,1.131,2.459,1.071,3.856a2.8,2.8,0,0,1-2.222,2.418,17.424,17.424,0,0,1-2.42.123,3.039,3.039,0,0,1-3.176-2.051.619.619,0,0,0-.427-.359c-.757-.037-1.517-.017-2.514-.017a5.368,5.368,0,0,1,1.422,4.631,4.632,4.632,0,0,1-2.3,3.984c-2.393,1.369-4.747,2.809-7.16,4.14-3.226,1.779-3.861,4.611-3.384,7.527Zm-17.913-66.615c-10.243,0-20.486.02-30.729-.024a2.577,2.577,0,0,0-2.542,2.569c.085,2.994.026,5.992.026,8.988a2.509,2.509,0,0,0,2.85,2.824H4815.3c.14,0,.279,0,.418,0a2.461,2.461,0,0,0,2.531-2.6q0-4.634,0-9.267a2.333,2.333,0,0,0-2.517-2.489Zm-22.8,45.163c-2.693,0-5.387-.006-8.08,0a2.381,2.381,0,0,0-2.361,2.371q-.006,4.806,0,9.612a2.35,2.35,0,0,0,2.289,2.367q6.094.018,12.189-.009a1.256,1.256,0,0,0,.695-.311,18.573,18.573,0,0,1,1.8-1.507c2.2-1.34,4.438-2.609,6.661-3.9.4-.231.8-.456,1.191-.692a2.212,2.212,0,0,0,1.25-2.2,6.829,6.829,0,0,0-.419-2.742,2.918,2.918,0,0,0-3.381-1.809,3.915,3.915,0,0,1-2.907-.835,1.631,1.631,0,0,0-.912-.331C4767.4-395.035,4764.733-395.024,4762.063-395.024Zm43.306,0c-3.391,0-6.781.016-10.171-.014-.624-.006-1.031.1-1.259.746a4.413,4.413,0,0,1-.759,1.39,5.111,5.111,0,0,0-1.02,3.815,2.275,2.275,0,0,0,1.195,2.023c1.877,1.115,3.778,2.192,5.628,3.349,1.323.828,2.575,1.77,3.871,2.642a1.8,1.8,0,0,0,.874.389c4.017.026,8.034.019,12.052.016a2.39,2.39,0,0,0,2.47-2.484q0-4.668,0-9.335a2.415,2.415,0,0,0-2.57-2.537Q4810.525-395.026,4805.369-395.024Zm-34.318-22.581c-5.772,0-11.484-.008-17.194.006a2.322,2.322,0,0,0-2.234,2.343c0,3.134.062,6.27-.03,9.4a2.667,2.667,0,0,0,2.665,2.628c4.805-.057,9.612-.022,14.417-.022h.8v-.831c0-2.066-.083-4.137.028-6.2a34.189,34.189,0,0,1,.661-4.683A20.917,20.917,0,0,1,4771.051-417.606Zm29.342,14.283a1.326,1.326,0,0,0,.227.065c5.105,0,10.211.021,15.316,0a2.4,2.4,0,0,0,2.313-2.443c0-3.11-.057-6.221.028-9.328a2.646,2.646,0,0,0-2.606-2.6c-5.383.058-10.768.023-16.152.023h-.731c.073.2.116.355.183.5a17.613,17.613,0,0,1,1.421,7.58C4800.4-407.467,4800.393-405.4,4800.393-403.322Zm-4.822-5.977h2.453c.329-5.562-1.61-10.027-6.545-12.651a13.02,13.02,0,0,0-15,1.261c-3.636,2.845-5,6.815-4.6,11.4h2.463c0-1.338-.048-2.63.011-3.916a7.6,7.6,0,0,1,2.2-4.989c1.982-2.078,4.586-2.742,7.313-2.856a21.365,21.365,0,0,1,4.793.4,8.172,8.172,0,0,1,6.917,8.492C4795.555-411.212,4795.571-410.265,4795.571-409.3Zm-19.369-14.28c-.082,0-.213-.019-.344-.019h-17.767c-.069,0-.164-.028-.2.006-.147.126-.388.27-.393.414-.033,1.061-.018,2.124-.018,3.192a2.466,2.466,0,0,0,.4.078q7.142.007,14.283,0a.963.963,0,0,0,.608-.247C4773.92-421.283,4775.049-422.426,4776.2-423.579Zm17.447-.02c1.167,1.168,2.273,2.3,3.419,3.395a1.362,1.362,0,0,0,.866.289c3.8.019,7.61.012,11.415.012h3.017c0-1.079-.035-2,.012-2.926.031-.607-.152-.787-.775-.784-5.8.024-11.6.014-17.4.014Zm1.622,26.345c.864,0,1.718,0,2.573,0,4.6-.01,9.193-.03,13.79-.018.582,0,.774-.173.743-.75-.043-.787-.025-1.579-.005-2.367.011-.423-.089-.629-.576-.627-3.784.013-7.568,0-11.353.008a.727.727,0,0,0-.527.214,2.608,2.608,0,0,1-2.288,1.03c-.667.007-1.334,0-1.983,0C4795.515-398.9,4795.4-398.109,4795.271-397.255Zm-25.854-3.762c-3.86,0-7.688-.006-11.516.023-.144,0-.4.339-.406.529-.045.834.012,1.673-.031,2.507-.028.553.151.722.708.715,2.253-.029,4.507-.012,6.76-.012,1.37,0,2.742.013,4.111-.015.186,0,.527-.215.525-.327C4769.553-398.7,4769.479-399.81,4769.417-401.017Zm-12.45,22.664a13.391,13.391,0,0,0-1.391.017c-.163.017-.438.228-.438.349a24.053,24.053,0,0,0,.121,3.045,1.664,1.664,0,0,0,1.8,1.385,1.689,1.689,0,0,0,1.664-1.462,25.825,25.825,0,0,0,.1-2.91c0-.142-.284-.382-.458-.4A11.121,11.121,0,0,0,4756.967-378.353Zm57.843,0c-1.224,0-2.289-.015-3.353.018a.573.573,0,0,0-.4.388,24.29,24.29,0,0,0,.085,2.842,1.692,1.692,0,0,0,1.66,1.547,1.669,1.669,0,0,0,1.82-1.437C4814.763-376.063,4814.749-377.151,4814.81-378.352Zm-42.951-23.8h2.357v-4.664h-2.357Zm26.132.007v-4.686h-2.339v4.686Zm-26.1,2.385c-.313,3.234.224,3.909,3.056,3.548-.26-1.162-.522-2.328-.791-3.526-.108-.006-.268-.021-.428-.021C4773.13-399.765,4772.532-399.763,4771.892-399.763Zm13.5,5.994c.347,0,.694-.011,1.04,0,.528.02.731-.228.743-.748.037-1.666-.043-1.76-1.7-1.76a5.985,5.985,0,0,0-.969.014c-.483.08-.833.282-.837.892-.014,1.6-.035,1.6,1.581,1.6Z" transform="translate(-3481.251 3556.557)"/>
    <path id="Trazado_189769" data-name="Trazado 189769" d="M4795.941-429.1h30.868a2.332,2.332,0,0,1,2.517,2.489q0,4.634,0,9.267a2.462,2.462,0,0,1-2.531,2.6c-.14,0-.278,0-.418,0h-60.83a2.509,2.509,0,0,1-2.851-2.824c0-3,.059-5.994-.026-8.988a2.578,2.578,0,0,1,2.542-2.569C4775.456-429.079,4785.7-429.1,4795.941-429.1Zm17.947,8.364h-8.919c-.58,0-1.162-.023-1.741.007a1.251,1.251,0,0,0-1.221,1.1c-.038.575.356,1.006,1.059,1.132a4.751,4.751,0,0,0,.823.08q9.965.006,19.93,0a8.677,8.677,0,0,0,.961-.091.91.91,0,0,0,.88-.977,1.976,1.976,0,0,0-.669-1.087,1.4,1.4,0,0,0-.859-.159Q4819.011-420.744,4813.889-420.735Zm-.069-2.509c3.53,0,7.061.016,10.59-.023a1.539,1.539,0,0,0,1.1-.514c.563-.787-.1-1.691-1.2-1.692q-10.45-.005-20.9,0c-.841,0-1.425.506-1.4,1.188s.507,1.041,1.36,1.041Zm-40.5,1.271a3.479,3.479,0,0,0-3.513-3.5,3.587,3.587,0,0,0-3.489,3.548,3.492,3.492,0,0,0,3.557,3.46A3.408,3.408,0,0,0,4773.323-421.973Zm6.039,3.514a3.394,3.394,0,0,0,3.51-3.487,3.427,3.427,0,0,0-3.555-3.511,3.4,3.4,0,0,0-3.472,3.521A3.388,3.388,0,0,0,4779.362-418.459Z" transform="translate(-3492.327 3545.469)" fill="#b9ddfc"/>
    <path id="Trazado_189770" data-name="Trazado 189770" d="M4773.26-170.3c2.67,0,5.34-.011,8.01.015a1.63,1.63,0,0,1,.912.331,3.917,3.917,0,0,0,2.907.835,2.916,2.916,0,0,1,3.38,1.809,6.829,6.829,0,0,1,.419,2.742,2.213,2.213,0,0,1-1.25,2.2c-.394.236-.794.461-1.191.692-2.224,1.3-4.464,2.564-6.661,3.9a18.7,18.7,0,0,0-1.8,1.507,1.254,1.254,0,0,1-.694.311q-6.1.028-12.189.009a2.35,2.35,0,0,1-2.289-2.367q-.005-4.806,0-9.612a2.381,2.381,0,0,1,2.361-2.372C4767.873-170.306,4770.566-170.3,4773.26-170.3Zm.192,7.149a3.38,3.38,0,0,0-3.51-3.479,3.41,3.41,0,0,0-3.482,3.579,3.414,3.414,0,0,0,3.548,3.446A3.389,3.389,0,0,0,4773.452-163.151Z" transform="translate(-3492.448 3331.833)" fill="#b9ddfc"/>
    <path id="Trazado_189771" data-name="Trazado 189771" d="M5008.192-170.357q5.155,0,10.311,0a2.415,2.415,0,0,1,2.57,2.537q0,4.668,0,9.335A2.389,2.389,0,0,1,5018.6-156c-4.018,0-8.035.009-12.052-.016a1.8,1.8,0,0,1-.874-.389c-1.3-.873-2.548-1.814-3.871-2.642-1.85-1.157-3.751-2.234-5.627-3.349a2.275,2.275,0,0,1-1.2-2.023,5.111,5.111,0,0,1,1.02-3.815,4.432,4.432,0,0,0,.759-1.39c.229-.644.636-.751,1.259-.746C5001.411-170.341,5004.8-170.357,5008.192-170.357Zm-.806,3.624q-4.25,0-8.5,0c-1.007,0-1.516.417-1.509,1.2.006.712.5,1.16,1.406,1.162q8.6.018,17.209,0a1.31,1.31,0,0,0,1.456-1.166c.012-.672-.612-1.175-1.492-1.2-.14,0-.279,0-.418,0Zm2.955,7.109c1.855,0,3.712.02,5.567-.016a1.78,1.78,0,0,0,1.128-.365,1.418,1.418,0,0,0,.327-1.093c-.11-.679-.73-.867-1.32-.87-3.781-.02-7.562-.031-11.342.019a1.729,1.729,0,0,0-1.25.654c-.523.817.139,1.657,1.253,1.667C5006.583-159.613,5008.462-159.624,5010.341-159.624Z" transform="translate(-3684.074 3331.89)" fill="#b9ddfc"/>
    <path id="Trazado_189772" data-name="Trazado 189772" d="M4782.116-299.646a20.835,20.835,0,0,0-.884,2.645,34.114,34.114,0,0,0-.662,4.683c-.111,2.06-.027,4.131-.027,6.2v.832h-.8c-4.806,0-9.612-.035-14.417.022a2.667,2.667,0,0,1-2.665-2.628c.091-3.132.026-6.268.03-9.4a2.322,2.322,0,0,1,2.234-2.343C4770.632-299.653,4776.344-299.646,4782.116-299.646Zm-8.792,7.156a3.409,3.409,0,0,0-3.511-3.5,3.448,3.448,0,0,0-3.489,3.529,3.4,3.4,0,0,0,3.52,3.491A3.382,3.382,0,0,0,4773.324-292.49Z" transform="translate(-3492.316 3438.597)" fill="#b9ddfc"/>
    <path id="Trazado_189773" data-name="Trazado 189773" d="M5034.6-285.464c0-2.083,0-4.145,0-6.207a17.62,17.62,0,0,0-1.422-7.58c-.066-.142-.109-.295-.183-.5h.732c5.384,0,10.769.035,16.152-.023a2.646,2.646,0,0,1,2.605,2.6c-.084,3.107-.025,6.219-.028,9.328a2.4,2.4,0,0,1-2.313,2.443c-5.105.022-10.211.005-15.316,0A1.333,1.333,0,0,1,5034.6-285.464Zm8.308-10.659c-1.485,0-2.971-.005-4.457,0a1.214,1.214,0,0,0-1.321.781c-.281.837.24,1.513,1.294,1.526q4.49.054,8.983-.007a1.746,1.746,0,0,0,1.144-.488,1.345,1.345,0,0,0,.137-1.057c-.134-.572-.649-.747-1.184-.752C5045.976-296.132,5044.444-296.123,5042.911-296.123Zm.069,4.74c-1.506,0-3.012-.018-4.518.006-1.08.017-1.672.78-1.3,1.644.288.662.917.712,1.519.715q4.24.018,8.481,0a3.022,3.022,0,0,0,.876-.141,1.027,1.027,0,0,0,.474-1.74,2.055,2.055,0,0,0-1.226-.462C5045.855-291.418,5044.417-291.384,5042.98-291.383Z" transform="translate(-3715.461 3438.699)" fill="#b9ddfc"/>
    <path id="Trazado_189774" data-name="Trazado 189774" d="M4902.23-320.371c0-.966-.016-1.912,0-2.858a8.172,8.172,0,0,0-6.917-8.492,21.37,21.37,0,0,0-4.794-.4c-2.726.114-5.33.778-7.312,2.856a7.6,7.6,0,0,0-2.2,4.989c-.059,1.286-.011,2.578-.011,3.916h-2.462c-.4-4.582.963-8.553,4.6-11.4a13.02,13.02,0,0,1,15-1.261c4.934,2.624,6.873,7.089,6.544,12.651Z" transform="translate(-3587.91 3467.629)" fill="#b9ddfc"/>
    <path id="Trazado_189775" data-name="Trazado 189775" d="M4815.075-334c-1.153,1.154-2.282,2.3-3.432,3.418a.962.962,0,0,1-.608.247q-7.142.019-14.283,0a2.469,2.469,0,0,1-.4-.078c0-1.067-.015-2.13.019-3.192,0-.143.245-.287.392-.414.041-.035.135-.006.2-.006h17.766C4814.861-334.019,4814.993-334,4815.075-334Z" transform="translate(-3520.123 3466.978)" fill="#084a93"/>
    <path id="Trazado_189776" data-name="Trazado 189776" d="M5003.564-334.037h.552c5.8,0,11.6.01,17.4-.014.623,0,.806.177.776.784-.047.921-.013,1.847-.013,2.926h-3.017c-3.806,0-7.611.006-11.416-.012a1.359,1.359,0,0,1-.865-.289C5005.837-331.734,5004.731-332.869,5003.564-334.037Z" transform="translate(-3691.166 3466.994)" fill="#084a93"/>
    <path id="Trazado_189777" data-name="Trazado 189777" d="M5012.854-200.853c.127-.855.244-1.642.373-2.509.649,0,1.316.005,1.983,0a2.608,2.608,0,0,0,2.288-1.03.727.727,0,0,1,.527-.214c3.784-.009,7.568,0,11.352-.008.487,0,.587.2.576.627-.02.789-.038,1.58.005,2.367.032.577-.161.752-.743.75-4.6-.012-9.193.008-13.79.018C5014.573-200.852,5013.718-200.853,5012.854-200.853Z" transform="translate(-3698.834 3360.156)" fill="#084a93"/>
    <path id="Trazado_189778" data-name="Trazado 189778" d="M4808.235-204.617c.063,1.207.136,2.313.152,3.42,0,.111-.34.323-.525.327-1.371.028-2.741.015-4.111.015-2.253,0-4.507-.017-6.76.012-.558.007-.736-.161-.708-.715.042-.834-.015-1.673.03-2.507.01-.191.263-.528.406-.529C4800.547-204.623,4804.376-204.617,4808.235-204.617Z" transform="translate(-3520.069 3360.158)" fill="#084a93"/>
    <path id="Trazado_189779" data-name="Trazado 189779" d="M4784.8-74.858a11.151,11.151,0,0,1,1.391.019c.174.022.456.262.457.4a25.825,25.825,0,0,1-.1,2.91,1.689,1.689,0,0,1-1.664,1.462,1.664,1.664,0,0,1-1.8-1.385,24.052,24.052,0,0,1-.12-3.045c0-.122.274-.332.438-.349A13.429,13.429,0,0,1,4784.8-74.858Z" transform="translate(-3509.087 3253.062)" fill="#084a93"/>
    <path id="Trazado_189780" data-name="Trazado 189780" d="M5106.993-74.809c-.061,1.2-.047,2.289-.19,3.357a1.669,1.669,0,0,1-1.82,1.438,1.691,1.691,0,0,1-1.66-1.547,24.289,24.289,0,0,1-.086-2.842.573.573,0,0,1,.4-.388C5104.7-74.824,5105.769-74.809,5106.993-74.809Z" transform="translate(-3773.433 3253.013)" fill="#084a93"/>
    <path id="Trazado_189781" data-name="Trazado 189781" d="M4878.753-233.189v-4.664h2.357v4.664Z" transform="translate(-3588.144 3387.591)" fill="#ffb30b"/>
    <path id="Trazado_189782" data-name="Trazado 189782" d="M5017.376-233.253h-2.339v-4.686h2.339Z" transform="translate(-3700.636 3387.662)" fill="#ffb30b"/>
    <path id="Trazado_189783" data-name="Trazado 189783" d="M4878.566-197.438c.64,0,1.238,0,1.837,0,.16,0,.32.016.429.021.268,1.2.53,2.364.79,3.525C4878.79-193.528,4878.253-194.2,4878.566-197.438Z" transform="translate(-3587.925 3354.231)" fill="#084a93"/>
    <path id="Trazado_189784" data-name="Trazado 189784" d="M4948.108-175.015h-.139c-1.615,0-1.595,0-1.581-1.6.005-.61.355-.812.837-.892a6,6,0,0,1,.969-.014c1.653,0,1.732.094,1.7,1.76-.012.521-.215.769-.743.748C4948.8-175.026,4948.455-175.015,4948.108-175.015Z" transform="translate(-3643.969 3337.802)" fill="#084a93"/>
    <path id="Trazado_189785" data-name="Trazado 189785" d="M4999.865-381.116q5.121,0,10.243.006a1.393,1.393,0,0,1,.858.159,1.98,1.98,0,0,1,.669,1.087.911.911,0,0,1-.88.977,8.656,8.656,0,0,1-.961.091q-9.965.008-19.929,0a4.746,4.746,0,0,1-.823-.08c-.7-.125-1.1-.557-1.059-1.132a1.251,1.251,0,0,1,1.221-1.1c.579-.03,1.161-.007,1.742-.007Z" transform="translate(-3678.303 3505.849)"/>
    <path id="Trazado_189786" data-name="Trazado 189786" d="M4999.8-406h-10.451c-.854,0-1.331-.368-1.36-1.041s.555-1.187,1.4-1.188q10.452,0,20.9,0c1.1,0,1.764.9,1.2,1.692a1.537,1.537,0,0,1-1.1.514C5006.86-405.981,5003.33-406,4999.8-406Z" transform="translate(-3678.308 3528.221)"/>
    <path id="Trazado_189787" data-name="Trazado 189787" d="M4790.586-404.723a3.408,3.408,0,0,1-3.445,3.507,3.492,3.492,0,0,1-3.557-3.46,3.586,3.586,0,0,1,3.489-3.548A3.479,3.479,0,0,1,4790.586-404.723Zm-2.263.029a1.285,1.285,0,0,0-1.2-1.282,1.444,1.444,0,0,0-1.288,1.233,1.267,1.267,0,0,0,1.281,1.258A1.154,1.154,0,0,0,4788.323-404.694Z" transform="translate(-3509.59 3528.218)"/>
    <path id="Trazado_189788" data-name="Trazado 189788" d="M4841.655-401.131a3.387,3.387,0,0,1-3.516-3.477,3.4,3.4,0,0,1,3.471-3.521,3.426,3.426,0,0,1,3.554,3.511A3.394,3.394,0,0,1,4841.655-401.131Zm1.18-3.5a1.252,1.252,0,0,0-1.195-1.251,1.267,1.267,0,0,0-1.177,1.282,1.15,1.15,0,0,0,1.2,1.2A1.128,1.128,0,0,0,4842.835-404.636Z" transform="translate(-3554.62 3528.14)"/>
    <path id="Trazado_189789" data-name="Trazado 189789" d="M4790.673-145.788a3.39,3.39,0,0,1-3.445,3.546,3.413,3.413,0,0,1-3.547-3.446,3.409,3.409,0,0,1,3.481-3.579A3.38,3.38,0,0,1,4790.673-145.788Zm-3.536,1.218a1.107,1.107,0,0,0,1.265-1.191,1.111,1.111,0,0,0-1.208-1.182,1.249,1.249,0,0,0-1.273,1.165A1.246,1.246,0,0,0,4787.137-144.571Z" transform="translate(-3509.669 3314.47)"/>
    <path id="Trazado_189790" data-name="Trazado 189790" d="M5018.754-149.535h8.151c.14,0,.279,0,.419,0,.879.023,1.5.525,1.491,1.2a1.309,1.309,0,0,1-1.455,1.166q-8.6.016-17.209,0c-.906,0-1.4-.45-1.407-1.162-.006-.782.5-1.2,1.51-1.2Q5014.5-149.542,5018.754-149.535Z" transform="translate(-3695.442 3314.692)"/>
    <path id="Trazado_189791" data-name="Trazado 189791" d="M5049.567-119.969c-1.878,0-3.758.011-5.637,0-1.114-.009-1.776-.85-1.253-1.667a1.727,1.727,0,0,1,1.249-.654c3.78-.05,7.561-.039,11.342-.019.591,0,1.21.192,1.32.87a1.417,1.417,0,0,1-.328,1.093,1.777,1.777,0,0,1-1.128.365C5053.278-119.949,5051.422-119.969,5049.567-119.969Z" transform="translate(-3723.3 3292.235)"/>
    <path id="Trazado_189792" data-name="Trazado 189792" d="M4790.661-275.207a3.381,3.381,0,0,1-3.479,3.518,3.4,3.4,0,0,1-3.52-3.491,3.448,3.448,0,0,1,3.489-3.529A3.408,3.408,0,0,1,4790.661-275.207Zm-2.274.029a1.156,1.156,0,0,0-1.253-1.218,1.231,1.231,0,0,0-1.22,1.217,1.22,1.22,0,0,0,1.262,1.179A1.154,1.154,0,0,0,4788.387-275.178Z" transform="translate(-3509.654 3421.315)"/>
    <path id="Trazado_189793" data-name="Trazado 189793" d="M5062.106-278.89c1.532,0,3.064-.009,4.6.005.535.005,1.05.181,1.184.752a1.343,1.343,0,0,1-.136,1.057,1.748,1.748,0,0,1-1.144.488q-4.491.057-8.983.007c-1.054-.013-1.576-.689-1.294-1.526a1.214,1.214,0,0,1,1.321-.781C5059.135-278.895,5060.621-278.89,5062.106-278.89Z" transform="translate(-3734.656 3421.465)"/>
    <path id="Trazado_189794" data-name="Trazado 189794" d="M5062.148-251.779c1.437,0,2.875-.034,4.31.021a2.054,2.054,0,0,1,1.225.462,1.027,1.027,0,0,1-.474,1.74,3.021,3.021,0,0,1-.876.141q-4.241.015-8.48,0c-.6,0-1.231-.052-1.519-.715-.375-.863.217-1.626,1.3-1.644C5059.136-251.8,5060.642-251.779,5062.148-251.779Z" transform="translate(-3734.629 3399.094)"/>
    <path id="Trazado_189795" data-name="Trazado 189795" d="M4798.983-394.066a1.154,1.154,0,0,1-1.2,1.209,1.268,1.268,0,0,1-1.281-1.258,1.445,1.445,0,0,1,1.289-1.233A1.285,1.285,0,0,1,4798.983-394.066Z" transform="translate(-3520.25 3517.591)" fill="#ffb30b" opacity="0.35"/>
    <path id="Trazado_189796" data-name="Trazado 189796" d="M4853.824-394.033a1.127,1.127,0,0,1-1.168,1.229,1.15,1.15,0,0,1-1.2-1.2,1.267,1.267,0,0,1,1.177-1.282A1.251,1.251,0,0,1,4853.824-394.033Z" transform="translate(-3565.61 3517.537)" fill="#ffb30b" opacity="0.35"/>
    <path id="Trazado_189797" data-name="Trazado 189797" d="M4797.73-133.583a1.247,1.247,0,0,1-1.217-1.208,1.249,1.249,0,0,1,1.273-1.165,1.111,1.111,0,0,1,1.208,1.182A1.107,1.107,0,0,1,4797.73-133.583Z" transform="translate(-3520.261 3303.483)" fill="#ffb30b" opacity="0.35"/>
    <path id="Trazado_189798" data-name="Trazado 189798" d="M4799.031-264.242a1.154,1.154,0,0,1-1.211,1.178,1.22,1.22,0,0,1-1.262-1.179,1.231,1.231,0,0,1,1.22-1.217A1.157,1.157,0,0,1,4799.031-264.242Z" transform="translate(-3520.298 3410.379)" fill="#ffb30b" opacity="0.35"/>
    <path id="Trazado_189768" data-name="Trazado 189768" d="M4887.017-261.512h-35.568c-.477-2.916.158-5.748,3.384-7.527,2.414-1.331,4.767-2.771,7.16-4.14a4.631,4.631,0,0,0,2.3-3.984,5.366,5.366,0,0,0-1.422-4.631c1,0,1.757-.02,2.514.017a.619.619,0,0,1,.427.359,3.04,3.04,0,0,0,3.176,2.051,17.435,17.435,0,0,0,2.42-.123,2.8,2.8,0,0,0,2.223-2.418c.06-1.4.312-2.876-1.072-3.856a2.994,2.994,0,0,0-1.41-.631,19.4,19.4,0,0,0-3.24.094,2.5,2.5,0,0,0-2.036,1.759c-.139.347-.27.473-.624.468-1.021-.015-2.044.014-3.065-.023a.748.748,0,0,1-.529-.375,8.96,8.96,0,0,1-.864-3.992c.057-3.832.037-7.665.014-11.5-.022-3.8,2.113-5.858,5.457-6.536a13.974,13.974,0,0,1,6.76.252,5.96,5.96,0,0,1,4.521,6.02c-.021,3.972-.033,7.944.011,11.915a7.649,7.649,0,0,1-.677,3.408,25.989,25.989,0,0,1-1.994,3.766c-1.023,1.479-.9,3.056-.755,4.658.179,2.017,1.565,3.09,3.2,4,2.168,1.207,4.3,2.481,6.422,3.768a6.169,6.169,0,0,1,3.267,5.825C4887-262.448,4887.017-262.011,4887.017-261.512Z" transform="translate(-3565.491 3444.497)" fill="#ffb30b"/>
  </g>
</svg>
