<svg xmlns="http://www.w3.org/2000/svg" width="317.253" height="259" viewBox="0 0 317.253 259">
  <g id="_9" data-name="9" transform="translate(515.001 -3518.684)">
    <g id="Group_129292" data-name="Group 129292">
      <path id="Path_190912" data-name="Path 190912" d="M-359.348,3660.249q-23.457,0-46.914-.005a27.172,27.172,0,0,1-12.026-2.362c-7.588-3.663-13.186-9.194-15.973-17.27a28.37,28.37,0,0,1,18.917-36.741,49.167,49.167,0,0,1,8.833-1.185c1.114-.1,1.663-.3,1.89-1.552,2.608-14.391,10.365-25.4,22.449-33.4a48.606,48.606,0,0,1,17.779-6.886,49.049,49.049,0,0,1,15.181-.439,47.972,47.972,0,0,1,21.76,8.293,48.017,48.017,0,0,1,16.978,20c1.083,2.4,2.758,2.976,4.855,3.343,10.4,1.824,17.987,7.585,23.307,16.561a32.9,32.9,0,0,1,3.551,24.969c-2.348,10.035-8.543,17.364-17.6,22.5-5.819,3.3-11.926,4.226-18.414,4.2-14.859-.066-29.718-.021-44.577-.021Zm3.149-25.452v-.044c6.167,0,12.335-.037,18.5.026,1.495.016,1.937-.478,1.931-1.967q-.081-18.135,0-36.271c.007-1.524-.329-2.1-1.972-2.095q-18.143.092-36.284,0c-1.542-.007-2.089.408-2.085,2.008.032,12.381-.007,24.763-.049,37.145,0,.957.355,1.219,1.279,1.214C-368.651,3634.781-362.425,3634.8-356.2,3634.8Z" fill="#084a93"/>
      <path id="Path_190913" data-name="Path 190913" d="M-322.173,3741.13c-5.071-4.763-7.244-10.224-6.326-16.645.913-6.379,4.623-10.865,10.513-14.014a43.166,43.166,0,0,0-1.9-4.133c-2.811-4.785-3.329-10.006-3.153-15.391.093-2.872.137-5.746.19-8.619.026-1.389-.024-2.543-1.7-3.289-2.033-.9-2.956-3.709-2.4-5.875a4.911,4.911,0,0,1,4.35-3.7c3.306-.123,4.961.857,5.91,3.5a5.506,5.506,0,0,1-1.819,5.935,1.355,1.355,0,0,1-.622.344c-2.285.158-2.246,1.69-2.206,3.419.088,3.831.188,7.673-.007,11.5a18.026,18.026,0,0,0,2.024,9.493,27.062,27.062,0,0,1,1.969,4.409c.505,1.637,1.472,1.854,2.851,1.4a14.183,14.183,0,0,1,8.123-.055c7.238,1.815,11.714,6.364,13.693,13.469,1.426,5.124.269,9.847-2.51,14.208-.621.974-.627,1.541.122,2.292,1.941,1.945,3.826,3.946,5.827,5.826a1.7,1.7,0,0,0,1.634-.048c8.594-7.13,22.819-4.391,27.876,6.748a17.355,17.355,0,0,1,1.008,12.058c-1.946,7.118-6.572,11.74-13.631,13.249-11.564,2.471-20.673-5.394-22.035-15.429-.154-1.134-.488-1.541-1.635-1.536q-11.5.052-23.007,0c-1.137-.005-1.52.365-1.632,1.526a17.884,17.884,0,0,1-16.986,15.808,17.706,17.706,0,0,1-14.727-6.039c-1.781-2.014-2.742-4.827-3.793-7.393-1.291-3.152-.84-6.369-.062-9.647,1.256-5.295,7.155-11.383,12.506-12.5a11.3,11.3,0,0,0,2.577-.7,1.793,1.793,0,0,0,.791-1.337c.08-2.569.048-5.142.049-7.714q0-23.088.005-46.177c0-.9.052-1.8.111-2.691.12-1.832.372-3.438-2.053-4.382-2.241-.872-2.99-3.718-2.257-6.032.826-2.606,2.65-3.682,5.9-3.482a4.649,4.649,0,0,1,4.357,4.073,5.1,5.1,0,0,1-2.894,5.777c-1.413.512-1.4,1.38-1.4,2.467q.021,14.463.037,28.927c.005,9.4.023,18.807-.036,28.21-.01,1.649.267,2.411,2.214,2.514a14.594,14.594,0,0,1,8.239,3.224c.909.712,1.431.7,2.223-.178C-324.825,3743.356-323.583,3742.4-322.173,3741.13Zm-32.981,18.262c-.444,9.277,7.3,16.706,16.211,16.734,9.214.03,16.66-6.453,16.885-16.426.214-9.479-6.757-16.823-16.916-16.908C-347.063,3742.724-355.49,3749.529-355.154,3759.392Zm44.545-48.837a16.413,16.413,0,0,0-16.4,16.8c.36,10.189,7.641,16.534,16.83,16.427,9.279-.108,16.54-7.217,16.3-17.284A16.485,16.485,0,0,0-310.609,3710.555Zm50.832,48.972a16.375,16.375,0,0,0-15.848-16.636c-10-.273-17.432,7.043-17.378,16.639a16.289,16.289,0,0,0,16.383,16.591A16.364,16.364,0,0,0-259.777,3759.527Zm-36.944-20.046a12.779,12.779,0,0,0-1.311.957c-5.125,5.123-13.29,6.058-19.325,3.532-1.345-.563-2.792-1.852-3.953-1.618-1.229.248-2.1,2-3.261,2.934-1.229.988-.958,1.67-.041,2.735a15.609,15.609,0,0,1,3.97,9.21c.078,1.125.538,1.407,1.561,1.389,2.334-.043,4.67,0,7.006,0,5.269,0,10.539,0,15.808-.018.8,0,1.724.169,1.843-1.125a16.879,16.879,0,0,1,4.135-9.7,1.426,1.426,0,0,0,.063-1.374C-292.341,3744.058-294.536,3741.786-296.721,3739.481Z" fill="#084a93"/>
      <path id="Path_190914" data-name="Path 190914" d="M-432.116,3709.219c11.669,2.7,19.441,16.466,10.694,29.369,1.564,1.493,3.157,3.013,4.752,4.532.9.856,1.715,2.237,2.727,2.4.862.139,1.876-1.316,2.952-1.731a60.373,60.373,0,0,1,7.248-2.349c1.108-.274,1.542-.594,1.8-1.743,1.005-4.486,2.153-8.94,3.3-13.394,1.528-5.951,3.1-11.89,4.655-17.833.408-1.56.743-3.146,1.257-4.671a31.287,31.287,0,0,0,1.2-10.813c-.08-3.888-.022-7.779.005-11.669a1.62,1.62,0,0,0-1.3-1.814,5.079,5.079,0,0,1-3.557-5.74,5.08,5.08,0,0,1,4.235-4.277c3.29-.289,5.127.661,5.958,3.079.942,2.741.163,5.376-2.32,6.632a2.412,2.412,0,0,0-1.441,2.672c.052,5.39.1,10.783-.039,16.17a25.326,25.326,0,0,1-1.023,5.6c-1.758,6.765-3.639,13.5-5.384,20.268-1.458,5.657-2.791,11.347-4.19,17.065,2.039.594,4.177,1.069,6.2,1.835,5.636,2.131,10.762,9.223,10.732,15.706a19.1,19.1,0,0,1-5.764,14.314c-6.337,6.339-18.6,6.357-24.889-.156a20.381,20.381,0,0,1-5.708-11.3,1.689,1.689,0,0,0-1.235-1.057c-7.789-.063-15.578-.036-23.367-.054-1.163,0-1.317.7-1.442,1.614a17.887,17.887,0,0,1-13.6,15.234c-6.8,1.538-13.065.07-17.85-5.269-4.743-5.294-6.273-11.51-3.816-18.345,3.516-9.779,13.147-14.38,23.2-11.252a19.1,19.1,0,0,1,4.561,2.47c.812.531,1.287.575,1.975-.137,1.162-1.2,2.426-2.3,3.34-3.154-1.763-3-3.736-5.544-4.844-8.418a17.618,17.618,0,0,1,5.018-19.41,17.951,17.951,0,0,1,12.952-4.732,2.94,2.94,0,0,0,1.983-1.179c1.37-1.809,2.512-3.788,3.862-5.613a10.061,10.061,0,0,0,1.995-6.675c-.158-4.483,0-8.979.058-13.469a2.268,2.268,0,0,0-1.591-2.581c-2.087-.806-3.233-3.379-2.9-5.673.26-1.779,2.184-3.9,3.765-4.162,2.929-.476,4.959.362,6.148,2.538a5.876,5.876,0,0,1-.783,6.378,1.875,1.875,0,0,1-.868.609c-2.594.43-2.338,2.4-2.323,4.227.038,4.61.2,9.224.068,13.829a9.644,9.644,0,0,1-1.349,4.3C-428.554,3704.02-430.331,3706.5-432.116,3709.219Zm30.216,33.635a16.412,16.412,0,0,0-16.442,16.6c.12,10.057,7.58,16.6,16.217,16.638,10.145.05,17.006-7.167,16.968-16.869C-385.193,3749.967-392.5,3742.9-401.9,3742.854Zm-78.669,16.566c-.4,10.059,8.119,16.953,16.766,16.7a16.5,16.5,0,0,0,16.269-17.021,16.58,16.58,0,0,0-16.843-16.243C-473.635,3742.846-481.185,3751.2-480.569,3759.42Zm33.759-17.519c-1.161,1.215-2.213,2.445-3.4,3.52-.894.805-.772,1.35-.075,2.221a17.956,17.956,0,0,1,4.29,9.684,1.848,1.848,0,0,0,1.332,1.2q11.674.121,23.352.036c.453,0,1.261-.476,1.3-.8a18.837,18.837,0,0,1,4.8-10.633c-2.534-2.452-4.968-4.808-7.407-7.17C-430,3746.4-438.016,3747.091-446.81,3741.9Zm10.852-31.278c-8.987-.621-17.161,8.368-16.548,16.988.67,9.432,7.283,16.18,16.722,16.191a16.478,16.478,0,0,0,16.529-17.292C-419.473,3717.975-426.835,3710.109-435.958,3710.623Z" fill="#084a93"/>
      <path id="Path_190915" data-name="Path 190915" d="M-263.871,3717.82a18.379,18.379,0,0,1,10.022-7.993,18.061,18.061,0,0,1,22.786,10.9,17.963,17.963,0,0,1-12.633,24.127c-10.408,2.534-19.892-3.879-22.237-13.909a16.489,16.489,0,0,1,.781-10.024c.532-1.347-.016-1.968-.87-2.716q-7.483-6.562-14.942-13.154c-1.749-1.541-3.576-3.006-5.2-4.669a4.13,4.13,0,0,1-1.055-2.592c-.074-5.446.035-10.9-.037-16.342a2.522,2.522,0,0,0-1.185-1.83c-2.245-1.141-3.73-3.589-3.29-5.821a5.109,5.109,0,0,1,5.134-4.348c3.341-.227,4.753,1.7,5.335,4a4.843,4.843,0,0,1-2.936,5.88,1.965,1.965,0,0,0-1.443,2.264c.049,5.209,0,10.418.072,15.626a3.29,3.29,0,0,0,.846,2.189c6.559,5.936,13.182,11.8,19.794,17.679A11.956,11.956,0,0,0-263.871,3717.82Zm15.531-7.251a16.4,16.4,0,0,0-16.172,18.688,16.18,16.18,0,0,0,16.967,14.526,16.366,16.366,0,0,0,16.093-17.393A16.46,16.46,0,0,0-248.34,3710.569Z" fill="#084a93"/>
      <path id="Path_190916" data-name="Path 190916" d="M-245.5,3680.274c3.055,0,6.112-.084,9.162.036,1.525.06,2.1-.482,2.339-1.943a17.369,17.369,0,0,1,11.471-14.209,18.009,18.009,0,0,1,23.049,9.366,17.727,17.727,0,0,1-3,19.718c-5.436,5.933-12.769,7.672-19.916,4.937-6.611-2.531-10.44-7.331-11.626-14.25a2.071,2.071,0,0,0-2.482-2.047c-6.4.134-12.813.113-19.219.2a2.5,2.5,0,0,1-2.661-1.619c-2.668-5.877-5.425-11.714-8.1-17.586-.574-1.258-1.005-2.126-2.8-1.931-2.213.241-4.535-2.135-5.078-4.576a5.62,5.62,0,0,1,2.9-6.01,5.709,5.709,0,0,1,6.3,1.143c1.611,1.8,1.993,4.977.488,6.828-1.167,1.435-1.152,2.449-.326,4.106,2.664,5.341,5.05,10.821,7.526,16.256a2.343,2.343,0,0,0,2.457,1.621c3.171-.1,6.347-.032,9.521-.032Zm46.014,1.19c.4-9.367-7.749-16.6-15.616-16.88a16.516,16.516,0,0,0-17.58,16.228c-.044,9.736,7.01,16.933,16.663,17A16.332,16.332,0,0,0-199.484,3681.464Z" fill="#084a93"/>
      <path id="Path_190917" data-name="Path 190917" d="M-447.247,3660.271c-.61-1.613-1.584-3.189-1.753-4.847-.327-3.205,2.308-5.634,5.6-5.579,2.934.048,5.019,2.531,4.92,5.858a5.271,5.271,0,0,1-5.615,5.224c-1.144-.136-1.486.334-1.859,1.142-2.8,6.074-5.64,12.132-8.407,18.222a2.781,2.781,0,0,1-2.939,1.812c-6.586-.1-13.173-.122-19.76-.194-.98-.01-1.467.2-1.581,1.363a18.23,18.23,0,0,1-15.425,15.924,18.313,18.313,0,0,1-19.98-12.1c-3.221-9.1,2.028-19.951,11.135-23.116a18.367,18.367,0,0,1,24.316,15.032,1.8,1.8,0,0,0,1.243,1.208c6.648.08,13.3.108,19.944-.007a2.974,2.974,0,0,0,2.026-1.563c2.686-5.6,5.246-11.266,7.847-16.909.247-.536.511-1.064.767-1.6Zm-49.5,4.329a16.416,16.416,0,0,0-16.655,16.606c.156,10.025,7.37,16.619,16.663,16.589,9.487-.03,16.5-6.638,16.644-16.619A16.279,16.279,0,0,0-496.743,3664.6Z" fill="#084a93"/>
      <path id="Path_190918" data-name="Path 190918" d="M-391.8,3726.96c-.057-8.331,6.449-15.939,13.9-17.463,3.635-.744,3.611-.807,3.61-4.5q0-11.411.025-22.822c.006-1.336-.1-2.3-1.663-2.921a4.934,4.934,0,0,1-2.566-6.2c.762-2.349,2.157-3.874,5.811-3.59a5.338,5.338,0,0,1,4.641,4.735,5.438,5.438,0,0,1-3.439,5.347c-1.18.336-1.117,1.044-1.109,1.884.058,6.227.139,12.453.17,18.68.011,2.334-.076,4.669-.152,7-.038,1.165.235,1.736,1.619,1.962a18.15,18.15,0,0,1,15.724,18.157,18.235,18.235,0,0,1-19.846,18.023A18.414,18.414,0,0,1-391.8,3726.96Zm18.048-16.4c-8.5-.324-16.195,7.63-16.344,15.951-.178,9.934,7.279,17.21,16.367,17.285,9.209.076,16.619-6.88,16.808-16.659A16.551,16.551,0,0,0-373.756,3710.563Z" fill="#084a93"/>
      <path id="Path_190919" data-name="Path 190919" d="M-486.124,3564.551c8.921-.443,16.411,6.21,18.259,15.125a15.8,15.8,0,0,1-1.178,9.665c-.533,1.2-.264,1.806.822,2.434,6.923,4.008,13.818,8.065,20.717,12.115a10.754,10.754,0,0,1,1.159.841,2.363,2.363,0,0,0,3.313.094c2.159-1.592,4.657-1.2,6.685.708a5.62,5.62,0,0,1,.692,6.488,5.466,5.466,0,0,1-5.744,2.327c-2.9-.8-4.231-2.417-4-5.3a2.81,2.81,0,0,0-1.637-3.013c-7.131-4.159-14.254-8.331-21.334-12.576-1.454-.872-2.237-.983-3.472.563a17.862,17.862,0,0,1-24.436,3.707,18.2,18.2,0,0,1-3.84-26.7A16.429,16.429,0,0,1-486.124,3564.551Zm16.667,18.186a16.25,16.25,0,0,0-15.933-16.666c-10.323-.223-17.016,7.159-17.216,16.193-.2,9.1,6.311,16.432,16.115,16.938C-477.337,3599.674-469.033,3591.613-469.457,3582.737Z" fill="#084a93"/>
      <path id="Path_190920" data-name="Path 190920" d="M-222.4,3564.159c7.858-.147,15.127,6.071,17.315,13.1,3.081,9.888-3.151,20.755-12.943,23.03-7.853,1.824-14.1-.618-19.058-6.7-.884-1.084-1.5-.994-2.5-.4-7.611,4.5-15.25,8.963-22.832,13.515a2.309,2.309,0,0,0-.7,1.861c.238,2.606-.562,4.327-2.686,5.317a5.407,5.407,0,0,1-6.42-1.038,5.646,5.646,0,0,1-.387-6.791c1.918-2.336,4.628-2.9,6.982-1.254a2.6,2.6,0,0,0,3.246.018q10.539-6.294,21.136-12.491c2.322-1.364,2.285-1.319,1.442-3.739-3.184-9.136,1.558-19.507,10.525-22.8A56.627,56.627,0,0,1-222.4,3564.159Zm-.2,34.966c9.068.517,16.188-7.44,16.67-15.24a16.717,16.717,0,0,0-16.137-17.874,16.758,16.758,0,0,0-17.164,16.366C-239.495,3590.641-232.122,3599.712-222.6,3599.125Z" fill="#084a93"/>
      <path id="Path_190921" data-name="Path 190921" d="M-199.056,3633.132a18.42,18.42,0,0,1-12.051,17.085,18.264,18.264,0,0,1-24.3-15.042c-.127-1.031-.529-1.477-1.584-1.474-6.406.021-12.811.029-19.217-.012-1.158-.008-1.618.513-2.08,1.509a5.291,5.291,0,0,1-5.037,3.156,5.242,5.242,0,0,1-4.844-3.666,5.467,5.467,0,0,1,1.7-5.847,5.278,5.278,0,0,1,8.156,1.914,2.032,2.032,0,0,0,2.119,1.434q9.518-.094,19.038-.02c1.244.011,1.655-.409,1.8-1.588a18.169,18.169,0,0,1,19.062-15.763A18.379,18.379,0,0,1-199.056,3633.132Zm-1.773-.172c-.017-10.16-7.511-16.5-16.174-16.654a16.222,16.222,0,0,0-16.885,16.559c0,9.834,7.259,16.694,16.89,16.741A16.358,16.358,0,0,0-200.829,3632.96Z" fill="#084a93"/>
      <path id="Path_190922" data-name="Path 190922" d="M-513.31,3633.034a18.5,18.5,0,0,1,19.42-18.206,18.462,18.462,0,0,1,16.916,15.409c.21,1.519.761,1.955,2.265,1.935,6.047-.082,12.1-.069,18.143,0a2.374,2.374,0,0,0,2.593-1.539,5.325,5.325,0,0,1,7.516-2.225,5.36,5.36,0,0,1,1.461,7.827,5.3,5.3,0,0,1-9.04-1.021,2.111,2.111,0,0,0-2.26-1.458c-6.346.026-12.693,0-19.04-.039-1.031-.006-1.417.382-1.574,1.448-1.1,7.393-5.157,12.708-12.174,15.073-6.8,2.291-13.147.952-18.576-4.152A18.057,18.057,0,0,1-513.31,3633.034Zm34.865.024c-.029-9.609-7.225-16.961-17.068-16.739-8.632.2-16.065,6.841-16.07,16.84a16.553,16.553,0,0,0,16.811,16.472A16.53,16.53,0,0,0-478.445,3633.058Z" fill="#084a93"/>
      <path id="Path_190923" data-name="Path 190923" d="M-427.491,3532.108c1.361-3.875,2.6-7.288,3.749-10.73a2.251,2.251,0,0,1,2.392-1.725c1.374,0,1.713.893,1.758,2.008.072,1.794.041,3.593.161,5.382.168,2.5.483,5,.635,7.5.055.9.55,2.229-1.112,2.318-1.472.08-1.729-.937-1.768-2.144a84.448,84.448,0,0,0-.729-9.657q-1.607,4.4-3.213,8.794a5.6,5.6,0,0,1-.558,1.506c-.424.553-.991,1.251-1.577,1.337-.418.062-1.224-.691-1.418-1.236-.978-2.751-1.811-5.554-2.7-8.338a4.229,4.229,0,0,0-.915-1.755l-.564,9.034c-.029.478.131,1.133-.121,1.4a3.592,3.592,0,0,1-1.777.985c-.191.039-.856-.881-.834-1.338.232-4.6.585-9.192.844-13.79.057-1.011.235-1.768,1.392-1.922,1.173-.156,2.13,0,2.567,1.325.932,2.841,1.913,5.665,2.879,8.494C-428.15,3530.278-427.885,3531-427.491,3532.108Z" fill="#084a93"/>
      <path id="Path_190924" data-name="Path 190924" d="M-352.375,3524.275a10.237,10.237,0,0,0,3.031.547c.972-.116,2.33-.308,2.027-2.024a1.173,1.173,0,0,1,1.473-1.476c.4.085.9.979.895,1.5-.024,1.336.354,1.845,1.772,1.682a1.794,1.794,0,0,1,1.458.979c.2.985-.529,1.342-1.477,1.183-1.425-.239-1.755.487-1.685,1.758.075,1.369,0,2.747-.021,4.121a1.94,1.94,0,0,0,1.791,2.25c.488.079.911.553,1.363.846-.458.479-.834,1.211-1.39,1.392a3.27,3.27,0,0,1-4.156-3.031c-.11-1.969-.1-3.95-.045-5.922.032-1.078-.418-1.595-1.427-1.593a11.8,11.8,0,0,0-2.978.251c-.337.089-.667.909-.68,1.4-.063,2.332-.045,4.667.008,7,.022.946-.061,1.7-1.237,1.737s-1.353-.763-1.353-1.671c0-2.332-.033-4.665.038-7,.028-.881.009-1.5-1.065-1.691a1.308,1.308,0,0,1-.783-.993c-.006-.33.517-.655.769-1.01.4-.559,1.01-1.107,1.093-1.719.393-2.894,2.639-4.646,5.418-3.965.419.1,1.03.821.97,1.149a1.788,1.788,0,0,1-1.094,1.245C-351.9,3521.54-352.176,3521.765-352.375,3524.275Z" fill="#084a93"/>
      <path id="Path_190925" data-name="Path 190925" d="M-328.482,3519.408c.537.527,1.337.96,1.57,1.6q2.538,6.961,4.836,14.007c.16.488-.34,1.192-.534,1.8-.666-.257-1.593-.328-1.938-.813-.565-.794-.62-1.941-1.143-2.781a5.144,5.144,0,0,0-1.772-1.346c-.218-.133-.586-.02-.884-.019-3.2.006-3.2.006-4.138,3.051-.122.4-.166.989-.439,1.139a13.111,13.111,0,0,1-2.19.774c-.108-.566-.445-1.206-.288-1.684,1.425-4.355,2.958-8.675,4.41-13.022C-330.6,3520.925-330.568,3519.5-328.482,3519.408Zm1.7,9.945c-.67-1.991-1.28-3.8-2.006-5.965l-1.946,5.965Z" fill="#084a93"/>
      <path id="Path_190926" data-name="Path 190926" d="M-301.61,3536.01a4.444,4.444,0,0,1-7.4-2.556c-.08-1.133-.06-2.273-.07-3.41a35.228,35.228,0,0,1,.04-4.125c.058-.53.686-1,1.054-1.493.564.48,1.5.884,1.616,1.456a21.337,21.337,0,0,1,.136,3.934c.012.718,0,1.438.042,2.154.115,1.913.948,2.913,2.295,2.794a3.175,3.175,0,0,0,2.531-3.217c-.042-1.855-.031-3.71-.1-5.563-.04-1.034.283-1.592,1.41-1.558,1.105.034,1.622.488,1.612,1.649-.026,3.168.044,6.337,0,9.5-.006.421-.512,1.211-.709,1.187A13.37,13.37,0,0,1-301.61,3536.01Z" fill="#084a93"/>
      <path id="Path_190927" data-name="Path 190927" d="M-380.489,3530.794c-.091,3.893-2.615,6.418-6.277,6.28-3.438-.13-5.862-2.928-5.757-6.645.109-3.886,2.625-6.191,6.645-6.088C-382.58,3524.426-380.4,3527.034-380.489,3530.794Zm-9.125.209a3.293,3.293,0,0,0,2.205,3.648,2.736,2.736,0,0,0,3.377-1.382,5.8,5.8,0,0,0,.772-2.867c.041-2.3-1.473-4-3.283-3.934-1.852.066-3.144,1.785-3.1,4.123C-389.641,3530.65-389.634,3530.71-389.614,3531Z" fill="#084a93"/>
      <path id="Path_190928" data-name="Path 190928" d="M-369.6,3530.548a6.042,6.042,0,0,1,6.371-6.252,5.938,5.938,0,0,1,5.773,6.368c-.119,4.374-3.116,6.329-6.072,6.426C-367.117,3537.208-369.682,3534.315-369.6,3530.548Zm6.053-4.042c-1.881.018-3.122,1.617-3.118,4.022,0,2.678,1.247,4.3,3.263,4.246,1.681-.043,3.09-1.835,3.1-3.948C-360.286,3528.244-361.606,3526.488-363.549,3526.506Z" fill="#084a93"/>
      <path id="Path_190929" data-name="Path 190929" d="M-286.384,3531.464c1.258,3.326,3.265,4.053,7.081,2.82,1.119,1.641.976,2.058-.91,2.466-2.687.58-5.242.6-7.259-1.722-1.474-1.7-1.78-5.571-.565-7.828a5.6,5.6,0,0,1,5.9-2.844c3.1.34,4.48,3.642,3.987,6.183-.078.4-1.069.853-1.658.883C-281.931,3531.528-284.064,3531.464-286.384,3531.464Zm.12-2.539h5.63l.308-.581c-.877-.623-1.676-1.55-2.649-1.8C-284.7,3526.1-285.453,3527.5-286.264,3528.925Z" fill="#084a93"/>
      <path id="Path_190930" data-name="Path 190930" d="M-314.8,3526.931c-1.262,0-2.423,0-3.585,0-.948,0-2.116.205-2.094-1.242.019-1.27,1.048-1.21,1.984-1.2,1.911.019,3.825-.047,5.734.022.585.021,1.486.227,1.651.606a2.226,2.226,0,0,1-.408,1.788c-1.384,1.945-2.878,3.812-4.323,5.714-.428.563-.828,1.148-1.464,2.035a48.871,48.871,0,0,1,4.988.056c.587.063,1.1.764,1.655,1.174-.558.337-1.1.936-1.674.967-2.208.119-4.427.11-6.637.027-.647-.024-1.609-.294-1.825-.742s.178-1.368.568-1.883c1.689-2.232,3.476-4.389,5.217-6.582A2.858,2.858,0,0,0-314.8,3526.931Z" fill="#084a93"/>
      <path id="Path_190931" data-name="Path 190931" d="M-402,3534.281c.919,1.742.806,2.061-.882,2.514-3.565.956-6.567-.385-7.826-3.494a6.229,6.229,0,0,1,3.018-8.2c1.6-.722,3.676-.456,5.538-.467.223,0,.6,1.063.6,1.634,0,.224-.9.718-1.289.634-4-.846-6.262,1.441-5.225,5.344a3.292,3.292,0,0,0,3.312,2.483A12.438,12.438,0,0,0-402,3534.281Z" fill="#084a93"/>
      <path id="Path_190932" data-name="Path 190932" d="M-374.048,3524.34a3.245,3.245,0,0,1,.7.062c.871.227,2.129.108,1.8,1.609-.317,1.454-1.267.636-2.1.617a6.748,6.748,0,0,0-2.259.8c.447.59.774,1.38,1.364,1.731,1.431.85,3.154,1.355,3.51,3.283.519,2.8-1.984,5.068-5.057,4.608a5.872,5.872,0,0,1-2.072-.509c-.418-.246-.573-.938-.845-1.43.5-.253.994-.693,1.505-.716.745-.033,1.531.42,2.247.314a2.231,2.231,0,0,0,1.609-1.077c.13-.4-.536-1.145-.984-1.606a4.188,4.188,0,0,0-1.285-.611c-2.081-.954-3.148-2.5-2.812-4.066C-378.3,3525.39-376.7,3524.311-374.048,3524.34Z" fill="#084a93"/>
      <path id="Path_190933" data-name="Path 190933" d="M-396.3,3525.144a4.478,4.478,0,0,1,1.711-.686c.512-.018,1.047.619,1.573.964-.345.513-.624,1.4-1.047,1.476-1.86.327-2.47,1.434-2.448,3.147.024,1.789-.017,3.579.032,5.367.03,1.11-.519,1.492-1.529,1.471-.994-.02-1.537-.4-1.528-1.505.028-3.214-.036-6.428.011-9.641.005-.408.449-1.144.7-1.149A11.411,11.411,0,0,1-396.3,3525.144Z" fill="#084a93"/>
      <path id="Path_190934" data-name="Path 190934" d="M-292.838,3525.306a7.148,7.148,0,0,1,2-.825c.444-.057,1.386.548,1.375.827-.022.563-.457,1.5-.87,1.591-2.2.465-2.585,2.144-2.752,3.894-.141,1.481.1,3-.056,4.478a2.138,2.138,0,0,1-1.171,1.546c-1.053.289-1.45-.515-1.449-1.5,0-3.052-.043-6.1.039-9.155.016-.577.453-1.534.843-1.616C-294.333,3524.429-293.648,3524.97-292.838,3525.306Z" fill="#084a93"/>
      <path id="Path_190935" data-name="Path 190935" d="M-416.046,3530.587c0-1.556.031-3.113-.011-4.668-.03-1.083.38-1.471,1.5-1.435s1.47.5,1.449,1.534q-.093,4.482-.113,8.966c0,1.138-.369,1.887-1.628,1.845-1.33-.045-1.232-.988-1.2-1.934C-416.014,3533.46-416.045,3532.023-416.046,3530.587Z" fill="#084a93"/>
      <path id="Path_190936" data-name="Path 190936" d="M-414.688,3523.9c-.667-1.225-1.323-1.927-1.346-2.649-.015-.473.886-.975,1.377-1.465.547.583,1.44,1.116,1.534,1.764C-413.044,3522.1-413.894,3522.777-414.688,3523.9Z" fill="#084a93"/>
      <path id="Path_190937" data-name="Path 190937" d="M-356.524,3608.277c-1.917-3.086-7.179-2.152-7.884.86-.4,1.7-1.742,1.1-2.759,1.24a3.372,3.372,0,0,0-2.988,3.442,3.478,3.478,0,0,0,3.376,3.106c1.433.015,2.866.035,4.3.042,2.1.008,4.2.069,6.287-.025a4.155,4.155,0,0,0,2.123-.738,1.728,1.728,0,0,1,2.751.548,3.766,3.766,0,0,1-.019,2.892c-.457,1.027-1.5,1.08-2.629.565a8.99,8.99,0,0,0-3.341-.857c-2.99-.093-5.987.009-8.98.043-3.5.041-5.5-1.6-5.96-4.891s1.063-5.464,4.317-6.463a4.267,4.267,0,0,0,2.03-1.425,7.139,7.139,0,0,1,11.222-.046,2.883,2.883,0,0,0,1.82.883,9.027,9.027,0,0,1,5.953,2.951,5.08,5.08,0,0,0,2.157,1.332c2.964.892,5.749,4.529,5.438,7.275a7.477,7.477,0,0,1-7.153,6.607c-4.073.044-8.146-.015-12.219.006a6.894,6.894,0,0,1-5.914-2.818,3.527,3.527,0,0,1-.509-2.31c.027-.252,1.182-.514,1.832-.542a50.945,50.945,0,0,1,5.566-.022,11.942,11.942,0,0,1,3.409.793,2.888,2.888,0,0,0,3.576-.7,2.764,2.764,0,0,0,.166-3.643,2.517,2.517,0,0,0-3.377-.822c-2.968,1.669-6.126.509-9.168.871a1.116,1.116,0,0,1-.891-.64c-.067-.31.212-.967.457-1.031,2.83-.747,3.87-3.325,5.542-5.259A11.45,11.45,0,0,1-356.524,3608.277Z" fill="#084a93"/>
      <path id="Path_190938" data-name="Path 190938" d="M-339.456,3770.2c-1.969,0-3.939-.02-5.908.008-.987.013-1.687-.343-1.7-1.382-.033-2.846,1.273-7.657,4.889-9.019a7.277,7.277,0,0,1,9.719,4.917c.279,1.157.443,2.343.646,3.518.237,1.368-.338,2.031-1.738,2.018-1.969-.018-3.938,0-5.908,0Z" fill="#084a93"/>
      <path id="Path_190939" data-name="Path 190939" d="M-339.289,3748.811a4.546,4.546,0,0,1,4.6,4.471,4.411,4.411,0,0,1-4.572,4.681c-2.992.009-4.78-1.682-4.811-4.548C-344.1,3750.63-342.21,3748.809-339.289,3748.811Z" fill="#084a93"/>
      <path id="Path_190940" data-name="Path 190940" d="M-310.3,3735.457c-3.073-.009-3.135-.257-3.412-3.2a6.208,6.208,0,0,0-1.858-3.418c-3.883-3.863-3.268-9.837,1.416-12.5a7.605,7.605,0,0,1,10.036,2.238,7.58,7.58,0,0,1-1.283,10.184,4.918,4.918,0,0,0-1.76,3.729C-307.271,3735.386-307.372,3735.467-310.3,3735.457Z" fill="#084a93"/>
      <path id="Path_190941" data-name="Path 190941" d="M-311.777,3738.076l-1.811-1.531a7.38,7.38,0,0,1,1.934-.834,12.834,12.834,0,0,1,3.21.044,1.568,1.568,0,0,1,1.113.879c.21.813-2.257,3.007-3.15,2.928C-311.631,3739.462-312.451,3739.14-311.777,3738.076Z" fill="#084a93"/>
      <path id="Path_190942" data-name="Path 190942" d="M-281.478,3754.818c-.415-.965-.632-1.481-.857-1.994-.746-1.7-.406-2.674,1.242-3.536,1.3-.68,2.3-.285,3.171,1.249a4.284,4.284,0,0,0,.371.612c.277.34.582.657.875.984.3-.379.793-.718.884-1.142a2.393,2.393,0,0,1,3.135-2.081c1.7.3,2.293,1.412,1.8,3.1a8.561,8.561,0,0,0-.1,2c.657-.127,1.33-.2,1.968-.392,1.207-.359,2.242-.357,2.888.956.857,1.741.652,2.639-.728,3.515a13.168,13.168,0,0,0-1.532,1.324,17.262,17.262,0,0,0,1.59,1.216c1.224.736,1.886,1.614,1.165,3.085-.647,1.319-1.424,2.208-3.081,1.523a6.188,6.188,0,0,0-1.649-.2,6.744,6.744,0,0,0,.017,1.989c.587,1.858-.154,3.244-2.01,3.48a2.2,2.2,0,0,1-2.454-1.628c-.211-.485-.768-.819-1.168-1.222a7.434,7.434,0,0,0-1.074,1.3c-.837,1.66-1.676,2.028-3.421,1.462-1.677-.544-1.486-1.773-1.211-3.067.121-.571.207-1.149.382-2.137-.917.256-1.554.394-2.163.612-1.907.686-2.679.311-3.476-1.583-.707-1.68.159-2.436,1.561-2.986.536-.211,1.032-.521,2.078-1.059a19.822,19.822,0,0,0-2.247-1.192c-1.81-.642-2.241-1.3-1.733-2.86.631-1.938,1.478-2.38,3.349-1.814C-283.272,3754.522-282.6,3754.6-281.478,3754.818Zm-.328,4.939a5.775,5.775,0,0,0,5.64,5.787,6.05,6.05,0,0,0,5.868-5.671,5.968,5.968,0,0,0-6.011-5.7C-279.026,3754.131-281.73,3756.88-281.806,3759.757Z" fill="#084a93"/>
      <path id="Path_190943" data-name="Path 190943" d="M-399.656,3761.636c-.443,1.908-.541,3.629-1.242,5.053-1.172,2.381-4.017,3.226-7.057,2.485a6.092,6.092,0,0,1-4.261-5.414,6.04,6.04,0,0,1,4.088-5.916c.884-.283,1.865-.253,2.775-.472a3.5,3.5,0,0,0,1.528-.73q3.021-2.8,5.942-5.705c.985-.983,1.978-1.547,3.319-.712,1.624,1.011,2.93,3.11,2.4,4.252-.249.533-1.116.779-1.57,1.221l-2.1,2.05-.381-.38c-.248,1.086-.1,2.551-1.994,2C-398.2,3760.752-398.431,3761.841-399.656,3761.636Zm-4.124,1.761c-1.072-.715-1.748-1.512-2.277-1.424a2.166,2.166,0,0,0-1.439,1.558c-.009.5.934,1.4,1.506,1.437C-405.435,3765.007-404.819,3764.182-403.78,3763.4Z" fill="#084a93"/>
      <path id="Path_190944" data-name="Path 190944" d="M-458.77,3763.207c-.007-2.361-.386-4.768,1.941-6.542.4-.3.142-1.892-.228-2.7-1.693-3.687-4.169-4.956-9.193-4.434a7.048,7.048,0,0,0-5.861,6.176c-.036.434.563.908.841,1.38.543.92,1.418,1.812,1.527,2.786a32.865,32.865,0,0,1,.093,6.975c-.093.9-1.108,1.824-1.9,2.5a2.153,2.153,0,0,1-3.093-.352c-1.737-2.05-3.691-4.2-2.807-7.215a24.878,24.878,0,0,1,2.1-3.974,30.63,30.63,0,0,0,1.922-4.1,8.55,8.55,0,0,1,8.621-6.174c3.928-.012,7.214,1,9.094,4.765a7.492,7.492,0,0,1,.67,2.028,7.833,7.833,0,0,0,1.7,3.36c1.253,1.7,3.3,3.42,2.561,5.9a17.382,17.382,0,0,1-2.634,5.259,2.448,2.448,0,0,1-3.559.41,6.157,6.157,0,0,1-1.729-2.838A11.847,11.847,0,0,1-458.77,3763.207Z" fill="#084a93"/>
      <path id="Path_190945" data-name="Path 190945" d="M-447.906,3726.851c-.372-5.826,5.476-12,12.41-11.753a12.267,12.267,0,0,1,11.7,12.943c-.247,5.806-5.886,11.28-12.033,11.257C-441.691,3739.276-448.294,3734.384-447.906,3726.851Zm16.255,3.311c2.185-2.953,2.17-3.384-.2-5.759a18.631,18.631,0,0,0-2.4-2.135c-2.118-1.493-2.908-1.266-4.491,1.225Zm-1.506,1.337-6.849-6.378c-2.317,1.519-2.522,2.647-.814,4.472a30.458,30.458,0,0,0,3.113,2.973C-435.583,3734.269-434.893,3734.091-433.157,3731.5Zm-.822-11.686,4.987,4.63c.528-1.924,1.046-3.616-.825-4.983C-431.306,3718.373-432.558,3718.868-433.979,3719.813ZM-443,3730.427c-.852,1.5-.879,2.675.514,3.815,2.6,2.128,2.9,2.233,4.616.838Zm14.362-1.1c-.446.6-.923.987-1.013,1.445a2.332,2.332,0,0,0,.294,1.618c.2.29.863.261,1.319.375a6.409,6.409,0,0,0,.194-1.718A7.261,7.261,0,0,0-428.638,3729.329Zm-13.606-9.733c1.765,2.5,2.224,2.5,3.483.24Zm-.891,6.052a6.722,6.722,0,0,1,.413-.984c.419-.6,1.221-1.17.249-1.906a10.413,10.413,0,0,0-1.561-.829c.067.709.1,1.425.218,2.124A9.958,9.958,0,0,0-443.135,3725.648Zm16.828-1.116-.522.044c-.438,1.437-1.279,2.913.824,4.418Zm-5.172,8.558-2.08,1.933h3.525l.129-.474Zm-14.243-7.4.188,3.875C-444.038,3728.166-444.689,3726.9-445.722,3725.691Zm11.333-8.373-4.477.28C-436.684,3718.966-436.481,3718.953-434.389,3717.318Z" fill="#084a93"/>
      <path id="Path_190946" data-name="Path 190946" d="M-248.278,3736.415c-2.632,0-5.264-.018-7.9.006a2.23,2.23,0,0,1-2.56-2.511c-.012-3.349-.04-6.7.011-10.047.03-2.005.721-2.668,2.771-2.624,1.157.024,1.96-.087,2.141-1.48a1.528,1.528,0,0,1,1.167-.878c2.985-.08,5.976-.1,8.96,0a1.814,1.814,0,0,1,1.307,1.141c.215,1.179.928,1.187,1.821,1.2,2.667.029,3.3.652,3.322,3.269q.037,4.306.012,8.612c-.016,2.5-.875,3.354-3.338,3.367-2.573.012-5.145,0-7.718,0Zm-5.041-7.716a5.074,5.074,0,0,0,5.171,5.444,5.321,5.321,0,0,0,5.412-5.665,5.524,5.524,0,0,0-5.355-5.027A5.26,5.26,0,0,0-253.319,3728.7Z" fill="#084a93"/>
      <path id="Path_190947" data-name="Path 190947" d="M-225.261,3691.434c0-.762.051-1.53-.02-2.286-.041-.438-.173-1.134-.446-1.239-1.46-.558-1.213-1.674-1.19-2.834.058-2.93.067-5.863,0-8.793-.035-1.56.657-2.163,2.145-2.156,5.808.028,11.617.047,17.426.025,1.628-.006,2.262.791,2.255,2.316-.015,3.171-.03,6.344-.013,9.515.007,1.365-.577,1.9-1.973,1.874-3.531-.072-7.076.134-10.594-.095a5.929,5.929,0,0,0-5.137,2.239c-.575.635-1.258,1.17-1.892,1.751Zm17.5-10.141c-1.061-.866-1.608-1.671-2.244-1.747-.977-.118-2.025.471-1.777,1.664a2.254,2.254,0,0,0,1.545,1.479C-209.588,3682.722-208.9,3681.978-207.762,3681.293Zm-10.514-.185c.983.779,1.635,1.666,2.1,1.577.685-.131,1.237-.959,1.846-1.49-.579-.583-1.079-1.459-1.765-1.643C-216.534,3679.434-217.248,3680.335-218.276,3681.108Zm-3.293-1.89-.747.018c-.394.6-1.182,1.282-1.084,1.789.129.66.961,1.184,1.491,1.767.527-.532,1.446-1.041,1.478-1.6C-220.4,3680.557-221.155,3679.878-221.569,3679.218Z" fill="#084a93"/>
      <path id="Path_190948" data-name="Path 190948" d="M-496.683,3672.692c3.35,0,6.7.023,10.05-.011,1.321-.014,1.926.359,1.87,1.868-.133,3.583-.115,7.174-.063,10.761.024,1.627-.4,2.407-2.245,2.275a64.31,64.31,0,0,0-6.815.041c-.442.016-.871.4-1.305.612a11.3,11.3,0,0,0,1.2.968c.235.145.657.016.858.179.561.454,1.05.995,1.568,1.5-.533.419-1.049,1.169-1.6,1.2a65.5,65.5,0,0,1-7.268-.018c-.533-.031-1.021-.817-1.529-1.255.491-.456.977-.917,1.477-1.363.081-.072.236-.056.336-.115.62-.372,1.235-.754,1.851-1.132a10.509,10.509,0,0,0-2.239-.582c-2.15-.083-4.306-.066-6.458-.028-1.144.02-1.638-.461-1.637-1.595q0-5.919-.042-11.837c-.01-1.393.913-1.479,1.94-1.478q5.027,0,10.051,0Zm.082,12.037v-.021c2.575,0,5.149-.02,7.724.01.925.011,1.483-.212,1.462-1.287-.044-2.273.044-4.552-.092-6.819a1.774,1.774,0,0,0-1.289-1.151c-5.208-.07-10.417-.012-15.626-.029-1.134,0-1.632.406-1.6,1.58.054,2.034.062,4.071,0,6.1-.04,1.264.469,1.669,1.7,1.635C-501.751,3684.679-499.175,3684.729-496.6,3684.729Z" fill="#084a93"/>
      <path id="Path_190949" data-name="Path 190949" d="M-365.9,3727.546c0,3.233-.052,6.468.024,9.7.033,1.432-.386,2.093-1.921,2.064q-5.658-.107-11.317-.023c-1.482.02-1.969-.538-1.956-2.022q.083-9.7-.03-19.4c-.018-1.557.54-2.183,2.064-2.157,3.891.067,7.782.117,11.673.109,1.232,0,1.524.594,1.515,1.669-.028,3.353-.01,6.706-.01,10.059Zm-13.3-.634c0,2.512.052,5.025-.023,7.535-.037,1.221.379,1.78,1.614,1.759q4.212-.074,8.425-.091c1.04,0,1.508-.427,1.5-1.506q-.042-7.716,0-15.431c.008-1.208-.535-1.525-1.644-1.5-2.751.053-5.5.067-8.255,0-1.273-.029-1.669.472-1.636,1.7C-379.152,3721.887-379.2,3724.4-379.2,3726.912Z" fill="#084a93"/>
      <path id="Path_190950" data-name="Path 190950" d="M-488.729,3586.313c2.527,1.3,3.743-1.347,5.561-2.278,1.081-.553,1.036-1.889.081-2.739a21.372,21.372,0,0,0-3.344-2.374,2.149,2.149,0,0,0-1.486.077,3.642,3.642,0,0,1-4.514-2.405,3.256,3.256,0,0,1,2.689-3.965,3.061,3.061,0,0,1,3.869,2.9c.265,2.212,3.519,4.466,5.7,3.946a3.054,3.054,0,0,1,3.458,1.3,3.118,3.118,0,0,1-.235,3.985,3.221,3.221,0,0,1-3.522,1.138,3.191,3.191,0,0,0-2.243.25c-1.565,1.048-3.371,1.87-3.314,4.392.032,1.445-2.183,2.424-3.843,2.1a3.168,3.168,0,0,1-2.6-3.364C-492.313,3587.413-490.982,3586.306-488.729,3586.313Z" fill="#084a93"/>
      <path id="Path_190951" data-name="Path 190951" d="M-215.159,3581.566c-.69,1.571-1.683,4.175-2.96,6.631-.957,1.84-2.292,3.482-3.433,5.228-.689,1.055-1.359,1.1-2,0-2-3.449-4.119-6.836-5.911-10.39-1.278-2.535-.519-5.064,1.267-7.159a6.658,6.658,0,0,1,7.193-2.353C-217.285,3574.51-215.11,3577.079-215.159,3581.566Zm-5.126-.525-.007-.834c-.737-.545-1.425-1.446-2.221-1.554a1.791,1.791,0,0,0-2.013,2c0,1.178.694,2.112,1.862,1.911C-221.809,3582.414-221.074,3581.573-220.285,3581.041Z" fill="#084a93"/>
      <path id="Path_190952" data-name="Path 190952" d="M-208.857,3636.98l1.056,1.861a7.307,7.307,0,0,1-1.945.576q-7.443.06-14.886-.023a11,11,0,0,1-2.27-.507q.631-1.023,1.262-2.045l-.051.048,5.682-5.813-1.551-.711-2.5-1.7-1.542-1.945c1.008-.12,1.611-.251,2.214-.254,4.068-.018,8.137-.053,12.2.024a7.964,7.964,0,0,1,2.9.72,1.8,1.8,0,0,1,.875,1.325c.079,2.145-.038,4.3.017,6.442.029,1.14-.341,1.839-1.49,2.041-1.688-2.059-3.377-4.115-5.091-6.15a5.26,5.26,0,0,0-.792.436Z" fill="#084a93"/>
      <path id="Path_190953" data-name="Path 190953" d="M-224.06,3628.668l2.5,1.7c-.075.6.055,1.36-.26,1.786-1.213,1.637-2.569,3.168-3.871,4.738l.051-.048c-.408-.3-1.162-.581-1.172-.889-.091-2.84-.054-5.684-.054-9.064Z" fill="#084a93"/>
      <path id="Path_190954" data-name="Path 190954" d="M-495.087,3641.511c-3.116,0-6.232.035-9.347-.011-2.3-.034-2.782-.449-2.93-2.681a32.952,32.952,0,0,1,.117-4.473c.031-.434.262-1.11.571-1.227,1.758-.665,1.463-2.107,1.462-3.456,0-1.317-.084-2.638.019-3.946.032-.408.553-.778.85-1.165.353.4.981.777,1.011,1.2.123,1.729.1,3.472.06,5.207-.03,1.158.428,1.571,1.593,1.561,4.432-.039,8.864-.038,13.3.033,1.314.02,1.673-.535,1.629-1.72a35.618,35.618,0,0,1,.023-4.667c.051-.545.709-1.034,1.089-1.548.375.519.993,1,1.075,1.565a22.56,22.56,0,0,1,.055,3.586c-.024,1.37-.047,2.57,1.28,3.628s1.054,6.321-.2,7.45a3.216,3.216,0,0,1-1.95.657c-3.233.065-6.468.029-9.7.029Z" fill="#084a93"/>
      <path id="Path_190955" data-name="Path 190955" d="M-276.063,3754.727a5.242,5.242,0,0,1,5.11,5.162,4.975,4.975,0,0,1-5.152,5.029,4.978,4.978,0,0,1-5.075-5.111A5.078,5.078,0,0,1-276.063,3754.727Zm-.122,8.285a3.248,3.248,0,0,0,3.371-3.229,3.4,3.4,0,0,0-3.275-3.168,3.41,3.41,0,0,0-3.212,3.22A2.987,2.987,0,0,0-276.185,3763.012Z" fill="#084a93"/>
      <path id="Path_190956" data-name="Path 190956" d="M-247.973,3724.632a4.174,4.174,0,0,1,4.223,4.189,4.289,4.289,0,0,1-4.428,4.238,4.112,4.112,0,0,1-4.168-4.233A4.12,4.12,0,0,1-247.973,3724.632Z" fill="#084a93"/>
    </g>
  </g>
</svg>
