<svg id="a1" xmlns="http://www.w3.org/2000/svg" xmlns:xlink="http://www.w3.org/1999/xlink" width="93.129" height="90.476" viewBox="0 0 93.129 90.476">
  <defs>
    <radialGradient id="radial-gradient" cx="0.055" cy="0.064" r="1.056" gradientTransform="translate(-0.02) scale(1.039 1)" gradientUnits="objectBoundingBox">
      <stop offset="0" stop-color="#699dd1"/>
      <stop offset="0.266" stop-color="#6296cb"/>
      <stop offset="0.641" stop-color="#5084bd"/>
      <stop offset="1" stop-color="#396caa"/>
    </radialGradient>
    <linearGradient id="linear-gradient" x1="0.131" y1="0.119" x2="0.99" y2="1.006" gradientUnits="objectBoundingBox">
      <stop offset="0" stop-color="#d4ecff"/>
      <stop offset="0.201" stop-color="#d0e9fd"/>
      <stop offset="0.387" stop-color="#c5e2f9"/>
      <stop offset="0.568" stop-color="#b2d5f1"/>
      <stop offset="0.744" stop-color="#98c4e7"/>
      <stop offset="0.842" stop-color="#86b8e0"/>
    </linearGradient>
  </defs>
  <g id="Grupo_113715" data-name="Grupo 113715">
    <path id="Trazado_118599" data-name="Trazado 118599" d="M271.816,315.868l-38.5-22.231c-2.362-1.364-2.066-3.747.662-5.323l37.179-21.465c2.729-1.577,6.857-1.747,9.219-.383L318.877,288.7c2.364,1.364,2.067,3.747-.662,5.323l-37.179,21.466C278.307,317.061,274.18,317.233,271.816,315.868Z" transform="translate(-229.53 -226.313)" fill="#7dc3ea"/>
    <path id="Trazado_118600" data-name="Trazado 118600" d="M276.257,309.558a10.362,10.362,0,0,1-5.116-1.223l-38.5-22.231a4.9,4.9,0,0,1-2.688-4.207c0-1.888,1.221-3.676,3.351-4.905l37.179-21.465c3.44-1.987,8.345-2.15,11.406-.382l38.5,22.229a4.9,4.9,0,0,1,2.688,4.207c0,1.888-1.221,3.676-3.351,4.9l-37.179,21.466A12.81,12.81,0,0,1,276.257,309.558Zm-2.931-5.011c1.7.981,4.984.8,7.034-.383L317.538,282.7c.934-.54,1.159-1.026,1.165-1.117a1.373,1.373,0,0,0-.5-.416L279.7,258.934c-1.7-.981-4.984-.8-7.031.381L235.483,280.78c-.934.54-1.158,1.027-1.164,1.119a1.414,1.414,0,0,0,.5.416Z" transform="translate(-229.947 -229.051)" fill="#fff"/>
    <path id="Trazado_118601" data-name="Trazado 118601" d="M320.458,269.128h0V255.842l-29.79-.017-10.3-5.945c-2.362-1.364-6.49-1.192-9.219.383l-9.606,5.546-29.818-.016v13.664a2.673,2.673,0,0,0,1.583,2.47l38.5,22.231c2.364,1.364,6.491,1.192,9.219-.383l37.179-21.465C319.788,271.4,320.547,270.224,320.458,269.128Z" transform="translate(-229.529 -230.22)" fill="#396caa"/>
    <path id="Trazado_118602" data-name="Trazado 118602" d="M276.093,248.965a10.613,10.613,0,0,0-4.942,1.3l-9.606,5.546-29.818-.016v13.664a2.673,2.673,0,0,0,1.583,2.47l38.5,22.231a8.36,8.36,0,0,0,4.279.914Z" transform="translate(-229.529 -230.219)" fill="url(#radial-gradient)"/>
    <path id="Trazado_118603" data-name="Trazado 118603" d="M235.1,254.491h-3.374v13.664a2.673,2.673,0,0,0,1.583,2.47l1.791,1.034Z" transform="translate(-229.529 -228.917)" fill="#d4ecff"/>
    <path id="Trazado_118604" data-name="Trazado 118604" d="M264.652,288.749a10.507,10.507,0,0,0,7.37-.084V273.151h-7.37Z" transform="translate(-221.773 -224.522)" fill="#5793ce"/>
    <path id="Trazado_118605" data-name="Trazado 118605" d="M271.816,284.115l-38.5-22.231c-2.362-1.364-2.066-3.747.662-5.324L271.152,235.1c2.729-1.575,6.857-1.747,9.219-.382l38.505,22.231c2.364,1.364,2.067,3.747-.662,5.323l-37.179,21.465C278.307,285.308,274.18,285.479,271.816,284.115Z" transform="translate(-229.53 -233.792)" fill="url(#linear-gradient)"/>
    <path id="Trazado_118606" data-name="Trazado 118606" d="M318.215,255.04,281.035,276.5c-2.728,1.575-6.856,1.747-9.219.383l-38.505-22.231a3.58,3.58,0,0,1-1.179-1.046c-.812,1.306-.444,2.724,1.179,3.661L271.816,279.5c2.364,1.364,6.491,1.192,9.219-.383l37.179-21.465c2.12-1.224,2.765-2.934,1.841-4.277A5.157,5.157,0,0,1,318.215,255.04Z" transform="translate(-229.53 -229.179)" fill="#ffb30b"/>
    <g id="Grupo_113713" data-name="Grupo 113713" transform="translate(73.657 35.525)">
      <path id="Trazado_118607" data-name="Trazado 118607" d="M292.674,268.332a3.441,3.441,0,0,1-1.556,2.695c-.859.5-1.555.094-1.555-.9a3.437,3.437,0,0,1,1.555-2.693C291.977,266.938,292.674,267.341,292.674,268.332Z" transform="translate(-289.563 -261.444)" fill="#d4ecff"/>
      <path id="Trazado_118608" data-name="Trazado 118608" d="M296.724,265.994a3.437,3.437,0,0,1-1.556,2.693c-.86.5-1.556.094-1.556-.9a3.438,3.438,0,0,1,1.556-2.695C296.027,264.6,296.724,265,296.724,265.994Z" transform="translate(-288.609 -261.995)" fill="#d4ecff"/>
      <path id="Trazado_118609" data-name="Trazado 118609" d="M300.773,263.656a3.435,3.435,0,0,1-1.554,2.693c-.86.5-1.556.094-1.556-.9a3.437,3.437,0,0,1,1.556-2.693C300.077,262.262,300.773,262.664,300.773,263.656Z" transform="translate(-287.655 -262.545)" fill="#d4ecff"/>
    </g>
    <g id="Grupo_113714" data-name="Grupo 113714" transform="translate(25.798 12.991)">
      <path id="Trazado_118610" data-name="Trazado 118610" d="M269.592,267.855l-18.019-10.4c-1.106-.639-.966-1.754.31-2.491l17.4-10.045a4.793,4.793,0,0,1,4.314-.179l18.018,10.4c1.106.638.967,1.753-.31,2.491l-17.4,10.045A4.8,4.8,0,0,1,269.592,267.855Z" transform="translate(-250.827 -244.307)" fill="#ffb30b"/>
      <path id="Trazado_118611" data-name="Trazado 118611" d="M267.906,256.938l-2.493-1.439c-.153-.089-.133-.243.043-.345l2.407-1.39a.66.66,0,0,1,.6-.025l2.493,1.439c.153.088.133.242-.043.345l-2.407,1.39A.667.667,0,0,1,267.906,256.938Z" transform="translate(-247.416 -242.1)" fill="#d4ecff"/>
      <path id="Trazado_118612" data-name="Trazado 118612" d="M251.573,257.453l.052.028c.084-.059.161-.121.258-.178l17.4-10.045a4.8,4.8,0,0,1,4.314-.178l17.967,10.373c1.019-.73,1.072-1.723.051-2.313l-18.018-10.4a4.793,4.793,0,0,0-4.314.179l-17.4,10.045C250.607,255.7,250.467,256.814,251.573,257.453Z" transform="translate(-250.827 -244.307)" fill="#396caa"/>
    </g>
  </g>
</svg>
