<svg id="a2" xmlns="http://www.w3.org/2000/svg" xmlns:xlink="http://www.w3.org/1999/xlink" width="93.13" height="90.475" viewBox="0 0 93.13 90.475">
  <defs>
    <radialGradient id="radial-gradient" cx="0.055" cy="0.064" r="1.056" gradientTransform="translate(-0.02) scale(1.039 1)" gradientUnits="objectBoundingBox">
      <stop offset="0" stop-color="#699dd1"/>
      <stop offset="0.266" stop-color="#6296cb"/>
      <stop offset="0.641" stop-color="#5084bd"/>
      <stop offset="1" stop-color="#396caa"/>
    </radialGradient>
    <linearGradient id="linear-gradient" x1="0.131" y1="0.119" x2="0.99" y2="1.006" gradientUnits="objectBoundingBox">
      <stop offset="0" stop-color="#d4ecff"/>
      <stop offset="0.201" stop-color="#d0e9fd"/>
      <stop offset="0.387" stop-color="#c5e2f9"/>
      <stop offset="0.568" stop-color="#b2d5f1"/>
      <stop offset="0.744" stop-color="#98c4e7"/>
      <stop offset="0.842" stop-color="#86b8e0"/>
    </linearGradient>
  </defs>
  <g id="Grupo_113718" data-name="Grupo 113718">
    <path id="Trazado_118613" data-name="Trazado 118613" d="M356.673,364.645l-38.5-22.229c-2.362-1.365-2.066-3.749.662-5.324l37.179-21.465c2.729-1.575,6.856-1.747,9.219-.383l38.5,22.231c2.362,1.365,2.067,3.747-.662,5.324l-37.179,21.465C363.164,365.838,359.037,366.01,356.673,364.645Z" transform="translate(-314.386 -275.091)" fill="#7dc3ea"/>
    <path id="Trazado_118614" data-name="Trazado 118614" d="M361.115,358.336A10.375,10.375,0,0,1,356,357.111l-38.5-22.231a4.9,4.9,0,0,1-2.69-4.206c0-1.887,1.222-3.676,3.349-4.905L355.333,304.3c3.441-1.986,8.346-2.149,11.406-.382l38.505,22.231a4.9,4.9,0,0,1,2.688,4.2c0,1.889-1.222,3.677-3.352,4.906L367.4,356.73A12.807,12.807,0,0,1,361.115,358.336Zm-2.932-5.013c1.7.982,4.985.8,7.031-.382L402.4,331.474c.934-.539,1.158-1.027,1.164-1.118a1.419,1.419,0,0,0-.5-.415l-38.5-22.231c-1.7-.981-4.984-.8-7.034.383l-37.179,21.465c-.934.539-1.159,1.027-1.164,1.118a1.427,1.427,0,0,0,.5.416Z" transform="translate(-314.803 -277.829)" fill="#fff"/>
    <path id="Trazado_118615" data-name="Trazado 118615" d="M405.315,317.9h0V304.619l-29.79-.017-10.3-5.944c-2.364-1.365-6.49-1.194-9.219.382l-9.607,5.546-29.817-.016v13.664a2.673,2.673,0,0,0,1.583,2.47l38.5,22.231c2.364,1.364,6.491,1.194,9.219-.382l37.179-21.466C404.645,320.177,405.4,319,405.315,317.9Z" transform="translate(-314.385 -278.997)" fill="#396caa"/>
    <path id="Trazado_118616" data-name="Trazado 118616" d="M360.95,297.742a10.628,10.628,0,0,0-4.942,1.3l-9.607,5.546-29.817-.016v13.664a2.673,2.673,0,0,0,1.583,2.47l38.5,22.231a8.345,8.345,0,0,0,4.279.914Z" transform="translate(-314.385 -278.996)" fill="url(#radial-gradient)"/>
    <path id="Trazado_118617" data-name="Trazado 118617" d="M319.958,303.268h-3.374v13.664a2.673,2.673,0,0,0,1.583,2.47l1.792,1.034Z" transform="translate(-314.385 -277.695)" fill="#d4ecff"/>
    <path id="Trazado_118618" data-name="Trazado 118618" d="M349.509,337.526a10.507,10.507,0,0,0,7.37-.084V321.928h-7.37Z" transform="translate(-306.629 -273.3)" fill="#5793ce"/>
    <path id="Trazado_118619" data-name="Trazado 118619" d="M356.673,332.892l-38.5-22.231c-2.362-1.364-2.066-3.747.662-5.323l37.179-21.466c2.729-1.575,6.856-1.746,9.219-.382l38.5,22.231c2.362,1.364,2.067,3.747-.662,5.323L365.892,332.51C363.164,334.085,359.037,334.256,356.673,332.892Z" transform="translate(-314.386 -282.57)" fill="url(#linear-gradient)"/>
    <path id="Trazado_118620" data-name="Trazado 118620" d="M403.072,303.817l-37.179,21.465c-2.728,1.577-6.856,1.747-9.219.383l-38.5-22.231a3.553,3.553,0,0,1-1.179-1.046c-.812,1.306-.444,2.724,1.179,3.661l38.5,22.231c2.364,1.364,6.491,1.194,9.219-.383l37.179-21.465c2.12-1.224,2.764-2.934,1.841-4.277A5.145,5.145,0,0,1,403.072,303.817Z" transform="translate(-314.386 -277.957)" fill="#00defc"/>
    <g id="Grupo_113716" data-name="Grupo 113716" transform="translate(73.658 35.525)">
      <path id="Trazado_118621" data-name="Trazado 118621" d="M377.53,317.11a3.439,3.439,0,0,1-1.554,2.693c-.859.5-1.555.094-1.555-.9a3.437,3.437,0,0,1,1.555-2.693C376.834,315.716,377.53,316.118,377.53,317.11Z" transform="translate(-374.42 -310.221)" fill="#d4ecff"/>
      <path id="Trazado_118622" data-name="Trazado 118622" d="M381.58,314.771a3.44,3.44,0,0,1-1.554,2.695c-.86.5-1.556.094-1.556-.9a3.433,3.433,0,0,1,1.556-2.693C380.884,313.377,381.58,313.78,381.58,314.771Z" transform="translate(-373.466 -310.772)" fill="#d4ecff"/>
      <path id="Trazado_118623" data-name="Trazado 118623" d="M385.63,312.433a3.435,3.435,0,0,1-1.554,2.693c-.86.5-1.556.094-1.556-.9a3.434,3.434,0,0,1,1.556-2.693C384.934,311.039,385.63,311.44,385.63,312.433Z" transform="translate(-372.512 -311.323)" fill="#d4ecff"/>
    </g>
    <g id="Grupo_113717" data-name="Grupo 113717" transform="translate(25.799 12.991)">
      <path id="Trazado_118624" data-name="Trazado 118624" d="M354.449,316.633l-18.019-10.4c-1.106-.639-.967-1.753.31-2.491l17.4-10.045a4.793,4.793,0,0,1,4.314-.179l18.019,10.4c1.106.639.967,1.753-.31,2.491l-17.4,10.045A4.8,4.8,0,0,1,354.449,316.633Z" transform="translate(-335.684 -293.084)" fill="#00defc"/>
      <path id="Trazado_118625" data-name="Trazado 118625" d="M352.763,305.715l-2.493-1.439c-.153-.089-.133-.242.043-.345l2.407-1.39a.667.667,0,0,1,.6-.025l2.493,1.439c.153.089.133.242-.043.345l-2.407,1.39A.667.667,0,0,1,352.763,305.715Z" transform="translate(-332.273 -290.876)" fill="#d4ecff"/>
      <path id="Trazado_118626" data-name="Trazado 118626" d="M336.43,306.23l.051.03a2.791,2.791,0,0,1,.259-.178l17.4-10.045a4.793,4.793,0,0,1,4.314-.179l17.968,10.373c1.018-.73,1.072-1.724.051-2.313l-18.019-10.4a4.793,4.793,0,0,0-4.314.179l-17.4,10.045C335.463,304.477,335.324,305.591,336.43,306.23Z" transform="translate(-335.684 -293.084)" fill="#396caa"/>
    </g>
  </g>
</svg>
