<svg xmlns="http://www.w3.org/2000/svg" xmlns:xlink="http://www.w3.org/1999/xlink" width="491" height="408.898" viewBox="0 0 491 408.898">
  <defs>
    <radialGradient id="radial-gradient" cx="0.055" cy="0.064" r="1.056" gradientTransform="translate(-0.02) scale(1.039 1)" gradientUnits="objectBoundingBox">
      <stop offset="0" stop-color="#699dd1"/>
      <stop offset="0.266" stop-color="#6296cb"/>
      <stop offset="0.641" stop-color="#5084bd"/>
      <stop offset="1" stop-color="#396caa"/>
    </radialGradient>
    <linearGradient id="linear-gradient" x1="0.131" y1="0.119" x2="0.99" y2="1.006" gradientUnits="objectBoundingBox">
      <stop offset="0" stop-color="#d4ecff"/>
      <stop offset="0.201" stop-color="#d0e9fd"/>
      <stop offset="0.387" stop-color="#c5e2f9"/>
      <stop offset="0.568" stop-color="#b2d5f1"/>
      <stop offset="0.744" stop-color="#98c4e7"/>
      <stop offset="0.842" stop-color="#86b8e0"/>
    </linearGradient>
    <radialGradient id="radial-gradient-2" cx="-0.255" cy="0.179" r="0.655" gradientTransform="translate(-0.319) scale(1.637 1)" xlink:href="#radial-gradient"/>
    <linearGradient id="linear-gradient-2" x1="0.682" y1="1.036" x2="0.409" y2="0.232" gradientUnits="objectBoundingBox">
      <stop offset="0" stop-color="#86b8e0"/>
      <stop offset="0.116" stop-color="#98c4e7"/>
      <stop offset="0.325" stop-color="#b2d5f1"/>
      <stop offset="0.54" stop-color="#c5e2f9"/>
      <stop offset="0.761" stop-color="#d0e9fd"/>
      <stop offset="1" stop-color="#d4ecff"/>
    </linearGradient>
    <radialGradient id="radial-gradient-3" cx="-0.082" cy="0.13" r="0.619" gradientTransform="translate(-0.319) scale(1.637 1)" xlink:href="#radial-gradient"/>
    <linearGradient id="linear-gradient-3" x1="0.665" y1="0.986" x2="0.45" y2="0.352" xlink:href="#linear-gradient-2"/>
  </defs>
  <g id="banner-princiapal" transform="translate(-844 -131.102)">
    <g id="banner-princiapal-2" data-name="banner-princiapal" transform="translate(753 131.102)">
      <g id="Grupo_113659" data-name="Grupo 113659" transform="translate(118.076 96.681)" opacity="0.4">
        <path id="Trazado_118311" data-name="Trazado 118311" d="M548.737,160.508l-39.836-23,39.835-23,39.836,23Zm-37.015-23,37.015,21.371,37.014-21.37-37.015-21.371Z" transform="translate(-124.653 -114.507)" fill="#fff"/>
        <path id="Trazado_118312" data-name="Trazado 118312" d="M486.537,160.507l-39.836-23,39.834-23,39.836,23Zm-37.015-23,37.015,21.37,37.014-21.37-37.015-21.371Z" transform="translate(-139.302 -114.508)" fill="#fff"/>
        <path id="Trazado_118313" data-name="Trazado 118313" d="M517.637,178.463l-39.836-23,39.834-23,39.837,23Zm-37.014-23,37.014,21.371,37.015-21.37-37.016-21.371Z" transform="translate(-131.978 -110.279)" fill="#fff"/>
        <path id="Trazado_118314" data-name="Trazado 118314" d="M548.736,196.419l-39.834-23,39.834-23,39.834,23Zm-37.014-23,37.014,21.371,37.014-21.37L548.736,152.05Z" transform="translate(-124.653 -106.05)" fill="#fff"/>
        <path id="Trazado_118315" data-name="Trazado 118315" d="M424.337,160.507l-39.836-23,39.834-23,39.836,23Zm-37.015-23,37.015,21.371,37.014-21.37-37.015-21.371Z" transform="translate(-153.952 -114.508)" fill="#fff"/>
        <path id="Trazado_118316" data-name="Trazado 118316" d="M455.437,178.463l-39.836-23,39.834-23,39.837,23Zm-37.015-23,37.015,21.371,37.014-21.371-37.015-21.37Z" transform="translate(-146.627 -110.279)" fill="#fff"/>
        <path id="Trazado_118317" data-name="Trazado 118317" d="M486.536,196.419l-39.834-23,39.834-23,39.836,23Zm-37.014-23,37.014,21.371,37.015-21.371-37.015-21.371Z" transform="translate(-139.302 -106.05)" fill="#fff"/>
        <path id="Trazado_118318" data-name="Trazado 118318" d="M517.637,214.374l-39.836-23,39.836-23,39.836,23Zm-37.014-23,37.014,21.37,37.015-21.37-37.015-21.371Z" transform="translate(-131.978 -101.821)" fill="#fff"/>
        <path id="Trazado_118319" data-name="Trazado 118319" d="M548.738,232.331l-39.836-23,39.834-23,39.836,23Zm-37.015-23L548.738,230.7l37.014-21.37-37.015-21.371Z" transform="translate(-124.653 -97.592)" fill="#fff"/>
        <path id="Trazado_118320" data-name="Trazado 118320" d="M362.136,160.506l-39.836-23,39.836-23,39.836,23Zm-37.014-23,37.014,21.371,37.015-21.37-37.015-21.371Z" transform="translate(-168.601 -114.508)" fill="#fff"/>
        <path id="Trazado_118321" data-name="Trazado 118321" d="M393.237,178.462l-39.836-23,39.834-23,39.836,23Zm-37.015-23,37.015,21.371,37.014-21.37-37.015-21.371Z" transform="translate(-161.276 -110.279)" fill="#fff"/>
        <path id="Trazado_118322" data-name="Trazado 118322" d="M424.338,196.419l-39.836-23,39.834-23,39.836,23Zm-37.015-23,37.015,21.371,37.014-21.37-37.015-21.371Z" transform="translate(-153.951 -106.05)" fill="#fff"/>
        <path id="Trazado_118323" data-name="Trazado 118323" d="M455.436,214.374l-39.834-23,39.834-23,39.836,23Zm-37.014-23,37.014,21.371,37.014-21.37-37.014-21.371Z" transform="translate(-146.627 -101.821)" fill="#fff"/>
        <path id="Trazado_118324" data-name="Trazado 118324" d="M486.538,232.331l-39.836-23,39.834-23,39.836,23Zm-37.015-23L486.538,230.7l37.014-21.371-37.015-21.37Z" transform="translate(-139.302 -97.592)" fill="#fff"/>
        <path id="Trazado_118325" data-name="Trazado 118325" d="M517.639,250.288l-39.837-23,39.834-23,39.837,23Zm-37.015-23,37.015,21.371,37.014-21.371-37.016-21.371Z" transform="translate(-131.977 -93.363)" fill="#fff"/>
        <path id="Trazado_118326" data-name="Trazado 118326" d="M548.739,268.242l-39.836-23,39.834-23,39.836,23Zm-37.015-23,37.015,21.368,37.014-21.368-37.015-21.371Z" transform="translate(-124.652 -89.134)" fill="#fff"/>
        <path id="Trazado_118327" data-name="Trazado 118327" d="M299.936,160.506l-39.836-23,39.834-23,39.837,23Zm-37.015-23,37.015,21.371,37.014-21.371-37.015-21.37Z" transform="translate(-183.251 -114.508)" fill="#fff"/>
        <path id="Trazado_118328" data-name="Trazado 118328" d="M331.037,178.462l-39.836-23,39.834-23,39.836,23Zm-37.015-23,37.015,21.371,37.014-21.371-37.015-21.371Z" transform="translate(-175.926 -110.279)" fill="#fff"/>
        <path id="Trazado_118329" data-name="Trazado 118329" d="M362.137,196.418l-39.836-23,39.834-23,39.837,23Zm-37.014-23,37.014,21.37,37.015-21.37-37.016-21.371Z" transform="translate(-168.601 -106.05)" fill="#fff"/>
        <path id="Trazado_118330" data-name="Trazado 118330" d="M393.236,214.374l-39.834-23,39.834-23,39.836,23Zm-37.014-23,37.014,21.371,37.015-21.37L393.236,170Z" transform="translate(-161.276 -101.821)" fill="#fff"/>
        <path id="Trazado_118331" data-name="Trazado 118331" d="M424.338,232.33l-39.836-23,39.836-23,39.834,23Zm-37.015-23L424.338,230.7l37.014-21.37-37.014-21.37Z" transform="translate(-153.951 -97.592)" fill="#fff"/>
        <path id="Trazado_118332" data-name="Trazado 118332" d="M455.438,250.286l-39.836-23,39.834-23,39.837,23Zm-37.015-23,37.015,21.371,37.014-21.37-37.015-21.371Z" transform="translate(-146.627 -93.363)" fill="#fff"/>
        <path id="Trazado_118333" data-name="Trazado 118333" d="M486.539,268.242l-39.836-23,39.834-23,39.836,23Zm-37.015-23,37.015,21.37,37.014-21.368-37.015-21.371Z" transform="translate(-139.302 -89.134)" fill="#fff"/>
        <path id="Trazado_118334" data-name="Trazado 118334" d="M517.64,286.2l-39.837-23,39.836-23,39.836,23Zm-37.016-23,37.016,21.37,37.014-21.37-37.015-21.37Z" transform="translate(-131.977 -84.905)" fill="#fff"/>
        <path id="Trazado_118335" data-name="Trazado 118335" d="M548.74,304.155l-39.836-23,39.834-23,39.836,23Zm-37.015-23,37.015,21.371,37.014-21.371-37.015-21.371Z" transform="translate(-124.652 -80.676)" fill="#fff"/>
        <path id="Trazado_118336" data-name="Trazado 118336" d="M237.736,160.505l-39.836-23,39.834-23,39.836,23Zm-37.015-23,37.015,21.371,37.014-21.37-37.015-21.371Z" transform="translate(-197.9 -114.508)" fill="#fff"/>
        <path id="Trazado_118337" data-name="Trazado 118337" d="M268.837,178.461l-39.836-23,39.834-23,39.836,23Zm-37.015-23,37.015,21.371,37.014-21.37-37.015-21.371Z" transform="translate(-190.575 -110.279)" fill="#fff"/>
        <path id="Trazado_118338" data-name="Trazado 118338" d="M299.937,196.418l-39.836-23,39.834-23,39.837,23Zm-37.015-23,37.015,21.371,37.014-21.37-37.015-21.371Z" transform="translate(-183.25 -106.05)" fill="#fff"/>
        <path id="Trazado_118339" data-name="Trazado 118339" d="M331.038,214.374l-39.836-23,39.834-23,39.836,23Zm-37.015-23,37.015,21.371,37.014-21.371L331.036,170Z" transform="translate(-175.925 -101.821)" fill="#fff"/>
        <path id="Trazado_118340" data-name="Trazado 118340" d="M362.136,232.331l-39.834-23,39.834-23,39.836,23Zm-37.012-23L362.136,230.7l37.015-21.371-37.015-21.37Z" transform="translate(-168.601 -97.592)" fill="#fff"/>
        <path id="Trazado_118341" data-name="Trazado 118341" d="M393.238,250.285l-39.836-23,39.834-23,39.836,23Zm-37.015-23,37.015,21.37,37.014-21.37-37.015-21.37Z" transform="translate(-161.276 -93.363)" fill="#fff"/>
        <path id="Trazado_118342" data-name="Trazado 118342" d="M424.339,268.241l-39.836-23,39.834-23,39.836,23Zm-37.015-23,37.015,21.37,37.014-21.368-37.015-21.371Z" transform="translate(-153.951 -89.134)" fill="#fff"/>
        <path id="Trazado_118343" data-name="Trazado 118343" d="M455.439,286.2l-39.836-23,39.834-23,39.836,23Zm-37.015-23,37.015,21.37L492.452,263.2l-37.015-21.371Z" transform="translate(-146.626 -84.905)" fill="#fff"/>
        <path id="Trazado_118344" data-name="Trazado 118344" d="M486.54,304.153l-39.836-23,39.834-23,39.836,23Zm-37.015-23,37.015,21.371,37.014-21.37-37.015-21.371Z" transform="translate(-139.302 -80.676)" fill="#fff"/>
        <path id="Trazado_118345" data-name="Trazado 118345" d="M517.641,322.109l-39.837-23,39.836-23,39.836,23Zm-37.016-23,37.016,21.371,37.013-21.37L517.64,277.741Z" transform="translate(-131.977 -76.447)" fill="#fff"/>
        <path id="Trazado_118346" data-name="Trazado 118346" d="M548.741,340.065l-39.836-23,39.834-23,39.836,23Zm-37.015-23,37.015,21.371,37.014-21.371L548.739,295.7Z" transform="translate(-124.652 -72.218)" fill="#fff"/>
        <path id="Trazado_118347" data-name="Trazado 118347" d="M237.737,196.417l-39.836-23,39.834-23,39.836,23Zm-37.015-23,37.015,21.37,37.014-21.37-37.015-21.371Z" transform="translate(-197.9 -106.05)" fill="#fff"/>
        <path id="Trazado_118348" data-name="Trazado 118348" d="M268.838,214.373l-39.836-23,39.834-23,39.836,23Zm-37.015-23,37.015,21.371,37.014-21.37L268.836,170Z" transform="translate(-190.575 -101.821)" fill="#fff"/>
        <path id="Trazado_118349" data-name="Trazado 118349" d="M299.936,232.329l-39.834-23,39.834-23,39.837,23Zm-37.014-23L299.936,230.7l37.015-21.37-37.015-21.37Z" transform="translate(-183.25 -97.592)" fill="#fff"/>
        <path id="Trazado_118350" data-name="Trazado 118350" d="M331.038,250.285l-39.836-23,39.836-23,39.834,23Zm-37.015-23,37.015,21.371,37.014-21.37-37.014-21.37Z" transform="translate(-175.925 -93.363)" fill="#fff"/>
        <path id="Trazado_118351" data-name="Trazado 118351" d="M362.139,268.241l-39.837-23,39.834-23,39.837,23Zm-37.015-23,37.015,21.37,37.014-21.37-37.016-21.37Z" transform="translate(-168.601 -89.134)" fill="#fff"/>
        <path id="Trazado_118352" data-name="Trazado 118352" d="M393.239,286.2l-39.836-23,39.834-23,39.836,23Zm-37.015-23,37.015,21.37,37.014-21.37-37.015-21.371Z" transform="translate(-161.276 -84.905)" fill="#fff"/>
        <path id="Trazado_118353" data-name="Trazado 118353" d="M424.34,304.152l-39.836-23,39.834-23,39.836,23Zm-37.015-23,37.015,21.37,37.014-21.37-37.015-21.371Z" transform="translate(-153.951 -80.676)" fill="#fff"/>
        <path id="Trazado_118354" data-name="Trazado 118354" d="M455.44,322.108l-39.836-23,39.834-23,39.836,23Zm-37.015-23L455.44,320.48l37.014-21.37L455.438,277.74Z" transform="translate(-146.626 -76.447)" fill="#fff"/>
        <path id="Trazado_118355" data-name="Trazado 118355" d="M486.541,340.064l-39.836-23,39.834-23,39.836,23Zm-37.015-23,37.015,21.371,37.014-21.37L486.539,295.7Z" transform="translate(-139.301 -72.218)" fill="#fff"/>
        <path id="Trazado_118356" data-name="Trazado 118356" d="M517.641,358.02l-39.836-23,39.836-23,39.836,23Zm-37.015-23,37.015,21.371,37.014-21.37-37.014-21.371Z" transform="translate(-131.977 -67.989)" fill="#fff"/>
        <path id="Trazado_118357" data-name="Trazado 118357" d="M548.742,375.976l-39.836-23,39.834-23,39.836,23Zm-37.015-23,37.015,21.371,37.014-21.37L548.74,331.607Z" transform="translate(-124.652 -63.76)" fill="#fff"/>
        <path id="Trazado_118358" data-name="Trazado 118358" d="M237.738,232.33l-39.836-23,39.834-23,39.836,23Zm-37.015-23L237.738,230.7l37.014-21.371-37.015-21.37Z" transform="translate(-197.9 -97.592)" fill="#fff"/>
        <path id="Trazado_118359" data-name="Trazado 118359" d="M268.837,250.284l-39.834-23,39.834-23,39.834,23Zm-37.014-23,37.014,21.37,37.014-21.37-37.014-21.37Z" transform="translate(-190.575 -93.363)" fill="#fff"/>
        <path id="Trazado_118360" data-name="Trazado 118360" d="M299.938,268.24l-39.836-23,39.834-23,39.837,23Zm-37.015-23,37.015,21.371,37.014-21.368-37.015-21.371Z" transform="translate(-183.25 -89.134)" fill="#fff"/>
        <path id="Trazado_118361" data-name="Trazado 118361" d="M331.039,286.2l-39.836-23,39.834-23,39.836,23Zm-37.015-23,37.015,21.371,37.014-21.37-37.015-21.371Z" transform="translate(-175.925 -84.905)" fill="#fff"/>
        <path id="Trazado_118362" data-name="Trazado 118362" d="M362.14,304.152l-39.837-23,39.836-23,39.836,23Zm-37.016-23,37.016,21.371,37.014-21.37-37.015-21.371Z" transform="translate(-168.6 -80.676)" fill="#fff"/>
        <path id="Trazado_118363" data-name="Trazado 118363" d="M393.24,322.108l-39.836-23,39.834-23,39.836,23Zm-37.015-23L393.24,320.48l37.014-21.371-37.015-21.37Z" transform="translate(-161.276 -76.447)" fill="#fff"/>
        <path id="Trazado_118364" data-name="Trazado 118364" d="M424.341,340.064l-39.837-23,39.836-23,39.836,23Zm-37.015-23,37.015,21.371,37.014-21.371L424.34,295.694Z" transform="translate(-153.951 -72.218)" fill="#fff"/>
        <path id="Trazado_118365" data-name="Trazado 118365" d="M455.441,358.019l-39.836-23,39.834-23,39.836,23Zm-37.015-23,37.015,21.37,37.014-21.37L455.439,313.65Z" transform="translate(-146.626 -67.989)" fill="#fff"/>
        <path id="Trazado_118366" data-name="Trazado 118366" d="M486.542,375.975l-39.836-23,39.834-23,39.836,23Zm-37.015-23,37.015,21.371,37.014-21.37L486.54,331.606Z" transform="translate(-139.301 -63.76)" fill="#fff"/>
        <path id="Trazado_118367" data-name="Trazado 118367" d="M237.738,268.24l-39.836-23,39.836-23,39.834,23Zm-37.015-23,37.015,21.371,37.014-21.371-37.014-21.368Z" transform="translate(-197.9 -89.134)" fill="#fff"/>
        <path id="Trazado_118368" data-name="Trazado 118368" d="M268.839,286.2,229,263.2l39.834-23,39.836,23Zm-37.015-23,37.015,21.371L305.852,263.2l-37.015-21.371Z" transform="translate(-190.575 -84.906)" fill="#fff"/>
        <path id="Trazado_118369" data-name="Trazado 118369" d="M299.939,304.151l-39.836-23,39.834-23,39.836,23Zm-37.015-23,37.015,21.37,37.014-21.37-37.015-21.371Z" transform="translate(-183.25 -80.677)" fill="#fff"/>
        <path id="Trazado_118370" data-name="Trazado 118370" d="M331.04,322.107l-39.836-23,39.834-23,39.836,23Zm-37.015-23,37.015,21.371,37.014-21.37-37.015-21.371Z" transform="translate(-175.925 -76.447)" fill="#fff"/>
        <path id="Trazado_118371" data-name="Trazado 118371" d="M362.141,340.063l-39.837-23,39.836-23,39.836,23Zm-37.016-23,37.016,21.371,37.012-21.37L362.14,295.694Z" transform="translate(-168.6 -72.218)" fill="#fff"/>
        <path id="Trazado_118372" data-name="Trazado 118372" d="M393.241,358.019l-39.836-23,39.834-23,39.836,23Zm-37.015-23,37.015,21.371,37.014-21.37L393.239,313.65Z" transform="translate(-161.275 -67.989)" fill="#fff"/>
        <path id="Trazado_118373" data-name="Trazado 118373" d="M424.342,375.975l-39.837-23,39.836-23,39.836,23Zm-37.015-23,37.015,21.371,37.014-21.371-37.015-21.37Z" transform="translate(-153.951 -63.76)" fill="#fff"/>
        <path id="Trazado_118374" data-name="Trazado 118374" d="M237.739,304.151l-39.836-23,39.834-23,39.836,23Zm-37.015-23,37.015,21.371,37.014-21.37-37.015-21.371Z" transform="translate(-197.899 -80.677)" fill="#fff"/>
        <path id="Trazado_118375" data-name="Trazado 118375" d="M268.84,322.107l-39.837-23,39.836-23,39.836,23Zm-37.015-23,37.015,21.371,37.014-21.371-37.015-21.37Z" transform="translate(-190.575 -76.447)" fill="#fff"/>
        <path id="Trazado_118376" data-name="Trazado 118376" d="M299.94,340.063l-39.836-23,39.834-23,39.836,23Zm-37.015-23,37.015,21.371,37.014-21.371-37.015-21.371Z" transform="translate(-183.25 -72.219)" fill="#fff"/>
        <path id="Trazado_118377" data-name="Trazado 118377" d="M331.041,358.018l-39.836-23,39.835-23,39.836,23Zm-37.015-23,37.015,21.37,37.014-21.37-37.015-21.371Z" transform="translate(-175.925 -67.99)" fill="#fff"/>
        <path id="Trazado_118378" data-name="Trazado 118378" d="M362.141,375.974l-39.836-23,39.836-23,39.836,23Zm-37.015-23,37.015,21.371,37.014-21.37-37.014-21.371Z" transform="translate(-168.6 -63.761)" fill="#fff"/>
        <path id="Trazado_118379" data-name="Trazado 118379" d="M237.74,340.062l-39.836-23,39.834-23,39.836,23Zm-37.015-23,37.015,21.371,37.014-21.37-37.015-21.371Z" transform="translate(-197.899 -72.219)" fill="#fff"/>
        <path id="Trazado_118380" data-name="Trazado 118380" d="M268.841,358.018l-39.836-23,39.834-23,39.836,23Zm-37.015-23,37.015,21.371,37.014-21.37-37.015-21.371Z" transform="translate(-190.574 -67.99)" fill="#fff"/>
        <path id="Trazado_118381" data-name="Trazado 118381" d="M299.941,375.974l-39.836-23,39.834-23,39.836,23Zm-37.015-23,37.015,21.371,37.014-21.371-37.015-21.37Z" transform="translate(-183.249 -63.761)" fill="#fff"/>
        <path id="Trazado_118382" data-name="Trazado 118382" d="M237.741,375.973l-39.836-23,39.834-23,39.836,23Zm-37.015-23,37.015,21.371,37.014-21.37L237.739,331.6Z" transform="translate(-197.899 -63.761)" fill="#fff"/>
      </g>
      <g id="Grupo_113660" data-name="Grupo 113660" transform="translate(362.293 363.025)">
        <path id="Trazado_118383" data-name="Trazado 118383" d="M397.5,375.829A1.933,1.933,0,0,1,395.784,373a21.707,21.707,0,0,1,7.891-8.681,10.246,10.246,0,0,1,5.56-1.538c2.519.121,5.591-1.748,8.3-5.009a18.883,18.883,0,0,1,5.019-4.35,10.222,10.222,0,0,1,5.564-1.538c2.507.135,5.588-1.748,8.3-5.009a18.852,18.852,0,0,1,5.019-4.353,10.216,10.216,0,0,1,5.56-1.538c2.53.138,5.592-1.748,8.3-5.008a18.922,18.922,0,0,1,5.019-4.352c2.833-1.637,5.657-1.988,7.957-.991a1.932,1.932,0,0,1-1.539,3.545c-1.149-.5-2.739-.216-4.484.791a15.283,15.283,0,0,0-3.98,3.475c-3.531,4.253-7.734,6.594-11.461,6.4a6.7,6.7,0,0,0-3.436,1.025,15.236,15.236,0,0,0-3.978,3.474c-3.532,4.255-7.734,6.588-11.462,6.4a6.422,6.422,0,0,0-3.438,1.025,15.234,15.234,0,0,0-3.976,3.473c-3.534,4.254-7.725,6.575-11.463,6.4a6.535,6.535,0,0,0-3.435,1.026,17.786,17.786,0,0,0-6.4,7.124A1.931,1.931,0,0,1,397.5,375.829Z" transform="translate(-395.563 -330.08)" fill="#fff"/>
      </g>
      <g id="Grupo_113661" data-name="Grupo 113661" transform="translate(136.122 219.154)">
        <path id="Trazado_118384" data-name="Trazado 118384" d="M219.94,233.177a8.216,8.216,0,0,1-3.716,6.438c-2.053,1.185-3.718.225-3.718-2.146a8.214,8.214,0,0,1,3.718-6.437C218.276,229.846,219.94,230.807,219.94,233.177Z" transform="translate(-212.506 -209.656)" fill="#fff"/>
        <path id="Trazado_118385" data-name="Trazado 118385" d="M229.691,227.548a8.216,8.216,0,0,1-3.716,6.437c-2.053,1.185-3.718.225-3.718-2.146a8.214,8.214,0,0,1,3.718-6.437C228.027,224.217,229.691,225.177,229.691,227.548Z" transform="translate(-210.209 -210.982)" fill="#fff"/>
        <path id="Trazado_118386" data-name="Trazado 118386" d="M239.442,221.918a8.216,8.216,0,0,1-3.716,6.437c-2.053,1.186-3.716.225-3.716-2.145a8.213,8.213,0,0,1,3.716-6.438C237.778,218.587,239.442,219.547,239.442,221.918Z" transform="translate(-207.913 -212.308)" fill="#fff"/>
        <path id="Trazado_118387" data-name="Trazado 118387" d="M249.193,216.288a8.212,8.212,0,0,1-3.716,6.437c-2.052,1.186-3.716.225-3.716-2.145a8.216,8.216,0,0,1,3.716-6.438C247.53,212.957,249.193,213.917,249.193,216.288Z" transform="translate(-205.616 -213.634)" fill="#fff"/>
      </g>
      <g id="Grupo_113662" data-name="Grupo 113662" transform="translate(484.863 318.941)">
        <path id="Trazado_118388" data-name="Trazado 118388" d="M501.982,310.921a7.972,7.972,0,0,1-3.607,6.247c-1.992,1.15-3.606.219-3.606-2.082a7.974,7.974,0,0,1,3.606-6.247C500.367,307.689,501.982,308.621,501.982,310.921Z" transform="translate(-494.769 -291.114)" fill="#fff"/>
        <path id="Trazado_118389" data-name="Trazado 118389" d="M510.034,306.272a7.968,7.968,0,0,1-3.607,6.247c-1.992,1.15-3.606.217-3.606-2.082a7.972,7.972,0,0,1,3.606-6.247C508.42,303.04,510.034,303.972,510.034,306.272Z" transform="translate(-492.873 -292.209)" fill="#fff"/>
        <path id="Trazado_118390" data-name="Trazado 118390" d="M501.982,301.623a7.972,7.972,0,0,1-3.607,6.247c-1.992,1.15-3.606.217-3.606-2.082a7.972,7.972,0,0,1,3.606-6.247C500.367,298.391,501.982,299.323,501.982,301.623Z" transform="translate(-494.769 -293.304)" fill="#fff"/>
        <path id="Trazado_118391" data-name="Trazado 118391" d="M510.034,296.974a7.968,7.968,0,0,1-3.607,6.247c-1.992,1.15-3.606.217-3.606-2.082a7.972,7.972,0,0,1,3.606-6.247C508.42,293.742,510.034,294.674,510.034,296.974Z" transform="translate(-492.873 -294.399)" fill="#fff"/>
      </g>
      <g id="Grupo_113663" data-name="Grupo 113663" transform="translate(399.8 20.685)">
        <path id="Trazado_118392" data-name="Trazado 118392" d="M433.354,66.463l-7.434,4.292V62.171l7.434-4.292Z" transform="translate(-425.921 -51.849)" fill="#ffb30b"/>
        <path id="Trazado_118393" data-name="Trazado 118393" d="M441.705,61.582l-7.434,4.292V57.29L441.705,53Z" transform="translate(-423.954 -52.998)" fill="#ffb30b"/>
        <path id="Trazado_118394" data-name="Trazado 118394" d="M433.406,75.476l-7.434,4.292V71.185l7.434-4.292Z" transform="translate(-425.909 -49.726)" fill="#ffb30b"/>
        <path id="Trazado_118395" data-name="Trazado 118395" d="M441.705,70.685l-7.434,4.292V66.393l7.434-4.292Z" transform="translate(-423.954 -50.854)" fill="#ffb30b"/>
      </g>
      <path id="Trazado_118396" data-name="Trazado 118396" d="M296.475,317.052a13.808,13.808,0,0,0-3.524,3.027c-.166-6.946-5.15-9.722-11.288-6.178a20.512,20.512,0,0,0-5.425,4.733c-2.733-4.775-8.394-5.885-14.955-2.1-9.227,5.326-16.705,18.281-16.705,28.933a19.847,19.847,0,0,0,.168,2.49,6.3,6.3,0,0,0-4.679.945,17.664,17.664,0,0,0-7.993,13.844c0,5.1,3.578,7.162,7.993,4.613L296.475,334.8a16.989,16.989,0,0,0,7.685-13.31C304.16,316.587,300.719,314.6,296.475,317.052Z" transform="translate(-71.775 28.771)" fill="#fff"/>
      <ellipse id="Elipse_1" data-name="Elipse 1" cx="4.015" cy="4.015" rx="4.015" ry="4.015" transform="translate(106.433 145.471)" fill="#fff"/>
      <ellipse id="Elipse_2" data-name="Elipse 2" cx="4.015" cy="4.015" rx="4.015" ry="4.015" transform="translate(91 145.471)" fill="#fff" opacity="0.4"/>
      <g id="Grupo_113666" data-name="Grupo 113666" transform="translate(373.678 130.533)">
        <path id="Trazado_118397" data-name="Trazado 118397" d="M446.647,223.983l-38.5-22.231c-2.364-1.364-2.067-3.747.661-5.323l37.179-21.466c2.729-1.575,6.857-1.746,9.221-.382l38.5,22.231c2.364,1.364,2.067,3.747-.662,5.323L455.868,223.6C453.138,225.176,449.01,225.347,446.647,223.983Z" transform="translate(-404.361 -134.428)" fill="#7dc3ea"/>
        <path id="Trazado_118398" data-name="Trazado 118398" d="M451.088,217.673a10.356,10.356,0,0,1-5.116-1.224l-38.5-22.231a4.9,4.9,0,0,1-2.689-4.206c0-1.888,1.221-3.677,3.351-4.9l37.179-21.466c3.437-1.983,8.344-2.151,11.405-.382l38.505,22.231a4.9,4.9,0,0,1,2.689,4.207c0,1.887-1.221,3.676-3.351,4.905l-37.179,21.465A12.813,12.813,0,0,1,451.088,217.673Zm.553-51.259a8.617,8.617,0,0,0-4.148,1.016L410.314,188.9c-.933.539-1.158,1.025-1.164,1.117a1.386,1.386,0,0,0,.5.416l38.506,22.232c1.7.98,4.982.8,7.033-.384l37.178-21.465c.934-.539,1.159-1.027,1.165-1.118a1.422,1.422,0,0,0-.5-.418l-38.505-22.23A5.934,5.934,0,0,0,451.641,166.414Z" transform="translate(-404.778 -137.166)" fill="#fff"/>
        <path id="Trazado_118399" data-name="Trazado 118399" d="M495.289,177.242h0V163.956l-29.79-.016-10.3-5.945c-2.364-1.364-6.491-1.194-9.221.382l-9.606,5.547-29.818-.017V177.57a2.675,2.675,0,0,0,1.584,2.471l38.5,22.23c2.364,1.365,6.491,1.194,9.221-.382l37.178-21.466C494.619,179.515,495.378,178.337,495.289,177.242Z" transform="translate(-404.36 -138.335)" fill="#396caa"/>
        <path id="Trazado_118400" data-name="Trazado 118400" d="M450.924,157.079a10.647,10.647,0,0,0-4.942,1.3l-9.606,5.547-29.818-.017v13.664a2.675,2.675,0,0,0,1.584,2.471l38.5,22.229a8.335,8.335,0,0,0,4.279.914Z" transform="translate(-404.36 -138.334)" fill="url(#radial-gradient)"/>
        <path id="Trazado_118401" data-name="Trazado 118401" d="M409.934,162.606l-3.375,0v13.664a2.675,2.675,0,0,0,1.584,2.471l1.792,1.034Z" transform="translate(-404.36 -137.032)" fill="#d4ecff"/>
        <path id="Trazado_118402" data-name="Trazado 118402" d="M439.483,196.864a10.507,10.507,0,0,0,7.37-.085V181.266h-7.37Z" transform="translate(-396.604 -132.637)" fill="#5793ce"/>
        <path id="Trazado_118403" data-name="Trazado 118403" d="M446.647,192.229,408.143,170c-2.364-1.365-2.067-3.749.661-5.324l37.179-21.465c2.729-1.575,6.857-1.747,9.221-.383l38.5,22.231c2.364,1.364,2.067,3.747-.662,5.324l-37.178,21.465C453.138,193.422,449.01,193.594,446.647,192.229Z" transform="translate(-404.361 -141.907)" fill="url(#linear-gradient)"/>
        <path id="Trazado_118404" data-name="Trazado 118404" d="M493.046,163.154,455.868,184.62c-2.729,1.575-6.857,1.747-9.221.382l-38.5-22.231a3.557,3.557,0,0,1-1.18-1.045c-.812,1.306-.444,2.723,1.18,3.66l38.5,22.231c2.364,1.365,6.491,1.194,9.221-.382l37.178-21.466c2.12-1.223,2.765-2.933,1.842-4.276A5.159,5.159,0,0,1,493.046,163.154Z" transform="translate(-404.361 -137.294)" fill="#fff"/>
        <g id="Grupo_113664" data-name="Grupo 113664" transform="translate(73.657 35.525)">
          <path id="Trazado_118405" data-name="Trazado 118405" d="M467.505,176.447a3.437,3.437,0,0,1-1.556,2.693c-.859.5-1.555.094-1.555-.9a3.441,3.441,0,0,1,1.555-2.695C466.808,175.053,467.505,175.455,467.505,176.447Z" transform="translate(-464.394 -169.559)" fill="#d4ecff"/>
          <path id="Trazado_118406" data-name="Trazado 118406" d="M471.555,174.109A3.437,3.437,0,0,1,470,176.8c-.859.5-1.556.094-1.556-.9A3.441,3.441,0,0,1,470,173.21C470.858,172.715,471.555,173.117,471.555,174.109Z" transform="translate(-463.44 -170.11)" fill="#d4ecff"/>
          <path id="Trazado_118407" data-name="Trazado 118407" d="M475.605,171.771a3.439,3.439,0,0,1-1.556,2.693c-.859.5-1.556.094-1.556-.9a3.437,3.437,0,0,1,1.556-2.693C474.908,170.377,475.605,170.779,475.605,171.771Z" transform="translate(-462.486 -170.66)" fill="#d4ecff"/>
        </g>
        <g id="Grupo_113665" data-name="Grupo 113665" transform="translate(25.798 12.992)">
          <path id="Trazado_118408" data-name="Trazado 118408" d="M444.423,175.97l-18.018-10.4c-1.106-.638-.967-1.753.309-2.491l17.4-10.045a4.8,4.8,0,0,1,4.314-.178l18.018,10.4c1.106.639.967,1.754-.309,2.491l-17.4,10.045A4.793,4.793,0,0,1,444.423,175.97Z" transform="translate(-425.659 -152.422)" fill="#5793ce"/>
          <path id="Trazado_118409" data-name="Trazado 118409" d="M442.737,165.052l-2.492-1.439c-.153-.088-.135-.242.042-.345l2.407-1.389a.662.662,0,0,1,.6-.025l2.492,1.439c.153.088.135.242-.042.343l-2.408,1.39A.659.659,0,0,1,442.737,165.052Z" transform="translate(-422.248 -150.215)" fill="#d4ecff"/>
          <path id="Trazado_118410" data-name="Trazado 118410" d="M426.405,165.567l.051.03c.084-.059.162-.121.258-.178l17.4-10.045a4.8,4.8,0,0,1,4.314-.179l17.967,10.373c1.019-.729,1.072-1.722.051-2.313l-18.018-10.4a4.8,4.8,0,0,0-4.314.178l-17.4,10.045C425.438,163.814,425.3,164.929,426.405,165.567Z" transform="translate(-425.659 -152.422)" fill="#396caa"/>
        </g>
      </g>
      <g id="Grupo_113687" data-name="Grupo 113687" transform="translate(231.407)">
        <path id="Trazado_118411" data-name="Trazado 118411" d="M352.733,287.344,434.19,240.9c2.979-1.72,2.6-4.723-.835-6.71l-46.867-27.058c-3.44-1.987-8.644-2.2-11.623-.482l-81.455,46.447c-2.979,1.72-2.606,4.723.834,6.71l46.868,27.058C344.551,288.849,349.754,289.064,352.733,287.344Z" transform="translate(-289.211 3.601)" fill="#7dc3ea"/>
        <path id="Trazado_118412" data-name="Trazado 118412" d="M348.09,280a15.663,15.663,0,0,1-7.655-1.927l-46.868-27.059c-2.5-1.446-3.939-3.52-3.939-5.691a5.634,5.634,0,0,1,3.1-4.807L374.2,194.066c3.627-2.092,9.693-1.883,13.8.488l46.867,27.059c2.5,1.446,3.94,3.52,3.94,5.69a5.633,5.633,0,0,1-3.106,4.809l-81.46,46.451A12.512,12.512,0,0,1,348.09,280ZM380.3,197a8.089,8.089,0,0,0-3.925.864L294.91,244.314c-.565.326-.909.707-.909,1.013,0,.445.542,1.2,1.753,1.9l46.867,27.06c2.735,1.579,7.144,1.806,9.437.481l.01-.006,81.454-46.446c.565-.326.909-.707.909-1.014,0-.444-.542-1.2-1.752-1.9l-46.868-27.059A11.447,11.447,0,0,0,380.3,197Z" transform="translate(-289.628 0.572)" fill="#fff"/>
        <g id="Grupo_113686" data-name="Grupo 113686" transform="translate(2.187 3.231)">
          <g id="Grupo_113678" data-name="Grupo 113678">
            <g id="Grupo_113669" data-name="Grupo 113669">
              <path id="Trazado_118413" data-name="Trazado 118413" d="M291.412,262.355h0V85.091l70.472-18.445,12.98-7.493c2.979-1.72,8.183-1.5,11.623.481L398.6,66.626l37.587-.021-11.13,171.123a3.37,3.37,0,0,1-2,3.115l-70.326,53.063c-2.979,1.72-8.182,1.5-11.621-.481l-46.868-27.059C292.258,265.22,291.3,263.736,291.412,262.355Z" transform="translate(-291.397 -34.369)" fill="url(#radial-gradient-2)"/>
              <path id="Trazado_118414" data-name="Trazado 118414" d="M369.754,58a13.411,13.411,0,0,1,6.229,1.633l12.111,6.993,37.587-.021V244.344a3.37,3.37,0,0,1-2,3.115L342.229,293.9a10.51,10.51,0,0,1-5.393,1.153L336,116.2Z" transform="translate(-280.894 -34.367)" fill="#d4ecff"/>
              <path id="Trazado_118415" data-name="Trazado 118415" d="M342.207,283.579a13.242,13.242,0,0,1-9.29-.106V103.4h9.29Z" transform="translate(-281.62 -23.674)" fill="#5793ce"/>
              <path id="Trazado_118416" data-name="Trazado 118416" d="M352.733,120.73,434.19,74.283c2.979-1.72,2.6-4.723-.835-6.71L386.487,40.514c-3.44-1.985-8.644-2.2-11.623-.481L293.409,86.479c-2.979,1.72-2.606,4.725.834,6.71l46.868,27.059C344.551,122.235,349.754,122.45,352.733,120.73Z" transform="translate(-291.398 -38.872)" fill="#d4ecff"/>
              <path id="Trazado_118417" data-name="Trazado 118417" d="M294.242,84.023l46.868,27.059c3.44,1.985,8.642,2.2,11.621.482l81.457-46.447a4.5,4.5,0,0,0,1.486-1.32c1.023,1.647.56,3.434-1.486,4.615L352.731,114.86c-2.979,1.72-8.182,1.5-11.621-.482L294.242,87.319c-2.672-1.543-3.484-3.7-2.32-5.391A6.505,6.505,0,0,0,294.242,84.023Z" transform="translate(-291.397 -33.001)" fill="#fafdff"/>
              <g id="Grupo_113668" data-name="Grupo 113668" transform="translate(30.329 15.027)">
                <path id="Trazado_118418" data-name="Trazado 118418" d="M344.647,99.041l54.232-31.435c1.394-.806,1.219-2.212-.39-3.141L376.557,51.8a6.044,6.044,0,0,0-5.439-.226L316.888,83.014c-1.395.8-1.219,2.21.389,3.139l21.932,12.663A6.044,6.044,0,0,0,344.647,99.041Z" transform="translate(-315.946 -51.034)" fill="#173d7a"/>
                <g id="Grupo_113667" data-name="Grupo 113667" transform="translate(22.512 13.876)">
                  <path id="Trazado_118419" data-name="Trazado 118419" d="M363.63,66.372l3.143-1.814c.193-.111.168-.306-.054-.435l-3.034-1.752a.837.837,0,0,0-.752-.031l-3.142,1.815c-.194.111-.169.305.053.434l3.034,1.752A.833.833,0,0,0,363.63,66.372Z" transform="translate(-328.163 -62.265)" fill="#d4ecff"/>
                  <path id="Trazado_118420" data-name="Trazado 118420" d="M355.133,71.258l3.142-1.814c.193-.111.169-.306-.053-.435l-3.034-1.752a.837.837,0,0,0-.752-.031l-3.143,1.815c-.193.111-.168.305.054.434l3.034,1.752A.833.833,0,0,0,355.133,71.258Z" transform="translate(-330.164 -61.114)" fill="#d4ecff"/>
                  <path id="Trazado_118421" data-name="Trazado 118421" d="M346.636,76.144l3.142-1.814c.193-.111.168-.306-.054-.435l-3.034-1.752a.837.837,0,0,0-.752-.031l-3.142,1.815c-.193.111-.169.305.054.434l3.033,1.752A.836.836,0,0,0,346.636,76.144Z" transform="translate(-332.165 -59.964)" fill="#d4ecff"/>
                  <path id="Trazado_118422" data-name="Trazado 118422" d="M338.138,81.03l3.143-1.814c.193-.111.168-.306-.054-.435l-3.034-1.752A.837.837,0,0,0,337.44,77L334.3,78.813c-.193.111-.168.305.054.434L337.386,81A.833.833,0,0,0,338.138,81.03Z" transform="translate(-334.167 -58.813)" fill="#d4ecff"/>
                </g>
                <path id="Trazado_118423" data-name="Trazado 118423" d="M398.878,67.606l-.064.037a3.68,3.68,0,0,0-.326-.225L376.555,54.757a6.044,6.044,0,0,0-5.439-.226L316.95,85.93c-1.285-.92-1.353-2.172-.064-2.916l54.231-31.437a6.044,6.044,0,0,1,5.439.226l21.932,12.662C400.1,65.394,400.271,66.8,398.878,67.606Z" transform="translate(-315.944 -51.034)" fill="#5793ce"/>
              </g>
            </g>
            <g id="Grupo_113671" data-name="Grupo 113671" transform="translate(6.586 79.543)">
              <path id="Trazado_118424" data-name="Trazado 118424" d="M330.7,140.688,299.87,123.034a7.525,7.525,0,0,1-3.141-6V106c0-2.314,1.406-3.378,3.141-2.376L330.7,121.283a7.526,7.526,0,0,1,3.142,6v11.026C333.847,140.627,332.439,141.69,330.7,140.688Z" transform="translate(-296.729 -103.252)" fill="#084a93"/>
              <path id="Trazado_118425" data-name="Trazado 118425" d="M298.344,103.288a3.082,3.082,0,0,0-.788,2.294v11.027a7.52,7.52,0,0,0,3.142,6l30.834,17.654a2.255,2.255,0,0,0,1.526.332,1.872,1.872,0,0,1-2.352.082L299.87,123.025a7.525,7.525,0,0,1-3.141-6V106C296.729,104.425,297.385,103.451,298.344,103.288Z" transform="translate(-296.729 -103.243)" fill="#fff"/>
              <g id="Grupo_113670" data-name="Grupo 113670" transform="translate(11.73 13.435)">
                <path id="Trazado_118426" data-name="Trazado 118426" d="M317.392,125.108l-2.829-1.633a1.641,1.641,0,0,1-.685-1.308v-3.021c0-.5.306-.736.685-.518l2.829,1.632a1.641,1.641,0,0,1,.684,1.308v3.022C318.076,125.094,317.77,125.327,317.392,125.108Z" transform="translate(-304.42 -113.084)" fill="#396caa"/>
                <path id="Trazado_118427" data-name="Trazado 118427" d="M309.737,120.688l-2.828-1.633a1.634,1.634,0,0,1-.686-1.307v-3.022c0-.5.306-.736.686-.518l2.828,1.633a1.641,1.641,0,0,1,.685,1.308v3.021C310.421,120.674,310.115,120.907,309.737,120.688Z" transform="translate(-306.223 -114.125)" fill="#fff"/>
              </g>
            </g>
            <g id="Grupo_113673" data-name="Grupo 113673" transform="translate(6.586 159.224)">
              <path id="Trazado_118428" data-name="Trazado 118428" d="M330.7,205.179,299.87,187.525a7.523,7.523,0,0,1-3.141-6V170.5c0-2.314,1.406-3.377,3.141-2.375L330.7,185.775a7.524,7.524,0,0,1,3.142,6V202.8C333.847,205.117,332.439,206.181,330.7,205.179Z" transform="translate(-296.729 -167.744)" fill="#084a93"/>
              <path id="Trazado_118429" data-name="Trazado 118429" d="M298.344,167.78a3.078,3.078,0,0,0-.788,2.293V181.1a7.524,7.524,0,0,0,3.142,6l30.834,17.654a2.269,2.269,0,0,0,1.526.332,1.874,1.874,0,0,1-2.352.08L299.87,187.516a7.523,7.523,0,0,1-3.141-6V170.487C296.729,168.917,297.385,167.943,298.344,167.78Z" transform="translate(-296.729 -167.735)" fill="#fff"/>
              <g id="Grupo_113672" data-name="Grupo 113672" transform="translate(11.73 13.435)">
                <path id="Trazado_118430" data-name="Trazado 118430" d="M317.392,189.6l-2.829-1.633a1.637,1.637,0,0,1-.685-1.308v-3.021c0-.5.306-.736.685-.518l2.829,1.633a1.641,1.641,0,0,1,.684,1.308v3.021C318.076,189.585,317.77,189.818,317.392,189.6Z" transform="translate(-304.42 -177.576)" fill="#396caa"/>
                <path id="Trazado_118431" data-name="Trazado 118431" d="M309.737,185.18l-2.828-1.633a1.639,1.639,0,0,1-.686-1.308v-3.021c0-.505.306-.736.686-.518l2.828,1.632a1.641,1.641,0,0,1,.685,1.308v3.022C310.421,185.166,310.115,185.4,309.737,185.18Z" transform="translate(-306.223 -178.617)" fill="#fff"/>
              </g>
            </g>
            <g id="Grupo_113675" data-name="Grupo 113675" transform="translate(6.586 199.064)">
              <path id="Trazado_118432" data-name="Trazado 118432" d="M330.7,237.425,299.87,219.771a7.525,7.525,0,0,1-3.141-6V202.742c0-2.314,1.406-3.377,3.141-2.376L330.7,218.02a7.526,7.526,0,0,1,3.142,6v11.027C333.847,237.363,332.439,238.427,330.7,237.425Z" transform="translate(-296.729 -199.989)" fill="#084a93"/>
              <path id="Trazado_118433" data-name="Trazado 118433" d="M298.344,200.025a3.082,3.082,0,0,0-.788,2.294v11.027a7.52,7.52,0,0,0,3.142,6L331.531,237a2.255,2.255,0,0,0,1.526.332,1.872,1.872,0,0,1-2.352.082L299.87,219.762a7.525,7.525,0,0,1-3.141-6V202.733C296.729,201.162,297.385,200.188,298.344,200.025Z" transform="translate(-296.729 -199.981)" fill="#fff"/>
              <g id="Grupo_113674" data-name="Grupo 113674" transform="translate(11.73 13.435)">
                <path id="Trazado_118434" data-name="Trazado 118434" d="M317.392,221.845l-2.829-1.633a1.641,1.641,0,0,1-.685-1.308v-3.021c0-.5.306-.736.685-.518L317.392,217a1.637,1.637,0,0,1,.684,1.308v3.021C318.076,221.831,317.77,222.064,317.392,221.845Z" transform="translate(-304.42 -209.822)" fill="#396caa"/>
                <path id="Trazado_118435" data-name="Trazado 118435" d="M309.737,217.425l-2.828-1.632a1.639,1.639,0,0,1-.686-1.308v-3.022c0-.5.306-.735.686-.518l2.828,1.633a1.641,1.641,0,0,1,.685,1.308v3.021C310.421,217.413,310.115,217.644,309.737,217.425Z" transform="translate(-306.223 -210.863)" fill="#fff"/>
              </g>
            </g>
            <g id="Grupo_113677" data-name="Grupo 113677" transform="translate(6.586 119.384)">
              <path id="Trazado_118436" data-name="Trazado 118436" d="M330.7,172.933,299.87,155.28a7.525,7.525,0,0,1-3.141-6V138.25c0-2.313,1.406-3.377,3.141-2.375L330.7,153.529a7.525,7.525,0,0,1,3.142,6v11.027C333.847,172.873,332.439,173.935,330.7,172.933Z" transform="translate(-296.729 -135.498)" fill="#084a93"/>
              <path id="Trazado_118437" data-name="Trazado 118437" d="M298.344,135.534a3.082,3.082,0,0,0-.788,2.294v11.026a7.522,7.522,0,0,0,3.142,6l30.834,17.654a2.269,2.269,0,0,0,1.526.332,1.874,1.874,0,0,1-2.352.08L299.87,155.27a7.523,7.523,0,0,1-3.141-6V138.241C296.729,136.671,297.385,135.7,298.344,135.534Z" transform="translate(-296.729 -135.489)" fill="#fff"/>
              <g id="Grupo_113676" data-name="Grupo 113676" transform="translate(11.73 13.435)">
                <path id="Trazado_118438" data-name="Trazado 118438" d="M317.392,157.353l-2.829-1.632a1.641,1.641,0,0,1-.685-1.308V151.39c0-.5.306-.735.685-.518l2.829,1.633a1.641,1.641,0,0,1,.684,1.308v3.021C318.076,157.341,317.77,157.572,317.392,157.353Z" transform="translate(-304.42 -145.331)" fill="#396caa"/>
                <path id="Trazado_118439" data-name="Trazado 118439" d="M309.737,152.934l-2.828-1.633a1.639,1.639,0,0,1-.686-1.308v-3.021c0-.5.306-.736.686-.518l2.828,1.633a1.637,1.637,0,0,1,.685,1.308v3.021C310.421,152.92,310.115,153.153,309.737,152.934Z" transform="translate(-306.223 -146.371)" fill="#fff"/>
              </g>
            </g>
          </g>
          <g id="Grupo_113679" data-name="Grupo 113679" transform="translate(64.385 43.021)">
            <path id="Trazado_118440" data-name="Trazado 118440" d="M346.394,136.363l71.138-41.071a6.906,6.906,0,0,0,2.883-5.509V76.217c0-2.123-1.291-3.1-2.883-2.179L346.394,115.11a6.9,6.9,0,0,0-2.884,5.508v13.565C343.51,136.306,344.8,137.282,346.394,136.363Z" transform="translate(-343.51 -73.692)" fill="#5793ce"/>
            <path id="Trazado_118441" data-name="Trazado 118441" d="M347.776,130.667l67.053-38.713a3.5,3.5,0,0,0,1.463-2.795v-10.2c0-1.077-.655-1.573-1.463-1.106l-67.053,38.714a3.5,3.5,0,0,0-1.463,2.795v10.2C346.313,130.638,346.968,131.134,347.776,130.667Z" transform="translate(-342.85 -72.753)" fill="#d4ecff" opacity="0.4"/>
            <path id="Trazado_118442" data-name="Trazado 118442" d="M390.729,93.446l10.007-5.777a3.4,3.4,0,0,0,1.421-2.714h0c0-1.045-.636-1.526-1.421-1.074l-10.007,5.777a3.4,3.4,0,0,0-1.421,2.714h0C389.308,93.417,389.944,93.9,390.729,93.446Z" transform="translate(-332.724 -71.333)" fill="#d4ecff"/>
            <path id="Trazado_118443" data-name="Trazado 118443" d="M383.556,94.626c0,1.046.734,1.47,1.64.946a3.624,3.624,0,0,0,1.641-2.84c0-1.045-.735-1.469-1.641-.946A3.623,3.623,0,0,0,383.556,94.626Z" transform="translate(-334.078 -69.483)" fill="#173d7a"/>
            <path id="Trazado_118444" data-name="Trazado 118444" d="M378.873,97.33c0,1.045.734,1.47,1.64.946a3.624,3.624,0,0,0,1.641-2.84c0-1.046-.735-1.47-1.641-.946A3.623,3.623,0,0,0,378.873,97.33Z" transform="translate(-335.181 -68.847)" fill="#173d7a"/>
            <path id="Trazado_118445" data-name="Trazado 118445" d="M374.19,100.034c0,1.045.734,1.469,1.64.946a3.626,3.626,0,0,0,1.641-2.84c0-1.046-.735-1.47-1.641-.948A3.627,3.627,0,0,0,374.19,100.034Z" transform="translate(-336.284 -68.21)" fill="#d4ecff"/>
            <path id="Trazado_118446" data-name="Trazado 118446" d="M369.507,102.737c0,1.046.734,1.47,1.64.948a3.628,3.628,0,0,0,1.641-2.84c0-1.046-.735-1.47-1.641-.948A3.625,3.625,0,0,0,369.507,102.737Z" transform="translate(-337.387 -67.573)" fill="#173d7a"/>
            <path id="Trazado_118447" data-name="Trazado 118447" d="M349.953,117.5l3.37-1.946a2.18,2.18,0,0,0,.912-1.742v-3.566c0-.671-.408-.98-.912-.689l-3.37,1.946a2.184,2.184,0,0,0-.912,1.742v3.566C349.041,117.488,349.45,117.8,349.953,117.5Z" transform="translate(-342.207 -65.27)" fill="#173d7a"/>
          </g>
          <g id="Grupo_113680" data-name="Grupo 113680" transform="translate(64.385 66.942)">
            <path id="Trazado_118448" data-name="Trazado 118448" d="M346.394,155.722l71.138-41.071a6.906,6.906,0,0,0,2.883-5.508V95.578c0-2.123-1.291-3.1-2.883-2.179L346.394,134.47a6.9,6.9,0,0,0-2.884,5.508v13.565C343.51,155.667,344.8,156.642,346.394,155.722Z" transform="translate(-343.51 -93.053)" fill="#5793ce"/>
            <path id="Trazado_118449" data-name="Trazado 118449" d="M347.776,150.028l67.053-38.714a3.5,3.5,0,0,0,1.463-2.795v-10.2c0-1.076-.655-1.572-1.463-1.106l-67.053,38.714a3.5,3.5,0,0,0-1.463,2.795v10.2C346.313,150,346.968,150.494,347.776,150.028Z" transform="translate(-342.85 -92.114)" fill="#d4ecff" opacity="0.4"/>
            <path id="Trazado_118450" data-name="Trazado 118450" d="M390.729,112.806l10.007-5.777a3.4,3.4,0,0,0,1.421-2.713h0c0-1.046-.636-1.527-1.421-1.074l-10.007,5.777a3.4,3.4,0,0,0-1.421,2.713h0C389.308,112.779,389.944,113.259,390.729,112.806Z" transform="translate(-332.724 -90.694)" fill="#d4ecff"/>
            <path id="Trazado_118451" data-name="Trazado 118451" d="M383.556,113.986c0,1.046.734,1.47,1.64.948a3.626,3.626,0,0,0,1.641-2.84c0-1.046-.735-1.47-1.641-.948A3.625,3.625,0,0,0,383.556,113.986Z" transform="translate(-334.078 -88.845)" fill="#fff"/>
            <path id="Trazado_118452" data-name="Trazado 118452" d="M378.873,116.69c0,1.046.734,1.47,1.64.948a3.629,3.629,0,0,0,1.641-2.842c0-1.045-.735-1.469-1.641-.946A3.625,3.625,0,0,0,378.873,116.69Z" transform="translate(-335.181 -88.208)" fill="#173d7a"/>
            <path id="Trazado_118453" data-name="Trazado 118453" d="M374.19,119.394c0,1.046.734,1.47,1.64.946a3.624,3.624,0,0,0,1.641-2.84c0-1.045-.735-1.47-1.641-.946A3.623,3.623,0,0,0,374.19,119.394Z" transform="translate(-336.284 -87.571)" fill="#d4ecff"/>
            <path id="Trazado_118454" data-name="Trazado 118454" d="M369.507,122.1c0,1.045.734,1.469,1.64.946a3.626,3.626,0,0,0,1.641-2.84c0-1.046-.735-1.47-1.641-.946A3.623,3.623,0,0,0,369.507,122.1Z" transform="translate(-337.387 -86.934)" fill="#173d7a"/>
            <path id="Trazado_118455" data-name="Trazado 118455" d="M349.953,136.865l3.37-1.946a2.18,2.18,0,0,0,.912-1.741v-3.567c0-.671-.408-.98-.912-.689l-3.37,1.946a2.188,2.188,0,0,0-.912,1.742v3.567C349.041,136.848,349.45,137.157,349.953,136.865Z" transform="translate(-342.207 -84.631)" fill="#173d7a"/>
          </g>
          <g id="Grupo_113681" data-name="Grupo 113681" transform="translate(64.385 90.862)">
            <path id="Trazado_118456" data-name="Trazado 118456" d="M346.394,175.084l71.138-41.072a6.906,6.906,0,0,0,2.883-5.508V114.938c0-2.123-1.291-3.1-2.883-2.179L346.394,153.83a6.9,6.9,0,0,0-2.884,5.509V172.9C343.51,175.027,344.8,176,346.394,175.084Z" transform="translate(-343.51 -112.413)" fill="#5793ce"/>
            <path id="Trazado_118457" data-name="Trazado 118457" d="M347.776,169.388l67.053-38.714a3.5,3.5,0,0,0,1.463-2.795v-10.2c0-1.077-.655-1.573-1.463-1.106l-67.053,38.713a3.5,3.5,0,0,0-1.463,2.795v10.2C346.313,169.359,346.968,169.855,347.776,169.388Z" transform="translate(-342.85 -111.474)" fill="#d4ecff" opacity="0.4"/>
            <path id="Trazado_118458" data-name="Trazado 118458" d="M390.729,132.167l10.007-5.777a3.4,3.4,0,0,0,1.421-2.714h0c0-1.045-.636-1.527-1.421-1.074l-10.007,5.777a3.4,3.4,0,0,0-1.421,2.714h0C389.308,132.139,389.944,132.619,390.729,132.167Z" transform="translate(-332.724 -110.054)" fill="#d4ecff"/>
            <path id="Trazado_118459" data-name="Trazado 118459" d="M383.556,133.347c0,1.045.734,1.469,1.64.946a3.624,3.624,0,0,0,1.641-2.84c0-1.046-.735-1.47-1.641-.946A3.623,3.623,0,0,0,383.556,133.347Z" transform="translate(-334.078 -108.204)" fill="#fff"/>
            <path id="Trazado_118460" data-name="Trazado 118460" d="M378.873,136.051c0,1.045.734,1.469,1.64.946a3.626,3.626,0,0,0,1.641-2.84c0-1.046-.735-1.47-1.641-.948A3.627,3.627,0,0,0,378.873,136.051Z" transform="translate(-335.181 -107.568)" fill="#173d7a"/>
            <path id="Trazado_118461" data-name="Trazado 118461" d="M374.19,138.754c0,1.046.734,1.47,1.64.948a3.629,3.629,0,0,0,1.641-2.842c0-1.045-.735-1.469-1.641-.946A3.625,3.625,0,0,0,374.19,138.754Z" transform="translate(-336.284 -106.931)" fill="#d4ecff"/>
            <path id="Trazado_118462" data-name="Trazado 118462" d="M369.507,141.458c0,1.046.734,1.47,1.64.946a3.625,3.625,0,0,0,1.641-2.84c0-1.045-.735-1.47-1.641-.946A3.625,3.625,0,0,0,369.507,141.458Z" transform="translate(-337.387 -106.294)" fill="#173d7a"/>
            <path id="Trazado_118463" data-name="Trazado 118463" d="M349.953,156.226l3.37-1.947a2.18,2.18,0,0,0,.912-1.741v-3.567c0-.671-.408-.98-.912-.688l-3.37,1.946a2.183,2.183,0,0,0-.912,1.741v3.567C349.041,156.208,349.45,156.516,349.953,156.226Z" transform="translate(-342.207 -103.991)" fill="#173d7a"/>
          </g>
          <g id="Grupo_113682" data-name="Grupo 113682" transform="translate(64.385 114.782)">
            <path id="Trazado_118464" data-name="Trazado 118464" d="M346.394,194.444l71.138-41.071a6.906,6.906,0,0,0,2.883-5.509V134.3c0-2.123-1.291-3.1-2.883-2.179l-71.138,41.072a6.9,6.9,0,0,0-2.884,5.508v13.565C343.51,194.387,344.8,195.363,346.394,194.444Z" transform="translate(-343.51 -131.773)" fill="#5793ce"/>
            <path id="Trazado_118465" data-name="Trazado 118465" d="M347.776,188.748l67.053-38.713a3.5,3.5,0,0,0,1.463-2.795v-10.2c0-1.077-.655-1.572-1.463-1.106L347.776,174.65a3.5,3.5,0,0,0-1.463,2.795v10.2C346.313,188.719,346.968,189.215,347.776,188.748Z" transform="translate(-342.85 -130.834)" fill="#d4ecff" opacity="0.4"/>
            <path id="Trazado_118466" data-name="Trazado 118466" d="M390.729,151.527l10.007-5.777a3.4,3.4,0,0,0,1.421-2.714h0c0-1.045-.636-1.526-1.421-1.074l-10.007,5.779a3.4,3.4,0,0,0-1.421,2.713h0C389.308,151.5,389.944,151.98,390.729,151.527Z" transform="translate(-332.724 -129.414)" fill="#d4ecff"/>
            <path id="Trazado_118467" data-name="Trazado 118467" d="M383.556,152.707c0,1.046.734,1.47,1.64.948a3.629,3.629,0,0,0,1.641-2.842c0-1.045-.735-1.469-1.641-.946A3.625,3.625,0,0,0,383.556,152.707Z" transform="translate(-334.078 -127.564)" fill="#173d7a"/>
            <path id="Trazado_118468" data-name="Trazado 118468" d="M378.873,155.411c0,1.045.734,1.47,1.64.946a3.624,3.624,0,0,0,1.641-2.84c0-1.045-.735-1.47-1.641-.946A3.623,3.623,0,0,0,378.873,155.411Z" transform="translate(-335.181 -126.928)" fill="#173d7a"/>
            <path id="Trazado_118469" data-name="Trazado 118469" d="M374.19,158.115c0,1.045.734,1.469,1.64.946a3.626,3.626,0,0,0,1.641-2.84c0-1.046-.735-1.47-1.641-.948A3.627,3.627,0,0,0,374.19,158.115Z" transform="translate(-336.284 -126.291)" fill="#d4ecff"/>
            <path id="Trazado_118470" data-name="Trazado 118470" d="M369.507,160.818c0,1.046.734,1.47,1.64.948a3.626,3.626,0,0,0,1.641-2.84c0-1.046-.735-1.47-1.641-.948A3.627,3.627,0,0,0,369.507,160.818Z" transform="translate(-337.387 -125.654)" fill="#173d7a"/>
            <path id="Trazado_118471" data-name="Trazado 118471" d="M349.953,175.586l3.37-1.946a2.18,2.18,0,0,0,.912-1.742v-3.566c0-.671-.408-.98-.912-.689l-3.37,1.946a2.186,2.186,0,0,0-.912,1.742V174.9C349.041,175.569,349.45,175.876,349.953,175.586Z" transform="translate(-342.207 -123.351)" fill="#d4ecff"/>
          </g>
          <g id="Grupo_113683" data-name="Grupo 113683" transform="translate(64.385 138.703)">
            <path id="Trazado_118472" data-name="Trazado 118472" d="M346.394,213.8l71.138-41.071a6.906,6.906,0,0,0,2.883-5.508V153.659c0-2.123-1.291-3.1-2.883-2.179l-71.138,41.071a6.9,6.9,0,0,0-2.884,5.508v13.565C343.51,213.746,344.8,214.723,346.394,213.8Z" transform="translate(-343.51 -151.134)" fill="#5793ce"/>
            <path id="Trazado_118473" data-name="Trazado 118473" d="M347.776,208.109l67.053-38.714a3.5,3.5,0,0,0,1.463-2.795V156.4c0-1.076-.655-1.572-1.463-1.106L347.776,194.01a3.5,3.5,0,0,0-1.463,2.795V207C346.313,208.08,346.968,208.575,347.776,208.109Z" transform="translate(-342.85 -150.195)" fill="#d4ecff" opacity="0.4"/>
            <path id="Trazado_118474" data-name="Trazado 118474" d="M390.729,170.887l10.007-5.777a3.4,3.4,0,0,0,1.421-2.713h0c0-1.046-.636-1.527-1.421-1.074L390.729,167.1a3.4,3.4,0,0,0-1.421,2.713h0C389.308,170.86,389.944,171.34,390.729,170.887Z" transform="translate(-332.724 -148.775)" fill="#d4ecff"/>
            <path id="Trazado_118475" data-name="Trazado 118475" d="M383.556,172.068c0,1.045.734,1.469,1.64.946a3.626,3.626,0,0,0,1.641-2.84c0-1.046-.735-1.47-1.641-.948A3.627,3.627,0,0,0,383.556,172.068Z" transform="translate(-334.078 -146.926)" fill="#173d7a"/>
            <path id="Trazado_118476" data-name="Trazado 118476" d="M378.873,174.771c0,1.046.734,1.47,1.64.948a3.629,3.629,0,0,0,1.641-2.842c0-1.045-.735-1.469-1.641-.946A3.625,3.625,0,0,0,378.873,174.771Z" transform="translate(-335.181 -146.289)" fill="#fff"/>
            <path id="Trazado_118477" data-name="Trazado 118477" d="M374.19,177.475c0,1.046.734,1.47,1.64.946a3.624,3.624,0,0,0,1.641-2.84c0-1.045-.735-1.469-1.641-.946A3.623,3.623,0,0,0,374.19,177.475Z" transform="translate(-336.284 -145.652)" fill="#d4ecff"/>
            <path id="Trazado_118478" data-name="Trazado 118478" d="M369.507,180.179c0,1.045.734,1.469,1.64.946a3.626,3.626,0,0,0,1.641-2.84c0-1.046-.735-1.47-1.641-.946A3.623,3.623,0,0,0,369.507,180.179Z" transform="translate(-337.387 -145.015)" fill="#fff"/>
            <path id="Trazado_118479" data-name="Trazado 118479" d="M349.953,194.946l3.37-1.946a2.18,2.18,0,0,0,.912-1.741v-3.567c0-.671-.408-.98-.912-.689l-3.37,1.947a2.183,2.183,0,0,0-.912,1.741v3.567C349.041,194.929,349.45,195.238,349.953,194.946Z" transform="translate(-342.207 -142.712)" fill="#d4ecff"/>
          </g>
          <g id="Grupo_113684" data-name="Grupo 113684" transform="translate(64.385 162.622)">
            <path id="Trazado_118480" data-name="Trazado 118480" d="M346.394,233.165l71.138-41.071a6.91,6.91,0,0,0,2.883-5.509V173.019c0-2.123-1.291-3.1-2.883-2.179l-71.138,41.071a6.9,6.9,0,0,0-2.884,5.509v13.565C343.51,233.108,344.8,234.084,346.394,233.165Z" transform="translate(-343.51 -170.494)" fill="#5793ce"/>
            <path id="Trazado_118481" data-name="Trazado 118481" d="M347.776,227.469l67.053-38.713a3.5,3.5,0,0,0,1.463-2.795v-10.2c0-1.077-.655-1.573-1.463-1.106L347.776,213.37a3.5,3.5,0,0,0-1.463,2.795v10.2C346.313,227.44,346.968,227.936,347.776,227.469Z" transform="translate(-342.85 -169.555)" fill="#d4ecff" opacity="0.4"/>
            <path id="Trazado_118482" data-name="Trazado 118482" d="M390.729,190.248l10.007-5.777a3.4,3.4,0,0,0,1.421-2.714h0c0-1.045-.636-1.527-1.421-1.074l-10.007,5.777a3.4,3.4,0,0,0-1.421,2.714h0C389.308,190.22,389.944,190.7,390.729,190.248Z" transform="translate(-332.724 -168.135)" fill="#d4ecff"/>
            <path id="Trazado_118483" data-name="Trazado 118483" d="M383.556,191.428c0,1.045.734,1.47,1.64.946a3.624,3.624,0,0,0,1.641-2.84c0-1.045-.735-1.47-1.641-.946A3.623,3.623,0,0,0,383.556,191.428Z" transform="translate(-334.078 -166.285)" fill="#173d7a"/>
            <path id="Trazado_118484" data-name="Trazado 118484" d="M378.873,194.132c0,1.045.734,1.469,1.64.946a3.626,3.626,0,0,0,1.641-2.84c0-1.046-.735-1.47-1.641-.948A3.627,3.627,0,0,0,378.873,194.132Z" transform="translate(-335.181 -165.649)" fill="#173d7a"/>
            <path id="Trazado_118485" data-name="Trazado 118485" d="M374.19,196.835c0,1.046.734,1.47,1.64.948a3.628,3.628,0,0,0,1.641-2.84c0-1.046-.735-1.47-1.641-.948A3.625,3.625,0,0,0,374.19,196.835Z" transform="translate(-336.284 -165.012)" fill="#d4ecff"/>
            <path id="Trazado_118486" data-name="Trazado 118486" d="M369.507,199.539c0,1.046.734,1.47,1.64.948a3.629,3.629,0,0,0,1.641-2.842c0-1.045-.735-1.469-1.641-.946A3.625,3.625,0,0,0,369.507,199.539Z" transform="translate(-337.387 -164.375)" fill="#173d7a"/>
            <path id="Trazado_118487" data-name="Trazado 118487" d="M349.953,214.307l3.37-1.946a2.184,2.184,0,0,0,.912-1.742v-3.567c0-.671-.408-.979-.912-.688l-3.37,1.946a2.183,2.183,0,0,0-.912,1.741v3.567C349.041,214.288,349.45,214.6,349.953,214.307Z" transform="translate(-342.207 -162.072)" fill="#173d7a"/>
          </g>
          <g id="Grupo_113685" data-name="Grupo 113685" transform="translate(64.385 186.543)">
            <path id="Trazado_118488" data-name="Trazado 118488" d="M346.394,252.524l71.138-41.071a6.906,6.906,0,0,0,2.883-5.509V192.381c0-2.124-1.291-3.1-2.883-2.179l-71.138,41.071a6.9,6.9,0,0,0-2.884,5.508v13.565C343.51,252.468,344.8,253.444,346.394,252.524Z" transform="translate(-343.51 -189.854)" fill="#5793ce"/>
            <path id="Trazado_118489" data-name="Trazado 118489" d="M347.776,246.829l67.053-38.713a3.5,3.5,0,0,0,1.463-2.795v-10.2c0-1.077-.655-1.572-1.463-1.106l-67.053,38.714a3.5,3.5,0,0,0-1.463,2.795v10.2C346.313,246.8,346.968,247.3,347.776,246.829Z" transform="translate(-342.85 -188.915)" fill="#d4ecff" opacity="0.4"/>
            <path id="Trazado_118490" data-name="Trazado 118490" d="M390.729,209.608l10.007-5.777a3.4,3.4,0,0,0,1.421-2.714h0c0-1.045-.636-1.526-1.421-1.074l-10.007,5.777a3.4,3.4,0,0,0-1.421,2.714h0C389.308,209.581,389.944,210.061,390.729,209.608Z" transform="translate(-332.724 -187.495)" fill="#d4ecff"/>
            <path id="Trazado_118491" data-name="Trazado 118491" d="M382.076,212.355c0,1.976,1.386,2.776,3.1,1.789a6.849,6.849,0,0,0,3.1-5.366c0-1.976-1.388-2.776-3.1-1.789A6.847,6.847,0,0,0,382.076,212.355Z" transform="translate(-334.427 -185.918)" fill="#fff"/>
            <path id="Trazado_118492" data-name="Trazado 118492" d="M372.376,217.512c0,1.045.734,1.47,1.64.946a3.624,3.624,0,0,0,1.641-2.84c0-1.045-.735-1.47-1.641-.946A3.623,3.623,0,0,0,372.376,217.512Z" transform="translate(-336.711 -184.062)" fill="#173d7a"/>
            <path id="Trazado_118493" data-name="Trazado 118493" d="M367.693,220.216c0,1.045.734,1.469,1.64.946a3.626,3.626,0,0,0,1.641-2.84c0-1.046-.735-1.47-1.641-.948A3.627,3.627,0,0,0,367.693,220.216Z" transform="translate(-337.814 -183.426)" fill="#d4ecff"/>
            <path id="Trazado_118494" data-name="Trazado 118494" d="M363.01,222.919c0,1.046.734,1.47,1.64.948a3.626,3.626,0,0,0,1.641-2.84c0-1.046-.735-1.47-1.641-.948A3.627,3.627,0,0,0,363.01,222.919Z" transform="translate(-338.917 -182.789)" fill="#173d7a"/>
            <path id="Trazado_118495" data-name="Trazado 118495" d="M349.953,233.667l3.37-1.946a2.18,2.18,0,0,0,.912-1.742v-3.566c0-.671-.408-.98-.912-.689l-3.37,1.946a2.188,2.188,0,0,0-.912,1.742v3.566C349.041,233.65,349.45,233.957,349.953,233.667Z" transform="translate(-342.207 -181.432)" fill="#d4ecff"/>
          </g>
        </g>
        <path id="Trazado_118496" data-name="Trazado 118496" d="M352.733,118.115,434.19,71.668c2.979-1.72,2.6-4.725-.835-6.71L386.487,37.9c-3.44-1.985-8.644-2.2-11.623-.482L293.409,83.864c-2.979,1.72-2.606,4.725.834,6.71l46.868,27.059C344.551,119.619,349.754,119.835,352.733,118.115Z" transform="translate(-289.211 -36.256)" fill="url(#linear-gradient-2)"/>
        <path id="Trazado_118497" data-name="Trazado 118497" d="M377.6,60.218a4.672,4.672,0,0,0-4.225,0l-39.9,23.093a1.287,1.287,0,0,0,0,2.439,4.662,4.662,0,0,0,4.224,0l39.9-23.093A1.287,1.287,0,0,0,377.6,60.218Z" transform="translate(-279.507 -30.732)" fill="#084a93"/>
      </g>
      <g id="Grupo_113708" data-name="Grupo 113708" transform="translate(332.65 61.468)">
        <path id="Trazado_118498" data-name="Trazado 118498" d="M434.676,334.48l81.457-46.447c2.979-1.72,2.6-4.725-.835-6.71L468.43,254.264c-3.44-1.987-8.644-2.2-11.623-.482l-81.457,46.447c-2.979,1.72-2.6,4.723.835,6.71L423.053,334C426.493,335.984,431.7,336.2,434.676,334.48Z" transform="translate(-371.154 -46.766)" fill="#7dc3ea"/>
        <path id="Trazado_118499" data-name="Trazado 118499" d="M430.035,327.139a15.665,15.665,0,0,1-7.657-1.927L375.51,298.154c-2.5-1.446-3.939-3.52-3.939-5.691a5.63,5.63,0,0,1,3.1-4.81L456.141,241.2c3.629-2.092,9.694-1.882,13.8.488l46.868,27.059c2.5,1.446,3.939,3.519,3.939,5.69a5.628,5.628,0,0,1-3.1,4.809L436.18,325.7A12.5,12.5,0,0,1,430.035,327.139Zm32.207-83.006a8.063,8.063,0,0,0-3.924.862l-81.467,46.453c-.565.326-.907.707-.907,1.014,0,.442.541,1.2,1.752,1.9l46.867,27.058c2.735,1.579,7.146,1.806,9.436.483l.01-.006,81.457-46.447c.565-.326.907-.707.907-1.014,0-.442-.541-1.2-1.752-1.9l-46.868-27.058A11.446,11.446,0,0,0,462.242,244.133Z" transform="translate(-371.571 -49.795)" fill="#fff"/>
        <g id="Grupo_113707" data-name="Grupo 113707" transform="translate(2.186)">
          <g id="Grupo_113699" data-name="Grupo 113699">
            <g id="Grupo_113690" data-name="Grupo 113690">
              <path id="Trazado_118500" data-name="Trazado 118500" d="M373.355,309.491h0V132.226l70.472-18.445,12.98-7.493c2.979-1.72,8.183-1.5,11.622.482l12.111,6.992,37.587-.021L507,284.865a3.366,3.366,0,0,1-2,3.113l-70.326,53.063c-2.979,1.721-8.183,1.5-11.623-.481L376.185,313.5C374.2,312.356,373.243,310.871,373.355,309.491Z" transform="translate(-373.339 -81.504)" fill="url(#radial-gradient-3)"/>
              <path id="Trazado_118501" data-name="Trazado 118501" d="M451.7,105.133a13.414,13.414,0,0,1,6.231,1.635l12.111,6.992,37.587-.021V291.479a3.372,3.372,0,0,1-2,3.115L424.172,341.04a10.516,10.516,0,0,1-5.393,1.153l-.84-178.852Z" transform="translate(-362.837 -81.503)" fill="#d4ecff"/>
              <path id="Trazado_118502" data-name="Trazado 118502" d="M424.15,330.714a13.245,13.245,0,0,1-9.291-.106V150.534h9.291Z" transform="translate(-363.562 -70.81)" fill="#5793ce"/>
              <path id="Trazado_118503" data-name="Trazado 118503" d="M434.676,167.865l81.457-46.446c2.979-1.721,2.6-4.725-.835-6.71L468.43,87.65c-3.44-1.987-8.644-2.2-11.623-.482l-81.457,46.447c-2.979,1.72-2.6,4.723.835,6.71l46.867,27.059C426.493,169.37,431.7,169.585,434.676,167.865Z" transform="translate(-373.341 -86.007)" fill="url(#linear-gradient-3)"/>
              <path id="Trazado_118504" data-name="Trazado 118504" d="M376.185,131.158l46.867,27.059c3.44,1.985,8.644,2.2,11.623.482l81.457-46.447a4.482,4.482,0,0,0,1.485-1.318c1.024,1.646.56,3.434-1.485,4.615l-81.457,46.446c-2.979,1.721-8.183,1.5-11.623-.481l-46.867-27.059c-2.674-1.543-3.485-3.7-2.322-5.392A6.51,6.51,0,0,0,376.185,131.158Z" transform="translate(-373.339 -80.136)" fill="#fafdff"/>
              <g id="Grupo_113689" data-name="Grupo 113689" transform="translate(30.329 15.027)">
                <path id="Trazado_118505" data-name="Trazado 118505" d="M426.59,146.177l54.232-31.437c1.394-.806,1.219-2.21-.39-3.141L458.5,98.939a6.048,6.048,0,0,0-5.439-.226l-54.232,31.437c-1.394.8-1.219,2.21.39,3.141l21.932,12.662A6.048,6.048,0,0,0,426.59,146.177Z" transform="translate(-397.888 -98.17)" fill="#084a93"/>
                <g id="Grupo_113688" data-name="Grupo 113688" transform="translate(22.513 13.876)">
                  <path id="Trazado_118506" data-name="Trazado 118506" d="M445.573,113.508l3.142-1.815c.193-.111.169-.306-.053-.434l-3.034-1.752a.833.833,0,0,0-.752-.032l-3.143,1.815c-.193.111-.168.305.054.434l3.034,1.752A.837.837,0,0,0,445.573,113.508Z" transform="translate(-410.106 -109.4)" fill="#d4ecff"/>
                  <path id="Trazado_118507" data-name="Trazado 118507" d="M437.076,118.394l3.142-1.815c.193-.111.169-.305-.054-.435l-3.034-1.751a.833.833,0,0,0-.752-.032l-3.142,1.815c-.193.111-.169.305.054.434l3.034,1.752A.837.837,0,0,0,437.076,118.394Z" transform="translate(-412.107 -108.249)" fill="#d4ecff"/>
                  <path id="Trazado_118508" data-name="Trazado 118508" d="M428.578,123.28l3.143-1.815c.193-.111.168-.305-.054-.435l-3.034-1.752a.837.837,0,0,0-.752-.031l-3.143,1.815c-.193.111-.168.305.054.434l3.034,1.752A.837.837,0,0,0,428.578,123.28Z" transform="translate(-414.109 -107.099)" fill="#d4ecff"/>
                  <path id="Trazado_118509" data-name="Trazado 118509" d="M420.081,128.166l3.142-1.815c.193-.111.169-.305-.053-.435l-3.034-1.751a.834.834,0,0,0-.752-.032l-3.143,1.815c-.193.111-.168.305.054.434l3.034,1.752A.837.837,0,0,0,420.081,128.166Z" transform="translate(-416.11 -105.948)" fill="#d4ecff"/>
                </g>
                <path id="Trazado_118510" data-name="Trazado 118510" d="M480.821,114.741l-.064.037c-.106-.075-.2-.154-.326-.225L458.5,101.891a6.048,6.048,0,0,0-5.439-.226l-54.168,31.4c-1.285-.919-1.352-2.172-.064-2.916L453.06,98.712a6.048,6.048,0,0,1,5.439.226L480.43,111.6C482.04,112.531,482.214,113.935,480.821,114.741Z" transform="translate(-397.887 -98.17)" fill="#5793ce"/>
              </g>
            </g>
            <g id="Grupo_113692" data-name="Grupo 113692" transform="translate(6.586 79.543)">
              <path id="Trazado_118511" data-name="Trazado 118511" d="M412.648,187.823l-30.835-17.654a7.526,7.526,0,0,1-3.142-6V153.14c0-2.314,1.407-3.377,3.142-2.376l30.835,17.654a7.525,7.525,0,0,1,3.141,6v11.027C415.789,187.761,414.383,188.825,412.648,187.823Z" transform="translate(-378.671 -150.387)" fill="#084a93"/>
              <path id="Trazado_118512" data-name="Trazado 118512" d="M380.287,150.423a3.076,3.076,0,0,0-.788,2.294v11.027a7.523,7.523,0,0,0,3.141,6L413.474,187.4a2.255,2.255,0,0,0,1.526.332,1.872,1.872,0,0,1-2.352.082L381.813,170.16a7.526,7.526,0,0,1-3.142-6V153.131C378.671,151.56,379.327,150.586,380.287,150.423Z" transform="translate(-378.671 -150.379)" fill="#fff"/>
              <g id="Grupo_113691" data-name="Grupo 113691" transform="translate(11.731 13.435)">
                <path id="Trazado_118513" data-name="Trazado 118513" d="M399.334,172.243l-2.828-1.633a1.639,1.639,0,0,1-.684-1.308V166.28c0-.5.306-.736.684-.518l2.828,1.633a1.635,1.635,0,0,1,.686,1.308v3.021C400.019,172.229,399.713,172.462,399.334,172.243Z" transform="translate(-386.363 -160.22)" fill="#396caa"/>
                <path id="Trazado_118514" data-name="Trazado 118514" d="M391.68,167.823l-2.829-1.632a1.641,1.641,0,0,1-.684-1.308V161.86c0-.5.306-.735.684-.518l2.829,1.633a1.641,1.641,0,0,1,.684,1.308v3.021C392.364,167.811,392.058,168.042,391.68,167.823Z" transform="translate(-388.166 -161.261)" fill="#fff"/>
              </g>
            </g>
            <g id="Grupo_113694" data-name="Grupo 113694" transform="translate(6.586 159.224)">
              <path id="Trazado_118515" data-name="Trazado 118515" d="M412.648,252.314l-30.835-17.653a7.528,7.528,0,0,1-3.142-6V217.631c0-2.313,1.407-3.377,3.142-2.375l30.835,17.654a7.524,7.524,0,0,1,3.141,6v11.027C415.789,252.254,414.383,253.316,412.648,252.314Z" transform="translate(-378.671 -214.879)" fill="#084a93"/>
              <path id="Trazado_118516" data-name="Trazado 118516" d="M380.287,214.915a3.077,3.077,0,0,0-.788,2.294v11.026a7.525,7.525,0,0,0,3.141,6l30.835,17.654a2.269,2.269,0,0,0,1.526.332,1.874,1.874,0,0,1-2.352.08l-30.835-17.654a7.524,7.524,0,0,1-3.142-6V217.622C378.671,216.052,379.327,215.078,380.287,214.915Z" transform="translate(-378.671 -214.87)" fill="#fff"/>
              <g id="Grupo_113693" data-name="Grupo 113693" transform="translate(11.731 13.435)">
                <path id="Trazado_118517" data-name="Trazado 118517" d="M399.334,236.734l-2.828-1.632a1.641,1.641,0,0,1-.684-1.308v-3.022c0-.5.306-.736.684-.518l2.828,1.633a1.638,1.638,0,0,1,.686,1.308v3.021C400.019,236.72,399.713,236.953,399.334,236.734Z" transform="translate(-386.363 -224.712)" fill="#396caa"/>
                <path id="Trazado_118518" data-name="Trazado 118518" d="M391.68,232.315l-2.829-1.633a1.641,1.641,0,0,1-.684-1.308v-3.021c0-.5.306-.736.684-.518l2.829,1.632a1.641,1.641,0,0,1,.684,1.31V231.8C392.364,232.3,392.058,232.532,391.68,232.315Z" transform="translate(-388.166 -225.752)" fill="#fff"/>
              </g>
            </g>
            <g id="Grupo_113696" data-name="Grupo 113696" transform="translate(6.586 199.064)">
              <path id="Trazado_118519" data-name="Trazado 118519" d="M412.648,284.56l-30.835-17.654a7.526,7.526,0,0,1-3.142-6V249.877c0-2.314,1.407-3.377,3.142-2.375l30.835,17.653a7.525,7.525,0,0,1,3.141,6v11.027C415.789,284.5,414.383,285.562,412.648,284.56Z" transform="translate(-378.671 -247.125)" fill="#084a93"/>
              <path id="Trazado_118520" data-name="Trazado 118520" d="M380.287,247.16a3.077,3.077,0,0,0-.788,2.294v11.027a7.527,7.527,0,0,0,3.141,6l30.835,17.653a2.255,2.255,0,0,0,1.526.332,1.872,1.872,0,0,1-2.352.082L381.813,266.9a7.526,7.526,0,0,1-3.142-6V249.868C378.671,248.3,379.327,247.323,380.287,247.16Z" transform="translate(-378.671 -247.116)" fill="#fff"/>
              <g id="Grupo_113695" data-name="Grupo 113695" transform="translate(11.731 13.434)">
                <path id="Trazado_118521" data-name="Trazado 118521" d="M399.334,268.98l-2.828-1.633a1.639,1.639,0,0,1-.684-1.308v-3.021c0-.5.306-.736.684-.518l2.828,1.633a1.637,1.637,0,0,1,.686,1.308v3.021C400.019,268.966,399.713,269.2,399.334,268.98Z" transform="translate(-386.363 -256.957)" fill="#396caa"/>
                <path id="Trazado_118522" data-name="Trazado 118522" d="M391.68,264.56l-2.829-1.632a1.641,1.641,0,0,1-.684-1.308V258.6c0-.5.306-.735.684-.518l2.829,1.633a1.641,1.641,0,0,1,.684,1.308v3.022C392.364,264.548,392.058,264.779,391.68,264.56Z" transform="translate(-388.166 -257.998)" fill="#fff"/>
              </g>
            </g>
            <g id="Grupo_113698" data-name="Grupo 113698" transform="translate(6.586 119.383)">
              <path id="Trazado_118523" data-name="Trazado 118523" d="M412.648,220.069l-30.835-17.654a7.526,7.526,0,0,1-3.142-6V185.385c0-2.313,1.407-3.377,3.142-2.375l30.835,17.654a7.525,7.525,0,0,1,3.141,6v11.026C415.789,220.008,414.383,221.07,412.648,220.069Z" transform="translate(-378.671 -182.633)" fill="#084a93"/>
              <path id="Trazado_118524" data-name="Trazado 118524" d="M380.287,182.669a3.077,3.077,0,0,0-.788,2.294V195.99a7.524,7.524,0,0,0,3.141,6l30.835,17.654a2.262,2.262,0,0,0,1.526.332,1.872,1.872,0,0,1-2.352.082l-30.835-17.654a7.526,7.526,0,0,1-3.142-6V185.376C378.671,183.806,379.327,182.832,380.287,182.669Z" transform="translate(-378.671 -182.624)" fill="#fff"/>
              <g id="Grupo_113697" data-name="Grupo 113697" transform="translate(11.731 13.435)">
                <path id="Trazado_118525" data-name="Trazado 118525" d="M399.334,204.489l-2.828-1.633a1.641,1.641,0,0,1-.684-1.308v-3.021c0-.505.306-.736.684-.518l2.828,1.632a1.638,1.638,0,0,1,.686,1.308v3.022C400.019,204.475,399.713,204.706,399.334,204.489Z" transform="translate(-386.363 -192.465)" fill="#396caa"/>
                <path id="Trazado_118526" data-name="Trazado 118526" d="M391.68,200.069l-2.829-1.633a1.637,1.637,0,0,1-.684-1.308v-3.021c0-.5.306-.736.684-.518l2.829,1.633a1.641,1.641,0,0,1,.684,1.308v3.021C392.364,200.055,392.058,200.288,391.68,200.069Z" transform="translate(-388.166 -193.506)" fill="#fff"/>
              </g>
            </g>
          </g>
          <g id="Grupo_113700" data-name="Grupo 113700" transform="translate(64.386 43.022)">
            <path id="Trazado_118527" data-name="Trazado 118527" d="M428.335,183.5l71.138-41.071a6.9,6.9,0,0,0,2.884-5.508V123.353c0-2.124-1.291-3.1-2.884-2.179l-71.138,41.071a6.906,6.906,0,0,0-2.882,5.508v13.565C425.453,183.441,426.744,184.417,428.335,183.5Z" transform="translate(-425.453 -120.828)" fill="#5793ce"/>
            <path id="Trazado_118528" data-name="Trazado 118528" d="M429.718,177.8l67.054-38.713a3.505,3.505,0,0,0,1.462-2.795V126.1c0-1.077-.655-1.572-1.462-1.106L429.718,163.7a3.5,3.5,0,0,0-1.463,2.795v10.2C428.255,177.773,428.91,178.269,429.718,177.8Z" transform="translate(-424.793 -119.889)" fill="#d4ecff" opacity="0.4"/>
            <path id="Trazado_118529" data-name="Trazado 118529" d="M472.671,140.581l10.008-5.777a3.4,3.4,0,0,0,1.42-2.713h0c0-1.046-.635-1.527-1.42-1.075l-10.008,5.779a3.4,3.4,0,0,0-1.42,2.713h0C471.251,140.554,471.886,141.034,472.671,140.581Z" transform="translate(-414.667 -118.469)" fill="#d4ecff"/>
            <path id="Trazado_118530" data-name="Trazado 118530" d="M465.5,141.761c0,1.046.735,1.47,1.641.948a3.627,3.627,0,0,0,1.64-2.842c0-1.045-.734-1.469-1.64-.946A3.626,3.626,0,0,0,465.5,141.761Z" transform="translate(-416.022 -116.619)" fill="#173d7a"/>
            <path id="Trazado_118531" data-name="Trazado 118531" d="M460.815,144.465c0,1.046.735,1.47,1.641.946a3.623,3.623,0,0,0,1.64-2.84c0-1.045-.734-1.469-1.64-.946A3.626,3.626,0,0,0,460.815,144.465Z" transform="translate(-417.125 -115.983)" fill="#173d7a"/>
            <path id="Trazado_118532" data-name="Trazado 118532" d="M456.132,147.169c0,1.045.735,1.469,1.641.946a3.623,3.623,0,0,0,1.64-2.84c0-1.046-.734-1.47-1.64-.948A3.629,3.629,0,0,0,456.132,147.169Z" transform="translate(-418.227 -115.346)" fill="#d4ecff"/>
            <path id="Trazado_118533" data-name="Trazado 118533" d="M451.449,149.873c0,1.045.735,1.469,1.641.946a3.625,3.625,0,0,0,1.64-2.84c0-1.046-.734-1.47-1.64-.948A3.629,3.629,0,0,0,451.449,149.873Z" transform="translate(-419.33 -114.709)" fill="#173d7a"/>
            <path id="Trazado_118534" data-name="Trazado 118534" d="M431.9,164.64l3.371-1.946a2.184,2.184,0,0,0,.912-1.742v-3.566c0-.671-.409-.98-.912-.689l-3.371,1.946a2.184,2.184,0,0,0-.912,1.742v3.566C430.984,164.623,431.392,164.93,431.9,164.64Z" transform="translate(-424.15 -112.406)" fill="#173d7a"/>
          </g>
          <g id="Grupo_113701" data-name="Grupo 113701" transform="translate(64.386 66.942)">
            <path id="Trazado_118535" data-name="Trazado 118535" d="M428.335,202.857l71.138-41.071a6.9,6.9,0,0,0,2.884-5.508V142.713c0-2.123-1.291-3.1-2.884-2.179l-71.138,41.071a6.906,6.906,0,0,0-2.882,5.509v13.564C425.453,202.8,426.744,203.777,428.335,202.857Z" transform="translate(-425.453 -140.188)" fill="#5793ce"/>
            <path id="Trazado_118536" data-name="Trazado 118536" d="M429.718,197.163l67.054-38.714a3.5,3.5,0,0,0,1.462-2.795v-10.2c0-1.077-.655-1.573-1.462-1.106l-67.054,38.713a3.5,3.5,0,0,0-1.463,2.795v10.2C428.255,197.134,428.91,197.628,429.718,197.163Z" transform="translate(-424.793 -139.249)" fill="#d4ecff" opacity="0.4"/>
            <path id="Trazado_118537" data-name="Trazado 118537" d="M472.671,159.942l10.008-5.779a3.4,3.4,0,0,0,1.42-2.713h0c0-1.046-.635-1.527-1.42-1.074l-10.008,5.777a3.4,3.4,0,0,0-1.42,2.713h0C471.251,159.914,471.886,160.394,472.671,159.942Z" transform="translate(-414.667 -137.829)" fill="#d4ecff"/>
            <path id="Trazado_118538" data-name="Trazado 118538" d="M465.5,161.122c0,1.045.735,1.469,1.641.946a3.625,3.625,0,0,0,1.64-2.84c0-1.046-.734-1.47-1.64-.948A3.629,3.629,0,0,0,465.5,161.122Z" transform="translate(-416.022 -135.98)" fill="#fff"/>
            <path id="Trazado_118539" data-name="Trazado 118539" d="M460.815,163.825c0,1.047.735,1.47,1.641.948a3.627,3.627,0,0,0,1.64-2.84c0-1.046-.734-1.47-1.64-.948A3.626,3.626,0,0,0,460.815,163.825Z" transform="translate(-417.125 -135.343)" fill="#173d7a"/>
            <path id="Trazado_118540" data-name="Trazado 118540" d="M456.132,166.529c0,1.046.735,1.47,1.641.948a3.628,3.628,0,0,0,1.64-2.842c0-1.045-.734-1.469-1.64-.946A3.626,3.626,0,0,0,456.132,166.529Z" transform="translate(-418.227 -134.706)" fill="#d4ecff"/>
            <path id="Trazado_118541" data-name="Trazado 118541" d="M451.449,169.233c0,1.045.735,1.469,1.641.946a3.623,3.623,0,0,0,1.64-2.84c0-1.045-.734-1.47-1.64-.946A3.625,3.625,0,0,0,451.449,169.233Z" transform="translate(-419.33 -134.069)" fill="#173d7a"/>
            <path id="Trazado_118542" data-name="Trazado 118542" d="M431.9,184l3.371-1.947a2.183,2.183,0,0,0,.912-1.741v-3.567c0-.671-.409-.98-.912-.688L431.9,178a2.18,2.18,0,0,0-.912,1.741v3.567C430.984,183.983,431.392,184.291,431.9,184Z" transform="translate(-424.15 -131.766)" fill="#173d7a"/>
          </g>
          <g id="Grupo_113702" data-name="Grupo 113702" transform="translate(64.386 90.861)">
            <path id="Trazado_118543" data-name="Trazado 118543" d="M428.335,222.219l71.138-41.071a6.9,6.9,0,0,0,2.884-5.509V162.073c0-2.123-1.291-3.1-2.884-2.179l-71.138,41.071a6.908,6.908,0,0,0-2.882,5.509v13.565C425.453,222.162,426.744,223.138,428.335,222.219Z" transform="translate(-425.453 -159.548)" fill="#5793ce"/>
            <path id="Trazado_118544" data-name="Trazado 118544" d="M429.718,216.523l67.054-38.713a3.507,3.507,0,0,0,1.462-2.795v-10.2c0-1.077-.655-1.573-1.462-1.106l-67.054,38.713a3.5,3.5,0,0,0-1.463,2.795v10.2C428.255,216.494,428.91,216.99,429.718,216.523Z" transform="translate(-424.793 -158.609)" fill="#d4ecff" opacity="0.4"/>
            <path id="Trazado_118545" data-name="Trazado 118545" d="M472.671,179.3l10.008-5.777a3.4,3.4,0,0,0,1.42-2.714h0c0-1.045-.635-1.526-1.42-1.074l-10.008,5.777a3.4,3.4,0,0,0-1.42,2.714h0C471.251,179.273,471.886,179.754,472.671,179.3Z" transform="translate(-414.667 -157.189)" fill="#d4ecff"/>
            <path id="Trazado_118546" data-name="Trazado 118546" d="M465.5,180.482c0,1.046.735,1.47,1.641.946a3.623,3.623,0,0,0,1.64-2.84c0-1.045-.734-1.469-1.64-.946A3.624,3.624,0,0,0,465.5,180.482Z" transform="translate(-416.022 -155.339)" fill="#fff"/>
            <path id="Trazado_118547" data-name="Trazado 118547" d="M460.815,183.186c0,1.045.735,1.469,1.641.946a3.625,3.625,0,0,0,1.64-2.84c0-1.046-.734-1.47-1.64-.946A3.625,3.625,0,0,0,460.815,183.186Z" transform="translate(-417.125 -154.703)" fill="#173d7a"/>
            <path id="Trazado_118548" data-name="Trazado 118548" d="M456.132,185.89c0,1.045.735,1.469,1.641.946a3.625,3.625,0,0,0,1.64-2.84c0-1.046-.734-1.47-1.64-.948A3.629,3.629,0,0,0,456.132,185.89Z" transform="translate(-418.227 -154.066)" fill="#d4ecff"/>
            <path id="Trazado_118549" data-name="Trazado 118549" d="M451.449,188.593c0,1.046.735,1.47,1.641.948a3.627,3.627,0,0,0,1.64-2.842c0-1.045-.734-1.469-1.64-.946A3.626,3.626,0,0,0,451.449,188.593Z" transform="translate(-419.33 -153.429)" fill="#173d7a"/>
            <path id="Trazado_118550" data-name="Trazado 118550" d="M431.9,203.361l3.371-1.946a2.186,2.186,0,0,0,.912-1.742v-3.566c0-.672-.409-.98-.912-.689l-3.371,1.946a2.18,2.18,0,0,0-.912,1.742v3.566C430.984,203.342,431.392,203.651,431.9,203.361Z" transform="translate(-424.15 -151.126)" fill="#173d7a"/>
          </g>
          <g id="Grupo_113703" data-name="Grupo 113703" transform="translate(64.386 114.782)">
            <path id="Trazado_118551" data-name="Trazado 118551" d="M428.335,241.578l71.138-41.071A6.9,6.9,0,0,0,502.357,195V181.434c0-2.124-1.291-3.1-2.884-2.179l-71.138,41.071a6.906,6.906,0,0,0-2.882,5.508V239.4C425.453,241.522,426.744,242.5,428.335,241.578Z" transform="translate(-425.453 -178.909)" fill="#5793ce"/>
            <path id="Trazado_118552" data-name="Trazado 118552" d="M429.718,235.884l67.054-38.714a3.5,3.5,0,0,0,1.462-2.795v-10.2c0-1.077-.655-1.572-1.462-1.106l-67.054,38.714a3.5,3.5,0,0,0-1.463,2.795v10.2C428.255,235.854,428.91,236.35,429.718,235.884Z" transform="translate(-424.793 -177.97)" fill="#d4ecff" opacity="0.4"/>
            <path id="Trazado_118553" data-name="Trazado 118553" d="M472.671,198.662l10.008-5.777a3.4,3.4,0,0,0,1.42-2.713h0c0-1.046-.635-1.527-1.42-1.074l-10.008,5.777a3.4,3.4,0,0,0-1.42,2.713h0C471.251,198.635,471.886,199.115,472.671,198.662Z" transform="translate(-414.667 -176.549)" fill="#d4ecff"/>
            <path id="Trazado_118554" data-name="Trazado 118554" d="M465.5,199.842c0,1.046.735,1.47,1.641.948a3.627,3.627,0,0,0,1.64-2.84c0-1.046-.734-1.47-1.64-.948A3.626,3.626,0,0,0,465.5,199.842Z" transform="translate(-416.022 -174.7)" fill="#173d7a"/>
            <path id="Trazado_118555" data-name="Trazado 118555" d="M460.815,202.546c0,1.046.735,1.47,1.641.946a3.623,3.623,0,0,0,1.64-2.84c0-1.045-.734-1.469-1.64-.946A3.625,3.625,0,0,0,460.815,202.546Z" transform="translate(-417.125 -174.064)" fill="#173d7a"/>
            <path id="Trazado_118556" data-name="Trazado 118556" d="M456.132,205.25c0,1.045.735,1.469,1.641.946a3.623,3.623,0,0,0,1.64-2.84c0-1.046-.734-1.47-1.64-.946A3.624,3.624,0,0,0,456.132,205.25Z" transform="translate(-418.227 -173.427)" fill="#d4ecff"/>
            <path id="Trazado_118557" data-name="Trazado 118557" d="M451.449,207.954c0,1.045.735,1.469,1.641.946a3.625,3.625,0,0,0,1.64-2.84c0-1.046-.734-1.47-1.64-.948A3.629,3.629,0,0,0,451.449,207.954Z" transform="translate(-419.33 -172.79)" fill="#173d7a"/>
            <path id="Trazado_118558" data-name="Trazado 118558" d="M431.9,222.721l3.371-1.946a2.184,2.184,0,0,0,.912-1.742v-3.566c0-.671-.409-.98-.912-.689l-3.371,1.946a2.184,2.184,0,0,0-.912,1.742v3.566C430.984,222.7,431.392,223.011,431.9,222.721Z" transform="translate(-424.15 -170.487)" fill="#d4ecff"/>
          </g>
          <g id="Grupo_113704" data-name="Grupo 113704" transform="translate(64.386 138.702)">
            <path id="Trazado_118559" data-name="Trazado 118559" d="M428.335,260.938l71.138-41.071a6.9,6.9,0,0,0,2.884-5.508V200.794c0-2.123-1.291-3.1-2.884-2.179l-71.138,41.071a6.906,6.906,0,0,0-2.882,5.508v13.565C425.453,260.883,426.744,261.859,428.335,260.938Z" transform="translate(-425.453 -198.269)" fill="#5793ce"/>
            <path id="Trazado_118560" data-name="Trazado 118560" d="M429.718,255.244l67.054-38.714a3.5,3.5,0,0,0,1.462-2.795v-10.2c0-1.076-.655-1.572-1.462-1.1l-67.054,38.713a3.5,3.5,0,0,0-1.463,2.795v10.2C428.255,255.215,428.91,255.709,429.718,255.244Z" transform="translate(-424.793 -197.33)" fill="#d4ecff" opacity="0.4"/>
            <path id="Trazado_118561" data-name="Trazado 118561" d="M472.671,218.023l10.008-5.779a3.4,3.4,0,0,0,1.42-2.713h0c0-1.046-.635-1.527-1.42-1.074l-10.008,5.777a3.4,3.4,0,0,0-1.42,2.714h0C471.251,217.995,471.886,218.475,472.671,218.023Z" transform="translate(-414.667 -195.91)" fill="#d4ecff"/>
            <path id="Trazado_118562" data-name="Trazado 118562" d="M465.5,219.2c0,1.045.735,1.469,1.641.946a3.625,3.625,0,0,0,1.64-2.84c0-1.046-.734-1.47-1.64-.948A3.629,3.629,0,0,0,465.5,219.2Z" transform="translate(-416.022 -194.061)" fill="#173d7a"/>
            <path id="Trazado_118563" data-name="Trazado 118563" d="M460.815,221.906c0,1.046.735,1.47,1.641.948a3.625,3.625,0,0,0,1.64-2.84c0-1.046-.734-1.47-1.64-.948A3.628,3.628,0,0,0,460.815,221.906Z" transform="translate(-417.125 -193.424)" fill="#fff"/>
            <path id="Trazado_118564" data-name="Trazado 118564" d="M456.132,224.61c0,1.046.735,1.47,1.641.946a3.623,3.623,0,0,0,1.64-2.84c0-1.045-.734-1.469-1.64-.946A3.626,3.626,0,0,0,456.132,224.61Z" transform="translate(-418.227 -192.787)" fill="#d4ecff"/>
            <path id="Trazado_118565" data-name="Trazado 118565" d="M451.449,227.314c0,1.046.735,1.47,1.641.946a3.623,3.623,0,0,0,1.64-2.84c0-1.045-.734-1.47-1.64-.946A3.625,3.625,0,0,0,451.449,227.314Z" transform="translate(-419.33 -192.15)" fill="#fff"/>
            <path id="Trazado_118566" data-name="Trazado 118566" d="M431.9,242.082l3.371-1.947a2.183,2.183,0,0,0,.912-1.741v-3.567c0-.671-.409-.98-.912-.688l-3.371,1.946a2.18,2.18,0,0,0-.912,1.741v3.567C430.984,242.064,431.392,242.372,431.9,242.082Z" transform="translate(-424.15 -189.847)" fill="#d4ecff"/>
          </g>
          <g id="Grupo_113705" data-name="Grupo 113705" transform="translate(64.386 162.622)">
            <path id="Trazado_118567" data-name="Trazado 118567" d="M428.335,280.3l71.138-41.071a6.9,6.9,0,0,0,2.884-5.509V220.154c0-2.123-1.291-3.1-2.884-2.179l-71.138,41.071a6.91,6.91,0,0,0-2.882,5.509V278.12C425.453,280.243,426.744,281.219,428.335,280.3Z" transform="translate(-425.453 -217.629)" fill="#5793ce"/>
            <path id="Trazado_118568" data-name="Trazado 118568" d="M429.718,274.6l67.054-38.713a3.506,3.506,0,0,0,1.462-2.795V222.9c0-1.077-.655-1.573-1.462-1.106l-67.054,38.713a3.5,3.5,0,0,0-1.463,2.795v10.2C428.255,274.575,428.91,275.071,429.718,274.6Z" transform="translate(-424.793 -216.69)" fill="#d4ecff" opacity="0.4"/>
            <path id="Trazado_118569" data-name="Trazado 118569" d="M472.671,237.383l10.008-5.777a3.4,3.4,0,0,0,1.42-2.714h0c0-1.045-.635-1.526-1.42-1.074l-10.008,5.777a3.4,3.4,0,0,0-1.42,2.714h0C471.251,237.354,471.886,237.836,472.671,237.383Z" transform="translate(-414.667 -215.269)" fill="#d4ecff"/>
            <path id="Trazado_118570" data-name="Trazado 118570" d="M465.5,238.563c0,1.046.735,1.47,1.641.946a3.623,3.623,0,0,0,1.64-2.84c0-1.045-.734-1.47-1.64-.946A3.624,3.624,0,0,0,465.5,238.563Z" transform="translate(-416.022 -213.42)" fill="#173d7a"/>
            <path id="Trazado_118571" data-name="Trazado 118571" d="M460.815,241.267c0,1.045.735,1.469,1.641.946a3.623,3.623,0,0,0,1.64-2.84c0-1.046-.734-1.47-1.64-.946A3.625,3.625,0,0,0,460.815,241.267Z" transform="translate(-417.125 -212.784)" fill="#173d7a"/>
            <path id="Trazado_118572" data-name="Trazado 118572" d="M456.132,243.971c0,1.045.735,1.469,1.641.946a3.625,3.625,0,0,0,1.64-2.84c0-1.046-.734-1.47-1.64-.948A3.629,3.629,0,0,0,456.132,243.971Z" transform="translate(-418.227 -212.147)" fill="#d4ecff"/>
            <path id="Trazado_118573" data-name="Trazado 118573" d="M451.449,246.674c0,1.046.735,1.47,1.641.948a3.627,3.627,0,0,0,1.64-2.842c0-1.045-.734-1.469-1.64-.946A3.626,3.626,0,0,0,451.449,246.674Z" transform="translate(-419.33 -211.51)" fill="#173d7a"/>
            <path id="Trazado_118574" data-name="Trazado 118574" d="M431.9,261.442l3.371-1.946a2.188,2.188,0,0,0,.912-1.742v-3.566c0-.672-.409-.98-.912-.689l-3.371,1.946a2.18,2.18,0,0,0-.912,1.742v3.566C430.984,261.423,431.392,261.732,431.9,261.442Z" transform="translate(-424.15 -209.207)" fill="#173d7a"/>
          </g>
          <g id="Grupo_113706" data-name="Grupo 113706" transform="translate(64.386 186.542)">
            <path id="Trazado_118575" data-name="Trazado 118575" d="M428.335,299.659l71.138-41.071a6.9,6.9,0,0,0,2.884-5.508V239.515c0-2.124-1.291-3.1-2.884-2.179l-71.138,41.071a6.906,6.906,0,0,0-2.882,5.508V297.48C425.453,299.6,426.744,300.579,428.335,299.659Z" transform="translate(-425.453 -236.99)" fill="#5793ce"/>
            <path id="Trazado_118576" data-name="Trazado 118576" d="M429.718,293.965l67.054-38.714a3.5,3.5,0,0,0,1.462-2.795v-10.2c0-1.077-.655-1.572-1.462-1.106l-67.054,38.714a3.5,3.5,0,0,0-1.463,2.795v10.2C428.255,293.935,428.91,294.431,429.718,293.965Z" transform="translate(-424.793 -236.051)" fill="#d4ecff" opacity="0.4"/>
            <path id="Trazado_118577" data-name="Trazado 118577" d="M472.671,256.743l10.008-5.777a3.4,3.4,0,0,0,1.42-2.713h0c0-1.047-.635-1.527-1.42-1.074l-10.008,5.777a3.4,3.4,0,0,0-1.42,2.713h0C471.251,256.716,471.886,257.2,472.671,256.743Z" transform="translate(-414.667 -234.63)" fill="#d4ecff"/>
            <path id="Trazado_118578" data-name="Trazado 118578" d="M464.018,259.49c0,1.976,1.387,2.776,3.1,1.789a6.847,6.847,0,0,0,3.1-5.366c0-1.976-1.386-2.776-3.1-1.789A6.849,6.849,0,0,0,464.018,259.49Z" transform="translate(-416.37 -233.054)" fill="#fff"/>
            <path id="Trazado_118579" data-name="Trazado 118579" d="M454.319,264.647c0,1.046.734,1.47,1.64.946a3.624,3.624,0,0,0,1.641-2.84c0-1.045-.735-1.469-1.641-.946A3.625,3.625,0,0,0,454.319,264.647Z" transform="translate(-418.654 -231.198)" fill="#173d7a"/>
            <path id="Trazado_118580" data-name="Trazado 118580" d="M449.636,267.351c0,1.045.734,1.47,1.64.946a3.623,3.623,0,0,0,1.64-2.84c0-1.047-.734-1.47-1.64-.946A3.623,3.623,0,0,0,449.636,267.351Z" transform="translate(-419.757 -230.561)" fill="#d4ecff"/>
            <path id="Trazado_118581" data-name="Trazado 118581" d="M444.952,270.055c0,1.045.735,1.469,1.641.946a3.626,3.626,0,0,0,1.641-2.84c0-1.047-.735-1.47-1.641-.948A3.629,3.629,0,0,0,444.952,270.055Z" transform="translate(-420.861 -229.924)" fill="#173d7a"/>
            <path id="Trazado_118582" data-name="Trazado 118582" d="M431.9,280.8l3.371-1.946a2.183,2.183,0,0,0,.912-1.741v-3.567c0-.671-.409-.98-.912-.689L431.9,274.8a2.184,2.184,0,0,0-.912,1.742v3.567C430.984,280.785,431.392,281.094,431.9,280.8Z" transform="translate(-424.15 -228.568)" fill="#d4ecff"/>
          </g>
        </g>
      </g>
    </g>
    <g id="Capa_6" data-name="Capa 6" transform="translate(1252.46 251.246)">
      <path id="Trazado_118583" data-name="Trazado 118583" d="M556.146,141.962a13.546,13.546,0,0,0-2.171,1.59c-.3-9.768-7.356-13.653-16.04-8.64-7.072,4.083-13.064,12.825-15.212,21.393a9.592,9.592,0,0,0-6,1.49c-6.33,3.655-11.462,12.543-11.462,19.854s5.132,10.272,11.462,6.616l39.422-22.76c4.674-2.7,8.462-9.26,8.462-14.657S560.82,139.264,556.146,141.962Z" transform="translate(-505.262 -132.722)" fill="#fff"/>
    </g>
    <g id="Capa_5" data-name="Capa 5" transform="translate(900.941 271.36)">
      <path id="Trazado_118584" data-name="Trazado 118584" d="M271.635,158.243a13.582,13.582,0,0,0-2.171,1.59c-.3-9.768-7.356-13.654-16.04-8.64-7.072,4.082-13.064,12.825-15.212,21.392a9.59,9.59,0,0,0-6,1.491c-6.331,3.655-11.463,12.543-11.463,19.852s5.132,10.272,11.463,6.617l39.42-22.76c4.674-2.7,8.463-9.261,8.463-14.658S276.309,155.544,271.635,158.243Z" transform="translate(-220.751 -149.001)" fill="#00defc"/>
    </g>
  </g>
</svg>
